<svg id="Ebene_1" data-name="Ebene 1" xmlns="http://www.w3.org/2000/svg" viewBox="0 0 370.16 472.29"><defs><style>.cls-1,.cls-2{fill:#b74e4e;}.cls-1{opacity:0.97;}</style></defs><path class="cls-1" d="M195.8,355.59l36.13,69-15,11.59L117.56,489.7s-11.76,4.12-16.47-5.29-4.71-20,2.35-31.18,24.12-19.1,26.47-30.14,13.53-8.68,16.47-24-10.58-10.59-10.58-10.59-10.59-11.18-.59-11.77,14.7,2.94,14.7,2.94L144,366.82s3.07-12.63,22-18.88c17.38-5.75,28,2.35,28,2.35h0Z" transform="translate(-97.81 -18.31)"/><path class="cls-1" d="M322.05,368.15,324.62,446l18.73,2.72,112.89-2.44s12.26-2.22,11.72-12.73-5.77-19.72-17.42-26-30.4-4.73-37.89-13.17-16-.89-26.15-12.74,4-14.44,4-14.44,3.7-14.94-5.29-10.52-11.34,9.81-11.34,9.81l-1.24-14.11s-8.9-9.48-28.41-5.6c-18,3.56-23.24,15.87-23.24,15.87h0Z" transform="translate(-97.81 -18.31)"/><polygon class="cls-2" points="251.18 164.19 173.62 0.38 60.89 0 122.47 51.07 60.89 0 60.89 0 13.17 173.46 39.91 326.64 96.48 316.77 71.93 176.15 125.02 87.76 188.44 175.5 215.85 327.56 278.59 316.25 251.18 164.19"/></svg>