<svg id="Ebene_1" data-name="Ebene 1" xmlns="http://www.w3.org/2000/svg" viewBox="0 0 1366 392.61"><defs><style>.cls-1{fill:#a7c0f2;}</style></defs><path class="cls-1" d="M60,62.1" transform="translate(-0.75 0)"/><path class="cls-1" d="M1030.5,295.5c-127-.76-125.16-90.31-260-111-129.54-19.88-141,61.26-389,94-124.49,16.44-207.62,7.35-281-16a544.85,544.85,0,0,1-99-42.74v94.69A1183.45,1183.45,0,0,0,132,341c62.11,9,143.69,20.88,243,9,102.08-12.22,100.49-26.05,178-38,80.91-12.46,150.21-47.45,261,1,112,49,159.72,90.62,258,77,114.9-16,134.37-58.39,247-55a459.33,459.33,0,0,1,47,3.91V227.32c-15.53,1.93-34.31,5-57.5,9.18C1117,271,1097.6,295.9,1030.5,295.5Z" transform="translate(-0.75 0)"/><path class="cls-1" d="M2.25,171.87a544.85,544.85,0,0,0,99,42.74c73.38,23.35,156.51,32.44,281,16,248-32.74,259.46-113.88,389-94,134.84,20.69,133,110.24,260,111,67.1.4,86.51-24.49,278-59,23.19-4.18,42-7.25,57.5-9.18V45.72c-15.81,1.92-35.06,5.05-59,9.37-191.49,34.51-210.9,59.4-278,59-127-.76-125.16-90.31-260-111-129.54-19.88-141,61.26-389,94-124.49,16.44-207.62,7.35-281-16a544.85,544.85,0,0,1-99-42.74V266.16l1.5.4Z" transform="translate(-0.75 0)"/></svg>