<svg id="Ebene_1" data-name="Ebene 1" xmlns="http://www.w3.org/2000/svg" viewBox="0 0 1039.46 306.81"><defs><style>.cls-1{fill:#4d4d94;}</style></defs><path class="cls-1" d="M1019.45,133.94c-9.08-11.42-41.92-26.32-47-37.16,11.25,1.6,56.76,7.48,79.09,16.15a47.52,47.52,0,0,1,5.38,2.49c13.93-3.53,31.46-5.64,50.53-5.64,45.29,0,82,11.86,82,26.5s-36.71,26.5-82,26.5c-24,0-45.62-3.34-60.62-8.66C1023.36,161,983,165.67,972.47,167,977.54,157.36,1010.35,144.11,1019.45,133.94Z" transform="translate(-150 -19.83)"/><path class="cls-1" d="M870.27,19.83c10.13,1.51,51.06,7.17,71.19,14.61a45.93,45.93,0,0,1,9,4.45,157.31,157.31,0,0,1,29.85,1.75c33.32,5,58.92,18.49,57.17,30.1s-30.17,17-63.5,12c-15-2.25-28.38-6.21-38.45-11-21.39,2.7-60.1.88-69.94.51,6-7.45,40.85-13.93,47.39-21.36C905,41.49,874.94,28.71,870.27,19.83Z" transform="translate(-150 -19.83)"/><path class="cls-1" d="M859.83,159.28c5.72-.65,28.76-3.53,40.78-2.32a25.37,25.37,0,0,1,5.53,1.18,85.2,85.2,0,0,1,16.45-3.44c18.82-2.12,34.69,1.69,35.46,8.5s-13.87,14.05-32.69,16.17a77.27,77.27,0,0,1-22.47-.48c-11.21,4.7-32.48,9.41-37.87,10.67,2.18-5.11,20.1-13.92,22.56-19.09C881.85,166.35,863.68,163.6,859.83,159.28Z" transform="translate(-150 -19.83)"/><path class="cls-1" d="M759.06,116.6c5.58,1.4,28.17,6.78,39,12.12a25,25,0,0,1,4.77,3.05,85,85,0,0,1,16.61,2.54c18.37,4.62,31.9,13.74,30.23,20.39s-17.91,8.3-36.27,3.69a77.34,77.34,0,0,1-20.89-8.32c-12.14.47-33.71-2.57-39.2-3.29,3.83-4,23.71-6,27.81-10C777.21,131,761.15,122,759.06,116.6Z" transform="translate(-150 -19.83)"/><path class="cls-1" d="M754.78,84.71c2.52.57,12.73,2.68,17.47,5.75a9.16,9.16,0,0,1,2,1.87,23.18,23.18,0,0,1,7.59.5c8.29,1.89,14.07,7.56,12.91,12.64s-8.83,7.68-17.12,5.79a21.72,21.72,0,0,1-9.25-4.44c-5.68,1.37-15.56.91-18.08.84,2-3.31,11.4-6.45,13.54-9.76C762.4,93.87,755.44,88.55,754.78,84.71Z" transform="translate(-150 -19.83)"/><path class="cls-1" d="M645.62,116.79c1.47-9.65-8-16.74-4.06-23.35,2.26-3.82,9.94,10.79,14.05,11.85a39.9,39.9,0,0,1,5.56,1.77,42.88,42.88,0,0,1,21.29-4.28c19.33,0,35,7.84,35,17.5s-15.67,17.5-35,17.5c-10.3,0-19.56-2.23-26-5.77-13.15,10.48-36.09,9.25-36.87,6.9C618.77,136.36,643.41,131.34,645.62,116.79Z" transform="translate(-150 -19.83)"/><path class="cls-1" d="M485.35,102" transform="translate(-150 -19.83)"/><path class="cls-1" d="M529.51,195.51c1.47-9.65-8-16.74-4-23.36,2.25-3.81,9.94,10.8,14,11.86a40.07,40.07,0,0,1,5.57,1.77,53.32,53.32,0,0,1,8.21-3,53.89,53.89,0,0,1,13.07-1.26c19.33,0,35,7.84,35,17.5s-15.67,17.5-35,17.5c-10.3,0-19.56-2.23-26-5.77-13.16,10.48-36.09,9.25-36.88,6.9C502.67,215.08,527.3,210.06,529.51,195.51Z" transform="translate(-150 -19.83)"/><path class="cls-1" d="M684.84,252.5c-.12-9.76-10.58-15.22-7.81-22.38,1.6-4.13,11.57,9,15.79,9.41a40.06,40.06,0,0,1,5.78.84,52.86,52.86,0,0,1,7.62-4.32,53.73,53.73,0,0,1,12.69-3.37c19.07-3.15,35.81,2,37.38,11.56s-12.61,19.82-31.68,23c-10.17,1.68-19.67,1-26.56-1.46-11.27,12.48-34.1,15-35.26,12.81C661.54,276.19,685,267.22,684.84,252.5Z" transform="translate(-150 -19.83)"/><path class="cls-1" d="M447.51,73.79c4.14-16.13-6.75-29.84-.07-40.36,3.86-6.08,10.72,20.08,15.93,22.62a45.7,45.7,0,0,1,7,4,62.75,62.75,0,0,1,11.58-3.67c3.53-.71,9.5-.9,17.61.18C525.16,60,544.15,76.07,542,92.48S517.2,119.4,491.57,116c-13.65-1.83-25.43-7.25-33.11-14.4-19.82,15.45-49.95,9.28-50.45,5.15C407.47,102.24,441.26,98.1,447.51,73.79Z" transform="translate(-150 -19.83)"/><path class="cls-1" d="M511.92,149.74c.93-7.23-5-12.54-2.57-17.49,1.43-2.85,6.29,8.08,8.89,8.88a23.61,23.61,0,0,1,3.52,1.32,31.72,31.72,0,0,1,5.19-2.26,29.28,29.28,0,0,1,8.27-.94c12.22,0,22.13,5.87,22.13,13.1s-9.91,13.1-22.13,13.1c-6.52,0-12.37-1.67-16.42-4.32-8.32,7.85-22.83,6.92-23.32,5.16S510.52,160.63,511.92,149.74Z" transform="translate(-150 -19.83)"/><path class="cls-1" d="M396.86,151.08c-4.52-9-20.88-20.75-23.4-29.3,5.6,1.26,28.26,5.89,39.38,12.74a20.68,20.68,0,0,1,2.68,2A68.51,68.51,0,0,1,440.68,132c22.55,0,40.83,9.36,40.83,20.9s-18.28,20.89-40.83,20.89c-12,0-22.72-2.63-30.18-6.82-11.69,5.44-31.8,9.1-37,10.15C376,169.55,392.33,159.1,396.86,151.08Z" transform="translate(-150 -19.83)"/><path class="cls-1" d="M398.61,253.71c-5.66-6.59-23.44-13.52-27.06-20.06,5.73.13,28.86.29,40.8,4.08a23.21,23.21,0,0,1,2.91,1.16,83.17,83.17,0,0,1,24.43-7.6c22.42-3.59,41.8,1.1,43.3,10.46s-15.46,19.86-37.87,23.44c-11.89,1.91-22.92,1.48-30.89-.74-10.92,6.28-30.42,12.45-35.49,14.13C380.26,272,395.15,260.93,398.61,253.71Z" transform="translate(-150 -19.83)"/><path class="cls-1" d="M312,235.11c-2.65-5.21-9.66-11.27-11.57-16.33,2.06.39,10.33,1.67,15,5.09a9.89,9.89,0,0,1,1.15,1,14.88,14.88,0,0,1,8-4.44c7.66-1.55,15,2.92,16.45,10s-3.63,14-11.29,15.58a14.7,14.7,0,0,1-11.1-2.1c-3.3,4.12-9.68,7.75-11.32,8.74C307.21,247.83,311.48,240.32,312,235.11Z" transform="translate(-150 -19.83)"/><path class="cls-1" d="M279.16,276.77c.73-4.82-4-8.37-2-11.67,1.12-1.91,5,5.39,7,5.92a19.91,19.91,0,0,1,2.78.89A26.52,26.52,0,0,1,291,270.4a27.09,27.09,0,0,1,6.53-.63c9.66,0,17.49,3.91,17.49,8.74s-7.83,8.75-17.49,8.75a27.61,27.61,0,0,1-13-2.88c-6.57,5.24-18,4.62-18.43,3.44S278.05,284,279.16,276.77Z" transform="translate(-150 -19.83)"/><path class="cls-1" d="M173.33,221.88c.33,9.79-9.89,15.75-6.78,22.79,1.79,4.06,11.17-9.58,15.38-10.16a40.58,40.58,0,0,0,5.75-1.11,54.14,54.14,0,0,0,7.83,4,54.22,54.22,0,0,0,12.87,2.79c19.25,2.27,35.77-3.69,36.91-13.32s-13.55-19.27-32.8-21.54c-10.26-1.21-19.75-.08-26.54,2.7-11.87-12-34.85-13.45-35.91-11.2C148.9,199.24,172.84,207.13,173.33,221.88Z" transform="translate(-150 -19.83)"/><path class="cls-1" d="M754.14,302.65c4.17,8.86-2.87,18.37,2.77,23.61,3.26,3,6.47-13.21,10.11-15.41a40.47,40.47,0,0,0,4.85-3.29,43.1,43.1,0,0,0,21.68-2c18.58-5.52,31.4-17.53,28.64-26.82s-20.06-12.34-38.64-6.82c-9.9,2.94-18.17,7.73-23.31,13-15.64-6.31-37.33,1.43-37.41,3.91C722.74,291.51,747.85,289.3,754.14,302.65Z" transform="translate(-150 -19.83)"/></svg>