<svg id="Ebene_1" data-name="Ebene 1" xmlns="http://www.w3.org/2000/svg" xmlns:xlink="http://www.w3.org/1999/xlink" viewBox="0 0 797.67 401.32"><defs><style>.cls-1{fill:#a1fdff;}.cls-2{fill:#4d4d94;}.cls-3{fill:#38dba2;}.cls-4{fill:#3aefda;}.cls-5{fill:url(#Unbenannter_Verlauf_51);}.cls-6{fill:#ef2525;}.cls-7{fill:#8c38f2;}.cls-8{fill:#fff;stroke:#38dba2;stroke-miterlimit:10;stroke-width:10px;}</style><linearGradient id="Unbenannter_Verlauf_51" x1="358.33" y1="364.44" x2="872.33" y2="364.44" gradientUnits="userSpaceOnUse"><stop offset="0" stop-color="#8c38f2"/><stop offset="1" stop-color="#38dba2"/></linearGradient></defs><path class="cls-1" d="M-484,7" transform="translate(-315.33 -178.34)"/><path class="cls-2" d="M1102.35,262.1c-35.32-18.31-148,10.43-251.75,64.17-10.5,5.45-32.52,14.55-55.7,31.64,11.47-6.84,21.42-11.32,27.21-14.47,90.33-49.07,192.51-74.64,228.24-57.12,34,16.7-4.55,66.5-86.41,113.61q7.37-3.62,14.59-7.36C1082.24,338.82,1137.68,280.41,1102.35,262.1Z" transform="translate(-315.33 -178.34)"/><path class="cls-3" d="M1050.35,286.32c-35.73-17.52-137.91,8.05-228.24,57.12-5.79,3.15-15.74,7.63-27.21,14.47a175.92,175.92,0,0,0-25.5,18.3c-27.23,23.69-63.91,70.24-46.16,87.82,23.58,23.35,139-8.62,228.23-57.12q6.39-3.48,12.47-7C1045.8,352.82,1084.38,303,1050.35,286.32Z" transform="translate(-315.33 -178.34)"/><path class="cls-2" d="M1102.16,537.8c-35.32,18.31-148-10.42-251.75-64.17-10.49-5.44-32.52-14.54-55.7-31.64,11.47,6.85,21.43,11.33,27.22,14.47,90.32,49.07,192.51,74.65,228.23,57.12,34-16.7-4.55-66.5-86.41-113.61q7.37,3.61,14.59,7.36C1082.05,461.08,1137.49,519.5,1102.16,537.8Z" transform="translate(-315.33 -178.34)"/><path class="cls-3" d="M1050.16,513.58c-35.72,17.53-137.91-8.05-228.23-57.12-5.79-3.14-15.75-7.62-27.22-14.47a176.35,176.35,0,0,1-25.5-18.29C742,400,705.3,353.46,723.05,335.88c23.59-23.36,139,8.62,228.23,57.12q6.39,3.47,12.47,7C1045.61,447.08,1084.19,496.88,1050.16,513.58Z" transform="translate(-315.33 -178.34)"/><path class="cls-2" d="M796.82,178.34c-16.5,38-130.59,91.41-147.09,129.43C582.51,351.06,510.49,373.93,487.66,359c-23.22-15.23-5.06-96.57,70.14-128C625.3,202.67,762.82,183.54,796.82,178.34Z" transform="translate(-315.33 -178.34)"/><path class="cls-4" d="M834.64,468.75c-45.17,41.32-126.5,68.89-219.31,68.89-98,0-183.18-30.73-226.53-75.94,53.88,7.55,112.58,13.3,175.53,15.94A1811.43,1811.43,0,0,0,834.64,468.75Z" transform="translate(-315.33 -178.34)"/><path class="cls-5" d="M872.33,393.64c0,27.52-13.78,53.24-37.69,75.11a1811.43,1811.43,0,0,1-270.31,8.89c-63-2.64-121.65-8.39-175.53-15.94-19.44-20.26-30.47-43.44-30.47-68.06,0-79.53,115.06-144,257-144S872.33,314.11,872.33,393.64Z" transform="translate(-315.33 -178.34)"/><ellipse class="cls-6" cx="344.81" cy="407.35" rx="31.12" ry="25.71" transform="translate(-499.55 158.68) rotate(-42.18)"/><ellipse class="cls-6" cx="344.13" cy="378.93" rx="25.71" ry="31.12" transform="translate(-483.07 201.16) rotate(-47.82)"/><path class="cls-7" d="M570.33,223.64" transform="translate(-315.33 -178.34)"/><path class="cls-2" d="M711.84,579.66c-12.23-21.27-77.92-38.23-90.15-59.5-42.79-21.8-87.16-31.49-99.83-21.65-12.88,10,11.9,36.44,55.35,59C607,573,691.25,578.34,711.84,579.66Z" transform="translate(-315.33 -178.34)"/><path class="cls-3" d="M500.33,461.64" transform="translate(-315.33 -178.34)"/><path class="cls-7" d="M803.33,450.64" transform="translate(-315.33 -178.34)"/><ellipse class="cls-8" cx="151.5" cy="201.8" rx="33.5" ry="37.5"/><circle cx="152" cy="201.3" r="17"/><path class="cls-7" d="M791.33,201.64" transform="translate(-315.33 -178.34)"/><ellipse class="cls-6" cx="363" cy="299.8" rx="21" ry="15.5"/><ellipse class="cls-2" cx="418" cy="268.8" rx="21" ry="15.5"/><ellipse class="cls-2" cx="234" cy="263.8" rx="21" ry="15.5"/></svg>