<svg id="Ebene_5" data-name="Ebene 5" xmlns="http://www.w3.org/2000/svg" viewBox="0 0 1639.38 1606.54"><defs><style>.cls-1{fill:#fff;}.cls-2{fill:none;}</style></defs><rect class="cls-1" x="756.73" y="280.03" width="762.81" height="313" transform="translate(-164.62 639.48) rotate(-34.89)"/><rect class="cls-1" x="24.37" y="1162.85" width="693" height="313" transform="translate(-1118.72 1196.35) rotate(-72.92)"/><path class="cls-1" d="M1286,1239.13c0,103.22-78.12,186.87-174.5,186.87-50.56,0-96.1-23-128-59.82L380.1,839.67,351.82,815C320.41,781.21,301,734.62,301,683.17,301,580,379.12,496.3,475.5,496.3c48.34,0,92.09,21,123.69,55.06L1215,1088.62l13.11,11.44C1263.63,1134.27,1286,1183.91,1286,1239.13Z" transform="translate(-119.5 -90)"/><line class="cls-2" x1="928.5" y1="966" x2="928.03" y2="965.6"/><line class="cls-2" x1="380.24" y1="499.11" x2="362.5" y2="484"/><line class="cls-2" x1="727.37" y1="1202.35" x2="715.03" y2="1191.84"/><line class="cls-2" x1="164.77" y1="723.25" x2="161.37" y2="720.35"/><rect class="cls-1" x="398.51" y="619.68" width="478.81" height="433.46" transform="translate(-527.79 637.03) rotate(-46.7)"/><rect class="cls-1" x="1209.02" y="1336.99" width="564" height="40.62" transform="translate(522.49 -561.51) rotate(22.78)"/><rect class="cls-1" x="1149.06" y="1453.32" width="564" height="34.73" transform="translate(1197.47 -668.18) rotate(41.03)"/><rect class="cls-1" x="1095.38" y="1453.88" width="275.19" height="34.28" transform="translate(2014.14 -313.94) rotate(67.95)"/><ellipse class="cls-1" cx="587.57" cy="392.26" rx="164.37" ry="164.44" transform="translate(-121.13 692.07) rotate(-67.22)"/></svg>