<svg id="Ebene_6" data-name="Ebene 6" xmlns="http://www.w3.org/2000/svg" viewBox="0 0 1800 667.46"><defs><style>.cls-1{fill:#919191;}</style></defs><path class="cls-1" d="M1798.29,730.8c-16.94-89.19-157.35-145.17-364.37-160.84a621.89,621.89,0,0,1,80.5,199,66.78,66.78,0,0,1,5.65,30.07c-4.51,107.16-255.18,238.53-579.81,300.19-322.25,61.22-601.89,31.79-648.5-64.54a67.43,67.43,0,0,1-5.64-17,68.25,68.25,0,0,1-1-18,632.59,632.59,0,0,1,2.61-213.91c-190.51,91.17-303.17,196-286,286.14s160.58,146.45,371.5,161.36c162.75,11.52,365.68-1.56,581.76-42.6,219.07-41.61,415-105,563-176.6C1705,923.68,1815.24,820.05,1798.29,730.8Z" transform="translate(0 -569.96)"/></svg>