<svg id="Ebene_6" data-name="Ebene 6" xmlns="http://www.w3.org/2000/svg" viewBox="0 0 2872 1064.97"><defs><style>.cls-1{fill:#919191;}</style></defs><path class="cls-1" d="M2386.27,625.86c-27-142.31-251.07-231.63-581.37-256.63C1864.84,465.38,1906,573,1936,687c2,9,3.08,15.11,4.6,23.12a106.72,106.72,0,0,1,1.76,24.69c-7.21,171-407.15,380.58-925.12,479-514.17,97.67-960.35,50.72-1034.73-103a107.79,107.79,0,0,1-9-27C-28.27,1074.34-30,1070-32,1055c-7-50-8.55-104.52-8.55-158.48A1003.81,1003.81,0,0,1-23.86,713.79c-304,145.47-483.73,312.72-456.41,456.56S-224.06,1404,112.47,1427.81c259.69,18.38,583.47-2.49,928.24-68,349.54-66.39,662.19-167.54,898.21-281.77C2237.41,933.62,2413.32,768.26,2386.27,625.86Z" transform="translate(483 -369.23)"/></svg>