<svg id="Ebene_1" data-name="Ebene 1" xmlns="http://www.w3.org/2000/svg" viewBox="0 0 389.46 344.77"><defs><style>.cls-1{fill:#f39362;}.cls-2{fill:#35333a;}.cls-3{fill:#19132c;}.cls-4{fill:#6d514c;}.cls-5{fill:#fff;stroke:#19152b;stroke-miterlimit:10;stroke-width:6px;}</style></defs><path class="cls-1" d="M49.28,192.77h238a0,0,0,0,1,0,0v152a0,0,0,0,1,0,0H49.7a.43.43,0,0,1-.43-.43V192.77A0,0,0,0,1,49.28,192.77Z"/><polygon class="cls-2" points="326.92 152.28 88.94 152.28 30.23 63.23 268.21 63.23 326.92 152.28"/><polygon class="cls-3" points="287.28 192.77 49.28 192.77 88.92 152.28 326.92 152.28 287.28 192.77"/><polygon class="cls-4" points="326.92 304.28 287.28 344.77 287.28 192.77 326.92 152.28 326.92 304.28"/><rect class="cls-1" x="30.23" y="30.23" width="238" height="33"/><polygon class="cls-4" points="326.92 152.28 268.23 63.23 268.23 30.23 326.92 119.28 326.92 152.28"/><circle class="cls-5" cx="265.35" cy="33.12" r="30.12"/><circle class="cls-3" cx="265.35" cy="33.12" r="14.73"/><circle class="cls-5" cx="33.12" cy="33.12" r="30.12"/><circle class="cls-3" cx="33.12" cy="33.12" r="14.73"/><path class="cls-3" d="M439.91,333.4h-9.85c.92-6.32,2.78-10.65,4.93-10.65S439,327.08,439.91,333.4Z" transform="translate(-121.43 -101.54)"/><path class="cls-3" d="M440.09,349.9c-.84,7-2.81,12-5.1,12s-4.27-4.94-5.1-12Z" transform="translate(-121.43 -101.54)"/><path class="cls-1" d="M502.64,357.83H486.46V341.65a8.26,8.26,0,0,0-8.25-8.25H430.06a65.52,65.52,0,0,0-.17,16.5H470v16.18a8.25,8.25,0,0,0,8.25,8.25h24.43a8.25,8.25,0,0,0,0-16.5Z" transform="translate(-121.43 -101.54)"/></svg>