<svg id="Ebene_1" data-name="Ebene 1" xmlns="http://www.w3.org/2000/svg" viewBox="0 0 359.22 396.13"><defs><style>.cls-1{fill:#19132c;}.cls-2{fill:#f39362;}.cls-3{fill:#35333a;}.cls-4{fill:#6d514c;}.cls-5{fill:#fff;stroke:#f39463;stroke-miterlimit:10;stroke-width:6px;}.cls-6{fill:#ba6d4a;}</style></defs><path class="cls-1" d="M440,409.59l-.32,18.3,10,0a9.19,9.19,0,0,1,9.23,9.16h0a9.19,9.19,0,0,1-9.16,9.23l-19.15.07a9.18,9.18,0,0,1-9.22-9.16h0l.27-27.49Z" transform="translate(-151.67 -87.28)"/><path class="cls-2" d="M19,207H257a0,0,0,0,1,0,0V359a0,0,0,0,1,0,0H19.47a.43.43,0,0,1-.43-.43V207A0,0,0,0,1,19,207Z"/><polygon class="cls-3" points="296.68 166.54 58.71 166.54 0 77.5 237.97 77.5 296.68 166.54"/><polygon class="cls-4" points="296.68 318.54 257.04 359.03 257.04 207.03 296.68 166.54 296.68 318.54"/><rect class="cls-2" y="44.5" width="238" height="33"/><polygon class="cls-4" points="296.68 166.54 238 77.5 238 44.5 296.68 133.54 296.68 166.54"/><circle class="cls-5" cx="63.56" cy="44.5" r="41.5"/><circle class="cls-1" cx="63.56" cy="44.5" r="20.29"/><path class="cls-1" d="M439.91,333.4h-9.85c.92-6.32,2.78-10.65,4.93-10.65S439,327.08,439.91,333.4Z" transform="translate(-151.67 -87.28)"/><path class="cls-1" d="M440.09,349.9c-.84,7-2.81,12-5.1,12s-4.27-4.94-5.1-12Z" transform="translate(-151.67 -87.28)"/><path class="cls-2" d="M502.64,357.83H486.46V341.65a8.26,8.26,0,0,0-8.25-8.25H430.06a65.52,65.52,0,0,0-.17,16.5H470v16.18a8.25,8.25,0,0,0,8.25,8.25h24.43a8.25,8.25,0,0,0,0-16.5Z" transform="translate(-151.67 -87.28)"/><circle class="cls-5" cx="174.44" cy="44.5" r="41.5"/><circle class="cls-1" cx="174.44" cy="44.5" r="20.29"/><polygon class="cls-6" points="269.84 166.54 240.46 196.53 56.49 196.53 56.49 196.53 86.12 166.54 59.05 166.54 19.04 207.03 45.88 207.03 46.12 207.03 230.18 207.03 257.02 207.03 296.68 166.54 269.84 166.54"/><polygon class="cls-4" points="86.12 196.53 56.49 196.53 86.12 166.54 86.12 196.53"/><polyline class="cls-1" points="240.46 196.53 269.84 166.54 86.12 166.54 86.12 196.53"/><path class="cls-1" d="M182.92,446.72l.39,18.3h-10a9.19,9.19,0,0,0-9.19,9.19h0a9.18,9.18,0,0,0,9.19,9.19H192.5a9.19,9.19,0,0,0,9.19-9.19h0l-.38-27.49Z" transform="translate(-151.67 -87.28)"/><path class="cls-1" d="M392.26,446.31l-.32,18.3,10,0a9.19,9.19,0,0,1,9.23,9.16h0A9.2,9.2,0,0,1,402,483l-19.15.08a9.19,9.19,0,0,1-9.23-9.16h0l.28-27.49Z" transform="translate(-151.67 -87.28)"/></svg>