<svg id="Ebene_7" data-name="Ebene 7" xmlns="http://www.w3.org/2000/svg" viewBox="0 0 1582 1122.49"><defs><style>.cls-1{fill:#fffdfd;}</style></defs><path class="cls-1" d="M957.91,1152.07c411.73-5.72,740.82-132.16,740.82-287.3S1369.64,583.2,957.91,577.47v-.2l-1.89.18-310,29.6-360.27,34.4v444l350.41,34.86,319.94,31.83,1.83.17Zm53.49-288.64a131,131,0,1,1,131,131.05A131,131,0,0,1,1011.4,863.43Z" transform="translate(-116.73 -309.75)"/><path class="cls-1" d="M866.63,602.66c-32.45-48.73-88.3-118.93-176.69-177.81C497.89,296.9,266,298.19,259.3,322.69c-2.48,9.06,41.13,31.67,128.35,76.87C526.79,471.67,580.73,484,606.17,539.28c9.24,20.08,18.12,53.23,6.62,104.28" transform="translate(-116.73 -309.75)"/><path class="cls-1" d="M866.13,1139.34c-32.45,48.73-88.3,118.93-176.68,177.81-192.06,127.95-423.94,126.66-430.64,102.16-2.48-9.06,41.13-31.67,128.35-76.87,139.14-72.11,193.07-84.42,218.51-139.72,9.24-20.08,18.12-53.23,6.62-104.28" transform="translate(-116.73 -309.75)"/><polygon class="cls-1" points="0 755.75 0 367.29 202 437.91 202 674.25 0 755.75"/></svg>