<svg id="Ebene_1" data-name="Ebene 1" xmlns="http://www.w3.org/2000/svg" viewBox="0 0 506.98 482.49"><defs><style>.cls-1{fill:#a7c0f2;}</style></defs><path class="cls-1" d="M691.69,111.82l40.73,82.54a153.93,153.93,0,0,0,115.9,84.21l91.09,13.24a3.28,3.28,0,0,1,1.82,5.6l-65.91,64.25a153.93,153.93,0,0,0-44.27,136.25l15.56,90.72a3.29,3.29,0,0,1-4.77,3.46l-81.47-42.83a153.9,153.9,0,0,0-143.26,0l-81.47,42.83a3.29,3.29,0,0,1-4.77-3.46l15.56-90.72a153.91,153.91,0,0,0-44.27-136.25l-65.91-64.25a3.28,3.28,0,0,1,1.82-5.6l91.09-13.24a153.89,153.89,0,0,0,115.9-84.21l40.74-82.54A3.28,3.28,0,0,1,691.69,111.82Z" transform="translate(-435.25 -109.99)"/></svg>