<svg id="Sun" xmlns="http://www.w3.org/2000/svg" viewBox="0 0 1687 1687"><defs><style>.cls-1{fill:#ffb829;}</style></defs><circle class="cls-1" cx="843.5" cy="843.5" r="344.5"/><rect class="cls-1" x="1501.5" y="696.5" width="78" height="405" transform="translate(585.5 2383.5) rotate(-90)"/><rect class="cls-1" x="219.5" y="696.5" width="78" height="405" transform="translate(-696.5 1101.5) rotate(-90)"/><rect class="cls-1" x="860" y="1338" width="78" height="405" transform="translate(1742 3025) rotate(180)"/><rect class="cls-1" x="860" y="56" width="78" height="405" transform="translate(1742 461) rotate(180)"/><rect class="cls-1" x="1285.22" y="218.24" width="78" height="405" transform="translate(554.03 -827.12) rotate(41.44)"/><rect class="cls-1" x="436.7" y="1179.25" width="78" height="405" transform="matrix(0.75, 0.66, -0.66, 0.75, 977.64, -24.89)"/><rect class="cls-1" x="379.75" y="274.53" width="78" height="405" transform="translate(997.5 422.85) rotate(131.44)"/><rect class="cls-1" x="1340.76" y="1123.04" width="78" height="405" transform="translate(3230.64 1112.58) rotate(131.44)"/></svg>