<svg id="Ebene_1" data-name="Ebene 1" xmlns="http://www.w3.org/2000/svg" viewBox="0 0 1566 684.53"><defs><style>.cls-1{fill:#a7c0f2;}</style></defs><path class="cls-1" d="M60,285" transform="translate(200 -18.9)"/><path class="cls-1" d="M1366,64.63c-15.81,1.92-35.06,5.05-59,9.37-191.49,34.51-210.9,59.4-278,59-127-.76-125.16-90.31-260-111C639.46,2.12,628,83.26,380,116c-124.49,16.44-207.62,7.35-281-16A545.43,545.43,0,0,1,0,57.26V285.07A1183.92,1183.92,0,0,0,132,312c62.11,9,143.69,20.88,243,9,102.08-12.22,99.64-34.77,178-38,79.49-3.28,103.11,19.06,221,46,120.56,27.55,199.72,45.64,298,32,114.9-15.95,134.37-58.4,247-55a455.25,455.25,0,0,1,47,3.91Z" transform="translate(200 -18.9)"/><path class="cls-1" d="M1366,373.42c-15.81,1.92-235.06,34.05-259,38.37-191.49,34.51-210.9,59.4-278,59-127-.77-125.16-90.31-260-111-129.54-19.88-141,61.26-389,94-124.49,16.43-207.62,7.35-281-16a546.13,546.13,0,0,1-99-42.74V622.86A1183.92,1183.92,0,0,0-68,649.79c62.11,9,143.69,20.88,243,9,102.08-12.22,99.64-34.77,178-38,79.49-3.28,103.11,19.06,221,46,120.56,27.55,199.72,45.64,298,32,114.9-15.95,134.37-58.4,247-55,18.23.55,233.65-26.86,247-25.09Z" transform="translate(200 -18.9)"/></svg>