<svg id="Ebene_1" data-name="Ebene 1" xmlns="http://www.w3.org/2000/svg" viewBox="0 0 1366 350.62"><defs><style>.cls-1{fill:#a7c0f2;}</style></defs><path class="cls-1" d="M1365.5,287.66c-23.57-10.74-47.45-13.8-66-16.16-45-5.74-67.77,3.47-137,16-94.48,17.09-141.72,25.64-188,15-59.14-13.6-66.68-42.47-122-72-99.42-53.07-208.16-30.88-335-5-158.9,32.43-174.63,72.69-286,79-95.08,5.39-175.63-18.74-232-42.38V508.63c27.32,15.81,51.39,21.45,71,22.87,75.26,5.44,102.85-49.92,198-49,34.77.34,32.17,7.74,138,33,89,21.25,133.53,31.87,168,33,114.07,3.73,130.34-53.85,251-63,99.92-7.58,88.73,31.91,203,30,134.15-2.24,162.87-56.89,284-42a428.25,428.25,0,0,1,53,10.13Z" transform="translate(0.5 -198.05)"/></svg>