<?xml version="1.0" encoding="utf-8"?>
<!-- Generator: Adobe Illustrator 24.3.0, SVG Export Plug-In . SVG Version: 6.00 Build 0)  -->
<svg version="1.1" id="Ebene_1" xmlns="http://www.w3.org/2000/svg" xmlns:xlink="http://www.w3.org/1999/xlink" x="0px" y="0px"
	 viewBox="0 0 1366 346.8" style="enable-background:new 0 0 1366 346.8;" xml:space="preserve">
<style type="text/css">
	.st0{fill:#A7C0F2;}
</style>
<path class="st0" d="M60,62.1"/>
<path class="st0" d="M1030.5,295.5c-127-0.8-125.2-90.3-260-111c-129.5-19.9-141,61.3-389,94c-124.5,16.4-207.6,7.3-281-16
	c-34.3-10.9-67.5-25.3-99-42.7v94.7C44.5,325.7,88,334.6,132,341c62.1,9,143.7,20.9,243,9c102.1-12.2,100.5-26.1,178-38
	c80.9-12.5,150.2-47.5,261,1c112,49,159.7,90.6,258,77c114.9-16,134.4-58.4,247-55c15.7,0.5,31.4,1.8,47,3.9V227.3
	c-15.5,1.9-34.3,5-57.5,9.2C1117,271,1097.6,295.9,1030.5,295.5z"/>
<path class="st0" d="M2.2,171.9c31.5,17.5,64.7,31.8,99,42.7c73.4,23.3,156.5,32.4,281,16c248-32.7,259.5-113.9,389-94
	c134.8,20.7,133,110.2,260,111c67.1,0.4,86.5-24.5,278-59c23.2-4.2,42-7.2,57.5-9.2V45.7c-15.8,1.9-35.1,5-59,9.4
	c-191.5,34.5-210.9,59.4-278,59c-127-0.8-125.2-90.3-260-111c-129.5-19.9-141,61.3-389,94c-124.5,16.4-207.6,7.4-281-16
	c-34.3-10.9-67.5-25.3-99-42.7v227.8c0.5,0.1,1,0.3,1.5,0.4V171.9z"/>
</svg>
