<svg id="Ebene_1" data-name="Ebene 1" xmlns="http://www.w3.org/2000/svg" viewBox="0 0 552.95 549.92"><defs><style>.cls-1{fill:#fff;stroke:#000;stroke-miterlimit:10;stroke-width:2px;}</style></defs><polygon class="cls-1" points="276.48 141.56 304.36 9.62 304.21 144.47 358.92 21.21 330.73 153.09 409.88 43.9 354.89 167.04 455 76.69 375.61 185.7 492.32 118.14 392 208.26 520.21 166.44 403.35 233.74 537.45 219.49 409.14 261.02 543.28 274.96 409.14 288.9 537.45 330.43 403.35 316.18 520.21 383.48 392 341.66 492.32 431.78 375.61 364.22 455 473.23 354.89 382.88 409.88 506.02 330.73 396.83 358.92 528.71 304.21 405.45 304.36 540.3 276.48 408.36 248.59 540.3 248.74 405.45 194.03 528.71 222.22 396.83 143.07 506.02 198.06 382.88 97.95 473.23 177.34 364.22 60.63 431.78 160.94 341.66 32.74 383.48 149.6 316.18 15.5 330.43 143.8 288.9 9.67 274.96 143.8 261.02 15.5 219.49 149.6 233.74 32.74 166.44 160.94 208.26 60.63 118.14 177.34 185.7 97.95 76.69 198.06 167.04 143.07 43.9 222.22 153.09 194.03 21.21 248.74 144.47 248.59 9.62 276.48 141.56"/></svg>