<?xml version="1.0" encoding="utf-8"?>
<!-- Generator: Adobe Illustrator 23.1.1, SVG Export Plug-In . SVG Version: 6.00 Build 0)  -->
<svg version="1.1" id="Ebene_1" xmlns="http://www.w3.org/2000/svg" xmlns:xlink="http://www.w3.org/1999/xlink" x="0px" y="0px"
	 viewBox="0 0 311.8 311.8" style="enable-background:new 0 0 311.8 311.8;" xml:space="preserve">
<g>
	<path d="M139.6,209.4l-3-1.1l-1.9,4.6l3,1.1c0.7,0.3,3.1,1.2,4.1-1.2C142.5,210.5,140.6,209.9,139.6,209.4z"/>
	<polygon points="152.1,212.7 148.1,220.3 154.1,220.9 	"/>
	<path d="M202.1,116c1.5,0.1,2.4-0.8,2.8-1.2c0.3-0.3,1.4-1.4,1.4-2.6c0-0.8-0.4-1.5-1.2-2.3l-1.1-1.1l-4.7,5l0.8,0.8
		C200.7,115.2,201.4,115.9,202.1,116z"/>
	<path d="M160.9,91l-0.1,2.8l1.5,0.1c0.8,0,2,0.1,2.2-1.4c0.1-1.4-1.1-1.5-1.8-1.5L160.9,91z"/>
	<path d="M170.7,92.1l-1.9-0.4l-0.5,2.8l1.9,0.4c0.1,0,0.8,0.1,1.2,0c0.1,0,0.7-0.3,0.8-1.1C172.5,92.4,171.3,92.2,170.7,92.1z"/>
	<path d="M137.7,216.3L134,215l-2,5.1l3.6,1.4c1.6,0.7,3.2,0.3,3.9-1.5C140.1,218.5,139.4,217,137.7,216.3z"/>
	<path d="M158.1,53.7c-58,0-104.9,47-104.9,104.9c0,58,47,104.9,104.9,104.9c58,0,104.9-47,104.9-104.9
		C263,100.7,216,53.7,158.1,53.7z M162.4,76.6c33.1,1.6,60.6,22.7,72.2,51.7c-0.4,0-0.9,0-1.4,0.1c-11.5-28.2-38.6-48.9-71-50.5
		c-37.4-1.9-70.4,22.1-81.2,56.3c-0.4,0.5-0.9,1.1-1.4,1.8c-0.3,0.4-0.5,0.8-0.8,1.2C88.8,100.7,123.1,74.7,162.4,76.6z M181.3,93.7
		l1.6,0.7l1.2,8.5L187,96l1.1,0.4l-3.5,8.2L183,104l-1.2-8.8l-3,7l-1.1-0.4L181.3,93.7z M175.6,101.6l-1.2-0.4l2.6-8.6l1.2,0.4
		L175.6,101.6z M191.8,99.8l-2.6-1.5l0.5-0.9l6.2,3.6l-0.5,0.9l-2.6-1.5l-4.1,6.9l-1.1-0.7L191.8,99.8z M189.4,131.8
		c0.3-0.9,0.5-1.8,0.9-2.6c0.4-0.8,0.8-1.4,1.4-1.9c0.4-0.4,0.7-0.7,1.1-0.8c0.1,0,0.3-0.1,0.4-0.1c0.4-0.1,0.9-0.3,1.5-0.3
		c0.4,0,1.1,0,1.6,0.4c0.7,0.7,0.8,1.9,0.8,2.3c0,1.2-0.4,2.2-1.1,3.8c-0.3,0.5-0.3,0.7-0.5,1.2c0,0.1-0.1,0.3-0.1,0.4
		c-0.1,0.4-0.3,0.7-0.3,0.7c-0.5,1.2-1.1,1.9-1.1,1.9c-0.3,0.3-0.8,0.8-1.8,1.1c-0.3,0-0.8,0.1-1.4,0c0,0-0.4-0.1-0.7-0.3
		c-0.7-0.3-0.9-1.2-1.2-2.7C189,133.8,189.1,132.7,189.4,131.8z M196.9,111.7l-0.7,0.8l-4.6-3.5l5.5-7l4.5,3.4l-0.7,0.8l-3.5-2.7
		l-1.8,2.3l3.4,2.6l-0.7,0.8l-3.4-2.6l-1.8,2.4L196.9,111.7z M204,107.4l1.9,1.9c0.8,0.8,1.9,1.9,1.8,3.4c-0.1,1.2-0.7,2.3-1.6,3.2
		c-1.4,1.4-2.8,1.6-3.6,1.6c-1.1-0.1-1.9-0.9-2.8-1.8l-1.8-1.8L204,107.4z M162,82c-32.4-1.6-61.2,17.3-73.7,45.2
		c-0.4,0.3-0.8,0.7-1.2,0.9c-0.3,0.3-0.5,0.4-0.8,0.7c12.3-29.6,42.1-49.7,75.9-48.1c31.2,1.6,57.3,21.5,68.3,48.6
		c-0.4,0.1-0.7,0.3-0.9,0.5l-0.1,0.1C218.6,103.2,192.9,83.6,162,82z M172.5,97.6c-0.1,1.1-0.1,1.9,0,2.8l-1.4-0.3
		c-0.1-0.7,0-1.8,0-2.4c0.1-1.4-0.1-1.8-1.6-2l-1.5-0.3l-0.8,3.9l-1.2-0.3l1.9-8.6L171,91c0.4,0.1,1.4,0.3,1.9,0.8
		c0.5,0.5,0.8,1.2,0.7,2c-0.1,0.7-0.4,1.1-0.9,1.5c-0.4,0.3-0.8,0.4-1.2,0.4C172.2,96.2,172.5,96.6,172.5,97.6z M165.6,92.5
		c0,0.7-0.3,1.2-0.8,1.8c-0.5,0.4-1.1,0.7-2.7,0.5l-1.5-0.1l-0.3,4.1l-1.2-0.1l0.5-8.8l3,0.1c1.1,0.1,1.9,0.1,2.4,0.8
		C165.5,91.3,165.6,91.8,165.6,92.5z M147.8,99.4l-1.1,0.1l-0.9-8.8l1.8-0.3l5.3,6.9l-0.9-7.4l1.1-0.1l1.1,8.9l-1.6,0.1l-5.5-7
		L147.8,99.4z M127.5,107.1l-1.1,0.5l-4.5-7.7l2.8-1.6c0.4-0.3,1.2-0.7,2-0.7c0.8,0,1.4,0.5,1.8,1.1c0.3,0.5,0.4,1.2,0.3,1.8
		c-0.1,0.5-0.4,0.8-0.7,1.1c0.8-0.3,1.4-0.1,2,0.8c0.7,0.8,1.1,1.5,1.9,2.2l-1.2,0.7c-0.4-0.4-1.1-1.4-1.5-1.9
		c-0.8-1.1-1.2-1.2-2.6-0.5l-1.4,0.8L127.5,107.1z M116.3,112.4c-0.7-0.7-1.5-0.3-2.6,0.4c-1.2,0.7-1.8,1.1-2.3,1.1
		c-0.8,0.1-1.5-0.1-1.9-0.7c-1.2-1.4-0.5-3.1,0.7-4.3c0.4-0.4,1.4-1.2,2.4-1.1c0.7,0,1.2,0.4,1.5,0.7l-0.9,0.9
		c-0.8-0.8-1.6-0.3-2.3,0.3c-0.9,0.8-1.1,1.8-0.4,2.4c0.5,0.5,1.1,0.4,2-0.1c1.9-1.1,2.2-1.2,2.7-1.4c0.9-0.1,1.6,0.4,1.9,0.7
		c1.1,1.1,1.1,2.8-0.7,4.5c-0.5,0.5-1.6,1.4-2.7,1.2c-0.8-0.1-1.4-0.7-1.6-0.9l0.9-0.8c0.4,0.4,1.4,1.2,2.8-0.3
		C117.3,113.6,116.6,112.6,116.3,112.4z M117,109c-1.1-1.5-2.2-4.2,0.4-6.1c1.1-0.8,2.7-1.4,4.1,0.1l-1.1,0.8
		c-0.3-0.3-1.1-1.1-2.4-0.1c-1.8,1.4-0.7,3.2,0.1,4.5c0.9,1.4,2.4,2.6,4.2,1.4c0.4-0.3,0.8-0.8,0.8-1.4c0-0.4-0.1-0.8-0.3-1.1
		l1.1-0.8c0.9,1.5,0,3.1-1.2,4.1C120.1,112.2,118,110.3,117,109z M129.7,95.9l5.3-2.2l0.4,0.9l-4.1,1.6l1.1,2.6l3.9-1.6l0.4,0.9
		l-3.9,1.6l1.1,2.8l4.2-1.6l0.4,1.1l-5.3,2.2L129.7,95.9z M137.4,92.9l5.4-1.5l0.3,1.1l-4.2,1.1l0.7,2.7l4.1-1.1l0.3,0.9l-4.1,1.1
		l0.8,2.8l4.3-1.2l0.3,1.1l-5.5,1.5L137.4,92.9z M140.6,139.6c0.4-0.4,0.7-0.7,1.1-0.8c0.1,0,0.3-0.1,0.4-0.1
		c0.4-0.1,0.9-0.3,1.5-0.3c0.4,0,1.1,0,1.6,0.4c0.7,0.7,0.8,1.9,0.8,2.3c0,1.2-0.4,2.2-1.1,3.8c-0.3,0.5-0.3,0.7-0.5,1.2
		c0,0.1-0.1,0.3-0.1,0.4c-0.1,0.4-0.3,0.7-0.3,0.7c-0.5,1.2-1.1,1.9-1.1,1.9c-0.3,0.3-0.8,0.8-1.8,1.1c-0.3,0-0.8,0.1-1.4,0
		c0,0-0.4-0.1-0.7-0.3c-0.5-0.3-0.9-1.2-1.1-2.6c0-1.1,0-2.2,0.3-3.2c0.3-0.9,0.5-1.8,0.9-2.6C139.7,140.7,140.1,140.2,140.6,139.6z
		 M82.3,192.8c-1.4-0.3-2.6-0.8-3.8-1.6c-1.9-1.2-2.8-3-3-3.4c-0.4-0.7-1.5-2.7-1.5-5.1c0-0.3,0-4.5,2.4-6.9
		c1.5-1.6,3.5-1.8,3.8-1.8s0.7,0,0.9,0.1c1.4,0.4,2.3,2.6,1.5,5c-0.5,1.9-1.9,3-2.2,3.2c0.1,0.7,0.4,1.2,0.8,1.9
		c0.4,0.5,0.9,1.2,1.5,1.6c0.5,0.4,1.4,0.8,2.2,0.9c0.8,0.3,1.9,0.1,3.1-0.1c2.2-0.4,3.8-1.6,5.3-3.6c1.4-2,2.6-4.5,3.6-7.3
		c0.9-2.8,1.9-5.9,2.6-9.5c0.7-3.5,1.4-7,2-10.5c0.7-3.6,1.4-7,2-10.4c0.7-3.2,1.5-6.2,2.4-8.8c-2-0.1-3.9,0-5.7,0.1
		c-1.8,0.1-3.4,0.4-5,0.8c-1.9,0.4-3.6,1.1-5.4,2c-1.8,0.8-3.2,1.9-4.5,3.2c-1.4,1.4-2.3,2.8-3,4.5c-0.7,1.6-1.1,3.5-0.9,5.7
		c0.1,1.4,0.3,2.3,0.7,3.2c0.3,0.9,0.7,1.6,1.2,2.2c0.7-0.7,1.5-0.9,2.3-1.1c0.9-0.1,1.8,0.1,2.3,0.9c1.1,1.4,0.9,4.1-0.4,5.9
		c-1.4,1.9-3,2.3-3.2,2.3c-1.1,0.1-2.6,0.1-3.9-0.7c-1.2-0.8-1.9-1.9-2.4-3.2c-0.5-1.2-0.9-2.6-1.2-3.9c-0.3-1.4-0.3-2.6-0.3-3.4
		c0-2.8,0.5-5.8,1.6-8.9c0.9-3.1,2.4-5.9,4.3-8.6c1.9-2.7,4.1-5,6.6-7c2.6-1.9,5.4-3.4,8.4-4.1c2.7-0.7,5.3-0.7,6.2-0.7
		c0.7,0,1.1,0,1.4,0c0,0,14.4,1.1,19.7-0.8c1.8-0.5,4.3-2.3,4.9-2.6c2-1.2,1.6-1.1,2.4-1.5c1.8-0.9,3.5-1.9,5.1-1.4
		c0.1,0.1,0.9,0.4,1.5,1.2c0.3,0.5,0.5,1.1,0.7,1.8s0.1,1.2,0.1,1.6c-0.3,2.7-1.2,4.9-2.7,6.8c-1.5,1.8-3.5,3.1-5.8,4.1
		c-0.4,0.1-0.9,0.4-1.5,0.5c-0.5,0.3-1.1,0.3-1.6,0.4c-2,0.4-4.1,0.7-6.1,0.7c-2,0-4.2,0-6.3-0.1c-0.4,1.2-0.9,2.7-1.5,4.3
		c-0.5,1.6-1.2,3.8-1.9,6.2c-1.1,4.2-2,8.1-2.8,12c-0.8,3.8-2.4,11.3-2.4,11.3c-0.7,3.1-1.6,5.8-3,8.2c-1.4,2.4-2.8,4.6-4.5,6.3
		c-1.6,1.8-3.2,3.2-5.1,4.5c-1.8,1.2-3.6,2-5.4,2.6c-0.5,0.1-0.9,0.3-1.5,0.4c-0.5,0.1-0.9,0.3-1.1,0.4
		C85,193.1,83.7,193.1,82.3,192.8z M143.9,213.6c-0.9,2.4-3,2.4-3.8,2.4c0.8,0.5,2.7,2,1.6,4.9c-0.8,2-2.4,2.6-3.1,2.7
		c-1.4,0.3-2.4-0.1-3.6-0.5l-5.5-2l5.5-15.1l5.4,2c1.9,0.7,2.8,1.2,3.4,2.6C144.1,211.3,144.3,212.4,143.9,213.6z M151.2,210.5
		l2.4,0.3l4.7,16.7l-2.4-0.3l-1.2-4.3l-7.4-0.8l-2.2,3.9l-2.3-0.3L151.2,210.5z M154.4,235.1c42.3,2,78.2-30.5,80.3-72.8
		c0.1-0.8,0.1-1.8,0.1-2.6c0.4-0.3,0.7-0.5,1.1-0.8c0.1,0,0.1-0.1,0.3-0.1c0,1.1-0.1,2.3-0.1,3.5c-2.2,42.9-38.8,76.2-81.7,74
		c-28.2-1.4-52.3-17.7-64.8-41.1h0.1c0.4-0.1,0.7-0.3,1.1-0.4C103.1,217.7,126.7,233.8,154.4,235.1z M162.1,219
		c0.1,1.4,0.8,3.6,2.2,4.9c1.2,1.1,2.8,1.2,4.5,0.9c1.8-0.3,3-0.8,3.4-0.9l-0.7-4.7l-3.6,0.5l-0.3-1.9l5.8-0.8l1.1,7.8
		c-0.9,0.4-2.8,1.4-5.5,1.8c-3,0.4-4.7-0.1-6.1-1.2c-1.8-1.4-2.8-3.5-3.1-5.8c-0.3-1.6-0.4-5.4,2.3-7.8c1.4-1.4,3.5-1.6,4.3-1.8
		c1.2-0.1,3.2-0.3,5,1.1c1.1,0.8,1.4,1.8,1.5,2.4l-2.4,0.3c-0.4-1.5-1.8-2.3-3.9-2c-1.5,0.3-2.7,0.8-3.4,1.9
		C161.8,215.4,161.8,217.6,162.1,219z M177.5,211.6c0.5,1.4,1.6,1.4,3.6,1.1c3.9-0.7,4.3-0.7,5.4-0.5c1.8,0.3,2.4,1.6,2.7,2.3
		c1.1,2.6,0,5.5-3.8,7.2c-1.1,0.5-3.5,1.4-5.3,0.3c-1.4-0.7-1.9-1.9-2.2-2.6l2-0.8c0.5,0.9,1.5,2.8,4.9,1.4c3.1-1.4,2.6-3.4,2.3-4.2
		c-0.7-1.6-2.2-1.4-4.5-0.9c-2.4,0.4-3.6,0.7-4.6,0.4c-1.6-0.3-2.4-1.2-2.8-2.3c-1.4-3,0.9-5.5,3.8-6.8c0.9-0.4,3-1.1,4.7-0.4
		c1.2,0.5,1.8,1.5,2,2.2l-2.2,0.9c-0.9-1.8-2.7-1.5-4.1-0.9C177.6,208.8,176.8,210.1,177.5,211.6z M240.3,162.5
		c-2.3,45.4-40.9,80.3-86.2,78.1c-30.2-1.5-56-19.3-69-44.6c0.4,0,0.8,0,1.1,0c0.1,0,0.3,0,0.4,0c12.8,24.6,37.9,42,67.7,43.5
		c44.6,2.2,82.6-32.3,84.8-76.8c0-2.2,0-4.2,0-6.3c0.4-0.3,0.7-0.7,1.1-1.1c0.1-0.1,0.1-0.1,0.1-0.4
		C240.4,157.3,240.4,159.9,240.3,162.5z M237.3,153c-1.2,1.4-2.4,2.4-3.8,3.5c-1.4,0.9-2.6,1.6-3.6,1.9c-1.5,0.3-2.6,0.3-3.5-0.3
		c-0.9-0.5-1.4-1.5-1.5-2.8c0-0.9,0.3-2.3,0.7-3.8c0.4-1.5,0.9-3,1.5-4.5s1.1-2.8,1.5-4.1c0.4-1.2,0.7-2.2,0.7-2.7
		c-0.5,0-1.1,0.1-1.6,0.5c-1.1,0.7-2,1.9-2.8,3.4c-0.8,1.5-1.6,3.2-2.2,5c-0.7,1.9-1.1,3.6-1.5,5.4c-0.4,1.8-0.7,3.1-0.8,4.3
		c-0.1,0.4-0.3,0.8-0.4,1.1c-0.1,0.1-0.3,0.3-0.4,0.4c-1.1,0.8-2.3,0.8-2.3,0.8c-0.3,0-0.7,0-1.1-0.1c-0.9-0.4-1.2-1.5-1.4-1.9
		c-0.1-0.4-0.3-0.9-0.3-1.5c0-0.5,0-1.1,0-1.8c0-0.7,0-1.4,0.1-2c-0.5,0.4-1.2,0.7-1.8,0.8c-0.4,0.1-0.9,0.1-1.4,0.1
		c-0.4,0-0.8-0.1-1.2-0.4c-0.5,1.1-1.2,2.3-2,3.5c-0.8,1.4-1.8,2.4-2.7,3.5c-0.9,1.1-2,2-3.1,2.8c-1.2,0.8-2.3,1.4-3.5,1.6
		c-1.1,0.3-2,0.3-2.8,0c-0.8-0.3-1.5-0.7-2.2-1.2c-0.5-0.4-0.9-1.1-1.4-1.9c-0.3,0.3-0.5,0.7-0.8,0.9c-1.2,1.4-2.4,2.6-3.8,3.6
		c-1.4,0.9-2.4,1.6-3.5,1.9c-0.8,0.1-2.2,0.5-3.1-0.4c-0.7-0.7-0.8-1.9-0.9-3.2c0-0.1,0-0.3,0-0.4c-1.1,1.4-1.8,2-1.8,2
		c-0.7,0.8-1.5,1.5-2.3,2.2c-0.8,0.7-1.6,1.4-2.4,1.8c-0.8,0.4-1.5,0.8-2.3,0.9c-1.1,0.1-2,0-2.8-0.7c-0.8-0.7-1.4-1.8-1.6-3.1
		c-0.1-0.4-0.1-0.8-0.1-1.2c-0.4,0.5-0.8,1.2-1.4,1.9c-1.1,1.5-2.3,2.8-3.6,3.9c-1.2,1.1-2.4,1.8-3.4,2c-1.4,0.4-2.3,0.3-3.1-0.1
		c-0.8-0.4-1.2-1.5-1.4-3.1c-0.9,1.9-2,3.2-3.2,4.3c-1.2,1.1-2.4,1.8-3.4,2c-1.8,0.4-3.1,0.1-4.2-0.7c-0.7-0.5-1.2-1.5-1.5-2.8
		c-0.4,0.4-0.7,0.8-1.1,1.2c-1.2,1.4-2.4,2.6-3.8,3.6c-1.4,0.9-2.4,1.6-3.5,1.9c-1.5,0.3-2.6,0.3-3.1-0.4c-0.5-0.7-0.9-1.8-0.9-3.4
		c0-0.4,0-0.8,0-1.2c-0.7,0.8-1.2,1.6-1.9,2.4c-1.1,1.4-2.3,2.6-3.6,3.6c-1.4,0.9-2.4,1.6-3.5,1.9c-3,0.7-4.6-0.4-5-3.2
		c0-0.9,0.3-2.2,0.7-3.5c0.5-1.4,1.1-2.7,1.6-4.1c0.5-1.4,1.1-2.7,1.5-3.9c0.4-1.2,0.7-2.3,0.5-3.1c0-0.5-0.1-0.8-0.5-0.9
		c-0.4,0-0.8,0-1.4,0c-0.4,0-0.9,0.1-1.5,0.3c-0.5,0.1-0.9,0.1-1.2,0.1c-0.4,1.4-0.9,3-1.6,4.6c-0.5,1.6-1.4,3.2-2,4.7
		s-1.5,2.8-2.2,3.9c-0.7,1.2-1.4,1.9-1.9,2.3c-0.3,0.1-0.5,0.3-0.8,0.3c-0.1,0.1-0.4,0.1-0.7-0.3c-0.3-0.4-0.1-0.9-0.1-1.1
		s0-0.4,0.1-0.7c0.1-0.3,0.3-0.5,0.4-0.8c1.2-2.3,2.4-4.6,3.4-6.8c0.9-2.2,1.6-4.6,2-7.3c-0.3-0.1-0.7-0.5-0.9-1.1
		c-0.4-0.5-0.8-2-0.1-5c0.3-1.1,0.5-2,0.9-2.8c0.4-0.8,0.8-1.5,1.4-2c0.4-0.5,0.9-0.9,1.5-1.1c0.4-0.1,0.8-0.1,1.4-0.1
		c0.5,0,1.1,0,1.6,0.1c0.5,0.1,1.1,0.3,1.6,0.5c0.5,0.3,0.8,0.7,0.8,1.1c0,0.3-0.1,0.7-0.4,1.1c-0.1,0.4-0.5,0.8-0.8,1.4
		c-0.3,0.5-0.7,1.1-0.9,1.6c-0.3,0.5-0.5,1.2-0.7,1.8c0.1,0.1,0.4,0.3,0.7,0.4c0.3,0,0.5,0.1,0.9,0.1c0.3,0.1,0.7,0,1.1,0
		c0.4,0,0.8,0,1.1-0.1c0.5-0.1,1.1-0.4,1.6-0.8c0.7-0.4,1.1-0.5,1.4-0.7c0.3-0.1,0.7-0.1,1.1,0c0.4,0.1,0.8,0.3,1.1,0.5
		c0.4,0.3,0.5,0.5,0.8,0.8c0.1,0.3,0.3,0.7,0.3,0.9c0,1.1-0.3,2.4-0.7,3.9c-0.4,1.5-0.9,3.1-1.5,4.6c-0.5,1.6-1.1,3-1.5,4.3
		c-0.5,1.4-0.7,2.3-0.7,3c-0.1,0.7,0.1,0.9,0.8,0.8c0.5-0.1,1.4-0.7,2.4-1.8c1.1-0.9,2.4-2.8,4.1-5.5c0.1-0.3,0.1-0.4,0.1-0.5
		c0.3-1.6,0.7-3.2,1.1-4.9c0.4-1.8,0.9-3.2,1.5-4.7c0.7-1.5,1.4-2.7,2-3.8c0.7-1.1,1.5-1.8,2.4-2.2c0.9-0.3,1.6-0.4,2.3-0.4
		c0.5,0.1,1.1,0.3,1.2,0.7c0.3,0.4,0.4,0.7,0.4,1.1c0,0.8-0.1,1.5-0.3,2.2c-0.1,0.7-0.3,1.4-0.5,2.2c-0.3,0.8-0.5,1.6-0.8,2.4
		c-0.4,0.8-0.7,1.9-1.1,3.1c-0.3,1.1-0.7,2.3-1.1,3.6c-0.3,1.4-0.7,2.7-0.8,4.1c0,0.7,0.3,0.9,0.8,0.8c0.7-0.1,1.6-0.9,2.7-2.3
		c0.7-0.8,1.4-1.8,2-2.7c0.3-1.1,0.5-2.3,1.1-3.6c0.9-2.4,2.2-4.9,3.6-7.2c1.5-2.2,3.1-4.2,4.9-5.8c1.9-1.6,3.5-2.6,5-3
		c0.4-0.1,0.8-0.1,1.1-0.1c0.3,0,0.5,0.1,0.8,0.1l0.7-1.8c0.1-0.3,0.4-0.5,0.7-0.8c0.4-0.1,0.7-0.4,0.9-0.4c0.5-0.1,0.9-0.1,1.5-0.1
		s1.1,0.1,1.5,0.3c0.5,0.3,0.9,0.5,1.2,0.8c0.4,0.3,0.5,0.7,0.7,1.2c-0.1,0.5-0.5,2-1.1,4.3c-0.5,2.3-1.5,5.8-2.8,10.5
		c-0.4,1.4-0.7,2.7-0.9,4.1c0,0.7,0.4,0.9,1.1,0.8c0.7-0.1,1.5-0.8,2.4-1.9c0.8-1.1,1.8-2.3,2.8-3.9l1.4-2.2c0-0.5,0.1-1.1,0.3-1.6
		c0.3-1.5,0.5-3.1,0.9-4.7c0.3-1.8,0.8-3.4,1.2-5.1c-0.7,0-1.2-0.3-1.8-0.5c-0.4-0.3-0.7-0.8-0.7-1.5c-0.1-1.4,0.3-2.2,1.1-2.7
		c0.7-0.5,1.8-0.9,3.1-1.2c1.2-3.5,2.3-6.1,3.2-8c0.5-1.2,1.1-2.2,1.9-3c1.8-1.6,3.5-1.5,3.8-1.5c1.1,0.1,1.8,0.8,2,1.1
		c0.4,0.4,0.9,0.9,0.9,1.9c0,0.4-0.1,0.9-0.1,0.9c-0.1,0.5-0.4,0.9-0.5,1.2c-0.4,0.7-0.8,1.5-1.2,2.3c-0.4,0.8-0.9,1.8-1.4,2.8
		l2.4-0.5c0.4-0.1,0.7,0,0.9,0.4c0.3,0.3,0.4,0.7,0.5,0.9c0,0.8-0.1,1.5-0.4,2.2c-0.3,0.7-0.7,1.2-1.1,1.6c-0.4,0.4-0.9,0.8-1.5,1.1
		c-0.7,0.3-1.1,0.5-1.6,0.7c-0.3,0.1-0.7,0.1-1.1,0.3c-0.4,0-0.7,0.1-1.1,0.3c-0.4,1.5-0.9,2.8-1.4,4.3c-0.4,1.5-0.8,2.8-1.2,4.2
		c-0.4,1.4-0.7,2.6-0.9,3.8c-0.3,1.2-0.8,3.5-0.8,3.6c0,0.3,0,0.4,0,0.5c0,0.5,0.3,0.9,0.5,1.1c0.3,0.1,0.7,0.1,1.2,0
		c0.5-0.1,1.2-0.5,2-1.4c0.8-0.8,2.6-3.1,2.7-3.5c0.1-0.3,0.7-1.2,0.9-2.3c0.3-1.1,0.5-2.4,0.8-3.9c0-0.4,0.1-0.8,0.3-1.4
		c0.4-1.8,0.9-3.2,1.5-4.7c0.7-1.5,1.4-2.7,2-3.8c0.7-1.1,1.5-1.8,2.4-2.2c0.9-0.3,1.6-0.4,2.3-0.4c0.5,0.1,1.1,0.3,1.2,0.7
		c0.3,0.4,0.4,0.7,0.4,1.1c0,0.8-0.1,1.5-0.3,2.2c-0.1,0.7-0.3,1.4-0.5,2.2c-0.3,0.8-0.5,1.6-0.8,2.4c-0.4,0.8-0.7,1.9-1.1,3.1
		c-0.3,1.1-0.7,2.3-1.1,3.6c-0.3,1.4-0.7,2.7-0.8,4.1c0,0.7,0.3,0.9,0.8,0.8c0.7-0.1,1.6-0.9,2.7-2.3c0.4-0.5,0.7-0.9,1.1-1.5
		c0-1.8,0.3-3.6,0.9-5.7c0.8-2.3,1.8-4.6,3-6.6c1.2-2,2.6-3.8,4.1-5.3c1.5-1.5,3-2.3,4.5-2.7c0.8-0.3,1.6-0.1,2.3,0.3
		c0.5-0.3,1.1-0.5,1.6-0.7c1.5-0.3,2.6-0.1,3.2,0.7c0.7,0.8,1.2,1.8,1.4,3.1c0.3,1.4,0.3,2.7,0,4.3c-0.1,1.5-0.5,3-1.1,4.2
		c0.4,0.4,0.8,0.5,1.4,0.4c0.7-0.1,1.4-0.5,1.9-1.4c0.1-0.3,0.3-0.5,0.5-0.8c0.1-0.7,0.3-1.4,0.4-2c0.4-1.6,0.8-3.2,1.4-4.9
		c0.5-1.6,1.1-3,1.6-4.2c0.5-1.4,1.1-2.3,1.6-3.1c0.5-0.8,1.1-1.2,1.6-1.4c0.4,0,0.8-0.1,1.4-0.1c0.4,0,0.9,0,1.4,0.1
		c0.4,0,0.8,0.1,1.1,0.4c0.3,0.3,0.4,0.5,0.4,0.9c0,0.1-0.1,0.4-0.3,0.8c-0.1,0.4-0.3,0.8-0.5,1.4c-0.3,0.4-0.4,1.1-0.7,1.6
		c-0.3,0.5-0.4,1.1-0.5,1.6c0.7-0.9,1.4-1.8,2-2.7c0.7-0.9,1.5-1.8,2.2-2.4c0.7-0.8,1.5-1.4,2.2-1.9c0.8-0.5,1.5-0.8,1.8-1.1
		c0.4-0.1,0.9-0.1,1.5-0.1c0.4,0.1,0.9,0.1,1.4,0.4c0.4,0.3,0.8,0.5,1.1,0.9c0.3,0.4,0.4,0.8,0.4,1.5c0,0.9-0.3,2.3-0.8,3.8
		c-0.5,1.5-1.1,3.1-1.8,4.7c-0.7,1.6-1.2,3.2-1.8,4.7s-0.8,2.7-0.8,3.6c0,0.7,0.3,0.9,0.9,0.8c0.7-0.1,1.5-0.7,2.6-1.8
		c0.9-1.1,1.9-2.4,2.8-3.9l1.4-2.3c0.1,0,0.1-0.1,0.3-0.3c0.1-0.1,0.1-0.3,0.3-0.3h0.1c0.3,0,0.5,0,0.7,0.1c0.1,0.1,0.1,0.3,0.3,0.4
		c0,0.1,0.1,0.3,0.1,0.4c0,0.4,0.1,0.8,0.1,1.1c-0.1,0.9-0.7,2.2-1.5,3.5C239.6,150.3,238.5,151.7,237.3,153z"/>
	<path d="M205.9,147.2c-0.1-0.5-0.3-1.1-0.4-1.6c0-0.5-0.1-1.2-0.1-1.8c-0.1-0.1,0-0.4,0-0.5c0-0.3,0.1-0.4,0.1-0.5
		c-0.8,0.5-1.5,1.4-2.3,2.4c-0.8,0.9-1.5,2.2-2,3.4c-0.5,1.2-0.9,2.4-1.4,3.8c-0.4,1.2-0.5,2.4-0.5,3.5c0,0.4,0,0.9,0.1,1.5
		c0.1,0.5,0.3,0.9,0.4,1.4c0.1,0.3,0.4,0.7,0.7,0.8c0.3,0.1,0.7,0.3,1.1,0.1c0.7-0.1,1.4-0.7,2-1.4c0.7-0.8,1.2-1.6,1.8-2.6
		c0.4-0.9,0.9-2,1.2-3.1c0.3-1.1,0.5-2.2,0.7-3.1c-0.3-0.3-0.4-0.5-0.7-0.9C206.3,148.1,206,147.7,205.9,147.2z"/>
	<path d="M157,153.7c-0.9,0.4-1.8,1.4-2.7,2.6c-0.9,1.2-1.8,2.7-2.4,4.2c-0.7,1.6-1.2,3.1-1.6,4.6c-0.5,1.5-0.7,2.8-0.7,3.8
		c0,0.8,0.1,1.4,0.4,1.6c0.3,0.1,0.7,0.3,1.2,0.1c0.7-0.3,1.4-0.5,1.8-0.9c0.4-0.4,0.8-0.9,1.1-1.5c0.3-0.7,0.5-1.4,0.8-2
		c0.3-0.7,0.4-1.5,0.7-2.3c0.5-1.6,0.9-3.4,1.4-5c0.4-1.6,0.8-3.2,1.2-5.1C157.9,153.4,157.7,153.4,157,153.7z"/>
	<path d="M127.5,101c0.1-0.1,0.3-0.7,0-1.4c-0.7-1.2-1.9-0.7-2.3-0.4l-1.8,0.9l1.4,2.6l1.8-0.9C126.7,101.8,127.3,101.4,127.5,101z"
		/>
</g>
</svg>
