<svg xmlns="http://www.w3.org/2000/svg" xmlns:xlink="http://www.w3.org/1999/xlink" viewBox="0 0 310.39 263.62"><defs><style>.cls-1{isolation:isolate;}.cls-2{fill:url(#Neues_Verlaufsfeld_5);}.cls-3{fill:url(#Unbenannter_Verlauf_174);}.cls-4{fill:url(#Neues_Verlaufsfeld_5-2);}.cls-5{fill:url(#Neues_Verlaufsfeld_5-3);}.cls-6{fill:url(#Neues_Verlaufsfeld_5-4);}.cls-7{fill:url(#Neues_Verlaufsfeld_5-5);}.cls-8{fill:url(#Neues_Verlaufsfeld_5-7);}.cls-9{fill:url(#Neues_Verlaufsfeld_5-8);}.cls-10{fill:url(#Neues_Verlaufsfeld_5-9);}.cls-11{fill:url(#Unbenannter_Verlauf_132);}.cls-12{fill:url(#Unbenannter_Verlauf_108);}.cls-13{fill:url(#Unbenannter_Verlauf_108-2);}.cls-14{fill:url(#Unbenannter_Verlauf_143);}.cls-15{fill:url(#Unbenannter_Verlauf_148);}.cls-16{fill:url(#Unbenannter_Verlauf_156);}.cls-17{fill:url(#Unbenannter_Verlauf_165);}.cls-18{fill:url(#Unbenannter_Verlauf_140);}.cls-19{fill:#fff;}</style><linearGradient id="Neues_Verlaufsfeld_5" x1="-6102.22" y1="4983.78" x2="-6084.35" y2="4983.78" gradientTransform="translate(-4840.56 -6114.47) rotate(-89.52)" gradientUnits="userSpaceOnUse"><stop offset="0" stop-color="#5a3586"/><stop offset="0.97" stop-color="#6600a4" stop-opacity="0"/></linearGradient><linearGradient id="Unbenannter_Verlauf_174" x1="-2782.29" y1="8790.89" x2="-2767.74" y2="8817.75" gradientTransform="translate(-6122.32 -6774.66) rotate(-59.84)" gradientUnits="userSpaceOnUse"><stop offset="0" stop-color="#6500a3"/><stop offset="1" stop-color="#6500a3" stop-opacity="0"/></linearGradient><linearGradient id="Neues_Verlaufsfeld_5-2" x1="-6204.91" y1="5000.94" x2="-6204.9" y2="5000.94" xlink:href="#Neues_Verlaufsfeld_5"/><linearGradient id="Neues_Verlaufsfeld_5-3" x1="-6181.89" y1="4971.61" x2="-6180.37" y2="4971.61" xlink:href="#Neues_Verlaufsfeld_5"/><linearGradient id="Neues_Verlaufsfeld_5-4" x1="-6178.43" y1="4972.05" x2="-6176.57" y2="4972.05" xlink:href="#Neues_Verlaufsfeld_5"/><linearGradient id="Neues_Verlaufsfeld_5-5" x1="-6184.73" y1="4970.85" x2="-6183.95" y2="4970.85" xlink:href="#Neues_Verlaufsfeld_5"/><linearGradient id="Neues_Verlaufsfeld_5-7" x1="-6180.37" y1="4971.86" x2="-6178.43" y2="4971.86" xlink:href="#Neues_Verlaufsfeld_5"/><linearGradient id="Neues_Verlaufsfeld_5-8" x1="-6183.95" y1="4971.22" x2="-6181.89" y2="4971.22" xlink:href="#Neues_Verlaufsfeld_5"/><linearGradient id="Neues_Verlaufsfeld_5-9" x1="-6176.57" y1="4972.16" x2="-6173.65" y2="4972.16" xlink:href="#Neues_Verlaufsfeld_5"/><linearGradient id="Unbenannter_Verlauf_132" x1="-2870.74" y1="8811.95" x2="-2884.23" y2="8838.12" xlink:href="#Unbenannter_Verlauf_174"/><linearGradient id="Unbenannter_Verlauf_108" x1="-2843.87" y1="8825.8" x2="-2857.36" y2="8851.98" xlink:href="#Unbenannter_Verlauf_174"/><linearGradient id="Unbenannter_Verlauf_108-2" x1="-2843.29" y1="8826.1" x2="-2856.78" y2="8852.28" xlink:href="#Unbenannter_Verlauf_174"/><linearGradient id="Unbenannter_Verlauf_143" x1="-2870.65" y1="8781.98" x2="-2856.61" y2="8806.99" gradientTransform="translate(-6122.32 -6774.66) rotate(-59.84)" gradientUnits="userSpaceOnUse"><stop offset="0" stop-color="#6500a3"/><stop offset="0.97" stop-color="#6600a4" stop-opacity="0"/></linearGradient><linearGradient id="Unbenannter_Verlauf_148" x1="-2832.58" y1="8784.37" x2="-2847.52" y2="8810.57" gradientTransform="translate(-6122.32 -6774.66) rotate(-59.84)" gradientUnits="userSpaceOnUse"><stop offset="0" stop-color="#6500a3"/><stop offset="1" stop-color="#6600a4" stop-opacity="0"/></linearGradient><linearGradient id="Unbenannter_Verlauf_156" x1="-2829.55" y1="8757.62" x2="-2814.36" y2="8781.64" xlink:href="#Unbenannter_Verlauf_174"/><linearGradient id="Unbenannter_Verlauf_165" x1="-2791.48" y1="8760.58" x2="-2806.29" y2="8788.02" xlink:href="#Unbenannter_Verlauf_174"/><linearGradient id="Unbenannter_Verlauf_140" x1="-2827.39" y1="8817.7" x2="-2812.91" y2="8844.43" xlink:href="#Unbenannter_Verlauf_174"/></defs><g id="B"><g class="cls-1"><path class="cls-2" d="M76.18,11.56l31,18.11,0,0-31-18.11,0,0"/><path class="cls-3" d="M107.25,29.75l-.07-.06,0,0h0l-31-18.11.1.08a3.85,3.85,0,0,1,.77.64c.09.1.17.21.26.32s.26.36.39.57a4.53,4.53,0,0,1,.23.44,6.16,6.16,0,0,1,.31.73c.07.18.14.35.2.54s.15.55.22.85l.15.64c.06.33.12.7.17,1.06s.07.46.1.71c0,.43.08.9.11,1.37,0,.23,0,.44,0,.68,0,.73.05,1.51.05,2.34h0V48.22c0,.74,0,1.43-.05,2.12,0,1.14-.11,2.23-.24,3.25v0c-.13,1-.3,2-.51,2.86-.07.29-.15.58-.23.87-.13.49-.27,1-.43,1.42s-.23.65-.35,1-.22.52-.34.78-.34.72-.53,1.07-.24.46-.37.68-.37.58-.56.86-.44.67-.69,1-.68.89-1.06,1.33l31,18.11c.3-.33.58-.67.85-1,.08-.1.14-.21.22-.32.24-.32.47-.66.69-1,.12-.18.26-.35.37-.54s.12-.22.18-.32.26-.46.38-.69l.21-.38V30.18A4.32,4.32,0,0,0,107.25,29.75Z"/><polygon class="cls-4" points="107.89 132.38 107.9 132.39 107.89 132.38 107.89 132.38"/><path class="cls-5" d="M78.63,109.13c.11-.49.19-1,.27-1.52C78.82,108.13,78.74,108.64,78.63,109.13Z"/><path class="cls-6" d="M79.17,105.67c.06-.59.1-1.22.14-1.85C79.27,104.45,79.23,105.08,79.17,105.67Z"/><path class="cls-7" d="M77.86,112c.09-.25.16-.52.24-.78C78,111.44,78,111.71,77.86,112Z"/><path class="cls-4" d="M107.89,132.38h0"/><path class="cls-8" d="M78.9,107.61c.1-.63.2-1.27.27-1.94C79.1,106.34,79,107,78.9,107.61Z"/><path class="cls-9" d="M78.63,109.13c-.15.71-.33,1.39-.53,2.05.13-.44.28-.85.4-1.31C78.55,109.64,78.58,109.37,78.63,109.13Z"/><path class="cls-10" d="M79.42,100.89c0,1-.06,2-.11,2.93,0-.41.07-.77.09-1.2S79.42,101.48,79.42,100.89Z"/><path class="cls-11" d="M107.89,132.38l-31-18.1c.28-.58.54-1.18.77-1.81.06-.16.1-.34.16-.51a19.47,19.47,0,0,1-1.06,2.55c-.16.31-.33.61-.5.91s-.23.41-.36.61a18.43,18.43,0,0,1-1.12,1.61l-.09.11A21.17,21.17,0,0,1,73,119.68c-.09.09-.17.18-.26.26a25.58,25.58,0,0,1-2,1.77l-.42.32c-.74.56-1.52,1.11-2.35,1.66l-.43.27c-.88.56-1.8,1.13-2.78,1.69L13.75,154.87l31,18.12,50.93-29.22c1-.57,1.91-1.14,2.8-1.7l.41-.26c.83-.55,1.62-1.1,2.36-1.67l.41-.32c.73-.57,1.42-1.15,2.06-1.76l.25-.26a21,21,0,0,0,1.75-1.93l.07-.08s0,0,0,0a19.45,19.45,0,0,0,1.13-1.61l.1-.14c.09-.15.17-.32.26-.47s.34-.6.5-.92l.12-.23Z"/></g><path class="cls-12" d="M77.27,113.47c0-.1.09-.2.13-.3C77.36,113.27,77.32,113.37,77.27,113.47Z"/><path class="cls-13" d="M77.86,112c-.14.42-.3.82-.46,1.21.1-.24.21-.46.3-.7S77.8,112.13,77.86,112Z"/><polygon class="cls-14" points="58.52 117.09 27.55 98.98 27.55 132.04 40.43 139.57 58.52 129.19 58.52 117.09"/><path class="cls-15" d="M79.4,102.62c0-.56,0-1.14,0-1.73V87.27L64.74,78.68c-.69-.41-1.91,0-3.94,1.22L27.54,99l31,18.11L79.2,105.23c0-.47.08-.93.11-1.41S79.38,103.05,79.4,102.62Z"/><polygon class="cls-16" points="58.51 69.11 27.54 51 27.54 83.75 40.69 91.44 58.52 81.21 58.51 69.11"/><path class="cls-17" d="M78.49,56.47c.21-.91.38-1.85.51-2.86v0c.13-1,.2-2.11.24-3.25,0-.69.05-1.38.05-2.12v-9L64.74,30.7c-.7-.41-1.91.05-3.94,1.22L27.54,51l31,18.11L78.1,57.87c.05-.17.12-.35.16-.53S78.42,56.76,78.49,56.47Z"/><path class="cls-18" d="M78,67.83l.12.22c.11.23.21.47.31.73l.18.51c.08.26.15.53.22.82s.1.39.14.61.11.66.16,1l.09.66c0,.4.07.83.1,1.27,0,.21,0,.41.05.64,0,.68,0,1.39,0,2.15v24.45c0,.59,0,1.17,0,1.73s-.07.79-.09,1.2c0,.63-.08,1.26-.14,1.85S79,107,78.9,107.61s-.16,1-.27,1.52c0,.24-.08.51-.13.74-.12.46-.27.87-.4,1.31-.08.26-.15.53-.24.78s-.1.35-.16.51c-.23.63-.49,1.23-.77,1.81l30.87,18.05V84.47a3.18,3.18,0,0,0-.37-.27l-.07-.06h0l-2-1.14c-.16.19-.31.38-.48.57Z"/></g><g id="Typo"><path d="M27.57,226.36V163H63.14c6.59,0,9.66,1.5,9.66,9.31v44.79c0,7.82-3.07,9.31-9.66,9.31Zm36.28-51.73c0-2.54-.53-3.07-3.17-3.07H36.62v46.28H60.68c2.82,0,3.17-.52,3.17-3.07Z"/><path d="M82.59,226.47V163.06h9v63.41Z"/><path d="M116.41,226.47,99.1,163.06h9.67l13.61,51,13.7-51h9.57l-17.3,63.41Z"/><path d="M153.11,226.47V163.06h39.52v8.6H162.16v18.8h24.77V199H162.16v19h30.47v8.52Z"/><path d="M234,226.47l-14.31-24.33h-9.84v24.33h-9.05V163.06H234c6.59,0,9.67,1.49,9.67,9.31v20.46c0,7.82-3.08,9.31-9.67,9.31h-4.91l14.31,24.33Zm.71-51.73c0-2.55-.53-3.08-3.16-3.08h-21.7v22h21.7c2.8,0,3.16-.53,3.16-3.07Z"/><path d="M263.25,226.47c-6.59,0-9.67-1.5-9.67-9.31v-9.58h9v7.3c0,2.54.53,3.07,3.16,3.07H285c2.63,0,3.16-.53,3.16-3.07V202.14c0-2.55-.53-3.07-3.16-3.07H263.16c-6.59,0-9.66-1.5-9.66-9.31V172.37c0-7.82,3.07-9.31,9.66-9.31h24.33c6.58,0,9.66,1.49,9.66,9.31v9.57h-9v-7.2c0-2.55-.53-3.08-3.16-3.08H265.62c-2.64,0-3.17.53-3.17,3.08v12.73c0,2.55.53,3.08,3.17,3.08h21.95c6.59,0,9.66,1.49,9.66,9.31v17.3c0,7.81-3.07,9.31-9.66,9.31Z"/><path d="M33,253.79v-3.47H30.32c-1.89,0-2.77-.43-2.77-2.67V234.8c0-2.25.88-2.67,2.77-2.67h7.76c1.89,0,2.77.42,2.77,2.67v12.85c0,2.24-.88,2.67-2.77,2.67H35.56v3.47Zm5.32-18.31c0-.73-.15-.89-.91-.89H31.05c-.76,0-.91.16-.91.89V247c0,.73.15.88.91.88h6.32c.81,0,.91-.15.91-.88Z"/><path d="M47.07,250.32c-1.89,0-2.77-.43-2.77-2.67V236.46h2.59V247c0,.73.15.88.91.88h4.69c.75,0,.9-.15.9-.88V236.46H56v11.19c0,2.24-.88,2.67-2.77,2.67Z"/><path d="M62,250.32c-1.89,0-2.77-.43-2.77-2.67v-8.52c0-2.24.88-2.67,2.77-2.67h6.12c1.89,0,2.77.43,2.77,2.67v3.15c0,2.24-.88,2.67-2.77,2.67h-6.3v2c0,.86.23.88,1.34.88H70.3v2.45Zm6.32-10.51c0-.73-.15-.88-.9-.88H62.69c-.76,0-.91.15-.91.88v2.7h5.6c.75,0,.9-.16.9-.89Z"/><path d="M76.65,250.32c-1.89,0-2.78-.43-2.78-2.67v-8.52c0-2.24.89-2.67,2.78-2.67h6.12c1.89,0,2.77.43,2.77,2.67v3.15c0,2.24-.88,2.67-2.77,2.67h-6.3v2c0,.86.23.88,1.34.88H85v2.45ZM83,239.81c0-.73-.15-.88-.91-.88H77.38c-.76,0-.91.15-.91.88v2.7h5.59c.76,0,.91-.16.91-.89Z"/><path d="M88.56,250.32V239.13c0-2.24.88-2.67,2.77-2.67H97v2.47H92.06c-.75,0-.9.15-.9.88v10.51Z"/><path d="M102.42,250.32c-1.89,0-2.77-.43-2.77-2.67v-8.52c0-2.24.88-2.67,2.77-2.67h6.12c1.89,0,2.77.43,2.77,2.67v3.15c0,2.24-.88,2.67-2.77,2.67h-6.3v2c0,.86.23.88,1.34.88h7.18v2.45Zm6.32-10.51c0-.73-.15-.88-.91-.88h-4.68c-.76,0-.91.15-.91.88v2.7h5.59c.76,0,.91-.16.91-.89Z"/><path d="M114.73,250.32v-2.45h6.91c.75,0,.91-.15.91-.88v-1.46c0-.73-.16-.88-.91-.88h-4.71c-1.89,0-2.78-.43-2.78-2.67v-2.85c0-2.24.89-2.67,2.78-2.67h7.58v2.47h-6.88c-.75,0-.91.15-.91.88v1.51c0,.63.13.88.69.88h5c1.89,0,2.77.43,2.77,2.67v2.78c0,2.24-.88,2.67-2.77,2.67Z"/><path d="M142.85,250.32l-7.56-8.14v8.14H132.7V232.13h2.59v8.13l7.56-8.13h3.53l-8.85,9.09,8.85,9.1Z"/><path d="M151.44,250.32c-1.89,0-2.77-.43-2.77-2.67V236.46h2.59V247c0,.73.15.88.91.88h4.69c.75,0,.9-.15.9-.88V236.46h2.57v11.19c0,2.24-.88,2.67-2.77,2.67Z"/><path d="M166.35,250.32c-1.89,0-2.77-.43-2.77-2.67V230.16h2.59V247c0,.73.16.88.91.88h2v2.45Z"/><path d="M175.12,250.32c-1.89,0-2.77-.43-2.77-2.67v-8.72h-2.3v-2.47h2.3v-5.19h2.59v5.19h2.87v2.47h-2.87V247c0,.73.15.88.91.88h2v2.45Z"/><path d="M183.28,250.32c-1.89,0-2.77-.43-2.77-2.67V236.46h2.59V247c0,.73.16.88.91.88h4.69c.75,0,.91-.15.91-.88V236.46h2.56v11.19c0,2.24-.88,2.67-2.77,2.67Z"/><path d="M195.42,250.32V239.13c0-2.24.88-2.67,2.77-2.67h5.67v2.47h-4.94c-.75,0-.9.15-.9.88v10.51Z"/><path d="M208.32,250.32V238.9H206v-2.47h2.29v-3.6c0-2.24.88-2.67,2.77-2.67h3.71v2.47h-3c-.75,0-.91.15-.91.88v2.92h3.89v2.47h-3.89v11.42Z"/><path d="M220.21,250.32c-1.89,0-2.77-.43-2.77-2.67v-8.52c0-2.24.88-2.67,2.77-2.67h6.12c1.89,0,2.77.43,2.77,2.67v3.15c0,2.24-.88,2.67-2.77,2.67H220v2c0,.86.23.88,1.34.88h7.18v2.45Zm6.32-10.51c0-.73-.15-.88-.9-.88h-4.69c-.75,0-.91.15-.91.88v2.7h5.6c.75,0,.9-.16.9-.89Z"/><path d="M232.53,250.32v-2.45h6.9c.76,0,.91-.15.91-.88v-1.46c0-.73-.15-.88-.91-.88h-4.71c-1.89,0-2.77-.43-2.77-2.67v-2.85c0-2.24.88-2.67,2.77-2.67h7.58v2.47h-6.87c-.76,0-.91.15-.91.88v1.51c0,.63.13.88.68.88h5c1.89,0,2.78.43,2.78,2.67v2.78c0,2.24-.89,2.67-2.78,2.67Z"/><path d="M250.22,250.32c-1.9,0-2.78-.43-2.78-2.67v-8.72h-2.29v-2.47h2.29v-5.19H250v5.19h2.87v2.47H250V247c0,.73.15.88.91.88h2v2.45Z"/><path d="M257.47,250.32V238.93H255v-2.47h5v13.86Zm0-15.73v-2.46H260v2.46Z"/><path d="M267,250.32l-4.43-13.86h2.74l3.25,10.91,3.31-10.91h2.67l-4.39,13.86Z"/><path d="M279.64,250.32c-1.89,0-2.77-.43-2.77-2.67v-3.33c0-2.24.88-2.67,2.77-2.67h6.3v-1.84c0-.73-.15-.88-.91-.88h-7.89v-2.47h8.62c1.89,0,2.77.43,2.77,2.67v8.52c0,2.24-.88,2.67-2.77,2.67Zm6.3-6.2h-5.6c-.75,0-.9.15-.9.88v2c0,.73.15.88.9.88H285c.76,0,.91-.15.91-.88Z"/><path d="M294.5,250.32c-1.89,0-2.77-.43-2.77-2.67V230.16h2.59V247c0,.73.16.88.91.88h2v2.45Z"/><path d="M165.65,157.33c-6.58,0-9.66-1.49-9.66-9.31v-9.58h9v7.3c0,2.54.53,3.07,3.16,3.07h19.32c2.64,0,3.16-.53,3.16-3.07V133c0-2.54-.52-3.07-3.16-3.07H165.57c-6.59,0-9.67-1.5-9.67-9.31V103.23c0-7.82,3.08-9.31,9.67-9.31h24.32c6.59,0,9.67,1.49,9.67,9.31v9.57h-9.05v-7.2c0-2.55-.53-3.07-3.17-3.07H168c-2.63,0-3.16.52-3.16,3.07v12.73c0,2.55.53,3.08,3.16,3.08h22c6.59,0,9.66,1.49,9.66,9.31V148c0,7.82-3.07,9.31-9.66,9.31Z"/><path d="M210.72,157.33V93.92h39.52v8.61H219.76v18.79h24.77v8.52H219.76v19h30.48v8.52Z"/><path d="M259.4,157.33V93.92h9.05v54.89h28.71v8.52Z"/><path d="M133.56,157.33V134.58H107.83v22.75h-9v-54.1c0-7.82,3.08-9.31,9.66-9.31h24.42c6.59,0,9.66,1.49,9.66,9.31v54.1Zm0-51.73c0-2.55-.52-3.07-3.16-3.07H111c-2.63,0-3.16.52-3.16,3.07v20.46h25.73Z"/><path d="M189.13,88.17l-24-47.6v47.6h-9V24.76H167l24.24,48.13V24.76h9V88.17Z"/><path d="M224.34,88.17V33.37H207.13V24.76h43.39v8.61H233.39v54.8Z"/><path d="M259.48,72.72v-48h9v48Zm0,15.45v-9h9v9Z"/><path d="M108.51,88.17c-6.58,0-9.66-1.49-9.66-9.31V24.76h9.05V76.58c0,2.55.53,3.07,3.16,3.07h22.05c2.8,0,3.16-.52,3.16-3.07V24.76h8.95v54.1c0,7.82-3.07,9.31-9.66,9.31Z"/><path class="cls-19" d="M73.93,65.45c3.88-.08,5.49,3.31,5.49,11v24.45c0,13.68-4.68,19-14.73,24.76L13.76,154.87l0-111L64.53,14.69c10-5.77,14.76-5.84,14.76,7.84V48.2C79.29,56.05,77.81,61.05,73.93,65.45ZM65.63,105V82.51c0-4.45-.8-4.92-4.82-2.61L27.54,99V132L60.8,113c4.29-2.46,4.83-3.7,4.83-8m0-48.28V34.53c0-4.45-.81-4.92-4.82-2.61L27.54,51V83.75L60.8,64.67c4.28-2.45,4.82-3.68,4.82-8"/></g></svg>