<svg id="Ebene_1" data-name="Ebene 1" xmlns="http://www.w3.org/2000/svg" viewBox="0 0 400 300"><defs><style>.cls-1,.cls-2{stroke:#000;stroke-linecap:round;stroke-linejoin:round;stroke-width:3px;}.cls-2{fill:#fff;}</style></defs><path class="cls-1" d="M217.92,261.56c6.86-5.88,11.94-13.19,16.25-21,3.91-7.09,7.26-14.48,11.2-21.55,5.36-9.63,11.07-19.08,16.61-28.62,4.48-7.72,8.73-15.53,10.63-24.37.45-2.07.72-4.18,1.07-6.28v-5.4c-.26-1.53-.4-3.09-.8-4.59-.85-3.24-1.74-6.48-2.79-9.67-1.19-3.61-4-5.21-7.63-5.65-.42-.06-.85-.08-1.27-.13,0,0-.08,0-.34-.2a51,51,0,0,0-2.24-18.74A33.4,33.4,0,0,0,247.89,99.6c1.13-.49,2.08-.87,3-1.3a25.11,25.11,0,0,0,9.22-7.18,7.54,7.54,0,0,0,1.26-7.74,17.76,17.76,0,0,0-5.62-8c-2.62-2.06-4.35-1.88-6.64.46a26.45,26.45,0,0,1-17,8,88.27,88.27,0,0,1-10.9-.19c-5-.17-9.92-.4-14.88-.61-.46,0-.92,0-1.45,0a18.7,18.7,0,0,1,.34-3c.08-.32.81-.66,1.25-.66,3.86,0,7.77-.08,11.35-1.49,5-2,9.77-4.33,14.59-6.63a3.85,3.85,0,0,0,2-3.56,23.94,23.94,0,0,0-.27-4.94,29,29,0,0,0-3.81-10.49c-1.7-2.7-3.46-3.15-6.4-1.91-4.73,2-9.54,3.93-14.72,4s-10.37-.39-15.43-.62c.43-3.18.8-6,1.2-8.86a2.55,2.55,0,0,0-1.9-3.07c-1.8-.56-3.65-.93-5.49-1.37L186.09,40h-4.55c-1.1.27-2.2.5-3.28.8a2.21,2.21,0,0,0-1.75,2.4c0,4-1.74,7.4-3.94,10.6a2.39,2.39,0,0,1-1.12.8,29.11,29.11,0,0,0-11.7,7.53c-.13.13-.28.24-.46.39a20,20,0,0,0-8.46-3.87c-3.63-.78-5.2-.07-7,3.11a19.21,19.21,0,0,0-2.52,8.06A27.83,27.83,0,0,1,137,81.75c-2.23,3.7-4.38,7.48-4.69,11.9a6.6,6.6,0,0,1-1.69,4.17c-2.21,2.47-4.33,5-6.58,7.45-6.44,7-9.41,15.39-10.46,24.64-.08.65-.21,1.3-.32,1.94v6.54c.24,1.92.38,3.86.74,5.76,1.09,5.76,2.29,11.5,3.39,17.27.53,2.78,1,5.59,1.35,8.41A37.35,37.35,0,0,0,123,182.09a310.46,310.46,0,0,0,41.77,62.24c4.57,5.24,8.8,10.79,14.14,15.34,4.27,3.63,8.86,6.71,14.28,8.31,3.3.13,6.52.89,9.7,1,.21-.18.31-.28.41-.29C209,268,213.68,265.19,217.92,261.56Z"/><path class="cls-1" d="M257,117.08a51.79,51.79,0,0,1,1.27,22.22,2.54,2.54,0,0,1-.48,1.3c-4.13,4.8-9.1,7.9-15.71,7.14-5.14-.59-9.21-3.28-12.59-7.07a25.3,25.3,0,0,1-6.71-16.2c-.33-8-4.31-13.29-11.39-16.54l-1.78-.79a21,21,0,0,1,11.26-5.1,78.27,78.27,0,0,1,10.61-.6,62.23,62.23,0,0,0,13.14-1,2.33,2.33,0,0,1,1.63.49A30.29,30.29,0,0,1,257,117.08Z"/><path class="cls-1" d="M251.57,76.23a3.45,3.45,0,0,1,2.67.52c2.84,1.83,5.65,6.65,5.69,9.43a1.71,1.71,0,0,1-2.5,1.69,3.21,3.21,0,0,1-1.22-.93c-1.48-1.89-2.95-3.8-4.34-5.76a7.39,7.39,0,0,1-1-2.19C250.63,78,250.48,76.67,251.57,76.23Z"/><path class="cls-1" d="M206.27,85c5,.07,10,.13,15,.68,9.13,1,17.77.1,25.53-5.28.62-.43,1.22-.88,1.84-1.31,0,0,.09,0,.15,0,1.17,3.77,3.65,6.69,6.23,9.52,1.12,1.23,1.72,1.36,3.86,1.24a30.73,30.73,0,0,1-13.64,8.21,44,44,0,0,1-14.08,1.36c-5.92-.26-11.74.18-17.24,2.64a19.64,19.64,0,0,0-10.57,10.4,2,2,0,0,1-1,1c-4.12,1.33-8.31,1.86-12.56.61-4.66-1.38-7.27-4.76-9.17-9-1.33-3-1.14-5.59,1-8a60.37,60.37,0,0,1,6-6,6.63,6.63,0,0,0,2.66-5.22c0-1.37-.05-2.75,0-4.12a1.47,1.47,0,0,1,.71-1.12A27.86,27.86,0,0,1,203,79.53a4.39,4.39,0,0,1-2,5.11c-.71.47-1.43.93-2.16,1.37a8.22,8.22,0,0,0-2.1,1.57c1.64-.53,3.27-1.11,4.93-1.57A17.13,17.13,0,0,1,206.27,85Z"/><path class="cls-1" d="M226.64,51.35a2.68,2.68,0,0,1,1.8,1.14,50.73,50.73,0,0,1,3.12,6.79,61,61,0,0,1,1.55,6.61l-.23,0v.43c-.08,2.2-.78,3.41-2.16,3.75s-2.87-.31-3.81-2.3a34,34,0,0,1-3.27-13.28C223.54,52.3,224.76,51.09,226.64,51.35Z"/><path class="cls-1" d="M191.63,43.42a21.08,21.08,0,0,1-11.85-.78A21.1,21.1,0,0,1,191.63,43.42Z"/><path class="cls-1" d="M172.37,56.37a5.18,5.18,0,0,0,2.24-2,24.52,24.52,0,0,0,3.81-9.11,4.47,4.47,0,0,1,.21-.61,29.63,29.63,0,0,0,14.09.88,28.41,28.41,0,0,1-1.59,8.06c-.1.29-.53.52-.86.66-1.73.76-3.47,1.48-5.53,2.35a24.12,24.12,0,0,0,4.18-.43c3.58-1,7.16-.68,10.71-.15a41.2,41.2,0,0,0,21.61-2.5c.17-.07.36-.11.56-.17.68,6.41,1.27,12.8,5.65,18.11-4.94,2.68-10,5.23-15.82,5.58-4,.25-7.95.17-11.93.35-5.15.23-10.25.76-14.48,4.15-4.51,3.62-7.24,8.45-9,13.86a2.45,2.45,0,0,1-1.86,1.82c-6.78,2-13.08.7-18.85-3.1a63,63,0,0,1-6.74-5.63,1.69,1.69,0,0,1-.41-1.45c2.44-6.94,5.27-13.7,9.68-19.68C161.76,62.28,166.34,58.4,172.37,56.37Z"/><path class="cls-1" d="M158.21,64.41c-1.1.41-1.93,1-2.74,1A13.4,13.4,0,0,1,148,62.75a7.46,7.46,0,0,1-1.27-1.59C148.77,59.59,154.77,61.22,158.21,64.41Z"/><path class="cls-1" d="M137.25,85.4c1.13-2.29,2.67-4.39,3.61-6.74a66,66,0,0,0,2.29-8c.64-2.5,1.17-5,1.95-7.57,2.89,2.86,6.44,3.73,10.26,4.48a85,85,0,0,0-8.74,18.17c-.14.37-.69.89-1,.86-4.3-.41-7.28,1.83-10,4.78a9.36,9.36,0,0,0-.74,1l-.56-.35C135.32,89.83,136.19,87.57,137.25,85.4Z"/><path class="cls-1" d="M187.39,263.28a53.74,53.74,0,0,1-13.78-11.75c-9.91-11.47-19.69-23.07-28.27-35.6a327.84,327.84,0,0,1-22.45-38.83,28.9,28.9,0,0,1-1.08-2.77,9.5,9.5,0,0,1-.25-1c2.5-.39,4.94-.63,7.32-1.15,13.46-3,23.14-10.47,28.39-23.47,2.06-5.13,4.59-10.07,6.91-15.09a.94.94,0,0,0,0-.86c-.65,1.16-1.37,2.29-1.95,3.5-2.05,4.26-4.12,8.52-6.06,12.83-5.5,12.26-15.13,19.07-28.13,21.43a49.3,49.3,0,0,1-6.07.59,1.43,1.43,0,0,1-1.07-.87c-1.79-9.63-3.78-19.23-5.2-28.92a43.47,43.47,0,0,1,4.87-27.79,44,44,0,0,1,4.4-6.25c3.47-4.31,7-8.6,10.64-12.75a41.75,41.75,0,0,1,5.76-5.18,6.52,6.52,0,0,1,3-.76,3.27,3.27,0,0,1,3,1.28c6.1,6.46,13.29,10.67,22.53,10.06a47.1,47.1,0,0,0,6.37-1.32,2.11,2.11,0,0,0,1.66-1.7,29,29,0,0,1,7.37-12.78c.85-.81,1.81-1.49,3.05-2.49,0,1.9.07,3.36,0,4.81a3.89,3.89,0,0,1-1.84,3,24.23,24.23,0,0,0-8.55,10.22,3.1,3.1,0,0,0-.34,1.63c1.36,6.47,4.17,11.91,10.82,14.39a20.41,20.41,0,0,0,10.93.63c.56-.1,1.11-.27,1.67-.37,2.24-.39,3.83-1.22,4.75-3.69,1.41-3.79,2.08-3.86,5.69-2.12,6,2.87,9,7.62,9.41,14.25.62,10,5.06,17.89,13.86,22.91,7.42,4.24,15.56,3.08,22-2.6,2.28-2,4.11-4.19,3.93-7.47,0-.73.37-.93,1.08-.94a6.92,6.92,0,0,1,6.54,4.38c5.14,12.32,4.42,24.48-1.48,36.27-3.62,7.23-7.66,14.26-11.81,21.2q-10.29,17.2-19.13,35.18a93.35,93.35,0,0,1-15.5,23.2,37.57,37.57,0,0,1-9.9,7.78C202.53,268.44,194.87,267.61,187.39,263.28Z"/><path class="cls-1" d="M244.64,100.46a62.23,62.23,0,0,1-13.14,1,78.27,78.27,0,0,0-10.61.6,21,21,0,0,0-11.26,5.1l1.78.79c7.08,3.25,11.06,8.59,11.39,16.54a25.3,25.3,0,0,0,6.71,16.2c3.38,3.79,7.45,6.48,12.59,7.07,6.61.76,11.58-2.34,15.71-7.14a2.54,2.54,0,0,0,.48-1.3A51.79,51.79,0,0,0,257,117.08,30.29,30.29,0,0,0,246.27,101,2.33,2.33,0,0,0,244.64,100.46Z"/><path class="cls-1" d="M251.87,81.18c1.39,2,2.86,3.87,4.34,5.76a3.21,3.21,0,0,0,1.22.93,1.71,1.71,0,0,0,2.5-1.69c0-2.78-2.85-7.6-5.69-9.43a3.45,3.45,0,0,0-2.67-.52c-1.09.44-.94,1.73-.65,2.76A7.39,7.39,0,0,0,251.87,81.18Z"/><path class="cls-1" d="M196.68,87.58a8.22,8.22,0,0,1,2.1-1.57c.73-.44,1.45-.9,2.16-1.37a4.39,4.39,0,0,0,2-5.11,27.86,27.86,0,0,0-11.89,1.16,1.47,1.47,0,0,0-.71,1.12c-.08,1.37,0,2.75,0,4.12a6.63,6.63,0,0,1-2.66,5.22,60.37,60.37,0,0,0-6,6c-2.18,2.37-2.37,5-1,8,1.9,4.27,4.51,7.65,9.17,9,4.25,1.25,8.44.72,12.56-.61a2,2,0,0,0,1-1,19.64,19.64,0,0,1,10.57-10.4c5.5-2.46,11.32-2.9,17.24-2.64a44,44,0,0,0,14.08-1.36,30.73,30.73,0,0,0,13.64-8.21c-2.14.12-2.74,0-3.86-1.24-2.58-2.83-5.06-5.75-6.23-9.52-.06,0-.12,0-.15,0-.62.43-1.22.88-1.84,1.31-7.76,5.38-16.4,6.28-25.53,5.28-5-.55-10-.61-15-.68a17.13,17.13,0,0,0-4.66,1C200,86.47,198.32,87.05,196.68,87.58Z"/><path class="cls-1" d="M226.91,67.82c.94,2,2.31,2.66,3.81,2.3s2.08-1.55,2.16-3.75v-.43l.23,0a61,61,0,0,0-1.55-6.61,50.73,50.73,0,0,0-3.12-6.79,2.68,2.68,0,0,0-1.8-1.14c-1.88-.26-3.1.95-3,3.19A34,34,0,0,0,226.91,67.82Z"/><path class="cls-1" d="M191.63,43.42a21.1,21.1,0,0,0-11.85-.78A21.08,21.08,0,0,0,191.63,43.42Z"/><path class="cls-1" d="M148.36,87a1.69,1.69,0,0,0,.41,1.45,63,63,0,0,0,6.74,5.63c5.77,3.8,12.07,5.06,18.85,3.1a2.45,2.45,0,0,0,1.86-1.82c1.76-5.41,4.49-10.24,9-13.86,4.23-3.39,9.33-3.92,14.48-4.15,4-.18,8-.1,11.93-.35,5.81-.35,10.88-2.9,15.82-5.58-4.38-5.31-5-11.7-5.65-18.11-.2.06-.39.1-.56.17A41.2,41.2,0,0,1,199.63,56c-3.55-.53-7.13-.88-10.71.15a24.12,24.12,0,0,1-4.18.43c2.06-.87,3.8-1.59,5.53-2.35.33-.14.76-.37.86-.66a28.41,28.41,0,0,0,1.59-8.06,29.63,29.63,0,0,1-14.09-.88,4.47,4.47,0,0,0-.21.61,24.52,24.52,0,0,1-3.81,9.11,5.18,5.18,0,0,1-2.24,2c-6,2-10.61,5.91-14.33,10.94C153.63,73.29,150.8,80.05,148.36,87Z"/><path class="cls-1" d="M148,62.75a13.4,13.4,0,0,0,7.49,2.63c.81,0,1.64-.56,2.74-1-3.44-3.19-9.44-4.82-11.5-3.25A7.46,7.46,0,0,0,148,62.75Z"/><path class="cls-1" d="M135.66,91.38c2.67-2.95,5.65-5.19,10-4.78.32,0,.87-.49,1-.86a85,85,0,0,1,8.74-18.17c-3.82-.75-7.37-1.62-10.26-4.48-.78,2.54-1.31,5.07-1.95,7.57a66,66,0,0,1-2.29,8c-.94,2.35-2.48,4.45-3.61,6.74s-1.93,4.43-2.89,6.64l.56.35A9.36,9.36,0,0,1,135.66,91.38Z"/><path class="cls-1" d="M220.3,256.56a93.35,93.35,0,0,0,15.5-23.2q8.85-18,19.13-35.18c4.15-6.94,8.19-14,11.81-21.2,5.9-11.79,6.62-23.95,1.48-36.27a6.92,6.92,0,0,0-6.54-4.38c-.71,0-1.12.21-1.08.94.18,3.28-1.65,5.44-3.93,7.47-6.42,5.68-14.56,6.84-22,2.6-8.8-5-13.24-12.91-13.86-22.91-.41-6.63-3.43-11.38-9.41-14.25-3.61-1.74-4.28-1.67-5.69,2.12-.92,2.47-2.51,3.3-4.75,3.69-.56.1-1.11.27-1.67.37a20.41,20.41,0,0,1-10.93-.63c-6.65-2.48-9.46-7.92-10.82-14.39a3.1,3.1,0,0,1,.34-1.63,24.23,24.23,0,0,1,8.55-10.22,3.89,3.89,0,0,0,1.84-3c.09-1.45,0-2.91,0-4.81-1.24,1-2.2,1.68-3.05,2.49a29,29,0,0,0-7.37,12.78,2.11,2.11,0,0,1-1.66,1.7,47.1,47.1,0,0,1-6.37,1.32c-9.24.61-16.43-3.6-22.53-10.06a3.27,3.27,0,0,0-3-1.28,6.52,6.52,0,0,0-3,.76,41.75,41.75,0,0,0-5.76,5.18C132,98.69,128.48,103,125,107.29a44,44,0,0,0-4.4,6.25,43.47,43.47,0,0,0-4.87,27.79c1.42,9.69,3.41,19.29,5.2,28.92a1.43,1.43,0,0,0,1.07.87,49.3,49.3,0,0,0,6.07-.59c13-2.36,22.63-9.17,28.13-21.43,1.94-4.31,4-8.57,6.06-12.83.58-1.21,1.3-2.34,1.95-3.5a.94.94,0,0,1,0,.86c-2.32,5-4.85,10-6.91,15.09-5.25,13-14.93,20.51-28.39,23.47-2.38.52-4.82.76-7.32,1.15a9.5,9.5,0,0,0,.25,1,28.9,28.9,0,0,0,1.08,2.77,327.84,327.84,0,0,0,22.45,38.83c8.58,12.53,18.36,24.13,28.27,35.6a53.74,53.74,0,0,0,13.78,11.75c7.48,4.33,15.14,5.16,23,1.06A37.57,37.57,0,0,0,220.3,256.56Z"/><path class="cls-2" d="M188.31,81.65c0,1.9.07,3.36,0,4.81a3.89,3.89,0,0,1-1.84,3,24.23,24.23,0,0,0-8.55,10.22,3.1,3.1,0,0,0-.34,1.63c1.36,6.47,4.17,11.91,10.82,14.39a20.41,20.41,0,0,0,10.93.63c.56-.1,1.11-.27,1.67-.37,2.24-.39,3.83-1.22,4.75-3.69,1.41-3.79,2.08-3.86,5.69-2.12,6,2.87,9,7.62,9.41,14.25.62,10,5.06,17.89,13.86,22.91,7.42,4.24,15.56,3.08,22-2.6,2.28-2,4.11-4.19,3.93-7.47,0-.73.37-.93,1.08-.94a6.92,6.92,0,0,1,6.54,4.38c5.14,12.32,4.42,24.48-1.48,36.27-3.62,7.23-7.66,14.26-11.81,21.2q-10.29,17.2-19.13,35.18a93.35,93.35,0,0,1-15.5,23.2,37.57,37.57,0,0,1-9.9,7.78c-7.87,4.1-15.53,3.27-23-1.06a53.74,53.74,0,0,1-13.78-11.75c-9.91-11.47-19.69-23.07-28.27-35.6a327.84,327.84,0,0,1-22.45-38.83,28.9,28.9,0,0,1-1.08-2.77,9.5,9.5,0,0,1-.25-1c2.5-.39,4.94-.63,7.32-1.15,13.46-3,23.14-10.47,28.39-23.47,2.06-5.13,4.59-10.07,6.91-15.09a.94.94,0,0,0,0-.86c-.65,1.16-1.37,2.29-1.95,3.5-2.05,4.26-4.12,8.52-6.06,12.83-5.5,12.26-15.13,19.07-28.13,21.43a49.3,49.3,0,0,1-6.07.59,1.43,1.43,0,0,1-1.07-.87c-1.79-9.63-3.78-19.23-5.2-28.92a43.47,43.47,0,0,1,4.87-27.79,44,44,0,0,1,4.4-6.25c3.47-4.31,7-8.6,10.64-12.75a41.75,41.75,0,0,1,5.76-5.18,6.52,6.52,0,0,1,3-.76,3.27,3.27,0,0,1,3,1.28c6.1,6.46,13.29,10.67,22.53,10.06a47.1,47.1,0,0,0,6.37-1.32,2.11,2.11,0,0,0,1.66-1.7,29,29,0,0,1,7.37-12.78C186.11,83.33,187.07,82.65,188.31,81.65Z"/><path class="cls-2" d="M178.63,44.6a29.63,29.63,0,0,0,14.09.88,28.41,28.41,0,0,1-1.59,8.06c-.1.29-.53.52-.86.66-1.73.76-3.47,1.48-5.53,2.35a24.12,24.12,0,0,0,4.18-.43c3.58-1,7.16-.68,10.71-.15a41.2,41.2,0,0,0,21.61-2.5c.17-.07.36-.11.56-.17.68,6.41,1.27,12.8,5.65,18.11-4.94,2.68-10,5.23-15.82,5.58-4,.25-7.95.17-11.93.35-5.15.23-10.25.76-14.48,4.15-4.51,3.62-7.24,8.45-9,13.86a2.45,2.45,0,0,1-1.86,1.82c-6.78,2-13.08.7-18.85-3.1a63,63,0,0,1-6.74-5.63,1.69,1.69,0,0,1-.41-1.45c2.44-6.94,5.27-13.7,9.68-19.68,3.72-5,8.3-8.91,14.33-10.94a5.18,5.18,0,0,0,2.24-2,24.52,24.52,0,0,0,3.81-9.11A4.47,4.47,0,0,1,178.63,44.6Z"/><path class="cls-2" d="M209.63,107.14a21,21,0,0,1,11.26-5.1,78.27,78.27,0,0,1,10.61-.6,62.23,62.23,0,0,0,13.14-1,2.33,2.33,0,0,1,1.63.49A30.29,30.29,0,0,1,257,117.08a51.79,51.79,0,0,1,1.27,22.22,2.54,2.54,0,0,1-.48,1.3c-4.13,4.8-9.1,7.9-15.71,7.14-5.14-.59-9.21-3.28-12.59-7.07a25.3,25.3,0,0,1-6.71-16.2c-.33-8-4.31-13.29-11.39-16.54Z"/><path class="cls-2" d="M258.89,89.85a30.73,30.73,0,0,1-13.64,8.21,44,44,0,0,1-14.08,1.36c-5.92-.26-11.74.18-17.24,2.64a19.64,19.64,0,0,0-10.57,10.4,2,2,0,0,1-1,1c-4.12,1.33-8.31,1.86-12.56.61-4.66-1.38-7.27-4.76-9.17-9-1.33-3-1.14-5.59,1-8a60.37,60.37,0,0,1,6-6,6.63,6.63,0,0,0,2.66-5.22c0-1.37-.05-2.75,0-4.12a1.47,1.47,0,0,1,.71-1.12A27.86,27.86,0,0,1,203,79.53a4.39,4.39,0,0,1-2,5.11c-.71.47-1.43.93-2.16,1.37a8.22,8.22,0,0,0-2.1,1.57c1.64-.53,3.27-1.11,4.93-1.57a17.13,17.13,0,0,1,4.66-1c5,.07,10,.13,15,.68,9.13,1,17.77.1,25.53-5.28.62-.43,1.22-.88,1.84-1.31,0,0,.09,0,.15,0,1.17,3.77,3.65,6.69,6.23,9.52C256.15,89.84,256.75,90,258.89,89.85Z"/><path class="cls-2" d="M155.36,67.57a85,85,0,0,0-8.74,18.17c-.14.37-.69.89-1,.86-4.3-.41-7.28,1.83-10,4.78a9.36,9.36,0,0,0-.74,1l-.56-.35c1-2.21,1.83-4.47,2.89-6.64s2.67-4.39,3.61-6.74a66,66,0,0,0,2.29-8c.64-2.5,1.17-5,1.95-7.57C148,66,151.54,66.82,155.36,67.57Z"/><path class="cls-2" d="M232.88,65.94v.43c-.08,2.2-.78,3.41-2.16,3.75s-2.87-.31-3.81-2.3a34,34,0,0,1-3.27-13.28c-.1-2.24,1.12-3.45,3-3.19a2.68,2.68,0,0,1,1.8,1.14,50.73,50.73,0,0,1,3.12,6.79,61,61,0,0,1,1.55,6.61Z"/><path class="cls-2" d="M259.93,86.18a1.71,1.71,0,0,1-2.5,1.69,3.21,3.21,0,0,1-1.22-.93c-1.48-1.89-2.95-3.8-4.34-5.76a7.39,7.39,0,0,1-1-2.19c-.29-1-.44-2.32.65-2.76a3.45,3.45,0,0,1,2.67.52C257.08,78.58,259.89,83.4,259.93,86.18Z"/><path class="cls-2" d="M158.21,64.41c-1.1.41-1.93,1-2.74,1A13.4,13.4,0,0,1,148,62.75a7.46,7.46,0,0,1-1.27-1.59C148.77,59.59,154.77,61.22,158.21,64.41Z"/><path class="cls-2" d="M191.63,43.42a21.08,21.08,0,0,1-11.85-.78A21.1,21.1,0,0,1,191.63,43.42Z"/></svg>