<?xml version="1.0" encoding="utf-8"?>
<!-- Generator: Adobe Illustrator 24.3.0, SVG Export Plug-In . SVG Version: 6.00 Build 0)  -->
<svg version="1.1" id="Ebene_1" xmlns="http://www.w3.org/2000/svg" xmlns:xlink="http://www.w3.org/1999/xlink" x="0px" y="0px"
	 viewBox="0 0 500 500" style="enable-background:new 0 0 500 500;" xml:space="preserve">
<style type="text/css">
	.st0{fill:#D57B7C;}
</style>
<g>
	<path class="st0" d="M144.1,331.9c-6-0.1-12-0.3-18.1-0.1c-3.3,0.1-4.4-1.1-4.2-4.3c0.2-4.8-0.1-9.7,0.1-14.6
		c0.2-3.5-0.7-4.9-4.5-4.6c-4.8,0.3-9.7-0.1-14.6,0.1c-3.1,0.1-4.4-0.6-4.4-4.1c0.1-36.1,0.1-72.3,0-108.4c0-3.2,0.8-4.5,4.2-4.3
		c4.6,0.3,9.3-0.2,14,0.1c3.9,0.3,5.6-0.7,5.3-5c-0.4-4.6,0.2-9.3-0.2-14c-0.3-3.8,1.2-4.6,4.7-4.5c5,0.3,10.1-0.1,15.2,0.1
		c2.8,0.1,3.7-0.9,3.7-3.7c-0.2-5,0.1-10.1-0.1-15.2c-0.2-3.4,0.7-4.9,4.5-4.7c4.6,0.3,9.3-0.2,14,0.2c4.3,0.4,5.3-1.3,5-5.3
		c-0.3-4.8,0.1-9.7-0.1-14.6c-0.1-2.9,1-3.7,3.7-3.6c5.2,0.2,10.5-0.1,15.7,0.1c3,0.1,4.2-0.8,4-3.9c-0.2-5,0.1-10.1-0.1-15.2
		c-0.1-3.1,0.6-4.4,4.1-4.4c36.1,0.1,72.3,0.1,108.4,0c3.2,0,4.4,0.9,4.3,4.2c-0.2,6,0.1,12,0.1,18.1c-0.1,0.8,0.2,1.1,0.9,0.9
		c6.2,0.1,12.4,0.2,18.6,0.1c2.8-0.1,3.7,0.9,3.6,3.6c-0.1,6.2,0.1,12.4,0.1,18.6c-0.1,0.7,0.2,1.1,1,0.9c6,0.1,12,0.3,18,0.1
		c3.1-0.1,4.5,0.8,4.3,4.2c-0.2,5.2,0.1,10.4-0.1,15.6c-0.1,2.7,0.8,3.8,3.6,3.7c5.2-0.2,10.4,0.1,15.6-0.1c3.4-0.2,4.3,1.1,4.2,4.3
		c-0.2,6,0.1,12,0.1,18c-0.1,0.7,0.2,1.1,1,0.9c6.2,0.1,12.4,0.3,18.6,0.2c2.8-0.1,3.6,0.9,3.6,3.7c-0.1,36.5-0.1,73,0,109.5
		c0,2.9-1.1,3.6-3.7,3.5c-5.2-0.2-10.5,0.1-15.7-0.1c-3-0.1-4.1,0.9-4,4c0.2,4.7-0.2,9.3,0.1,14c0.3,4.2-0.7,6-5.3,5.6
		c-4.6-0.4-9.3,0.1-14-0.2c-3.5-0.2-4.3,1.1-4.2,4.3c0.2,5.2,0,10.5,0.1,15.7c0.1,2.5-0.8,3.4-3.4,3.3c-5-0.1-10.1,0.2-15.1-0.1
		c-3.7-0.2-5.2,0.8-5,4.8c0.3,4.8-0.1,9.7,0.1,14.6c0.2,3.4-1.1,4.3-4.3,4.2c-5.2-0.2-10.5,0-15.7-0.1c-2.5-0.1-3.4,0.8-3.4,3.3
		c0.2,5.2-0.1,10.5,0.1,15.7c0.1,3.2-0.7,4.4-4.2,4.3c-36.1-0.1-72.3-0.1-108.4,0c-3.2,0-4.4-0.8-4.3-4.2c0.2-6,0-12-0.1-18
		c0.1-0.7-0.2-1.1-1-0.9c-6-0.1-12-0.3-18-0.1c-3.1,0.1-4.5-0.8-4.3-4.2c0.2-5.2-0.1-10.4,0.1-15.6c0.1-2.7-0.8-3.8-3.6-3.7
		c-5.2,0.2-10.4-0.1-15.6,0.1c-3.4,0.2-4.3-1.1-4.2-4.3c0.2-6-0.1-12-0.1-18C145.1,332.1,144.8,331.7,144.1,331.9z"/>
	<path class="st0" d="M145.5,99.6c-0.1,6-0.3,12-0.1,18c0.1,3.2-0.8,4.5-4.2,4.3c-5.2-0.3-10.4,0.1-15.6-0.1
		c-2.8-0.1-3.7,0.9-3.6,3.7c0.2,5.2-0.1,10.4,0.1,15.6c0.2,3.4-1.2,4.2-4.3,4.2c-6-0.1-12,0.1-18,0.1c-0.8-0.1-1.1,0.2-1,0.9
		c-0.1,6-0.3,12-0.1,18.1c0.1,3.4-1.1,4.4-4.3,4.2c-5-0.2-10.1-0.2-15.2,0c-2.9,0.1-4.1-0.6-4.1-3.8c0.1-28.6,0.1-57.1,0-85.7
		c0-3.1,1-3.9,4-3.9c28.6,0.1,57.1,0.1,85.7,0c2.6,0,3.9,0.4,3.8,3.5c-0.2,6.2,2.1,13.9-0.8,18.2c-3.2,4.7-11.4,1-17.4,1.7
		c-1.3,0.2-2.7,0.1-4.1,0.2C145.7,98.5,145.4,98.8,145.5,99.6z"/>
	<path class="st0" d="M425.2,122.3c0,13.8-0.1,27.6,0.1,41.4c0.1,3.9-1.2,5-4.9,4.8c-4.6-0.3-9.3-0.3-14,0c-3.4,0.2-4.9-0.7-4.7-4.4
		c0.3-4.6-0.2-9.3,0.2-14c0.4-4.3-1.3-5.3-5.3-5c-4.8,0.3-9.7-0.1-14.6,0.1c-2.9,0.1-3.7-1-3.6-3.7c0.2-5.2-0.1-10.5,0.1-15.7
		c0.1-3-0.8-4.2-3.9-4c-4.7,0.2-9.4-0.3-14,0.2c-4.9,0.5-5.9-1.5-5.6-5.9c0.3-4.4-0.1-8.9,0.1-13.4c0.2-3.4-1.1-4.3-4.3-4.2
		c-5.2,0.2-10.5,0-15.7,0.1c-2.5,0.1-3.4-0.8-3.4-3.3c0.1-5.6,0.1-11.3,0-16.9c-0.1-2.7,1.1-3.2,3.5-3.2c28.8,0.1,57.5,0.1,86.3,0
		c3.4,0,3.7,1.5,3.7,4.2C425.1,93.5,425.2,107.9,425.2,122.3z"/>
	<path class="st0" d="M75.2,378.3c0-14,0.1-28-0.1-42c-0.1-3.9,1.2-5,4.9-4.8c4.6,0.3,9.3,0.3,14,0c3.5-0.2,4.9,0.7,4.7,4.5
		c-0.3,4.8,0.2,9.7-0.2,14.6c-0.3,3.8,1.2,4.6,4.7,4.5c5-0.2,10.1,0.1,15.2-0.1c2.8-0.1,3.7,0.9,3.6,3.7c-0.2,5.2,0.1,10.5-0.1,15.7
		c-0.1,3,0.7,4.2,3.9,4c4.7-0.3,9.3,0.2,14-0.1c4.2-0.3,6,0.7,5.6,5.3c-0.4,4.6,0.1,9.3-0.2,14c-0.2,3.4,1.1,4.3,4.3,4.2
		c5.2-0.2,10.5,0,15.7-0.1c2.5-0.1,3.4,0.8,3.4,3.3c-0.2,5.6-0.2,11.3,0,16.9c0.1,2.7-1.1,3.2-3.5,3.2c-28.8-0.1-57.5-0.1-86.3,0.1
		c-4.1,0-3.7-2.2-3.7-4.8C75.2,406.3,75.2,392.3,75.2,378.3z"/>
	<path class="st0" d="M378.3,377.1c0.1-6,0.3-12,0.1-18c-0.1-3.4,1-4.4,4.3-4.2c5,0.2,10.1-0.1,15.1,0.1c3,0.1,4.1-0.8,4-3.9
		c-0.2-4.8,0.1-9.7-0.1-14.6c-0.2-3.5,0.6-5.4,4.7-5c6.1,0.6,14.1-2.6,17.8,1.3c3,3.1,0.9,11,1,16.8c0,23.3-0.1,46.6,0.1,69.9
		c0,4.3-1,5.5-5.4,5.5c-27.6-0.2-55.2-0.2-82.7,0c-4.5,0-5.7-1.3-5.4-5.5c0.4-4.2,0.3-8.6,0-12.8c-0.3-3.9,0.7-5.6,5-5.3
		c4.6,0.4,9.3-0.2,14,0.2c3.8,0.3,4.6-1.2,4.5-4.7c-0.3-5,0.1-10.1-0.1-15.1c-0.1-2.7,0.8-3.7,3.6-3.7c6.2,0.1,12.4-0.1,18.6-0.2
		C378.1,378.2,378.4,377.9,378.3,377.1z"/>
	<path class="st0" d="M263,28.2c6.2,0.1,12.4,0.2,18.6,0.1c2.8-0.1,3.7,0.9,3.6,3.6c-0.1,6.2,0.1,12.4,0.1,18.6
		c-0.1,0.7,0.2,1.1,1,0.9c6.2,0.1,12.4,0.3,18.6,0.2c2.8-0.1,3.7,0.9,3.6,3.7c-0.2,5.4-0.2,10.9,0,16.3c0.1,3-1.2,3.5-3.8,3.5
		c-36.3-0.1-72.6-0.1-108.9,0c-2.9,0-4.2-0.6-4.1-3.8c0.2-5.2,0.2-10.5,0-15.7c-0.1-3,0.8-4.1,3.9-4c4.8,0.2,9.7-0.2,14.6,0.1
		c3.7,0.2,5.3-0.7,5-4.7c-0.4-4.8,0.1-9.7-0.2-14.6c-0.2-3.4,1.1-4.3,4.3-4.2c5,0.2,10.1-0.1,15.1,0.1c3,0.1,4.1-0.8,4-3.9
		c-0.2-4.8,0.1-9.7-0.1-14.6c-0.2-3.6,0.6-5.3,4.7-5c6,0.4,13.8-1.9,17.5,1c3.9,3.1,0.8,11.3,1.3,17.2c0.1,1.4,0.1,2.7,0.2,4.1
		C262,28,262.3,28.3,263,28.2z"/>
	<path class="st0" d="M50.8,285.2c-6-0.1-12-0.3-18.1-0.1c-3.3,0.1-4.4-1.1-4.2-4.3c0.2-4.8-0.1-9.7,0.1-14.6
		c0.2-3.5-0.7-4.9-4.5-4.6c-4.6,0.3-9.3-0.1-14,0.2c-3.6,0.2-5.3-0.6-5-4.7c0.4-6-1.9-13.8,1-17.5c3.1-3.9,11.3-1.2,17.2-1.2
		c3.9,0,5.6-0.8,5.3-5.1c-0.4-4.6,0.2-9.3-0.2-14c-0.3-3.8,1.2-4.6,4.7-4.5c5,0.3,10.1-0.1,15.1,0.1c2.8,0.1,3.7-0.9,3.7-3.7
		c-0.2-5.2,0.1-10.5-0.1-15.7c-0.1-2.9,0.6-4.2,3.8-4.1c5,0.2,10.1,0.4,15.1,0c4.4-0.3,4.5,1.9,4.5,5.2c-0.1,21.2,0,42.4,0,63.5
		c0,14.4-0.1,28.8,0.1,43.1c0,3.6-0.6,5.3-4.7,5c-6-0.4-13.8,2-17.5-1c-3.9-3.1-0.9-11.3-1.3-17.2c-0.1-1.4-0.1-2.7-0.2-4.1
		C51.8,285.4,51.5,285.1,50.8,285.2z"/>
	<path class="st0" d="M473,238.1c6,0.1,12,0.3,18.1,0.1c3.3-0.1,4.4,1.1,4.2,4.3c-0.2,4.7-0.3,9.3,0,14c0.3,3.9-0.8,5.6-5,5.3
		c-4.8-0.4-9.7,0.1-14.6-0.1c-3.2-0.2-4,1.1-3.9,4c0.2,5.2-0.1,10.5,0.1,15.7c0.1,2.7-0.8,3.8-3.6,3.7c-5-0.2-10.1,0.1-15.1-0.1
		c-3.4-0.2-4.9,0.6-4.7,4.4c0.3,4.8-0.1,9.7,0.1,14.6c0.1,3.1-0.5,4.7-4.1,4.4c-6.3-0.6-14.6,2.7-18.4-1.3c-3.1-3.2-1-11.4-1-17.4
		c0-30.9,0.1-61.8-0.1-92.7c0-4.4,1.1-5.8,5.5-5.4c4.2,0.4,8.6,0.4,12.8,0c4.6-0.5,5.6,1.5,5.3,5.6c-0.3,4.6,0.1,9.3-0.1,14
		c-0.2,3.1,0.9,4.1,4,3.9c5-0.2,10.1,0.1,15.1-0.1c3.3-0.2,4.4,0.8,4.3,4.2c-0.2,6,0,12,0.1,18.1C471.9,237.9,472.2,238.2,473,238.1
		z"/>
	<path class="st0" d="M237.4,471.8c-6-0.1-12-0.3-18.1-0.1c-3.3,0.1-4.4-1.1-4.2-4.3c0.2-4.8-0.1-9.7,0.1-14.6
		c0.2-3.5-0.7-4.9-4.5-4.6c-4.8,0.3-9.7-0.1-14.6,0.1c-3.1,0.1-4.6-0.6-4.4-4.1c0.4-6.2-2-14.2,1-18.1c3.2-4,11.6-1.2,17.7-1.2
		c30.7-0.1,61.4,0.1,92.1-0.2c4.9,0,6.4,1.3,6,6.1c-0.4,4.2-0.3,8.6,0,12.8c0.2,3.4-0.7,4.9-4.4,4.7c-4.8-0.3-9.7,0.2-14.6-0.2
		c-3.8-0.3-4.6,1.2-4.5,4.7c0.3,5-0.1,10.1,0.1,15.1c0.1,2.8-0.8,3.8-3.6,3.7c-5-0.2-10.1,0.2-15.1-0.1c-3.5-0.2-4.9,0.7-4.6,4.4
		c0.3,4.6-0.1,9.3,0.1,14c0.2,3.6-0.6,5.3-4.7,5c-6-0.4-13.8,2-17.5-1c-3.9-3.1-0.9-11.3-1.3-17.2c-0.1-1.4-0.1-2.7-0.2-4.1
		C238.4,472,238.1,471.7,237.4,471.8z"/>
	<path class="st0" d="M263,28.2c-0.7,0.1-1.1-0.2-0.9-0.9C262.4,27.6,262.7,27.9,263,28.2z"/>
	<path class="st0" d="M286.4,51.5c-0.8,0.1-1.1-0.2-1-0.9C285.7,50.9,286,51.2,286.4,51.5z"/>
	<path class="st0" d="M145.5,99.6c-0.1-0.7,0.2-1.1,1-0.9C146.1,98.9,145.8,99.3,145.5,99.6z"/>
	<path class="st0" d="M309.7,121.5c-0.7,0.1-1.1-0.2-0.9-0.9C309.1,120.9,309.4,121.2,309.7,121.5z"/>
	<path class="st0" d="M333,144.8c-0.8,0.1-1.1-0.2-1-0.9C332.4,144.2,332.7,144.5,333,144.8z"/>
	<path class="st0" d="M98.8,146.2c-0.1-0.7,0.2-1.1,1-0.9C99.4,145.6,99.1,145.9,98.8,146.2z"/>
	<path class="st0" d="M379.7,191.4c-0.8,0.1-1.1-0.2-1-0.9C379,190.8,379.3,191.1,379.7,191.4z"/>
	<path class="st0" d="M473,238.1c-0.8,0.1-1.1-0.2-1-0.9C472.3,237.5,472.6,237.8,473,238.1z"/>
	<path class="st0" d="M50.8,285.2c0.8-0.1,1.1,0.2,1,0.9C51.4,285.8,51.1,285.5,50.8,285.2z"/>
	<path class="st0" d="M144.1,331.9c0.8-0.1,1.1,0.2,1,0.9C144.7,332.5,144.4,332.2,144.1,331.9z"/>
	<path class="st0" d="M378.3,377.1c0.1,0.7-0.2,1.1-1,0.9C377.7,377.7,378,377.4,378.3,377.1z"/>
	<path class="st0" d="M190.7,378.5c0.8-0.1,1.1,0.2,1,0.9C191.4,379.1,191.1,378.8,190.7,378.5z"/>
	<path class="st0" d="M237.4,471.8c0.8-0.1,1.1,0.2,1,0.9C238,472.4,237.7,472.1,237.4,471.8z"/>
</g>
</svg>
