<svg id="visual" viewBox="0 0 900 600" width="900" height="600" xmlns="http://www.w3.org/2000/svg" xmlns:xlink="http://www.w3.org/1999/xlink" version="1.1"><rect x="0" y="0" width="900" height="600" fill="#2b4e6e"></rect><defs><linearGradient id="grad1_0" x1="33.3%" y1="100%" x2="100%" y2="0%"><stop offset="20%" stop-color="#e37368" stop-opacity="1"></stop><stop offset="80%" stop-color="#e37368" stop-opacity="1"></stop></linearGradient></defs><defs><linearGradient id="grad1_1" x1="33.3%" y1="100%" x2="100%" y2="0%"><stop offset="20%" stop-color="#e37368" stop-opacity="1"></stop><stop offset="80%" stop-color="#cc637e" stop-opacity="1"></stop></linearGradient></defs><defs><linearGradient id="grad1_2" x1="33.3%" y1="100%" x2="100%" y2="0%"><stop offset="20%" stop-color="#a85d8c" stop-opacity="1"></stop><stop offset="80%" stop-color="#cc637e" stop-opacity="1"></stop></linearGradient></defs><defs><linearGradient id="grad1_3" x1="33.3%" y1="100%" x2="100%" y2="0%"><stop offset="20%" stop-color="#a85d8c" stop-opacity="1"></stop><stop offset="80%" stop-color="#7c5b8e" stop-opacity="1"></stop></linearGradient></defs><defs><linearGradient id="grad1_4" x1="33.3%" y1="100%" x2="100%" y2="0%"><stop offset="20%" stop-color="#505683" stop-opacity="1"></stop><stop offset="80%" stop-color="#7c5b8e" stop-opacity="1"></stop></linearGradient></defs><defs><linearGradient id="grad1_5" x1="33.3%" y1="100%" x2="100%" y2="0%"><stop offset="20%" stop-color="#505683" stop-opacity="1"></stop><stop offset="80%" stop-color="#2b4e6e" stop-opacity="1"></stop></linearGradient></defs><defs><linearGradient id="grad2_0" x1="0%" y1="100%" x2="66.7%" y2="0%"><stop offset="20%" stop-color="#e37368" stop-opacity="1"></stop><stop offset="80%" stop-color="#e37368" stop-opacity="1"></stop></linearGradient></defs><defs><linearGradient id="grad2_1" x1="0%" y1="100%" x2="66.7%" y2="0%"><stop offset="20%" stop-color="#cc637e" stop-opacity="1"></stop><stop offset="80%" stop-color="#e37368" stop-opacity="1"></stop></linearGradient></defs><defs><linearGradient id="grad2_2" x1="0%" y1="100%" x2="66.7%" y2="0%"><stop offset="20%" stop-color="#cc637e" stop-opacity="1"></stop><stop offset="80%" stop-color="#a85d8c" stop-opacity="1"></stop></linearGradient></defs><defs><linearGradient id="grad2_3" x1="0%" y1="100%" x2="66.7%" y2="0%"><stop offset="20%" stop-color="#7c5b8e" stop-opacity="1"></stop><stop offset="80%" stop-color="#a85d8c" stop-opacity="1"></stop></linearGradient></defs><defs><linearGradient id="grad2_4" x1="0%" y1="100%" x2="66.7%" y2="0%"><stop offset="20%" stop-color="#7c5b8e" stop-opacity="1"></stop><stop offset="80%" stop-color="#505683" stop-opacity="1"></stop></linearGradient></defs><defs><linearGradient id="grad2_5" x1="0%" y1="100%" x2="66.7%" y2="0%"><stop offset="20%" stop-color="#2b4e6e" stop-opacity="1"></stop><stop offset="80%" stop-color="#505683" stop-opacity="1"></stop></linearGradient></defs><g transform="translate(900, 600)"><path d="M-432.7 0C-421.1 -36.6 -409.6 -73.3 -396 -106.1C-382.4 -139 -366.8 -168 -348.1 -201C-329.5 -234 -307.9 -270.8 -267.3 -267.3C-226.7 -263.8 -167.2 -219.8 -143 -247.7C-118.8 -275.5 -129.9 -375.1 -112 -417.9C-94 -460.7 -47 -446.7 0 -432.7L0 0Z" fill="#3c537a"></path><path d="M-360.6 0C-351 -30.5 -341.3 -61.1 -330 -88.4C-318.7 -115.8 -305.7 -140 -290.1 -167.5C-274.6 -195 -256.6 -225.7 -222.7 -222.7C-188.9 -219.8 -139.3 -183.2 -119.2 -206.4C-99 -229.6 -108.3 -312.6 -93.3 -348.3C-78.4 -383.9 -39.2 -372.2 0 -360.6L0 0Z" fill="#65598a"></path><path d="M-288.4 0C-280.8 -24.4 -273.1 -48.8 -264 -70.7C-255 -92.6 -244.5 -112 -232.1 -134C-219.7 -156 -205.2 -180.5 -178.2 -178.2C-151.1 -175.8 -111.5 -146.6 -95.3 -165.1C-79.2 -183.7 -86.6 -250.1 -74.7 -278.6C-62.7 -307.1 -31.3 -297.8 0 -288.4L0 0Z" fill="#925c8f"></path><path d="M-216.3 0C-210.6 -18.3 -204.8 -36.6 -198 -53.1C-191.2 -69.5 -183.4 -84 -174.1 -100.5C-164.7 -117 -153.9 -135.4 -133.6 -133.6C-113.4 -131.9 -83.6 -109.9 -71.5 -123.8C-59.4 -137.8 -65 -187.6 -56 -209C-47 -230.4 -23.5 -223.3 0 -216.3L0 0Z" fill="#bb5f87"></path><path d="M-144.2 0C-140.4 -12.2 -136.5 -24.4 -132 -35.4C-127.5 -46.3 -122.3 -56 -116 -67C-109.8 -78 -102.6 -90.3 -89.1 -89.1C-75.6 -87.9 -55.7 -73.3 -47.7 -82.6C-39.6 -91.8 -43.3 -125 -37.3 -139.3C-31.3 -153.6 -15.7 -148.9 0 -144.2L0 0Z" fill="#d96a74"></path><path d="M-72.1 0C-70.2 -6.1 -68.3 -12.2 -66 -17.7C-63.7 -23.2 -61.1 -28 -58 -33.5C-54.9 -39 -51.3 -45.1 -44.5 -44.5C-37.8 -44 -27.9 -36.6 -23.8 -41.3C-19.8 -45.9 -21.7 -62.5 -18.7 -69.7C-15.7 -76.8 -7.8 -74.4 0 -72.1L0 0Z" fill="#e37368"></path></g><g transform="translate(0, 0)"><path d="M432.7 0C346 15.9 259.4 31.8 252.1 67.6C244.8 103.3 316.9 159 323.9 187C330.9 215 273 215.2 249.6 249.6C226.2 284.1 237.5 352.7 216.3 374.7C195.2 396.7 141.6 371.9 100.2 373.8C58.7 375.7 29.4 404.2 0 432.7L0 0Z" fill="#3c537a"></path><path d="M360.6 0C288.4 13.2 216.2 26.5 210.1 56.3C204 86.1 264 132.5 269.9 155.8C275.8 179.1 227.5 179.3 208 208C188.5 236.7 197.9 293.9 180.3 312.2C162.6 330.6 118 309.9 83.5 311.5C48.9 313.1 24.5 336.8 0 360.6L0 0Z" fill="#65598a"></path><path d="M288.4 0C230.7 10.6 172.9 21.2 168.1 45C163.2 68.9 211.2 106 215.9 124.7C220.6 143.3 182 143.4 166.4 166.4C150.8 189.4 158.3 235.2 144.2 249.8C130.1 264.4 94.4 248 66.8 249.2C39.1 250.5 19.6 269.5 0 288.4L0 0Z" fill="#925c8f"></path><path d="M216.3 0C173 7.9 129.7 15.9 126.1 33.8C122.4 51.7 158.4 79.5 161.9 93.5C165.5 107.5 136.5 107.6 124.8 124.8C113.1 142 118.7 176.4 108.2 187.3C97.6 198.3 70.8 186 50.1 186.9C29.4 187.8 14.7 202.1 0 216.3L0 0Z" fill="#bb5f87"></path><path d="M144.2 0C115.3 5.3 86.5 10.6 84 22.5C81.6 34.4 105.6 53 108 62.3C110.3 71.7 91 71.7 83.2 83.2C75.4 94.7 79.2 117.6 72.1 124.9C65.1 132.2 47.2 124 33.4 124.6C19.6 125.2 9.8 134.7 0 144.2L0 0Z" fill="#d96a74"></path><path d="M72.1 0C57.7 2.6 43.2 5.3 42 11.3C40.8 17.2 52.8 26.5 54 31.2C55.2 35.8 45.5 35.9 41.6 41.6C37.7 47.3 39.6 58.8 36.1 62.4C32.5 66.1 23.6 62 16.7 62.3C9.8 62.6 4.9 67.4 0 72.1L0 0Z" fill="#e37368"></path></g></svg>