<svg fill="#000000" xmlns="http://www.w3.org/2000/svg"  viewBox="0 0 50 50" width="150px" height="150px"><path d="M 26 0 C 25.878906 0.00390625 25.757813 0.0273438 25.640625 0.0703125 C 24.722656 0.160156 23.875 0.515625 23.285156 1.140625 C 22.613281 1.847656 22.222656 2.777344 22.019531 3.804688 C 22.015625 3.820313 22.015625 3.832031 22.011719 3.84375 L 19.679688 18.617188 L 15.953125 6.703125 L 15.96875 6.75 C 15.671875 5.621094 15.199219 4.699219 14.515625 4.039063 C 13.832031 3.378906 12.9375 3.015625 12.015625 3 C 12.011719 3 12.003906 3 12 3 L 11.578125 3 C 10.566406 2.988281 9.523438 3.308594 8.800781 4.105469 C 8.078125 4.902344 7.789063 6.109375 8.039063 7.46875 C 8.039063 7.492188 8.046875 7.515625 8.050781 7.539063 L 12.851563 26.542969 C 12.722656 26.605469 12.605469 26.648438 12.472656 26.726563 C 11.140625 27.523438 9.679688 29.101563 9.210938 31.769531 C 8.871094 33.703125 9.25 35.558594 9.515625 36.453125 L 9.515625 36.457031 C 9.519531 36.457031 9.515625 36.460938 9.515625 36.460938 L 12.0625 45.253906 C 12.988281 48.460938 16.398438 50 19.480469 50 L 32 50 C 36.957031 50 41 45.957031 41 41 L 41 30 C 41 26.207031 39.414063 23.402344 39 22.730469 L 39 20 C 39 17.800781 37.199219 16 35 16 C 34.253906 16 33.558594 16.21875 32.957031 16.582031 C 32.757813 14.710938 31.242188 13.25 29.359375 13.074219 C 29.277344 13.039063 29.191406 13.019531 29.105469 13.007813 L 29.996094 4.101563 C 29.996094 4.066406 30 4.035156 30 4 C 30 2.777344 29.558594 1.710938 28.796875 1.015625 C 28.039063 0.316406 27.03125 0 26 0 Z M 26 2 C 26.628906 2 27.117188 2.183594 27.441406 2.484375 C 27.769531 2.785156 27.992188 3.222656 27.996094 3.992188 L 27.042969 13.535156 C 25.832031 14.226563 25 15.515625 25 17 L 25 24.546875 L 15.078125 25.828125 C 15.078125 25.828125 14.9375 25.847656 14.746094 25.878906 L 10.003906 7.105469 C 9.839844 6.183594 10.027344 5.730469 10.28125 5.453125 C 10.539063 5.167969 10.976563 4.992188 11.546875 5 C 11.554688 5 11.558594 5 11.5625 5 L 11.984375 5 C 12.4375 5.007813 12.78125 5.144531 13.125 5.476563 C 13.46875 5.808594 13.804688 6.378906 14.03125 7.25 C 14.035156 7.269531 14.039063 7.285156 14.046875 7.296875 L 19.046875 23.296875 C 19.046875 23.308594 19.050781 23.320313 19.058594 23.332031 C 19.058594 23.335938 19.058594 23.34375 19.0625 23.347656 C 19.070313 23.367188 19.078125 23.386719 19.085938 23.40625 C 19.09375 23.425781 19.105469 23.449219 19.117188 23.46875 C 19.117188 23.472656 19.121094 23.476563 19.125 23.484375 C 19.132813 23.503906 19.148438 23.523438 19.160156 23.546875 C 19.171875 23.558594 19.183594 23.574219 19.191406 23.589844 C 19.199219 23.597656 19.207031 23.605469 19.214844 23.613281 C 19.226563 23.632813 19.238281 23.648438 19.25 23.660156 C 19.261719 23.671875 19.269531 23.683594 19.28125 23.695313 C 19.289063 23.703125 19.296875 23.710938 19.304688 23.71875 C 19.351563 23.765625 19.40625 23.808594 19.460938 23.84375 C 19.460938 23.84375 19.460938 23.84375 19.464844 23.84375 C 19.488281 23.859375 19.511719 23.871094 19.535156 23.886719 C 19.546875 23.890625 19.554688 23.894531 19.566406 23.902344 C 19.582031 23.90625 19.59375 23.914063 19.609375 23.921875 C 19.625 23.925781 19.640625 23.933594 19.65625 23.9375 C 19.675781 23.945313 19.695313 23.953125 19.714844 23.957031 C 19.726563 23.960938 19.738281 23.964844 19.75 23.96875 C 19.769531 23.972656 19.789063 23.976563 19.8125 23.980469 C 19.824219 23.984375 19.835938 23.984375 19.851563 23.988281 C 19.867188 23.992188 19.882813 23.992188 19.902344 23.996094 C 19.917969 23.996094 19.933594 23.996094 19.953125 24 C 19.96875 24 19.984375 24 20 24 C 20.019531 24 20.035156 24 20.050781 24 C 20.070313 23.996094 20.085938 23.996094 20.101563 23.996094 C 20.117188 23.992188 20.136719 23.992188 20.152344 23.988281 C 20.164063 23.988281 20.179688 23.984375 20.191406 23.984375 C 20.21875 23.976563 20.242188 23.96875 20.269531 23.964844 C 20.289063 23.957031 20.308594 23.953125 20.328125 23.945313 C 20.339844 23.941406 20.351563 23.9375 20.363281 23.933594 C 20.371094 23.929688 20.375 23.925781 20.382813 23.921875 C 20.40625 23.914063 20.429688 23.902344 20.453125 23.890625 C 20.472656 23.882813 20.492188 23.871094 20.507813 23.859375 C 20.511719 23.859375 20.511719 23.859375 20.515625 23.855469 C 20.542969 23.839844 20.566406 23.824219 20.59375 23.808594 C 20.601563 23.800781 20.613281 23.792969 20.625 23.78125 C 20.640625 23.769531 20.65625 23.757813 20.671875 23.746094 C 20.679688 23.734375 20.691406 23.726563 20.699219 23.71875 C 20.703125 23.710938 20.710938 23.707031 20.714844 23.699219 C 20.730469 23.683594 20.746094 23.664063 20.761719 23.644531 C 20.777344 23.628906 20.789063 23.613281 20.800781 23.59375 C 20.804688 23.59375 20.808594 23.589844 20.808594 23.585938 C 20.820313 23.570313 20.832031 23.554688 20.84375 23.542969 C 20.855469 23.519531 20.867188 23.5 20.878906 23.480469 C 20.886719 23.460938 20.898438 23.441406 20.90625 23.421875 C 20.910156 23.417969 20.910156 23.414063 20.910156 23.40625 C 20.921875 23.382813 20.933594 23.359375 20.941406 23.332031 C 20.945313 23.332031 20.945313 23.328125 20.945313 23.328125 C 20.953125 23.304688 20.960938 23.28125 20.964844 23.261719 C 20.972656 23.238281 20.976563 23.21875 20.980469 23.199219 C 20.984375 23.183594 20.984375 23.171875 20.988281 23.15625 L 23.984375 4.1875 C 24.136719 3.425781 24.410156 2.859375 24.734375 2.515625 C 25.0625 2.171875 25.414063 2 26 2 Z M 29 15 C 30.117188 15 31 15.882813 31 17 L 31 25.984375 C 30.0625 24.792969 28.558594 24.132813 27 24.292969 L 27 17 C 27 15.882813 27.882813 15 29 15 Z M 35 18 C 36.117188 18 37 18.882813 37 20 L 37 22.871094 C 36.992188 22.949219 36.992188 23.023438 37 23.101563 L 37 27 C 37 28.117188 36.117188 29 35 29 C 33.882813 29 33 28.117188 33 27 L 33 20 C 33 18.882813 33.882813 18 35 18 Z M 27.390625 26.246094 C 28.558594 26.207031 29.613281 26.980469 29.894531 28.167969 C 30.070313 28.902344 29.988281 29.464844 29.699219 29.953125 C 29.410156 30.433594 28.867188 30.882813 27.953125 31.203125 L 19.222656 33.460938 C 18.925781 33.539063 18.679688 33.75 18.558594 34.03125 C 18.433594 34.3125 18.449219 34.636719 18.597656 34.90625 L 20.191406 37.832031 C 20.359375 38.152344 20.6875 38.359375 21.046875 38.371094 C 21.410156 38.382813 21.75 38.199219 21.9375 37.886719 C 22.125 37.578125 22.128906 37.1875 21.949219 36.875 L 20.96875 35.074219 L 21.199219 35.015625 C 21.703125 35.289063 25.164063 37.324219 26.011719 42.171875 C 26.105469 42.714844 26.621094 43.082031 27.167969 42.984375 C 27.710938 42.890625 28.074219 42.371094 27.980469 41.828125 C 27.328125 38.085938 25.230469 35.6875 23.683594 34.371094 L 28.527344 33.121094 C 28.554688 33.113281 28.578125 33.105469 28.605469 33.09375 C 29.855469 32.660156 30.835938 31.941406 31.414063 30.976563 C 31.6875 30.519531 31.851563 30.019531 31.925781 29.496094 C 32.59375 30.285156 33.554688 30.824219 34.640625 30.925781 C 34.757813 30.972656 34.878906 30.996094 35 31 C 35.125 30.996094 35.246094 30.972656 35.359375 30.925781 C 37.007813 30.769531 38.371094 29.628906 38.824219 28.09375 C 38.925781 28.699219 39 29.328125 39 30 L 39 41 C 39 44.878906 35.878906 48 32 48 L 19.480469 48 C 17.078125 48 14.578125 46.757813 13.984375 44.699219 L 11.4375 35.894531 C 11.4375 35.894531 11.433594 35.890625 11.433594 35.890625 C 11.253906 35.285156 10.929688 33.546875 11.183594 32.113281 C 11.554688 29.984375 12.566406 29.003906 13.5 28.441406 C 14.4375 27.882813 15.230469 27.824219 15.230469 27.824219 C 15.246094 27.824219 15.261719 27.820313 15.28125 27.820313 L 26.78125 26.332031 C 26.816406 26.328125 26.851563 26.320313 26.886719 26.3125 C 27.054688 26.273438 27.222656 26.25 27.390625 26.246094 Z"/></svg>