<?xml version="1.0" encoding="utf-8"?>
<!-- Generator: Adobe Illustrator 24.1.0, SVG Export Plug-In . SVG Version: 6.00 Build 0)  -->
<svg version="1.1" id="Ebene_1" xmlns="http://www.w3.org/2000/svg" xmlns:xlink="http://www.w3.org/1999/xlink" x="0px" y="0px"
	 viewBox="0 0 99.2 99.2" style="enable-background:new 0 0 99.2 99.2;" xml:space="preserve">
<g transform="matrix( 1, 0, 0, 1, 0,0) ">
	<g>
		<g id="a">
			<path d="M38.6,8.1c-0.7-0.5-1.5-0.8-2.4-0.8c-0.8,0-1.6,0.5-2.1,1.1L1.4,47.7l-0.2,0.2C1.2,48,1,48.1,1,48.3l-0.2,0.2l-0.2,1.3
				L1,51.1c0,0,0.2,0.2,0.2,0.3l32.9,39.4c0.3,0.5,0.8,0.8,1.3,1c0.7,0.2,1.1,0.2,1.6,0.2c0.7-0.2,1.1-0.3,1.6-0.8
				c0.5-0.3,0.8-0.8,1-1.3c0.3-0.5,0.3-1.1,0.2-1.8c-0.2-0.5-0.3-1.1-0.8-1.5L10.8,53h84.4c1,0,1.6-0.3,2.3-1c0.7-0.7,1-1.3,1-2.3
				c0-1-0.3-1.6-1-2.4c-0.7-0.7-1.3-0.8-2.3-0.8H10.8l28.1-33.8c0.5-0.7,0.8-1.5,0.8-2.3C39.6,9.4,39.1,8.6,38.6,8.1z"/>
		</g>
	</g>
</g>
</svg>
