<?xml version="1.0" encoding="utf-8"?>
<!-- Generator: Adobe Illustrator 23.1.1, SVG Export Plug-In . SVG Version: 6.00 Build 0)  -->
<svg version="1.1" id="Ebene_1" xmlns="http://www.w3.org/2000/svg" xmlns:xlink="http://www.w3.org/1999/xlink" x="0px" y="0px"
	 viewBox="0 0 1000 440.94" style="enable-background:new 0 0 1000 440.94;" xml:space="preserve">
<path d="M381.54,168.83c0.82,8.17,3.1,13.39,6.7,15.52c1.96,1.14,4.25,1.8,4.25,1.8c3.1,0.82,6.04,0.33,7.84-0.16
	c5.72-1.31,9.15-4.9,10.29-6.37c0,0,3.27-3.76,6.53-10.94c0.16-0.33,0.82-1.63,1.8-3.59c0.33-0.65,0.65-1.31,0.98-2.12
	c1.63-3.43,1.96-3.76,3.43-7.51c3.92-9.64,6.37-15.52,6.21-22.38c0-2.45-0.49-9.8-5.06-13.56c-3.1-2.61-6.86-2.61-9.64-2.61
	c-3.43,0-6.53,0.82-8.82,1.47c-0.98,0.33-1.63,0.49-2.45,0.82c-2.12,0.98-4.41,2.45-6.53,4.57c-2.94,2.94-5.55,6.7-7.84,11.27
	c-2.29,4.57-4.08,9.8-5.55,15.52C382.35,155.93,381.7,162.14,381.54,168.83z"/>
<path d="M690.74,111.5c1.96,1.14,4.25,1.8,4.25,1.8c3.1,0.82,6.04,0.33,7.84-0.16c5.72-1.31,9.15-4.9,10.29-6.37
	c0,0,3.27-3.76,6.53-10.94c0.16-0.33,0.82-1.63,1.8-3.59c0.33-0.65,0.65-1.31,0.98-2.12c1.63-3.43,1.96-3.76,3.43-7.51
	c3.92-9.64,6.37-15.52,6.21-22.38c0-2.45-0.49-9.64-5.06-13.56c-3.1-2.61-6.86-2.61-9.64-2.61c-3.43,0-6.53,0.82-8.82,1.47
	c-0.98,0.33-1.63,0.49-2.45,0.82c-2.12,0.98-4.41,2.45-6.53,4.57c-2.94,2.94-5.55,6.7-7.84,11.27c-2.29,4.57-4.08,9.8-5.55,15.52
	c-1.47,5.72-2.12,11.92-2.12,18.62C684.86,104.15,687.15,109.38,690.74,111.5z"/>
<path d="M934.94,81.28c-4.25,2.94-8.66,6.53-12.9,10.78c-4.25,4.25-8.66,8.98-12.74,14.21c-4.25,5.23-8.17,10.78-11.76,16.17
	c0.65-3.1,1.8-6.37,3.1-9.96c1.47-3.59,2.78-6.86,4.08-9.96c1.31-3.1,2.45-5.88,3.43-8.33c0.98-2.45,1.47-4.08,1.31-5.06
	c-0.16-2.12-1.14-3.92-2.78-5.23c-1.63-1.31-3.76-2.29-6.21-2.78c-2.45-0.49-5.23-0.65-8.17-0.49c-2.94,0.16-5.72,0.65-8,1.14
	c-2.94,0.65-6.21,3.43-9.47,8.17s-6.53,10.78-9.96,17.97c-3.27,7.35-6.53,15.52-9.47,24.83c-2.94,9.31-5.72,18.95-8.17,28.75
	c-0.98,3.92-1.96,8-2.78,11.92c-1.14,1.8-2.45,3.43-3.59,5.06c-3.1,4.41-6.86,7.19-11.11,8.17c-2.94,0.65-5.55,0-7.68-2.29
	c3.1-7.35,5.23-15.68,6.53-24.99c1.31-9.31,1.47-17.8,0.33-25.48s-3.76-13.88-8-18.46c-4.25-4.57-10.45-5.88-18.95-3.92
	c-2.78,0.65-6.04,2.12-9.8,4.25c-4.08-2.45-8.82-3.1-14.05-1.8c-8.82,2.12-17.8,7.51-26.62,16.33
	c-8.98,8.82-16.99,19.27-24.34,31.53c-7.19,12.25-13.07,25.32-17.48,39.04c-3.76,11.76-5.55,22.87-5.88,33.65
	c-2.12,2.94-4.41,5.72-6.53,8.49c-6.37,8-11.6,12.58-15.84,13.56c-3.43,0.82-5.23-0.82-5.23-4.74c1.14-8.17,2.94-16.17,5.23-24.17
	c2.29-8,4.41-15.03,6.37-21.23c2.29-7.19,4.25-13.23,6.04-18.46c1.8-5.06,3.59-9.8,5.06-14.21c1.47-4.41,2.61-8.66,3.59-12.58
	c0.82-3.92,1.47-8.33,1.63-13.07c-0.16-2.12-0.82-4.41-2.12-6.53c-1.14-2.12-3.59-3.43-7.35-3.76c-3.76-0.33-8.17,0.49-13.56,2.45
	c-5.39,2.29-10.13,6.53-14.37,12.74c-4.25,6.37-8.17,13.72-11.6,22.21c-3.43,8.49-6.37,17.8-8.82,27.77
	c-0.82,3.43-1.47,5.88-1.96,8.33c-1.96,8.66-2.94,16.66-4.41,23.03c-1.47,6.37-4.74,11.76-5.39,13.23
	c-1.14,2.45-10.94,16.17-15.68,20.74c-4.74,4.57-8.82,7.19-12.25,8c-2.94,0.65-5.39,0.65-7.35-0.33c-1.96-0.82-2.94-2.94-2.94-6.04
	c-0.16-0.98-0.16-1.96-0.16-3.1c0-1.14,2.94-14.7,4.57-21.72c1.63-6.86,3.59-14.21,5.72-22.21c2.12-7.84,4.57-16.01,7.35-24.5
	c2.61-8.49,5.39-16.99,8.33-25.48c1.96-0.65,4.25-1.31,6.53-1.96c2.29-0.49,4.41-1.14,6.53-1.96c2.78-0.98,5.88-2.29,9.15-4.08
	c3.27-1.8,6.37-3.92,8.98-6.53c2.78-2.61,4.9-5.72,6.7-9.47c1.8-3.76,2.61-8,2.45-12.9c-0.65-1.8-1.8-3.76-3.43-6.04
	c-1.63-2.12-3.59-2.94-5.88-2.45l-14.7,3.59c2.78-6.37,5.39-11.76,8-16.66c2.61-4.74,5.06-9.31,7.51-13.56
	c0.82-1.31,2.29-3.76,3.1-7.02c0-0.33,0.82-2.94,0.82-5.72c0.16-5.88-3.1-9.15-5.39-11.43c-1.8-1.8-5.55-5.55-12.09-6.04
	c-1.63-0.16-12.09-0.82-22.21,8.98c-5.06,4.9-8,10.45-11.43,17.31c-5.23,10.78-12.25,26.62-19.11,47.04
	c-7.84,1.8-14.05,4.25-18.78,7.19c-4.74,2.94-6.86,8.17-6.53,15.68c0,4.08,1.47,7.19,4.25,9.15c2.94,1.96,6.37,3.1,10.78,3.59
	c-2.78,10.29-5.23,20.25-7.51,30.06c-2.29,9.8-4.25,19.11-5.88,27.77c-0.65,3.27-1.31,6.37-1.8,9.47c0,0.16-0.16,0.16-0.16,0.33
	l-8,12.9c-6.21,9.31-11.92,17.15-16.99,23.52c-5.23,6.37-9.96,10.13-14.37,11.11c-4.25,0.98-6.21-0.65-6.04-4.74
	c1.47-7.68,3.43-15.68,5.72-23.85c7.68-27.77,13.23-48.68,16.82-62.56s5.55-22.38,6.04-25.64c-0.49-2.78-1.8-5.23-3.76-7.19
	c-1.96-1.96-4.25-3.43-7.02-4.57c-2.61-1.14-5.55-1.8-8.66-1.96c-3.1-0.16-6.04,0-8.66,0.65c-1.63,0.33-3.43,1.31-5.23,2.78
	c-1.96,1.47-3.1,2.94-3.59,4.57l-3.59,10.78c-1.47-0.33-3.27-0.65-5.06-0.82c-1.8-0.16-3.92,0-6.04,0.49
	c-8.98,2.12-18.78,8.17-29.24,17.8c-10.45,9.8-20.09,21.23-28.91,34.63c-8.82,13.39-16.17,27.6-21.89,42.63
	c-2.94,7.68-5.06,15.03-6.37,22.05c-4.08,5.72-8.17,11.11-12.09,16.01c-6.37,8-11.6,12.58-15.84,13.56
	c-3.43,0.82-5.23-0.82-5.23-4.74c1.14-8.17,2.94-16.17,5.23-24.17c2.29-8,4.41-15.03,6.37-21.23c2.29-7.19,4.25-13.23,6.04-18.46
	c1.8-5.06,3.43-9.8,5.06-14.21c1.47-4.41,2.61-8.66,3.59-12.58c0.82-3.92,1.47-8.33,1.63-13.07c-0.16-2.12-0.82-4.41-2.12-6.53
	c-1.14-2.12-3.59-3.43-7.35-3.76c-3.76-0.33-8.17,0.49-13.56,2.45c-5.39,2.29-10.13,6.53-14.37,12.74
	c-4.25,6.37-8.17,13.72-11.6,22.21c-3.43,8.49-6.37,17.8-8.82,27.77c-2.45,9.96-4.57,19.6-6.04,28.91
	c-0.16,0.98-0.33,1.96-0.49,2.78c-9.8,15.84-17.8,26.79-24.01,33c-6.21,6.37-11.11,9.96-14.54,10.78c-3.76,0.98-5.55-0.65-5.23-4.57
	c-0.33-3.76,0.98-9.8,3.76-17.64c2.78-7.84,5.88-16.33,9.15-25.48c3.27-8.98,6.37-18.13,9.15-27.11c2.78-8.98,4.08-16.66,3.76-23.03
	c0-1.96-0.65-3.92-1.8-5.72c-1.14-1.96-2.61-3.59-4.41-5.06c-1.8-1.47-3.76-2.45-6.04-2.94c-2.29-0.49-4.41-0.49-6.53,0
	c-1.8,0.49-4.41,1.8-7.68,4.25s-6.53,3.92-9.64,4.74c-1.8,0.49-3.92,0.82-6.21,1.14c-2.29,0.33-4.57,0.49-6.7,0.33
	c-2.12-0.16-4.08-0.33-6.04-0.98c-1.8-0.49-3.27-1.31-4.41-2.29c0.82-3.43,2.29-6.86,4.08-10.29c1.8-3.43,3.76-6.7,5.72-9.64
	c1.96-3.1,3.59-5.88,5.06-8.33c1.47-2.61,2.12-4.74,1.96-6.37c-0.16-2.61-1.63-4.74-4.57-6.37s-6.04-2.61-9.31-3.1
	c-3.1-0.49-6.21-0.65-9.31-0.65c-3.1,0-5.88,0.33-8,0.82c-3.1,0.98-6.04,3.1-9.15,6.04c-3.1,3.1-5.72,7.02-8.17,11.76
	c-2.45,4.74-4.41,10.29-5.88,16.5c-3.59,17.31-1.31,26.79,0.65,29.89c1.96,3.1,3.59,5.23,5.23,6.7
	c-2.12,15.68-6.21,30.22-11.92,43.29c-5.72,13.23-12.41,26.46-19.93,39.86c-0.98,1.47-1.8,2.94-2.45,4.57s-1.14,2.78-1.14,3.59
	c-0.16,0.49-1.14,4.08,0.49,6.53c1.31,2.12,3.43,1.96,3.76,1.96c1.31,0,2.94-0.82,4.9-1.96c3.27-2.29,7.19-6.7,11.43-13.23
	s8.66-14.21,12.9-23.03c4.25-8.82,8.49-18.13,12.41-27.77c3.92-9.8,7.02-18.95,9.31-27.28c1.8,0.33,4.08,0.16,7.19-0.65
	c2.94-0.82,6.04-1.31,8.98-1.63c2.94-0.33,5.55-0.16,7.68,0.33c2.12,0.65,3.27,2.45,3.27,5.55c0.49,4.74-0.49,10.78-3.1,18.29
	c-2.61,7.35-5.55,15.19-8.98,23.19c-3.43,8-6.37,16.17-9.15,24.17c-2.78,8-4.08,15.03-3.76,21.07
	c1.96,16.99,11.92,23.19,29.57,18.78c6.21-1.47,13.23-5.39,20.91-11.6c7.68-6.21,15.03-13.39,21.89-21.56
	c3.92-4.74,7.51-9.47,10.94-14.37c0,2.61-0.16,5.06,0,7.02c0.33,9.47,2.12,16.01,5.39,19.6s9.47,4.41,18.46,2.12
	c6.04-1.47,12.9-5.23,20.58-11.6c7.68-6.21,15.19-13.39,22.21-21.56c2.12-2.45,4.08-4.9,6.04-7.35c1.63,7.68,4.74,13.23,9.15,16.66
	c6.53,4.9,14.7,6.21,24.5,3.92c5.88-1.96,12.41-5.88,19.6-12.09c7.19-6.21,13.72-14.54,19.44-25.32c0.65,9.96,3.27,16.17,7.84,18.78
	s10.78,2.94,18.62,1.14c5.88-1.31,12.58-5.39,20.25-12.25c7.68-6.7,14.86-14.37,21.72-23.03c2.94-3.76,5.72-7.68,8.33-11.43
	c0.16,2.29,0.33,4.57,0.49,7.02c1.63,8.17,4.9,14.21,9.96,18.29c5.06,3.92,10.62,5.23,16.82,3.76c4.41-0.98,8.98-2.94,13.88-5.72
	s9.64-6.04,14.54-10.13c4.74-3.92,9.31-8.33,13.72-13.23c0,0,3.76-4.08,9.96-12.25c0,0.82,0,1.47,0.16,2.29
	c0.82,8.17,1.47,14.86,5.72,19.11c5.55,5.39,13.72,3.43,18.46,2.12c6.04-1.47,12.9-5.23,20.58-11.6
	c7.68-6.21,15.19-13.39,22.21-21.56c1.63-1.96,3.27-3.92,4.9-5.88c2.12,4.57,4.74,8.33,8.17,11.43c3.76,3.43,8,5.72,13.07,7.19
	c4.9,1.31,10.45,1.31,16.5,0c7.02-1.63,13.88-4.9,20.58-9.8c6.7-4.74,12.9-10.29,18.78-16.66c5.72-6.21,11.11-13.07,15.68-20.42
	c4.74-7.35,8.82-14.37,12.09-21.07c2.45,1.47,4.9,2.12,7.68,2.29c2.61,0.16,5.23-0.16,7.84-0.82c3.59-0.82,7.19-2.61,10.62-4.9
	c-0.49,4.25-0.82,8.33-0.98,12.09v-0.33c-0.16,4.25-0.16,8,0.16,11.43c0.33,3.43,0.82,6.37,1.47,8.82
	c0.82,2.61,2.78,8.66,8.17,11.27c2.45,1.14,4.74,1.14,6.7,1.14c0,0,7.68,0,13.72-5.06c0.65-0.49,1.47-1.31,2.12-2.29
	c1.14-1.63,1.96-3.76,2.29-6.37c0.82-6.86,2.29-15.52,4.57-25.97c2.29-10.45,5.06-21.07,8.66-31.69
	c3.59-10.62,7.84-20.42,12.74-29.57c4.9-8.98,10.62-15.68,17.15-19.93c3.59-2.29,6.7-3.43,9.47-3.43c0,3.43-1.31,8.82-3.92,16.17
	c-2.78,7.35-5.72,15.35-8.82,24.01c-3.1,8.66-6.04,17.31-8.82,26.13c-2.61,8.82-3.92,16.5-3.76,22.7c0.49,8,3.27,13.56,8.49,16.5
	c5.23,3.1,12.09,3.59,20.42,1.47c6.21-1.47,13.23-5.23,21.23-11.27c8-6.04,15.52-13.07,22.54-21.07c7.19-8,13.23-16.01,18.29-24.17
	c5.06-8.17,8-15.19,8.66-21.07c-0.16-1.96-0.49-4.08-1.14-6.04c-0.16-0.65-0.49-1.47-0.82-2.12c-0.49-1.14-0.98-1.96-1.8-2.61
	c-0.98-0.82-2.29-1.14-3.92-0.65c-0.16,0-0.33,0.16-0.65,0.16c-0.65,0.33-1.14,0.82-1.63,1.47c-0.65,0.82-1.14,1.47-1.31,1.8
	l-8.33,13.72c-5.39,9.15-11.11,16.82-17.15,23.03c-6.04,6.21-10.94,9.8-14.86,10.78c-3.59,0.82-5.39-0.82-5.39-4.9
	c-0.16-5.39,1.47-12.58,4.41-21.56c3.1-8.98,6.53-18.29,10.45-28.09c3.76-9.8,7.35-19.11,10.62-28.26
	c3.27-9.15,4.74-16.66,4.74-22.38c0-3.59-0.98-6.7-2.61-8.98c-1.63-2.29-3.76-4.08-6.37-5.23c-2.61-1.31-5.39-1.96-8.33-2.29
	c-2.94-0.33-6.04,0-8.98,0.65C943.27,76.38,939.19,78.34,934.94,81.28z M493.1,237.11c-2.61,9.8-5.06,19.76-7.68,29.89
	c-1.47,4.74-2.78,9.31-4.08,13.72c-1.31,4.41-2.78,8.33-4.57,11.76c-1.8,3.43-4.08,6.53-6.7,8.98s-6.21,4.41-10.45,5.55
	c-2.94,0.65-5.39,0.33-7.02-1.14s-2.45-4.57-2.61-9.47c0-5.88,1.14-13.23,3.59-22.21c2.45-8.98,5.72-17.97,9.8-26.95
	c4.08-9.15,8.82-17.31,14.05-24.66c5.23-7.35,10.78-12.58,16.33-15.35c3.59-1.31,5.88-1.31,6.7,0.16
	C498.16,217.51,495.55,227.31,493.1,237.11z M787.11,200.03c-1.96,6.7-4.41,12.9-7.51,18.62c-2.94,5.72-6.37,10.78-10.29,15.03
	c-3.76,4.25-7.84,7.02-12.09,8.17c-2.45,0.65-4.57,0.33-6.21-0.98c-1.8-1.14-3.1-2.78-4.08-5.06c-0.98-2.29-1.8-4.74-2.29-7.84
	c-0.49-2.94-0.82-6.04-0.98-9.15c-0.16-6.37,0.82-13.39,2.94-20.91c2.12-7.68,4.9-15.03,8.33-22.38
	c3.43-7.35,7.35-14.05,11.92-20.25c4.57-6.21,8.98-10.94,13.72-14.37c-0.33,0.82-0.49,1.8-0.82,2.94c-0.33,1.14-0.49,2.29-0.33,3.59
	c0,3.43,0.49,6.86,1.14,10.29c0.65,3.43,1.63,6.53,2.61,9.47c1.14,2.94,2.29,5.55,3.76,8c1.31,2.45,2.61,4.08,3.92,5.39
	C790.38,186.8,789.07,193.33,787.11,200.03z"/>
<path d="M81.8,436.88c2.78-0.65,5.72-1.47,8.49-2.45c10.62-3.1,21.23-8.17,32.18-15.03c10.78-6.86,21.07-15.68,30.71-26.3
	c9.64-10.62,18.46-23.03,26.13-37.24c7.68-14.37,13.56-30.55,17.64-49c0,0,9.47-44.59,14.21-67.62
	c4.74-22.87,10.45-46.72,16.82-71.22c4.08-14.7,7.68-26.79,11.11-36.59c3.43-9.8,6.37-18.29,8.98-25.64
	c12.9,0.82,25.32,1.14,37.41,0.82c11.92-0.16,24.01-1.47,35.77-3.76c3.1-0.49,6.21-1.14,9.31-2.29c2.94-0.98,6.04-2.12,8.98-3.43
	c13.88-5.23,25.48-13.39,34.63-24.34c9.15-10.94,14.54-24.17,15.84-39.86c0-2.45-0.33-5.72-0.98-9.64s-1.96-7.51-4.08-10.78
	c-3.27-5.23-7.68-6.7-9.15-7.19c-9.47-3.43-20.25,2.29-30.38,7.68c-5.06,2.78-2.61,1.8-14.54,9.15l0,0
	c-2.94,1.8-18.29,11.92-28.42,15.52c-31.36,10.94-116.95,5.06-116.95,5.06c-1.47-0.16-4.41-0.33-8.33-0.33
	c-5.23,0-20.42,0.16-36.43,3.92c-17.8,4.25-34.3,12.41-49.49,24.34c-15.03,11.92-28.09,25.64-39.2,41.49
	C40.97,128,32.31,144.98,26.1,163.12c-6.21,18.13-9.47,35.61-9.64,52.43c-0.16,5.06,0.33,11.6,1.96,19.6
	c1.47,8,4.08,15.68,7.51,23.19c3.59,7.68,7.02,14.37,14.21,19.11c8,5.23,16.66,5.23,22.87,4.25c1.31-0.16,11.6-2.12,19.11-13.39
	c7.68-11.43,8.66-27.11,2.61-35.61c-3.27-4.57-8.33-6.53-13.88-5.88c-4.41,0.49-9.31,2.78-13.88,6.7c-2.78-3.27-5.39-7.51-7.51-12.9
	c-2.12-5.39-3.43-11.6-3.59-18.78c-0.49-12.41,1.47-23.68,5.55-33.65c4.08-9.96,9.96-18.78,17.31-26.46
	c7.35-7.68,16.17-14.05,26.3-19.27c10.13-5.23,20.74-9.31,32.02-11.92c9.47-2.29,19.27-3.92,29.57-5.06
	c10.29-1.14,21.56-1.47,33.49-0.98c-5.39,15.03-10.13,32.34-14.21,52.27c-4.08,19.76-8,40.35-11.76,61.25
	c-3.76,21.07-7.84,41.82-12.09,62.4c-4.25,20.58-9.31,39.37-15.35,56.35c-6.04,16.99-13.23,31.2-21.72,42.96
	c-8.49,11.76-18.78,18.95-30.87,21.89c-7.19,1.63-13.23,1.96-18.46,0.82c-5.23-1.14-9.47-3.1-13.07-5.88
	c-3.59-2.78-6.37-6.04-8.49-9.96c-2.12-3.76-3.76-7.51-4.74-11.27c1.8-1.47,9.64-8,13.23-18.95c4.57-14.21-0.98-27.11-8.98-29.89
	c-1.96-0.65-3.59-0.65-5.88-0.49c-1.8,0.16-13.23,0.65-22.7,10.13c-14.37,14.21-14.7,39.37-14.7,40.51
	c0,14.21,6.21,25.97,8.82,30.71c1.14,2.29,6.7,12.41,17.15,19.76c6.86,4.74,14.37,7.84,22.7,9.47c8.33,1.47,16.33,1.96,24.34,1.14
	C76.08,438.02,78.86,437.53,81.8,436.88z"/>
</svg>
