<?xml version="1.0" encoding="utf-8"?>
<!-- Generator: Adobe Illustrator 24.1.0, SVG Export Plug-In . SVG Version: 6.00 Build 0)  -->
<svg version="1.1" id="Ebene_1" xmlns="http://www.w3.org/2000/svg" xmlns:xlink="http://www.w3.org/1999/xlink" x="0px" y="0px"
	 viewBox="0 0 100 125" style="enable-background:new 0 0 100 125;" xml:space="preserve">
<path d="M53.4,92l-3.3-3.4c7.9-7.8,12.2-18.3,12.2-29.4c0-11-4.3-21.4-12.1-29.3l3.4-3.3c8.7,8.7,13.5,20.3,13.5,32.6
	C67,71.7,62.1,83.3,53.4,92z M52.4,59.3c0-8.4-3.3-16.3-9.2-22.2l-3.3,3.3c5,5.1,7.8,11.8,7.8,18.9c0,7.2-2.8,14-7.9,19.1l3.3,3.4
	C49,75.7,52.4,67.8,52.4,59.3z M37.8,59.3c0-4.5-1.7-8.7-4.9-11.9l-3.4,3.3c2.3,2.3,3.5,5.4,3.5,8.6c0,3.3-1.3,6.4-3.7,8.7l3.3,3.4
	C36,68.1,37.8,63.9,37.8,59.3z"/>
</svg>
