<?xml version="1.0" encoding="utf-8"?>
<!-- Generator: Adobe Illustrator 24.1.1, SVG Export Plug-In . SVG Version: 6.00 Build 0)  -->
<svg version="1.1" id="Ebene_1" xmlns="http://www.w3.org/2000/svg" xmlns:xlink="http://www.w3.org/1999/xlink" x="0px" y="0px"
	 viewBox="0 0 595.3 419.5" style="enable-background:new 0 0 595.3 419.5;" xml:space="preserve">
<style type="text/css">
	.st0{fill:#FFFFFF;stroke:#222221;stroke-miterlimit:10;}
</style>
<path class="st0" d="M124.8,134.2c17.9-22,57.7-64.5,122.1-84.6c73.8-23.1,199.7-22.7,256.4,68.2c44.4,71.2,27.4,167.5-23.1,227.2
	c-73.8,87.3-221.2,98.7-296.4,25.6c-40.5-39.3-68-110.7-42.1-173.8c39.8-96.5,171.8-93.6,179-93.3c17.6,0.7,123.9,4.6,152.3,83.1
	c19.8,54.7-7.9,118.9-54.4,151.3c-37.7,26.3-107.1,45.1-150.1,3.7c-35.3-34-43.3-99.5-8.7-137.1c23.9-25.9,73.1-43.9,106.3-18
	c28.3,22.1,31.4,65.9,15.1,95.4c-9.6,17.4-34,44.5-65.1,38.5c-28.1-5.4-51.6-35.7-45.1-62.6c6.5-27.1,41.9-44.5,55.3-36.3
	c9.6,5.9,13.4,28.2,2,38.7c-9.9,9-25.6,4.1-26.6,3.8"/>
</svg>
