<?xml version="1.0" standalone="no"?>
<!DOCTYPE svg PUBLIC "-//W3C//DTD SVG 1.1//EN" "http://www.w3.org/Graphics/SVG/1.1/DTD/svg11.dtd" >
<svg xmlns="http://www.w3.org/2000/svg" xmlns:xlink="http://www.w3.org/1999/xlink" version="1.1">
<metadata>
Created by Christoph Koeberlin (http://christoph.koe.berlin)
Copyright (c) 2011 Swiss Typefaces Sa`rl. All rights reserved.
</metadata>
<defs>
<font id="Font" horiz-adv-x="608" >
  <font-face 
    font-family="Font"
    font-weight="400"
    font-style="italic"
    font-stretch="normal"
    units-per-em="1000"
    panose-1="2 11 5 9 3 0 0 0 0 0"
    ascent="800"
    descent="-200"
    x-height="516"
    cap-height="700"
    bbox="-503 -209 693 880"
    underline-thickness="65"
    underline-position="-36"
    slope="-12"
    unicode-range="U+0020-FB02"
  />
<missing-glyph 
d="M366 54l-56 241l-159 -241h215zM513 603l-170 -258l60 -257zM296 354l-59 256l-109 -512zM53 0l148 700h387l-148 -700h-387zM329 404l160 242h-216z" />
    <glyph glyph-name=".notdef" 
d="M366 54l-56 241l-159 -241h215zM513 603l-170 -258l60 -257zM296 354l-59 256l-109 -512zM53 0l148 700h387l-148 -700h-387zM329 404l160 242h-216z" />
    <glyph glyph-name=".null" horiz-adv-x="0" 
 />
    <glyph glyph-name="nonmarkingreturn" horiz-adv-x="0" 
 />
    <glyph glyph-name="space" unicode=" " 
 />
    <glyph glyph-name="exclam" unicode="!" 
d="M335 230h-75l99 470h75zM218 105h105l-22 -105h-105z" />
    <glyph glyph-name="quotedbl" unicode="&#x22;" 
d="M463 476v224h53v-224h-53zM221 476v224h53v-224h-53z" />
    <glyph glyph-name="numbersign" unicode="#" 
d="M445 216l-53 -216h-47l53 216h-211l-53 -216h-47l53 216h-71v45h82l44 178h-81v45h92l54 216h47l-54 -216h211l54 216h47l-54 -216h72v-45h-83l-44 -178h82v-45h-93zM198 261h211l44 178h-211z" />
    <glyph glyph-name="dollar" unicode="$" 
d="M226 -4q-32 6 -59.5 21t-47.5 39t-31.5 56t-11.5 73v11t1 11h75v-15q0 -57 34 -94t101 -37q27 0 51 8.5t42 24.5t29 38.5t11 51.5q0 44 -20.5 74.5t-74.5 50.5l-66 29q-54 24 -81 63.5t-27 105.5q0 45 15 82t43 64t67.5 42t89.5 15q3 0 6 -0.5t6 -0.5l19 91h43l-20 -96
q27 -6 51 -19t42.5 -33t29.5 -47.5t12 -61.5q0 -5 -0.5 -11.5t-1.5 -8.5h-75v13q0 48 -33 75.5t-82 27.5q-31 0 -56 -10t-43 -27.5t-27.5 -40t-9.5 -47.5q0 -45 18.5 -70.5t57.5 -42.5l66 -29q62 -23 94.5 -66.5t32.5 -109.5q0 -44 -14 -82t-41.5 -65.5t-67.5 -43t-92 -15.5
q-3 0 -6.5 0.5t-6.5 0.5l-19 -91h-43z" />
    <glyph glyph-name="percent" unicode="%" 
d="M75 567q0 28 10.5 53.5t29.5 44t43.5 29.5t53.5 11q28 0 53.5 -11t44 -29.5t29.5 -44t11 -53.5q0 -29 -11 -53.5t-29.5 -43.5t-44 -29.5t-53.5 -10.5q-29 0 -53.5 10.5t-43.5 29.5t-29.5 43.5t-10.5 53.5zM137 567q0 -32 21.5 -54t53.5 -22t54 22t22 54t-22 54.5
t-54 22.5t-53.5 -22.5t-21.5 -54.5zM300 132q0 28 10.5 53.5t29.5 44t43.5 29.5t53.5 11q28 0 53.5 -11t44 -29.5t29.5 -44t11 -53.5q0 -29 -11 -53.5t-29.5 -43.5t-44 -29.5t-53.5 -10.5q-29 0 -53.5 10.5t-43.5 29.5t-29.5 43.5t-10.5 53.5zM362 132q0 -32 21.5 -54
t53.5 -22t54 22t22 54t-22 54.5t-54 22.5t-53.5 -22.5t-21.5 -54.5zM526 585l32 -32l-434 -435l-32 32z" />
    <glyph glyph-name="ampersand" unicode="&#x26;" 
d="M548 700l-15 -71h-263l141 -405l112 144l61 -40l-144 -186l39 -114l-63 -33l-28 80q-37 -44 -78.5 -64.5t-97.5 -20.5q-43 0 -78 14.5t-59.5 39t-38 57t-13.5 67.5q0 42 14 84.5t44 76t76 54.5t111 21h5l-78 225l15 71h338zM99 180q0 -54 33 -86.5t86 -32.5q24 0 44 8
t37.5 21.5t32.5 31t28 36.5l-60 168q-16 7 -37 7q-34 0 -63.5 -11t-52 -31.5t-35.5 -48.5t-13 -62z" />
    <glyph glyph-name="quotesingle" unicode="'" 
d="M347 476v224h53v-224h-53z" />
    <glyph glyph-name="parenleft" unicode="(" 
d="M333 597q5 25 13 44t21.5 32t35 20t54.5 7h123l-9 -42h-119q-36 0 -52.5 -16t-24.5 -51q-62 -292 -94.5 -442t-32.5 -163q0 -36 47 -36h125l-9 -42h-125q-44 0 -62.5 21.5t-18.5 53.5q0 5 1.5 14.5t6 32.5t13 63.5t22.5 107t35 163.5t50 233z" />
    <glyph glyph-name="parenright" unicode=")" 
d="M295 11q-5 -25 -13 -44t-21.5 -32t-35 -20t-54.5 -7h-123l9 42h119q36 0 52.5 16t24.5 51q62 292 94.5 442t32.5 163q0 36 -47 36h-125l9 42h125q44 0 62.5 -21.5t18.5 -53.5q0 -5 -1.5 -14.5t-6 -32.5t-13 -63.5t-22.5 -107t-35 -163.5t-50 -233z" />
    <glyph glyph-name="asterisk" unicode="*" 
d="M217 340l-34 27l125 131l-145 50l20 40l143 -50l35 162h45l-35 -162l165 50l4 -46l-164 -49l67 -129l-40 -24l-64 127z" />
    <glyph glyph-name="plus" unicode="+" 
d="M287 258h-176v45h176v175h45v-175h175v-45h-175v-176h-45v176z" />
    <glyph glyph-name="comma" unicode="," 
d="M98 -111l204 203l55 -55l-204 -203z" />
    <glyph glyph-name="hyphen" unicode="-" 
d="M155 258l9 45h290l-9 -45h-290z" />
    <glyph glyph-name="period" unicode="." 
d="M219 105h105l-22 -105h-105z" />
    <glyph glyph-name="slash" unicode="/" 
d="M595 679l-472 -684l-37 26l472 684z" />
    <glyph glyph-name="zero" unicode="0" 
d="M490 183q-9 -42 -27.5 -77t-46.5 -61t-66 -40.5t-85 -14.5q-39 0 -72 14t-56.5 37t-36.5 52.5t-13 61.5q0 15 2 31.5t9 52.5t21 101t38 177q9 42 27.5 77t46.5 61t66 40.5t85 14.5q39 0 72 -14t56.5 -37t36.5 -52.5t13 -61.5q0 -15 -2 -31.5t-9 -52.5t-21 -101t-38 -177z
M470 443l-308 -255q-2 -10 -2.5 -14t-0.5 -8q0 -44 29.5 -74.5t83.5 -30.5q27 0 50.5 10t42.5 27t32.5 41t19.5 53zM230 508q-20 -95 -33 -154.5t-21 -96.5l309 256q2 9 2.5 13t0.5 8q0 44 -29.5 74.5t-83.5 30.5q-27 0 -50.5 -10t-42.5 -27t-32.5 -41.5t-19.5 -52.5z" />
    <glyph glyph-name="one" unicode="1" 
d="M243 71l110 516l-128 -105l-43 57l195 161h75l-134 -629h182l-15 -71h-439l15 71h182z" />
    <glyph glyph-name="two" unicode="2" 
d="M208 359q-25 23 -38.5 53.5t-13.5 62.5q0 50 16 93t46 74.5t71.5 49.5t92.5 18q39 0 72 -14t56.5 -37t36.5 -52.5t13 -61.5q0 -70 -32.5 -122t-80.5 -96l-279 -256h299l-15 -71h-404l15 71l333 306q37 34 64.5 72.5t27.5 84.5q0 44 -29.5 74t-83.5 30q-34 0 -61 -14.5
t-46 -37t-29.5 -50t-10.5 -52.5q0 -47 33 -77z" />
    <glyph glyph-name="three" unicode="3" 
d="M159 515q5 43 22 79t45 61.5t66 40t85 14.5q39 0 71 -13t54.5 -34.5t34.5 -50.5t12 -61q0 -72 -31 -126.5t-87 -81.5q25 -24 38.5 -55.5t13.5 -64.5q0 -50 -16 -92.5t-46 -74t-71.5 -49t-92.5 -17.5q-39 0 -72 13.5t-56.5 36t-36.5 52t-13 61.5q0 19 3 39h72
q-3 -15 -3 -30q0 -44 29.5 -72.5t83.5 -28.5q34 0 61 14t46 36t29.5 49t10.5 52q0 21 -7 40t-20 34t-32 24t-44 11l16 70h12q34 0 60 14t44 35.5t27.5 48t9.5 51.5q0 44 -26.5 71.5t-80.5 27.5q-30 0 -53.5 -11t-41.5 -28.5t-29 -39.5t-15 -45h-72z" />
    <glyph glyph-name="four" unicode="4" 
d="M155 260h223l34 159h75l-34 -159h73l-15 -71h-73l-40 -189h-75l40 189h-321l15 71l419 445l54 -47z" />
    <glyph glyph-name="five" unicode="5" 
d="M243 426q11 6 32.5 12t49.5 6q39 0 72 -14t56.5 -37t36.5 -52.5t13 -61.5q0 -9 -0.5 -17t-2 -18t-4.5 -24.5t-7 -36.5q-9 -42 -27.5 -77t-46.5 -61t-66 -40.5t-85 -14.5q-39 0 -72 14t-56.5 37t-36.5 52.5t-13 61.5q0 10 0.5 18t2.5 19h73q-4 -17 -4 -26
q0 -44 29.5 -73.5t83.5 -29.5q27 0 50.5 9.5t42.5 26.5t32.5 40.5t19.5 52.5q8 38 11.5 53t3.5 23q0 44 -29.5 74.5t-83.5 30.5q-39 0 -71.5 -20.5t-52.5 -54.5l-67 45l154 357h278l-15 -71h-213z" />
    <glyph glyph-name="six" unicode="6" 
d="M311 444h4q38 0 70.5 -14t56 -37t36.5 -52.5t13 -61.5q0 -9 -0.5 -17t-2 -18t-4.5 -24.5t-7 -36.5q-9 -42 -27.5 -77t-46.5 -61t-66 -40.5t-85 -14.5q-39 0 -72 14t-56.5 37t-36.5 52.5t-13 61.5q0 9 0.5 17t2 18t4 24.5t7.5 36.5q8 38 23.5 70.5t39.5 57.5l308 326
l53 -47zM161 242q-8 -38 -11.5 -53t-3.5 -23q0 -44 29.5 -74.5t83.5 -30.5q27 0 50.5 10t42.5 27t32.5 41t19.5 53q8 38 11.5 53t3.5 23q0 44 -29.5 74.5t-83.5 30.5q-27 0 -50.5 -10t-43 -27t-32.5 -41.5t-19 -52.5z" />
    <glyph glyph-name="seven" unicode="7" 
d="M224 -5l-67 26l343 608h-241l-25 -117h-75l40 188h398l-15 -71z" />
    <glyph glyph-name="eight" unicode="8" 
d="M555 551q0 -74 -32 -127.5t-85 -80.5q26 -23 40 -54t14 -64q0 -50 -16 -93t-46 -74.5t-71.5 -49.5t-92.5 -18q-39 0 -72 14t-56.5 37t-36.5 52.5t-13 61.5q0 72 32 127.5t89 83.5q-23 22 -34.5 51t-11.5 61q0 52 17 95t46.5 73.5t69.5 47t87 16.5q39 0 71 -13t54.5 -34.5
t34.5 -50.5t12 -61zM420 214q0 44 -29.5 74.5t-83.5 30.5q-34 0 -61 -15t-46 -37.5t-29.5 -50t-10.5 -52.5q0 -44 29.5 -73.5t83.5 -29.5q34 0 61 14.5t46 37t29.5 49.5t10.5 52zM342 390q34 0 60 14t44 36t27.5 48.5t9.5 51.5q0 44 -26.5 71.5t-80.5 27.5q-34 0 -60 -14
t-44 -36t-27.5 -48.5t-9.5 -51.5q0 -44 26.5 -71.5t80.5 -27.5z" />
    <glyph glyph-name="nine" unicode="9" 
d="M336 256h-4q-38 0 -70.5 14t-56 37t-36.5 52.5t-13 61.5q0 9 0.5 17t2 18t4 24.5t7.5 36.5q9 42 27.5 77t46.5 61t66 40.5t85 14.5q39 0 72 -14t56.5 -37t36.5 -52.5t13 -61.5q0 -9 -0.5 -17t-2 -18t-4.5 -24.5t-7 -36.5q-8 -38 -23.5 -70.5t-39.5 -57.5l-308 -326
l-53 47zM486 458q8 38 11.5 53t3.5 23q0 44 -29.5 74.5t-83.5 30.5q-27 0 -50.5 -10t-42.5 -27t-32.5 -41.5t-19.5 -52.5q-8 -38 -11.5 -53t-3.5 -23q0 -44 29.5 -74.5t83.5 -30.5q27 0 50.5 10t43 27t32.5 41t19 53z" />
    <glyph glyph-name="colon" unicode=":" 
d="M290 440h105l-22 -105h-105zM219 105h105l-22 -105h-105z" />
    <glyph glyph-name="semicolon" unicode=";" 
d="M50 -111l204 203l55 -55l-204 -203zM290 440h105l-22 -105h-105z" />
    <glyph glyph-name="less" unicode="&#x3c;" 
d="M215 260l239 -239l-32 -31l-270 270l270 270l32 -31z" />
    <glyph glyph-name="equal" unicode="=" 
d="M111 156v45h396v-45h-396zM111 350v45h396v-45h-396z" />
    <glyph glyph-name="greater" unicode="&#x3e;" 
d="M154 499l32 31l270 -270l-270 -270l-32 31l239 239z" />
    <glyph glyph-name="question" unicode="?" 
d="M332 379q34 0 61 15t46 37.5t29.5 50t10.5 52.5q0 44 -29.5 74t-83.5 30q-30 0 -55 -11.5t-43.5 -30t-30.5 -42t-16 -46.5h-72q5 43 23.5 80t47.5 64t67.5 42.5t85.5 15.5q39 0 72 -14t56.5 -37t36.5 -52.5t13 -61.5q0 -48 -15 -89t-42 -72.5t-65.5 -51t-85.5 -22.5
l-17 -80h-75l32 149h49zM209 105h105l-22 -105h-105z" />
    <glyph glyph-name="at" unicode="@" 
d="M409 40q-19 -26 -47 -38t-60 -12q-68 0 -106.5 38.5t-38.5 106.5v30q0 68 38.5 106.5t106.5 38.5h70v75q0 34 -18 53.5t-52 19.5t-52 -19.5t-18 -53.5v-27h-75v27q0 68 38.5 106.5t106.5 38.5t106.5 -38.5t38.5 -106.5v-312q0 -18 10.5 -29.5t28.5 -11.5t28.5 11.5
t10.5 29.5v378q0 48 -14.5 88t-43 68.5t-69.5 44.5t-94 16t-94 -16t-69.5 -44.5t-43 -68.5t-14.5 -88v-381q0 -48 14.5 -88t43 -68.5t69.5 -44.5t94 -16v-42q-63 0 -112 18.5t-83 52.5t-51.5 82t-17.5 106v381q0 58 17.5 106t51.5 82t83 52.5t112 18.5t112 -18.5t83 -52.5
t51.5 -82t17.5 -106v-378q0 -41 -23.5 -62t-58.5 -21q-34 0 -52.5 15t-24.5 35zM232 135q0 -34 18 -53.5t52 -19.5t52 19.5t18 53.5v103h-70q-34 0 -52 -19.5t-18 -53.5v-30z" />
    <glyph glyph-name="A" unicode="A" 
d="M425 198h-258l-105 -198h-81l373 700h88l76 -700h-72zM381 600l-177 -333h213z" />
    <glyph glyph-name="B" unicode="B" 
d="M475 346q28 -20 43 -54t15 -68q0 -45 -15.5 -86t-46.5 -71.5t-77.5 -48.5t-108.5 -18h-250l149 700h220q45 0 78.5 -14.5t55.5 -37.5t33 -53.5t11 -61.5q0 -23 -6 -49t-18.5 -51.5t-33 -48t-49.5 -38.5zM179 317l-51 -243h163q36 0 66 10t52 29t34 46t12 61
q0 42 -27 69.5t-76 27.5h-173zM366 391q30 0 55.5 10.5t43.5 29t28 44t10 54.5q0 45 -27.5 71t-78.5 26h-152l-50 -235h171z" />
    <glyph glyph-name="C" unicode="C" 
d="M394 710q39 0 74 -10.5t61.5 -32.5t42 -56t15.5 -80v-19t-2 -19h-78q2 9 2.5 18t0.5 14q0 54 -31.5 82.5t-95.5 28.5q-69 0 -114.5 -41.5t-63.5 -121.5q-29 -129 -44.5 -204t-15.5 -94q0 -54 31.5 -82.5t95.5 -28.5t108.5 36.5t64.5 106.5h77q-27 -106 -88.5 -161.5
t-172.5 -55.5q-39 0 -74 10.5t-61.5 32.5t-42 56t-15.5 80q0 11 0.5 19t2 19.5t5.5 29.5t10.5 48t16.5 75.5t25 112.5q25 115 87.5 176t178.5 61z" />
    <glyph glyph-name="D" unicode="D" 
d="M273 74q69 0 114.5 41.5t63.5 121.5q28 128 42 193.5t14 84.5q0 54 -31.5 82.5t-95.5 28.5h-143l-117 -552h153zM27 0l149 700h215q39 0 74 -10.5t61.5 -32.5t42 -56t15.5 -80q0 -21 -5.5 -52.5t-13.5 -69.5t-18 -79.5t-19 -82.5q-13 -58 -34 -102t-53.5 -74t-76.5 -45.5
t-102 -15.5h-235z" />
    <glyph glyph-name="E" unicode="E" 
d="M153 74h321l-16 -74h-398l149 700h398l-16 -74h-321l-50 -235h251l-16 -74h-250z" />
    <glyph glyph-name="F" unicode="F" 
d="M155 0h-77l149 700h398l-16 -74h-321l-50 -235h251l-16 -74h-250z" />
    <glyph glyph-name="G" unicode="G" 
d="M315 297l16 74h226q-6 -29 -13.5 -63.5t-18.5 -80.5q-13 -58 -34 -102t-53.5 -74t-76.5 -45.5t-102 -15.5q-39 0 -74 10.5t-61.5 32.5t-42 56t-15.5 80q0 11 0.5 19t2 19.5t5.5 29.5t10.5 48t16.5 75.5t25 112.5q25 115 87.5 176t178.5 61q39 0 74 -10.5t61.5 -32.5
t42 -56t15.5 -80v-19t-2 -19h-78q2 9 2.5 18t0.5 14q0 54 -31.5 82.5t-95.5 28.5q-69 0 -114.5 -41.5t-63.5 -121.5q-29 -129 -44.5 -204t-15.5 -94q0 -54 31.5 -82.5t95.5 -28.5q69 0 114.5 41.5t63.5 121.5q5 19 8 36t7 34h-148z" />
    <glyph glyph-name="H" unicode="H" 
d="M547 700h77l-149 -700h-77l67 317h-297l-68 -317h-77l149 700h77l-66 -309h298z" />
    <glyph glyph-name="I" unicode="I" 
d="M421 626l-117 -552h161l-16 -74h-399l16 74h161l117 552h-161l16 74h399l-16 -74h-161z" />
    <glyph glyph-name="J" unicode="J" 
d="M134 200q-3 -17 -3 -25q0 -54 31.5 -82.5t95.5 -28.5q69 0 115 41.5t63 121.5l85 399h-322l16 74h399l-101 -473q-25 -116 -87.5 -176.5t-178.5 -60.5q-39 0 -74 10.5t-61.5 32.5t-42 56t-15.5 80q0 9 0.5 18t1.5 13h78z" />
    <glyph glyph-name="K" unicode="K" 
d="M95 0h-77l149 700h77l-80 -376l400 376h101l-307 -288l184 -412h-81l-160 359l-162 -153z" />
    <glyph glyph-name="L" unicode="L" 
d="M216 700h77l-133 -626h321l-16 -74h-398z" />
    <glyph glyph-name="M" unicode="M" 
d="M545 700h79l-149 -700h-74l110 516l-183 -328h-78l-41 338l-112 -526h-74l149 700h79l52 -436z" />
    <glyph glyph-name="N" unicode="N" 
d="M475 0h-77l-178 565l-120 -565h-77l149 700h77l178 -565l120 565h77z" />
    <glyph glyph-name="O" unicode="O" 
d="M524 227q-13 -58 -34 -102t-53.5 -74t-76.5 -45.5t-102 -15.5q-39 0 -74 10.5t-61.5 32.5t-42 56t-15.5 80q0 11 0.5 19t2 19.5t5.5 29.5t10.5 48t16.5 75.5t25 112.5q25 115 87.5 176t178.5 61q39 0 74 -10.5t61.5 -32.5t42 -56t15.5 -80q0 -11 -0.5 -19t-2 -19.5
t-5.5 -29.5t-10.5 -48t-16.5 -75.5t-25 -112.5zM142 175q0 -54 31.5 -82.5t95.5 -28.5q69 0 114.5 41.5t63.5 121.5q29 129 44.5 204t15.5 94q0 54 -31.5 82.5t-95.5 28.5q-69 0 -114.5 -41.5t-63.5 -121.5q-29 -129 -44.5 -204t-15.5 -94z" />
    <glyph glyph-name="P" unicode="P" 
d="M607 511q0 -50 -17 -93.5t-50.5 -75.5t-83 -50.5t-114.5 -18.5h-160l-58 -273h-77l149 700h226q42 0 76.5 -15.5t58.5 -41.5t37 -60.5t13 -71.5zM354 347q37 0 68.5 11.5t55 32.5t37 50t13.5 64q0 21 -5.5 43t-19.5 39t-37.5 28t-59.5 11h-149l-59 -279h156z" />
    <glyph glyph-name="Q" unicode="Q" 
d="M406 27q-58 -37 -148 -37q-39 0 -74 10.5t-61.5 32.5t-42 56t-15.5 80q0 11 0.5 19t2 19.5t5.5 29.5t10.5 48t16.5 75.5t25 112.5q25 115 87.5 176t178.5 61q39 0 74 -10.5t61.5 -32.5t42 -56t15.5 -80q0 -11 -0.5 -19t-2 -19.5t-5.5 -29.5t-10.5 -48t-16.5 -75.5
t-25 -112.5q-21 -96 -67 -154l58 -75l-54 -43zM202 473q-3 -14 -6 -26t-5 -24l218 -287q26 39 38 91q29 129 44.5 204t15.5 94q0 54 -31.5 82.5t-95.5 28.5q-69 0 -114.5 -41.5t-63.5 -121.5zM142 175q0 -54 31.5 -82.5t95.5 -28.5q51 0 90 24l-188 247q-29 -136 -29 -160z
" />
    <glyph glyph-name="R" unicode="R" 
d="M187 318l-67 -318h-77l149 700h226q45 0 78.5 -14.5t55.5 -37.5t33 -53.5t11 -61.5t-11 -67.5t-35.5 -68t-64.5 -54t-98 -25.5l119 -318h-80l-119 318h-120zM380 390q30 0 55.5 10.5t43.5 29.5t28 44.5t10 54.5q0 45 -27.5 71t-78.5 26h-158l-50 -236h177z" />
    <glyph glyph-name="S" unicode="S" 
d="M506 194q0 -41 -13 -78t-40 -65t-69.5 -44.5t-102.5 -16.5q-39 0 -77.5 12t-69 36.5t-49.5 61t-19 85.5v11t1 11h78q-1 -6 -1 -8.5v-6.5q0 -32 11 -56t30 -40t45.5 -24t56.5 -8q67 0 104.5 33t37.5 89q0 16 -2.5 32.5t-11 31t-23.5 27.5t-39 22l-81 31q-64 25 -97.5 69
t-33.5 110q0 45 14.5 82t42 63.5t67.5 41t91 14.5q39 0 74.5 -11t62.5 -33t43 -54.5t17 -75.5v-10t-1 -10h-77q1 6 1 8v5q0 48 -32.5 77.5t-90.5 29.5q-33 0 -58 -9.5t-42 -25.5t-26 -38t-9 -47q0 -44 20 -71t60 -42l81 -31q68 -26 97.5 -72t29.5 -106z" />
    <glyph glyph-name="T" unicode="T" 
d="M156 626l16 74h451l-16 -74h-187l-133 -626h-77l133 626h-187z" />
    <glyph glyph-name="U" unicode="U" 
d="M141 175q0 -54 31.5 -82.5t95.5 -28.5q69 0 115 41.5t63 121.5l104 473h77l-104 -473q-13 -58 -34 -102t-53.5 -74t-76.5 -45.5t-102 -15.5q-39 0 -74 10.5t-61.5 32.5t-42 56t-15.5 80q0 16 9 63.5t24 118t35 160t42 189.5h77q-10 -43 -21.5 -96t-24 -109t-24 -110
t-20.5 -98t-14.5 -74t-5.5 -38z" />
    <glyph glyph-name="V" unicode="V" 
d="M586 700h81l-374 -700h-88l-76 700h74l65 -595z" />
    <glyph glyph-name="W" unicode="W" 
d="M409 160l184 540h79l-249 -700h-69l-5 457l-205 -457h-69l49 700h75l-44 -532l191 432h62z" />
    <glyph glyph-name="X" unicode="X" 
d="M555 700h91l-282 -344l132 -356h-80l-105 291l-235 -291h-91l291 355l-128 345h79l103 -279z" />
    <glyph glyph-name="Y" unicode="Y" 
d="M288 0h-77l59 279l-141 421h75l115 -346l263 346h86l-321 -422z" />
    <glyph glyph-name="Z" unicode="Z" 
d="M17 0l16 74l473 552h-352l16 74h447l-16 -74l-473 -552h361l-16 -74h-456z" />
    <glyph glyph-name="bracketleft" unicode="[" 
d="M354 700h225l-9 -42h-182l-151 -708h182l-9 -42h-225z" />
    <glyph glyph-name="backslash" unicode="\" 
d="M100 705l472 -684l-37 -26l-472 684z" />
    <glyph glyph-name="bracketright" unicode="]" 
d="M273 -92h-225l9 42h182l151 708h-182l9 42h225z" />
    <glyph glyph-name="asciicircum" unicode="^" 
d="M334 642l-239 -239l-31 32l270 270l270 -270l-31 -32z" />
    <glyph glyph-name="underscore" unicode="_" 
d="M27 -114l9 45h396l-9 -45h-396z" />
    <glyph glyph-name="grave" unicode="`" 
d="M247 657l10 48l264 -72l-10 -48z" />
    <glyph glyph-name="a" unicode="a" 
d="M425 252q-43 -2 -75.5 -4.5t-58 -6t-46 -9t-41.5 -13.5q-29 -12 -45 -30.5t-16 -53.5q0 -31 26 -52.5t80 -21.5q60 0 104.5 32t58.5 98zM119 358q26 94 84 133t146 39q34 0 65 -10t55 -28.5t38.5 -46t14.5 -62.5q0 -14 -3.5 -36t-9 -48t-11.5 -54t-11 -53
q-12 -54 -21 -96q-4 -18 -7.5 -35.5t-6.5 -31t-4.5 -21.5l-1.5 -8h-75l12 55q-20 -29 -60 -47t-90 -18q-40 0 -71 11.5t-52 31t-32 44.5t-11 51q0 33 7 58.5t22.5 45t41 34t62.5 25.5q48 14 110.5 19.5t128.5 9.5q3 17 5 30.5t2 21.5q0 23 -9 39.5t-24 27t-34 15.5t-39 5
q-52 0 -89.5 -25t-55.5 -76h-76z" />
    <glyph glyph-name="b" unicode="b" 
d="M268 61q59 0 99 32.5t54 97.5q4 21 10 47.5t11.5 52t9 47.5t3.5 34q0 23 -9 39.5t-24 27t-34 15.5t-39 5q-59 0 -99 -32.5t-54 -97.5q-5 -21 -10.5 -47.5t-11 -52t-9 -47.5t-3.5 -34q0 -23 9 -39.5t24 -27t34 -15.5t39 -5zM225 465q17 26 53 45.5t87 19.5q30 0 60 -10
t53.5 -28.5t38 -46t14.5 -62.5q0 -14 -3.5 -36t-9 -48t-11.5 -54t-11 -53q-12 -56 -33 -94.5t-50 -62.5t-66 -34.5t-81 -10.5q-45 0 -77.5 20.5t-48.5 53.5l-14 -64h-75l149 700h75z" />
    <glyph glyph-name="c" unicode="c" 
d="M452 353q1 6 1.5 10.5t0.5 8.5q0 23 -9 39.5t-24 27t-34 15.5t-39 5q-59 0 -99 -32.5t-54 -97.5q-5 -21 -10.5 -47.5t-11 -52t-9 -47.5t-3.5 -34q0 -23 9 -39.5t24 -27t34 -15.5t39 -5q53 0 91.5 26.5t55.5 79.5h75q-26 -97 -83.5 -137t-147.5 -40q-34 0 -65 9.5
t-55 28.5t-38.5 46.5t-14.5 62.5q0 13 3.5 35.5t8.5 48.5t11.5 54t11.5 53q23 111 82.5 156.5t154.5 45.5q34 0 65 -10t55 -28.5t38.5 -46t14.5 -62.5q0 -12 -3 -30h-75z" />
    <glyph glyph-name="d" unicode="d" 
d="M341 459q-59 0 -99 -32.5t-54 -97.5q-5 -21 -10.5 -47.5t-11 -52t-9 -47.5t-3.5 -34q0 -23 9 -39.5t24 -27t34 -15.5t39 -5q59 0 99 32.5t54 97.5q4 21 10 47.5t11.5 52t9 47.5t3.5 34q0 23 -9 39.5t-24 27t-34 15.5t-39 5zM384 55q-17 -26 -53 -45.5t-87 -19.5
q-30 0 -60 9.5t-53.5 28.5t-38 46.5t-14.5 62.5q0 13 3.5 35.5t8.5 48.5t11.5 54t11.5 53q12 55 32.5 93.5t50 62.5t66.5 35t81 11q45 0 77.5 -20.5t48.5 -53.5l52 244h75l-149 -700h-75z" />
    <glyph glyph-name="e" unicode="e" 
d="M174 241q-6 -29 -10.5 -54t-4.5 -39q0 -23 9 -39.5t24 -27t34 -15.5t39 -5q52 0 89.5 25t55.5 76h76q-26 -94 -84 -133t-146 -39q-34 0 -65 9.5t-55 28.5t-38.5 46.5t-14.5 62.5q0 13 3.5 35.5t8.5 48.5t11.5 54t11.5 53q23 111 82.5 156.5t154.5 45.5q34 0 65 -10
t55 -28.5t38.5 -46t14.5 -62.5q0 -21 -7.5 -60.5t-16.5 -81.5h-330zM443 309q4 20 6.5 36.5t2.5 26.5q0 23 -9 39.5t-24 27t-34 15.5t-39 5q-67 0 -107 -40t-50 -110h254z" />
    <glyph glyph-name="f" unicode="f" 
d="M427 629q-27 0 -40 -10.5t-18 -35.5l-14 -67h217l-16 -71h-217l-94 -445h-75l94 445h-147l16 71h147l13 61q7 33 15.5 56.5t24.5 38t42 21.5t67 7h169l-15 -71h-169z" />
    <glyph glyph-name="g" unicode="g" 
d="M117 -17q-1 -5 -1 -10v-9q0 -23 9 -39.5t24 -27t34 -15.5t39 -5q59 0 99 32.5t54 97.5l14 68q-17 -26 -53 -45.5t-87 -19.5q-30 0 -60 9.5t-53.5 28.5t-38 46.5t-14.5 62.5q0 27 10 74t21 97q12 55 32.5 93.5t50 62.5t66.5 35t81 11q45 0 77.5 -20.5t48.5 -53.5l13 60h75
l-108 -508q-23 -111 -83 -156.5t-154 -45.5q-34 0 -65 9.5t-55 28.5t-38.5 46.5t-14.5 62.5q0 12 3 30h74zM342 459q-59 0 -99 -32.5t-54 -97.5q-5 -21 -10 -44.5t-9.5 -45.5t-7.5 -40.5t-3 -30.5q0 -23 9 -39.5t24 -27t34 -15.5t39 -5q59 0 99 32.5t54 97.5q4 21 9.5 44.5
t10 45.5t7.5 40.5t3 30.5q0 23 -9 39.5t-24 27t-34 15.5t-39 5z" />
    <glyph glyph-name="h" unicode="h" 
d="M362 530q30 0 60 -10t53.5 -28.5t38 -46t14.5 -62.5q0 -14 -3.5 -36t-9 -48t-11.5 -54t-11 -53l-41 -192h-75l41 191q5 21 11 47.5t11 52t8.5 47.5t3.5 34q0 23 -9 39.5t-24 27t-34 15.5t-39 5q-59 0 -99 -32.5t-54 -97.5l-70 -329h-75l149 700h75l-50 -235
q17 26 53 45.5t87 19.5z" />
    <glyph glyph-name="i" unicode="i" 
d="M193 516h207l-95 -445h182l-15 -71h-439l15 71h182l80 374h-133zM339 700h110l-23 -110h-110z" />
    <glyph glyph-name="j" unicode="j" 
d="M402 700h110l-23 -110h-110zM156 445l15 71h292l-123 -577q-7 -33 -16 -56.5t-24.5 -38t-41 -21.5t-66.5 -7h-218l15 71h218q27 0 39.5 10.5t17.5 35.5l109 512h-217z" />
    <glyph glyph-name="k" unicode="k" 
d="M200 279l269 237h100l-229 -202l146 -314h-80l-123 265l-106 -94l-36 -171h-75l149 700h75z" />
    <glyph glyph-name="l" unicode="l" 
d="M228 700h207l-134 -629h182l-15 -71h-439l15 71h182l119 558h-132z" />
    <glyph glyph-name="m" unicode="m" 
d="M212 0q21 99 35.5 167t24 112.5t14.5 69.5l7.5 37.5t3 16.5t0.5 7q0 49 -54 49q-36 0 -52.5 -20.5t-23.5 -51.5l-82 -387h-75l110 516h75l-6 -29q11 18 32 30.5t47 12.5q27 0 48.5 -15t29.5 -39q11 19 35 36.5t65 17.5q65 0 96.5 -31.5t31.5 -81.5q0 -5 -0.5 -10.5
t-3 -18.5t-7.5 -38t-14.5 -70t-24 -113t-35.5 -167h-75q21 99 35.5 167t24 112.5t14.5 69.5l7.5 37.5t3 16.5t0.5 7q0 49 -54 49q-36 0 -52.5 -20.5t-23.5 -51.5l-82 -387h-75z" />
    <glyph glyph-name="n" unicode="n" 
d="M362 530q30 0 60 -10t53.5 -28.5t38 -46t14.5 -62.5q0 -14 -3.5 -36t-9 -48t-11.5 -54t-11 -53l-41 -192h-75l41 191q5 21 11 47.5t11 52t8.5 47.5t3.5 34q0 23 -9 39.5t-24 27t-34 15.5t-39 5q-59 0 -99 -32.5t-54 -97.5l-70 -329h-75l110 516h75l-11 -51q17 26 53 45.5
t87 19.5z" />
    <glyph glyph-name="o" unicode="o" 
d="M492 192q-23 -111 -83 -156.5t-154 -45.5q-34 0 -65 9.5t-55 28.5t-38.5 46.5t-14.5 62.5q0 13 3.5 35.5t8.5 48.5t11.5 54t11.5 53q23 111 82.5 156.5t154.5 45.5q34 0 65 -10t55 -28.5t38.5 -46t14.5 -62.5q0 -14 -3.5 -36t-9 -48t-11.5 -54t-11 -53zM264 61
q59 0 99 32.5t54 97.5q4 21 10 47.5t11.5 52t9 47.5t3.5 34q0 23 -9 39.5t-24 27t-34 15.5t-39 5q-59 0 -99 -32.5t-54 -97.5q-5 -21 -10.5 -47.5t-11 -52t-9 -47.5t-3.5 -34q0 -23 9 -39.5t24 -27t34 -15.5t39 -5z" />
    <glyph glyph-name="p" unicode="p" 
d="M268 61q59 0 99 32.5t54 97.5q4 21 10 47.5t11.5 52t9 47.5t3.5 34q0 23 -9 39.5t-24 27t-34 15.5t-39 5q-59 0 -99 -32.5t-54 -97.5q-5 -21 -10.5 -47.5t-11 -52t-9 -47.5t-3.5 -34q0 -23 9 -39.5t24 -27t34 -15.5t39 -5zM225 465q17 26 53 45.5t87 19.5q30 0 60 -10
t53.5 -28.5t38 -46t14.5 -62.5q0 -14 -3.5 -36t-9 -48t-11.5 -54t-11 -53q-12 -56 -33 -94.5t-50 -62.5t-66 -34.5t-81 -10.5q-45 0 -77.5 20.5t-48.5 53.5l-53 -248h-75l149 700h75z" />
    <glyph glyph-name="q" unicode="q" 
d="M341 459q-59 0 -99 -32.5t-54 -97.5q-5 -21 -10.5 -47.5t-11 -52t-9 -47.5t-3.5 -34q0 -23 9 -39.5t24 -27t34 -15.5t39 -5q59 0 99 32.5t54 97.5q4 21 10 47.5t11.5 52t9 47.5t3.5 34q0 23 -9 39.5t-24 27t-34 15.5t-39 5zM384 55q-17 -26 -53 -45.5t-87 -19.5
q-30 0 -60 9.5t-53.5 28.5t-38 46.5t-14.5 62.5q0 13 3.5 35.5t8.5 48.5t11.5 54t11.5 53q12 55 32.5 93.5t50 62.5t66.5 35t81 11q45 0 77.5 -20.5t48.5 -53.5l13 60h75l-149 -700h-75z" />
    <glyph glyph-name="r" unicode="r" 
d="M606 525l-15 -71h-125q-59 0 -99 -32.5t-54 -97.5l-54 -253h201l-15 -71h-439l15 71h163l80 374h-114l15 71h189l-12 -56q17 26 53 45.5t87 19.5h124z" />
    <glyph glyph-name="s" unicode="s" 
d="M435 365v7q0 22 -8.5 38.5t-23 27t-32.5 16t-37 5.5t-37.5 -5t-33 -14.5t-23.5 -24.5t-9 -35q0 -23 12 -42.5t46 -29.5l67 -20q53 -16 86 -48t33 -81q0 -76 -47.5 -122.5t-146.5 -46.5q-35 0 -69.5 9.5t-61.5 29.5t-43.5 49.5t-16.5 70.5v8t1 8h75v-10q0 -25 10 -42.5
t27.5 -29t40 -17t47.5 -5.5q18 0 37 4t34.5 14t26 25.5t10.5 39.5q0 23 -14 43.5t-54 32.5l-67 20q-49 14 -79 47.5t-30 83.5q0 69 46.5 114t138.5 45q37 0 68.5 -11t54.5 -30.5t35.5 -47t12.5 -59.5v-8t-1 -9h-75z" />
    <glyph glyph-name="t" unicode="t" 
d="M333 445q-18 -83 -30 -140.5t-20.5 -95.5t-13 -59.5t-6.5 -32.5t-2.5 -14t-0.5 -5q0 -13 9 -20t32 -7h169l-15 -71h-169q-50 0 -74.5 23.5t-24.5 63.5q0 11 2.5 28.5t10.5 56t21.5 103.5t36.5 170h-147l15 71h147l25 117h75l-25 -117h217l-15 -71h-217z" />
    <glyph glyph-name="u" unicode="u" 
d="M248 -10q-30 0 -59 9.5t-52.5 28.5t-38 46.5t-14.5 62.5q0 13 3.5 35.5t8.5 48.5t11.5 54t11.5 53l40 188h75l-40 -187q-5 -21 -10.5 -47.5t-11 -52t-9 -47.5t-3.5 -34q0 -23 9 -39t23 -27t32.5 -16t38.5 -5q57 0 96.5 33t53.5 97l69 325h75l-110 -516h-75l12 55
q-17 -25 -52.5 -45t-83.5 -20z" />
    <glyph glyph-name="v" unicode="v" 
d="M292 0h-84l-77 516h73l62 -427l240 427h81z" />
    <glyph glyph-name="w" unicode="w" 
d="M400 132l138 384h75l-192 -516h-67l-27 348l-181 -348h-67l26 516h72l-21 -370l148 290h74z" />
    <glyph glyph-name="x" unicode="x" 
d="M296 204l-177 -204h-90l231 262l-115 254h78l90 -196l170 196h90l-226 -256l116 -260h-76z" />
    <glyph glyph-name="y" unicode="y" 
d="M210 -10l-79 526h73l62 -427l240 427h81l-370 -647q-17 -30 -46.5 -41t-78.5 -12h-47l15 71h56q24 0 34.5 8.5t18.5 22.5z" />
    <glyph glyph-name="z" unicode="z" 
d="M166 71h291l-15 -71h-388l15 71l363 374h-278l15 71h375l-15 -71z" />
    <glyph glyph-name="braceleft" unicode="{" 
d="M256 247q0 18 -11.5 27t-42.5 9h-10l9 42h10q40 0 55 15t22 46l45 211q5 25 13 44t21.5 32t35 20t54.5 7h123l-9 -42h-119q-36 0 -52.5 -16t-24.5 -51l-44 -205q-6 -28 -16 -51.5t-34 -34.5q11 -8 14.5 -18.5t3.5 -26.5q0 -9 -4 -30.5t-9.5 -49.5t-12 -58t-12 -57
t-9.5 -47t-4 -27q0 -36 47 -36h125l-9 -42h-125q-44 0 -62.5 21.5t-18.5 53.5q0 8 4 29t9.5 48t12 57t12 56.5t9.5 46.5t4 27z" />
    <glyph glyph-name="bar" unicode="|" 
d="M282 700h43v-800h-43v800z" />
    <glyph glyph-name="braceright" unicode="}" 
d="M372 361q0 -18 11.5 -27t42.5 -9h10l-9 -42h-10q-40 0 -55 -15t-22 -46l-45 -211q-5 -25 -13 -44t-21.5 -32t-35 -20t-54.5 -7h-123l9 42h119q36 0 52.5 16t24.5 51l44 205q6 28 16 51.5t34 34.5q-11 8 -14.5 18.5t-3.5 26.5q0 9 4 30.5t9.5 49.5t12 58t12 57t9.5 47
t4 27q0 36 -47 36h-125l9 42h125q44 0 62.5 -21.5t18.5 -53.5q0 -8 -4 -29t-9.5 -48t-12 -57t-12 -56.5t-9.5 -46.5t-4 -27z" />
    <glyph glyph-name="asciitilde" unicode="~" 
d="M354 218l-102 73l-135 -73l-21 38l159 86l102 -73l135 73l21 -38z" />
    <glyph glyph-name="uni00A0" unicode="&#xa0;" 
 />
    <glyph glyph-name="exclamdown" unicode="&#xa1;" 
d="M273 286h75l-99 -470h-75zM390 411h-105l22 105h105z" />
    <glyph glyph-name="cent" unicode="&#xa2;" 
d="M228 -8q-29 4 -55 15t-45.5 29.5t-31 43.5t-11.5 57q0 13 3.5 35.5t8.5 48.5t11.5 54t11.5 53q22 106 78 152t145 49l19 91h43l-20 -92q29 -4 55.5 -15t46.5 -29.5t31.5 -44t11.5 -56.5q0 -12 -3 -30h-75q1 6 1.5 10.5t0.5 8.5q0 23 -9 39.5t-24 27t-34 15.5t-39 5
q-59 0 -99 -32.5t-54 -97.5q-5 -21 -10.5 -47.5t-11 -52t-9 -47.5t-3.5 -34q0 -23 9 -39.5t24 -27t34 -15.5t39 -5q53 0 91.5 26.5t55.5 79.5h75q-26 -93 -80 -133.5t-138 -42.5l-19 -91h-43z" />
    <glyph glyph-name="sterling" unicode="&#xa3;" 
d="M162 372l30 140q22 104 78.5 151t150.5 47q45 0 78 -15t54 -38.5t31 -53t10 -57.5q0 -6 -1 -16.5t-3 -21.5h-71q3 18 3 27q0 48 -29 76t-83 28q-49 0 -89 -31.5t-54 -94.5l-30 -141h254l-9 -43h-254l-55 -258h329l-15 -71h-467l14 71h64l55 258h-64l9 43h64z" />
    <glyph glyph-name="currency" unicode="&#xa4;" 
d="M497 134q-35 -30 -79.5 -47t-95.5 -17t-95.5 17t-79.5 47l-84 -84l-31 30l84 85q-30 35 -47 79.5t-17 95.5t17 95.5t47 79.5l-84 85l31 30l84 -85q35 31 79.5 48t95.5 17t95.5 -17t79.5 -48l84 85l31 -30l-85 -85q31 -35 48 -79.5t17 -95.5t-17 -95.5t-48 -79.5l85 -85
l-31 -30zM124 340q0 -41 15.5 -77t42.5 -63t63 -42.5t77 -15.5t77 15.5t63 42.5t42.5 63t15.5 77t-15.5 77t-42.5 63t-63 42.5t-77 15.5t-77 -15.5t-63 -42.5t-42.5 -63t-15.5 -77z" />
    <glyph glyph-name="yen" unicode="&#xa5;" 
d="M487 185l-10 -43h-160l-30 -142h-75l30 142h-160l10 43h159l20 94h-160l10 43h135l-127 378h73l116 -345l264 345h86l-289 -378h137l-10 -43h-160l-20 -94h161z" />
    <glyph glyph-name="brokenbar" unicode="&#xa6;" 
d="M283 239h43v-339h-43v339zM283 700h43v-339h-43v339z" />
    <glyph glyph-name="section" unicode="&#xa7;" 
d="M201 120q-16 6 -35 16.5t-35 26.5t-27 38.5t-11 52.5q0 72 39 111t102 54q-21 20 -34.5 50t-13.5 66q0 40 14 72.5t39.5 55t61 35t77.5 12.5q37 0 68.5 -11t53.5 -31t34.5 -47t12.5 -59v-5t-1 -9h-45v8q0 25 -9.5 45.5t-27 35.5t-40.5 23t-50 8q-28 0 -54 -8.5t-45.5 -25
t-31 -40t-11.5 -53.5q0 -35 18 -64.5t47 -40.5l109 -40q16 -6 35 -16.5t35 -26.5t27 -38.5t11 -52.5q0 -72 -39.5 -111t-102.5 -55q21 -20 35 -49.5t14 -65.5q0 -40 -14 -72.5t-39.5 -55t-61 -35t-77.5 -12.5q-38 0 -69 11t-53 31t-34.5 47t-12.5 59v9.5t2 14.5h45l-1 -18
q0 -25 9.5 -45.5t27 -35.5t40.5 -23t50 -8q28 0 54 8.5t45.5 25t31 40t11.5 53.5q0 35 -18 64.5t-47 40.5zM302 384q-30 0 -59.5 -8t-52.5 -23.5t-37 -37.5t-14 -51q0 -38 23 -63.5t58 -37.5l84 -31q30 0 59.5 8t53 23.5t37.5 37.5t14 51q0 38 -23 63.5t-58 37.5z" />
    <glyph glyph-name="dieresis" unicode="&#xa8;" 
d="M236 683h76l-17 -76h-76zM472 683h76l-17 -76h-76z" />
    <glyph glyph-name="copyright" unicode="&#xa9;" 
d="M544 451q0 48 -14.5 88t-43 68.5t-69.5 44.5t-94 16t-94 -16t-69.5 -44.5t-43 -68.5t-14.5 -88v-202q0 -48 14.5 -88t43 -68.5t69.5 -44.5t94 -16t94 16t69.5 44.5t43 68.5t14.5 88v202zM587 249q0 -58 -17.5 -106t-51.5 -82t-83 -52.5t-112 -18.5t-112 18.5t-83 52.5
t-51.5 82t-17.5 106v202q0 58 17.5 106t51.5 82t83 52.5t112 18.5t112 -18.5t83 -52.5t51.5 -82t17.5 -106v-202zM323 135q-69 0 -111 40t-42 109v132q0 68 42 108.5t111 40.5q66 0 107.5 -37t45.5 -100h-68q-5 37 -31 53t-54 16q-15 0 -30 -4.5t-27.5 -14.5t-20 -25.5
t-7.5 -36.5v-132q0 -22 7.5 -37.5t20 -25.5t27.5 -14.5t30 -4.5q28 0 54 16.5t31 53.5h68q-5 -63 -46 -100t-107 -37z" />
    <glyph glyph-name="ordfeminine" unicode="&#xaa;" 
d="M310 356q21 0 41 5.5t37 17t29.5 30t18.5 44.5l8 38q-32 -2 -55.5 -3.5t-42.5 -3.5t-34.5 -5.5t-30.5 -9.5q-22 -8 -34.5 -21.5t-12.5 -38.5q0 -23 19 -38t57 -15zM298 294q-31 0 -55 9t-40.5 24t-25 34.5t-8.5 41.5q0 51 23 80t81 46q38 11 85 15t98 6q2 11 3 19.5
t1 13.5q0 33 -23.5 49.5t-56.5 16.5q-37 0 -64 -18t-40 -53h-66q20 70 63 101.5t115 31.5q27 0 52 -8t44 -23t30 -37.5t11 -50.5q0 -12 -2.5 -28.5t-6 -35.5t-8 -39t-8.5 -39l-16 -74q-3 -14 -6 -27.5t-5 -24t-3.5 -16.5l-1.5 -6h-65l10 43q-15 -22 -45.5 -36.5t-69.5 -14.5
zM122 207l10 45h325l-9 -45h-326z" />
    <glyph glyph-name="guillemotleft" unicode="&#xab;" 
d="M64 258l254 210l29 -34l-221 -182l137 -176l-34 -28zM289 258l254 210l29 -34l-221 -182l137 -176l-34 -28z" />
    <glyph glyph-name="logicalnot" unicode="&#xac;" 
d="M111 303h396v-221h-45v176h-351v45z" />
    <glyph glyph-name="uni00AD" unicode="&#xad;" 
d="M155 258l9 45h290l-9 -45h-290z" />
    <glyph glyph-name="registered" unicode="&#xae;" 
d="M587 249q0 -58 -17.5 -106t-51.5 -82t-83 -52.5t-112 -18.5t-112 18.5t-83 52.5t-51.5 82t-17.5 106v202q0 58 17.5 106t51.5 82t83 52.5t112 18.5t112 -18.5t83 -52.5t51.5 -82t17.5 -106v-202zM544 451q0 48 -14.5 88t-43 68.5t-69.5 44.5t-94 16t-94 -16t-69.5 -44.5
t-43 -68.5t-14.5 -88v-202q0 -48 14.5 -88t43 -68.5t69.5 -44.5t94 -16t94 16t69.5 44.5t43 68.5t14.5 88v202zM421 141l-104 177h-65v-177h-68v418h170q61 0 95.5 -32t34.5 -89q0 -48 -24 -78t-69 -39l106 -180h-76zM252 384h102q27 0 43.5 13.5t16.5 39.5q0 27 -16.5 40.5
t-43.5 13.5h-102v-107z" />
    <glyph glyph-name="macron" unicode="&#xaf;" 
d="M222 620l11 50h312l-11 -50h-312z" />
    <glyph glyph-name="degree" unicode="&#xb0;" 
d="M212 549q0 32 12.5 60.5t33.5 49.5t49.5 33.5t60.5 12.5t60.5 -12.5t49.5 -33.5t33.5 -49.5t12.5 -60.5t-12.5 -60.5t-33.5 -49.5t-49.5 -33.5t-60.5 -12.5t-60.5 12.5t-49.5 33.5t-33.5 49.5t-12.5 60.5zM255 549q0 -24 9 -44.5t24 -36t35.5 -24.5t44.5 -9t44.5 9
t35.5 24.5t24 36t9 44.5t-9 44.5t-24 36t-35.5 24.5t-44.5 9t-44.5 -9t-35.5 -24.5t-24 -36t-9 -44.5z" />
    <glyph glyph-name="plusminus" unicode="&#xb1;" 
d="M287 350h-176v45h176v121h45v-121h175v-45h-175v-121h-45v121zM111 155v45h396v-45h-396z" />
    <glyph glyph-name="twosuperior" unicode="&#xb2;" 
d="M294 599q-12 14 -19 32t-7 38q0 29 9.5 55t27.5 46t44.5 31.5t59.5 11.5q23 0 43.5 -8.5t36 -23.5t24.5 -35t9 -43q0 -20 -4 -36.5t-13 -31.5t-22.5 -29.5t-32.5 -30.5l-131 -113h155l-14 -61h-252l13 61l180 154q26 22 41.5 39.5t15.5 43.5q0 22 -14 37.5t-39 15.5
q-33 0 -53.5 -22.5t-20.5 -56.5q0 -19 11 -33z" />
    <glyph glyph-name="threesuperior" unicode="&#xb3;" 
d="M344 395q-23 0 -44 8.5t-37 23.5t-25.5 35t-9.5 43v8t1 9h63q-1 -5 -1 -13q0 -21 16 -37t41 -16q32 0 51 22.5t19 56.5q0 21 -13.5 36t-36.5 16l13 59h4q25 0 41.5 16.5t16.5 45.5q0 16 -11.5 30t-31.5 14q-26 0 -40.5 -14.5t-16.5 -39.5h-63q3 50 34 82.5t90 32.5
q20 0 38.5 -7.5t32.5 -20.5t22.5 -32t8.5 -41q0 -33 -12.5 -60.5t-37.5 -44.5q25 -28 25 -67q0 -29 -9 -55.5t-26 -46.5t-43 -31.5t-59 -11.5z" />
    <glyph glyph-name="acute" unicode="&#xb4;" 
d="M246 579l12 54l264 72l-12 -54z" />
    <glyph glyph-name="mu" unicode="&#xb5;" 
d="M259 -10q-46 0 -83 21.5t-52 59.5l-55 -255h-53l148 700h53l-40 -187q-11 -49 -17.5 -79t-10 -49t-5 -29.5t-1.5 -19.5q0 -51 31 -81.5t91 -30.5q28 0 54.5 10t48.5 28.5t38 46t24 62.5l70 329h53l-110 -516h-53l14 63q-8 -13 -22.5 -26t-33 -23.5t-41.5 -17t-48 -6.5z
" />
    <glyph glyph-name="mu" unicode="&#x3bc;" 
d="M259 -10q-46 0 -83 21.5t-52 59.5l-55 -255h-53l148 700h53l-40 -187q-11 -49 -17.5 -79t-10 -49t-5 -29.5t-1.5 -19.5q0 -51 31 -81.5t91 -30.5q28 0 54.5 10t48.5 28.5t38 46t24 62.5l70 329h53l-110 -516h-53l14 63q-8 -13 -22.5 -26t-33 -23.5t-41.5 -17t-48 -6.5z
" />
    <glyph glyph-name="paragraph" unicode="&#xb6;" 
d="M276 300q-36 0 -65.5 14.5t-50.5 38.5t-33 56t-12 67q0 49 18 90t50.5 71t77.5 46.5t100 16.5h206l-167 -787h-43l158 745h-110l-158 -745h-43l82 387h-10z" />
    <glyph glyph-name="periodcentered" unicode="&#xb7;" 
d="M269 343h105l-22 -105h-105z" />
    <glyph glyph-name="cedilla" unicode="&#xb8;" 
d="M210 -134l18 84h50l-29 -134h-134l11 50h84z" />
    <glyph glyph-name="onesuperior" unicode="&#xb9;" 
d="M275 706l122 101h65l-74 -345h107l-14 -61h-276l14 61h104l53 246l-62 -51z" />
    <glyph glyph-name="ordmasculine" unicode="&#xba;" 
d="M328 356q42 0 71 24t39 69q3 15 7.5 34.5t8.5 39t7 36t3 24.5q0 33 -24 49.5t-56 16.5q-43 0 -72 -24t-39 -69q-3 -15 -7.5 -34.5t-8 -39t-6.5 -36t-3 -24.5q0 -34 23.5 -50t56.5 -16zM320 294q-27 0 -52 8t-44 23t-30 37t-11 51q0 12 2.5 28.5t6 35.5t8 39t8.5 39
q17 83 61.5 119.5t122.5 36.5q27 0 52 -8t43.5 -23t30 -37.5t11.5 -50.5q0 -12 -2.5 -28.5t-6.5 -35.5t-8.5 -39t-8.5 -39q-17 -83 -61.5 -119.5t-121.5 -36.5zM134 207l10 45h317l-9 -45h-318z" />
    <glyph glyph-name="guillemotright" unicode="&#xbb;" 
d="M319 258l-254 -210l-29 34l221 182l-137 176l34 28zM544 258l-254 -210l-29 34l221 182l-137 176l34 28z" />
    <glyph glyph-name="onequarter" unicode="&#xbc;" 
d="M117 635l79 65h42l-48 -221h69l-9 -40h-178l9 40h67l34 158l-40 -34zM497 531l26 -33l-392 -324l-26 33zM448 0l13 63h-115l9 40l150 160l30 -26l-126 -134h61l11 53h42l-11 -53h27l-9 -40h-27l-13 -63h-42z" />
    <glyph glyph-name="onehalf" unicode="&#xbd;" 
d="M117 635l79 65h42l-48 -221h69l-9 -40h-178l9 40h67l34 158l-40 -34zM497 531l26 -33l-392 -324l-26 33zM379 128q-8 9 -12.5 20.5t-4.5 23.5q0 38 24 65.5t67 27.5q29 0 50.5 -20.5t21.5 -49.5q0 -27 -11.5 -45.5t-34.5 -37.5l-84 -72h99l-9 -40h-162l9 40l116 99
q16 14 26 25t10 28q0 14 -9 23.5t-25 9.5q-21 0 -34 -14.5t-13 -35.5q0 -13 7 -21z" />
    <glyph glyph-name="threequarters" unicode="&#xbe;" 
d="M170 435q-15 0 -28 5.5t-23.5 15t-16.5 22.5t-6 27v4.5t1 6.5h41q-1 -3 -1 -8q0 -14 10 -23.5t26 -9.5q21 0 33 14.5t12 35.5q0 13 -9 22.5t-23 10.5l8 38h4q17 0 27 11t10 29q0 11 -7.5 19.5t-20.5 8.5q-34 0 -37 -34h-41q2 32 22.5 53t58.5 21q26 0 45.5 -18t19.5 -47
q0 -22 -8 -39.5t-24 -28.5q16 -19 16 -43q0 -38 -23 -65.5t-66 -27.5zM497 531l26 -33l-392 -324l-26 33zM448 0l13 63h-115l9 40l150 160l30 -26l-126 -134h61l11 53h42l-11 -53h27l-9 -40h-27l-13 -63h-42z" />
    <glyph glyph-name="questiondown" unicode="&#xbf;" 
d="M269 137q-32 -2 -58 -17t-44 -37.5t-28 -49.5t-10 -51q0 -44 29.5 -74t83.5 -30q30 0 55 11.5t43.5 30t30.5 42t16 46.5h72q-5 -44 -23.5 -81t-47.5 -64t-68 -42t-85 -15q-39 0 -72 14t-56.5 37t-36.5 52.5t-13 61.5q0 48 15 89t42 72.5t65.5 50.5t85.5 23l17 80h75
l-32 -149h-56zM399 411h-105l22 105h105z" />
    <glyph glyph-name="Agrave" unicode="&#xc0;" 
d="M425 198h-258l-105 -198h-81l373 700h88l76 -700h-72zM381 600l-177 -333h213zM282 811l10 48l264 -72l-10 -48z" />
    <glyph glyph-name="Aacute" unicode="&#xc1;" 
d="M425 198h-258l-105 -198h-81l373 700h88l76 -700h-72zM381 600l-177 -333h213zM281 733l12 54l264 72l-12 -54z" />
    <glyph glyph-name="Acircumflex" unicode="&#xc2;" 
d="M425 198h-258l-105 -198h-81l373 700h88l76 -700h-72zM381 600l-177 -333h213zM424 805l-167 -72l13 58l157 68l145 -77l-11 -49z" />
    <glyph glyph-name="Atilde" unicode="&#xc3;" 
d="M425 198h-258l-105 -198h-81l373 700h88l76 -700h-72zM381 600l-177 -333h213zM463 737l-91 66l-124 -66l14 63l113 60l91 -66l124 66l-14 -63z" />
    <glyph glyph-name="Adieresis" unicode="&#xc4;" 
d="M425 198h-258l-105 -198h-81l373 700h88l76 -700h-72zM381 600l-177 -333h213zM272 837h76l-17 -76h-76zM508 837h76l-17 -76h-76z" />
    <glyph glyph-name="Aring" unicode="&#xc5;" 
d="M298 765q0 24 9 44.5t24.5 36.5t36 25t44.5 9t44.5 -9t36.5 -25t25 -36.5t9 -44.5q0 -38 -23 -68t-58 -41l72 -656h-72l-21 198h-258l-105 -198h-81l360 675q-20 16 -31.5 39.5t-11.5 50.5zM381 600l-177 -333h213zM347 765q0 -27 19.5 -46.5t46.5 -19.5t46 19.5t19 46.5
t-19.5 46.5t-46.5 19.5t-46 -19.5t-19 -46.5z" />
    <glyph glyph-name="AE" unicode="&#xc6;" 
d="M326 74h165l-16 -74h-242l42 198h-105l-106 -198h-83l373 700h270l-16 -74h-165l-50 -235h95l-16 -74h-95zM289 267l55 256l-136 -256h81z" />
    <glyph glyph-name="Ccedilla" unicode="&#xc7;" 
d="M394 710q39 0 74 -10.5t61.5 -32.5t42 -56t15.5 -80v-19t-2 -19h-78q2 9 2.5 18t0.5 14q0 54 -31.5 82.5t-95.5 28.5q-69 0 -114.5 -41.5t-63.5 -121.5q-29 -129 -44.5 -204t-15.5 -94q0 -54 31.5 -82.5t95.5 -28.5t108.5 36.5t64.5 106.5h77q-27 -106 -88.5 -161.5
t-172.5 -55.5q-39 0 -74 10.5t-61.5 32.5t-42 56t-15.5 80q0 11 0.5 19t2 19.5t5.5 29.5t10.5 48t16.5 75.5t25 112.5q25 115 87.5 176t178.5 61zM199 -134l18 84h50l-29 -134h-134l11 50h84z" />
    <glyph glyph-name="Egrave" unicode="&#xc8;" 
d="M153 74h321l-16 -74h-398l149 700h398l-16 -74h-321l-50 -235h251l-16 -74h-250zM292 811l10 48l264 -72l-10 -48z" />
    <glyph glyph-name="Eacute" unicode="&#xc9;" 
d="M153 74h321l-16 -74h-398l149 700h398l-16 -74h-321l-50 -235h251l-16 -74h-250zM291 733l12 54l264 72l-12 -54z" />
    <glyph glyph-name="Ecircumflex" unicode="&#xca;" 
d="M153 74h321l-16 -74h-398l149 700h398l-16 -74h-321l-50 -235h251l-16 -74h-250zM435 805l-167 -72l13 58l157 68l145 -77l-11 -49z" />
    <glyph glyph-name="Edieresis" unicode="&#xcb;" 
d="M153 74h321l-16 -74h-398l149 700h398l-16 -74h-321l-50 -235h251l-16 -74h-250zM282 837h76l-17 -76h-76zM518 837h76l-17 -76h-76z" />
    <glyph glyph-name="Igrave" unicode="&#xcc;" 
d="M421 626l-117 -552h161l-16 -74h-399l16 74h161l117 552h-161l16 74h399l-16 -74h-161zM282 811l10 48l264 -72l-10 -48z" />
    <glyph glyph-name="Iacute" unicode="&#xcd;" 
d="M421 626l-117 -552h161l-16 -74h-399l16 74h161l117 552h-161l16 74h399l-16 -74h-161zM281 733l12 54l264 72l-12 -54z" />
    <glyph glyph-name="Icircumflex" unicode="&#xce;" 
d="M421 626l-117 -552h161l-16 -74h-399l16 74h161l117 552h-161l16 74h399l-16 -74h-161zM425 805l-167 -72l13 58l157 68l145 -77l-11 -49z" />
    <glyph glyph-name="Idieresis" unicode="&#xcf;" 
d="M421 626l-117 -552h161l-16 -74h-399l16 74h161l117 552h-161l16 74h399l-16 -74h-161zM272 837h76l-17 -76h-76zM508 837h76l-17 -76h-76z" />
    <glyph glyph-name="Eth" unicode="&#xd0;" 
d="M40 0l70 328h-70l9 45h70l70 327h215q39 0 74 -10.5t61.5 -32.5t42 -56t15.5 -80q0 -21 -5.5 -52.5t-13.5 -69.5t-18 -79.5t-19 -82.5q-13 -58 -34 -102t-53.5 -74t-76.5 -45.5t-102 -15.5h-235zM286 74q69 0 114.5 41.5t63.5 121.5q28 128 42 193.5t14 84.5
q0 54 -31.5 82.5t-95.5 28.5h-143l-54 -253h149l-9 -45h-149l-54 -254h153z" />
    <glyph glyph-name="Ntilde" unicode="&#xd1;" 
d="M475 0h-77l-178 565l-120 -565h-77l149 700h77l178 -565l120 565h77zM461 737l-91 66l-124 -66l14 63l113 60l91 -66l124 66l-14 -63z" />
    <glyph glyph-name="Ograve" unicode="&#xd2;" 
d="M524 227q-13 -58 -34 -102t-53.5 -74t-76.5 -45.5t-102 -15.5q-39 0 -74 10.5t-61.5 32.5t-42 56t-15.5 80q0 11 0.5 19t2 19.5t5.5 29.5t10.5 48t16.5 75.5t25 112.5q25 115 87.5 176t178.5 61q39 0 74 -10.5t61.5 -32.5t42 -56t15.5 -80q0 -11 -0.5 -19t-2 -19.5
t-5.5 -29.5t-10.5 -48t-16.5 -75.5t-25 -112.5zM142 175q0 -54 31.5 -82.5t95.5 -28.5q69 0 114.5 41.5t63.5 121.5q29 129 44.5 204t15.5 94q0 54 -31.5 82.5t-95.5 28.5q-69 0 -114.5 -41.5t-63.5 -121.5q-29 -129 -44.5 -204t-15.5 -94zM283 811l10 48l264 -72l-10 -48z
" />
    <glyph glyph-name="Oacute" unicode="&#xd3;" 
d="M524 227q-13 -58 -34 -102t-53.5 -74t-76.5 -45.5t-102 -15.5q-39 0 -74 10.5t-61.5 32.5t-42 56t-15.5 80q0 11 0.5 19t2 19.5t5.5 29.5t10.5 48t16.5 75.5t25 112.5q25 115 87.5 176t178.5 61q39 0 74 -10.5t61.5 -32.5t42 -56t15.5 -80q0 -11 -0.5 -19t-2 -19.5
t-5.5 -29.5t-10.5 -48t-16.5 -75.5t-25 -112.5zM142 175q0 -54 31.5 -82.5t95.5 -28.5q69 0 114.5 41.5t63.5 121.5q29 129 44.5 204t15.5 94q0 54 -31.5 82.5t-95.5 28.5q-69 0 -114.5 -41.5t-63.5 -121.5q-29 -129 -44.5 -204t-15.5 -94zM281 733l12 54l264 72l-12 -54z
" />
    <glyph glyph-name="Ocircumflex" unicode="&#xd4;" 
d="M524 227q-13 -58 -34 -102t-53.5 -74t-76.5 -45.5t-102 -15.5q-39 0 -74 10.5t-61.5 32.5t-42 56t-15.5 80q0 11 0.5 19t2 19.5t5.5 29.5t10.5 48t16.5 75.5t25 112.5q25 115 87.5 176t178.5 61q39 0 74 -10.5t61.5 -32.5t42 -56t15.5 -80q0 -11 -0.5 -19t-2 -19.5
t-5.5 -29.5t-10.5 -48t-16.5 -75.5t-25 -112.5zM142 175q0 -54 31.5 -82.5t95.5 -28.5q69 0 114.5 41.5t63.5 121.5q29 129 44.5 204t15.5 94q0 54 -31.5 82.5t-95.5 28.5q-69 0 -114.5 -41.5t-63.5 -121.5q-29 -129 -44.5 -204t-15.5 -94zM424 805l-167 -72l13 58l157 68
l145 -77l-11 -49z" />
    <glyph glyph-name="Otilde" unicode="&#xd5;" 
d="M524 227q-13 -58 -34 -102t-53.5 -74t-76.5 -45.5t-102 -15.5q-39 0 -74 10.5t-61.5 32.5t-42 56t-15.5 80q0 11 0.5 19t2 19.5t5.5 29.5t10.5 48t16.5 75.5t25 112.5q25 115 87.5 176t178.5 61q39 0 74 -10.5t61.5 -32.5t42 -56t15.5 -80q0 -11 -0.5 -19t-2 -19.5
t-5.5 -29.5t-10.5 -48t-16.5 -75.5t-25 -112.5zM142 175q0 -54 31.5 -82.5t95.5 -28.5q69 0 114.5 41.5t63.5 121.5q29 129 44.5 204t15.5 94q0 54 -31.5 82.5t-95.5 28.5q-69 0 -114.5 -41.5t-63.5 -121.5q-29 -129 -44.5 -204t-15.5 -94zM464 737l-91 66l-124 -66l14 63
l113 60l91 -66l124 66l-14 -63z" />
    <glyph glyph-name="Odieresis" unicode="&#xd6;" 
d="M524 227q-13 -58 -34 -102t-53.5 -74t-76.5 -45.5t-102 -15.5q-39 0 -74 10.5t-61.5 32.5t-42 56t-15.5 80q0 11 0.5 19t2 19.5t5.5 29.5t10.5 48t16.5 75.5t25 112.5q25 115 87.5 176t178.5 61q39 0 74 -10.5t61.5 -32.5t42 -56t15.5 -80q0 -11 -0.5 -19t-2 -19.5
t-5.5 -29.5t-10.5 -48t-16.5 -75.5t-25 -112.5zM142 175q0 -54 31.5 -82.5t95.5 -28.5q69 0 114.5 41.5t63.5 121.5q29 129 44.5 204t15.5 94q0 54 -31.5 82.5t-95.5 28.5q-69 0 -114.5 -41.5t-63.5 -121.5q-29 -129 -44.5 -204t-15.5 -94zM272 837h76l-17 -76h-76zM508 837
h76l-17 -76h-76z" />
    <glyph glyph-name="multiply" unicode="&#xd7;" 
d="M341 280l140 -139l-32 -32l-140 139l-139 -139l-32 32l139 139l-139 139l32 32l139 -139l140 139l32 -32z" />
    <glyph glyph-name="Oslash" unicode="&#xd8;" 
d="M524 227q-13 -58 -34 -102t-53.5 -74t-76.5 -45.5t-102 -15.5q-45 0 -84.5 14t-66.5 44l-65 -81l-34 26l74 92q-17 36 -17 84q0 11 0.5 19t2 19.5t5.5 29.5t10.5 48t16.5 75.5t25 112.5q25 115 87.5 176t178.5 61q45 0 84 -14.5t66 -43.5l65 81l35 -26l-75 -92
q8 -18 13 -39t5 -45q0 -11 -0.5 -19t-2 -19.5t-5.5 -29.5t-10.5 -48t-16.5 -75.5t-25 -112.5zM507 525q0 10 -1 15l-348 -430q31 -46 111 -46q69 0 114.5 41.5t63.5 121.5q29 129 44.5 204t15.5 94zM142 159l348 431q-29 46 -110 46q-69 0 -114.5 -41.5t-63.5 -121.5
q-29 -129 -44.5 -204t-15.5 -94v-16z" />
    <glyph glyph-name="Ugrave" unicode="&#xd9;" 
d="M141 175q0 -54 31.5 -82.5t95.5 -28.5q69 0 115 41.5t63 121.5l104 473h77l-104 -473q-13 -58 -34 -102t-53.5 -74t-76.5 -45.5t-102 -15.5q-39 0 -74 10.5t-61.5 32.5t-42 56t-15.5 80q0 16 9 63.5t24 118t35 160t42 189.5h77q-10 -43 -21.5 -96t-24 -109t-24 -110
t-20.5 -98t-14.5 -74t-5.5 -38zM284 811l10 48l264 -72l-10 -48z" />
    <glyph glyph-name="Uacute" unicode="&#xda;" 
d="M141 175q0 -54 31.5 -82.5t95.5 -28.5q69 0 115 41.5t63 121.5l104 473h77l-104 -473q-13 -58 -34 -102t-53.5 -74t-76.5 -45.5t-102 -15.5q-39 0 -74 10.5t-61.5 32.5t-42 56t-15.5 80q0 16 9 63.5t24 118t35 160t42 189.5h77q-10 -43 -21.5 -96t-24 -109t-24 -110
t-20.5 -98t-14.5 -74t-5.5 -38zM283 733l12 54l264 72l-12 -54z" />
    <glyph glyph-name="Ucircumflex" unicode="&#xdb;" 
d="M141 175q0 -54 31.5 -82.5t95.5 -28.5q69 0 115 41.5t63 121.5l104 473h77l-104 -473q-13 -58 -34 -102t-53.5 -74t-76.5 -45.5t-102 -15.5q-39 0 -74 10.5t-61.5 32.5t-42 56t-15.5 80q0 16 9 63.5t24 118t35 160t42 189.5h77q-10 -43 -21.5 -96t-24 -109t-24 -110
t-20.5 -98t-14.5 -74t-5.5 -38zM427 805l-167 -72l13 58l157 68l145 -77l-11 -49z" />
    <glyph glyph-name="Udieresis" unicode="&#xdc;" 
d="M141 175q0 -54 31.5 -82.5t95.5 -28.5q69 0 115 41.5t63 121.5l104 473h77l-104 -473q-13 -58 -34 -102t-53.5 -74t-76.5 -45.5t-102 -15.5q-39 0 -74 10.5t-61.5 32.5t-42 56t-15.5 80q0 16 9 63.5t24 118t35 160t42 189.5h77q-10 -43 -21.5 -96t-24 -109t-24 -110
t-20.5 -98t-14.5 -74t-5.5 -38zM274 837h76l-17 -76h-76zM510 837h76l-17 -76h-76z" />
    <glyph glyph-name="Yacute" unicode="&#xdd;" 
d="M288 0h-77l59 279l-141 421h75l115 -346l263 346h86l-321 -422zM281 733l12 54l264 72l-12 -54z" />
    <glyph glyph-name="Thorn" unicode="&#xde;" 
d="M578 374q0 -50 -17 -93.5t-50.5 -75.5t-83 -50.5t-114.5 -18.5h-160l-29 -136h-77l149 700h77l-29 -137h149q42 0 76.5 -15.5t58.5 -41.5t37 -60.5t13 -71.5zM325 210q37 0 68.5 11.5t55 32.5t37 50t13.5 64q0 21 -5.5 43t-19.5 39t-37.5 28t-59.5 11h-149l-59 -279h156z
" />
    <glyph glyph-name="germandbls" unicode="&#xdf;" 
d="M194 577q7 33 16 56.5t25 38t41.5 21.5t66.5 7h16l-15 -71h-16q-27 0 -40 -10.5t-18 -35.5l-14 -67h258l-15 -71l-145 -154q57 -21 89.5 -69.5t32.5 -111.5q0 -59 -21.5 -113.5t-61.5 -95.5t-96.5 -65.5t-126.5 -24.5l15 71q39 0 77.5 17.5t69 47t49.5 68t19 79.5
q0 29 -8 54.5t-25 44.5t-43.5 30t-63.5 11l15 71l131 140h-165l-95 -445h-75z" />
    <glyph glyph-name="agrave" unicode="&#xe0;" 
d="M425 252q-43 -2 -75.5 -4.5t-58 -6t-46 -9t-41.5 -13.5q-29 -12 -45 -30.5t-16 -53.5q0 -31 26 -52.5t80 -21.5q60 0 104.5 32t58.5 98zM119 358q26 94 84 133t146 39q34 0 65 -10t55 -28.5t38.5 -46t14.5 -62.5q0 -14 -3.5 -36t-9 -48t-11.5 -54t-11 -53
q-12 -54 -21 -96q-4 -18 -7.5 -35.5t-6.5 -31t-4.5 -21.5l-1.5 -8h-75l12 55q-20 -29 -60 -47t-90 -18q-40 0 -71 11.5t-52 31t-32 44.5t-11 51q0 33 7 58.5t22.5 45t41 34t62.5 25.5q48 14 110.5 19.5t128.5 9.5q3 17 5 30.5t2 21.5q0 23 -9 39.5t-24 27t-34 15.5t-39 5
q-52 0 -89.5 -25t-55.5 -76h-76zM247 657l10 48l264 -72l-10 -48z" />
    <glyph glyph-name="aacute" unicode="&#xe1;" 
d="M425 252q-43 -2 -75.5 -4.5t-58 -6t-46 -9t-41.5 -13.5q-29 -12 -45 -30.5t-16 -53.5q0 -31 26 -52.5t80 -21.5q60 0 104.5 32t58.5 98zM119 358q26 94 84 133t146 39q34 0 65 -10t55 -28.5t38.5 -46t14.5 -62.5q0 -14 -3.5 -36t-9 -48t-11.5 -54t-11 -53
q-12 -54 -21 -96q-4 -18 -7.5 -35.5t-6.5 -31t-4.5 -21.5l-1.5 -8h-75l12 55q-20 -29 -60 -47t-90 -18q-40 0 -71 11.5t-52 31t-32 44.5t-11 51q0 33 7 58.5t22.5 45t41 34t62.5 25.5q48 14 110.5 19.5t128.5 9.5q3 17 5 30.5t2 21.5q0 23 -9 39.5t-24 27t-34 15.5t-39 5
q-52 0 -89.5 -25t-55.5 -76h-76zM247 579l12 54l264 72l-12 -54z" />
    <glyph glyph-name="acircumflex" unicode="&#xe2;" 
d="M425 252q-43 -2 -75.5 -4.5t-58 -6t-46 -9t-41.5 -13.5q-29 -12 -45 -30.5t-16 -53.5q0 -31 26 -52.5t80 -21.5q60 0 104.5 32t58.5 98zM119 358q26 94 84 133t146 39q34 0 65 -10t55 -28.5t38.5 -46t14.5 -62.5q0 -14 -3.5 -36t-9 -48t-11.5 -54t-11 -53
q-12 -54 -21 -96q-4 -18 -7.5 -35.5t-6.5 -31t-4.5 -21.5l-1.5 -8h-75l12 55q-20 -29 -60 -47t-90 -18q-40 0 -71 11.5t-52 31t-32 44.5t-11 51q0 33 7 58.5t22.5 45t41 34t62.5 25.5q48 14 110.5 19.5t128.5 9.5q3 17 5 30.5t2 21.5q0 23 -9 39.5t-24 27t-34 15.5t-39 5
q-52 0 -89.5 -25t-55.5 -76h-76zM390 651l-167 -72l13 58l157 68l145 -77l-11 -49z" />
    <glyph glyph-name="atilde" unicode="&#xe3;" 
d="M425 252q-43 -2 -75.5 -4.5t-58 -6t-46 -9t-41.5 -13.5q-29 -12 -45 -30.5t-16 -53.5q0 -31 26 -52.5t80 -21.5q60 0 104.5 32t58.5 98zM119 358q26 94 84 133t146 39q34 0 65 -10t55 -28.5t38.5 -46t14.5 -62.5q0 -14 -3.5 -36t-9 -48t-11.5 -54t-11 -53
q-12 -54 -21 -96q-4 -18 -7.5 -35.5t-6.5 -31t-4.5 -21.5l-1.5 -8h-75l12 55q-20 -29 -60 -47t-90 -18q-40 0 -71 11.5t-52 31t-32 44.5t-11 51q0 33 7 58.5t22.5 45t41 34t62.5 25.5q48 14 110.5 19.5t128.5 9.5q3 17 5 30.5t2 21.5q0 23 -9 39.5t-24 27t-34 15.5t-39 5
q-52 0 -89.5 -25t-55.5 -76h-76zM428 580l-91 66l-124 -66l14 63l113 60l91 -66l124 66l-14 -63z" />
    <glyph glyph-name="adieresis" unicode="&#xe4;" 
d="M425 252q-43 -2 -75.5 -4.5t-58 -6t-46 -9t-41.5 -13.5q-29 -12 -45 -30.5t-16 -53.5q0 -31 26 -52.5t80 -21.5q60 0 104.5 32t58.5 98zM119 358q26 94 84 133t146 39q34 0 65 -10t55 -28.5t38.5 -46t14.5 -62.5q0 -14 -3.5 -36t-9 -48t-11.5 -54t-11 -53
q-12 -54 -21 -96q-4 -18 -7.5 -35.5t-6.5 -31t-4.5 -21.5l-1.5 -8h-75l12 55q-20 -29 -60 -47t-90 -18q-40 0 -71 11.5t-52 31t-32 44.5t-11 51q0 33 7 58.5t22.5 45t41 34t62.5 25.5q48 14 110.5 19.5t128.5 9.5q3 17 5 30.5t2 21.5q0 23 -9 39.5t-24 27t-34 15.5t-39 5
q-52 0 -89.5 -25t-55.5 -76h-76zM237 683h76l-17 -76h-76zM473 683h76l-17 -76h-76z" />
    <glyph glyph-name="aring" unicode="&#xe5;" 
d="M257 595q0 24 9 44.5t24.5 36.5t36 25t44.5 9t44.5 -9t36.5 -25t25 -36.5t9 -44.5q0 -26 -11.5 -48.5t-30.5 -38.5q35 -18 56.5 -49.5t21.5 -75.5q0 -14 -3.5 -36t-9 -48t-11.5 -54t-11 -53q-12 -54 -21 -96q-4 -18 -7.5 -35.5t-6.5 -31t-4.5 -21.5l-1.5 -8h-75l12 55
q-20 -29 -60 -47t-90 -18q-40 0 -71 11.5t-52 31t-32 44.5t-11 51q0 33 7 58.5t22.5 45t41 34t62.5 25.5q48 14 110.5 19.5t128.5 9.5q3 17 5 30.5t2 21.5q0 23 -9 39.5t-24 27t-34 15.5t-39 5q-52 0 -89.5 -25t-55.5 -76h-76q21 75 62 114t101 51q-25 31 -25 72zM425 252
q-43 -2 -75.5 -4.5t-58 -6t-46 -9t-41.5 -13.5q-29 -12 -45 -30.5t-16 -53.5q0 -31 26 -52.5t80 -21.5q60 0 104.5 32t58.5 98zM306 595q0 -27 19 -46t46 -19t46.5 19t19.5 46t-19.5 46.5t-46.5 19.5t-46 -19.5t-19 -46.5z" />
    <glyph glyph-name="ae" unicode="&#xe6;" 
d="M296 401q0 25 -15 41.5t-46 16.5q-21 0 -36 -9t-25 -23.5t-16 -32.5t-9 -36h-75q7 39 18 70.5t30.5 54t49 35t73.5 12.5q31 0 57.5 -15t38.5 -35q17 21 45.5 35.5t72.5 14.5q29 0 52 -10t39 -27t24.5 -38.5t8.5 -43.5q0 -6 -2.5 -23.5t-7 -41t-10 -51t-10.5 -54.5h-214
q-5 -23 -9 -44t-7.5 -37.5t-5.5 -27.5t-2 -13q0 -25 15 -41.5t46 -16.5q22 0 37 9t25 23.5t15.5 32.5t8.5 36h75q-8 -40 -19 -72t-30.5 -54t-49 -34t-72.5 -12q-31 0 -57.5 15t-38.5 35q-17 -21 -45.5 -35.5t-72.5 -14.5q-29 0 -52 10t-39 27t-24.5 38t-8.5 44q0 13 8 56
q14 72 52 108.5t113 36.5h78q7 35 12 61t5 30zM191 241q-31 0 -51.5 -21t-28.5 -55q-4 -17 -7 -30.5t-3 -15.5q0 -25 15 -41.5t46 -16.5t51.5 20t28.5 54l23 106h-74zM493 310q8 35 12.5 61.5t4.5 29.5q0 25 -15 41.5t-46 16.5q-28 0 -44.5 -14.5t-26 -37t-14.5 -48.5
t-10 -49h139z" />
    <glyph glyph-name="ccedilla" unicode="&#xe7;" 
d="M452 353q1 6 1.5 10.5t0.5 8.5q0 23 -9 39.5t-24 27t-34 15.5t-39 5q-59 0 -99 -32.5t-54 -97.5q-5 -21 -10.5 -47.5t-11 -52t-9 -47.5t-3.5 -34q0 -23 9 -39.5t24 -27t34 -15.5t39 -5q53 0 91.5 26.5t55.5 79.5h75q-26 -97 -83.5 -137t-147.5 -40q-34 0 -65 9.5
t-55 28.5t-38.5 46.5t-14.5 62.5q0 13 3.5 35.5t8.5 48.5t11.5 54t11.5 53q23 111 82.5 156.5t154.5 45.5q34 0 65 -10t55 -28.5t38.5 -46t14.5 -62.5q0 -12 -3 -30h-75zM199 -134l18 84h50l-29 -134h-134l11 50h84z" />
    <glyph glyph-name="egrave" unicode="&#xe8;" 
d="M174 241q-6 -29 -10.5 -54t-4.5 -39q0 -23 9 -39.5t24 -27t34 -15.5t39 -5q52 0 89.5 25t55.5 76h76q-26 -94 -84 -133t-146 -39q-34 0 -65 9.5t-55 28.5t-38.5 46.5t-14.5 62.5q0 13 3.5 35.5t8.5 48.5t11.5 54t11.5 53q23 111 82.5 156.5t154.5 45.5q34 0 65 -10
t55 -28.5t38.5 -46t14.5 -62.5q0 -21 -7.5 -60.5t-16.5 -81.5h-330zM443 309q4 20 6.5 36.5t2.5 26.5q0 23 -9 39.5t-24 27t-34 15.5t-39 5q-67 0 -107 -40t-50 -110h254zM251 657l10 48l264 -72l-10 -48z" />
    <glyph glyph-name="eacute" unicode="&#xe9;" 
d="M174 241q-6 -29 -10.5 -54t-4.5 -39q0 -23 9 -39.5t24 -27t34 -15.5t39 -5q52 0 89.5 25t55.5 76h76q-26 -94 -84 -133t-146 -39q-34 0 -65 9.5t-55 28.5t-38.5 46.5t-14.5 62.5q0 13 3.5 35.5t8.5 48.5t11.5 54t11.5 53q23 111 82.5 156.5t154.5 45.5q34 0 65 -10
t55 -28.5t38.5 -46t14.5 -62.5q0 -21 -7.5 -60.5t-16.5 -81.5h-330zM443 309q4 20 6.5 36.5t2.5 26.5q0 23 -9 39.5t-24 27t-34 15.5t-39 5q-67 0 -107 -40t-50 -110h254zM249 579l12 54l264 72l-12 -54z" />
    <glyph glyph-name="ecircumflex" unicode="&#xea;" 
d="M174 241q-6 -29 -10.5 -54t-4.5 -39q0 -23 9 -39.5t24 -27t34 -15.5t39 -5q52 0 89.5 25t55.5 76h76q-26 -94 -84 -133t-146 -39q-34 0 -65 9.5t-55 28.5t-38.5 46.5t-14.5 62.5q0 13 3.5 35.5t8.5 48.5t11.5 54t11.5 53q23 111 82.5 156.5t154.5 45.5q34 0 65 -10
t55 -28.5t38.5 -46t14.5 -62.5q0 -21 -7.5 -60.5t-16.5 -81.5h-330zM443 309q4 20 6.5 36.5t2.5 26.5q0 23 -9 39.5t-24 27t-34 15.5t-39 5q-67 0 -107 -40t-50 -110h254zM393 651l-167 -72l13 58l157 68l145 -77l-11 -49z" />
    <glyph glyph-name="edieresis" unicode="&#xeb;" 
d="M174 241q-6 -29 -10.5 -54t-4.5 -39q0 -23 9 -39.5t24 -27t34 -15.5t39 -5q52 0 89.5 25t55.5 76h76q-26 -94 -84 -133t-146 -39q-34 0 -65 9.5t-55 28.5t-38.5 46.5t-14.5 62.5q0 13 3.5 35.5t8.5 48.5t11.5 54t11.5 53q23 111 82.5 156.5t154.5 45.5q34 0 65 -10
t55 -28.5t38.5 -46t14.5 -62.5q0 -21 -7.5 -60.5t-16.5 -81.5h-330zM443 309q4 20 6.5 36.5t2.5 26.5q0 23 -9 39.5t-24 27t-34 15.5t-39 5q-67 0 -107 -40t-50 -110h254zM240 683h76l-17 -76h-76zM476 683h76l-17 -76h-76z" />
    <glyph glyph-name="igrave" unicode="&#xec;" 
d="M193 516h207l-95 -445h182l-15 -71h-439l15 71h182l80 374h-133zM251 657l10 48l264 -72l-10 -48z" />
    <glyph glyph-name="iacute" unicode="&#xed;" 
d="M193 516h207l-95 -445h182l-15 -71h-439l15 71h182l80 374h-133zM251 579l12 54l264 72l-12 -54z" />
    <glyph glyph-name="icircumflex" unicode="&#xee;" 
d="M193 516h207l-95 -445h182l-15 -71h-439l15 71h182l80 374h-133zM394 651l-167 -72l13 58l157 68l145 -77l-11 -49z" />
    <glyph glyph-name="idieresis" unicode="&#xef;" 
d="M193 516h207l-95 -445h182l-15 -71h-439l15 71h182l80 374h-133zM242 683h76l-17 -76h-76zM478 683h76l-17 -76h-76z" />
    <glyph glyph-name="eth" unicode="&#xf0;" 
d="M492 192q-23 -111 -83 -156.5t-154 -45.5q-34 0 -65 9.5t-55 28.5t-38.5 46.5t-14.5 62.5q0 13 3.5 35.5t8.5 48.5t11.5 54t11.5 53q23 111 82.5 156.5t154.5 45.5q18 0 37 -4l-31 59h-136l9 43h105l-37 72h79l37 -72h81l-9 -43h-50l68 -131q8 -16 14 -33.5t6 -37.5
q0 -14 -3.5 -36t-9 -48t-11.5 -54t-11 -53zM264 61q59 0 99 32.5t54 97.5q4 21 10 47.5t11.5 52t9 47.5t3.5 34q0 23 -9 39.5t-24 27t-34 15.5t-39 5q-59 0 -99 -32.5t-54 -97.5q-5 -21 -10.5 -47.5t-11 -52t-9 -47.5t-3.5 -34q0 -23 9 -39.5t24 -27t34 -15.5t39 -5z" />
    <glyph glyph-name="ntilde" unicode="&#xf1;" 
d="M431 580l-91 66l-124 -66l14 63l113 60l91 -66l124 66l-14 -63zM362 530q30 0 60 -10t53.5 -28.5t38 -46t14.5 -62.5q0 -14 -3.5 -36t-9 -48t-11.5 -54t-11 -53l-41 -192h-75l41 191q5 21 11 47.5t11 52t8.5 47.5t3.5 34q0 23 -9 39.5t-24 27t-34 15.5t-39 5
q-59 0 -99 -32.5t-54 -97.5l-70 -329h-75l110 516h75l-11 -51q17 26 53 45.5t87 19.5z" />
    <glyph glyph-name="ograve" unicode="&#xf2;" 
d="M492 192q-23 -111 -83 -156.5t-154 -45.5q-34 0 -65 9.5t-55 28.5t-38.5 46.5t-14.5 62.5q0 13 3.5 35.5t8.5 48.5t11.5 54t11.5 53q23 111 82.5 156.5t154.5 45.5q34 0 65 -10t55 -28.5t38.5 -46t14.5 -62.5q0 -14 -3.5 -36t-9 -48t-11.5 -54t-11 -53zM264 61
q59 0 99 32.5t54 97.5q4 21 10 47.5t11.5 52t9 47.5t3.5 34q0 23 -9 39.5t-24 27t-34 15.5t-39 5q-59 0 -99 -32.5t-54 -97.5q-5 -21 -10.5 -47.5t-11 -52t-9 -47.5t-3.5 -34q0 -23 9 -39.5t24 -27t34 -15.5t39 -5zM249 657l10 48l264 -72l-10 -48z" />
    <glyph glyph-name="oacute" unicode="&#xf3;" 
d="M492 192q-23 -111 -83 -156.5t-154 -45.5q-34 0 -65 9.5t-55 28.5t-38.5 46.5t-14.5 62.5q0 13 3.5 35.5t8.5 48.5t11.5 54t11.5 53q23 111 82.5 156.5t154.5 45.5q34 0 65 -10t55 -28.5t38.5 -46t14.5 -62.5q0 -14 -3.5 -36t-9 -48t-11.5 -54t-11 -53zM264 61
q59 0 99 32.5t54 97.5q4 21 10 47.5t11.5 52t9 47.5t3.5 34q0 23 -9 39.5t-24 27t-34 15.5t-39 5q-59 0 -99 -32.5t-54 -97.5q-5 -21 -10.5 -47.5t-11 -52t-9 -47.5t-3.5 -34q0 -23 9 -39.5t24 -27t34 -15.5t39 -5zM248 579l12 54l264 72l-12 -54z" />
    <glyph glyph-name="ocircumflex" unicode="&#xf4;" 
d="M492 192q-23 -111 -83 -156.5t-154 -45.5q-34 0 -65 9.5t-55 28.5t-38.5 46.5t-14.5 62.5q0 13 3.5 35.5t8.5 48.5t11.5 54t11.5 53q23 111 82.5 156.5t154.5 45.5q34 0 65 -10t55 -28.5t38.5 -46t14.5 -62.5q0 -14 -3.5 -36t-9 -48t-11.5 -54t-11 -53zM264 61
q59 0 99 32.5t54 97.5q4 21 10 47.5t11.5 52t9 47.5t3.5 34q0 23 -9 39.5t-24 27t-34 15.5t-39 5q-59 0 -99 -32.5t-54 -97.5q-5 -21 -10.5 -47.5t-11 -52t-9 -47.5t-3.5 -34q0 -23 9 -39.5t24 -27t34 -15.5t39 -5zM393 651l-167 -72l13 58l157 68l145 -77l-11 -49z" />
    <glyph glyph-name="otilde" unicode="&#xf5;" 
d="M430 580l-91 66l-124 -66l14 63l113 60l91 -66l124 66l-14 -63zM492 192q-23 -111 -83 -156.5t-154 -45.5q-34 0 -65 9.5t-55 28.5t-38.5 46.5t-14.5 62.5q0 13 3.5 35.5t8.5 48.5t11.5 54t11.5 53q23 111 82.5 156.5t154.5 45.5q34 0 65 -10t55 -28.5t38.5 -46
t14.5 -62.5q0 -14 -3.5 -36t-9 -48t-11.5 -54t-11 -53zM264 61q59 0 99 32.5t54 97.5q4 21 10 47.5t11.5 52t9 47.5t3.5 34q0 23 -9 39.5t-24 27t-34 15.5t-39 5q-59 0 -99 -32.5t-54 -97.5q-5 -21 -10.5 -47.5t-11 -52t-9 -47.5t-3.5 -34q0 -23 9 -39.5t24 -27t34 -15.5
t39 -5z" />
    <glyph glyph-name="odieresis" unicode="&#xf6;" 
d="M492 192q-23 -111 -83 -156.5t-154 -45.5q-34 0 -65 9.5t-55 28.5t-38.5 46.5t-14.5 62.5q0 13 3.5 35.5t8.5 48.5t11.5 54t11.5 53q23 111 82.5 156.5t154.5 45.5q34 0 65 -10t55 -28.5t38.5 -46t14.5 -62.5q0 -14 -3.5 -36t-9 -48t-11.5 -54t-11 -53zM264 61
q59 0 99 32.5t54 97.5q4 21 10 47.5t11.5 52t9 47.5t3.5 34q0 23 -9 39.5t-24 27t-34 15.5t-39 5q-59 0 -99 -32.5t-54 -97.5q-5 -21 -10.5 -47.5t-11 -52t-9 -47.5t-3.5 -34q0 -23 9 -39.5t24 -27t34 -15.5t39 -5zM239 683h76l-17 -76h-76zM475 683h76l-17 -76h-76z" />
    <glyph glyph-name="divide" unicode="&#xf7;" 
d="M267 479q0 17 12.5 29.5t29.5 12.5t29.5 -12.5t12.5 -29.5t-12.5 -29.5t-29.5 -12.5t-29.5 12.5t-12.5 29.5zM267 82q0 17 12.5 29.5t29.5 12.5t29.5 -12.5t12.5 -29.5t-12.5 -29.5t-29.5 -12.5t-29.5 12.5t-12.5 29.5zM111 258v45h396v-45h-396z" />
    <glyph glyph-name="oslash" unicode="&#xf8;" 
d="M492 192q-23 -111 -83 -156.5t-154 -45.5q-32 0 -61.5 8t-52.5 25l-46 -56l-36 27l49 61q-12 17 -19 37t-7 45q0 13 3.5 35.5t8.5 48.5t11.5 54t11.5 53q23 111 82.5 156.5t154.5 45.5q31 0 60.5 -8t52.5 -25l45 56l36 -27l-49 -60q28 -34 28 -83q0 -14 -3.5 -36t-9 -48
t-11.5 -54t-11 -53zM264 61q59 0 99 32.5t54 97.5q4 21 10 47.5t11.5 52t9 47.5t3.5 34q0 14 -5 29l-257 -318q15 -11 34.5 -16.5t40.5 -5.5zM158 148q0 -16 4 -27l256 317q-30 21 -73 21q-59 0 -99 -32.5t-54 -97.5q-5 -21 -10.5 -47.5t-11 -52t-9 -47.5t-3.5 -34z" />
    <glyph glyph-name="ugrave" unicode="&#xf9;" 
d="M248 -10q-30 0 -59 9.5t-52.5 28.5t-38 46.5t-14.5 62.5q0 13 3.5 35.5t8.5 48.5t11.5 54t11.5 53l40 188h75l-40 -187q-5 -21 -10.5 -47.5t-11 -52t-9 -47.5t-3.5 -34q0 -23 9 -39t23 -27t32.5 -16t38.5 -5q57 0 96.5 33t53.5 97l69 325h75l-110 -516h-75l12 55
q-17 -25 -52.5 -45t-83.5 -20zM248 657l10 48l264 -72l-10 -48z" />
    <glyph glyph-name="uacute" unicode="&#xfa;" 
d="M248 -10q-30 0 -59 9.5t-52.5 28.5t-38 46.5t-14.5 62.5q0 13 3.5 35.5t8.5 48.5t11.5 54t11.5 53l40 188h75l-40 -187q-5 -21 -10.5 -47.5t-11 -52t-9 -47.5t-3.5 -34q0 -23 9 -39t23 -27t32.5 -16t38.5 -5q57 0 96.5 33t53.5 97l69 325h75l-110 -516h-75l12 55
q-17 -25 -52.5 -45t-83.5 -20zM247 579l12 54l264 72l-12 -54z" />
    <glyph glyph-name="ucircumflex" unicode="&#xfb;" 
d="M248 -10q-30 0 -59 9.5t-52.5 28.5t-38 46.5t-14.5 62.5q0 13 3.5 35.5t8.5 48.5t11.5 54t11.5 53l40 188h75l-40 -187q-5 -21 -10.5 -47.5t-11 -52t-9 -47.5t-3.5 -34q0 -23 9 -39t23 -27t32.5 -16t38.5 -5q57 0 96.5 33t53.5 97l69 325h75l-110 -516h-75l12 55
q-17 -25 -52.5 -45t-83.5 -20zM392 651l-167 -72l13 58l157 68l145 -77l-11 -49z" />
    <glyph glyph-name="udieresis" unicode="&#xfc;" 
d="M248 -10q-30 0 -59 9.5t-52.5 28.5t-38 46.5t-14.5 62.5q0 13 3.5 35.5t8.5 48.5t11.5 54t11.5 53l40 188h75l-40 -187q-5 -21 -10.5 -47.5t-11 -52t-9 -47.5t-3.5 -34q0 -23 9 -39t23 -27t32.5 -16t38.5 -5q57 0 96.5 33t53.5 97l69 325h75l-110 -516h-75l12 55
q-17 -25 -52.5 -45t-83.5 -20zM238 683h76l-17 -76h-76zM474 683h76l-17 -76h-76z" />
    <glyph glyph-name="yacute" unicode="&#xfd;" 
d="M210 -10l-79 526h73l62 -427l240 427h81l-370 -647q-17 -30 -46.5 -41t-78.5 -12h-47l15 71h56q24 0 34.5 8.5t18.5 22.5zM248 579l12 54l264 72l-12 -54z" />
    <glyph glyph-name="thorn" unicode="&#xfe;" 
d="M268 61q59 0 99 32.5t54 97.5q4 21 10 47.5t11.5 52t9 47.5t3.5 34q0 23 -9 39.5t-24 27t-34 15.5t-39 5q-59 0 -99 -32.5t-54 -97.5q-5 -21 -10.5 -47.5t-11 -52t-9 -47.5t-3.5 -34q0 -23 9 -39.5t24 -27t34 -15.5t39 -5zM225 465q17 26 53 45.5t87 19.5q30 0 60 -10
t53.5 -28.5t38 -46t14.5 -62.5q0 -14 -3.5 -36t-9 -48t-11.5 -54t-11 -53q-12 -56 -33 -94.5t-50 -62.5t-66 -34.5t-81 -10.5q-45 0 -77.5 20.5t-48.5 53.5l-53 -248h-75l188 884h75z" />
    <glyph glyph-name="ydieresis" unicode="&#xff;" 
d="M210 -10l-79 526h73l62 -427l240 427h81l-370 -647q-17 -30 -46.5 -41t-78.5 -12h-47l15 71h56q24 0 34.5 8.5t18.5 22.5zM239 683h76l-17 -76h-76zM475 683h76l-17 -76h-76z" />
    <glyph glyph-name="Abreve" unicode="&#x102;" 
d="M425 198h-258l-105 -198h-81l373 700h88l76 -700h-72zM381 600l-177 -333h213zM377 743q-40 0 -65 25t-25 63v11t2 12h47q-1 -5 -1 -13q0 -21 13.5 -35t36.5 -14h55q31 0 52.5 20t26.5 42h52q-10 -46 -45 -78.5t-89 -32.5h-60z" />
    <glyph glyph-name="Amacron" unicode="&#x100;" 
d="M425 198h-258l-105 -198h-81l373 700h88l76 -700h-72zM381 600l-177 -333h213zM257 774l11 50h312l-11 -50h-312z" />
    <glyph glyph-name="Aogonek" unicode="&#x104;" 
d="M518 0q-15 -6 -32.5 -14.5t-32.5 -20t-25 -27t-10 -34.5q0 -44 46 -44q12 0 24 3l-10 -49q-9 -2 -14.5 -2.5t-11.5 -0.5q-37 0 -60 26.5t-23 59.5q0 40 20.5 64.5t56.5 38.5l-21 198h-258l-105 -198h-81l373 700h88zM381 600l-177 -333h213z" />
    <glyph glyph-name="Cacute" unicode="&#x106;" 
d="M394 710q39 0 74 -10.5t61.5 -32.5t42 -56t15.5 -80v-19t-2 -19h-78q2 9 2.5 18t0.5 14q0 54 -31.5 82.5t-95.5 28.5q-69 0 -114.5 -41.5t-63.5 -121.5q-29 -129 -44.5 -204t-15.5 -94q0 -54 31.5 -82.5t95.5 -28.5t108.5 36.5t64.5 106.5h77q-27 -106 -88.5 -161.5
t-172.5 -55.5q-39 0 -74 10.5t-61.5 32.5t-42 56t-15.5 80q0 11 0.5 19t2 19.5t5.5 29.5t10.5 48t16.5 75.5t25 112.5q25 115 87.5 176t178.5 61zM283 733l12 54l264 72l-12 -54z" />
    <glyph glyph-name="Ccaron" unicode="&#x10c;" 
d="M394 710q39 0 74 -10.5t61.5 -32.5t42 -56t15.5 -80v-19t-2 -19h-78q2 9 2.5 18t0.5 14q0 54 -31.5 82.5t-95.5 28.5q-69 0 -114.5 -41.5t-63.5 -121.5q-29 -129 -44.5 -204t-15.5 -94q0 -54 31.5 -82.5t95.5 -28.5t108.5 36.5t64.5 106.5h77q-27 -106 -88.5 -161.5
t-172.5 -55.5q-39 0 -74 10.5t-61.5 32.5t-42 56t-15.5 80q0 11 0.5 19t2 19.5t5.5 29.5t10.5 48t16.5 75.5t25 112.5q25 115 87.5 176t178.5 61zM416 787l167 72l-13 -58l-157 -68l-145 77l11 49z" />
    <glyph glyph-name="Ccircumflex" unicode="&#x108;" 
d="M394 710q39 0 74 -10.5t61.5 -32.5t42 -56t15.5 -80v-19t-2 -19h-78q2 9 2.5 18t0.5 14q0 54 -31.5 82.5t-95.5 28.5q-69 0 -114.5 -41.5t-63.5 -121.5q-29 -129 -44.5 -204t-15.5 -94q0 -54 31.5 -82.5t95.5 -28.5t108.5 36.5t64.5 106.5h77q-27 -106 -88.5 -161.5
t-172.5 -55.5q-39 0 -74 10.5t-61.5 32.5t-42 56t-15.5 80q0 11 0.5 19t2 19.5t5.5 29.5t10.5 48t16.5 75.5t25 112.5q25 115 87.5 176t178.5 61zM426 805l-167 -72l13 58l157 68l145 -77l-11 -49z" />
    <glyph glyph-name="Cdotaccent" unicode="&#x10a;" 
d="M394 710q39 0 74 -10.5t61.5 -32.5t42 -56t15.5 -80v-19t-2 -19h-78q2 9 2.5 18t0.5 14q0 54 -31.5 82.5t-95.5 28.5q-69 0 -114.5 -41.5t-63.5 -121.5q-29 -129 -44.5 -204t-15.5 -94q0 -54 31.5 -82.5t95.5 -28.5t108.5 36.5t64.5 106.5h77q-27 -106 -88.5 -161.5
t-172.5 -55.5q-39 0 -74 10.5t-61.5 32.5t-42 56t-15.5 80q0 11 0.5 19t2 19.5t5.5 29.5t10.5 48t16.5 75.5t25 112.5q25 115 87.5 176t178.5 61zM392 837h76l-17 -76h-76z" />
    <glyph glyph-name="Dcaron" unicode="&#x10e;" 
d="M273 74q69 0 114.5 41.5t63.5 121.5q28 128 42 193.5t14 84.5q0 54 -31.5 82.5t-95.5 28.5h-143l-117 -552h153zM27 0l149 700h215q39 0 74 -10.5t61.5 -32.5t42 -56t15.5 -80q0 -21 -5.5 -52.5t-13.5 -69.5t-18 -79.5t-19 -82.5q-13 -58 -34 -102t-53.5 -74t-76.5 -45.5
t-102 -15.5h-235zM396 787l167 72l-13 -58l-157 -68l-145 77l11 49z" />
    <glyph glyph-name="Dcroat" unicode="&#x110;" 
d="M39 0l70 328h-70l9 45h70l70 327h215q39 0 74 -10.5t61.5 -32.5t42 -56t15.5 -80q0 -21 -5.5 -52.5t-13.5 -69.5t-18 -79.5t-19 -82.5q-13 -58 -34 -102t-53.5 -74t-76.5 -45.5t-102 -15.5h-235zM285 74q69 0 114.5 41.5t63.5 121.5q28 128 42 193.5t14 84.5
q0 54 -31.5 82.5t-95.5 28.5h-143l-54 -253h149l-9 -45h-149l-54 -254h153z" />
    <glyph glyph-name="Ebreve" unicode="&#x114;" 
d="M153 74h321l-16 -74h-398l149 700h398l-16 -74h-321l-50 -235h251l-16 -74h-250zM387 743q-40 0 -65 25t-25 63v11t2 12h47q-1 -5 -1 -13q0 -21 13.5 -35t36.5 -14h55q31 0 52.5 20t26.5 42h52q-10 -46 -45 -78.5t-89 -32.5h-60z" />
    <glyph glyph-name="Ecaron" unicode="&#x11a;" 
d="M153 74h321l-16 -74h-398l149 700h398l-16 -74h-321l-50 -235h251l-16 -74h-250zM423 787l167 72l-13 -58l-157 -68l-145 77l11 49z" />
    <glyph glyph-name="Emacron" unicode="&#x112;" 
d="M153 74h321l-16 -74h-398l149 700h398l-16 -74h-321l-50 -235h251l-16 -74h-250zM267 774l11 50h312l-11 -50h-312z" />
    <glyph glyph-name="Eogonek" unicode="&#x118;" 
d="M153 74h321l-16 -74h-398l149 700h398l-16 -74h-321l-50 -235h251l-16 -74h-250zM418 -186q-9 -2 -14.5 -2.5t-11.5 -0.5q-37 0 -60 26.5t-23 59.5q0 40 20 66t46 37h83q-15 -6 -32.5 -14.5t-32.5 -20t-25 -27t-10 -34.5q0 -44 46 -44q12 0 24 3z" />
    <glyph glyph-name="Edotaccent" unicode="&#x116;" 
d="M153 74h321l-16 -74h-398l149 700h398l-16 -74h-321l-50 -235h251l-16 -74h-250zM400 837h76l-17 -76h-76z" />
    <glyph glyph-name="Gbreve" unicode="&#x11e;" 
d="M315 297l16 74h226q-6 -29 -13.5 -63.5t-18.5 -80.5q-13 -58 -34 -102t-53.5 -74t-76.5 -45.5t-102 -15.5q-39 0 -74 10.5t-61.5 32.5t-42 56t-15.5 80q0 11 0.5 19t2 19.5t5.5 29.5t10.5 48t16.5 75.5t25 112.5q25 115 87.5 176t178.5 61q39 0 74 -10.5t61.5 -32.5
t42 -56t15.5 -80v-19t-2 -19h-78q2 9 2.5 18t0.5 14q0 54 -31.5 82.5t-95.5 28.5q-69 0 -114.5 -41.5t-63.5 -121.5q-29 -129 -44.5 -204t-15.5 -94q0 -54 31.5 -82.5t95.5 -28.5q69 0 114.5 41.5t63.5 121.5q5 19 8 36t7 34h-148zM379 743q-40 0 -65 25t-25 63v11t2 12h47
q-1 -5 -1 -13q0 -21 13.5 -35t36.5 -14h55q31 0 52.5 20t26.5 42h52q-10 -46 -45 -78.5t-89 -32.5h-60z" />
    <glyph glyph-name="Gcircumflex" unicode="&#x11c;" 
d="M315 297l16 74h226q-6 -29 -13.5 -63.5t-18.5 -80.5q-13 -58 -34 -102t-53.5 -74t-76.5 -45.5t-102 -15.5q-39 0 -74 10.5t-61.5 32.5t-42 56t-15.5 80q0 11 0.5 19t2 19.5t5.5 29.5t10.5 48t16.5 75.5t25 112.5q25 115 87.5 176t178.5 61q39 0 74 -10.5t61.5 -32.5
t42 -56t15.5 -80v-19t-2 -19h-78q2 9 2.5 18t0.5 14q0 54 -31.5 82.5t-95.5 28.5q-69 0 -114.5 -41.5t-63.5 -121.5q-29 -129 -44.5 -204t-15.5 -94q0 -54 31.5 -82.5t95.5 -28.5q69 0 114.5 41.5t63.5 121.5q5 19 8 36t7 34h-148zM425 805l-167 -72l13 58l157 68l145 -77
l-11 -49z" />
    <glyph glyph-name="Gcommaaccent" unicode="&#x122;" 
d="M315 297l16 74h226q-6 -29 -13.5 -63.5t-18.5 -80.5q-13 -58 -34 -102t-53.5 -74t-76.5 -45.5t-102 -15.5q-39 0 -74 10.5t-61.5 32.5t-42 56t-15.5 80q0 11 0.5 19t2 19.5t5.5 29.5t10.5 48t16.5 75.5t25 112.5q25 115 87.5 176t178.5 61q39 0 74 -10.5t61.5 -32.5
t42 -56t15.5 -80v-19t-2 -19h-78q2 9 2.5 18t0.5 14q0 54 -31.5 82.5t-95.5 28.5q-69 0 -114.5 -41.5t-63.5 -121.5q-29 -129 -44.5 -204t-15.5 -94q0 -54 31.5 -82.5t95.5 -28.5q69 0 114.5 41.5t63.5 121.5q5 19 8 36t7 34h-148zM194 -189l-36 37l100 99l36 -36z" />
    <glyph glyph-name="Gdotaccent" unicode="&#x120;" 
d="M315 297l16 74h226q-6 -29 -13.5 -63.5t-18.5 -80.5q-13 -58 -34 -102t-53.5 -74t-76.5 -45.5t-102 -15.5q-39 0 -74 10.5t-61.5 32.5t-42 56t-15.5 80q0 11 0.5 19t2 19.5t5.5 29.5t10.5 48t16.5 75.5t25 112.5q25 115 87.5 176t178.5 61q39 0 74 -10.5t61.5 -32.5
t42 -56t15.5 -80v-19t-2 -19h-78q2 9 2.5 18t0.5 14q0 54 -31.5 82.5t-95.5 28.5q-69 0 -114.5 -41.5t-63.5 -121.5q-29 -129 -44.5 -204t-15.5 -94q0 -54 31.5 -82.5t95.5 -28.5q69 0 114.5 41.5t63.5 121.5q5 19 8 36t7 34h-148zM392 837h76l-17 -76h-76z" />
    <glyph glyph-name="Hbar" unicode="&#x126;" 
d="M586 523l-111 -523h-77l67 317h-297l-68 -317h-77l111 523h-68l9 45h69l28 132h77l-29 -132h298l29 132h77l-28 -132h71l-9 -45h-72zM509 523h-298l-28 -132h298z" />
    <glyph glyph-name="Hcircumflex" unicode="&#x124;" 
d="M547 700h77l-149 -700h-77l67 317h-297l-68 -317h-77l149 700h77l-66 -309h298zM424 805l-167 -72l13 58l157 68l145 -77l-11 -49z" />
    <glyph glyph-name="Ibreve" unicode="&#x12c;" 
d="M421 626l-117 -552h161l-16 -74h-399l16 74h161l117 552h-161l16 74h399l-16 -74h-161zM378 743q-40 0 -65 25t-25 63v11t2 12h47q-1 -5 -1 -13q0 -21 13.5 -35t36.5 -14h55q31 0 52.5 20t26.5 42h52q-10 -46 -45 -78.5t-89 -32.5h-60z" />
    <glyph glyph-name="Idotaccent" unicode="&#x130;" 
d="M421 626l-117 -552h161l-16 -74h-399l16 74h161l117 552h-161l16 74h399l-16 -74h-161zM390 837h76l-17 -76h-76z" />
    <glyph glyph-name="Imacron" unicode="&#x12a;" 
d="M421 626l-117 -552h161l-16 -74h-399l16 74h161l117 552h-161l16 74h399l-16 -74h-161zM257 774l11 50h312l-11 -50h-312z" />
    <glyph glyph-name="Iogonek" unicode="&#x12e;" 
d="M421 626l-117 -552h161l-16 -74h-399l16 74h161l117 552h-161l16 74h399l-16 -74h-161zM409 -186q-9 -2 -14.5 -2.5t-11.5 -0.5q-37 0 -60 26.5t-23 59.5q0 40 20 66t46 37h83q-15 -6 -32.5 -14.5t-32.5 -20t-25 -27t-10 -34.5q0 -44 46 -44q12 0 24 3z" />
    <glyph glyph-name="Itilde" unicode="&#x128;" 
d="M421 626l-117 -552h161l-16 -74h-399l16 74h161l117 552h-161l16 74h399l-16 -74h-161zM463 737l-91 66l-124 -66l14 63l113 60l91 -66l124 66l-14 -63z" />
    <glyph glyph-name="uni1ECA" unicode="&#x1eca;" 
d="M421 626l-117 -552h161l-16 -74h-399l16 74h161l117 552h-161l16 74h399l-16 -74h-161zM193 -86h76l-17 -76h-76z" />
    <glyph glyph-name="Jcircumflex" unicode="&#x134;" 
d="M134 200q-3 -17 -3 -25q0 -54 31.5 -82.5t95.5 -28.5q69 0 115 41.5t63 121.5l85 399h-322l16 74h399l-101 -473q-25 -116 -87.5 -176.5t-178.5 -60.5q-39 0 -74 10.5t-61.5 32.5t-42 56t-15.5 80q0 9 0.5 18t1.5 13h78zM441 805l-167 -72l13 58l157 68l145 -77l-11 -49z
" />
    <glyph glyph-name="Kcommaaccent" unicode="&#x136;" 
d="M95 0h-77l149 700h77l-80 -376l400 376h101l-307 -288l184 -412h-81l-160 359l-162 -153zM206 -189l-36 37l100 99l36 -36z" />
    <glyph glyph-name="Lacute" unicode="&#x139;" 
d="M216 700h77l-133 -626h321l-16 -74h-398zM138 733l12 54l264 72l-12 -54z" />
    <glyph glyph-name="Lcaron" unicode="&#x13d;" 
d="M477 574l-87 -116l-43 25l85 113l22 104h50zM216 700h77l-133 -626h321l-16 -74h-398z" />
    <glyph glyph-name="Lcommaaccent" unicode="&#x13b;" 
d="M216 700h77l-133 -626h321l-16 -74h-398zM209 -189l-36 37l100 99l36 -36z" />
    <glyph glyph-name="Ldot" unicode="&#x13f;" 
d="M216 700h77l-133 -626h321l-16 -74h-398zM481 427h76l-17 -76h-76z" />
    <glyph glyph-name="Lslash" unicode="&#x141;" 
d="M155 270l-65 -32l-14 41l91 45l80 376h77l-71 -334l174 86l13 -41l-198 -98l-51 -239h321l-16 -74h-398z" />
    <glyph glyph-name="Eng" unicode="&#x14a;" 
d="M475 0q-20 -96 -68.5 -140t-139.5 -44h-55l16 75h50q50 0 78 29t42 80l-178 565l-120 -565h-77l149 700h77l178 -565l120 565h77z" />
    <glyph glyph-name="Nacute" unicode="&#x143;" 
d="M475 0h-77l-178 565l-120 -565h-77l149 700h77l178 -565l120 565h77zM281 733l12 54l264 72l-12 -54z" />
    <glyph glyph-name="Ncaron" unicode="&#x147;" 
d="M475 0h-77l-178 565l-120 -565h-77l149 700h77l178 -565l120 565h77zM413 787l167 72l-13 -58l-157 -68l-145 77l11 49z" />
    <glyph glyph-name="Ncommaaccent" unicode="&#x145;" 
d="M475 0h-77l-178 565l-120 -565h-77l149 700h77l178 -565l120 565h77zM192 -189l-36 37l100 99l36 -36z" />
    <glyph glyph-name="OE" unicode="&#x152;" 
d="M342 74h165l-16 -74h-232q-39 0 -74 10.5t-61.5 32.5t-42 56t-15.5 80q0 5 0.5 10.5t2 16.5t5 28.5l9.5 47.5t15.5 74t23.5 107q25 115 87.5 176t178.5 61h252l-16 -74h-165l-50 -235h95l-16 -74h-95zM143 185q0 -54 30 -82t92 -29l117 552h-5q-69 0 -114.5 -41.5
t-63.5 -121.5q-29 -128 -42.5 -193.5t-13.5 -84.5z" />
    <glyph glyph-name="Obreve" unicode="&#x14e;" 
d="M524 227q-13 -58 -34 -102t-53.5 -74t-76.5 -45.5t-102 -15.5q-39 0 -74 10.5t-61.5 32.5t-42 56t-15.5 80q0 11 0.5 19t2 19.5t5.5 29.5t10.5 48t16.5 75.5t25 112.5q25 115 87.5 176t178.5 61q39 0 74 -10.5t61.5 -32.5t42 -56t15.5 -80q0 -11 -0.5 -19t-2 -19.5
t-5.5 -29.5t-10.5 -48t-16.5 -75.5t-25 -112.5zM142 175q0 -54 31.5 -82.5t95.5 -28.5q69 0 114.5 41.5t63.5 121.5q29 129 44.5 204t15.5 94q0 54 -31.5 82.5t-95.5 28.5q-69 0 -114.5 -41.5t-63.5 -121.5q-29 -129 -44.5 -204t-15.5 -94zM378 743q-40 0 -65 25t-25 63v11
t2 12h47q-1 -5 -1 -13q0 -21 13.5 -35t36.5 -14h55q31 0 52.5 20t26.5 42h52q-10 -46 -45 -78.5t-89 -32.5h-60z" />
    <glyph glyph-name="Ohungarumlaut" unicode="&#x150;" 
d="M524 227q-13 -58 -34 -102t-53.5 -74t-76.5 -45.5t-102 -15.5q-39 0 -74 10.5t-61.5 32.5t-42 56t-15.5 80q0 11 0.5 19t2 19.5t5.5 29.5t10.5 48t16.5 75.5t25 112.5q25 115 87.5 176t178.5 61q39 0 74 -10.5t61.5 -32.5t42 -56t15.5 -80q0 -11 -0.5 -19t-2 -19.5
t-5.5 -29.5t-10.5 -48t-16.5 -75.5t-25 -112.5zM142 175q0 -54 31.5 -82.5t95.5 -28.5q69 0 114.5 41.5t63.5 121.5q29 129 44.5 204t15.5 94q0 54 -31.5 82.5t-95.5 28.5q-69 0 -114.5 -41.5t-63.5 -121.5q-29 -129 -44.5 -204t-15.5 -94zM258 753l12 54l126 35l-12 -54z
M444 753l12 54l126 35l-12 -54z" />
    <glyph glyph-name="Omacron" unicode="&#x14c;" 
d="M524 227q-13 -58 -34 -102t-53.5 -74t-76.5 -45.5t-102 -15.5q-39 0 -74 10.5t-61.5 32.5t-42 56t-15.5 80q0 11 0.5 19t2 19.5t5.5 29.5t10.5 48t16.5 75.5t25 112.5q25 115 87.5 176t178.5 61q39 0 74 -10.5t61.5 -32.5t42 -56t15.5 -80q0 -11 -0.5 -19t-2 -19.5
t-5.5 -29.5t-10.5 -48t-16.5 -75.5t-25 -112.5zM142 175q0 -54 31.5 -82.5t95.5 -28.5q69 0 114.5 41.5t63.5 121.5q29 129 44.5 204t15.5 94q0 54 -31.5 82.5t-95.5 28.5q-69 0 -114.5 -41.5t-63.5 -121.5q-29 -129 -44.5 -204t-15.5 -94zM259 774l11 50h312l-11 -50h-312z
" />
    <glyph glyph-name="uni1ECC" unicode="&#x1ecc;" 
d="M524 227q-13 -58 -34 -102t-53.5 -74t-76.5 -45.5t-102 -15.5q-39 0 -74 10.5t-61.5 32.5t-42 56t-15.5 80q0 11 0.5 19t2 19.5t5.5 29.5t10.5 48t16.5 75.5t25 112.5q25 115 87.5 176t178.5 61q39 0 74 -10.5t61.5 -32.5t42 -56t15.5 -80q0 -11 -0.5 -19t-2 -19.5
t-5.5 -29.5t-10.5 -48t-16.5 -75.5t-25 -112.5zM142 175q0 -54 31.5 -82.5t95.5 -28.5q69 0 114.5 41.5t63.5 121.5q29 129 44.5 204t15.5 94q0 54 -31.5 82.5t-95.5 28.5q-69 0 -114.5 -41.5t-63.5 -121.5q-29 -129 -44.5 -204t-15.5 -94zM194 -86h76l-17 -76h-76z" />
    <glyph glyph-name="Racute" unicode="&#x154;" 
d="M187 318l-67 -318h-77l149 700h226q45 0 78.5 -14.5t55.5 -37.5t33 -53.5t11 -61.5t-11 -67.5t-35.5 -68t-64.5 -54t-98 -25.5l119 -318h-80l-119 318h-120zM380 390q30 0 55.5 10.5t43.5 29.5t28 44.5t10 54.5q0 45 -27.5 71t-78.5 26h-158l-50 -236h177zM286 733l12 54
l264 72l-12 -54z" />
    <glyph glyph-name="Rcaron" unicode="&#x158;" 
d="M187 318l-67 -318h-77l149 700h226q45 0 78.5 -14.5t55.5 -37.5t33 -53.5t11 -61.5t-11 -67.5t-35.5 -68t-64.5 -54t-98 -25.5l119 -318h-80l-119 318h-120zM380 390q30 0 55.5 10.5t43.5 29.5t28 44.5t10 54.5q0 45 -27.5 71t-78.5 26h-158l-50 -236h177zM417 787
l167 72l-13 -58l-157 -68l-145 77l11 49z" />
    <glyph glyph-name="Rcommaaccent" unicode="&#x156;" 
d="M187 318l-67 -318h-77l149 700h226q45 0 78.5 -14.5t55.5 -37.5t33 -53.5t11 -61.5t-11 -67.5t-35.5 -68t-64.5 -54t-98 -25.5l119 -318h-80l-119 318h-120zM380 390q30 0 55.5 10.5t43.5 29.5t28 44.5t10 54.5q0 45 -27.5 71t-78.5 26h-158l-50 -236h177zM200 -189
l-36 37l100 99l36 -36z" />
    <glyph glyph-name="Sacute" unicode="&#x15a;" 
d="M506 194q0 -41 -13 -78t-40 -65t-69.5 -44.5t-102.5 -16.5q-39 0 -77.5 12t-69 36.5t-49.5 61t-19 85.5v11t1 11h78q-1 -6 -1 -8.5v-6.5q0 -32 11 -56t30 -40t45.5 -24t56.5 -8q67 0 104.5 33t37.5 89q0 16 -2.5 32.5t-11 31t-23.5 27.5t-39 22l-81 31q-64 25 -97.5 69
t-33.5 110q0 45 14.5 82t42 63.5t67.5 41t91 14.5q39 0 74.5 -11t62.5 -33t43 -54.5t17 -75.5v-10t-1 -10h-77q1 6 1 8v5q0 48 -32.5 77.5t-90.5 29.5q-33 0 -58 -9.5t-42 -25.5t-26 -38t-9 -47q0 -44 20 -71t60 -42l81 -31q68 -26 97.5 -72t29.5 -106zM264 733l12 54
l264 72l-12 -54z" />
    <glyph glyph-name="Scaron" unicode="&#x160;" 
d="M506 194q0 -41 -13 -78t-40 -65t-69.5 -44.5t-102.5 -16.5q-39 0 -77.5 12t-69 36.5t-49.5 61t-19 85.5v11t1 11h78q-1 -6 -1 -8.5v-6.5q0 -32 11 -56t30 -40t45.5 -24t56.5 -8q67 0 104.5 33t37.5 89q0 16 -2.5 32.5t-11 31t-23.5 27.5t-39 22l-81 31q-64 25 -97.5 69
t-33.5 110q0 45 14.5 82t42 63.5t67.5 41t91 14.5q39 0 74.5 -11t62.5 -33t43 -54.5t17 -75.5v-10t-1 -10h-77q1 6 1 8v5q0 48 -32.5 77.5t-90.5 29.5q-33 0 -58 -9.5t-42 -25.5t-26 -38t-9 -47q0 -44 20 -71t60 -42l81 -31q68 -26 97.5 -72t29.5 -106zM397 787l167 72
l-13 -58l-157 -68l-145 77l11 49z" />
    <glyph glyph-name="Scedilla" unicode="&#x15e;" 
d="M506 194q0 -41 -13 -78t-40 -65t-69.5 -44.5t-102.5 -16.5q-39 0 -77.5 12t-69 36.5t-49.5 61t-19 85.5v11t1 11h78q-1 -6 -1 -8.5v-6.5q0 -32 11 -56t30 -40t45.5 -24t56.5 -8q67 0 104.5 33t37.5 89q0 16 -2.5 32.5t-11 31t-23.5 27.5t-39 22l-81 31q-64 25 -97.5 69
t-33.5 110q0 45 14.5 82t42 63.5t67.5 41t91 14.5q39 0 74.5 -11t62.5 -33t43 -54.5t17 -75.5v-10t-1 -10h-77q1 6 1 8v5q0 48 -32.5 77.5t-90.5 29.5q-33 0 -58 -9.5t-42 -25.5t-26 -38t-9 -47q0 -44 20 -71t60 -42l81 -31q68 -26 97.5 -72t29.5 -106zM225 -134l18 84h50
l-29 -134h-134l11 50h84z" />
    <glyph glyph-name="Scircumflex" unicode="&#x15c;" 
d="M506 194q0 -41 -13 -78t-40 -65t-69.5 -44.5t-102.5 -16.5q-39 0 -77.5 12t-69 36.5t-49.5 61t-19 85.5v11t1 11h78q-1 -6 -1 -8.5v-6.5q0 -32 11 -56t30 -40t45.5 -24t56.5 -8q67 0 104.5 33t37.5 89q0 16 -2.5 32.5t-11 31t-23.5 27.5t-39 22l-81 31q-64 25 -97.5 69
t-33.5 110q0 45 14.5 82t42 63.5t67.5 41t91 14.5q39 0 74.5 -11t62.5 -33t43 -54.5t17 -75.5v-10t-1 -10h-77q1 6 1 8v5q0 48 -32.5 77.5t-90.5 29.5q-33 0 -58 -9.5t-42 -25.5t-26 -38t-9 -47q0 -44 20 -71t60 -42l81 -31q68 -26 97.5 -72t29.5 -106zM407 805l-167 -72
l13 58l157 68l145 -77l-11 -49z" />
    <glyph glyph-name="Scommaaccent" unicode="&#x218;" 
d="M506 194q0 -41 -13 -78t-40 -65t-69.5 -44.5t-102.5 -16.5q-39 0 -77.5 12t-69 36.5t-49.5 61t-19 85.5v11t1 11h78q-1 -6 -1 -8.5v-6.5q0 -32 11 -56t30 -40t45.5 -24t56.5 -8q67 0 104.5 33t37.5 89q0 16 -2.5 32.5t-11 31t-23.5 27.5t-39 22l-81 31q-64 25 -97.5 69
t-33.5 110q0 45 14.5 82t42 63.5t67.5 41t91 14.5q39 0 74.5 -11t62.5 -33t43 -54.5t17 -75.5v-10t-1 -10h-77q1 6 1 8v5q0 48 -32.5 77.5t-90.5 29.5q-33 0 -58 -9.5t-42 -25.5t-26 -38t-9 -47q0 -44 20 -71t60 -42l81 -31q68 -26 97.5 -72t29.5 -106zM213 -189l-36 37
l100 99l36 -36z" />
    <glyph glyph-name="Tbar" unicode="&#x166;" 
d="M156 626l16 74h451l-16 -74h-187l-54 -253h127l-9 -45h-128l-69 -328h-77l69 328h-106l9 45h107l54 253h-187z" />
    <glyph glyph-name="Tcaron" unicode="&#x164;" 
d="M156 626l16 74h451l-16 -74h-187l-133 -626h-77l133 626h-187zM412 787l167 72l-13 -58l-157 -68l-145 77l11 49z" />
    <glyph glyph-name="uni0162" unicode="&#x162;" 
d="M156 626l16 74h451l-16 -74h-187l-133 -626h-77l133 626h-187zM191 -189l-36 37l100 99l36 -36z" />
    <glyph glyph-name="Tcommaaccent" unicode="&#x21a;" 
d="M156 626l16 74h451l-16 -74h-187l-133 -626h-77l133 626h-187zM191 -189l-36 37l100 99l36 -36z" />
    <glyph glyph-name="Ubreve" unicode="&#x16c;" 
d="M141 175q0 -54 31.5 -82.5t95.5 -28.5q69 0 115 41.5t63 121.5l104 473h77l-104 -473q-13 -58 -34 -102t-53.5 -74t-76.5 -45.5t-102 -15.5q-39 0 -74 10.5t-61.5 32.5t-42 56t-15.5 80q0 16 9 63.5t24 118t35 160t42 189.5h77q-10 -43 -21.5 -96t-24 -109t-24 -110
t-20.5 -98t-14.5 -74t-5.5 -38zM379 743q-40 0 -65 25t-25 63v11t2 12h47q-1 -5 -1 -13q0 -21 13.5 -35t36.5 -14h55q31 0 52.5 20t26.5 42h52q-10 -46 -45 -78.5t-89 -32.5h-60z" />
    <glyph glyph-name="Uhungarumlaut" unicode="&#x170;" 
d="M141 175q0 -54 31.5 -82.5t95.5 -28.5q69 0 115 41.5t63 121.5l104 473h77l-104 -473q-13 -58 -34 -102t-53.5 -74t-76.5 -45.5t-102 -15.5q-39 0 -74 10.5t-61.5 32.5t-42 56t-15.5 80q0 16 9 63.5t24 118t35 160t42 189.5h77q-10 -43 -21.5 -96t-24 -109t-24 -110
t-20.5 -98t-14.5 -74t-5.5 -38zM259 753l12 54l126 35l-12 -54zM445 753l12 54l126 35l-12 -54z" />
    <glyph glyph-name="Umacron" unicode="&#x16a;" 
d="M141 175q0 -54 31.5 -82.5t95.5 -28.5q69 0 115 41.5t63 121.5l104 473h77l-104 -473q-13 -58 -34 -102t-53.5 -74t-76.5 -45.5t-102 -15.5q-39 0 -74 10.5t-61.5 32.5t-42 56t-15.5 80q0 16 9 63.5t24 118t35 160t42 189.5h77q-10 -43 -21.5 -96t-24 -109t-24 -110
t-20.5 -98t-14.5 -74t-5.5 -38zM243 774l11 50h312l-11 -50h-312z" />
    <glyph glyph-name="Uogonek" unicode="&#x172;" 
d="M313 -186q-9 -2 -14.5 -2.5t-11.5 -0.5q-37 0 -60 26.5t-23 59.5t14 56t34 37q-38 1 -72 12t-60 33t-41 55.5t-15 78.5q0 16 9 63.5t24 118t35 160t42 189.5h77q-10 -43 -21.5 -96t-24 -109t-24 -110t-20.5 -98t-14.5 -74t-5.5 -38q0 -54 31.5 -82.5t95.5 -28.5
q69 0 115 41.5t63 121.5l104 473h77l-104 -473q-17 -78 -50.5 -131.5t-87.5 -79.5q-19 -9 -42 -19.5t-43 -23.5t-33.5 -30t-13.5 -39q0 -44 46 -44q12 0 24 3z" />
    <glyph glyph-name="Uring" unicode="&#x16e;" 
d="M141 175q0 -54 31.5 -82.5t95.5 -28.5q69 0 115 41.5t63 121.5l104 473h77l-104 -473q-13 -58 -34 -102t-53.5 -74t-76.5 -45.5t-102 -15.5q-39 0 -74 10.5t-61.5 32.5t-42 56t-15.5 80q0 16 9 63.5t24 118t35 160t42 189.5h77q-10 -43 -21.5 -96t-24 -109t-24 -110
t-20.5 -98t-14.5 -74t-5.5 -38zM286 765q0 24 9 44.5t24.5 36.5t36 25t44.5 9t44.5 -9t36.5 -25t25 -36.5t9 -44.5t-9 -44.5t-25 -36t-36.5 -24.5t-44.5 -9t-44.5 9t-36 24.5t-24.5 36t-9 44.5zM335 765q0 -27 19 -46t46 -19t46.5 19t19.5 46t-19.5 46.5t-46.5 19.5
t-46 -19.5t-19 -46.5z" />
    <glyph glyph-name="Utilde" unicode="&#x168;" 
d="M141 175q0 -54 31.5 -82.5t95.5 -28.5q69 0 115 41.5t63 121.5l104 473h77l-104 -473q-13 -58 -34 -102t-53.5 -74t-76.5 -45.5t-102 -15.5q-39 0 -74 10.5t-61.5 32.5t-42 56t-15.5 80q0 16 9 63.5t24 118t35 160t42 189.5h77q-10 -43 -21.5 -96t-24 -109t-24 -110
t-20.5 -98t-14.5 -74t-5.5 -38zM465 737l-91 66l-124 -66l14 63l113 60l91 -66l124 66l-14 -63z" />
    <glyph glyph-name="uni1EE4" unicode="&#x1ee4;" 
d="M141 175q0 -54 31.5 -82.5t95.5 -28.5q69 0 115 41.5t63 121.5l104 473h77l-104 -473q-13 -58 -34 -102t-53.5 -74t-76.5 -45.5t-102 -15.5q-39 0 -74 10.5t-61.5 32.5t-42 56t-15.5 80q0 16 9 63.5t24 118t35 160t42 189.5h77q-10 -43 -21.5 -96t-24 -109t-24 -110
t-20.5 -98t-14.5 -74t-5.5 -38zM197 -86h76l-17 -76h-76z" />
    <glyph glyph-name="Wacute" unicode="&#x1e82;" 
d="M409 160l184 540h79l-249 -700h-69l-5 457l-205 -457h-69l49 700h75l-44 -532l191 432h62zM281 733l12 54l264 72l-12 -54z" />
    <glyph glyph-name="Wcircumflex" unicode="&#x174;" 
d="M409 160l184 540h79l-249 -700h-69l-5 457l-205 -457h-69l49 700h75l-44 -532l191 432h62zM425 805l-167 -72l13 58l157 68l145 -77l-11 -49z" />
    <glyph glyph-name="Wdieresis" unicode="&#x1e84;" 
d="M409 160l184 540h79l-249 -700h-69l-5 457l-205 -457h-69l49 700h75l-44 -532l191 432h62zM272 837h76l-17 -76h-76zM508 837h76l-17 -76h-76z" />
    <glyph glyph-name="Wgrave" unicode="&#x1e80;" 
d="M409 160l184 540h79l-249 -700h-69l-5 457l-205 -457h-69l49 700h75l-44 -532l191 432h62zM282 811l10 48l264 -72l-10 -48z" />
    <glyph glyph-name="Ycircumflex" unicode="&#x176;" 
d="M288 0h-77l59 279l-141 421h75l115 -346l263 346h86l-321 -422zM424 805l-167 -72l13 58l157 68l145 -77l-11 -49z" />
    <glyph glyph-name="Ydieresis" unicode="&#x178;" 
d="M288 0h-77l59 279l-141 421h75l115 -346l263 346h86l-321 -422zM272 837h76l-17 -76h-76zM508 837h76l-17 -76h-76z" />
    <glyph glyph-name="Ygrave" unicode="&#x1ef2;" 
d="M288 0h-77l59 279l-141 421h75l115 -346l263 346h86l-321 -422zM282 811l10 48l264 -72l-10 -48z" />
    <glyph glyph-name="uni0232" unicode="&#x232;" 
d="M288 0h-77l59 279l-141 421h75l115 -346l263 346h86l-321 -422zM257 774l11 50h312l-11 -50h-312z" />
    <glyph glyph-name="Zacute" unicode="&#x179;" 
d="M17 0l16 74l473 552h-352l16 74h447l-16 -74l-473 -552h361l-16 -74h-456zM276 733l12 54l264 72l-12 -54z" />
    <glyph glyph-name="Zcaron" unicode="&#x17d;" 
d="M17 0l16 74l473 552h-352l16 74h447l-16 -74l-473 -552h361l-16 -74h-456zM408 787l167 72l-13 -58l-157 -68l-145 77l11 49z" />
    <glyph glyph-name="Zdotaccent" unicode="&#x17b;" 
d="M17 0l16 74l473 552h-352l16 74h447l-16 -74l-473 -552h361l-16 -74h-456zM385 837h76l-17 -76h-76z" />
    <glyph glyph-name="abreve" unicode="&#x103;" 
d="M425 252q-43 -2 -75.5 -4.5t-58 -6t-46 -9t-41.5 -13.5q-29 -12 -45 -30.5t-16 -53.5q0 -31 26 -52.5t80 -21.5q60 0 104.5 32t58.5 98zM119 358q26 94 84 133t146 39q34 0 65 -10t55 -28.5t38.5 -46t14.5 -62.5q0 -14 -3.5 -36t-9 -48t-11.5 -54t-11 -53
q-12 -54 -21 -96q-4 -18 -7.5 -35.5t-6.5 -31t-4.5 -21.5l-1.5 -8h-75l12 55q-20 -29 -60 -47t-90 -18q-40 0 -71 11.5t-52 31t-32 44.5t-11 51q0 33 7 58.5t22.5 45t41 34t62.5 25.5q48 14 110.5 19.5t128.5 9.5q3 17 5 30.5t2 21.5q0 23 -9 39.5t-24 27t-34 15.5t-39 5
q-52 0 -89.5 -25t-55.5 -76h-76zM343 589q-40 0 -65 25t-25 63v11t2 12h47q-1 -5 -1 -13q0 -21 13.5 -35t36.5 -14h55q31 0 52.5 20t26.5 42h52q-10 -46 -45 -78.5t-89 -32.5h-60z" />
    <glyph glyph-name="amacron" unicode="&#x101;" 
d="M425 252q-43 -2 -75.5 -4.5t-58 -6t-46 -9t-41.5 -13.5q-29 -12 -45 -30.5t-16 -53.5q0 -31 26 -52.5t80 -21.5q60 0 104.5 32t58.5 98zM119 358q26 94 84 133t146 39q34 0 65 -10t55 -28.5t38.5 -46t14.5 -62.5q0 -14 -3.5 -36t-9 -48t-11.5 -54t-11 -53
q-12 -54 -21 -96q-4 -18 -7.5 -35.5t-6.5 -31t-4.5 -21.5l-1.5 -8h-75l12 55q-20 -29 -60 -47t-90 -18q-40 0 -71 11.5t-52 31t-32 44.5t-11 51q0 33 7 58.5t22.5 45t41 34t62.5 25.5q48 14 110.5 19.5t128.5 9.5q3 17 5 30.5t2 21.5q0 23 -9 39.5t-24 27t-34 15.5t-39 5
q-52 0 -89.5 -25t-55.5 -76h-76zM223 620l11 50h312l-11 -50h-312z" />
    <glyph glyph-name="aogonek" unicode="&#x105;" 
d="M406 -186q-9 -2 -14.5 -2.5t-11.5 -0.5q-37 0 -60 26.5t-23 59.5q0 38 21 65t53 38l12 55q-20 -29 -60 -47t-90 -18q-40 0 -71 11.5t-52 31t-32 44.5t-11 51q0 33 7 58.5t22.5 45t41 34t62.5 25.5q48 14 110.5 19.5t128.5 9.5q3 17 5 30.5t2 21.5q0 23 -9 39.5t-24 27
t-34 15.5t-39 5q-52 0 -89.5 -25t-55.5 -76h-76q26 94 84 133t146 39q34 0 65 -10t55 -28.5t38.5 -46t14.5 -62.5q0 -14 -3.5 -36t-9 -48t-11.5 -54t-11 -53q-12 -54 -21 -96q-4 -18 -7.5 -35.5t-6.5 -31t-4.5 -21.5l-1.5 -8q-15 -6 -32.5 -14.5t-32.5 -20t-25 -27
t-10 -34.5q0 -44 46 -44q12 0 24 3zM425 252q-43 -2 -75.5 -4.5t-58 -6t-46 -9t-41.5 -13.5q-29 -12 -45 -30.5t-16 -53.5q0 -31 26 -52.5t80 -21.5q60 0 104.5 32t58.5 98z" />
    <glyph glyph-name="cacute" unicode="&#x107;" 
d="M452 353q1 6 1.5 10.5t0.5 8.5q0 23 -9 39.5t-24 27t-34 15.5t-39 5q-59 0 -99 -32.5t-54 -97.5q-5 -21 -10.5 -47.5t-11 -52t-9 -47.5t-3.5 -34q0 -23 9 -39.5t24 -27t34 -15.5t39 -5q53 0 91.5 26.5t55.5 79.5h75q-26 -97 -83.5 -137t-147.5 -40q-34 0 -65 9.5
t-55 28.5t-38.5 46.5t-14.5 62.5q0 13 3.5 35.5t8.5 48.5t11.5 54t11.5 53q23 111 82.5 156.5t154.5 45.5q34 0 65 -10t55 -28.5t38.5 -46t14.5 -62.5q0 -12 -3 -30h-75zM251 579l12 54l264 72l-12 -54z" />
    <glyph glyph-name="ccaron" unicode="&#x10d;" 
d="M452 353q1 6 1.5 10.5t0.5 8.5q0 23 -9 39.5t-24 27t-34 15.5t-39 5q-59 0 -99 -32.5t-54 -97.5q-5 -21 -10.5 -47.5t-11 -52t-9 -47.5t-3.5 -34q0 -23 9 -39.5t24 -27t34 -15.5t39 -5q53 0 91.5 26.5t55.5 79.5h75q-26 -97 -83.5 -137t-147.5 -40q-34 0 -65 9.5
t-55 28.5t-38.5 46.5t-14.5 62.5q0 13 3.5 35.5t8.5 48.5t11.5 54t11.5 53q23 111 82.5 156.5t154.5 45.5q34 0 65 -10t55 -28.5t38.5 -46t14.5 -62.5q0 -12 -3 -30h-75zM383 633l167 72l-13 -58l-157 -68l-145 77l11 49z" />
    <glyph glyph-name="ccircumflex" unicode="&#x109;" 
d="M452 353q1 6 1.5 10.5t0.5 8.5q0 23 -9 39.5t-24 27t-34 15.5t-39 5q-59 0 -99 -32.5t-54 -97.5q-5 -21 -10.5 -47.5t-11 -52t-9 -47.5t-3.5 -34q0 -23 9 -39.5t24 -27t34 -15.5t39 -5q53 0 91.5 26.5t55.5 79.5h75q-26 -97 -83.5 -137t-147.5 -40q-34 0 -65 9.5
t-55 28.5t-38.5 46.5t-14.5 62.5q0 13 3.5 35.5t8.5 48.5t11.5 54t11.5 53q23 111 82.5 156.5t154.5 45.5q34 0 65 -10t55 -28.5t38.5 -46t14.5 -62.5q0 -12 -3 -30h-75zM395 651l-167 -72l13 58l157 68l145 -77l-11 -49z" />
    <glyph glyph-name="cdotaccent" unicode="&#x10b;" 
d="M452 353q1 6 1.5 10.5t0.5 8.5q0 23 -9 39.5t-24 27t-34 15.5t-39 5q-59 0 -99 -32.5t-54 -97.5q-5 -21 -10.5 -47.5t-11 -52t-9 -47.5t-3.5 -34q0 -23 9 -39.5t24 -27t34 -15.5t39 -5q53 0 91.5 26.5t55.5 79.5h75q-26 -97 -83.5 -137t-147.5 -40q-34 0 -65 9.5
t-55 28.5t-38.5 46.5t-14.5 62.5q0 13 3.5 35.5t8.5 48.5t11.5 54t11.5 53q23 111 82.5 156.5t154.5 45.5q34 0 65 -10t55 -28.5t38.5 -46t14.5 -62.5q0 -12 -3 -30h-75zM359 683h76l-17 -76h-76z" />
    <glyph glyph-name="dcaron" unicode="&#x10f;" 
d="M666 574l-87 -116l-43 25l85 113l22 104h50zM297 459q-59 0 -99 -32.5t-54 -97.5q-5 -21 -10.5 -47.5t-11 -52t-9 -47.5t-3.5 -34q0 -23 9 -39.5t24 -27t34 -15.5t39 -5q59 0 99 32.5t54 97.5q4 21 10 47.5t11.5 52t9 47.5t3.5 34q0 23 -9 39.5t-24 27t-34 15.5t-39 5z
M340 55q-17 -26 -53 -45.5t-87 -19.5q-30 0 -60 9.5t-53.5 28.5t-38 46.5t-14.5 62.5q0 13 3.5 35.5t8.5 48.5t11.5 54t11.5 53q12 55 32.5 93.5t50 62.5t66.5 35t81 11q45 0 77.5 -20.5t48.5 -53.5l52 244h75l-149 -700h-75z" />
    <glyph glyph-name="dcroat" unicode="&#x111;" 
d="M384 55q-17 -26 -53 -45.5t-87 -19.5q-30 0 -60 9.5t-53.5 28.5t-38 46.5t-14.5 62.5q0 13 3.5 35.5t8.5 48.5t11.5 54t11.5 53q12 55 32.5 93.5t50 62.5t66.5 35t81 11q45 0 77.5 -20.5t48.5 -53.5l29 135h-127l9 43h127l14 66h75l-14 -66h70l-9 -43h-70l-126 -591h-75z
M341 459q-59 0 -99 -32.5t-54 -97.5q-5 -21 -10.5 -47.5t-11 -52t-9 -47.5t-3.5 -34q0 -23 9 -39.5t24 -27t34 -15.5t39 -5q59 0 99 32.5t54 97.5q4 21 10 47.5t11.5 52t9 47.5t3.5 34q0 23 -9 39.5t-24 27t-34 15.5t-39 5z" />
    <glyph glyph-name="ebreve" unicode="&#x115;" 
d="M174 241q-6 -29 -10.5 -54t-4.5 -39q0 -23 9 -39.5t24 -27t34 -15.5t39 -5q52 0 89.5 25t55.5 76h76q-26 -94 -84 -133t-146 -39q-34 0 -65 9.5t-55 28.5t-38.5 46.5t-14.5 62.5q0 13 3.5 35.5t8.5 48.5t11.5 54t11.5 53q23 111 82.5 156.5t154.5 45.5q34 0 65 -10
t55 -28.5t38.5 -46t14.5 -62.5q0 -21 -7.5 -60.5t-16.5 -81.5h-330zM443 309q4 20 6.5 36.5t2.5 26.5q0 23 -9 39.5t-24 27t-34 15.5t-39 5q-67 0 -107 -40t-50 -110h254zM346 589q-40 0 -65 25t-25 63v11t2 12h47q-1 -5 -1 -13q0 -21 13.5 -35t36.5 -14h55q31 0 52.5 20
t26.5 42h52q-10 -46 -45 -78.5t-89 -32.5h-60z" />
    <glyph glyph-name="ecaron" unicode="&#x11b;" 
d="M174 241q-6 -29 -10.5 -54t-4.5 -39q0 -23 9 -39.5t24 -27t34 -15.5t39 -5q52 0 89.5 25t55.5 76h76q-26 -94 -84 -133t-146 -39q-34 0 -65 9.5t-55 28.5t-38.5 46.5t-14.5 62.5q0 13 3.5 35.5t8.5 48.5t11.5 54t11.5 53q23 111 82.5 156.5t154.5 45.5q34 0 65 -10
t55 -28.5t38.5 -46t14.5 -62.5q0 -21 -7.5 -60.5t-16.5 -81.5h-330zM443 309q4 20 6.5 36.5t2.5 26.5q0 23 -9 39.5t-24 27t-34 15.5t-39 5q-67 0 -107 -40t-50 -110h254zM382 633l167 72l-13 -58l-157 -68l-145 77l11 49z" />
    <glyph glyph-name="emacron" unicode="&#x113;" 
d="M174 241q-6 -29 -10.5 -54t-4.5 -39q0 -23 9 -39.5t24 -27t34 -15.5t39 -5q52 0 89.5 25t55.5 76h76q-26 -94 -84 -133t-146 -39q-34 0 -65 9.5t-55 28.5t-38.5 46.5t-14.5 62.5q0 13 3.5 35.5t8.5 48.5t11.5 54t11.5 53q23 111 82.5 156.5t154.5 45.5q34 0 65 -10
t55 -28.5t38.5 -46t14.5 -62.5q0 -21 -7.5 -60.5t-16.5 -81.5h-330zM443 309q4 20 6.5 36.5t2.5 26.5q0 23 -9 39.5t-24 27t-34 15.5t-39 5q-67 0 -107 -40t-50 -110h254zM226 620l11 50h312l-11 -50h-312z" />
    <glyph glyph-name="eogonek" unicode="&#x119;" 
d="M310 -186q-9 -2 -14.5 -2.5t-11.5 -0.5q-37 0 -60 26.5t-23 59.5t14 56t34 37q-33 1 -63 11t-53 29t-36.5 45.5t-13.5 61.5q0 13 3.5 35.5t8.5 48.5t11.5 54t11.5 53q23 111 82.5 156.5t154.5 45.5q34 0 65 -10t55 -28.5t38.5 -46t14.5 -62.5q0 -21 -7.5 -60.5
t-16.5 -81.5h-330q-6 -29 -10.5 -54t-4.5 -39q0 -23 9 -39.5t24 -27t34 -15.5t39 -5q52 0 89.5 25t55.5 76h76q-17 -59 -45 -95t-70 -56q-15 -7 -36 -16.5t-39.5 -22t-32 -29.5t-13.5 -39q0 -44 46 -44q12 0 24 3zM443 309q4 20 6.5 36.5t2.5 26.5q0 23 -9 39.5t-24 27
t-34 15.5t-39 5q-67 0 -107 -40t-50 -110h254z" />
    <glyph glyph-name="edotaccent" unicode="&#x117;" 
d="M174 241q-6 -29 -10.5 -54t-4.5 -39q0 -23 9 -39.5t24 -27t34 -15.5t39 -5q52 0 89.5 25t55.5 76h76q-26 -94 -84 -133t-146 -39q-34 0 -65 9.5t-55 28.5t-38.5 46.5t-14.5 62.5q0 13 3.5 35.5t8.5 48.5t11.5 54t11.5 53q23 111 82.5 156.5t154.5 45.5q34 0 65 -10
t55 -28.5t38.5 -46t14.5 -62.5q0 -21 -7.5 -60.5t-16.5 -81.5h-330zM443 309q4 20 6.5 36.5t2.5 26.5q0 23 -9 39.5t-24 27t-34 15.5t-39 5q-67 0 -107 -40t-50 -110h254zM358 683h76l-17 -76h-76z" />
    <glyph glyph-name="gbreve" unicode="&#x11f;" 
d="M117 -17q-1 -5 -1 -10v-9q0 -23 9 -39.5t24 -27t34 -15.5t39 -5q59 0 99 32.5t54 97.5l14 68q-17 -26 -53 -45.5t-87 -19.5q-30 0 -60 9.5t-53.5 28.5t-38 46.5t-14.5 62.5q0 27 10 74t21 97q12 55 32.5 93.5t50 62.5t66.5 35t81 11q45 0 77.5 -20.5t48.5 -53.5l13 60h75
l-108 -508q-23 -111 -83 -156.5t-154 -45.5q-34 0 -65 9.5t-55 28.5t-38.5 46.5t-14.5 62.5q0 12 3 30h74zM342 459q-59 0 -99 -32.5t-54 -97.5q-5 -21 -10 -44.5t-9.5 -45.5t-7.5 -40.5t-3 -30.5q0 -23 9 -39.5t24 -27t34 -15.5t39 -5q59 0 99 32.5t54 97.5q4 21 9.5 44.5
t10 45.5t7.5 40.5t3 30.5q0 23 -9 39.5t-24 27t-34 15.5t-39 5zM343 589q-40 0 -65 25t-25 63v11t2 12h47q-1 -5 -1 -13q0 -21 13.5 -35t36.5 -14h55q31 0 52.5 20t26.5 42h52q-10 -46 -45 -78.5t-89 -32.5h-60z" />
    <glyph glyph-name="gcircumflex" unicode="&#x11d;" 
d="M117 -17q-1 -5 -1 -10v-9q0 -23 9 -39.5t24 -27t34 -15.5t39 -5q59 0 99 32.5t54 97.5l14 68q-17 -26 -53 -45.5t-87 -19.5q-30 0 -60 9.5t-53.5 28.5t-38 46.5t-14.5 62.5q0 27 10 74t21 97q12 55 32.5 93.5t50 62.5t66.5 35t81 11q45 0 77.5 -20.5t48.5 -53.5l13 60h75
l-108 -508q-23 -111 -83 -156.5t-154 -45.5q-34 0 -65 9.5t-55 28.5t-38.5 46.5t-14.5 62.5q0 12 3 30h74zM342 459q-59 0 -99 -32.5t-54 -97.5q-5 -21 -10 -44.5t-9.5 -45.5t-7.5 -40.5t-3 -30.5q0 -23 9 -39.5t24 -27t34 -15.5t39 -5q59 0 99 32.5t54 97.5q4 21 9.5 44.5
t10 45.5t7.5 40.5t3 30.5q0 23 -9 39.5t-24 27t-34 15.5t-39 5zM390 651l-167 -72l13 58l157 68l145 -77l-11 -49z" />
    <glyph glyph-name="gcommaaccent" unicode="&#x123;" 
d="M117 -17q-1 -5 -1 -10v-9q0 -23 9 -39.5t24 -27t34 -15.5t39 -5q59 0 99 32.5t54 97.5l14 68q-17 -26 -53 -45.5t-87 -19.5q-30 0 -60 9.5t-53.5 28.5t-38 46.5t-14.5 62.5q0 27 10 74t21 97q12 55 32.5 93.5t50 62.5t66.5 35t81 11q45 0 77.5 -20.5t48.5 -53.5l13 60h75
l-108 -508q-23 -111 -83 -156.5t-154 -45.5q-34 0 -65 9.5t-55 28.5t-38.5 46.5t-14.5 62.5q0 12 3 30h74zM342 459q-59 0 -99 -32.5t-54 -97.5q-5 -21 -10 -44.5t-9.5 -45.5t-7.5 -40.5t-3 -30.5q0 -23 9 -39.5t24 -27t34 -15.5t39 -5q59 0 99 32.5t54 97.5q4 21 9.5 44.5
t10 45.5t7.5 40.5t3 30.5q0 23 -9 39.5t-24 27t-34 15.5t-39 5zM416.975 719.956l35.998 -36.998l-99.9941 -98.9932l-35.998 35.9971z" />
    <glyph glyph-name="gdotaccent" unicode="&#x121;" 
d="M117 -17q-1 -5 -1 -10v-9q0 -23 9 -39.5t24 -27t34 -15.5t39 -5q59 0 99 32.5t54 97.5l14 68q-17 -26 -53 -45.5t-87 -19.5q-30 0 -60 9.5t-53.5 28.5t-38 46.5t-14.5 62.5q0 27 10 74t21 97q12 55 32.5 93.5t50 62.5t66.5 35t81 11q45 0 77.5 -20.5t48.5 -53.5l13 60h75
l-108 -508q-23 -111 -83 -156.5t-154 -45.5q-34 0 -65 9.5t-55 28.5t-38.5 46.5t-14.5 62.5q0 12 3 30h74zM342 459q-59 0 -99 -32.5t-54 -97.5q-5 -21 -10 -44.5t-9.5 -45.5t-7.5 -40.5t-3 -30.5q0 -23 9 -39.5t24 -27t34 -15.5t39 -5q59 0 99 32.5t54 97.5q4 21 9.5 44.5
t10 45.5t7.5 40.5t3 30.5q0 23 -9 39.5t-24 27t-34 15.5t-39 5zM355 683h76l-17 -76h-76z" />
    <glyph glyph-name="hbar" unicode="&#x127;" 
d="M362 530q30 0 60 -10t53.5 -28.5t38 -46t14.5 -62.5q0 -14 -3.5 -36t-9 -48t-11.5 -54t-11 -53l-41 -192h-75l41 191q5 21 11 47.5t11 52t8.5 47.5t3.5 34q0 23 -9 39.5t-24 27t-34 15.5t-39 5q-59 0 -99 -32.5t-54 -97.5l-70 -329h-75l126 591h-70l9 43h70l14 66h75
l-14 -66h127l-9 -43h-127l-27 -126q17 26 53 45.5t87 19.5z" />
    <glyph glyph-name="hcircumflex" unicode="&#x125;" 
d="M362 530q30 0 60 -10t53.5 -28.5t38 -46t14.5 -62.5q0 -14 -3.5 -36t-9 -48t-11.5 -54t-11 -53l-41 -192h-75l41 191q5 21 11 47.5t11 52t8.5 47.5t3.5 34q0 23 -9 39.5t-24 27t-34 15.5t-39 5q-59 0 -99 -32.5t-54 -97.5l-70 -329h-75l149 700h75l-50 -235
q17 26 53 45.5t87 19.5zM426 805l-167 -72l13 58l157 68l145 -77l-11 -49z" />
    <glyph glyph-name="dotlessi" unicode="&#x131;" 
d="M193 516h207l-95 -445h182l-15 -71h-439l15 71h182l80 374h-133z" />
    <glyph glyph-name="ibreve" unicode="&#x12d;" 
d="M193 516h207l-95 -445h182l-15 -71h-439l15 71h182l80 374h-133zM348 589q-40 0 -65 25t-25 63v11t2 12h47q-1 -5 -1 -13q0 -21 13.5 -35t36.5 -14h55q31 0 52.5 20t26.5 42h52q-10 -46 -45 -78.5t-89 -32.5h-60z" />
    <glyph glyph-name="imacron" unicode="&#x12b;" 
d="M193 516h207l-95 -445h182l-15 -71h-439l15 71h182l80 374h-133zM228 620l11 50h312l-11 -50h-312z" />
    <glyph glyph-name="iogonek" unicode="&#x12f;" 
d="M193 516h207l-95 -445h182l-15 -71h-439l15 71h182l80 374h-133zM339 700h110l-23 -110h-110zM432 -186q-9 -2 -14.5 -2.5t-11.5 -0.5q-37 0 -60 26.5t-23 59.5q0 40 20 66t46 37h83q-15 -6 -32.5 -14.5t-32.5 -20t-25 -27t-10 -34.5q0 -44 46 -44q12 0 24 3z" />
    <glyph glyph-name="itilde" unicode="&#x129;" 
d="M193 516h207l-95 -445h182l-15 -71h-439l15 71h182l80 374h-133zM433 580l-91 66l-124 -66l14 63l113 60l91 -66l124 66l-14 -63z" />
    <glyph glyph-name="uni1ECB" unicode="&#x1ecb;" 
d="M193 516h207l-95 -445h182l-15 -71h-439l15 71h182l80 374h-133zM339 700h110l-23 -110h-110zM196 -86h76l-17 -76h-76z" />
    <glyph glyph-name="dotlessj" unicode="&#x237;" 
d="M340 -61q-7 -33 -16 -56.5t-25 -38t-41.5 -21.5t-66.5 -7h-218l15 71h218q27 0 40 10.5t18 35.5l109 512h-217l15 71h292z" />
    <glyph glyph-name="jcircumflex" unicode="&#x135;" 
d="M458 651l-167 -72l13 58l157 68l145 -77l-11 -49zM340 -61q-7 -33 -16 -56.5t-25 -38t-41.5 -21.5t-66.5 -7h-218l15 71h218q27 0 40 10.5t18 35.5l109 512h-217l15 71h292z" />
    <glyph glyph-name="kcommaaccent" unicode="&#x137;" 
d="M200 279l269 237h100l-229 -202l146 -314h-80l-123 265l-106 -94l-36 -171h-75l149 700h75zM211 -189l-36 37l100 99l36 -36z" />
    <glyph glyph-name="lacute" unicode="&#x13a;" 
d="M228 700h207l-134 -629h182l-15 -71h-439l15 71h182l119 558h-132zM280 733l12 54l264 72l-12 -54z" />
    <glyph glyph-name="lcaron" unicode="&#x13e;" 
d="M549 574l-87 -116l-43 25l85 113l22 104h50zM228 700h207l-134 -629h182l-15 -71h-439l15 71h182l119 558h-132z" />
    <glyph glyph-name="lcommaaccent" unicode="&#x13c;" 
d="M228 700h207l-134 -629h182l-15 -71h-439l15 71h182l119 558h-132zM191 -189l-36 37l100 99l36 -36z" />
    <glyph glyph-name="ldot" unicode="&#x140;" 
d="M228 700h207l-134 -629h182l-15 -71h-439l15 71h182l119 558h-132zM483 425h76l-17 -76h-76z" />
    <glyph glyph-name="lslash" unicode="&#x142;" 
d="M228 700h207l-60 -282l57 28l15 -41l-84 -41l-62 -293h182l-15 -71h-439l15 71h182l54 252l-58 -28l-15 41l84 41l54 252h-132z" />
    <glyph glyph-name="eng" unicode="&#x14b;" 
d="M452 372q0 23 -9 39.5t-24 27t-34 15.5t-39 5q-59 0 -99 -32.5t-54 -97.5l-70 -329h-75l110 516h75l-11 -51q17 26 53 45.5t87 19.5q30 0 60 -10t53.5 -28.5t38 -46t14.5 -62.5q0 -14 -3.5 -36t-9 -48t-11.5 -54t-11 -53l-54 -253q-7 -33 -16 -56.5t-25 -38t-41.5 -21.5
t-66.5 -7h-15l15 71h15q27 0 39.5 10.5t17.5 35.5l56 258q4 21 10 47.5t11.5 52t9 47.5t3.5 34z" />
    <glyph glyph-name="nacute" unicode="&#x144;" 
d="M362 530q30 0 60 -10t53.5 -28.5t38 -46t14.5 -62.5q0 -14 -3.5 -36t-9 -48t-11.5 -54t-11 -53l-41 -192h-75l41 191q5 21 11 47.5t11 52t8.5 47.5t3.5 34q0 23 -9 39.5t-24 27t-34 15.5t-39 5q-59 0 -99 -32.5t-54 -97.5l-70 -329h-75l110 516h75l-11 -51q17 26 53 45.5
t87 19.5zM250 579l12 54l264 72l-12 -54z" />
    <glyph glyph-name="ncaron" unicode="&#x148;" 
d="M362 530q30 0 60 -10t53.5 -28.5t38 -46t14.5 -62.5q0 -14 -3.5 -36t-9 -48t-11.5 -54t-11 -53l-41 -192h-75l41 191q5 21 11 47.5t11 52t8.5 47.5t3.5 34q0 23 -9 39.5t-24 27t-34 15.5t-39 5q-59 0 -99 -32.5t-54 -97.5l-70 -329h-75l110 516h75l-11 -51q17 26 53 45.5
t87 19.5zM382 633l167 72l-13 -58l-157 -68l-145 77l11 49z" />
    <glyph glyph-name="ncommaaccent" unicode="&#x146;" 
d="M362 530q30 0 60 -10t53.5 -28.5t38 -46t14.5 -62.5q0 -14 -3.5 -36t-9 -48t-11.5 -54t-11 -53l-41 -192h-75l41 191q5 21 11 47.5t11 52t8.5 47.5t3.5 34q0 23 -9 39.5t-24 27t-34 15.5t-39 5q-59 0 -99 -32.5t-54 -97.5l-70 -329h-75l110 516h75l-11 -51q17 26 53 45.5
t87 19.5zM193 -189l-36 37l100 99l36 -36z" />
    <glyph glyph-name="oe" unicode="&#x153;" 
d="M151 -10q-29 0 -52 10t-39 27t-24.5 38t-8.5 44q0 7 3.5 28.5t9 50.5t12 61.5t12 60.5t10 48.5t5.5 26.5q16 72 53 108.5t112 36.5q31 0 57.5 -15t38.5 -35q17 21 45.5 35.5t72.5 14.5q29 0 52 -10t39 -27t24.5 -38.5t8.5 -43.5q0 -6 -2.5 -23.5t-7 -41t-10 -51
t-10.5 -54.5h-214q-5 -23 -9 -44t-7.5 -37.5t-5.5 -27.5t-2 -13q0 -25 15 -41.5t46 -16.5q22 0 37 9t25 23.5t15.5 32.5t8.5 36h75q-8 -40 -19 -72t-30.5 -54t-49 -34t-72.5 -12q-31 0 -57.5 15t-38.5 35q-17 -21 -45.5 -35.5t-72.5 -14.5zM154 385q-1 -4 -5.5 -24
t-10.5 -48.5t-12.5 -61.5t-12.5 -61.5t-9.5 -48t-3.5 -22.5q0 -25 15 -41.5t46 -16.5t51.5 20t28.5 54q1 3 5.5 23.5t10.5 49t12.5 61.5t12.5 61.5t9.5 48t3.5 22.5q0 25 -15 41.5t-46 16.5t-50.5 -20.5t-29.5 -53.5zM492 310q8 35 12.5 61.5t4.5 29.5q0 25 -15 41.5
t-46 16.5q-28 0 -44.5 -14.5t-26 -37t-14.5 -48.5t-10 -49h139z" />
    <glyph glyph-name="obreve" unicode="&#x14f;" 
d="M492 192q-23 -111 -83 -156.5t-154 -45.5q-34 0 -65 9.5t-55 28.5t-38.5 46.5t-14.5 62.5q0 13 3.5 35.5t8.5 48.5t11.5 54t11.5 53q23 111 82.5 156.5t154.5 45.5q34 0 65 -10t55 -28.5t38.5 -46t14.5 -62.5q0 -14 -3.5 -36t-9 -48t-11.5 -54t-11 -53zM264 61
q59 0 99 32.5t54 97.5q4 21 10 47.5t11.5 52t9 47.5t3.5 34q0 23 -9 39.5t-24 27t-34 15.5t-39 5q-59 0 -99 -32.5t-54 -97.5q-5 -21 -10.5 -47.5t-11 -52t-9 -47.5t-3.5 -34q0 -23 9 -39.5t24 -27t34 -15.5t39 -5zM345 589q-40 0 -65 25t-25 63v11t2 12h47q-1 -5 -1 -13
q0 -21 13.5 -35t36.5 -14h55q31 0 52.5 20t26.5 42h52q-10 -46 -45 -78.5t-89 -32.5h-60z" />
    <glyph glyph-name="ohungarumlaut" unicode="&#x151;" 
d="M492 192q-23 -111 -83 -156.5t-154 -45.5q-34 0 -65 9.5t-55 28.5t-38.5 46.5t-14.5 62.5q0 13 3.5 35.5t8.5 48.5t11.5 54t11.5 53q23 111 82.5 156.5t154.5 45.5q34 0 65 -10t55 -28.5t38.5 -46t14.5 -62.5q0 -14 -3.5 -36t-9 -48t-11.5 -54t-11 -53zM264 61
q59 0 99 32.5t54 97.5q4 21 10 47.5t11.5 52t9 47.5t3.5 34q0 23 -9 39.5t-24 27t-34 15.5t-39 5q-59 0 -99 -32.5t-54 -97.5q-5 -21 -10.5 -47.5t-11 -52t-9 -47.5t-3.5 -34q0 -23 9 -39.5t24 -27t34 -15.5t39 -5zM225 599l12 54l126 35l-12 -54zM411 599l12 54l126 35
l-12 -54z" />
    <glyph glyph-name="omacron" unicode="&#x14d;" 
d="M492 192q-23 -111 -83 -156.5t-154 -45.5q-34 0 -65 9.5t-55 28.5t-38.5 46.5t-14.5 62.5q0 13 3.5 35.5t8.5 48.5t11.5 54t11.5 53q23 111 82.5 156.5t154.5 45.5q34 0 65 -10t55 -28.5t38.5 -46t14.5 -62.5q0 -14 -3.5 -36t-9 -48t-11.5 -54t-11 -53zM264 61
q59 0 99 32.5t54 97.5q4 21 10 47.5t11.5 52t9 47.5t3.5 34q0 23 -9 39.5t-24 27t-34 15.5t-39 5q-59 0 -99 -32.5t-54 -97.5q-5 -21 -10.5 -47.5t-11 -52t-9 -47.5t-3.5 -34q0 -23 9 -39.5t24 -27t34 -15.5t39 -5zM225 620l11 50h312l-11 -50h-312z" />
    <glyph glyph-name="uni1ECD" unicode="&#x1ecd;" 
d="M492 192q-23 -111 -83 -156.5t-154 -45.5q-34 0 -65 9.5t-55 28.5t-38.5 46.5t-14.5 62.5q0 13 3.5 35.5t8.5 48.5t11.5 54t11.5 53q23 111 82.5 156.5t154.5 45.5q34 0 65 -10t55 -28.5t38.5 -46t14.5 -62.5q0 -14 -3.5 -36t-9 -48t-11.5 -54t-11 -53zM264 61
q59 0 99 32.5t54 97.5q4 21 10 47.5t11.5 52t9 47.5t3.5 34q0 23 -9 39.5t-24 27t-34 15.5t-39 5q-59 0 -99 -32.5t-54 -97.5q-5 -21 -10.5 -47.5t-11 -52t-9 -47.5t-3.5 -34q0 -23 9 -39.5t24 -27t34 -15.5t39 -5zM194 -86h76l-17 -76h-76z" />
    <glyph glyph-name="racute" unicode="&#x155;" 
d="M606 525l-15 -71h-125q-59 0 -99 -32.5t-54 -97.5l-54 -253h201l-15 -71h-439l15 71h163l80 374h-114l15 71h189l-12 -56q17 26 53 45.5t87 19.5h124zM249 579l12 54l264 72l-12 -54z" />
    <glyph glyph-name="rcaron" unicode="&#x159;" 
d="M606 525l-15 -71h-125q-59 0 -99 -32.5t-54 -97.5l-54 -253h201l-15 -71h-439l15 71h163l80 374h-114l15 71h189l-12 -56q17 26 53 45.5t87 19.5h124zM381 633l167 72l-13 -58l-157 -68l-145 77l11 49z" />
    <glyph glyph-name="rcommaaccent" unicode="&#x157;" 
d="M606 525l-15 -71h-125q-59 0 -99 -32.5t-54 -97.5l-54 -253h201l-15 -71h-439l15 71h163l80 374h-114l15 71h189l-12 -56q17 26 53 45.5t87 19.5h124zM193 -189l-36 37l100 99l36 -36z" />
    <glyph glyph-name="sacute" unicode="&#x15b;" 
d="M435 365v7q0 22 -8.5 38.5t-23 27t-32.5 16t-37 5.5t-37.5 -5t-33 -14.5t-23.5 -24.5t-9 -35q0 -23 12 -42.5t46 -29.5l67 -20q53 -16 86 -48t33 -81q0 -76 -47.5 -122.5t-146.5 -46.5q-35 0 -69.5 9.5t-61.5 29.5t-43.5 49.5t-16.5 70.5v8t1 8h75v-10q0 -25 10 -42.5
t27.5 -29t40 -17t47.5 -5.5q18 0 37 4t34.5 14t26 25.5t10.5 39.5q0 23 -14 43.5t-54 32.5l-67 20q-49 14 -79 47.5t-30 83.5q0 69 46.5 114t138.5 45q37 0 68.5 -11t54.5 -30.5t35.5 -47t12.5 -59.5v-8t-1 -9h-75zM249 579l12 54l264 72l-12 -54z" />
    <glyph glyph-name="scaron" unicode="&#x161;" 
d="M435 365v7q0 22 -8.5 38.5t-23 27t-32.5 16t-37 5.5t-37.5 -5t-33 -14.5t-23.5 -24.5t-9 -35q0 -23 12 -42.5t46 -29.5l67 -20q53 -16 86 -48t33 -81q0 -76 -47.5 -122.5t-146.5 -46.5q-35 0 -69.5 9.5t-61.5 29.5t-43.5 49.5t-16.5 70.5v8t1 8h75v-10q0 -25 10 -42.5
t27.5 -29t40 -17t47.5 -5.5q18 0 37 4t34.5 14t26 25.5t10.5 39.5q0 23 -14 43.5t-54 32.5l-67 20q-49 14 -79 47.5t-30 83.5q0 69 46.5 114t138.5 45q37 0 68.5 -11t54.5 -30.5t35.5 -47t12.5 -59.5v-8t-1 -9h-75zM382 633l167 72l-13 -58l-157 -68l-145 77l11 49z" />
    <glyph glyph-name="scedilla" unicode="&#x15f;" 
d="M435 365v7q0 22 -8.5 38.5t-23 27t-32.5 16t-37 5.5t-37.5 -5t-33 -14.5t-23.5 -24.5t-9 -35q0 -23 12 -42.5t46 -29.5l67 -20q53 -16 86 -48t33 -81q0 -76 -47.5 -122.5t-146.5 -46.5q-35 0 -69.5 9.5t-61.5 29.5t-43.5 49.5t-16.5 70.5v8t1 8h75v-10q0 -25 10 -42.5
t27.5 -29t40 -17t47.5 -5.5q18 0 37 4t34.5 14t26 25.5t10.5 39.5q0 23 -14 43.5t-54 32.5l-67 20q-49 14 -79 47.5t-30 83.5q0 69 46.5 114t138.5 45q37 0 68.5 -11t54.5 -30.5t35.5 -47t12.5 -59.5v-8t-1 -9h-75zM228 -134l18 84h50l-29 -134h-134l11 50h84z" />
    <glyph glyph-name="scircumflex" unicode="&#x15d;" 
d="M435 365v7q0 22 -8.5 38.5t-23 27t-32.5 16t-37 5.5t-37.5 -5t-33 -14.5t-23.5 -24.5t-9 -35q0 -23 12 -42.5t46 -29.5l67 -20q53 -16 86 -48t33 -81q0 -76 -47.5 -122.5t-146.5 -46.5q-35 0 -69.5 9.5t-61.5 29.5t-43.5 49.5t-16.5 70.5v8t1 8h75v-10q0 -25 10 -42.5
t27.5 -29t40 -17t47.5 -5.5q18 0 37 4t34.5 14t26 25.5t10.5 39.5q0 23 -14 43.5t-54 32.5l-67 20q-49 14 -79 47.5t-30 83.5q0 69 46.5 114t138.5 45q37 0 68.5 -11t54.5 -30.5t35.5 -47t12.5 -59.5v-8t-1 -9h-75zM391 651l-167 -72l13 58l157 68l145 -77l-11 -49z" />
    <glyph glyph-name="scommaaccent" unicode="&#x219;" 
d="M435 365v7q0 22 -8.5 38.5t-23 27t-32.5 16t-37 5.5t-37.5 -5t-33 -14.5t-23.5 -24.5t-9 -35q0 -23 12 -42.5t46 -29.5l67 -20q53 -16 86 -48t33 -81q0 -76 -47.5 -122.5t-146.5 -46.5q-35 0 -69.5 9.5t-61.5 29.5t-43.5 49.5t-16.5 70.5v8t1 8h75v-10q0 -25 10 -42.5
t27.5 -29t40 -17t47.5 -5.5q18 0 37 4t34.5 14t26 25.5t10.5 39.5q0 23 -14 43.5t-54 32.5l-67 20q-49 14 -79 47.5t-30 83.5q0 69 46.5 114t138.5 45q37 0 68.5 -11t54.5 -30.5t35.5 -47t12.5 -59.5v-8t-1 -9h-75zM211 -189l-36 37l100 99l36 -36z" />
    <glyph glyph-name="tbar" unicode="&#x167;" 
d="M333 445l-28 -128h217l-9 -43h-217q-13 -62 -20.5 -96t-11 -51.5t-4 -22t-0.5 -6.5q0 -13 9 -20t32 -7h169l-15 -71h-169q-50 0 -74.5 23.5t-24.5 63.5q0 8 1.5 19.5t5 32t10 53t17.5 82.5h-147l9 43h147l28 128h-147l15 71h147l25 117h75l-25 -117h217l-15 -71h-217z
" />
    <glyph glyph-name="tcaron" unicode="&#x165;" 
d="M499 603l-24 -32h-62l41 54l16 75h50zM333 445q-18 -83 -30 -140.5t-20.5 -95.5t-13 -59.5t-6.5 -32.5t-2.5 -14t-0.5 -5q0 -13 9 -20t32 -7h169l-15 -71h-169q-50 0 -74.5 23.5t-24.5 63.5q0 11 2.5 28.5t10.5 56t21.5 103.5t36.5 170h-147l15 71h147l25 117h75
l-25 -117h217l-15 -71h-217z" />
    <glyph glyph-name="uni0163" unicode="&#x163;" 
d="M333 445q-18 -83 -30 -140.5t-20.5 -95.5t-13 -59.5t-6.5 -32.5t-2.5 -14t-0.5 -5q0 -13 9 -20t32 -7h169l-15 -71h-169q-50 0 -74.5 23.5t-24.5 63.5q0 11 2.5 28.5t10.5 56t21.5 103.5t36.5 170h-147l15 71h147l25 117h75l-25 -117h217l-15 -71h-217zM252 -189l-36 37
l100 99l36 -36z" />
    <glyph glyph-name="tcommaaccent" unicode="&#x21b;" 
d="M333 445q-18 -83 -30 -140.5t-20.5 -95.5t-13 -59.5t-6.5 -32.5t-2.5 -14t-0.5 -5q0 -13 9 -20t32 -7h169l-15 -71h-169q-50 0 -74.5 23.5t-24.5 63.5q0 11 2.5 28.5t10.5 56t21.5 103.5t36.5 170h-147l15 71h147l25 117h75l-25 -117h217l-15 -71h-217zM252 -189l-36 37
l100 99l36 -36z" />
    <glyph glyph-name="ubreve" unicode="&#x16d;" 
d="M248 -10q-30 0 -59 9.5t-52.5 28.5t-38 46.5t-14.5 62.5q0 13 3.5 35.5t8.5 48.5t11.5 54t11.5 53l40 188h75l-40 -187q-5 -21 -10.5 -47.5t-11 -52t-9 -47.5t-3.5 -34q0 -23 9 -39t23 -27t32.5 -16t38.5 -5q57 0 96.5 33t53.5 97l69 325h75l-110 -516h-75l12 55
q-17 -25 -52.5 -45t-83.5 -20zM344 589q-40 0 -65 25t-25 63v11t2 12h47q-1 -5 -1 -13q0 -21 13.5 -35t36.5 -14h55q31 0 52.5 20t26.5 42h52q-10 -46 -45 -78.5t-89 -32.5h-60z" />
    <glyph glyph-name="uhungarumlaut" unicode="&#x171;" 
d="M248 -10q-30 0 -59 9.5t-52.5 28.5t-38 46.5t-14.5 62.5q0 13 3.5 35.5t8.5 48.5t11.5 54t11.5 53l40 188h75l-40 -187q-5 -21 -10.5 -47.5t-11 -52t-9 -47.5t-3.5 -34q0 -23 9 -39t23 -27t32.5 -16t38.5 -5q57 0 96.5 33t53.5 97l69 325h75l-110 -516h-75l12 55
q-17 -25 -52.5 -45t-83.5 -20zM224 599l12 54l126 35l-12 -54zM410 599l12 54l126 35l-12 -54z" />
    <glyph glyph-name="umacron" unicode="&#x16b;" 
d="M248 -10q-30 0 -59 9.5t-52.5 28.5t-38 46.5t-14.5 62.5q0 13 3.5 35.5t8.5 48.5t11.5 54t11.5 53l40 188h75l-40 -187q-5 -21 -10.5 -47.5t-11 -52t-9 -47.5t-3.5 -34q0 -23 9 -39t23 -27t32.5 -16t38.5 -5q57 0 96.5 33t53.5 97l69 325h75l-110 -516h-75l12 55
q-17 -25 -52.5 -45t-83.5 -20zM221 620l11 50h312l-11 -50h-312z" />
    <glyph glyph-name="uogonek" unicode="&#x173;" 
d="M248 -10q-30 0 -59 9.5t-52.5 28.5t-38 46.5t-14.5 62.5q0 13 3.5 35.5t8.5 48.5t11.5 54t11.5 53l40 188h75l-40 -187q-5 -21 -10.5 -47.5t-11 -52t-9 -47.5t-3.5 -34q0 -23 9 -39t23 -27t32.5 -16t38.5 -5q57 0 96.5 33t53.5 97l69 325h75l-110 -516
q-15 -6 -32.5 -14.5t-32.5 -20t-25 -27t-10 -34.5q0 -44 46 -44q12 0 24 3l-10 -49q-9 -2 -14.5 -2.5t-11.5 -0.5q-37 0 -60 26.5t-23 59.5q0 38 21 65t53 38l12 55q-17 -25 -52.5 -45t-83.5 -20z" />
    <glyph glyph-name="uring" unicode="&#x16f;" 
d="M248 -10q-30 0 -59 9.5t-52.5 28.5t-38 46.5t-14.5 62.5q0 13 3.5 35.5t8.5 48.5t11.5 54t11.5 53l40 188h75l-40 -187q-5 -21 -10.5 -47.5t-11 -52t-9 -47.5t-3.5 -34q0 -23 9 -39t23 -27t32.5 -16t38.5 -5q57 0 96.5 33t53.5 97l69 325h75l-110 -516h-75l12 55
q-17 -25 -52.5 -45t-83.5 -20zM247 595q0 24 9 44.5t24.5 36.5t36 25t44.5 9t44.5 -9t36.5 -25t25 -36.5t9 -44.5t-9 -44.5t-25 -36t-36.5 -24.5t-44.5 -9t-44.5 9t-36 24.5t-24.5 36t-9 44.5zM296 595q0 -27 19 -46t46 -19t46.5 19t19.5 46t-19.5 46.5t-46.5 19.5
t-46 -19.5t-19 -46.5z" />
    <glyph glyph-name="utilde" unicode="&#x169;" 
d="M248 -10q-30 0 -59 9.5t-52.5 28.5t-38 46.5t-14.5 62.5q0 13 3.5 35.5t8.5 48.5t11.5 54t11.5 53l40 188h75l-40 -187q-5 -21 -10.5 -47.5t-11 -52t-9 -47.5t-3.5 -34q0 -23 9 -39t23 -27t32.5 -16t38.5 -5q57 0 96.5 33t53.5 97l69 325h75l-110 -516h-75l12 55
q-17 -25 -52.5 -45t-83.5 -20zM429 580l-91 66l-124 -66l14 63l113 60l91 -66l124 66l-14 -63z" />
    <glyph glyph-name="uni1EE5" unicode="&#x1ee5;" 
d="M248 -10q-30 0 -59 9.5t-52.5 28.5t-38 46.5t-14.5 62.5q0 13 3.5 35.5t8.5 48.5t11.5 54t11.5 53l40 188h75l-40 -187q-5 -21 -10.5 -47.5t-11 -52t-9 -47.5t-3.5 -34q0 -23 9 -39t23 -27t32.5 -16t38.5 -5q57 0 96.5 33t53.5 97l69 325h75l-110 -516h-75l12 55
q-17 -25 -52.5 -45t-83.5 -20zM192 -86h76l-17 -76h-76z" />
    <glyph glyph-name="wacute" unicode="&#x1e83;" 
d="M400 132l138 384h75l-192 -516h-67l-27 348l-181 -348h-67l26 516h72l-21 -370l148 290h74zM248 579l12 54l264 72l-12 -54z" />
    <glyph glyph-name="wcircumflex" unicode="&#x175;" 
d="M400 132l138 384h75l-192 -516h-67l-27 348l-181 -348h-67l26 516h72l-21 -370l148 290h74zM393 651l-167 -72l13 58l157 68l145 -77l-11 -49z" />
    <glyph glyph-name="wdieresis" unicode="&#x1e85;" 
d="M400 132l138 384h75l-192 -516h-67l-27 348l-181 -348h-67l26 516h72l-21 -370l148 290h74zM239 683h76l-17 -76h-76zM475 683h76l-17 -76h-76z" />
    <glyph glyph-name="wgrave" unicode="&#x1e81;" 
d="M400 132l138 384h75l-192 -516h-67l-27 348l-181 -348h-67l26 516h72l-21 -370l148 290h74zM249 657l10 48l264 -72l-10 -48z" />
    <glyph glyph-name="ycircumflex" unicode="&#x177;" 
d="M210 -10l-79 526h73l62 -427l240 427h81l-370 -647q-17 -30 -46.5 -41t-78.5 -12h-47l15 71h56q24 0 34.5 8.5t18.5 22.5zM392 651l-167 -72l13 58l157 68l145 -77l-11 -49z" />
    <glyph glyph-name="ygrave" unicode="&#x1ef3;" 
d="M210 -10l-79 526h73l62 -427l240 427h81l-370 -647q-17 -30 -46.5 -41t-78.5 -12h-47l15 71h56q24 0 34.5 8.5t18.5 22.5zM249 657l10 48l264 -72l-10 -48z" />
    <glyph glyph-name="uni0233" unicode="&#x233;" 
d="M210 -10l-79 526h73l62 -427l240 427h81l-370 -647q-17 -30 -46.5 -41t-78.5 -12h-47l15 71h56q24 0 34.5 8.5t18.5 22.5zM225 620l11 50h312l-11 -50h-312z" />
    <glyph glyph-name="zacute" unicode="&#x17a;" 
d="M166 71h291l-15 -71h-388l15 71l363 374h-278l15 71h375l-15 -71zM246 579l12 54l264 72l-12 -54z" />
    <glyph glyph-name="zcaron" unicode="&#x17e;" 
d="M166 71h291l-15 -71h-388l15 71l363 374h-278l15 71h375l-15 -71zM378 633l167 72l-13 -58l-157 -68l-145 77l11 49z" />
    <glyph glyph-name="zdotaccent" unicode="&#x17c;" 
d="M166 71h291l-15 -71h-388l15 71l363 374h-278l15 71h375l-15 -71zM354 683h76l-17 -76h-76z" />
    <glyph glyph-name="ellipsis" unicode="&#x2026;" 
d="M58 105h105l-23 -105h-105zM261 105h105l-23 -105h-105zM464 105h105l-23 -105h-105z" />
    <glyph glyph-name="endash" unicode="&#x2013;" 
d="M107 258l9 45h396l-9 -45h-396z" />
    <glyph glyph-name="emdash" unicode="&#x2014;" 
d="M76 258l9 45h459l-9 -45h-459z" />
    <glyph glyph-name="guilsinglleft" unicode="&#x2039;" 
d="M173 258l254 210l29 -34l-221 -182l137 -176l-34 -28z" />
    <glyph glyph-name="guilsinglright" unicode="&#x203a;" 
d="M435 258l-254 -210l-29 34l221 182l-137 176l34 28z" />
    <glyph glyph-name="quoteleft" unicode="&#x2018;" 
d="M353 467l-46 19l87 219l46 -19z" />
    <glyph glyph-name="quoteright" unicode="&#x2019;" 
d="M353 467l-46 19l87 219l46 -19z" />
    <glyph glyph-name="quotedblleft" unicode="&#x201c;" 
d="M465 467l-46 19l87 219l46 -19zM243 467l-46 19l87 219l46 -19z" />
    <glyph glyph-name="quotedblright" unicode="&#x201d;" 
d="M465 467l-46 19l87 219l46 -19zM243 467l-46 19l87 219l46 -19z" />
    <glyph glyph-name="quotesinglbase" unicode="&#x201a;" 
d="M229 -119l-46 19l87 219l46 -19z" />
    <glyph glyph-name="quotedblbase" unicode="&#x201e;" 
d="M340 -119l-46 19l87 219l46 -19zM117 -119l-46 19l87 219l46 -19z" />
    <glyph glyph-name="bullet" unicode="&#x2022;" 
d="M155 298q0 35 13 65.5t36 53.5t53.5 36t65.5 13t65.5 -13t53.5 -36t36 -53.5t13 -65.5t-13 -65.5t-36 -53.5t-53.5 -36t-65.5 -13t-65.5 13t-53.5 36t-36 53.5t-13 65.5z" />
    <glyph glyph-name="dagger" unicode="&#x2020;" 
d="M371 473l-119 -560h-43l119 560h-176l9 43h176l39 184h43l-39 -184h176l-9 -43h-176z" />
    <glyph glyph-name="daggerdbl" unicode="&#x2021;" 
d="M291 97l-39 -184h-43l39 184h-176l9 43h176l71 333h-176l9 43h176l39 184h43l-39 -184h176l-9 -43h-176l-71 -333h176l-9 -43h-176z" />
    <glyph glyph-name="perthousand" unicode="&#x2030;" 
d="M75 567q0 28 10.5 53.5t29.5 44t43.5 29.5t53.5 11q28 0 53.5 -11t44 -29.5t29.5 -44t11 -53.5q0 -29 -11 -53.5t-29.5 -43.5t-44 -29.5t-53.5 -10.5q-29 0 -53.5 10.5t-43.5 29.5t-29.5 43.5t-10.5 53.5zM235 86q0 19 7 36t19.5 29.5t29 19.5t35.5 7q25 0 46 -12.5
t33 -32.5q12 20 32.5 32.5t45.5 12.5q19 0 36 -7t29.5 -19.5t19.5 -29.5t7 -36t-7 -35.5t-19.5 -29t-29.5 -19.5t-36 -7q-25 0 -45.5 12t-32.5 32q-12 -20 -33 -32t-46 -12q-38 0 -64.5 26.5t-26.5 64.5zM526 585l32 -32l-434 -435l-32 32zM137 567q0 -32 21.5 -54t53.5 -22
t54 22t22 54t-22 54.5t-54 22.5t-53.5 -22.5t-21.5 -54.5zM431 86q0 -22 15 -37t37 -15t37.5 14.5t15.5 37.5t-15.5 38t-37.5 15t-37 -15.5t-15 -37.5zM274 86q0 -22 15 -37t37 -15t37.5 14.5t15.5 37.5t-15.5 38t-37.5 15t-37 -15.5t-15 -37.5z" />
    <glyph glyph-name="uni2117" unicode="&#x2117;" 
d="M544 451q0 48 -14.5 88t-43 68.5t-69.5 44.5t-94 16t-94 -16t-69.5 -44.5t-43 -68.5t-14.5 -88v-202q0 -48 14.5 -88t43 -68.5t69.5 -44.5t94 -16t94 16t69.5 44.5t43 68.5t14.5 88v202zM587 249q0 -58 -17.5 -106t-51.5 -82t-83 -52.5t-112 -18.5t-112 18.5t-83 52.5
t-51.5 82t-17.5 106v202q0 58 17.5 106t51.5 82t83 52.5t112 18.5t112 -18.5t83 -52.5t51.5 -82t17.5 -106v-202zM186 559h165q36 0 62.5 -11.5t44.5 -30.5t26.5 -44t8.5 -53t-8.5 -53t-26.5 -44t-44.5 -30.5t-62.5 -11.5h-97v-140h-68v418zM351 349q38 0 55.5 21.5
t17.5 50.5t-17.5 50.5t-55.5 21.5h-97v-144h97z" />
    <glyph glyph-name="trademark" unicode="&#x2122;" 
d="M179 636h-101v64h267v-64h-101v-279h-65v279zM382 700h61l72 -171l72 171h61v-343h-64v199l-45 -107h-48l-45 107v-199h-64v343z" />
    <glyph glyph-name="lozenge" unicode="&#x25ca;" 
d="M323 -10l-257 360l257 360l257 -360zM323 69l201 281l-201 281l-201 -281z" />
    <glyph glyph-name="afii61289" unicode="&#x2113;" 
d="M257 547q18 84 49 123.5t92 39.5q43 0 64 -27t21 -72q0 -47 -18.5 -98.5t-48.5 -100.5t-69 -91t-79 -71q-11 -49 -16.5 -76.5t-8 -42t-3 -21.5t-0.5 -14q0 -29 14.5 -40.5t40.5 -11.5q14 0 30.5 2.5t34.5 6.5l3 -31q-66 -32 -113 -32q-37 0 -62 22t-25 69v15t1.5 17.5
t5 28t9.5 46.5l-48 -33l-19 32l78 54zM335 558q-18 -82 -31 -143.5t-23 -108.5q30 26 60 60.5t53.5 73t38 79t14.5 79.5q0 26 -10.5 41.5t-34.5 15.5q-19 0 -37 -20.5t-30 -76.5z" />
    <glyph glyph-name="afii61352" unicode="&#x2116;" 
d="M307 0h-67l-41 514l-109 -514h-67l148 700h67l41 -514l109 514h67zM419 340l12 55h134l-12 -55h-134zM451 488q10 -2 18 -2q32 0 54 22t22 54q0 29 -17.5 50t-45.5 26l13 60q24 -5 44.5 -17.5t35.5 -30.5t23.5 -40.5t8.5 -47.5q0 -29 -11 -53.5t-29.5 -43.5t-44 -29.5
t-53.5 -10.5q-16 0 -31 3z" />
    <glyph glyph-name="apple" 
d="M175 26q-28 6 -38.5 24.5t-10.5 53.5v256q-27 0 -37 24q-24 10 -24 37q0 17 11 28q-17 8 -26.5 23.5t-9.5 35.5q0 19 9.5 35t26.5 24q-11 11 -11 28q0 15 9 26.5t23 13.5q6 20 23 34t40 14q24 0 44 -17q7 19 23.5 31.5t37.5 12.5q17 0 31.5 -8.5t23.5 -22.5q14 7 29 7
q19 0 35 -10t24 -27q12 12 28 12q13 0 22.5 -6.5t14.5 -17.5q22 -5 36.5 -23t14.5 -41q0 -19 -9.5 -34t-24.5 -23v-38h4q47 0 63.5 -18.5t16.5 -61.5v-215q0 -43 -16.5 -61.5t-63.5 -18.5h-4q0 -35 -10.5 -53t-38.5 -24v-26h-266v26zM441 510q-17 4 -29 17h-83
q-19 -19 -46 -19q-34 0 -53 27q-8 -3 -16 -3q-18 0 -29 11q-2 -4 -4.5 -7.5t-5.5 -7.5v-424q0 -19 7 -26.5t25 -7.5h202q18 0 25 7.5t7 26.5v406zM105 443q-10 0 -15.5 -7t-5.5 -15q0 -9 6 -15t15 -6q0 -9 6 -15t15 -6v147q19 0 32 12t15 30v4h19q0 -10 6.5 -15.5t15.5 -5.5
t15 6t6 15h19q0 -8 -2.5 -14.5t-6.5 -11.5q13 -19 38 -19q20 0 33.5 13t13.5 33h82q0 -20 13 -33t33 -13t33.5 13t13.5 33t-13.5 33.5t-33.5 13.5q0 9 -6.5 15.5t-15.5 6.5q-8 0 -14.5 -5.5t-6.5 -16.5h-19q0 20 -13.5 33.5t-33.5 13.5q-15 0 -26.5 -8.5t-16.5 -21.5
q12 -4 20 -14t8 -24h-19q0 9 -6.5 15t-15.5 6t-15 -6t-6 -15h-19q0 15 9.5 26t23.5 13q6 19 19 30q-6 11 -17 17t-23 6q-19 0 -32 -13t-14 -32q7 -16 7 -29h-19q0 20 -13.5 33.5t-33.5 13.5q-15 0 -26.5 -8t-16.5 -22q13 -4 21 -14.5t8 -24.5h-19q0 9 -6.5 15.5t-15.5 6.5
t-15 -6.5t-6 -15.5q0 -19 17 -21h4v-19h-4q-18 -2 -30 -15t-12 -32t12 -32t30 -14h4v-19zM525 398q0 19 -7 26.5t-24 7.5h-4v-283h4q17 0 24 7.5t7 26.5v215zM216 478h15v-375h-15v375zM384 478h15v-375h-15v375zM328 478h15v-375h-15v375zM272 478h15v-375h-15v375z" />
    <glyph glyph-name="estimated" unicode="&#x212e;" 
d="M317 609q-35 0 -67.5 -13t-59.5 -36q-12 -10 -12 -25v-191q0 -10 10 -10h260q10 0 10 10v191q0 15 -12 25q-28 23 -60 36t-69 13zM327 -10q-61 0 -112.5 26t-89 70.5t-58.5 104t-21 126.5q0 63 21 122t57.5 104.5t86 73t106.5 27.5q58 0 107.5 -27t86.5 -72.5t58 -104.5
t21 -123v-17h-402q-10 0 -10 -10v-191q0 -15 12 -25q27 -23 60.5 -36t76.5 -13q51 0 90 19.5t69 49.5h50q-38 -45 -90 -74.5t-119 -29.5z" />
    <glyph glyph-name="minus" unicode="&#x2212;" 
d="M111 258v45h396v-45h-396z" />
    <glyph glyph-name="lessequal" unicode="&#x2264;" 
d="M111 0v45h396v-45h-396zM111 299v44l396 180v-48l-338 -154l338 -154v-48z" />
    <glyph glyph-name="greaterequal" unicode="&#x2265;" 
d="M111 0v45h396v-45h-396zM111 119v48l338 154l-338 154v48l396 -180v-44z" />
    <glyph glyph-name="notequal" unicode="&#x2260;" 
d="M266 155l-65 -117l-37 22l53 95h-106v45h396v-45h-241zM401 395h106v-45h-396v45h240l66 117l37 -22z" />
    <glyph glyph-name="approxequal" unicode="&#x2248;" 
d="M358 310l-102 73l-135 -73l-21 38l159 86l102 -73l135 73l21 -38zM358 116l-102 73l-135 -73l-21 38l159 86l102 -73l135 73l21 -38z" />
    <glyph glyph-name="partialdiff" unicode="&#x2202;" 
d="M497 552q0 50 -30 81.5t-98 31.5q-33 0 -63 -11t-54.5 -31t-42 -49.5t-23.5 -65.5l-1 -8h-45l1 8q10 56 34.5 94.5t57.5 62.5t71 34.5t75 10.5q30 0 59 -8t52 -25.5t37.5 -46t14.5 -69.5q0 -12 -1 -25.5t-4 -27.5l-61 -316q-10 -56 -34.5 -94.5t-57.5 -62.5t-71 -34.5
t-75 -10.5q-30 0 -59 8t-52 25.5t-37.5 46t-14.5 69.5q0 21 4 43.5t8 45.5q10 56 34.5 94.5t57 62.5t70.5 34.5t75 10.5q50 0 87.5 -21.5t51.5 -53.5q0 1 1.5 8.5t3.5 18.5t4.5 24.5t5.5 27.5l14 74q2 13 3.5 23t1.5 21zM248 35q33 0 63 11t54.5 31t42 49.5t23.5 65.5
q4 21 8 40.5t4 39.5q0 50 -30.5 81.5t-98.5 31.5q-33 0 -63 -11t-54.5 -31t-41.5 -49.5t-23 -65.5q-4 -21 -8 -40.5t-4 -39.5q0 -50 30 -81.5t98 -31.5z" />
    <glyph glyph-name="product" unicode="&#x220f;" 
d="M103 700h442v-700h-55v647h-332v-647h-55v700z" />
    <glyph glyph-name="radical" unicode="&#x221a;" 
d="M468 700h102v-42h-69l-194 -658h-64l-77 258h-68v42h102l75 -253z" />
    <glyph glyph-name="summation" unicode="&#x2211;" 
d="M389 258l-321 400v42h512v-42h-454l321 -400l-321 -400h454v-42h-512v42z" />
    <glyph glyph-name="integral" unicode="&#x222b;" 
d="M326 -81q0 -25 -4.5 -44t-16.5 -32t-33 -20t-53 -7h-118v42h118q40 0 52 15t12 46v678q0 25 4.5 44t16.5 32t33 20t53 7h118v-42h-118q-40 0 -52 -15t-12 -46v-678z" />
    <glyph glyph-name="infinity" unicode="&#x221e;" 
d="M92 336q0 26 9.5 49t26.5 40t40 27t49 10q32 0 59.5 -15t44.5 -40q17 25 44 40t60 15q26 0 49 -10t40 -27t27 -40t10 -49t-10 -49t-27 -40t-40 -26.5t-49 -9.5q-33 0 -60 14.5t-44 39.5q-17 -25 -44.5 -39.5t-59.5 -14.5q-26 0 -49 9.5t-40 26.5t-26.5 40t-9.5 49z
M343 336q0 -35 23.5 -59t58.5 -24t59 24t24 59q0 17 -6.5 32.5t-17.5 27t-26 18t-33 6.5q-35 0 -58 -23.5t-24 -57.5v-3zM135 336q0 -35 23.5 -59t58.5 -24t59 24t24 59v3q-2 34 -25 57.5t-58 23.5t-58.5 -24.5t-23.5 -59.5z" />
    <glyph glyph-name="Delta" unicode="&#x394;" 
d="M11 0l263 710l263 -710h-526zM274 559l-187 -505h374z" />
    <glyph glyph-name="Delta" unicode="&#x2206;" 
d="M11 0l263 710l263 -710h-526zM274 559l-187 -505h374z" />
    <glyph glyph-name="Omega" unicode="&#x3a9;" 
d="M520 521q0 34 -11.5 59.5t-31 43t-45.5 26t-55 8.5q-33 0 -63.5 -10t-55.5 -31t-44 -54.5t-29 -80.5q-16 -73 -27.5 -127.5t-11.5 -80.5q0 -47 23 -79.5t61 -45.5l-32 -149h-151l11 52h96l15 67q-35 23 -56.5 61.5t-21.5 86.5q0 29 10.5 79.5t28.5 135.5q22 106 82.5 167
t171.5 61q39 0 73.5 -12.5t60.5 -36t41.5 -57.5t15.5 -76q0 -29 -11 -81.5t-28 -133.5q-18 -84 -57 -137t-105 -75l-10 -49h96l-11 -52h-151l30 142q54 11 95 52t58 119q16 76 27.5 129t11.5 79z" />
    <glyph glyph-name="Omega" unicode="&#x2126;" 
d="M520 521q0 34 -11.5 59.5t-31 43t-45.5 26t-55 8.5q-33 0 -63.5 -10t-55.5 -31t-44 -54.5t-29 -80.5q-16 -73 -27.5 -127.5t-11.5 -80.5q0 -47 23 -79.5t61 -45.5l-32 -149h-151l11 52h96l15 67q-35 23 -56.5 61.5t-21.5 86.5q0 29 10.5 79.5t28.5 135.5q22 106 82.5 167
t171.5 61q39 0 73.5 -12.5t60.5 -36t41.5 -57.5t15.5 -76q0 -29 -11 -81.5t-28 -133.5q-18 -84 -57 -137t-105 -75l-10 -49h96l-11 -52h-151l30 142q54 11 95 52t58 119q16 76 27.5 129t11.5 79z" />
    <glyph glyph-name="pi" unicode="&#x3c0;" 
d="M77 466l11 50h542l-11 -50h-73l-98 -466h-53l98 466h-290l-98 -466h-53l98 466h-73z" />
    <glyph glyph-name="Euro" unicode="&#x20ac;" 
d="M410 710q39 0 74 -10.5t61.5 -32.5t42 -56t15.5 -80v-19t-2 -19h-78q2 9 2.5 18t0.5 14q0 54 -31.5 82.5t-95.5 28.5q-69 0 -114.5 -41.5t-63.5 -121.5l-11 -47h250l-9 -43h-250l-14 -65h250l-9 -43h-251q-8 -40 -12 -65t-4 -35q0 -54 31.5 -82.5t95.5 -28.5t108.5 36.5
t64.5 106.5h77q-27 -106 -88.5 -161.5t-172.5 -55.5q-39 0 -74 10.5t-61.5 32.5t-42 56t-15.5 80q0 10 0.5 18t2 18.5t4.5 26.5t9 43h-68l9 43h69l14 65h-69l9 43h70l10 47q25 115 87.5 176t178.5 61z" />
    <glyph glyph-name="fi" unicode="&#xfb01;" 
d="M323 629q-27 0 -40 -10.5t-18 -35.5l-14 -67h329l-110 -516h-75l95 445h-255l-94 -445h-75l94 445h-73l16 71h73l13 61q7 33 15.5 56.5t24.5 38t42 21.5t67 7h79l-15 -71h-79zM519 700h110l-23 -110h-110z" />
    <glyph glyph-name="f_i" 
d="M323 629q-27 0 -40 -10.5t-18 -35.5l-14 -67h329l-110 -516h-75l95 445h-255l-94 -445h-75l94 445h-73l16 71h73l13 61q7 33 15.5 56.5t24.5 38t42 21.5t67 7h79l-15 -71h-79zM519 700h110l-23 -110h-110z" />
    <glyph glyph-name="fl" unicode="&#xfb02;" 
d="M395 0l134 629h-206q-27 0 -40 -10.5t-18 -35.5l-14 -67h127l-16 -71h-127l-94 -445h-75l94 445h-73l16 71h73l13 61q7 33 15.5 56.5t24.5 38t42 21.5t67 7h281l-149 -700h-75z" />
    <glyph glyph-name="f_l" 
d="M395 0l134 629h-206q-27 0 -40 -10.5t-18 -35.5l-14 -67h127l-16 -71h-127l-94 -445h-75l94 445h-73l16 71h73l13 61q7 33 15.5 56.5t24.5 38t42 21.5t67 7h281l-149 -700h-75z" />
    <glyph glyph-name="breve" unicode="&#x2d8;" 
d="M332 589q-40 0 -65 25t-25 63v11t2 12h47q-1 -5 -1 -13q0 -21 13.5 -35t36.5 -14h55q31 0 52.5 20t26.5 42h52q-10 -46 -45 -78.5t-89 -32.5h-60z" />
    <glyph glyph-name="caron" unicode="&#x2c7;" 
d="M374 633l167 72l-13 -58l-157 -68l-145 77l11 49z" />
    <glyph glyph-name="circumflex" unicode="&#x2c6;" 
d="M390 651l-167 -72l13 58l157 68l145 -77l-11 -49z" />
    <glyph glyph-name="dotaccent" unicode="&#x2d9;" 
d="M354 683h76l-17 -76h-76z" />
    <glyph glyph-name="hungarumlaut" unicode="&#x2dd;" 
d="M222 599l12 54l126 35l-12 -54zM408 599l12 54l126 35l-12 -54z" />
    <glyph glyph-name="commaaccent" 
d="M187 -189l-36 37l100 99l36 -36z" />
    <glyph glyph-name="ogonek" unicode="&#x2db;" 
d="M262 -186q-9 -2 -14.5 -2.5t-11.5 -0.5q-37 0 -60 26.5t-23 59.5q0 40 20 66t46 37h83q-15 -6 -32.5 -14.5t-32.5 -20t-25 -27t-10 -34.5q0 -44 46 -44q12 0 24 3z" />
    <glyph glyph-name="ring" unicode="&#x2da;" 
d="M270 595q0 24 9 44.5t24.5 36.5t36 25t44.5 9t44.5 -9t36.5 -25t25 -36.5t9 -44.5t-9 -44.5t-25 -36t-36.5 -24.5t-44.5 -9t-44.5 9t-36 24.5t-24.5 36t-9 44.5zM319 595q0 -27 19 -46t46 -19t46.5 19t19.5 46t-19.5 46.5t-46.5 19.5t-46 -19.5t-19 -46.5z" />
    <glyph glyph-name="tilde" unicode="&#x2dc;" 
d="M427 580l-91 66l-124 -66l14 63l113 60l91 -66l124 66l-14 -63z" />
    <glyph glyph-name="uni032C" unicode="&#x32c;" 
d="M228 -77l167 72l-13 -58l-157 -68l-145 77l11 49z" />
    <glyph glyph-name="one.case" 
d="M180 538l196 162h77l-133 -626h181l-15 -74h-441l15 74h183l107 505l-126 -102z" />
    <glyph glyph-name="two.case" 
d="M207 357q-25 23 -38.5 53.5t-13.5 62.5q0 50 16 93.5t46 75.5t72 50t93 18q39 0 72 -14t57 -37.5t37 -53.5t13 -63q0 -35 -8.5 -65t-24 -56.5t-36.5 -50.5t-45 -46l-276 -250h297l-15 -74h-406l16 74l331 302q38 35 65.5 72.5t27.5 83.5q0 43 -29 73t-83 30
q-33 0 -60 -14t-46 -36.5t-29.5 -49.5t-10.5 -53q0 -45 32 -74z" />
    <glyph glyph-name="three.case" 
d="M258 -10q-39 0 -72 13.5t-57 36.5t-37.5 53t-13.5 63q0 18 3 38h74q-3 -15 -3 -29q0 -43 29.5 -72t83.5 -29q33 0 60 14t46 35.5t29 48t10 52.5q0 20 -7 39t-20 34t-32 24t-43 11l16 72h12q33 0 59 13t43.5 34t27 47t9.5 51q0 42 -26 69.5t-79 27.5q-29 0 -53 -10.5
t-41 -27.5t-28 -39t-15 -44h-74q5 43 22 78.5t45 61.5t66 40.5t85 14.5q39 0 70.5 -13t54 -35t35 -51t12.5 -62q0 -70 -30.5 -123.5t-85.5 -81.5q24 -24 37.5 -55t13.5 -64q0 -50 -16 -93t-46 -74.5t-71.5 -49.5t-92.5 -18z" />
    <glyph glyph-name="four.case" 
d="M322 0l39 187h-320l16 74l418 444l55 -49l-373 -395h220l34 158h77l-34 -158h73l-16 -74h-73l-39 -187h-77z" />
    <glyph glyph-name="five.case" 
d="M264 -10q-39 0 -72 14t-57 37.5t-37 53.5t-13 63q0 9 0.5 17t2.5 19h75q-4 -17 -4 -26q0 -43 29 -72.5t83 -29.5t93 35.5t51 92.5q8 35 11.5 50t3.5 23q0 43 -29 73.5t-83 30.5q-39 0 -71 -20.5t-52 -52.5l-68 50l153 352h280l-16 -74h-213l-87 -198q11 6 32.5 11.5
t48.5 5.5q39 0 72 -14t57 -37.5t37 -53.5t13 -63q0 -9 -0.5 -16.5t-2 -17t-4.5 -23t-7 -34.5q-9 -42 -27.5 -78t-46.5 -62.5t-66 -41t-86 -14.5z" />
    <glyph glyph-name="six.case" 
d="M253 -10q-39 0 -72 14t-57 37.5t-37 53.5t-13 63q0 9 0.5 16.5t2 17t4 23t7.5 34.5q8 38 23.5 72t39.5 59l308 325l54 -49l-200 -212h6q36 0 67.5 -14t55 -37.5t37 -53.5t13.5 -62q0 -9 -0.5 -16.5t-1.5 -17t-4 -23t-7 -34.5q-9 -42 -27.5 -78t-46.5 -62.5t-66 -41
t-86 -14.5zM260 64q54 0 93 36.5t51 93.5q8 35 11 50t3 23q0 43 -28.5 73.5t-82.5 30.5q-27 0 -50.5 -10t-42.5 -27t-32 -41t-19 -52q-8 -35 -11.5 -50t-3.5 -23q0 -43 29 -73.5t83 -30.5z" />
    <glyph glyph-name="seven.case" 
d="M198 700h400l-15 -74l-358 -631l-69 27l342 604h-239l-24 -117h-77z" />
    <glyph glyph-name="eight.case" 
d="M266 -10q-39 0 -72 14t-57 37.5t-37 53.5t-13 63q0 71 32 127t89 84q-45 45 -45 111q0 52 17 94.5t46.5 72.5t69.5 46.5t87 16.5q39 0 70.5 -13t54 -35t35 -51t12.5 -62q0 -72 -31.5 -124.5t-83.5 -79.5q25 -23 39 -54t14 -64q0 -50 -16 -93.5t-46 -75.5t-72 -50t-93 -18
zM273 64q33 0 60 14t46 36.5t29.5 49t10.5 52.5q0 43 -29 73.5t-83 30.5q-33 0 -60 -14.5t-46 -37t-29.5 -49.5t-10.5 -53q0 -43 29 -72.5t83 -29.5zM342 393q33 0 59 13.5t44 34.5t27 47t9 51q0 42 -26 69.5t-79 27.5q-33 0 -59 -13.5t-44 -34.5t-27 -47t-9 -51
q0 -42 25.5 -69.5t79.5 -27.5z" />
    <glyph glyph-name="nine.case" 
d="M394 710q39 0 72 -14t57 -37.5t37 -53.5t13 -63q0 -9 -0.5 -16.5t-2 -17t-4.5 -23t-7 -34.5q-8 -38 -23.5 -72t-39.5 -59l-308 -325l-54 49l200 212h-6q-36 0 -67.5 14t-55 37.5t-37 53.5t-13.5 62q0 9 0.5 16.5t1.5 17t3.5 23t7.5 34.5q9 42 27.5 78t46.5 62.5t66 41
t86 14.5zM387 636q-54 0 -93 -36.5t-51 -93.5q-8 -35 -11 -50t-3 -23q0 -43 28.5 -73.5t82.5 -30.5q27 0 50.5 10t42.5 27t32 41t19 52q8 35 11.5 50t3.5 23q0 43 -29 73.5t-83 30.5z" />
    <glyph glyph-name="zero.case" 
d="M265 -10q-39 0 -72 14t-57 37.5t-37 53.5t-13 63q0 9 1 19t3.5 25.5t7.5 39.5t12.5 60.5t18.5 88.5t27 123q9 42 27.5 78t47 62.5t66 41t85.5 14.5q39 0 72 -14t57 -37.5t37 -53.5t13 -63q0 -13 -2 -30.5t-9.5 -54t-21.5 -100.5t-37 -171q-9 -42 -27.5 -78t-47 -62.5
t-66 -41t-85.5 -14.5zM272 64q54 0 93 36.5t51 93.5l53 248l-307 -254q-2 -9 -2 -13v-7q0 -43 29 -73.5t83 -30.5zM487 532q0 43 -29 73.5t-83 30.5t-93 -36.5t-51 -93.5l-54 -248l307 254q2 9 2.5 12.5t0.5 7.5z" />
    <glyph glyph-name="uni21B2" unicode="&#x21b2;" 
d="M341 20l-30 -30l-286 285l286 285l30 -30l-234 -233h374v403h44v-447h-418z" />
    <glyph glyph-name="uni21B3" unicode="&#x21b3;" 
d="M127 297h374l-234 233l30 30l286 -285l-286 -285l-30 30l234 233h-418v447h44v-403z" />
    <glyph glyph-name="uni21B0" unicode="&#x21b0;" 
d="M341 20l-30 -30l-286 285l286 285l30 -30l-234 -233h418v-481h-44v437h-374z" />
    <glyph glyph-name="uni21B1" unicode="&#x21b1;" 
d="M127 -184h-44v481h418l-234 233l30 30l286 -285l-286 -285l-30 30l234 233h-374v-437z" />
    <glyph glyph-name="uni2190" unicode="&#x2190;" 
d="M341 20l-30 -30l-286 285l286 285l30 -30l-234 -233h476v-44h-476z" />
    <glyph glyph-name="uni2191" unicode="&#x2191;" 
d="M326 628v-628h-44v628l-233 -234l-30 30l285 286l285 -286l-30 -30z" />
    <glyph glyph-name="uni2192" unicode="&#x2192;" 
d="M501 253h-476v44h476l-234 233l30 30l286 -285l-286 -285l-30 30z" />
    <glyph glyph-name="uni2193" unicode="&#x2193;" 
d="M559 316l30 -30l-285 -286l-285 286l30 30l233 -234v628h44v-628z" />
    <glyph glyph-name="uni2196" unicode="&#x2196;" 
d="M131 473l452 -452l-31 -31l-453 452v-330h-43v404h405v-43h-330z" />
    <glyph glyph-name="uni2197" unicode="&#x2197;" 
d="M147 473v43h405v-404h-43v330l-453 -452l-31 31l452 452h-330z" />
    <glyph glyph-name="uni2198" unicode="&#x2198;" 
d="M477 43l-452 452l31 31l453 -452v330h43v-404h-405v43h330z" />
    <glyph glyph-name="uni2199" unicode="&#x2199;" 
d="M461 43v-43h-405v404h43v-330l453 452l31 -31l-452 -452h330z" />
    <glyph glyph-name="uni25A0" unicode="&#x25a0;" 
d="M46 516h516v-516h-516v516z" />
    <glyph glyph-name="uni25A1" unicode="&#x25a1;" 
d="M46 516h516v-516h-516v516zM90 44h428v428h-428v-428z" />
    <glyph glyph-name="uni25CB" unicode="&#x25cb;" 
d="M34 260q0 56 21 105t58 86t86 58t105 21t105 -21t86 -58t58 -86t21 -105t-21 -105t-58 -86t-86 -58t-105 -21t-105 21t-86 58t-58 86t-21 105zM77 260q0 -47 18 -88.5t48.5 -72t72 -48.5t88.5 -18t88.5 18t72 48.5t48.5 72t18 88.5t-18 88.5t-48.5 72t-72 48.5t-88.5 18
t-88.5 -18t-72 -48.5t-48.5 -72t-18 -88.5z" />
    <glyph glyph-name="uni25CF" unicode="&#x25cf;" 
d="M34 260q0 56 21 105t58 86t86 58t105 21t105 -21t86 -58t58 -86t21 -105t-21 -105t-58 -86t-86 -58t-105 -21t-105 21t-86 58t-58 86t-21 105z" />
    <glyph glyph-name="onethird" unicode="&#x2153;" 
d="M117 635l79 65h42l-48 -221h69l-9 -40h-178l9 40h67l34 158l-40 -34zM497 531l26 -33l-392 -324l-26 33zM423 -4q-15 0 -28 5.5t-23.5 15t-16.5 22.5t-6 27v4.5t1 6.5h41q-1 -3 -1 -8q0 -14 10 -23.5t26 -9.5q21 0 33 14.5t12 35.5q0 13 -9 22.5t-23 10.5l8 38h4
q17 0 27 11t10 29q0 11 -7.5 19.5t-20.5 8.5q-34 0 -37 -34h-41q2 32 22.5 53t58.5 21q26 0 45.5 -18t19.5 -47q0 -22 -8 -39.5t-24 -28.5q16 -19 16 -43q0 -38 -23 -65.5t-66 -27.5z" />
    <glyph glyph-name="uni2155" unicode="&#x2155;" 
d="M117 635l79 65h42l-48 -221h69l-9 -40h-178l9 40h67l34 158l-40 -34zM497 531l26 -33l-392 -324l-26 33zM422 -4q-31 0 -51.5 20.5t-20.5 49.5v11h41v-8q0 -14 9 -23.5t24 -9.5q19 0 30.5 12t15.5 29q2 8 2.5 12t0.5 7q0 14 -9 23.5t-25 9.5q-23 0 -36 -19l-36 33l51 118
h117l-9 -39h-82l-24 -57q4 2 10 3t12 1q31 0 51.5 -20.5t20.5 -49.5v-7.5t-2 -13.5q-8 -36 -29 -59t-61 -23z" />
    <glyph glyph-name="uni2159" unicode="&#x2159;" 
d="M117 635l79 65h42l-48 -221h69l-9 -40h-178l9 40h67l34 158l-40 -34zM497 531l26 -33l-392 -324l-26 33zM426 -4q-31 0 -51.5 20.5t-20.5 49.5v8.5t2 13.5q8 37 28 57l111 118l31 -26l-66 -69l4 -1q23 -5 38.5 -25t15.5 -43v-8.5t-2 -12.5q-8 -37 -29 -59.5t-61 -22.5z
M429 36q19 0 29.5 11.5t15.5 29.5q4 15 4 19q0 14 -9.5 23.5t-24.5 9.5q-19 0 -30.5 -12t-15.5 -29q-2 -8 -2.5 -12t-0.5 -7q0 -14 9 -23.5t25 -9.5z" />
    <glyph glyph-name="oneeighth" unicode="&#x215b;" 
d="M117 635l79 65h42l-48 -221h69l-9 -40h-178l9 40h67l34 158l-40 -34zM497 531l26 -33l-392 -324l-26 33zM431 -4q-29 0 -50.5 20.5t-21.5 49.5q0 26 11.5 47t32.5 33q-11 16 -11 37q0 35 20.5 58.5t60.5 23.5q26 0 45.5 -18t19.5 -47q0 -44 -33 -68q17 -19 17 -43
q0 -38 -24 -65.5t-67 -27.5zM434 36q21 0 34 14.5t13 35.5q0 14 -9.5 23.5t-24.5 9.5q-21 0 -34 -14.5t-13 -35.5q0 -14 9 -23.5t25 -9.5zM459 158q17 0 28 10.5t11 28.5q0 11 -7.5 19.5t-20.5 8.5q-18 0 -27.5 -10.5t-9.5 -28.5q0 -11 6.5 -19.5t19.5 -8.5z" />
    <glyph glyph-name="twothirds" unicode="&#x2154;" 
d="M130 567q-17 20 -17 44q0 38 24 65.5t67 27.5q29 0 50.5 -20.5t21.5 -49.5q0 -27 -11.5 -45.5t-34.5 -37.5l-84 -72h99l-9 -40h-162l9 40l116 99q16 14 26 25t10 28q0 14 -9 23.5t-25 9.5q-21 0 -34 -14.5t-13 -35.5q0 -13 7 -21zM496 531l26 -33l-392 -324l-26 33z
M423 -4q-15 0 -28 5.5t-23.5 15t-16.5 22.5t-6 27v4.5t1 6.5h41q-1 -3 -1 -8q0 -14 10 -23.5t26 -9.5q21 0 33 14.5t12 35.5q0 13 -9 22.5t-23 10.5l8 38h4q17 0 27 11t10 29q0 11 -7.5 19.5t-20.5 8.5q-34 0 -37 -34h-41q2 32 22.5 53t58.5 21q26 0 45.5 -18t19.5 -47
q0 -22 -8 -39.5t-24 -28.5q16 -19 16 -43q0 -38 -23 -65.5t-66 -27.5z" />
    <glyph glyph-name="uni2156" unicode="&#x2156;" 
d="M130 567q-17 20 -17 44q0 38 24 65.5t67 27.5q29 0 50.5 -20.5t21.5 -49.5q0 -27 -11.5 -45.5t-34.5 -37.5l-84 -72h99l-9 -40h-162l9 40l116 99q16 14 26 25t10 28q0 14 -9 23.5t-25 9.5q-21 0 -34 -14.5t-13 -35.5q0 -13 7 -21zM496 531l26 -33l-392 -324l-26 33z
M422 -4q-31 0 -51.5 20.5t-20.5 49.5v11h41v-8q0 -14 9 -23.5t24 -9.5q19 0 30.5 12t15.5 29q2 8 2.5 12t0.5 7q0 14 -9 23.5t-25 9.5q-23 0 -36 -19l-36 33l51 118h117l-9 -39h-82l-24 -57q4 2 10 3t12 1q31 0 51.5 -20.5t20.5 -49.5v-7.5t-2 -13.5q-8 -36 -29 -59t-61 -23
z" />
    <glyph glyph-name="uni2157" unicode="&#x2157;" 
d="M170 435q-15 0 -28 5.5t-23.5 15t-16.5 22.5t-6 27v4.5t1 6.5h41q-1 -3 -1 -8q0 -14 10 -23.5t26 -9.5q21 0 33 14.5t12 35.5q0 13 -9 22.5t-23 10.5l8 38h4q17 0 27 11t10 29q0 11 -7.5 19.5t-20.5 8.5q-34 0 -37 -34h-41q2 32 22.5 53t58.5 21q26 0 45.5 -18t19.5 -47
q0 -22 -8 -39.5t-24 -28.5q16 -19 16 -43q0 -38 -23 -65.5t-66 -27.5zM497 531l26 -33l-392 -324l-26 33zM422 -4q-31 0 -51.5 20.5t-20.5 49.5v11h41v-8q0 -14 9 -23.5t24 -9.5q19 0 30.5 12t15.5 29q2 8 2.5 12t0.5 7q0 14 -9 23.5t-25 9.5q-23 0 -36 -19l-36 33l51 118
h117l-9 -39h-82l-24 -57q4 2 10 3t12 1q31 0 51.5 -20.5t20.5 -49.5v-7.5t-2 -13.5q-8 -36 -29 -59t-61 -23z" />
    <glyph glyph-name="threeeighths" unicode="&#x215c;" 
d="M170 435q-15 0 -28 5.5t-23.5 15t-16.5 22.5t-6 27v4.5t1 6.5h41q-1 -3 -1 -8q0 -14 10 -23.5t26 -9.5q21 0 33 14.5t12 35.5q0 13 -9 22.5t-23 10.5l8 38h4q17 0 27 11t10 29q0 11 -7.5 19.5t-20.5 8.5q-34 0 -37 -34h-41q2 32 22.5 53t58.5 21q26 0 45.5 -18t19.5 -47
q0 -22 -8 -39.5t-24 -28.5q16 -19 16 -43q0 -38 -23 -65.5t-66 -27.5zM497 531l26 -33l-392 -324l-26 33zM431 -4q-29 0 -50.5 20.5t-21.5 49.5q0 26 11.5 47t32.5 33q-11 16 -11 37q0 35 20.5 58.5t60.5 23.5q26 0 45.5 -18t19.5 -47q0 -44 -33 -68q17 -19 17 -43
q0 -38 -24 -65.5t-67 -27.5zM434 36q21 0 34 14.5t13 35.5q0 14 -9.5 23.5t-24.5 9.5q-21 0 -34 -14.5t-13 -35.5q0 -14 9 -23.5t25 -9.5zM459 158q17 0 28 10.5t11 28.5q0 11 -7.5 19.5t-20.5 8.5q-18 0 -27.5 -10.5t-9.5 -28.5q0 -11 6.5 -19.5t19.5 -8.5z" />
    <glyph glyph-name="uni2158" unicode="&#x2158;" 
d="M194 439l13 63h-115l9 40l150 160l30 -26l-126 -134h61l11 53h42l-11 -53h27l-9 -40h-27l-13 -63h-42zM497 531l26 -33l-392 -324l-26 33zM422 -4q-31 0 -51.5 20.5t-20.5 49.5v11h41v-8q0 -14 9 -23.5t24 -9.5q19 0 30.5 12t15.5 29q2 8 2.5 12t0.5 7q0 14 -9 23.5
t-25 9.5q-23 0 -36 -19l-36 33l51 118h117l-9 -39h-82l-24 -57q4 2 10 3t12 1q31 0 51.5 -20.5t20.5 -49.5v-7.5t-2 -13.5q-8 -36 -29 -59t-61 -23z" />
    <glyph glyph-name="uni215A" unicode="&#x215a;" 
d="M174 435q-31 0 -51.5 20.5t-20.5 49.5v11h41v-8q0 -14 9 -23.5t24 -9.5q19 0 30.5 12t15.5 29q2 8 2.5 12t0.5 7q0 14 -9 23.5t-25 9.5q-23 0 -36 -19l-36 33l51 118h117l-9 -39h-82l-24 -57q4 2 10 3t12 1q31 0 51.5 -20.5t20.5 -49.5v-7.5t-2 -13.5q-8 -36 -29 -59
t-61 -23zM496 531l26 -33l-392 -324l-26 33zM426 -4q-31 0 -51.5 20.5t-20.5 49.5v8.5t2 13.5q8 37 28 57l111 118l31 -26l-66 -69l4 -1q23 -5 38.5 -25t15.5 -43v-8.5t-2 -12.5q-8 -37 -29 -59.5t-61 -22.5zM429 36q19 0 29.5 11.5t15.5 29.5q4 15 4 19q0 14 -9.5 23.5
t-24.5 9.5q-19 0 -30.5 -12t-15.5 -29q-2 -8 -2.5 -12t-0.5 -7q0 -14 9 -23.5t25 -9.5z" />
    <glyph glyph-name="fiveeighths" unicode="&#x215d;" 
d="M174 435q-31 0 -51.5 20.5t-20.5 49.5v11h41v-8q0 -14 9 -23.5t24 -9.5q19 0 30.5 12t15.5 29q2 8 2.5 12t0.5 7q0 14 -9 23.5t-25 9.5q-23 0 -36 -19l-36 33l51 118h117l-9 -39h-82l-24 -57q4 2 10 3t12 1q31 0 51.5 -20.5t20.5 -49.5v-7.5t-2 -13.5q-8 -36 -29 -59
t-61 -23zM496 531l26 -33l-392 -324l-26 33zM431 -4q-29 0 -50.5 20.5t-21.5 49.5q0 26 11.5 47t32.5 33q-11 16 -11 37q0 35 20.5 58.5t60.5 23.5q26 0 45.5 -18t19.5 -47q0 -44 -33 -68q17 -19 17 -43q0 -38 -24 -65.5t-67 -27.5zM434 36q21 0 34 14.5t13 35.5
q0 14 -9.5 23.5t-24.5 9.5q-21 0 -34 -14.5t-13 -35.5q0 -14 9 -23.5t25 -9.5zM459 158q17 0 28 10.5t11 28.5q0 11 -7.5 19.5t-20.5 8.5q-18 0 -27.5 -10.5t-9.5 -28.5q0 -11 6.5 -19.5t19.5 -8.5z" />
    <glyph glyph-name="seveneighths" unicode="&#x215e;" 
d="M169 700h160l-8 -40l-127 -223l-38 15l119 209h-72l-8 -40h-42zM496 531l26 -33l-392 -324l-26 33zM431 -4q-29 0 -50.5 20.5t-21.5 49.5q0 26 11.5 47t32.5 33q-11 16 -11 37q0 35 20.5 58.5t60.5 23.5q26 0 45.5 -18t19.5 -47q0 -44 -33 -68q17 -19 17 -43
q0 -38 -24 -65.5t-67 -27.5zM434 36q21 0 34 14.5t13 35.5q0 14 -9.5 23.5t-24.5 9.5q-21 0 -34 -14.5t-13 -35.5q0 -14 9 -23.5t25 -9.5zM459 158q17 0 28 10.5t11 28.5q0 11 -7.5 19.5t-20.5 8.5q-18 0 -27.5 -10.5t-9.5 -28.5q0 -11 6.5 -19.5t19.5 -8.5z" />
    <glyph glyph-name="uni215F" unicode="&#x215f;" horiz-adv-x="1" 
d="M117 635l79 65h42l-48 -221h69l-9 -40h-178l9 40h67l34 158l-40 -34zM497 531l26 -33l-392 -324l-26 33z" />
    <glyph glyph-name="fraction" unicode="&#x2044;" horiz-adv-x="-608" 
d="M-111 531l26 -33l-392 -324l-26 33z" />
    <glyph glyph-name="a.superior" 
d="M317 395q-47 0 -73.5 24t-26.5 63q0 37 17.5 59.5t64.5 34.5q29 8 62.5 10t71.5 3q1 3 1 6v4q0 21 -13.5 34.5t-42.5 13.5q-23 0 -38.5 -11.5t-23.5 -28.5h-67q14 48 44 74.5t93 26.5q46 0 78.5 -26t32.5 -74q0 -23 -4.5 -45.5t-11.5 -50.5l-23 -111h-65l7 35
q-10 -16 -31.5 -28.5t-51.5 -12.5zM325 456q12 0 26.5 2.5t28 9.5t24 20.5t15.5 34.5l1 9q-38 -2 -61.5 -3.5t-43.5 -6.5q-15 -4 -25 -11.5t-10 -21.5q0 -18 13 -25.5t32 -7.5z" />
    <glyph glyph-name="b.superior" 
d="M353 456q26 0 43.5 15.5t23.5 38.5q1 7 4 21l6 28t5.5 25.5t2.5 14.5q0 21 -14 34.5t-43 13.5q-26 0 -43.5 -15.5t-22.5 -38.5q-2 -7 -5 -20.5t-6 -27.5t-5 -25.5t-2 -14.5q0 -21 13.5 -35t42.5 -14zM358 395q-35 0 -52.5 15t-23.5 30l-8 -39h-65l87 406h65l-29 -135
q9 16 28.5 26t42.5 10q17 0 34.5 -6.5t31.5 -19.5t23 -31.5t9 -42.5q0 -26 -5 -47t-11 -49q-12 -55 -44 -86t-83 -31z" />
    <glyph glyph-name="c.superior" 
d="M346 395q-47 0 -79 26.5t-32 74.5q0 25 4.5 46.5t10.5 48.5q12 56 42.5 86.5t97.5 30.5q47 0 79 -26t32 -74v-9h-62v4q0 17 -14 30.5t-43 13.5q-26 0 -43.5 -15.5t-22.5 -38.5q-2 -7 -5 -20.5t-6 -27.5t-5.5 -25.5t-2.5 -14.5q0 -21 14 -35t43 -14q24 0 40.5 14t23.5 34
h66q-13 -52 -43 -80.5t-95 -28.5z" />
    <glyph glyph-name="d.superior" 
d="M350 456q26 0 43.5 15.5t22.5 38.5q2 7 5 21l6 28t5.5 25.5t2.5 14.5q0 21 -14 34.5t-43 13.5q-26 0 -43.5 -15.5t-22.5 -38.5q-2 -7 -5 -20.5t-6 -27.5t-5.5 -25.5t-2.5 -14.5q0 -21 14 -35t43 -14zM328 395q-17 0 -34 7t-31 19.5t-23 31.5t-9 43q0 25 4.5 46.5
t10.5 48.5q12 56 44 86.5t83 30.5q35 0 52.5 -14.5t23.5 -30.5l30 144h65l-86 -406h-65l7 30q-9 -15 -29 -25.5t-43 -10.5z" />
    <glyph glyph-name="e.superior" 
d="M344 395q-47 0 -79 26.5t-32 74.5q0 25 4.5 46.5t10.5 48.5q12 56 42.5 86.5t97.5 30.5q47 0 79.5 -26t32.5 -74q0 -21 -3.5 -39.5t-8.5 -39.5h-189q-2 -9 -2.5 -15.5t-0.5 -8.5q0 -21 13.5 -35t42.5 -14q22 0 38 11.5t24 28.5h66q-13 -48 -43 -74.5t-93 -26.5zM434 585
q3 10 3 14q0 21 -14 34.5t-43 13.5q-31 0 -48 -19.5t-20 -42.5h122z" />
    <glyph glyph-name="f.superior" 
d="M326 640h-85l13 60h85l7 33q8 35 28.5 54.5t62.5 19.5h116l-14 -61h-98q-18 0 -24 -7t-10 -24l-3 -15h126l-13 -60h-126l-51 -239h-65z" />
    <glyph glyph-name="g.superior" 
d="M356 475q26 0 43.5 15.5t22.5 38.5q2 7 4.5 18t4.5 21.5t3.5 19t1.5 11.5q0 21 -14 34.5t-43 13.5q-26 0 -43 -15.5t-23 -38.5q-2 -7 -4.5 -17.5t-4.5 -21t-3.5 -19t-1.5 -11.5q0 -22 14 -35.5t43 -13.5zM319 288q-47 0 -79 26.5t-32 74.5v7h63q0 -19 13.5 -32.5
t42.5 -13.5q26 0 44.5 15.5t23.5 38.5l10 46q-9 -15 -28.5 -25.5t-42.5 -10.5q-17 0 -34.5 6.5t-31.5 19.5t-23 31.5t-9 42.5q0 13 0.5 21.5t2 16.5t3.5 16.5t5 22.5q13 56 44.5 86.5t82.5 30.5q35 0 52.5 -14.5t23.5 -30.5l8 37h65l-64 -294q-12 -56 -42.5 -87t-97.5 -31z
" />
    <glyph glyph-name="h.superior" 
d="M294 807h65l-29 -135q8 14 26.5 25t41.5 11q20 0 38.5 -7t32.5 -20t22.5 -31.5t8.5 -41.5q0 -26 -5 -47t-11 -49l-24 -111h-65l24 109q1 7 4 21l6 28t5.5 25.5t2.5 14.5q0 21 -14 34.5t-43 13.5q-26 0 -43.5 -15.5t-22.5 -38.5l-41 -192h-65z" />
    <glyph glyph-name="i.superior" 
d="M210 461h106l38 179h-77l12 60h143l-51 -239h105l-13 -60h-276zM381 807h78l-16 -78h-79z" />
    <glyph glyph-name="j.superior" 
d="M177 356h126q17 0 23 6.5t10 23.5l54 254h-125l12 60h191l-70 -332q-8 -35 -29 -54.5t-63 -19.5h-143zM419 807h78l-16 -78h-79z" />
    <glyph glyph-name="k.superior" 
d="M321 592l123 108h86l-132 -117l85 -182h-69l-65 139l-47 -42l-21 -97h-65l86 406h65z" />
    <glyph glyph-name="l.superior" 
d="M208 461h106l60 286h-77l13 60h142l-73 -346h105l-13 -60h-275z" />
    <glyph glyph-name="m.superior" 
d="M188 401l63 299h65l-2 -12q8 10 19 13.5t21 3.5q14 0 24.5 -6.5t13.5 -14.5q11 12 26.5 18t32.5 6q36 0 56 -23.5t20 -52.5q0 -4 -1.5 -13.5t-6.5 -33.5t-14.5 -68t-24.5 -116h-65q16 79 25.5 123.5t14.5 67t6 28.5t1 7q0 19 -21 19q-23 0 -28 -24l-47 -221h-65
q17 79 26.5 124t14 67t5.5 27.5t1 7.5q0 19 -20 19q-23 0 -29 -24l-46 -221h-65z" />
    <glyph glyph-name="n.superior" unicode="&#x207f;" 
d="M271 700h65l-6 -28q8 14 26.5 25t41.5 11q20 0 38.5 -7t32.5 -20t22.5 -31.5t8.5 -41.5q0 -26 -5 -47t-11 -49l-24 -111h-65l24 109q1 7 4 21l6 28t5.5 25.5t2.5 14.5q0 21 -14 34.5t-43 13.5q-26 0 -43.5 -15.5t-22.5 -38.5l-41 -192h-65z" />
    <glyph glyph-name="o.superior" 
d="M351 456q26 0 43.5 15.5t23.5 38.5q2 7 5 21l6 28t5 25.5t2 14.5q0 21 -13.5 34.5t-42.5 13.5q-26 0 -43.5 -15.5t-23.5 -38.5q-2 -7 -5 -20.5t-6 -27.5t-5 -25.5t-2 -14.5q0 -21 14 -35t42 -14zM343 395q-46 0 -78.5 26.5t-32.5 74.5q0 25 5 46.5t11 48.5q6 28 16 49.5
t26.5 36.5t40 23t57.5 8q46 0 78.5 -26t32.5 -74q0 -26 -4.5 -47l-10.5 -49q-12 -55 -43 -86t-98 -31z" />
    <glyph glyph-name="p.superior" 
d="M353 456q26 0 43.5 15.5t23.5 38.5q1 7 4 21l6 28t5.5 25.5t2.5 14.5q0 21 -14 34.5t-43 13.5q-26 0 -43.5 -15.5t-22.5 -38.5q-2 -7 -5 -20.5t-6 -27.5t-5 -25.5t-2 -14.5q0 -21 13.5 -35t42.5 -14zM273 700h65l-6 -28q9 16 28.5 26t42.5 10q17 0 34.5 -6.5t31.5 -19.5
t23 -31.5t9 -42.5q0 -26 -5 -47t-11 -49q-12 -55 -44 -86t-83 -31q-35 0 -52.5 15t-23.5 30l-30 -146h-65z" />
    <glyph glyph-name="q.superior" 
d="M350 456q26 0 43.5 15.5t22.5 38.5q2 7 5 21l6 28t5.5 25.5t2.5 14.5q0 21 -14 34.5t-43 13.5q-26 0 -43.5 -15.5t-22.5 -38.5q-2 -7 -5 -20.5t-6 -27.5t-5.5 -25.5t-2.5 -14.5q0 -21 14 -35t43 -14zM400 431q-9 -15 -29 -25.5t-43 -10.5q-17 0 -34 7t-31 19.5t-23 31.5
t-9 43q0 25 4.5 46.5t10.5 48.5q12 56 44 86.5t83 30.5q35 0 52.5 -14.5t23.5 -30.5l7 37h65l-87 -406h-65z" />
    <glyph glyph-name="r.superior" 
d="M194 461h95l38 179h-65l12 60h130l-7 -31q9 14 27.5 25.5t41.5 11.5h85l-13 -64h-91q-26 0 -43.5 -14.5t-22.5 -37.5l-27 -129h116l-12 -60h-276z" />
    <glyph glyph-name="s.superior" 
d="M356 395q-54 0 -88.5 25t-34.5 67v10h63v-4q0 -17 20.5 -27t43.5 -10q20 0 36.5 7.5t16.5 21.5q0 12 -7.5 18t-21.5 11l-63 19q-23 8 -41 26t-18 52q0 49 32 73t86 24t82.5 -26.5t28.5 -63.5v-5h-64v4q0 14 -16 22t-36 8q-21 0 -34.5 -7.5t-13.5 -20.5t6 -18.5t17 -8.5
l63 -20q30 -10 47 -29t17 -46q0 -53 -34.5 -77.5t-86.5 -24.5z" />
    <glyph glyph-name="t.superior" 
d="M367 401q-21 0 -35 6t-23 16t-13 21t-4 22q0 8 1 18t4.5 29t9.5 49t17 78h-86l13 60h86l14 68h65l-14 -68h125l-13 -60h-125q-12 -54 -18.5 -85.5t-10 -47t-4 -20.5t-0.5 -6q0 -20 23 -20h98l-13 -60h-97z" />
    <glyph glyph-name="u.superior" 
d="M327 395q-17 0 -33.5 7t-30 19.5t-22 31.5t-8.5 43q0 25 4.5 46.5t10.5 48.5l23 109h65l-22 -107q-2 -7 -5 -20.5l-6 -27t-5.5 -25t-2.5 -15.5q0 -22 14.5 -35.5t37.5 -13.5q29 0 46.5 15.5t22.5 38.5l40 190h65l-63 -299h-65l7 30q-7 -13 -27 -24.5t-46 -11.5z" />
    <glyph glyph-name="v.superior" 
d="M258 700h63l27 -207l117 207h72l-171 -299h-64z" />
    <glyph glyph-name="w.superior" 
d="M250 700h64l-17 -203l63 157h55l-5 -160l68 206h67l-112 -299h-60l-1 175l-75 -175h-62z" />
    <glyph glyph-name="x.superior" 
d="M328 555l-66 145h66l41 -94l84 94h79l-131 -149l67 -150h-66l-43 98l-84 -98h-80z" />
    <glyph glyph-name="y.superior" 
d="M222 356h19q11 0 18 2.5t11.5 8t9 13.5t10.5 19l10 17l-42 284h64l28 -201l113 201h74l-208 -361q-11 -20 -29.5 -32.5t-47.5 -12.5h-44z" />
    <glyph glyph-name="z.superior" 
d="M321 461h135l-13 -60h-222l13 60l168 179h-127l13 60h214l-13 -60z" />
    <glyph glyph-name="four.superior" unicode="&#x2074;" 
d="M362 401l20 98h-179l14 61l234 250l46 -40l-197 -210h96l18 84h65l-18 -84h42l-13 -61h-43l-20 -98h-65z" />
    <glyph glyph-name="five.superior" unicode="&#x2075;" 
d="M344 395q-24 0 -44.5 8.5t-35.5 23.5t-23.5 35t-8.5 43v7t1 10h64q-1 -5 -1.5 -8t-0.5 -5q0 -22 14 -37.5t39 -15.5q31 0 48.5 19.5t23.5 46.5q2 12 3.5 17.5t1.5 10.5q0 22 -14.5 37t-39.5 15q-37 0 -56 -29l-57 51l80 183h181l-14 -61h-128l-37 -89q16 7 35 7
q24 0 44.5 -9t36 -24t24 -35t8.5 -42q0 -5 -0.5 -12.5t-2.5 -18.5q-12 -57 -45.5 -92.5t-95.5 -35.5z" />
    <glyph glyph-name="six.superior" unicode="&#x2076;" 
d="M345 395q-24 0 -44.5 8.5t-35.5 23.5t-23.5 35t-8.5 43q0 5 0.5 14t2.5 17q5 28 16.5 51t27.5 40l173 183l47 -40l-102 -109q5 0 8 -0.5t7 -1.5q31 -9 53.5 -39t22.5 -66q0 -5 -0.5 -12.5t-2.5 -18.5q-12 -57 -45.5 -92.5t-95.5 -35.5zM349 456q31 0 48.5 19.5t22.5 46.5
q3 12 4.5 17.5t1.5 10.5q0 22 -14.5 37t-39.5 15q-30 0 -47.5 -19t-23.5 -46q-3 -13 -4 -18t-1 -10q0 -22 14 -37.5t39 -15.5z" />
    <glyph glyph-name="seven.superior" unicode="&#x2077;" 
d="M295 807h250l-13 -61l-199 -348l-59 22l187 326h-114l-13 -62h-65z" />
    <glyph glyph-name="eight.superior" unicode="&#x2078;" 
d="M345 395q-23 0 -43.5 8.5t-36 23.5t-24.5 35t-9 43q0 40 18 73.5t51 51.5q-17 25 -17 58q0 26 8 48.5t23.5 39.5t39 27t54.5 10q20 0 38.5 -7.5t32.5 -20.5t22.5 -32t8.5 -41q0 -34 -12.5 -61t-37.5 -44q11 -14 18 -31.5t7 -36.5q0 -29 -9.5 -55t-27.5 -46t-44.5 -31.5
t-59.5 -11.5zM349 456q32 0 53 22.5t21 56.5q0 22 -14.5 37t-39.5 15q-32 0 -53 -22t-21 -56q0 -22 14.5 -37.5t39.5 -15.5zM387 648q28 0 44.5 15.5t16.5 44.5q0 16 -11.5 30t-31.5 14q-27 0 -42 -15.5t-15 -44.5q0 -17 9.5 -30.5t29.5 -13.5z" />
    <glyph glyph-name="nine.superior" unicode="&#x2079;" 
d="M253 438l102 109q-4 0 -14 2q-32 9 -54.5 39t-22.5 66q0 5 0.5 12.5t3.5 18.5q12 57 45 92.5t95 35.5q24 0 44.5 -8.5t36 -23.5t24 -35t8.5 -43q0 -5 -0.5 -12t-2.5 -19q-12 -55 -45 -91l-173 -183zM381 606q31 0 48 19t23 46q3 13 4 18t1 10q0 22 -14 37.5t-39 15.5
q-30 0 -47.5 -19.5t-23.5 -46.5q-3 -12 -4 -17.5t-1 -10.5q0 -22 14 -37t39 -15z" />
    <glyph glyph-name="zero.superior" unicode="&#x2070;" 
d="M346 395q-24 0 -44.5 8.5t-36 23.5t-24 35t-8.5 43q0 11 8.5 57t25.5 123q12 57 45.5 92.5t95.5 35.5q24 0 44.5 -8.5t35.5 -23.5t23.5 -35t8.5 -43q0 -11 -9 -57t-25 -123q-12 -57 -45.5 -92.5t-94.5 -35.5zM350 456q30 0 47.5 19.5t23.5 46.5q10 45 16 74.5t10 49.5
l-150 -123q-1 -6 -1 -9v-5q0 -22 14 -37.5t40 -15.5zM457 699q0 22 -14 37.5t-39 15.5q-31 0 -48.5 -19.5t-23.5 -46.5q-10 -45 -16.5 -75t-10.5 -50l150 123q1 6 1.5 9.5t0.5 5.5z" />
    <glyph glyph-name="period.superior" 
d="M310 483h82l-18 -82h-81z" />
    <glyph glyph-name="hyphen.superior" 
d="M279 551l5 26h168l-5 -26h-168z" />
    <glyph glyph-name="comma.superior" 
d="M243 350l118 118l46 -46l-119 -117z" />
    <glyph glyph-name="equal.superior" unicode="&#x207c;" 
d="M253 604v26h230v-26h-230zM253 491v26h230v-26h-230z" />
    <glyph glyph-name="plus.superior" unicode="&#x207a;" 
d="M355 551h-102v26h102v101h27v-101h101v-26h-101v-102h-27v102z" />
    <glyph glyph-name="minus.superior" unicode="&#x207b;" 
d="M253 551v26h230v-26h-230z" />
    <glyph glyph-name="parenleft.superior" unicode="&#x207d;" 
d="M382 747q6 29 20 44.5t52 15.5h71l-5 -24h-69q-21 0 -30.5 -9.5t-13.5 -29.5q-35 -171 -54.5 -257t-19.5 -94q0 -21 27 -21h73l-6 -24h-72q-26 0 -36.5 12t-10.5 31q0 4 2.5 16l10 48t22.5 105t39 187z" />
    <glyph glyph-name="parenright.superior" unicode="&#x207e;" 
d="M360 408q-6 -29 -20 -44.5t-52 -15.5h-71l5 24h69q21 0 30.5 9.5t13.5 29.5q35 171 54.5 257t19.5 94q0 21 -27 21h-73l6 24h72q26 0 36.5 -12t10.5 -31q0 -5 -2.5 -16.5t-10 -47.5t-22.5 -105t-39 -187z" />
    <glyph glyph-name="a.inferior" 
d="M212 -102q-47 0 -73.5 24t-26.5 63q0 37 17.5 59.5t64.5 34.5q29 8 62.5 10t71.5 3q1 3 1 6v4q0 21 -13.5 34.5t-42.5 13.5q-23 0 -38.5 -11.5t-23.5 -28.5h-67q14 48 44 74.5t93 26.5q46 0 78.5 -26t32.5 -74q0 -23 -4.5 -45.5t-11.5 -50.5l-23 -111h-65l7 35
q-10 -16 -31.5 -28.5t-51.5 -12.5zM220 -41q12 0 26.5 2.5t28 9.5t24 20.5t15.5 34.5l1 9q-38 -2 -61.5 -3.5t-43.5 -6.5q-15 -4 -25 -11.5t-10 -21.5q0 -18 13 -25.5t32 -7.5z" />
    <glyph glyph-name="b.inferior" 
d="M248 -41q26 0 43.5 15.5t23.5 38.5q1 7 4 21l6 28t5.5 25.5t2.5 14.5q0 21 -14 34.5t-43 13.5q-26 0 -43.5 -15.5t-22.5 -38.5q-2 -7 -5 -20.5t-6 -27.5t-5 -25.5t-2 -14.5q0 -21 13.5 -35t42.5 -14zM253 -102q-35 0 -52.5 15t-23.5 30l-8 -39h-65l87 406h65l-29 -135
q9 16 28.5 26t42.5 10q17 0 34.5 -6.5t31.5 -19.5t23 -31.5t9 -42.5q0 -26 -5 -47t-11 -49q-12 -55 -44 -86t-83 -31z" />
    <glyph glyph-name="c.inferior" 
d="M241 -102q-47 0 -79 26.5t-32 74.5q0 25 4.5 46.5t10.5 48.5q12 56 42.5 86.5t97.5 30.5q47 0 79 -26t32 -74v-9h-62v4q0 17 -14 30.5t-43 13.5q-26 0 -43.5 -15.5t-22.5 -38.5q-2 -7 -5 -20.5t-6 -27.5t-5.5 -25.5t-2.5 -14.5q0 -21 14 -35t43 -14q24 0 40.5 14t23.5 34
h66q-13 -52 -43 -80.5t-95 -28.5z" />
    <glyph glyph-name="d.inferior" 
d="M245 -41q26 0 43.5 15.5t22.5 38.5q2 7 5 21l6 28t5.5 25.5t2.5 14.5q0 21 -14 34.5t-43 13.5q-26 0 -43.5 -15.5t-22.5 -38.5q-2 -7 -5 -20.5t-6 -27.5t-5.5 -25.5t-2.5 -14.5q0 -21 14 -35t43 -14zM223 -102q-17 0 -34 7t-31 19.5t-23 31.5t-9 43q0 25 4.5 46.5
t10.5 48.5q12 56 44 86.5t83 30.5q35 0 52.5 -14.5t23.5 -30.5l30 144h65l-86 -406h-65l7 30q-9 -15 -29 -25.5t-43 -10.5z" />
    <glyph glyph-name="e.inferior" 
d="M239 -102q-47 0 -79 26.5t-32 74.5q0 25 4.5 46.5t10.5 48.5q12 56 42.5 86.5t97.5 30.5q47 0 79.5 -26t32.5 -74q0 -21 -3.5 -39.5t-8.5 -39.5h-189q-2 -9 -2.5 -15.5t-0.5 -8.5q0 -21 13.5 -35t42.5 -14q22 0 38 11.5t24 28.5h66q-13 -48 -43 -74.5t-93 -26.5zM329 88
q3 10 3 14q0 21 -14 34.5t-43 13.5q-31 0 -48 -19.5t-20 -42.5h122z" />
    <glyph glyph-name="f.inferior" 
d="M221 143h-85l13 60h85l7 33q8 35 28.5 54.5t62.5 19.5h116l-14 -61h-98q-18 0 -24 -7t-10 -24l-3 -15h126l-13 -60h-126l-51 -239h-65z" />
    <glyph glyph-name="g.inferior" 
d="M251 -22q26 0 43.5 15.5t22.5 38.5q2 7 4.5 18t4.5 21.5t3.5 19t1.5 11.5q0 21 -14 34.5t-43 13.5q-26 0 -43 -15.5t-23 -38.5q-2 -7 -4.5 -17.5t-4.5 -21t-3.5 -19t-1.5 -11.5q0 -22 14 -35.5t43 -13.5zM214 -209q-47 0 -79 26.5t-32 74.5v7h63q0 -19 13.5 -32.5
t42.5 -13.5q26 0 44.5 15.5t23.5 38.5l10 46q-9 -15 -28.5 -25.5t-42.5 -10.5q-17 0 -34.5 6.5t-31.5 19.5t-23 31.5t-9 42.5q0 13 0.5 21.5t2 16.5t3.5 16.5t5 22.5q13 56 44.5 86.5t82.5 30.5q35 0 52.5 -14.5t23.5 -30.5l8 37h65l-64 -294q-12 -56 -42.5 -87t-97.5 -31z
" />
    <glyph glyph-name="h.inferior" 
d="M189 310h65l-29 -135q8 14 26.5 25t41.5 11q20 0 38.5 -7t32.5 -20t22.5 -31.5t8.5 -41.5q0 -26 -5 -47t-11 -49l-24 -111h-65l24 109q1 7 4 21l6 28t5.5 25.5t2.5 14.5q0 21 -14 34.5t-43 13.5q-26 0 -43.5 -15.5t-22.5 -38.5l-41 -192h-65z" />
    <glyph glyph-name="i.inferior" 
d="M105 -36h106l38 179h-77l12 60h143l-51 -239h105l-13 -60h-276zM276 310h78l-16 -78h-79z" />
    <glyph glyph-name="j.inferior" 
d="M72 -141h126q17 0 23 6.5t10 23.5l54 254h-125l12 60h191l-70 -332q-8 -35 -29 -54.5t-63 -19.5h-143zM314 310h78l-16 -78h-79z" />
    <glyph glyph-name="k.inferior" 
d="M216 95l123 108h86l-132 -117l85 -182h-69l-65 139l-47 -42l-21 -97h-65l86 406h65z" />
    <glyph glyph-name="l.inferior" 
d="M103 -36h106l60 286h-77l13 60h142l-73 -346h105l-13 -60h-275z" />
    <glyph glyph-name="m.inferior" 
d="M83 -96l63 299h65l-2 -12q8 10 19 13.5t21 3.5q14 0 24.5 -6.5t13.5 -14.5q11 12 26.5 18t32.5 6q36 0 56 -23.5t20 -52.5q0 -4 -1.5 -13.5t-6.5 -33.5t-14.5 -68t-24.5 -116h-65q16 79 25.5 123.5t14.5 67t6 28.5t1 7q0 19 -21 19q-23 0 -28 -24l-47 -221h-65
q17 79 26.5 124t14 67t5.5 27.5t1 7.5q0 19 -20 19q-23 0 -29 -24l-46 -221h-65z" />
    <glyph glyph-name="n.inferior" 
d="M166 203h65l-6 -28q8 14 26.5 25t41.5 11q20 0 38.5 -7t32.5 -20t22.5 -31.5t8.5 -41.5q0 -26 -5 -47t-11 -49l-24 -111h-65l24 109q1 7 4 21l6 28t5.5 25.5t2.5 14.5q0 21 -14 34.5t-43 13.5q-26 0 -43.5 -15.5t-22.5 -38.5l-41 -192h-65z" />
    <glyph glyph-name="o.inferior" 
d="M246 -41q26 0 43.5 15.5t23.5 38.5q2 7 5 21l6 28t5 25.5t2 14.5q0 21 -13.5 34.5t-42.5 13.5q-26 0 -43.5 -15.5t-23.5 -38.5q-2 -7 -5 -20.5t-6 -27.5t-5 -25.5t-2 -14.5q0 -21 14 -35t42 -14zM238 -102q-46 0 -78.5 26.5t-32.5 74.5q0 25 5 46.5t11 48.5q6 28 16 49.5
t26.5 36.5t40 23t57.5 8q46 0 78.5 -26t32.5 -74q0 -26 -4.5 -47l-10.5 -49q-12 -55 -43 -86t-98 -31z" />
    <glyph glyph-name="p.inferior" 
d="M248 -41q26 0 43.5 15.5t23.5 38.5q1 7 4 21l6 28t5.5 25.5t2.5 14.5q0 21 -14 34.5t-43 13.5q-26 0 -43.5 -15.5t-22.5 -38.5q-2 -7 -5 -20.5t-6 -27.5t-5 -25.5t-2 -14.5q0 -21 13.5 -35t42.5 -14zM168 203h65l-6 -28q9 16 28.5 26t42.5 10q17 0 34.5 -6.5t31.5 -19.5
t23 -31.5t9 -42.5q0 -26 -5 -47t-11 -49q-12 -55 -44 -86t-83 -31q-35 0 -52.5 15t-23.5 30l-30 -146h-65z" />
    <glyph glyph-name="q.inferior" 
d="M245 -41q26 0 43.5 15.5t22.5 38.5q2 7 5 21l6 28t5.5 25.5t2.5 14.5q0 21 -14 34.5t-43 13.5q-26 0 -43.5 -15.5t-22.5 -38.5q-2 -7 -5 -20.5t-6 -27.5t-5.5 -25.5t-2.5 -14.5q0 -21 14 -35t43 -14zM295 -66q-9 -15 -29 -25.5t-43 -10.5q-17 0 -34 7t-31 19.5t-23 31.5
t-9 43q0 25 4.5 46.5t10.5 48.5q12 56 44 86.5t83 30.5q35 0 52.5 -14.5t23.5 -30.5l7 37h65l-87 -406h-65z" />
    <glyph glyph-name="r.inferior" 
d="M89 -36h95l38 179h-65l12 60h130l-7 -31q9 14 27.5 25.5t41.5 11.5h85l-13 -64h-91q-26 0 -43.5 -14.5t-22.5 -37.5l-27 -129h116l-12 -60h-276z" />
    <glyph glyph-name="s.inferior" 
d="M251 -102q-54 0 -88.5 25t-34.5 67v10h63v-4q0 -17 20.5 -27t43.5 -10q20 0 36.5 7.5t16.5 21.5q0 12 -7.5 18t-21.5 11l-63 19q-23 8 -41 26t-18 52q0 49 32 73t86 24t82.5 -26.5t28.5 -63.5v-5h-64v4q0 14 -16 22t-36 8q-21 0 -34.5 -7.5t-13.5 -20.5t6 -18.5t17 -8.5
l63 -20q30 -10 47 -29t17 -46q0 -53 -34.5 -77.5t-86.5 -24.5z" />
    <glyph glyph-name="t.inferior" 
d="M262 -96q-21 0 -35 6t-23 16t-13 21t-4 22q0 8 1 18t4.5 29t9.5 49t17 78h-86l13 60h86l14 68h65l-14 -68h125l-13 -60h-125q-12 -54 -18.5 -85.5t-10 -47t-4 -20.5t-0.5 -6q0 -20 23 -20h98l-13 -60h-97z" />
    <glyph glyph-name="u.inferior" 
d="M222 -102q-17 0 -33.5 7t-30 19.5t-22 31.5t-8.5 43q0 25 4.5 46.5t10.5 48.5l23 109h65l-22 -107q-2 -7 -5 -20.5l-6 -27t-5.5 -25t-2.5 -15.5q0 -22 14.5 -35.5t37.5 -13.5q29 0 46.5 15.5t22.5 38.5l40 190h65l-63 -299h-65l7 30q-7 -13 -27 -24.5t-46 -11.5z" />
    <glyph glyph-name="v.inferior" 
d="M153 203h63l27 -207l117 207h72l-171 -299h-64z" />
    <glyph glyph-name="w.inferior" 
d="M145 203h64l-17 -203l63 157h55l-5 -160l68 206h67l-112 -299h-60l-1 175l-75 -175h-62z" />
    <glyph glyph-name="x.inferior" 
d="M223 58l-66 145h66l41 -94l84 94h79l-131 -149l67 -150h-66l-43 98l-84 -98h-80z" />
    <glyph glyph-name="y.inferior" 
d="M117 -141h19q11 0 18 2.5t11.5 8t9 13.5t10.5 19l10 17l-42 284h64l28 -201l113 201h74l-208 -361q-11 -20 -29.5 -32.5t-47.5 -12.5h-44z" />
    <glyph glyph-name="z.inferior" 
d="M216 -36h135l-13 -60h-222l13 60l168 179h-127l13 60h214l-13 -60z" />
    <glyph glyph-name="one.inferior" unicode="&#x2081;" 
d="M170 209l122 101h65l-74 -345h107l-14 -61h-276l14 61h104l53 246l-62 -51z" />
    <glyph glyph-name="two.inferior" unicode="&#x2082;" 
d="M189 102q-12 14 -19 32t-7 38q0 29 9.5 55t27.5 46t44.5 31.5t59.5 11.5q23 0 43.5 -8.5t36 -23.5t24.5 -35t9 -43q0 -20 -4 -36.5t-13 -31.5t-22.5 -29.5t-32.5 -30.5l-131 -113h155l-14 -61h-252l13 61l180 154q26 22 41.5 39.5t15.5 43.5q0 22 -14 37.5t-39 15.5
q-33 0 -53.5 -22.5t-20.5 -56.5q0 -19 11 -33z" />
    <glyph glyph-name="three.inferior" unicode="&#x2083;" 
d="M239 -102q-23 0 -44 8.5t-37 23.5t-25.5 35t-9.5 43v8t1 9h63q-1 -5 -1 -13q0 -21 16 -37t41 -16q32 0 51 22.5t19 56.5q0 21 -13.5 36t-36.5 16l13 59h4q25 0 41.5 16.5t16.5 45.5q0 16 -11.5 30t-31.5 14q-26 0 -40.5 -14.5t-16.5 -39.5h-63q3 50 34 82.5t90 32.5
q20 0 38.5 -7.5t32.5 -20.5t22.5 -32t8.5 -41q0 -33 -12.5 -60.5t-37.5 -44.5q25 -28 25 -67q0 -29 -9 -55.5t-26 -46.5t-43 -31.5t-59 -11.5z" />
    <glyph glyph-name="four.inferior" unicode="&#x2084;" 
d="M257 -96l20 98h-179l14 61l234 250l46 -40l-197 -210h96l18 84h65l-18 -84h42l-13 -61h-43l-20 -98h-65z" />
    <glyph glyph-name="five.inferior" unicode="&#x2085;" 
d="M239 -102q-24 0 -44.5 8.5t-35.5 23.5t-23.5 35t-8.5 43v7t1 10h64q-1 -5 -1.5 -8t-0.5 -5q0 -22 14 -37.5t39 -15.5q31 0 48.5 19.5t23.5 46.5q2 12 3.5 17.5t1.5 10.5q0 22 -14.5 37t-39.5 15q-37 0 -56 -29l-57 51l80 183h181l-14 -61h-128l-37 -89q16 7 35 7
q24 0 44.5 -9t36 -24t24 -35t8.5 -42q0 -5 -0.5 -12.5t-2.5 -18.5q-12 -57 -45.5 -92.5t-95.5 -35.5z" />
    <glyph glyph-name="six.inferior" unicode="&#x2086;" 
d="M240 -102q-24 0 -44.5 8.5t-35.5 23.5t-23.5 35t-8.5 43q0 5 0.5 14t2.5 17q5 28 16.5 51t27.5 40l173 183l47 -40l-102 -109q5 0 8 -0.5t7 -1.5q31 -9 53.5 -39t22.5 -66q0 -5 -0.5 -12.5t-2.5 -18.5q-12 -57 -45.5 -92.5t-95.5 -35.5zM244 -41q31 0 48.5 19.5
t22.5 46.5q3 12 4.5 17.5t1.5 10.5q0 22 -14.5 37t-39.5 15q-30 0 -47.5 -19t-23.5 -46q-3 -13 -4 -18t-1 -10q0 -22 14 -37.5t39 -15.5z" />
    <glyph glyph-name="seven.inferior" unicode="&#x2087;" 
d="M190 310h250l-13 -61l-199 -348l-59 22l187 326h-114l-13 -62h-65z" />
    <glyph glyph-name="eight.inferior" unicode="&#x2088;" 
d="M240 -102q-23 0 -43.5 8.5t-36 23.5t-24.5 35t-9 43q0 40 18 73.5t51 51.5q-17 25 -17 58q0 26 8 48.5t23.5 39.5t39 27t54.5 10q20 0 38.5 -7.5t32.5 -20.5t22.5 -32t8.5 -41q0 -34 -12.5 -61t-37.5 -44q11 -14 18 -31.5t7 -36.5q0 -29 -9.5 -55t-27.5 -46t-44.5 -31.5
t-59.5 -11.5zM244 -41q32 0 53 22.5t21 56.5q0 22 -14.5 37t-39.5 15q-32 0 -53 -22t-21 -56q0 -22 14.5 -37.5t39.5 -15.5zM282 151q28 0 44.5 15.5t16.5 44.5q0 16 -11.5 30t-31.5 14q-27 0 -42 -15.5t-15 -44.5q0 -17 9.5 -30.5t29.5 -13.5z" />
    <glyph glyph-name="nine.inferior" unicode="&#x2089;" 
d="M148 -59l102 109q-4 0 -14 2q-32 9 -54.5 39t-22.5 66q0 5 0.5 12.5t3.5 18.5q12 57 45 92.5t95 35.5q24 0 44.5 -8.5t36 -23.5t24 -35t8.5 -43q0 -5 -0.5 -12t-2.5 -19q-12 -55 -45 -91l-173 -183zM276 109q31 0 48 19t23 46q3 13 4 18t1 10q0 22 -14 37.5t-39 15.5
q-30 0 -47.5 -19.5t-23.5 -46.5q-3 -12 -4 -17.5t-1 -10.5q0 -22 14 -37t39 -15z" />
    <glyph glyph-name="zero.inferior" unicode="&#x2080;" 
d="M241 -102q-24 0 -44.5 8.5t-36 23.5t-24 35t-8.5 43q0 11 8.5 57t25.5 123q12 57 45.5 92.5t95.5 35.5q24 0 44.5 -8.5t35.5 -23.5t23.5 -35t8.5 -43q0 -11 -9 -57t-25 -123q-12 -57 -45.5 -92.5t-94.5 -35.5zM245 -41q30 0 47.5 19.5t23.5 46.5q10 45 16 74.5t10 49.5
l-150 -123q-1 -6 -1 -9v-5q0 -22 14 -37.5t40 -15.5zM352 202q0 22 -14 37.5t-39 15.5q-31 0 -48.5 -19.5t-23.5 -46.5q-10 -45 -16.5 -75t-10.5 -50l150 123q1 6 1.5 9.5t0.5 5.5z" />
    <glyph glyph-name="period.inferior" 
d="M205 -14h82l-18 -82h-81z" />
    <glyph glyph-name="hyphen.inferior" 
d="M174 54l5 26h168l-5 -26h-168z" />
    <glyph glyph-name="comma.inferior" 
d="M138 -147l118 118l46 -46l-119 -117z" />
    <glyph glyph-name="equal.inferior" 
d="M148 107v26h230v-26h-230zM148 -6v26h230v-26h-230z" />
    <glyph glyph-name="plus.inferior" 
d="M250 54h-102v26h102v101h27v-101h101v-26h-101v-102h-27v102z" />
    <glyph glyph-name="minus.inferior" 
d="M148 54v26h230v-26h-230z" />
    <glyph glyph-name="parenleft.inferior" unicode="&#x208d;" 
d="M277 250q6 29 20 44.5t52 15.5h71l-5 -24h-69q-21 0 -30.5 -9.5t-13.5 -29.5q-35 -171 -54.5 -257t-19.5 -94q0 -21 27 -21h73l-6 -24h-72q-26 0 -36.5 12t-10.5 31q0 4 2.5 16l10 48t22.5 105t39 187z" />
    <glyph glyph-name="parenright.inferior" unicode="&#x208e;" 
d="M255 -89q-6 -29 -20 -44.5t-52 -15.5h-71l5 24h69q21 0 30.5 9.5t13.5 29.5q35 171 54.5 257t19.5 94q0 21 -27 21h-73l6 24h72q26 0 36.5 -12t10.5 -31q0 -5 -2.5 -16.5t-10 -47.5t-22.5 -105t-39 -187z" />
    <glyph glyph-name="one.numerator" 
d="M117 635l79 65h42l-48 -221h69l-9 -40h-178l9 40h67l34 158l-40 -34z" />
    <glyph glyph-name="two.numerator" 
d="M130 567q-17 20 -17 44q0 38 24 65.5t67 27.5q29 0 50.5 -20.5t21.5 -49.5q0 -27 -11.5 -45.5t-34.5 -37.5l-84 -72h99l-9 -40h-162l9 40l116 99q16 14 26 25t10 28q0 14 -9 23.5t-25 9.5q-21 0 -34 -14.5t-13 -35.5q0 -13 7 -21z" />
    <glyph glyph-name="three.numerator" 
d="M170 435q-15 0 -28 5.5t-23.5 15t-16.5 22.5t-6 27v4.5t1 6.5h41q-1 -3 -1 -8q0 -14 10 -23.5t26 -9.5q21 0 33 14.5t12 35.5q0 13 -9 22.5t-23 10.5l8 38h4q17 0 27 11t10 29q0 11 -7.5 19.5t-20.5 8.5q-34 0 -37 -34h-41q2 32 22.5 53t58.5 21q26 0 45.5 -18t19.5 -47
q0 -22 -8 -39.5t-24 -28.5q16 -19 16 -43q0 -38 -23 -65.5t-66 -27.5z" />
    <glyph glyph-name="four.numerator" 
d="M194 439l13 63h-115l9 40l150 160l30 -26l-126 -134h61l11 53h42l-11 -53h27l-9 -40h-27l-13 -63h-42z" />
    <glyph glyph-name="five.numerator" 
d="M174 435q-31 0 -51.5 20.5t-20.5 49.5v11h41v-8q0 -14 9 -23.5t24 -9.5q19 0 30.5 12t15.5 29q2 8 2.5 12t0.5 7q0 14 -9 23.5t-25 9.5q-23 0 -36 -19l-36 33l51 118h117l-9 -39h-82l-24 -57q4 2 10 3t12 1q31 0 51.5 -20.5t20.5 -49.5v-7.5t-2 -13.5q-8 -36 -29 -59
t-61 -23z" />
    <glyph glyph-name="six.numerator" 
d="M188 435q-31 0 -51.5 20.5t-20.5 49.5v8.5t2 13.5q8 37 28 57l111 118l31 -26l-66 -69l4 -1q23 -5 38.5 -25t15.5 -43v-8.5t-2 -12.5q-8 -37 -29 -59.5t-61 -22.5zM191 475q19 0 29.5 11.5t15.5 29.5q4 15 4 19q0 14 -9.5 23.5t-24.5 9.5q-19 0 -30.5 -12t-15.5 -29
q-2 -8 -2.5 -12t-0.5 -7q0 -14 9 -23.5t25 -9.5z" />
    <glyph glyph-name="seven.numerator" 
d="M169 700h160l-8 -40l-127 -223l-38 15l119 209h-72l-8 -40h-42z" />
    <glyph glyph-name="eight.numerator" 
d="M177 435q-29 0 -50.5 20.5t-21.5 49.5q0 26 11.5 47t32.5 33q-11 16 -11 37q0 35 20.5 58.5t60.5 23.5q26 0 45.5 -18t19.5 -47q0 -44 -33 -68q17 -19 17 -43q0 -38 -24 -65.5t-67 -27.5zM180 475q21 0 34 14.5t13 35.5q0 14 -9.5 23.5t-24.5 9.5q-21 0 -34 -14.5
t-13 -35.5q0 -14 9 -23.5t25 -9.5zM205 597q17 0 28 10.5t11 28.5q0 11 -7.5 19.5t-20.5 8.5q-18 0 -27.5 -10.5t-9.5 -28.5q0 -11 6.5 -19.5t19.5 -8.5z" />
    <glyph glyph-name="nine.numerator" 
d="M237 704q31 0 51.5 -20.5t20.5 -49.5v-8.5t-2 -13.5q-8 -37 -28 -57l-111 -118l-31 26l66 69l-4 1q-23 5 -38.5 25t-15.5 43v8.5t2 12.5q8 37 29 59.5t61 22.5zM234 664q-19 0 -29.5 -11.5t-15.5 -29.5q-4 -15 -4 -19q0 -14 9.5 -23.5t24.5 -9.5q19 0 30.5 12t15.5 29
q2 8 2.5 12t0.5 7q0 14 -9 23.5t-25 9.5z" />
    <glyph glyph-name="zero.numerator" 
d="M138 622q8 36 29 59t61 23q30 0 51 -20.5t21 -49.5q0 -8 -5.5 -36.5t-16.5 -80.5q-8 -36 -29 -59t-61 -23q-30 0 -51 20.5t-21 49.5q0 8 5.5 36.5t16.5 80.5zM236 516q6 29 10.5 48.5t6.5 32.5l-95 -79q-1 -5 -1 -7v-3q0 -14 9 -23.5t25 -9.5q19 0 30 12t15 29zM259 631
q0 14 -9 23.5t-25 9.5q-19 0 -30 -12t-15 -29l-17 -79l95 78q1 5 1 9z" />
    <glyph glyph-name="one.denominator" 
d="M376 196l79 65h42l-48 -221h69l-9 -40h-178l9 40h67l34 158l-40 -34z" />
    <glyph glyph-name="two.denominator" 
d="M379 128q-8 9 -12.5 20.5t-4.5 23.5q0 38 24 65.5t67 27.5q29 0 50.5 -20.5t21.5 -49.5q0 -27 -11.5 -45.5t-34.5 -37.5l-84 -72h99l-9 -40h-162l9 40l116 99q16 14 26 25t10 28q0 14 -9 23.5t-25 9.5q-21 0 -34 -14.5t-13 -35.5q0 -13 7 -21z" />
    <glyph glyph-name="three.denominator" 
d="M423 -4q-15 0 -28 5.5t-23.5 15t-16.5 22.5t-6 27v4.5t1 6.5h41q-1 -3 -1 -8q0 -14 10 -23.5t26 -9.5q21 0 33 14.5t12 35.5q0 13 -9 22.5t-23 10.5l8 38h4q17 0 27 11t10 29q0 11 -7.5 19.5t-20.5 8.5q-34 0 -37 -34h-41q2 32 22.5 53t58.5 21q26 0 45.5 -18t19.5 -47
q0 -22 -8 -39.5t-24 -28.5q16 -19 16 -43q0 -38 -23 -65.5t-66 -27.5z" />
    <glyph glyph-name="four.denominator" 
d="M448 0l13 63h-115l9 40l150 160l30 -26l-126 -134h61l11 53h42l-11 -53h27l-9 -40h-27l-13 -63h-42z" />
    <glyph glyph-name="five.denominator" 
d="M422 -4q-31 0 -51.5 20.5t-20.5 49.5v11h41v-8q0 -14 9 -23.5t24 -9.5q19 0 30.5 12t15.5 29q2 8 2.5 12t0.5 7q0 14 -9 23.5t-25 9.5q-23 0 -36 -19l-36 33l51 118h117l-9 -39h-82l-24 -57q4 2 10 3t12 1q31 0 51.5 -20.5t20.5 -49.5v-7.5t-2 -13.5q-8 -36 -29 -59
t-61 -23z" />
    <glyph glyph-name="six.denominator" 
d="M426 -4q-31 0 -51.5 20.5t-20.5 49.5v8.5t2 13.5q8 37 28 57l111 118l31 -26l-66 -69l4 -1q23 -5 38.5 -25t15.5 -43v-8.5t-2 -12.5q-8 -37 -29 -59.5t-61 -22.5zM429 36q19 0 29.5 11.5t15.5 29.5q4 15 4 19q0 14 -9.5 23.5t-24.5 9.5q-19 0 -30.5 -12t-15.5 -29
q-2 -8 -2.5 -12t-0.5 -7q0 -14 9 -23.5t25 -9.5z" />
    <glyph glyph-name="seven.denominator" 
d="M412 261h160l-8 -40l-127 -223l-38 15l119 209h-72l-8 -40h-42z" />
    <glyph glyph-name="eight.denominator" 
d="M431 -4q-29 0 -50.5 20.5t-21.5 49.5q0 26 11.5 47t32.5 33q-11 16 -11 37q0 35 20.5 58.5t60.5 23.5q26 0 45.5 -18t19.5 -47q0 -44 -33 -68q17 -19 17 -43q0 -38 -24 -65.5t-67 -27.5zM434 36q21 0 34 14.5t13 35.5q0 14 -9.5 23.5t-24.5 9.5q-21 0 -34 -14.5
t-13 -35.5q0 -14 9 -23.5t25 -9.5zM459 158q17 0 28 10.5t11 28.5q0 11 -7.5 19.5t-20.5 8.5q-18 0 -27.5 -10.5t-9.5 -28.5q0 -11 6.5 -19.5t19.5 -8.5z" />
    <glyph glyph-name="nine.denominator" 
d="M460 265q31 0 51.5 -20.5t20.5 -49.5v-8.5t-2 -13.5q-8 -37 -28 -57l-111 -118l-31 26l66 69l-4 1q-23 5 -38.5 25t-15.5 43v8.5t2 12.5q8 37 29 59.5t61 22.5zM457 225q-19 0 -29.5 -11.5t-15.5 -29.5q-4 -15 -4 -19q0 -14 9.5 -23.5t24.5 -9.5q19 0 30.5 12t15.5 29
q2 8 2.5 12t0.5 7q0 14 -9 23.5t-25 9.5z" />
    <glyph glyph-name="zero.denominator" 
d="M367 183q8 36 29 59t61 23q30 0 51 -20.5t21 -49.5q0 -8 -5.5 -36.5t-16.5 -80.5q-8 -36 -29 -59t-61 -23q-30 0 -51 20.5t-21 49.5q0 8 5.5 36.5t16.5 80.5zM465 77q6 29 10.5 48.5t6.5 32.5l-95 -79q-1 -5 -1 -7v-3q0 -14 9 -23.5t25 -9.5q19 0 30 12t15 29zM488 192
q0 14 -9 23.5t-25 9.5q-19 0 -30 -12t-15 -29l-17 -79l95 78q1 5 1 9z" />
    <glyph glyph-name="ampersand.case" 
d="M213 -10q-42 0 -77 14.5t-60 39.5t-38.5 57t-13.5 68q0 43 14 85t43.5 75.5t75.5 54.5t109 22h7l-78 220l16 74h339l-16 -74h-259l140 -397l107 139l63 -42l-141 -180l40 -114l-66 -36l-28 79q-36 -42 -78.5 -63.5t-98.5 -21.5zM219 65q47 0 81 28t60 66l-59 166
q-7 2 -17 4t-21 2q-33 0 -62.5 -11t-51.5 -31t-34.5 -48t-12.5 -61q0 -51 32.5 -83t84.5 -32z" />
    <glyph glyph-name="hyphen.case" 
d="M172 315l9 45h290l-9 -45h-290z" />
    <glyph glyph-name="endash.case" 
d="M119 315l9 45h396l-9 -45h-396z" />
    <glyph glyph-name="emdash.case" 
d="M87 315l9 45h459l-9 -45h-459z" />
    <glyph glyph-name="question.case" 
d="M332 380q33 0 60 14t46 36.5t29.5 49t10.5 52.5q0 44 -29 73.5t-83 29.5q-30 0 -54.5 -11.5t-43 -29.5t-30.5 -41t-16 -46h-74q5 43 23.5 80.5t47.5 64.5t68 42.5t86 15.5q39 0 72 -14t57 -37t37 -53t13 -63q0 -48 -15 -89t-42 -72.5t-65.5 -51t-86.5 -22.5l-16 -78h-77
l32 150h50zM209 105h105l-22 -105h-105z" />
    <glyph glyph-name="questiondown.case" 
d="M301 320q-32 -2 -57.5 -16.5t-43.5 -36.5t-28 -48t-10 -51q0 -44 29 -73.5t83 -29.5q30 0 54.5 11.5t43 29.5t30.5 41t16 46h74q-5 -44 -23.5 -81t-47.5 -64t-68 -42.5t-86 -15.5q-39 0 -72 14t-57 37t-37 53t-13 63q0 48 15 89t42 72.5t65.5 50.5t85.5 23l17 78h77
l-32 -150h-57zM431 595h-105l22 105h105z" />
    <glyph glyph-name="exclam.case" 
d="M336 230h-77l99 470h77zM218 105h105l-22 -105h-105z" />
    <glyph glyph-name="exclamdown.case" 
d="M309 470h77l-99 -470h-77zM427 595h-105l22 105h105z" />
    <glyph glyph-name="guilsinglleft.case" 
d="M172 315l254 210l29 -34l-221 -182l137 -176l-34 -28z" />
    <glyph glyph-name="guilsinglright.case" 
d="M436 315l-254 -210l-29 34l221 182l-137 176l34 28z" />
    <glyph glyph-name="guillemotleft.case" 
d="M65 315l254 210l29 -34l-221 -182l137 -176l-34 -28zM290 315l254 210l29 -34l-221 -182l137 -176l-34 -28z" />
    <glyph glyph-name="guillemotright.case" 
d="M543 315l-254 -210l-29 34l221 182l-137 176l34 28zM318 315l-254 -210l-29 34l221 182l-137 176l34 28z" />
    <glyph glyph-name="parenleft.case" 
d="M333 597q5 25 13 44t21.5 32t35 20t54.5 7h123l-9 -42h-119q-36 0 -52.5 -16t-24.5 -51q-31 -146 -51.5 -242t-33 -154t-17.5 -84.5t-5 -32.5q0 -36 47 -36h125l-9 -42h-125q-44 0 -62.5 21.5t-18.5 53.5q0 5 1.5 16t6 33.5t12.5 59t20 93t28.5 135t39.5 185.5z" />
    <glyph glyph-name="parenright.case" 
d="M315 103q-5 -25 -13 -44t-21.5 -32t-35 -20t-54.5 -7h-123l9 42h119q36 0 52.5 16t24.5 51q31 146 51.5 242t33 154t17.5 84.5t5 32.5q0 36 -47 36h-125l9 42h125q44 0 62.5 -21.5t18.5 -53.5q0 -5 -1.5 -16t-6 -33.5t-12.5 -59t-20 -93t-28.5 -135t-39.5 -185.5z" />
    <glyph glyph-name="bracketleft.case" 
d="M354 700h225l-9 -42h-182l-131 -616h182l-9 -42h-225z" />
    <glyph glyph-name="bracketright.case" 
d="M293 0h-225l9 42h182l131 616h-182l9 42h225z" />
    <glyph glyph-name="braceleft.case" 
d="M266 293q0 18 -11.5 27t-42.5 9h-10l9 42h10q40 0 55 15t22 46l35 165q5 25 13 44t21.5 32t35 20t54.5 7h123l-9 -42h-119q-36 0 -52.5 -16t-24.5 -51l-34 -159q-6 -28 -16 -51.5t-34 -34.5q11 -8 14.5 -18.5t3.5 -26.5q0 -9 -3 -27.5t-7.5 -40.5t-10 -46.5t-10 -46.5
t-7.5 -38.5t-3 -23.5q0 -36 47 -36h125l-9 -42h-125q-44 0 -62.5 21.5t-18.5 53.5q0 8 3 25.5t7.5 39.5t10 46t10 45.5t7.5 38t3 23.5z" />
    <glyph glyph-name="braceright.case" 
d="M381 407q0 -18 11.5 -27t42.5 -9h10l-9 -42h-10q-40 0 -55 -15t-22 -46l-35 -165q-5 -25 -13 -44t-21.5 -32t-35 -20t-54.5 -7h-123l9 42h119q36 0 52.5 16t24.5 51l34 159q6 28 16 51.5t34 34.5q-11 8 -14.5 18.5t-3.5 26.5q0 14 6.5 46.5t14 68.5t14 66.5t6.5 41.5
q0 36 -47 36h-125l9 42h125q44 0 62.5 -21.5t18.5 -53.5q0 -8 -3 -25.5t-7.5 -39.5t-10 -46t-10 -45.5t-7.5 -38t-3 -23.5z" />
    <glyph glyph-name="bar.case" 
d="M302 700h43v-700h-43v700z" />
    <glyph glyph-name="brokenbar.case" 
d="M302 289h43v-289h-43v289zM302 700h43v-289h-43v289z" />
    <glyph glyph-name="periodcentered.case" 
d="M262 400h105l-22 -105h-105z" />
    <glyph glyph-name="at.case" 
d="M428 130q-19 -26 -47 -38t-60 -12q-68 0 -106.5 38.5t-38.5 106.5v30q0 68 38.5 106.5t106.5 38.5h70v75q0 34 -18 53.5t-52 19.5t-52 -19.5t-18 -53.5v-27h-75v27q0 68 38.5 106.5t106.5 38.5t106.5 -38.5t38.5 -106.5v-312q0 -18 10.5 -29.5t28.5 -11.5t28.5 11.5
t10.5 29.5v308q0 48 -14.5 88t-43 68.5t-69.5 44.5t-94 16t-94 -16t-69.5 -44.5t-43 -68.5t-14.5 -88v-242q0 -48 14.5 -88t43 -68.5t69.5 -44.5t94 -16v-42q-63 0 -112 18.5t-83 52.5t-51.5 82t-17.5 106v242q0 58 17.5 106t51.5 82t83 52.5t112 18.5t112 -18.5t83 -52.5
t51.5 -82t17.5 -106v-308q0 -41 -23.5 -62t-58.5 -21q-34 0 -52.5 15t-24.5 35zM251 225q0 -34 18 -53.5t52 -19.5t52 19.5t18 53.5v103h-70q-34 0 -52 -19.5t-18 -53.5v-30z" />
    <glyph glyph-name="plus.case" 
d="M298 315h-176v45h176v175h45v-175h175v-45h-175v-176h-45v176z" />
    <glyph glyph-name="minus.case" 
d="M122 315v45h396v-45h-396z" />
    <glyph glyph-name="divide.case" 
d="M278 536q0 17 12.5 29.5t29.5 12.5t29.5 -12.5t12.5 -29.5t-12.5 -29.5t-29.5 -12.5t-29.5 12.5t-12.5 29.5zM278 139q0 17 12.5 29.5t29.5 12.5t29.5 -12.5t12.5 -29.5t-12.5 -29.5t-29.5 -12.5t-29.5 12.5t-12.5 29.5zM122 315v45h396v-45h-396z" />
    <glyph glyph-name="multiply.case" 
d="M352 337l140 -139l-32 -32l-140 139l-139 -139l-32 32l139 139l-139 139l32 32l139 -139l140 139l32 -32z" />
    <glyph glyph-name="equal.case" 
d="M122 212v45h396v-45h-396zM122 407v45h396v-45h-396z" />
    <glyph glyph-name="plusminus.case" 
d="M298 407h-176v45h176v121h45v-121h175v-45h-175v-121h-45v121zM122 212v45h396v-45h-396z" />
    <glyph glyph-name="less.case" 
d="M210 317l239 -239l-32 -31l-270 270l270 270l32 -31z" />
    <glyph glyph-name="greater.case" 
d="M159 556l32 31l270 -270l-270 -270l-32 31l239 239z" />
    <glyph glyph-name="lessequal.case" 
d="M122 57v45h396v-45h-396zM122 356v44l396 180v-48l-338 -154l338 -154v-48z" />
    <glyph glyph-name="greaterequal.case" 
d="M122 57v45h396v-45h-396zM122 176v48l338 154l-338 154v48l396 -180v-44z" />
    <glyph glyph-name="notequal.case" 
d="M277 212l-65 -117l-37 22l53 95h-106v45h396v-45h-241zM412 452h106v-45h-396v45h240l66 117l37 -22z" />
    <glyph glyph-name="acute.case" 
d="M266 733l12 54l264 72l-12 -54z" />
    <glyph glyph-name="breve.case" 
d="M353 743q-40 0 -65 25t-25 63v11t2 12h47q-1 -5 -1 -13q0 -21 13.5 -35t36.5 -14h55q31 0 52.5 20t26.5 42h52q-10 -46 -45 -78.5t-89 -32.5h-60z" />
    <glyph glyph-name="caron.case" 
d="M395 787l167 72l-13 -58l-157 -68l-145 77l11 49z" />
    <glyph glyph-name="cedilla.case" 
d="M210 -134l18 84h50l-29 -134h-134l11 50h84z" />
    <glyph glyph-name="circumflex.case" 
d="M414 805l-167 -72l13 58l157 68l145 -77l-11 -49z" />
    <glyph glyph-name="dieresis.case" 
d="M257 837h76l-17 -76h-76zM493 837h76l-17 -76h-76z" />
    <glyph glyph-name="dotaccent.case" 
d="M375 837h76l-17 -76h-76z" />
    <glyph glyph-name="grave.case" 
d="M267 811l10 48l264 -72l-10 -48z" />
    <glyph glyph-name="hungarumlaut.case" 
d="M242 753l12 54l126 35l-12 -54zM428 753l12 54l126 35l-12 -54z" />
    <glyph glyph-name="macron.case" 
d="M242 774l11 50h312l-11 -50h-312z" />
    <glyph glyph-name="ogonek.case" 
d="M262 -186q-9 -2 -14.5 -2.5t-11.5 -0.5q-37 0 -60 26.5t-23 59.5q0 40 20 66t46 37h83q-15 -6 -32.5 -14.5t-32.5 -20t-25 -27t-10 -34.5q0 -44 46 -44q12 0 24 3z" />
    <glyph glyph-name="ring.case" 
d="M290 765q0 24 9 44.5t24.5 36.5t36 25t44.5 9t44.5 -9t36.5 -25t25 -36.5t9 -44.5t-9 -44.5t-25 -36t-36.5 -24.5t-44.5 -9t-44.5 9t-36 24.5t-24.5 36t-9 44.5zM339 765q0 -27 19 -46t46 -19t46.5 19t19.5 46t-19.5 46.5t-46.5 19.5t-46 -19.5t-19 -46.5z" />
    <glyph glyph-name="tilde.case" 
d="M448 737l-91 66l-124 -66l14 63l113 60l91 -66l124 66l-14 -63z" />
    <glyph glyph-name="at.case.ss01" 
d="M391 606h75v-443q0 -18 10.5 -29.5t28.5 -11.5t28.5 11.5t10.5 29.5v308q0 48 -14.5 88t-43 68.5t-69.5 44.5t-94 16t-94 -16t-69.5 -44.5t-43 -68.5t-14.5 -88v-242q0 -48 14.5 -88t43 -68.5t69.5 -44.5t94 -16v-42q-63 0 -112 18.5t-83 52.5t-51.5 82t-17.5 106v242
q0 58 17.5 106t51.5 82t83 52.5t112 18.5t112 -18.5t83 -52.5t51.5 -82t17.5 -106v-308q0 -41 -23.5 -62t-58.5 -21q-34 0 -52.5 15t-24.5 35q-19 -26 -47 -38t-60 -12q-68 0 -106.5 38.5t-38.5 106.5v250q0 68 37.5 106.5t97.5 38.5q30 0 49.5 -11.5t30.5 -26.5v24z
M321 548q-34 0 -52 -19.5t-18 -53.5v-250q0 -34 18 -53.5t52 -19.5t52 19.5t18 53.5v250q0 34 -18 53.5t-52 19.5z" />
    <glyph glyph-name="a.ss01" 
d="M341 459q-59 0 -99 -32.5t-54 -97.5q-5 -21 -10.5 -47.5t-11 -52t-9 -47.5t-3.5 -34q0 -23 9 -39.5t24 -27t34 -15.5t39 -5q59 0 99 32.5t54 97.5q4 21 10 47.5t11.5 52t9 47.5t3.5 34q0 23 -9 39.5t-24 27t-34 15.5t-39 5zM384 55q-17 -26 -53 -45.5t-87 -19.5
q-30 0 -60 9.5t-53.5 28.5t-38 46.5t-14.5 62.5q0 13 3.5 35.5t8.5 48.5t11.5 54t11.5 53q12 55 32.5 93.5t50 62.5t66.5 35t81 11q45 0 77.5 -20.5t48.5 -53.5l13 60h75l-110 -516h-75z" />
    <glyph glyph-name="aacute.ss01" 
d="M341 459q-59 0 -99 -32.5t-54 -97.5q-5 -21 -10.5 -47.5t-11 -52t-9 -47.5t-3.5 -34q0 -23 9 -39.5t24 -27t34 -15.5t39 -5q59 0 99 32.5t54 97.5q4 21 10 47.5t11.5 52t9 47.5t3.5 34q0 23 -9 39.5t-24 27t-34 15.5t-39 5zM384 55q-17 -26 -53 -45.5t-87 -19.5
q-30 0 -60 9.5t-53.5 28.5t-38 46.5t-14.5 62.5q0 13 3.5 35.5t8.5 48.5t11.5 54t11.5 53q12 55 32.5 93.5t50 62.5t66.5 35t81 11q45 0 77.5 -20.5t48.5 -53.5l13 60h75l-110 -516h-75zM245 579l12 54l264 72l-12 -54z" />
    <glyph glyph-name="abreve.ss01" 
d="M341 459q-59 0 -99 -32.5t-54 -97.5q-5 -21 -10.5 -47.5t-11 -52t-9 -47.5t-3.5 -34q0 -23 9 -39.5t24 -27t34 -15.5t39 -5q59 0 99 32.5t54 97.5q4 21 10 47.5t11.5 52t9 47.5t3.5 34q0 23 -9 39.5t-24 27t-34 15.5t-39 5zM384 55q-17 -26 -53 -45.5t-87 -19.5
q-30 0 -60 9.5t-53.5 28.5t-38 46.5t-14.5 62.5q0 13 3.5 35.5t8.5 48.5t11.5 54t11.5 53q12 55 32.5 93.5t50 62.5t66.5 35t81 11q45 0 77.5 -20.5t48.5 -53.5l13 60h75l-110 -516h-75zM341 589q-40 0 -65 25t-25 63v11t2 12h47q-1 -5 -1 -13q0 -21 13.5 -35t36.5 -14h55
q31 0 52.5 20t26.5 42h52q-10 -46 -45 -78.5t-89 -32.5h-60z" />
    <glyph glyph-name="acircumflex.ss01" 
d="M341 459q-59 0 -99 -32.5t-54 -97.5q-5 -21 -10.5 -47.5t-11 -52t-9 -47.5t-3.5 -34q0 -23 9 -39.5t24 -27t34 -15.5t39 -5q59 0 99 32.5t54 97.5q4 21 10 47.5t11.5 52t9 47.5t3.5 34q0 23 -9 39.5t-24 27t-34 15.5t-39 5zM384 55q-17 -26 -53 -45.5t-87 -19.5
q-30 0 -60 9.5t-53.5 28.5t-38 46.5t-14.5 62.5q0 13 3.5 35.5t8.5 48.5t11.5 54t11.5 53q12 55 32.5 93.5t50 62.5t66.5 35t81 11q45 0 77.5 -20.5t48.5 -53.5l13 60h75l-110 -516h-75zM389 651l-167 -72l13 58l157 68l145 -77l-11 -49z" />
    <glyph glyph-name="adieresis.ss01" 
d="M341 459q-59 0 -99 -32.5t-54 -97.5q-5 -21 -10.5 -47.5t-11 -52t-9 -47.5t-3.5 -34q0 -23 9 -39.5t24 -27t34 -15.5t39 -5q59 0 99 32.5t54 97.5q4 21 10 47.5t11.5 52t9 47.5t3.5 34q0 23 -9 39.5t-24 27t-34 15.5t-39 5zM384 55q-17 -26 -53 -45.5t-87 -19.5
q-30 0 -60 9.5t-53.5 28.5t-38 46.5t-14.5 62.5q0 13 3.5 35.5t8.5 48.5t11.5 54t11.5 53q12 55 32.5 93.5t50 62.5t66.5 35t81 11q45 0 77.5 -20.5t48.5 -53.5l13 60h75l-110 -516h-75zM236 683h76l-17 -76h-76zM472 683h76l-17 -76h-76z" />
    <glyph glyph-name="agrave.ss01" 
d="M341 459q-59 0 -99 -32.5t-54 -97.5q-5 -21 -10.5 -47.5t-11 -52t-9 -47.5t-3.5 -34q0 -23 9 -39.5t24 -27t34 -15.5t39 -5q59 0 99 32.5t54 97.5q4 21 10 47.5t11.5 52t9 47.5t3.5 34q0 23 -9 39.5t-24 27t-34 15.5t-39 5zM384 55q-17 -26 -53 -45.5t-87 -19.5
q-30 0 -60 9.5t-53.5 28.5t-38 46.5t-14.5 62.5q0 13 3.5 35.5t8.5 48.5t11.5 54t11.5 53q12 55 32.5 93.5t50 62.5t66.5 35t81 11q45 0 77.5 -20.5t48.5 -53.5l13 60h75l-110 -516h-75zM246 657l10 48l264 -72l-10 -48z" />
    <glyph glyph-name="amacron.ss01" 
d="M341 459q-59 0 -99 -32.5t-54 -97.5q-5 -21 -10.5 -47.5t-11 -52t-9 -47.5t-3.5 -34q0 -23 9 -39.5t24 -27t34 -15.5t39 -5q59 0 99 32.5t54 97.5q4 21 10 47.5t11.5 52t9 47.5t3.5 34q0 23 -9 39.5t-24 27t-34 15.5t-39 5zM384 55q-17 -26 -53 -45.5t-87 -19.5
q-30 0 -60 9.5t-53.5 28.5t-38 46.5t-14.5 62.5q0 13 3.5 35.5t8.5 48.5t11.5 54t11.5 53q12 55 32.5 93.5t50 62.5t66.5 35t81 11q45 0 77.5 -20.5t48.5 -53.5l13 60h75l-110 -516h-75zM222 620l11 50h312l-11 -50h-312z" />
    <glyph glyph-name="aogonek.ss01" 
d="M407 -186q-9 -2 -14.5 -2.5t-11.5 -0.5q-37 0 -60 26.5t-23 59.5q0 38 21 65t53 38l12 55q-17 -26 -53 -45.5t-87 -19.5q-30 0 -60 9.5t-53.5 28.5t-38 46.5t-14.5 62.5q0 13 3.5 35.5t8.5 48.5t11.5 54t11.5 53q12 55 32.5 93.5t50 62.5t66.5 35t81 11q45 0 77.5 -20.5
t48.5 -53.5l13 60h75l-110 -516q-15 -6 -32.5 -14.5t-32.5 -20t-25 -27t-10 -34.5q0 -44 46 -44q12 0 24 3zM341 459q-59 0 -99 -32.5t-54 -97.5q-5 -21 -10.5 -47.5t-11 -52t-9 -47.5t-3.5 -34q0 -23 9 -39.5t24 -27t34 -15.5t39 -5q59 0 99 32.5t54 97.5q4 21 10 47.5
t11.5 52t9 47.5t3.5 34q0 23 -9 39.5t-24 27t-34 15.5t-39 5z" />
    <glyph glyph-name="aring.ss01" 
d="M341 459q-59 0 -99 -32.5t-54 -97.5q-5 -21 -10.5 -47.5t-11 -52t-9 -47.5t-3.5 -34q0 -23 9 -39.5t24 -27t34 -15.5t39 -5q59 0 99 32.5t54 97.5q4 21 10 47.5t11.5 52t9 47.5t3.5 34q0 23 -9 39.5t-24 27t-34 15.5t-39 5zM384 55q-17 -26 -53 -45.5t-87 -19.5
q-30 0 -60 9.5t-53.5 28.5t-38 46.5t-14.5 62.5q0 13 3.5 35.5t8.5 48.5t11.5 54t11.5 53q12 55 32.5 93.5t50 62.5t66.5 35t81 11q45 0 77.5 -20.5t48.5 -53.5l13 60h75l-110 -516h-75zM259 595q0 24 9 44.5t24.5 36.5t36 25t44.5 9t44.5 -9t36.5 -25t25 -36.5t9 -44.5
t-9 -44.5t-25 -36t-36.5 -24.5t-44.5 -9t-44.5 9t-36 24.5t-24.5 36t-9 44.5zM308 595q0 -27 19 -46t46 -19t46.5 19t19.5 46t-19.5 46.5t-46.5 19.5t-46 -19.5t-19 -46.5z" />
    <glyph glyph-name="atilde.ss01" 
d="M341 459q-59 0 -99 -32.5t-54 -97.5q-5 -21 -10.5 -47.5t-11 -52t-9 -47.5t-3.5 -34q0 -23 9 -39.5t24 -27t34 -15.5t39 -5q59 0 99 32.5t54 97.5q4 21 10 47.5t11.5 52t9 47.5t3.5 34q0 23 -9 39.5t-24 27t-34 15.5t-39 5zM384 55q-17 -26 -53 -45.5t-87 -19.5
q-30 0 -60 9.5t-53.5 28.5t-38 46.5t-14.5 62.5q0 13 3.5 35.5t8.5 48.5t11.5 54t11.5 53q12 55 32.5 93.5t50 62.5t66.5 35t81 11q45 0 77.5 -20.5t48.5 -53.5l13 60h75l-110 -516h-75zM427 580l-91 66l-124 -66l14 63l113 60l91 -66l124 66l-14 -63z" />
    <glyph glyph-name="at.ss01" 
d="M372 516h75v-443q0 -18 10.5 -29.5t28.5 -11.5t28.5 11.5t10.5 29.5v378q0 48 -14.5 88t-43 68.5t-69.5 44.5t-94 16t-94 -16t-69.5 -44.5t-43 -68.5t-14.5 -88v-381q0 -48 14.5 -88t43 -68.5t69.5 -44.5t94 -16v-42q-63 0 -112 18.5t-83 52.5t-51.5 82t-17.5 106v381
q0 58 17.5 106t51.5 82t83 52.5t112 18.5t112 -18.5t83 -52.5t51.5 -82t17.5 -106v-378q0 -41 -23.5 -62t-58.5 -21q-34 0 -52.5 15t-24.5 35q-19 -26 -47 -38t-60 -12q-68 0 -106.5 38.5t-38.5 106.5v250q0 68 37.5 106.5t97.5 38.5q30 0 49.5 -11.5t30.5 -26.5v24z
M302 458q-34 0 -52 -19.5t-18 -53.5v-250q0 -34 18 -53.5t52 -19.5t52 19.5t18 53.5v250q0 34 -18 53.5t-52 19.5z" />
  </font>
</defs>
</svg>
