<?xml version="1.0" standalone="no"?>
<!DOCTYPE svg PUBLIC "-//W3C//DTD SVG 1.1//EN" "http://www.w3.org/Graphics/SVG/1.1/DTD/svg11.dtd" >
<svg xmlns="http://www.w3.org/2000/svg" xmlns:xlink="http://www.w3.org/1999/xlink" version="1.1">
<metadata>
Created by Christoph Koeberlin (http://christoph.koe.berlin)
Copyright (c) 2011 Swiss Typefaces Sa`rl. All rights reserved.
</metadata>
<defs>
<font id="Font" horiz-adv-x="608" >
  <font-face 
    font-family="Font"
    font-weight="300"
    font-style="italic"
    font-stretch="normal"
    units-per-em="1000"
    panose-1="2 11 3 9 3 0 0 0 0 0"
    ascent="800"
    descent="-200"
    x-height="516"
    cap-height="700"
    bbox="-503 -209 687 880"
    underline-thickness="48"
    underline-position="-52"
    slope="-12"
    unicode-range="U+0020-FB02"
  />
<missing-glyph 
d="M366 54l-56 241l-159 -241h215zM513 603l-170 -258l60 -257zM296 354l-59 256l-109 -512zM53 0l148 700h387l-148 -700h-387zM329 404l160 242h-216z" />
    <glyph glyph-name=".notdef" 
d="M366 54l-56 241l-159 -241h215zM513 603l-170 -258l60 -257zM296 354l-59 256l-109 -512zM53 0l148 700h387l-148 -700h-387zM329 404l160 242h-216z" />
    <glyph glyph-name=".null" horiz-adv-x="0" 
 />
    <glyph glyph-name="nonmarkingreturn" horiz-adv-x="0" 
 />
    <glyph glyph-name="space" unicode=" " 
 />
    <glyph glyph-name="exclam" unicode="!" 
d="M425 700l-104 -490h-53l104 490h53zM226 84h84l-18 -84h-84z" />
    <glyph glyph-name="quotedbl" unicode="&#x22;" 
d="M463 476v224h53v-224h-53zM221 476v224h53v-224h-53z" />
    <glyph glyph-name="numbersign" unicode="#" 
d="M445 216l-53 -216h-47l53 216h-211l-53 -216h-47l53 216h-71v45h82l44 178h-81v45h92l54 216h47l-54 -216h211l54 216h47l-54 -216h72v-45h-83l-44 -178h82v-45h-93zM198 261h211l44 178h-211z" />
    <glyph glyph-name="dollar" unicode="$" 
d="M278 337q-62 23 -93.5 70.5t-31.5 103.5q0 48 14.5 85t41.5 62.5t65 38.5t84 13q10 0 15 -1l20 91h43l-21 -98q25 -7 48.5 -20.5t41 -33.5t28 -46t10.5 -58v-6t-1 -8h-51v4q0 31 -11 54.5t-29.5 39.5t-43 24t-51.5 8q-72 0 -110.5 -40t-38.5 -100q0 -45 20 -80t70 -54
l70 -26q57 -21 89.5 -64t32.5 -102q0 -41 -12.5 -77.5t-38.5 -65t-66 -45t-95 -16.5q-3 0 -6.5 0.5t-6.5 0.5l-19 -91h-43l20 97q-30 7 -57 21.5t-47 37.5t-31.5 54t-11.5 70v10t1 10h52q-1 -8 -1 -10v-7q0 -35 12.5 -61.5t34 -44.5t50.5 -27.5t62 -9.5q29 0 56 10t47.5 29
t33 47t12.5 65q0 42 -21 72.5t-72 49.5z" />
    <glyph glyph-name="percent" unicode="%" 
d="M74 567q0 28 10.5 53.5t29.5 44t43.5 29.5t53.5 11q28 0 53.5 -11t44 -29.5t29.5 -44t11 -53.5q0 -29 -11 -53.5t-29.5 -43.5t-44 -29.5t-53.5 -10.5q-29 0 -53.5 10.5t-43.5 29.5t-29.5 43.5t-10.5 53.5zM116 567q0 -40 27.5 -67.5t67.5 -27.5t68 27.5t28 67.5t-28 68
t-68 28t-67.5 -28t-27.5 -68zM299 132q0 28 10.5 53.5t29.5 44t43.5 29.5t53.5 11q28 0 53.5 -11t44 -29.5t29.5 -44t11 -53.5q0 -29 -11 -53.5t-29.5 -43.5t-44 -29.5t-53.5 -10.5q-29 0 -53.5 10.5t-43.5 29.5t-29.5 43.5t-10.5 53.5zM341 132q0 -40 27.5 -67.5
t67.5 -27.5t68 27.5t28 67.5t-28 68t-68 28t-67.5 -28t-27.5 -68zM526 585l32 -32l-434 -435l-32 32z" />
    <glyph glyph-name="ampersand" unicode="&#x26;" 
d="M406 103q-19 -28 -38.5 -49t-42 -35.5t-49.5 -21.5t-63 -7q-41 0 -73.5 14t-55 38t-34.5 55.5t-12 66.5q0 47 15.5 89t44 73t70 49t94.5 18q25 0 42 -4l-91 261l11 50h327l-11 -50h-275l158 -446l126 163l43 -27l-150 -192l46 -130l-44 -23zM326 328q-30 16 -71 16
q-38 0 -68.5 -15t-52 -39t-33.5 -54.5t-12 -61.5q0 -24 7.5 -47.5t23.5 -43t40.5 -31.5t59.5 -12q33 0 57 10.5t43 27.5t35 37.5t32 41.5z" />
    <glyph glyph-name="quotesingle" unicode="'" 
d="M347 476v224h53v-224h-53z" />
    <glyph glyph-name="parenleft" unicode="(" 
d="M333 597q5 25 13 44t21.5 32t35 20t54.5 7h123l-9 -42h-119q-36 0 -52.5 -16t-24.5 -51q-62 -292 -94.5 -442t-32.5 -163q0 -36 47 -36h125l-9 -42h-125q-44 0 -62.5 21.5t-18.5 53.5q0 5 1.5 14.5t6 32.5t13 63.5t22.5 107t35 163.5t50 233z" />
    <glyph glyph-name="parenright" unicode=")" 
d="M295 11q-5 -25 -13 -44t-21.5 -32t-35 -20t-54.5 -7h-123l9 42h119q36 0 52.5 16t24.5 51q62 292 94.5 442t32.5 163q0 36 -47 36h-125l9 42h125q44 0 62.5 -21.5t18.5 -53.5q0 -5 -1.5 -14.5t-6 -32.5t-13 -63.5t-22.5 -107t-35 -163.5t-50 -233z" />
    <glyph glyph-name="asterisk" unicode="*" 
d="M217 340l-34 27l125 131l-145 50l20 40l143 -50l35 162h45l-35 -162l165 50l4 -46l-164 -49l67 -129l-40 -24l-64 127z" />
    <glyph glyph-name="plus" unicode="+" 
d="M287 258h-176v45h176v175h45v-175h175v-45h-175v-176h-45v176z" />
    <glyph glyph-name="comma" unicode="," 
d="M118 -127l204 203l39 -39l-204 -203z" />
    <glyph glyph-name="hyphen" unicode="-" 
d="M155 258l9 45h290l-9 -45h-290z" />
    <glyph glyph-name="period" unicode="." 
d="M225 84h84l-17 -84h-84z" />
    <glyph glyph-name="slash" unicode="/" 
d="M595 679l-472 -684l-37 26l472 684z" />
    <glyph glyph-name="zero" unicode="0" 
d="M89 156q0 7 2 20t9 49t21.5 104.5t39.5 187.5q19 90 76.5 141.5t144.5 51.5q41 0 73.5 -14.5t55 -37.5t34.5 -53t12 -61q0 -12 -3 -30t-10.5 -56.5t-22 -104t-36.5 -170.5q-19 -90 -76.5 -141.5t-144.5 -51.5q-41 0 -73.5 14.5t-55 37.5t-34.5 53t-12 61zM506 534
q0 24 -7.5 46.5t-23.5 40t-41 28.5t-59 11q-35 0 -62.5 -13.5t-48 -35.5t-34 -50t-19.5 -56l-57 -267l352 291v5zM491 460l-351 -290v-4q0 -24 7.5 -46.5t23.5 -40t40.5 -28.5t59.5 -11q34 0 62 13.5t48.5 35.5t34 49.5t19.5 56.5z" />
    <glyph glyph-name="one" unicode="1" 
d="M249 50l122 570l-137 -112l-32 39l186 153h53l-139 -650h183l-11 -50h-417l11 50h181z" />
    <glyph glyph-name="two" unicode="2" 
d="M208 359q-24 23 -36.5 53.5t-12.5 62.5q0 47 15.5 89.5t44 75t70 51.5t94.5 19q41 0 73.5 -14.5t55 -37.5t34.5 -53t12 -61q0 -26 -4.5 -48t-17.5 -45.5t-36.5 -51t-60.5 -62.5l-304 -287h324l-11 -50h-396l11 51l340 320q48 45 76 84.5t28 78.5q0 24 -7.5 46.5t-23.5 40
t-41 28.5t-59 11q-38 0 -68.5 -15.5t-52 -40.5t-33.5 -56.5t-12 -62.5q0 -26 8.5 -49.5t26.5 -41.5z" />
    <glyph glyph-name="three" unicode="3" 
d="M133 188q-1 -5 -1.5 -11t-0.5 -11q0 -24 7.5 -46.5t23.5 -40t40.5 -28.5t59.5 -11q37 0 68 15.5t52.5 40.5t33.5 56.5t12 62.5q0 22 -7 43t-21 37.5t-36 27.5t-53 13l11 49h11q36 0 64.5 13.5t49 36t31.5 52t11 60.5q0 24 -6.5 44.5t-21 35.5t-37.5 24t-56 9
q-32 0 -58.5 -11.5t-46.5 -30.5t-32.5 -44t-16.5 -52h-51q5 41 21.5 75.5t43.5 59.5t64 39t83 14q39 0 69.5 -12t52 -33t32.5 -49t11 -59q0 -72 -32.5 -126.5t-93.5 -79.5q31 -23 48 -56.5t17 -69.5q0 -47 -15.5 -90t-44 -75t-70.5 -51t-94 -19q-41 0 -73.5 14.5t-55 37.5
t-34.5 53t-12 61q0 8 0.5 16t1.5 16h51v0z" />
    <glyph glyph-name="four" unicode="4" 
d="M133 250h258l36 169h53l-36 -169h73l-11 -50h-73l-42 -200h-53l42 200h-329l11 51l429 454l40 -34z" />
    <glyph glyph-name="five" unicode="5" 
d="M217 408q16 12 46.5 20.5t59.5 8.5q41 0 73.5 -14.5t55 -37.5t34.5 -53t12 -61q0 -23 -4 -41t-10 -47q-19 -90 -76.5 -141.5t-144.5 -51.5q-41 0 -73.5 14.5t-55 37.5t-34.5 53t-12 61v15t2 17h52q-2 -11 -2.5 -15.5t-0.5 -6.5q0 -24 7.5 -46.5t23.5 -40t40.5 -28.5
t59.5 -11q34 0 62 13.5t48.5 35.5t34 49.5t19.5 56.5q8 37 10.5 50t2.5 16q0 24 -7.5 46.5t-23.5 40t-41 28.5t-59 11q-46 0 -79.5 -23.5t-54.5 -57.5l-53 28l158 366h254l-11 -50h-209z" />
    <glyph glyph-name="six" unicode="6" 
d="M91 244q9 44 28.5 78t45.5 61l304 322l39 -35l-221 -234q6 1 12 1h13q41 0 73.5 -14.5t55 -37.5t34.5 -53t12 -61q0 -23 -4 -41t-10 -47q-19 -90 -76.5 -141.5t-144.5 -51.5q-41 0 -73.5 14.5t-55 37.5t-34.5 53t-12 61q0 23 4 41t10 47zM423 195q8 37 10.5 50t2.5 16
q0 24 -7.5 46.5t-23.5 40t-41 28.5t-59 11q-35 0 -62.5 -13.5t-48 -35.5t-34 -50t-19.5 -56q-8 -37 -10.5 -50t-2.5 -16q0 -24 7.5 -46.5t23.5 -40t40.5 -28.5t59.5 -11q34 0 62 13.5t48.5 35.5t34 49.5t19.5 56.5z" />
    <glyph glyph-name="seven" unicode="7" 
d="M593 700l-10 -49l-378 -656l-47 17l369 638h-282l-25 -122h-53l36 172h390z" />
    <glyph glyph-name="eight" unicode="8" 
d="M89 156q0 73 35.5 131t101.5 83q-27 21 -41.5 52t-14.5 66q0 47 14.5 87.5t42 70.5t67 47t90.5 17q39 0 69.5 -12t52 -33t32.5 -49t11 -59q0 -72 -33 -127t-93 -79q31 -23 48 -56t17 -70q0 -47 -15.5 -90t-44 -75t-70.5 -51t-94 -19q-41 0 -73.5 14.5t-55 37.5t-34.5 53
t-12 61zM437 215q0 24 -7.5 45.5t-23.5 38.5t-41 27t-59 10q-38 0 -68.5 -15t-52 -39t-33.5 -54.5t-12 -61.5q0 -24 7.5 -46.5t23.5 -40t40.5 -28.5t59.5 -11q37 0 68 15.5t52.5 40.5t33.5 56.5t12 62.5zM498 547q0 24 -6.5 44.5t-21 35.5t-37.5 24t-56 9q-36 0 -64.5 -13.5
t-49 -36t-31.5 -52t-11 -60.5q0 -24 6.5 -44.5t21 -35.5t37.5 -24t56 -9q36 0 64.5 13.5t49 36t31.5 52t11 60.5z" />
    <glyph glyph-name="nine" unicode="9" 
d="M556 456q-9 -44 -28.5 -78t-45.5 -61l-304 -322l-39 35l221 234q-6 -1 -12 -1h-13q-41 0 -73.5 14.5t-55 37.5t-34.5 53t-12 61q0 23 4 41t10 47q19 90 76.5 141.5t144.5 51.5q41 0 73.5 -14.5t55 -37.5t34.5 -53t12 -61q0 -23 -4 -41t-10 -47zM224 505q-8 -37 -10.5 -50
t-2.5 -16q0 -24 7.5 -46.5t23.5 -40t40.5 -28.5t59.5 -11q34 0 62 13.5t48.5 35.5t34 49.5t19.5 56.5q8 37 10.5 50t2.5 16q0 24 -7.5 46.5t-23.5 40t-41 28.5t-59 11q-35 0 -62.5 -13.5t-48 -35.5t-34 -50t-19.5 -56z" />
    <glyph glyph-name="colon" unicode=":" 
d="M344 429h84l-17 -84h-84zM270 84h84l-17 -84h-84z" />
    <glyph glyph-name="semicolon" unicode=";" 
d="M102 -127l204 203l39 -39l-204 -203zM344 429h84l-17 -84h-84z" />
    <glyph glyph-name="less" unicode="&#x3c;" 
d="M215 260l239 -239l-32 -31l-270 270l270 270l32 -31z" />
    <glyph glyph-name="equal" unicode="=" 
d="M111 156v45h396v-45h-396zM111 350v45h396v-45h-396z" />
    <glyph glyph-name="greater" unicode="&#x3e;" 
d="M154 499l32 31l270 -270l-270 -270l-32 31l239 239z" />
    <glyph glyph-name="question" unicode="?" 
d="M327 366q37 0 68 15t52.5 39.5t33.5 55t12 61.5q0 24 -7.5 46t-23.5 39t-41 27t-59 10t-62 -12.5t-49.5 -33t-35 -47t-17.5 -54.5h-51q5 41 22.5 77t46 63t67 42.5t86.5 15.5q41 0 73.5 -14t55 -36.5t34.5 -52t12 -60.5q0 -47 -15 -88.5t-42.5 -73t-67.5 -50.5t-91 -20
l-18 -85h-53l29 136h41zM210 84h84l-18 -84h-84z" />
    <glyph glyph-name="at" unicode="@" 
d="M404 34q-19 -23 -46 -33.5t-59 -10.5q-69 0 -104.5 39.5t-35.5 99.5v36q0 60 35.5 99.5t104.5 39.5h87v88q0 45 -24 66t-63 21t-63 -21t-24 -66v-32h-53v31q0 60 35.5 99.5t104.5 39.5t104.5 -39.5t35.5 -99.5v-317q0 -19 11.5 -30.5t31.5 -11.5t31.5 11.5t11.5 30.5v377
q0 48 -14.5 88t-43 68.5t-69.5 44.5t-94 16t-94 -16t-69.5 -44.5t-43 -68.5t-14.5 -88v-381q0 -48 14.5 -88t43 -68.5t69.5 -44.5t94 -16v-42q-63 0 -112 18.5t-83 52.5t-51.5 82t-17.5 106v381q0 58 17.5 106t51.5 82t83 52.5t112 18.5t112 -18.5t83 -52.5t51.5 -82
t17.5 -106v-374q0 -38 -21 -62.5t-65 -24.5q-25 0 -47.5 11t-30.5 33zM299 41q39 0 63 21t24 66v125h-87q-39 0 -63 -21.5t-24 -66.5v-37q0 -45 24 -66t63 -21z" />
    <glyph glyph-name="A" unicode="A" 
d="M432 218h-266l-120 -218h-59l386 700h50l89 -700h-52zM426 267l-44 343l-189 -343h233z" />
    <glyph glyph-name="B" unicode="B" 
d="M165 329l-58 -276h197q33 0 63 12.5t53.5 34.5t37.5 52t14 65q0 48 -30 80t-81 32h-196zM233 648l-57 -268h178q36 0 67.5 11.5t54 32.5t35.5 50t13 64q0 51 -32.5 80.5t-92.5 29.5h-166zM457 352q32 -17 51 -52t19 -76q0 -47 -17 -87.5t-48 -71t-73.5 -48t-93.5 -17.5
h-255l149 700h222q39 0 70 -12t53 -33t33.5 -49.5t11.5 -61.5q0 -72 -34 -120t-88 -72z" />
    <glyph glyph-name="C" unicode="C" 
d="M524 500q1 8 1 12v9q0 34 -11.5 59.5t-31 43t-45.5 26t-55 8.5q-33 0 -63.5 -10t-56 -31t-44 -54.5t-28.5 -80.5q-14 -66 -23.5 -111.5t-16.5 -76t-11 -49.5t-6 -30.5t-2.5 -19t-0.5 -16.5q0 -34 11.5 -59.5t31 -43t45.5 -26t55 -8.5q64 0 115 36.5t73 121.5h55
q-12 -49 -33 -88t-51.5 -66t-71.5 -41.5t-94 -14.5q-39 0 -73.5 12.5t-60.5 36t-41.5 57.5t-15.5 76q0 9 0.5 17.5t2.5 21t6 31.5t10.5 50.5t16.5 77.5t24 112q22 106 82.5 167t171.5 61q39 0 73.5 -12.5t60.5 -36t41.5 -57.5t15.5 -76q0 -8 -0.5 -15.5t-1.5 -12.5h-54z" />
    <glyph glyph-name="D" unicode="D" 
d="M275 52q33 0 63.5 10t56 31t44 54.5t28.5 80.5q14 66 23.5 110t15.5 72.5t9.5 44.5t5 25.5t2 15.5t0.5 15q0 34 -11.5 59.5t-31 43t-45.5 26t-55 8.5h-155l-127 -596h177zM32 0l149 700h206q39 0 73.5 -12.5t60.5 -36t41.5 -57.5t15.5 -76q0 -14 -2.5 -32t-8.5 -49
t-17 -81t-28 -128q-12 -53 -32 -95.5t-51 -72t-73.5 -45t-97.5 -15.5h-236z" />
    <glyph glyph-name="E" unicode="E" 
d="M131 52h332l-11 -52h-387l149 700h387l-11 -52h-332l-57 -268h262l-11 -51h-262z" />
    <glyph glyph-name="F" unicode="F" 
d="M138 0h-55l149 700h387l-11 -52h-332l-57 -268h262l-11 -51h-262z" />
    <glyph glyph-name="G" unicode="G" 
d="M521 500q1 7 1 11.5v9.5q0 34 -11.5 59.5t-31 43t-45.5 26t-55 8.5q-33 0 -63.5 -10t-56 -31t-44 -54.5t-28.5 -80.5q-14 -66 -23.5 -111.5t-16.5 -76t-11 -49.5t-6 -30.5t-2.5 -19t-0.5 -16.5q0 -34 11.5 -59.5t31 -43t45.5 -26t55 -8.5q33 0 63.5 10t56 31t44 54.5
t28.5 80.5q5 26 9.5 48.5t9.5 42.5h-165l11 51h220q-6 -28 -13 -62.5t-17 -79.5q-23 -107 -83 -167.5t-171 -60.5q-39 0 -73.5 12.5t-60.5 36t-41.5 57.5t-15.5 76q0 9 0.5 17.5t2.5 21t6 31.5t10.5 50.5t16.5 77.5t24 112q22 106 82.5 167t171.5 61q39 0 73.5 -12.5
t60.5 -36t41.5 -57.5t15.5 -76q0 -8 -0.5 -15.5t-1.5 -12.5h-54z" />
    <glyph glyph-name="H" unicode="H" 
d="M564 700h55l-149 -700h-55l70 329h-332l-70 -329h-55l149 700h55l-68 -320h332z" />
    <glyph glyph-name="I" unicode="I" 
d="M415 648l-127 -596h166l-11 -52h-387l11 52h166l127 596h-166l11 52h387l-11 -52h-166z" />
    <glyph glyph-name="J" unicode="J" 
d="M117 200q-1 -5 -1 -10.5v-10.5q0 -34 11.5 -59.5t31 -43t45.5 -26t55 -8.5q33 0 63.5 10t55.5 31t44 54.5t29 80.5l91 430h-332l12 52h387l-103 -482q-23 -107 -83 -167.5t-171 -60.5q-39 0 -73.5 12.5t-60.5 36t-41.5 57.5t-15.5 76q0 8 0.5 16.5t1.5 11.5h54z" />
    <glyph glyph-name="K" unicode="K" 
d="M83 0h-55l149 700h55l-86 -406l432 406h74l-308 -289l185 -411h-58l-168 372l-176 -166z" />
    <glyph glyph-name="L" unicode="L" 
d="M139 52h332l-12 -52h-387l149 700h55z" />
    <glyph glyph-name="M" unicode="M" 
d="M316 188h-54l-59 383l-121 -571h-54l149 700h55l68 -444l264 444h55l-149 -700h-54l117 553z" />
    <glyph glyph-name="N" unicode="N" 
d="M470 0h-55l-204 605l-128 -605h-55l149 700h55l204 -605l128 605h55z" />
    <glyph glyph-name="O" unicode="O" 
d="M516 218q-23 -107 -83 -167.5t-171 -60.5q-39 0 -73.5 12.5t-60.5 36t-41.5 57.5t-15.5 76q0 9 0.5 17.5t2.5 21t6 31.5t10.5 50.5t16.5 77.5t24 112q22 106 82.5 167t171.5 61q39 0 73.5 -12.5t60.5 -36t41.5 -57.5t15.5 -76q0 -10 -0.5 -18t-2.5 -20.5t-6 -31.5
t-10.5 -50.5t-16.5 -77.5t-24 -112zM186 482q-14 -66 -23.5 -111.5t-16.5 -76t-11 -49.5t-6 -30.5t-2.5 -19t-0.5 -16.5q0 -34 11.5 -59.5t31 -43t45.5 -26t55 -8.5q33 0 63.5 10t56 31t44 54.5t28.5 80.5q14 66 23.5 111.5t16.5 76t11 49.5t6 30.5t2.5 19t0.5 16.5
q0 34 -11.5 59.5t-31 43t-45.5 26t-55 8.5q-33 0 -63.5 -10t-56 -31t-44 -54.5t-28.5 -80.5z" />
    <glyph glyph-name="P" unicode="P" 
d="M175 294l-62 -294h-55l149 700h206q48 0 83 -15t58 -40.5t34.5 -58t11.5 -67.5q0 -37 -14 -77t-43 -73t-74.5 -54t-108.5 -21h-185zM367 346q41 0 74 14.5t56 38.5t35.5 54t12.5 61q0 23 -6.5 47t-23 43.5t-44.5 31.5t-70 12h-150l-64 -302h180z" />
    <glyph glyph-name="Q" unicode="Q" 
d="M516 218q-11 -51 -29.5 -92t-47.5 -70l54 -69l-39 -32l-54 70q-56 -35 -138 -35q-39 0 -73.5 12.5t-60.5 36t-41.5 57.5t-15.5 76q0 9 0.5 17.5t2.5 21t6 31.5t10.5 50.5t16.5 77.5t24 112q22 106 82.5 167t171.5 61q39 0 73.5 -12.5t60.5 -36t41.5 -57.5t15.5 -76
q0 -10 -0.5 -18t-2.5 -20.5t-6 -31.5t-10.5 -50.5t-16.5 -77.5t-24 -112zM170 404l236 -305q19 21 33 50.5t22 68.5q14 66 23.5 111.5t16.5 76t11 49.5t6 30.5t2.5 19t0.5 16.5q0 34 -11.5 59.5t-31 43t-45.5 26t-55 8.5q-33 0 -63.5 -10t-56 -31t-44 -54.5t-28.5 -80.5z
M269 42q55 0 98 25l-211 273q-10 -47 -16 -74t-9 -43t-4 -25t-1 -19q0 -34 11.5 -59.5t31 -43t45.5 -26t55 -8.5z" />
    <glyph glyph-name="R" unicode="R" 
d="M173 329l-70 -329h-55l149 700h226q39 0 70 -12t53 -33t33.5 -49.5t11.5 -61.5q0 -50 -17 -88.5t-46 -65.5t-68 -42.5t-83 -18.5l124 -329h-58l-123 329h-147zM367 380q36 1 67 13t53.5 32.5t35.5 49t13 63.5q0 51 -32.5 80.5t-92.5 29.5h-170l-57 -268h183z" />
    <glyph glyph-name="S" unicode="S" 
d="M492 523v4q0 32 -11.5 56.5t-30 41t-42.5 25t-49 8.5q-73 0 -114.5 -38t-41.5 -100q0 -42 17.5 -75.5t63.5 -50.5l104 -39q54 -20 82.5 -63.5t28.5 -97.5q0 -41 -13 -78t-39.5 -65t-68 -44.5t-98.5 -16.5q-39 0 -76.5 11.5t-67 35t-47 59.5t-17.5 84v10t1 10h55
q-1 -5 -1 -8.5v-8.5q0 -40 14.5 -67t37.5 -43.5t52 -23.5t58 -7q31 0 59.5 9.5t49.5 27.5t33.5 45.5t12.5 63.5q0 35 -18.5 68t-59.5 48l-104 39q-31 12 -52.5 30t-35 40t-20 47t-6.5 51q0 49 15.5 86t44 62t67.5 38t87 13q39 0 72.5 -13.5t59 -37t40 -55.5t14.5 -70v-4.5
t-1 -6.5h-55z" />
    <glyph glyph-name="T" unicode="T" 
d="M276 0h-55l138 648h-194l11 52h443l-11 -52h-194z" />
    <glyph glyph-name="U" unicode="U" 
d="M126 179q0 -34 11.5 -59.5t31 -43t45.5 -26t55 -8.5q33 0 63.5 10t55.5 31t44 54.5t29 80.5l103 482h55l-103 -482q-23 -107 -83 -167.5t-171 -60.5q-39 0 -73.5 12.5t-61 36t-42 57.5t-15.5 76q0 9 1 18.5t4.5 28t10 50.5t18.5 87.5t30 139t44 204.5h55
q-26 -120 -44 -203t-29.5 -138t-18.5 -86.5t-10 -49.5t-4 -26.5t-1 -17.5z" />
    <glyph glyph-name="V" unicode="V" 
d="M601 700h60l-387 -700h-50l-89 700h53l77 -608z" />
    <glyph glyph-name="W" unicode="W" 
d="M406 121l202 579h54l-249 -700h-49l-6 499l-222 -499h-51l49 700h53l-41 -569l208 469h46z" />
    <glyph glyph-name="X" unicode="X" 
d="M318 313l-260 -313h-67l300 362l-137 338h57l119 -294l244 294h68l-286 -344l145 -356h-57z" />
    <glyph glyph-name="Y" unicode="Y" 
d="M339 291l-62 -291h-55l62 291l-149 409h56l129 -350l275 350h67z" />
    <glyph glyph-name="Z" unicode="Z" 
d="M21 0l11 52l500 596h-369l11 52h437l-11 -52l-500 -596h378l-11 -52h-446z" />
    <glyph glyph-name="bracketleft" unicode="[" 
d="M354 700h225l-9 -42h-182l-151 -708h182l-9 -42h-225z" />
    <glyph glyph-name="backslash" unicode="\" 
d="M100 705l472 -684l-37 -26l-472 684z" />
    <glyph glyph-name="bracketright" unicode="]" 
d="M273 -92h-225l9 42h182l151 708h-182l9 42h225z" />
    <glyph glyph-name="asciicircum" unicode="^" 
d="M334 642l-239 -239l-31 32l270 270l270 -270l-31 -32z" />
    <glyph glyph-name="underscore" unicode="_" 
d="M27 -114l9 45h396l-9 -45h-396z" />
    <glyph glyph-name="grave" unicode="`" 
d="M247 657l10 48l264 -72l-10 -48z" />
    <glyph glyph-name="a" unicode="a" 
d="M123 360q26 90 85 130t139 40q28 0 58 -8.5t54.5 -27.5t40 -48.5t15.5 -71.5q0 -11 -0.5 -20t-4 -27t-10.5 -50t-19 -90l-40 -187h-53l15 66q-24 -34 -65.5 -55t-101.5 -21q-37 0 -67 11t-51.5 30t-33 44.5t-11.5 53.5q0 66 32 105t93 56q25 7 56 12t64.5 8t69 5t68.5 4
q5 20 6 29.5t1 19.5q0 52 -31.5 82t-93.5 30q-54 0 -98 -31.5t-64 -88.5h-53zM446 271q-87 -4 -149.5 -11.5t-94.5 -18.5q-40 -14 -58 -43.5t-18 -64.5q0 -37 28.5 -65t92.5 -28q34 0 64.5 11t54 31t40 48t23.5 62z" />
    <glyph glyph-name="b" unicode="b" 
d="M348 480q-60 0 -107 -38.5t-62 -108.5q-12 -56 -19 -88t-10.5 -49.5t-4.5 -26t-1 -17.5q0 -52 31.5 -82t93.5 -30q60 0 107 38.5t62 108.5q12 56 19 88t10.5 49.5t4.5 26t1 17.5q0 52 -31.5 82t-93.5 30zM205 457q20 30 58.5 51.5t93.5 21.5q28 0 58 -8.5t54.5 -27.5
t40 -48.5t15.5 -71.5q0 -11 -0.5 -20t-4 -27t-10.5 -50t-19 -90q-23 -105 -84 -151t-147 -46q-29 0 -52 8t-40.5 20t-28.5 26.5t-16 28.5l-15 -73h-53l149 700h53z" />
    <glyph glyph-name="c" unicode="c" 
d="M524 360h-52v8q0 52 -31.5 82t-93.5 30q-60 0 -107 -38.5t-62 -108.5q-12 -56 -19 -88t-10.5 -49.5t-4.5 -26t-1 -17.5q0 -52 31.5 -82t93.5 -30q54 0 98 31.5t64 88.5h53q-26 -90 -85 -130t-139 -40q-29 0 -58.5 8.5t-54 27.5t-40 48.5t-15.5 71.5q0 11 0.5 20t4 27
t10.5 50t19 90q22 105 83.5 151t147.5 46q28 0 58 -8.5t54.5 -27.5t40 -48.5t15.5 -71.5v-14z" />
    <glyph glyph-name="d" unicode="d" 
d="M261 40q60 0 107 38.5t62 108.5q12 56 19 88t10.5 49.5t4.5 26t1 17.5q0 52 -31.5 82t-93.5 30q-60 0 -107 -38.5t-62 -108.5q-12 -56 -19 -88t-10.5 -49.5t-4.5 -26t-1 -17.5q0 -52 31.5 -82t93.5 -30zM404 63q-20 -30 -58.5 -51.5t-93.5 -21.5q-29 0 -58.5 8.5
t-54 27.5t-40 48.5t-15.5 71.5q0 11 0.5 20t4 27t10.5 50t19 90q22 105 83.5 151t147.5 46q29 0 52 -8t40.5 -20t28.5 -27t16 -28l53 253h53l-149 -700h-53z" />
    <glyph glyph-name="e" unicode="e" 
d="M159 253q-6 -27 -9.5 -43.5t-5.5 -27t-2.5 -17t-0.5 -13.5q0 -52 31.5 -82t93.5 -30q54 0 97.5 31.5t63.5 88.5h54q-26 -90 -85 -130t-139 -40q-29 0 -58.5 8.5t-54 27.5t-40 48.5t-15.5 71.5q0 11 0.5 20t4 27t10.5 50t19 90q22 105 83.5 151t147.5 46q28 0 58 -8.5
t54.5 -27.5t40 -48.5t15.5 -71.5q0 -9 -0.5 -16.5t-2.5 -19.5t-6 -31.5t-11 -53.5h-343zM460 303l5 25t3 17t1.5 12t0.5 11q0 52 -31.5 82t-93.5 30q-35 0 -64.5 -12.5t-52.5 -35.5t-38 -55.5t-20 -73.5h290z" />
    <glyph glyph-name="f" unicode="f" 
d="M142 516h147l17 81q5 25 11.5 44t20 32t36.5 20t61 7h163l-11 -50h-163q-32 0 -45.5 -12.5t-19.5 -40.5l-17 -81h217l-11 -50h-217l-99 -466h-53l99 466h-147z" />
    <glyph glyph-name="g" unicode="g" 
d="M98 -32q0 -52 31.5 -82t93.5 -30q60 0 107 38.5t62 108.5l16 74q-20 -30 -58.5 -51.5t-93.5 -21.5q-29 0 -58.5 8.5t-54 27.5t-40 48.5t-15.5 71.5q0 10 1.5 22t5 30.5t9.5 47.5t15 73q22 105 83.5 151t147.5 46q29 0 52 -8t40.5 -20t28.5 -27t16 -28l14 69h53l-109 -513
q-23 -105 -84 -151t-147 -46q-29 0 -58.5 8.5t-54 27.5t-40 48.5t-15.5 71.5v14h52v-8zM265 54q60 0 106 38.5t63 108.5q10 42 16.5 71.5t10 49t4.5 30.5t1 16q0 52 -31.5 82t-93.5 30q-60 0 -107 -38.5t-62 -108.5q-8 -38 -14 -65.5t-10 -47t-6 -32.5t-2 -22
q0 -52 31.5 -82t93.5 -30z" />
    <glyph glyph-name="h" unicode="h" 
d="M354 530q28 0 58 -8.5t54.5 -27.5t40 -48.5t15.5 -71.5q0 -11 -0.5 -20t-4 -27t-10.5 -50t-19 -90l-40 -187h-53l40 187q12 56 19 88t10.5 49.5t4.5 26t1 17.5q0 52 -31.5 82t-93.5 30q-60 0 -107 -38.5t-62 -108.5l-71 -333h-53l149 700h53l-52 -243q20 30 58.5 51.5
t93.5 21.5z" />
    <glyph glyph-name="i" unicode="i" 
d="M203 516h185l-99 -466h182l-11 -50h-417l11 50h182l88 416h-132zM339 700h98l-21 -98h-98z" />
    <glyph glyph-name="j" unicode="j" 
d="M325 -81q-5 -25 -11.5 -44t-20 -32t-36.5 -20t-61 -7h-211l11 50h211q32 0 45.5 12.5t19.5 40.5l116 547h-217l11 50h270zM403 700h98l-20 -98h-98z" />
    <glyph glyph-name="k" unicode="k" 
d="M186 252l299 264h73l-231 -204l146 -312h-56l-130 277l-118 -104l-37 -173h-53l149 700h53z" />
    <glyph glyph-name="l" unicode="l" 
d="M239 700h185l-138 -650h182l-11 -50h-417l11 50h182l127 600h-132z" />
    <glyph glyph-name="m" unicode="m" 
d="M73 0h-53l110 516h53l-6 -29q14 22 36.5 32.5t48.5 10.5q29 0 51 -14t34 -40q14 23 39.5 38.5t68.5 15.5q52 0 81.5 -30.5t29.5 -75.5q0 -5 -0.5 -10.5t-3 -19.5t-8 -39.5t-15 -70.5t-24.5 -114.5t-36 -169.5h-53q21 100 36 169t24.5 114t14.5 70t7.5 38.5t3 18t0.5 9.5
q0 35 -20 48t-44 13q-29 0 -53.5 -19t-35.5 -70l-83 -391h-53q21 100 36 169t24.5 114t14.5 70t7.5 38.5t3 18t0.5 9.5q0 35 -20 48t-44 13q-29 0 -53.5 -19t-35.5 -70z" />
    <glyph glyph-name="n" unicode="n" 
d="M354 530q28 0 58 -8.5t54.5 -27.5t40 -48.5t15.5 -71.5q0 -11 -0.5 -20t-4 -27t-10.5 -50t-19 -90l-40 -187h-53l40 187q12 56 19 88t10.5 49.5t4.5 26t1 17.5q0 52 -31.5 82t-93.5 30q-60 0 -107 -38.5t-62 -108.5l-71 -333h-53l110 516h53l-13 -59q20 30 58.5 51.5
t93.5 21.5z" />
    <glyph glyph-name="o" unicode="o" 
d="M175 333q-12 -56 -19 -88t-10.5 -49.5t-4.5 -26t-1 -17.5q0 -52 31.5 -82t93.5 -30q60 0 107 38.5t62 108.5q12 56 19 88t10.5 49.5t4.5 26t1 17.5q0 52 -31.5 82t-93.5 30q-60 0 -107 -38.5t-62 -108.5zM487 187q-23 -105 -84 -151t-147 -46q-29 0 -58.5 8.5t-54 27.5
t-40 48.5t-15.5 71.5q0 11 0.5 20t4 27t10.5 50t19 90q22 105 83.5 151t147.5 46q28 0 58 -8.5t54.5 -27.5t40 -48.5t15.5 -71.5q0 -11 -0.5 -20t-4 -27t-10.5 -50t-19 -90z" />
    <glyph glyph-name="p" unicode="p" 
d="M348 480q-60 0 -107 -38.5t-62 -108.5q-12 -56 -19 -88t-10.5 -49.5t-4.5 -26t-1 -17.5q0 -52 31.5 -82t93.5 -30q60 0 107 38.5t62 108.5q12 56 19 88t10.5 49.5t4.5 26t1 17.5q0 52 -31.5 82t-93.5 30zM205 457q20 30 58.5 51.5t93.5 21.5q28 0 58 -8.5t54.5 -27.5
t40 -48.5t15.5 -71.5q0 -11 -0.5 -20t-4 -27t-10.5 -50t-19 -90q-23 -105 -84 -151t-147 -46q-29 0 -52 8t-40.5 20t-28.5 26.5t-16 28.5l-54 -257h-53l149 700h53z" />
    <glyph glyph-name="q" unicode="q" 
d="M261 40q60 0 107 38.5t62 108.5q12 56 19 88t10.5 49.5t4.5 26t1 17.5q0 52 -31.5 82t-93.5 30q-60 0 -107 -38.5t-62 -108.5q-12 -56 -19 -88t-10.5 -49.5t-4.5 -26t-1 -17.5q0 -52 31.5 -82t93.5 -30zM404 63q-20 -30 -58.5 -51.5t-93.5 -21.5q-29 0 -58.5 8.5
t-54 27.5t-40 48.5t-15.5 71.5q0 11 0.5 20t4 27t10.5 50t19 90q22 105 83.5 151t147.5 46q29 0 52 -8t40.5 -20t28.5 -27t16 -28l14 69h53l-149 -700h-53z" />
    <glyph glyph-name="r" unicode="r" 
d="M165 466l11 50h167l-14 -64q20 30 58.5 51.5t93.5 21.5h114l-11 -50h-112q-60 0 -107 -38.5t-62 -108.5l-59 -278h201l-11 -50h-417l11 50h163l88 416h-114z" />
    <glyph glyph-name="s" unicode="s" 
d="M455 368v8q0 27 -11 46.5t-29.5 32t-42 19t-47.5 6.5t-47 -6t-41.5 -18t-29.5 -29.5t-11 -39.5q0 -36 19 -54.5t61 -31.5l93 -28q48 -14 77 -46t29 -79q0 -81 -54.5 -119.5t-144.5 -38.5q-36 0 -70 9.5t-60.5 29t-42.5 49t-16 70.5v13h52v-11q0 -29 11.5 -49.5t31.5 -34
t46.5 -20t56.5 -6.5q26 0 50.5 6t44 18.5t31.5 31.5t12 45q0 35 -21.5 55t-53.5 29l-100 30q-46 11 -75 45t-29 81q0 37 15.5 65t41 47t57.5 28t66 9q33 0 66 -9t59 -27.5t42 -46.5t16 -66v-13h-52z" />
    <glyph glyph-name="t" unicode="t" 
d="M137 466l11 50h147l25 117h53l-25 -117h217l-11 -50h-217q-18 -85 -31 -146t-22 -103t-14.5 -67.5t-8 -40.5t-3.5 -21.5t-1 -9.5q0 -15 10 -21.5t26 -6.5h173l-11 -50h-159q-47 0 -69 20.5t-22 55.5q0 9 3.5 28.5t12 62t24 114.5t39.5 185h-147z" />
    <glyph glyph-name="u" unicode="u" 
d="M258 -10q-29 0 -58.5 9t-54 28t-40 48.5t-15.5 70.5q0 10 1 20.5t4.5 29.5t10 50.5t17.5 82.5l40 187h53l-40 -187q-11 -49 -17.5 -79t-10 -49t-5 -29.5t-1.5 -19.5q0 -51 31 -81.5t91 -30.5q28 0 54.5 10t48.5 28.5t38 46t24 62.5l70 329h53l-110 -516h-53l14 63
q-8 -13 -22.5 -26t-33 -23.5t-41.5 -17t-48 -6.5z" />
    <glyph glyph-name="v" unicode="v" 
d="M514 516h60l-295 -516h-58l-77 516h52l66 -444z" />
    <glyph glyph-name="w" unicode="w" 
d="M410 97l150 419h53l-192 -516h-46l-42 368l-208 -368h-46l26 516h52l-25 -412l184 332h52z" />
    <glyph glyph-name="x" unicode="x" 
d="M495 516h65l-225 -257l117 -259h-57l-99 221l-191 -221h-65l231 264l-115 252h57l96 -214z" />
    <glyph glyph-name="y" unicode="y" 
d="M144 516h52l66 -444l252 444h60l-342 -597q-12 -22 -24 -40.5t-26.5 -32.5t-34 -22t-47.5 -8h-42l11 50h43q26 0 39.5 17t27.5 42l42 74z" />
    <glyph glyph-name="z" unicode="z" 
d="M134 50h320l-11 -50h-389l11 50l400 416h-307l11 50h376l-11 -50z" />
    <glyph glyph-name="braceleft" unicode="{" 
d="M256 247q0 18 -11.5 27t-42.5 9h-10l9 42h10q40 0 55 15t22 46l45 211q5 25 13 44t21.5 32t35 20t54.5 7h123l-9 -42h-119q-36 0 -52.5 -16t-24.5 -51l-44 -205q-6 -28 -16 -51.5t-34 -34.5q11 -8 14.5 -18.5t3.5 -26.5q0 -9 -4 -30.5t-9.5 -49.5t-12 -58t-12 -57
t-9.5 -47t-4 -27q0 -36 47 -36h125l-9 -42h-125q-44 0 -62.5 21.5t-18.5 53.5q0 8 4 29t9.5 48t12 57t12 56.5t9.5 46.5t4 27z" />
    <glyph glyph-name="bar" unicode="|" 
d="M282 700h43v-800h-43v800z" />
    <glyph glyph-name="braceright" unicode="}" 
d="M372 361q0 -18 11.5 -27t42.5 -9h10l-9 -42h-10q-40 0 -55 -15t-22 -46l-45 -211q-5 -25 -13 -44t-21.5 -32t-35 -20t-54.5 -7h-123l9 42h119q36 0 52.5 16t24.5 51l44 205q6 28 16 51.5t34 34.5q-11 8 -14.5 18.5t-3.5 26.5q0 9 4 30.5t9.5 49.5t12 58t12 57t9.5 47
t4 27q0 36 -47 36h-125l9 42h125q44 0 62.5 -21.5t18.5 -53.5q0 -8 -4 -29t-9.5 -48t-12 -57t-12 -56.5t-9.5 -46.5t-4 -27z" />
    <glyph glyph-name="asciitilde" unicode="~" 
d="M354 218l-102 73l-135 -73l-21 38l159 86l102 -73l135 73l21 -38z" />
    <glyph glyph-name="uni00A0" unicode="&#xa0;" 
 />
    <glyph glyph-name="exclamdown" unicode="&#xa1;" 
d="M183 -184l104 490h53l-104 -490h-53zM382 432h-84l18 84h84z" />
    <glyph glyph-name="cent" unicode="&#xa2;" 
d="M229 -8q-26 4 -50.5 14.5t-44 29.5t-31.5 46t-12 64q0 11 0.5 20t4 27t10.5 50t19 90q22 101 79.5 147.5t139.5 49.5l19 90h43l-20 -92q25 -4 50 -15t44.5 -30t31.5 -46t12 -63v-14h-52v8q0 52 -31.5 82t-93.5 30q-60 0 -107 -38.5t-62 -108.5q-12 -56 -19 -88
t-10.5 -49.5t-4.5 -26t-1 -17.5q0 -52 31.5 -82t93.5 -30q54 0 98 31.5t64 88.5h53q-26 -87 -80.5 -126.5t-130.5 -42.5l-19 -91h-43z" />
    <glyph glyph-name="sterling" unicode="&#xa3;" 
d="M537 508q2 9 3 20t1 18q0 60 -34.5 87t-92.5 27q-59 0 -104 -38.5t-60 -108.5l-31 -141h290l-9 -42h-290l-60 -280h344l-11 -50h-459l10 50h63l60 280h-64l9 42h64l31 141q12 54 33 91.5t50.5 61t65.5 34t77 10.5q28 0 58 -8.5t55 -27t41 -48t16 -71.5q0 -9 -1 -21
t-3 -26h-52z" />
    <glyph glyph-name="currency" unicode="&#xa4;" 
d="M496 134q-35 -30 -79.5 -47t-95.5 -17t-95.5 17t-79.5 47l-84 -84l-31 30l84 85q-30 35 -47 79.5t-17 95.5t17 95.5t47 79.5l-84 85l31 30l84 -85q35 31 79.5 48t95.5 17t95.5 -17t79.5 -48l84 85l31 -30l-85 -85q31 -35 48 -79.5t17 -95.5t-17 -95.5t-48 -79.5l85 -85
l-31 -30zM102 340q0 -45 17 -85t47 -70t70 -47t85 -17t85 17t70 47t47 70t17 85t-17 85t-47 70t-70 47t-85 17t-85 -17t-70 -47t-47 -70t-17 -85z" />
    <glyph glyph-name="yen" unicode="&#xa5;" 
d="M268 334l-134 366h54l129 -352l280 352h65l-291 -366h146l-9 -43h-171l-22 -102h171l-9 -43h-171l-31 -146h-53l31 146h-171l9 43h171l22 102h-171l9 43h146z" />
    <glyph glyph-name="brokenbar" unicode="&#xa6;" 
d="M283 239h43v-339h-43v339zM283 700h43v-339h-43v339z" />
    <glyph glyph-name="section" unicode="&#xa7;" 
d="M201 120q-16 6 -35 16.5t-35 26.5t-27 38.5t-11 52.5q0 72 39 111t102 54q-21 20 -34.5 50t-13.5 66q0 40 14 72.5t39.5 55t61 35t77.5 12.5q37 0 68.5 -11t53.5 -31t34.5 -47t12.5 -59v-5t-1 -9h-45v8q0 25 -9.5 45.5t-27 35.5t-40.5 23t-50 8q-28 0 -54 -8.5t-45.5 -25
t-31 -40t-11.5 -53.5q0 -35 18 -64.5t47 -40.5l109 -40q16 -6 35 -16.5t35 -26.5t27 -38.5t11 -52.5q0 -72 -39.5 -111t-102.5 -55q21 -20 35 -49.5t14 -65.5q0 -40 -14 -72.5t-39.5 -55t-61 -35t-77.5 -12.5q-38 0 -69 11t-53 31t-34.5 47t-12.5 59v9.5t2 14.5h45l-1 -18
q0 -25 9.5 -45.5t27 -35.5t40.5 -23t50 -8q28 0 54 8.5t45.5 25t31 40t11.5 53.5q0 35 -18 64.5t-47 40.5zM302 384q-30 0 -59.5 -8t-52.5 -23.5t-37 -37.5t-14 -51q0 -38 23 -63.5t58 -37.5l84 -31q30 0 59.5 8t53 23.5t37.5 37.5t14 51q0 38 -23 63.5t-58 37.5z" />
    <glyph glyph-name="dieresis" unicode="&#xa8;" 
d="M236 683h76l-17 -76h-76zM472 683h76l-17 -76h-76z" />
    <glyph glyph-name="copyright" unicode="&#xa9;" 
d="M544 451q0 48 -14.5 88t-43 68.5t-69.5 44.5t-94 16t-94 -16t-69.5 -44.5t-43 -68.5t-14.5 -88v-202q0 -48 14.5 -88t43 -68.5t69.5 -44.5t94 -16t94 16t69.5 44.5t43 68.5t14.5 88v202zM587 249q0 -58 -17.5 -106t-51.5 -82t-83 -52.5t-112 -18.5t-112 18.5t-83 52.5
t-51.5 82t-17.5 106v202q0 58 17.5 106t51.5 82t83 52.5t112 18.5t112 -18.5t83 -52.5t51.5 -82t17.5 -106v-202zM323 125q-62 0 -101 39.5t-39 108.5v153q0 69 39 108.5t101 39.5q59 0 96.5 -35.5t42.5 -98.5h-43q-4 46 -31 69t-65 23q-41 0 -69 -26.5t-28 -79.5v-153
q0 -54 28 -80t69 -26q38 0 65 23t31 69h43q-5 -63 -42.5 -98.5t-96.5 -35.5z" />
    <glyph glyph-name="ordfeminine" unicode="&#xaa;" 
d="M303 294q-29 0 -52 8.5t-39.5 23.5t-25.5 34.5t-9 40.5q0 51 24.5 81t72.5 44q38 10 91.5 15t105.5 7q3 15 4 22.5t1 15.5q0 40 -24.5 62t-69.5 22q-42 0 -75 -23.5t-48 -67.5h-44q20 70 65.5 101t108.5 31q22 0 45.5 -7t42 -21.5t30.5 -37t12 -54.5q0 -9 -1 -17
t-3.5 -22.5t-8 -39t-14.5 -65.5l-31 -145h-42l11 50q-18 -26 -50 -42t-77 -16zM312 335q52 0 89.5 31t48.5 84l13 59q-67 -3 -113.5 -8.5t-72.5 -14.5q-30 -11 -43.5 -32.5t-13.5 -48.5q0 -28 21.5 -49t70.5 -21zM131 207l10 45h310l-10 -45h-310z" />
    <glyph glyph-name="guillemotleft" unicode="&#xab;" 
d="M64 258l254 210l29 -34l-221 -182l137 -176l-34 -28zM289 258l254 210l29 -34l-221 -182l137 -176l-34 -28z" />
    <glyph glyph-name="logicalnot" unicode="&#xac;" 
d="M111 303h396v-221h-45v176h-351v45z" />
    <glyph glyph-name="uni00AD" unicode="&#xad;" 
d="M155 258l9 45h290l-9 -45h-290z" />
    <glyph glyph-name="registered" unicode="&#xae;" 
d="M587 249q0 -58 -17.5 -106t-51.5 -82t-83 -52.5t-112 -18.5t-112 18.5t-83 52.5t-51.5 82t-17.5 106v202q0 58 17.5 106t51.5 82t83 52.5t112 18.5t112 -18.5t83 -52.5t51.5 -82t17.5 -106v-202zM544 451q0 48 -14.5 88t-43 68.5t-69.5 44.5t-94 16t-94 -16t-69.5 -44.5
t-43 -68.5t-14.5 -88v-202q0 -48 14.5 -88t43 -68.5t69.5 -44.5t94 -16t94 16t69.5 44.5t43 68.5t14.5 88v202zM435 131l-118 200h-76v-200h-43v437h149q32 0 55 -10t38 -26.5t22.5 -38t7.5 -44.5q0 -42 -25 -76.5t-79 -40.5l119 -201h-50zM241 373h106q36 0 58 20.5
t22 55.5t-22 55.5t-58 20.5h-106v-152z" />
    <glyph glyph-name="macron" unicode="&#xaf;" 
d="M222 620l11 50h312l-11 -50h-312z" />
    <glyph glyph-name="degree" unicode="&#xb0;" 
d="M212 549q0 32 12.5 60.5t33.5 49.5t49.5 33.5t60.5 12.5t60.5 -12.5t49.5 -33.5t33.5 -49.5t12.5 -60.5t-12.5 -60.5t-33.5 -49.5t-49.5 -33.5t-60.5 -12.5t-60.5 12.5t-49.5 33.5t-33.5 49.5t-12.5 60.5zM255 549q0 -24 9 -44.5t24 -36t35.5 -24.5t44.5 -9t44.5 9
t35.5 24.5t24 36t9 44.5t-9 44.5t-24 36t-35.5 24.5t-44.5 9t-44.5 -9t-35.5 -24.5t-24 -36t-9 -44.5z" />
    <glyph glyph-name="plusminus" unicode="&#xb1;" 
d="M287 350h-176v45h176v121h45v-121h175v-45h-175v-121h-45v121zM111 155v45h396v-45h-396z" />
    <glyph glyph-name="twosuperior" unicode="&#xb2;" 
d="M310 609q-30 28 -30 68q0 28 9.5 53t26.5 43.5t41 29t54 10.5q23 0 42 -8t32.5 -21.5t21 -31t7.5 -35.5q0 -40 -18.5 -70t-47.5 -56l-162 -149h174l-9 -41h-234l9 41l193 178q22 20 37.5 42.5t15.5 48.5q0 25 -16.5 43t-48.5 18q-20 0 -36 -8.5t-27 -22t-17 -29t-6 -30.5
q0 -28 19 -45z" />
    <glyph glyph-name="threesuperior" unicode="&#xb3;" 
d="M338 395q-23 0 -42 8t-32.5 21t-21 30.5t-7.5 35.5v11t2 11h41q-2 -10 -2 -17q0 -26 17 -42.5t49 -16.5q19 0 35 8.5t27.5 21t17.5 28t6 30.5q0 24 -15.5 43t-44.5 21l9 40h7q19 0 34.5 8t26 20.5t16 27.5t5.5 30q0 26 -15 42t-47 16q-35 0 -55.5 -23t-25.5 -49h-42
q6 50 39.5 81.5t87.5 31.5q45 0 72 -27.5t27 -64.5q0 -42 -18 -73.5t-50 -47.5q14 -14 22 -32t8 -38q0 -29 -9.5 -53.5t-26.5 -42.5t-41 -28.5t-54 -10.5z" />
    <glyph glyph-name="acute" unicode="&#xb4;" 
d="M246 579l12 54l264 72l-12 -54z" />
    <glyph glyph-name="mu" unicode="&#xb5;" 
d="M259 -10q-46 0 -83 21.5t-52 59.5l-55 -255h-53l148 700h53l-40 -187q-11 -49 -17.5 -79t-10 -49t-5 -29.5t-1.5 -19.5q0 -51 31 -81.5t91 -30.5q28 0 54.5 10t48.5 28.5t38 46t24 62.5l70 329h53l-110 -516h-53l14 63q-8 -13 -22.5 -26t-33 -23.5t-41.5 -17t-48 -6.5z
" />
    <glyph glyph-name="mu" unicode="&#x3bc;" 
d="M259 -10q-46 0 -83 21.5t-52 59.5l-55 -255h-53l148 700h53l-40 -187q-11 -49 -17.5 -79t-10 -49t-5 -29.5t-1.5 -19.5q0 -51 31 -81.5t91 -30.5q28 0 54.5 10t48.5 28.5t38 46t24 62.5l70 329h53l-110 -516h-53l14 63q-8 -13 -22.5 -26t-33 -23.5t-41.5 -17t-48 -6.5z
" />
    <glyph glyph-name="paragraph" unicode="&#xb6;" 
d="M276 300q-36 0 -65.5 14.5t-50.5 38.5t-33 56t-12 67q0 49 18 90t50.5 71t77.5 46.5t100 16.5h206l-167 -787h-43l158 745h-110l-158 -745h-43l82 387h-10z" />
    <glyph glyph-name="periodcentered" unicode="&#xb7;" 
d="M278 332h84l-17 -84h-84z" />
    <glyph glyph-name="cedilla" unicode="&#xb8;" 
d="M210 -134l18 84h50l-29 -134h-134l11 50h84z" />
    <glyph glyph-name="onesuperior" unicode="&#xb9;" 
d="M295 714l113 93h43l-78 -365h106l-9 -41h-254l9 41h105l64 300l-74 -61z" />
    <glyph glyph-name="ordmasculine" unicode="&#xba;" 
d="M325 335q47 0 82.5 29t46.5 83q9 40 14 63.5t8 38t4 22t1 15.5q0 40 -24.5 62t-70.5 22t-81.5 -29t-46.5 -83q-9 -40 -14 -64t-8 -38t-4 -22t-1 -15q0 -40 24.5 -62t69.5 -22zM318 294q-23 0 -46 7t-41.5 21.5t-30.5 37t-12 54.5q0 9 1 17t3.5 22.5t8 39t14.5 65.5
q17 82 64 117.5t114 35.5q22 0 45.5 -7t42 -21.5t30.5 -37t12 -54.5q0 -9 -0.5 -17t-3.5 -22.5t-8 -39t-14 -65.5q-17 -82 -64 -117.5t-115 -35.5zM140 207l10 45h306l-10 -45h-306z" />
    <glyph glyph-name="guillemotright" unicode="&#xbb;" 
d="M319 258l-254 -210l-29 34l221 182l-137 176l34 28zM544 258l-254 -210l-29 34l221 182l-137 176l34 28z" />
    <glyph glyph-name="onequarter" unicode="&#xbc;" 
d="M117 635l79 65h42l-48 -221h69l-9 -40h-178l9 40h67l34 158l-40 -34zM497 531l26 -33l-392 -324l-26 33zM448 0l13 63h-115l9 40l150 160l30 -26l-126 -134h61l11 53h42l-11 -53h27l-9 -40h-27l-13 -63h-42z" />
    <glyph glyph-name="onehalf" unicode="&#xbd;" 
d="M117 635l79 65h42l-48 -221h69l-9 -40h-178l9 40h67l34 158l-40 -34zM497 531l26 -33l-392 -324l-26 33zM379 128q-8 9 -12.5 20.5t-4.5 23.5q0 38 24 65.5t67 27.5q29 0 50.5 -20.5t21.5 -49.5q0 -27 -11.5 -45.5t-34.5 -37.5l-84 -72h99l-9 -40h-162l9 40l116 99
q16 14 26 25t10 28q0 14 -9 23.5t-25 9.5q-21 0 -34 -14.5t-13 -35.5q0 -13 7 -21z" />
    <glyph glyph-name="threequarters" unicode="&#xbe;" 
d="M170 435q-15 0 -28 5.5t-23.5 15t-16.5 22.5t-6 27v4.5t1 6.5h41q-1 -3 -1 -8q0 -14 10 -23.5t26 -9.5q21 0 33 14.5t12 35.5q0 13 -9 22.5t-23 10.5l8 38h4q17 0 27 11t10 29q0 11 -7.5 19.5t-20.5 8.5q-34 0 -37 -34h-41q2 32 22.5 53t58.5 21q26 0 45.5 -18t19.5 -47
q0 -22 -8 -39.5t-24 -28.5q16 -19 16 -43q0 -38 -23 -65.5t-66 -27.5zM497 531l26 -33l-392 -324l-26 33zM448 0l13 63h-115l9 40l150 160l30 -26l-126 -134h61l11 53h42l-11 -53h27l-9 -40h-27l-13 -63h-42z" />
    <glyph glyph-name="questiondown" unicode="&#xbf;" 
d="M281 150q-38 0 -68.5 -15t-52 -39.5t-33.5 -55t-12 -61.5q0 -24 7.5 -46t23.5 -39t40.5 -27t59.5 -10q34 0 62 12.5t49.5 33t35 47t17.5 54.5h51q-5 -41 -22.5 -77t-46 -63t-67 -42.5t-86.5 -15.5q-41 0 -73.5 14t-55 36.5t-34.5 52t-12 60.5q0 46 15 87.5t42.5 73
t67.5 50.5t91 21l18 85h53l-29 -136h-41zM398 432h-84l18 84h84z" />
    <glyph glyph-name="Agrave" unicode="&#xc0;" 
d="M432 218h-266l-120 -218h-59l386 700h50l89 -700h-52zM426 267l-44 343l-189 -343h233zM282 811l10 48l264 -72l-10 -48z" />
    <glyph glyph-name="Aacute" unicode="&#xc1;" 
d="M432 218h-266l-120 -218h-59l386 700h50l89 -700h-52zM426 267l-44 343l-189 -343h233zM281 733l12 54l264 72l-12 -54z" />
    <glyph glyph-name="Acircumflex" unicode="&#xc2;" 
d="M432 218h-266l-120 -218h-59l386 700h50l89 -700h-52zM426 267l-44 343l-189 -343h233zM424 805l-167 -72l13 58l157 68l145 -77l-11 -49z" />
    <glyph glyph-name="Atilde" unicode="&#xc3;" 
d="M432 218h-266l-120 -218h-59l386 700h50l89 -700h-52zM426 267l-44 343l-189 -343h233zM463 737l-91 66l-124 -66l14 63l113 60l91 -66l124 66l-14 -63z" />
    <glyph glyph-name="Adieresis" unicode="&#xc4;" 
d="M432 218h-266l-120 -218h-59l386 700h50l89 -700h-52zM426 267l-44 343l-189 -343h233zM272 837h76l-17 -76h-76zM508 837h76l-17 -76h-76z" />
    <glyph glyph-name="Aring" unicode="&#xc5;" 
d="M298 765q0 24 9 44.5t24.5 36.5t36 25t44.5 9t44.5 -9t36.5 -25t25 -36.5t9 -44.5q0 -43 -28 -75t-70 -38l83 -652h-52l-28 218h-266l-120 -218h-59l367 666q-26 15 -41 41t-15 58zM426 267l-44 343l-189 -343h233zM347 765q0 -27 19 -46.5t46 -19.5t46.5 19.5t19.5 46.5
t-19.5 46.5t-46.5 19.5t-46 -19.5t-19 -46.5z" />
    <glyph glyph-name="AE" unicode="&#xc6;" 
d="M299 52h182l-11 -52h-237l46 218h-113l-120 -218h-59l386 700h246l-11 -52h-182l-57 -268h112l-11 -51h-112zM290 267l60 285l-157 -285h97z" />
    <glyph glyph-name="Ccedilla" unicode="&#xc7;" 
d="M524 500q1 8 1 12v9q0 34 -11.5 59.5t-31 43t-45.5 26t-55 8.5q-33 0 -63.5 -10t-56 -31t-44 -54.5t-28.5 -80.5q-14 -66 -23.5 -111.5t-16.5 -76t-11 -49.5t-6 -30.5t-2.5 -19t-0.5 -16.5q0 -34 11.5 -59.5t31 -43t45.5 -26t55 -8.5q64 0 115 36.5t73 121.5h55
q-12 -49 -33 -88t-51.5 -66t-71.5 -41.5t-94 -14.5q-39 0 -73.5 12.5t-60.5 36t-41.5 57.5t-15.5 76q0 9 0.5 17.5t2.5 21t6 31.5t10.5 50.5t16.5 77.5t24 112q22 106 82.5 167t171.5 61q39 0 73.5 -12.5t60.5 -36t41.5 -57.5t15.5 -76q0 -8 -0.5 -15.5t-1.5 -12.5h-54z
M200 -134l18 84h50l-29 -134h-134l11 50h84z" />
    <glyph glyph-name="Egrave" unicode="&#xc8;" 
d="M131 52h332l-11 -52h-387l149 700h387l-11 -52h-332l-57 -268h262l-11 -51h-262zM291 811l10 48l264 -72l-10 -48z" />
    <glyph glyph-name="Eacute" unicode="&#xc9;" 
d="M131 52h332l-11 -52h-387l149 700h387l-11 -52h-332l-57 -268h262l-11 -51h-262zM290 733l12 54l264 72l-12 -54z" />
    <glyph glyph-name="Ecircumflex" unicode="&#xca;" 
d="M131 52h332l-11 -52h-387l149 700h387l-11 -52h-332l-57 -268h262l-11 -51h-262zM433 805l-167 -72l13 58l157 68l145 -77l-11 -49z" />
    <glyph glyph-name="Edieresis" unicode="&#xcb;" 
d="M131 52h332l-11 -52h-387l149 700h387l-11 -52h-332l-57 -268h262l-11 -51h-262zM280 837h76l-17 -76h-76zM516 837h76l-17 -76h-76z" />
    <glyph glyph-name="Igrave" unicode="&#xcc;" 
d="M415 648l-127 -596h166l-11 -52h-387l11 52h166l127 596h-166l11 52h387l-11 -52h-166zM282 811l10 48l264 -72l-10 -48z" />
    <glyph glyph-name="Iacute" unicode="&#xcd;" 
d="M415 648l-127 -596h166l-11 -52h-387l11 52h166l127 596h-166l11 52h387l-11 -52h-166zM281 733l12 54l264 72l-12 -54z" />
    <glyph glyph-name="Icircumflex" unicode="&#xce;" 
d="M415 648l-127 -596h166l-11 -52h-387l11 52h166l127 596h-166l11 52h387l-11 -52h-166zM424 805l-167 -72l13 58l157 68l145 -77l-11 -49z" />
    <glyph glyph-name="Idieresis" unicode="&#xcf;" 
d="M415 648l-127 -596h166l-11 -52h-387l11 52h166l127 596h-166l11 52h387l-11 -52h-166zM272 837h76l-17 -76h-76zM508 837h76l-17 -76h-76z" />
    <glyph glyph-name="Eth" unicode="&#xd0;" 
d="M45 0l70 328h-70l9 45h70l70 327h206q39 0 73.5 -12.5t60.5 -36t41.5 -57.5t15.5 -76q0 -14 -2.5 -32t-8.5 -49t-17 -81t-28 -128q-12 -53 -32 -95.5t-51 -72t-73.5 -45t-97.5 -15.5h-236zM288 52q33 0 63.5 10t56 31t44 54.5t28.5 80.5q14 66 23.5 110t15.5 72.5
t9.5 44.5t5 25.5t2 15.5t0.5 15q0 34 -11.5 59.5t-31 43t-45.5 26t-55 8.5h-155l-59 -275h166l-9 -45h-166l-59 -276h177z" />
    <glyph glyph-name="Ntilde" unicode="&#xd1;" 
d="M470 0h-55l-204 605l-128 -605h-55l149 700h55l204 -605l128 605h55zM463 737l-91 66l-124 -66l14 63l113 60l91 -66l124 66l-14 -63z" />
    <glyph glyph-name="Ograve" unicode="&#xd2;" 
d="M516 218q-23 -107 -83 -167.5t-171 -60.5q-39 0 -73.5 12.5t-60.5 36t-41.5 57.5t-15.5 76q0 9 0.5 17.5t2.5 21t6 31.5t10.5 50.5t16.5 77.5t24 112q22 106 82.5 167t171.5 61q39 0 73.5 -12.5t60.5 -36t41.5 -57.5t15.5 -76q0 -10 -0.5 -18t-2.5 -20.5t-6 -31.5
t-10.5 -50.5t-16.5 -77.5t-24 -112zM186 482q-14 -66 -23.5 -111.5t-16.5 -76t-11 -49.5t-6 -30.5t-2.5 -19t-0.5 -16.5q0 -34 11.5 -59.5t31 -43t45.5 -26t55 -8.5q33 0 63.5 10t56 31t44 54.5t28.5 80.5q14 66 23.5 111.5t16.5 76t11 49.5t6 30.5t2.5 19t0.5 16.5
q0 34 -11.5 59.5t-31 43t-45.5 26t-55 8.5q-33 0 -63.5 -10t-56 -31t-44 -54.5t-28.5 -80.5zM281 811l10 48l264 -72l-10 -48z" />
    <glyph glyph-name="Oacute" unicode="&#xd3;" 
d="M516 218q-23 -107 -83 -167.5t-171 -60.5q-39 0 -73.5 12.5t-60.5 36t-41.5 57.5t-15.5 76q0 9 0.5 17.5t2.5 21t6 31.5t10.5 50.5t16.5 77.5t24 112q22 106 82.5 167t171.5 61q39 0 73.5 -12.5t60.5 -36t41.5 -57.5t15.5 -76q0 -10 -0.5 -18t-2.5 -20.5t-6 -31.5
t-10.5 -50.5t-16.5 -77.5t-24 -112zM186 482q-14 -66 -23.5 -111.5t-16.5 -76t-11 -49.5t-6 -30.5t-2.5 -19t-0.5 -16.5q0 -34 11.5 -59.5t31 -43t45.5 -26t55 -8.5q33 0 63.5 10t56 31t44 54.5t28.5 80.5q14 66 23.5 111.5t16.5 76t11 49.5t6 30.5t2.5 19t0.5 16.5
q0 34 -11.5 59.5t-31 43t-45.5 26t-55 8.5q-33 0 -63.5 -10t-56 -31t-44 -54.5t-28.5 -80.5zM281 733l12 54l264 72l-12 -54z" />
    <glyph glyph-name="Ocircumflex" unicode="&#xd4;" 
d="M516 218q-23 -107 -83 -167.5t-171 -60.5q-39 0 -73.5 12.5t-60.5 36t-41.5 57.5t-15.5 76q0 9 0.5 17.5t2.5 21t6 31.5t10.5 50.5t16.5 77.5t24 112q22 106 82.5 167t171.5 61q39 0 73.5 -12.5t60.5 -36t41.5 -57.5t15.5 -76q0 -10 -0.5 -18t-2.5 -20.5t-6 -31.5
t-10.5 -50.5t-16.5 -77.5t-24 -112zM186 482q-14 -66 -23.5 -111.5t-16.5 -76t-11 -49.5t-6 -30.5t-2.5 -19t-0.5 -16.5q0 -34 11.5 -59.5t31 -43t45.5 -26t55 -8.5q33 0 63.5 10t56 31t44 54.5t28.5 80.5q14 66 23.5 111.5t16.5 76t11 49.5t6 30.5t2.5 19t0.5 16.5
q0 34 -11.5 59.5t-31 43t-45.5 26t-55 8.5q-33 0 -63.5 -10t-56 -31t-44 -54.5t-28.5 -80.5zM425 805l-167 -72l13 58l157 68l145 -77l-11 -49z" />
    <glyph glyph-name="Otilde" unicode="&#xd5;" 
d="M516 218q-23 -107 -83 -167.5t-171 -60.5q-39 0 -73.5 12.5t-60.5 36t-41.5 57.5t-15.5 76q0 9 0.5 17.5t2.5 21t6 31.5t10.5 50.5t16.5 77.5t24 112q22 106 82.5 167t171.5 61q39 0 73.5 -12.5t60.5 -36t41.5 -57.5t15.5 -76q0 -10 -0.5 -18t-2.5 -20.5t-6 -31.5
t-10.5 -50.5t-16.5 -77.5t-24 -112zM186 482q-14 -66 -23.5 -111.5t-16.5 -76t-11 -49.5t-6 -30.5t-2.5 -19t-0.5 -16.5q0 -34 11.5 -59.5t31 -43t45.5 -26t55 -8.5q33 0 63.5 10t56 31t44 54.5t28.5 80.5q14 66 23.5 111.5t16.5 76t11 49.5t6 30.5t2.5 19t0.5 16.5
q0 34 -11.5 59.5t-31 43t-45.5 26t-55 8.5q-33 0 -63.5 -10t-56 -31t-44 -54.5t-28.5 -80.5zM463 737l-91 66l-124 -66l14 63l113 60l91 -66l124 66l-14 -63z" />
    <glyph glyph-name="Odieresis" unicode="&#xd6;" 
d="M516 218q-23 -107 -83 -167.5t-171 -60.5q-39 0 -73.5 12.5t-60.5 36t-41.5 57.5t-15.5 76q0 9 0.5 17.5t2.5 21t6 31.5t10.5 50.5t16.5 77.5t24 112q22 106 82.5 167t171.5 61q39 0 73.5 -12.5t60.5 -36t41.5 -57.5t15.5 -76q0 -10 -0.5 -18t-2.5 -20.5t-6 -31.5
t-10.5 -50.5t-16.5 -77.5t-24 -112zM186 482q-14 -66 -23.5 -111.5t-16.5 -76t-11 -49.5t-6 -30.5t-2.5 -19t-0.5 -16.5q0 -34 11.5 -59.5t31 -43t45.5 -26t55 -8.5q33 0 63.5 10t56 31t44 54.5t28.5 80.5q14 66 23.5 111.5t16.5 76t11 49.5t6 30.5t2.5 19t0.5 16.5
q0 34 -11.5 59.5t-31 43t-45.5 26t-55 8.5q-33 0 -63.5 -10t-56 -31t-44 -54.5t-28.5 -80.5zM272 837h76l-17 -76h-76zM508 837h76l-17 -76h-76z" />
    <glyph glyph-name="multiply" unicode="&#xd7;" 
d="M341 280l140 -139l-32 -32l-140 139l-139 -139l-32 32l139 139l-139 139l32 32l139 -139l140 139l32 -32z" />
    <glyph glyph-name="Oslash" unicode="&#xd8;" 
d="M516 218q-23 -107 -83 -167.5t-171 -60.5q-45 0 -84.5 16.5t-65.5 47.5l-71 -87l-34 26l81 100q-17 36 -17 79q0 9 0.5 17.5t2.5 21t6 31.5t10.5 50.5t16.5 77.5t24 112q22 106 82.5 167t171.5 61q45 0 84 -16.5t65 -47.5l71 87l35 -26l-81 -100q8 -17 12.5 -37t4.5 -42
q0 -10 -0.5 -18t-2.5 -20.5t-6 -31.5t-10.5 -50.5t-16.5 -77.5t-24 -112zM521 521q0 9 -1 17.5t-3 16.5l-369 -456q19 -29 51 -43t70 -14q33 0 63.5 10t56 31t44 54.5t28.5 80.5q14 66 23.5 111.5t16.5 76t11 49.5t6 30.5t2.5 19t0.5 16.5zM186 482q-14 -66 -23.5 -111.5
t-16.5 -76t-11 -49.5t-6 -30.5t-2.5 -19t-0.5 -16.5q0 -19 3 -35l369 457q-19 29 -50.5 43t-69.5 14q-33 0 -63.5 -10t-56 -31t-44 -54.5t-28.5 -80.5z" />
    <glyph glyph-name="Ugrave" unicode="&#xd9;" 
d="M126 179q0 -34 11.5 -59.5t31 -43t45.5 -26t55 -8.5q33 0 63.5 10t55.5 31t44 54.5t29 80.5l103 482h55l-103 -482q-23 -107 -83 -167.5t-171 -60.5q-39 0 -73.5 12.5t-61 36t-42 57.5t-15.5 76q0 9 1 18.5t4.5 28t10 50.5t18.5 87.5t30 139t44 204.5h55
q-26 -120 -44 -203t-29.5 -138t-18.5 -86.5t-10 -49.5t-4 -26.5t-1 -17.5zM282 811l10 48l264 -72l-10 -48z" />
    <glyph glyph-name="Uacute" unicode="&#xda;" 
d="M126 179q0 -34 11.5 -59.5t31 -43t45.5 -26t55 -8.5q33 0 63.5 10t55.5 31t44 54.5t29 80.5l103 482h55l-103 -482q-23 -107 -83 -167.5t-171 -60.5q-39 0 -73.5 12.5t-61 36t-42 57.5t-15.5 76q0 9 1 18.5t4.5 28t10 50.5t18.5 87.5t30 139t44 204.5h55
q-26 -120 -44 -203t-29.5 -138t-18.5 -86.5t-10 -49.5t-4 -26.5t-1 -17.5zM281 733l12 54l264 72l-12 -54z" />
    <glyph glyph-name="Ucircumflex" unicode="&#xdb;" 
d="M126 179q0 -34 11.5 -59.5t31 -43t45.5 -26t55 -8.5q33 0 63.5 10t55.5 31t44 54.5t29 80.5l103 482h55l-103 -482q-23 -107 -83 -167.5t-171 -60.5q-39 0 -73.5 12.5t-61 36t-42 57.5t-15.5 76q0 9 1 18.5t4.5 28t10 50.5t18.5 87.5t30 139t44 204.5h55
q-26 -120 -44 -203t-29.5 -138t-18.5 -86.5t-10 -49.5t-4 -26.5t-1 -17.5zM425 805l-167 -72l13 58l157 68l145 -77l-11 -49z" />
    <glyph glyph-name="Udieresis" unicode="&#xdc;" 
d="M126 179q0 -34 11.5 -59.5t31 -43t45.5 -26t55 -8.5q33 0 63.5 10t55.5 31t44 54.5t29 80.5l103 482h55l-103 -482q-23 -107 -83 -167.5t-171 -60.5q-39 0 -73.5 12.5t-61 36t-42 57.5t-15.5 76q0 9 1 18.5t4.5 28t10 50.5t18.5 87.5t30 139t44 204.5h55
q-26 -120 -44 -203t-29.5 -138t-18.5 -86.5t-10 -49.5t-4 -26.5t-1 -17.5zM273 837h76l-17 -76h-76zM509 837h76l-17 -76h-76z" />
    <glyph glyph-name="Yacute" unicode="&#xdd;" 
d="M339 291l-62 -291h-55l62 291l-149 409h56l129 -350l275 350h67zM281 733l12 54l264 72l-12 -54z" />
    <glyph glyph-name="Thorn" unicode="&#xde;" 
d="M144 148l-31 -148h-55l149 700h55l-31 -146h151q48 0 83 -15t58 -40.5t34.5 -58t11.5 -67.5q0 -37 -14 -77t-43 -73t-74.5 -54t-108.5 -21h-185zM336 200q41 0 74 14.5t56 38.5t35.5 54t12.5 61q0 23 -6.5 47t-23 43.5t-44.5 31.5t-70 12h-150l-64 -302h180z" />
    <glyph glyph-name="germandbls" unicode="&#xdf;" 
d="M211 597q5 25 11.5 44t20 32t36.5 20t61 7h10l-11 -50h-10q-32 0 -45.5 -12.5t-19.5 -40.5l-17 -81h249l-11 -50l-159 -168q66 -16 102.5 -66t36.5 -119q0 -60 -23.5 -114.5t-64.5 -96.5t-96.5 -66.5t-119.5 -24.5l11 51q45 0 88.5 21t77.5 55t54.5 76.5t20.5 85.5
q0 33 -7.5 61t-25.5 49t-48.5 32.5t-76.5 11.5l11 51l153 161h-183l-99 -466h-53z" />
    <glyph glyph-name="agrave" unicode="&#xe0;" 
d="M123 360q26 90 85 130t139 40q28 0 58 -8.5t54.5 -27.5t40 -48.5t15.5 -71.5q0 -11 -0.5 -20t-4 -27t-10.5 -50t-19 -90l-40 -187h-53l15 66q-24 -34 -65.5 -55t-101.5 -21q-37 0 -67 11t-51.5 30t-33 44.5t-11.5 53.5q0 66 32 105t93 56q25 7 56 12t64.5 8t69 5t68.5 4
q5 20 6 29.5t1 19.5q0 52 -31.5 82t-93.5 30q-54 0 -98 -31.5t-64 -88.5h-53zM446 271q-87 -4 -149.5 -11.5t-94.5 -18.5q-40 -14 -58 -43.5t-18 -64.5q0 -37 28.5 -65t92.5 -28q34 0 64.5 11t54 31t40 48t23.5 62zM247 657l10 48l264 -72l-10 -48z" />
    <glyph glyph-name="aacute" unicode="&#xe1;" 
d="M123 360q26 90 85 130t139 40q28 0 58 -8.5t54.5 -27.5t40 -48.5t15.5 -71.5q0 -11 -0.5 -20t-4 -27t-10.5 -50t-19 -90l-40 -187h-53l15 66q-24 -34 -65.5 -55t-101.5 -21q-37 0 -67 11t-51.5 30t-33 44.5t-11.5 53.5q0 66 32 105t93 56q25 7 56 12t64.5 8t69 5t68.5 4
q5 20 6 29.5t1 19.5q0 52 -31.5 82t-93.5 30q-54 0 -98 -31.5t-64 -88.5h-53zM446 271q-87 -4 -149.5 -11.5t-94.5 -18.5q-40 -14 -58 -43.5t-18 -64.5q0 -37 28.5 -65t92.5 -28q34 0 64.5 11t54 31t40 48t23.5 62zM246 579l12 54l264 72l-12 -54z" />
    <glyph glyph-name="acircumflex" unicode="&#xe2;" 
d="M123 360q26 90 85 130t139 40q28 0 58 -8.5t54.5 -27.5t40 -48.5t15.5 -71.5q0 -11 -0.5 -20t-4 -27t-10.5 -50t-19 -90l-40 -187h-53l15 66q-24 -34 -65.5 -55t-101.5 -21q-37 0 -67 11t-51.5 30t-33 44.5t-11.5 53.5q0 66 32 105t93 56q25 7 56 12t64.5 8t69 5t68.5 4
q5 20 6 29.5t1 19.5q0 52 -31.5 82t-93.5 30q-54 0 -98 -31.5t-64 -88.5h-53zM446 271q-87 -4 -149.5 -11.5t-94.5 -18.5q-40 -14 -58 -43.5t-18 -64.5q0 -37 28.5 -65t92.5 -28q34 0 64.5 11t54 31t40 48t23.5 62zM390 651l-167 -72l13 58l157 68l145 -77l-11 -49z" />
    <glyph glyph-name="atilde" unicode="&#xe3;" 
d="M123 360q26 90 85 130t139 40q28 0 58 -8.5t54.5 -27.5t40 -48.5t15.5 -71.5q0 -11 -0.5 -20t-4 -27t-10.5 -50t-19 -90l-40 -187h-53l15 66q-24 -34 -65.5 -55t-101.5 -21q-37 0 -67 11t-51.5 30t-33 44.5t-11.5 53.5q0 66 32 105t93 56q25 7 56 12t64.5 8t69 5t68.5 4
q5 20 6 29.5t1 19.5q0 52 -31.5 82t-93.5 30q-54 0 -98 -31.5t-64 -88.5h-53zM446 271q-87 -4 -149.5 -11.5t-94.5 -18.5q-40 -14 -58 -43.5t-18 -64.5q0 -37 28.5 -65t92.5 -28q34 0 64.5 11t54 31t40 48t23.5 62zM428 580l-91 66l-124 -66l14 63l113 60l91 -66l124 66
l-14 -63z" />
    <glyph glyph-name="adieresis" unicode="&#xe4;" 
d="M123 360q26 90 85 130t139 40q28 0 58 -8.5t54.5 -27.5t40 -48.5t15.5 -71.5q0 -11 -0.5 -20t-4 -27t-10.5 -50t-19 -90l-40 -187h-53l15 66q-24 -34 -65.5 -55t-101.5 -21q-37 0 -67 11t-51.5 30t-33 44.5t-11.5 53.5q0 66 32 105t93 56q25 7 56 12t64.5 8t69 5t68.5 4
q5 20 6 29.5t1 19.5q0 52 -31.5 82t-93.5 30q-54 0 -98 -31.5t-64 -88.5h-53zM446 271q-87 -4 -149.5 -11.5t-94.5 -18.5q-40 -14 -58 -43.5t-18 -64.5q0 -37 28.5 -65t92.5 -28q34 0 64.5 11t54 31t40 48t23.5 62zM236 683h76l-17 -76h-76zM472 683h76l-17 -76h-76z" />
    <glyph glyph-name="aring" unicode="&#xe5;" 
d="M256 595q0 24 9 44.5t24.5 36.5t36 25t44.5 9t44.5 -9t36.5 -25t25 -36.5t9 -44.5q0 -27 -12 -50t-32 -39q32 -18 53 -50t21 -82q0 -11 -0.5 -20t-4 -27t-10.5 -50t-19 -90l-40 -187h-53l15 66q-24 -34 -65.5 -55t-101.5 -21q-37 0 -67 11t-51.5 30t-33 44.5t-11.5 53.5
q0 66 32 105t93 56q25 7 56 12t64.5 8t69 5t68.5 4q5 20 6 29.5t1 19.5q0 52 -31.5 82t-93.5 30q-54 0 -98 -31.5t-64 -88.5h-53q20 71 61 110t97 53q-25 30 -25 72zM446 271q-87 -4 -149.5 -11.5t-94.5 -18.5q-40 -14 -58 -43.5t-18 -64.5q0 -37 28.5 -65t92.5 -28
q34 0 64.5 11t54 31t40 48t23.5 62zM305 595q0 -27 19 -46t46 -19t46.5 19t19.5 46t-19.5 46.5t-46.5 19.5t-46 -19.5t-19 -46.5z" />
    <glyph glyph-name="ae" unicode="&#xe6;" 
d="M307 415q0 32 -21.5 48.5t-55.5 16.5q-39 0 -64.5 -21.5t-34.5 -66.5q-1 -4 -2 -9t-2 -10.5t-3 -12.5h-54l7 31q7 30 17.5 55.5t28.5 44t45.5 29t68.5 10.5q37 0 63.5 -16.5t39.5 -39.5q18 23 47.5 39.5t76.5 16.5q55 0 88.5 -32t33.5 -79q0 -6 -2.5 -22.5t-7 -39.5
t-9.5 -50t-11 -54h-228q-6 -26 -11 -51l-9 -45t-6.5 -34t-2.5 -18q0 -32 21.5 -48.5t55.5 -16.5q39 0 64.5 21.5t34.5 66.5q1 3 2 8q1 4 2 10t3 14h54l-7 -31q-7 -30 -17.5 -55.5t-28.5 -44t-45.5 -29t-68.5 -10.5q-37 0 -63.5 16.5t-39.5 39.5q-18 -23 -47.5 -39.5
t-76.5 -16.5q-55 0 -88.5 32t-33.5 79q0 8 1 19.5t8 43.5q6 30 16.5 55.5t29 44t46 29t68.5 10.5h97q8 42 14.5 74t6.5 38zM182 253q-39 0 -64.5 -21.5t-34.5 -66.5l-8.5 -42.5t-2.5 -17.5q0 -32 21.5 -48.5t55.5 -16.5q39 0 64.5 21.5t34.5 66.5q4 18 8 38q4 17 9 39.5
t10 47.5h-93zM513 303q8 42 14.5 74t6.5 38q0 32 -21.5 48.5t-55.5 16.5q-39 0 -64.5 -21.5t-34.5 -66.5q-2 -12 -5 -26q-2 -12 -6 -28.5t-8 -34.5h174z" />
    <glyph glyph-name="ccedilla" unicode="&#xe7;" 
d="M524 360h-52v8q0 52 -31.5 82t-93.5 30q-60 0 -107 -38.5t-62 -108.5q-12 -56 -19 -88t-10.5 -49.5t-4.5 -26t-1 -17.5q0 -52 31.5 -82t93.5 -30q54 0 98 31.5t64 88.5h53q-26 -90 -85 -130t-139 -40q-29 0 -58.5 8.5t-54 27.5t-40 48.5t-15.5 71.5q0 11 0.5 20t4 27
t10.5 50t19 90q22 105 83.5 151t147.5 46q28 0 58 -8.5t54.5 -27.5t40 -48.5t15.5 -71.5v-14zM199 -134l18 84h50l-29 -134h-134l11 50h84z" />
    <glyph glyph-name="egrave" unicode="&#xe8;" 
d="M159 253q-6 -27 -9.5 -43.5t-5.5 -27t-2.5 -17t-0.5 -13.5q0 -52 31.5 -82t93.5 -30q54 0 97.5 31.5t63.5 88.5h54q-26 -90 -85 -130t-139 -40q-29 0 -58.5 8.5t-54 27.5t-40 48.5t-15.5 71.5q0 11 0.5 20t4 27t10.5 50t19 90q22 105 83.5 151t147.5 46q28 0 58 -8.5
t54.5 -27.5t40 -48.5t15.5 -71.5q0 -9 -0.5 -16.5t-2.5 -19.5t-6 -31.5t-11 -53.5h-343zM460 303l5 25t3 17t1.5 12t0.5 11q0 52 -31.5 82t-93.5 30q-35 0 -64.5 -12.5t-52.5 -35.5t-38 -55.5t-20 -73.5h290zM251 657l10 48l264 -72l-10 -48z" />
    <glyph glyph-name="eacute" unicode="&#xe9;" 
d="M159 253q-6 -27 -9.5 -43.5t-5.5 -27t-2.5 -17t-0.5 -13.5q0 -52 31.5 -82t93.5 -30q54 0 97.5 31.5t63.5 88.5h54q-26 -90 -85 -130t-139 -40q-29 0 -58.5 8.5t-54 27.5t-40 48.5t-15.5 71.5q0 11 0.5 20t4 27t10.5 50t19 90q22 105 83.5 151t147.5 46q28 0 58 -8.5
t54.5 -27.5t40 -48.5t15.5 -71.5q0 -9 -0.5 -16.5t-2.5 -19.5t-6 -31.5t-11 -53.5h-343zM460 303l5 25t3 17t1.5 12t0.5 11q0 52 -31.5 82t-93.5 30q-35 0 -64.5 -12.5t-52.5 -35.5t-38 -55.5t-20 -73.5h290zM250 579l12 54l264 72l-12 -54z" />
    <glyph glyph-name="ecircumflex" unicode="&#xea;" 
d="M159 253q-6 -27 -9.5 -43.5t-5.5 -27t-2.5 -17t-0.5 -13.5q0 -52 31.5 -82t93.5 -30q54 0 97.5 31.5t63.5 88.5h54q-26 -90 -85 -130t-139 -40q-29 0 -58.5 8.5t-54 27.5t-40 48.5t-15.5 71.5q0 11 0.5 20t4 27t10.5 50t19 90q22 105 83.5 151t147.5 46q28 0 58 -8.5
t54.5 -27.5t40 -48.5t15.5 -71.5q0 -9 -0.5 -16.5t-2.5 -19.5t-6 -31.5t-11 -53.5h-343zM460 303l5 25t3 17t1.5 12t0.5 11q0 52 -31.5 82t-93.5 30q-35 0 -64.5 -12.5t-52.5 -35.5t-38 -55.5t-20 -73.5h290zM393 651l-167 -72l13 58l157 68l145 -77l-11 -49z" />
    <glyph glyph-name="edieresis" unicode="&#xeb;" 
d="M159 253q-6 -27 -9.5 -43.5t-5.5 -27t-2.5 -17t-0.5 -13.5q0 -52 31.5 -82t93.5 -30q54 0 97.5 31.5t63.5 88.5h54q-26 -90 -85 -130t-139 -40q-29 0 -58.5 8.5t-54 27.5t-40 48.5t-15.5 71.5q0 11 0.5 20t4 27t10.5 50t19 90q22 105 83.5 151t147.5 46q28 0 58 -8.5
t54.5 -27.5t40 -48.5t15.5 -71.5q0 -9 -0.5 -16.5t-2.5 -19.5t-6 -31.5t-11 -53.5h-343zM460 303l5 25t3 17t1.5 12t0.5 11q0 52 -31.5 82t-93.5 30q-35 0 -64.5 -12.5t-52.5 -35.5t-38 -55.5t-20 -73.5h290zM239 683h76l-17 -76h-76zM475 683h76l-17 -76h-76z" />
    <glyph glyph-name="igrave" unicode="&#xec;" 
d="M203 516h185l-99 -466h182l-11 -50h-417l11 50h182l88 416h-132zM252 657l10 48l264 -72l-10 -48z" />
    <glyph glyph-name="iacute" unicode="&#xed;" 
d="M203 516h185l-99 -466h182l-11 -50h-417l11 50h182l88 416h-132zM251 579l12 54l264 72l-12 -54z" />
    <glyph glyph-name="icircumflex" unicode="&#xee;" 
d="M203 516h185l-99 -466h182l-11 -50h-417l11 50h182l88 416h-132zM395 651l-167 -72l13 58l157 68l145 -77l-11 -49z" />
    <glyph glyph-name="idieresis" unicode="&#xef;" 
d="M203 516h185l-99 -466h182l-11 -50h-417l11 50h182l88 416h-132zM241 683h76l-17 -76h-76zM477 683h76l-17 -76h-76z" />
    <glyph glyph-name="eth" unicode="&#xf0;" 
d="M487 187q-23 -105 -84 -151t-147 -46q-29 0 -58.5 8.5t-54 27.5t-40 48.5t-15.5 71.5q0 11 0.5 20t4 27t10.5 50t19 90q22 105 83.5 151t147.5 46q28 0 53 -7l-32 62h-129l9 43h99l-36 72h59l36 -72h84l-9 -43h-54l62 -122q10 -20 18 -40.5t8 -48.5q0 -11 -0.5 -20
t-4 -27t-10.5 -50t-19 -90zM175 333q-12 -56 -19 -88t-10.5 -49.5t-4.5 -26t-1 -17.5q0 -52 31.5 -82t93.5 -30q60 0 107 38.5t62 108.5q12 56 19 88t10.5 49.5t4.5 26t1 17.5q0 52 -31.5 82t-93.5 30q-60 0 -107 -38.5t-62 -108.5z" />
    <glyph glyph-name="ntilde" unicode="&#xf1;" 
d="M431 580l-91 66l-124 -66l14 63l113 60l91 -66l124 66l-14 -63zM354 530q28 0 58 -8.5t54.5 -27.5t40 -48.5t15.5 -71.5q0 -11 -0.5 -20t-4 -27t-10.5 -50t-19 -90l-40 -187h-53l40 187q12 56 19 88t10.5 49.5t4.5 26t1 17.5q0 52 -31.5 82t-93.5 30q-60 0 -107 -38.5
t-62 -108.5l-71 -333h-53l110 516h53l-13 -59q20 30 58.5 51.5t93.5 21.5z" />
    <glyph glyph-name="ograve" unicode="&#xf2;" 
d="M175 333q-12 -56 -19 -88t-10.5 -49.5t-4.5 -26t-1 -17.5q0 -52 31.5 -82t93.5 -30q60 0 107 38.5t62 108.5q12 56 19 88t10.5 49.5t4.5 26t1 17.5q0 52 -31.5 82t-93.5 30q-60 0 -107 -38.5t-62 -108.5zM487 187q-23 -105 -84 -151t-147 -46q-29 0 -58.5 8.5t-54 27.5
t-40 48.5t-15.5 71.5q0 11 0.5 20t4 27t10.5 50t19 90q22 105 83.5 151t147.5 46q28 0 58 -8.5t54.5 -27.5t40 -48.5t15.5 -71.5q0 -11 -0.5 -20t-4 -27t-10.5 -50t-19 -90zM249 657l10 48l264 -72l-10 -48z" />
    <glyph glyph-name="oacute" unicode="&#xf3;" 
d="M175 333q-12 -56 -19 -88t-10.5 -49.5t-4.5 -26t-1 -17.5q0 -52 31.5 -82t93.5 -30q60 0 107 38.5t62 108.5q12 56 19 88t10.5 49.5t4.5 26t1 17.5q0 52 -31.5 82t-93.5 30q-60 0 -107 -38.5t-62 -108.5zM487 187q-23 -105 -84 -151t-147 -46q-29 0 -58.5 8.5t-54 27.5
t-40 48.5t-15.5 71.5q0 11 0.5 20t4 27t10.5 50t19 90q22 105 83.5 151t147.5 46q28 0 58 -8.5t54.5 -27.5t40 -48.5t15.5 -71.5q0 -11 -0.5 -20t-4 -27t-10.5 -50t-19 -90zM249 579l12 54l264 72l-12 -54z" />
    <glyph glyph-name="ocircumflex" unicode="&#xf4;" 
d="M175 333q-12 -56 -19 -88t-10.5 -49.5t-4.5 -26t-1 -17.5q0 -52 31.5 -82t93.5 -30q60 0 107 38.5t62 108.5q12 56 19 88t10.5 49.5t4.5 26t1 17.5q0 52 -31.5 82t-93.5 30q-60 0 -107 -38.5t-62 -108.5zM487 187q-23 -105 -84 -151t-147 -46q-29 0 -58.5 8.5t-54 27.5
t-40 48.5t-15.5 71.5q0 11 0.5 20t4 27t10.5 50t19 90q22 105 83.5 151t147.5 46q28 0 58 -8.5t54.5 -27.5t40 -48.5t15.5 -71.5q0 -11 -0.5 -20t-4 -27t-10.5 -50t-19 -90zM393 651l-167 -72l13 58l157 68l145 -77l-11 -49z" />
    <glyph glyph-name="otilde" unicode="&#xf5;" 
d="M430 580l-91 66l-124 -66l14 63l113 60l91 -66l124 66l-14 -63zM175 333q-12 -56 -19 -88t-10.5 -49.5t-4.5 -26t-1 -17.5q0 -52 31.5 -82t93.5 -30q60 0 107 38.5t62 108.5q12 56 19 88t10.5 49.5t4.5 26t1 17.5q0 52 -31.5 82t-93.5 30q-60 0 -107 -38.5t-62 -108.5z
M487 187q-23 -105 -84 -151t-147 -46q-29 0 -58.5 8.5t-54 27.5t-40 48.5t-15.5 71.5q0 11 0.5 20t4 27t10.5 50t19 90q22 105 83.5 151t147.5 46q28 0 58 -8.5t54.5 -27.5t40 -48.5t15.5 -71.5q0 -11 -0.5 -20t-4 -27t-10.5 -50t-19 -90z" />
    <glyph glyph-name="odieresis" unicode="&#xf6;" 
d="M175 333q-12 -56 -19 -88t-10.5 -49.5t-4.5 -26t-1 -17.5q0 -52 31.5 -82t93.5 -30q60 0 107 38.5t62 108.5q12 56 19 88t10.5 49.5t4.5 26t1 17.5q0 52 -31.5 82t-93.5 30q-60 0 -107 -38.5t-62 -108.5zM487 187q-23 -105 -84 -151t-147 -46q-29 0 -58.5 8.5t-54 27.5
t-40 48.5t-15.5 71.5q0 11 0.5 20t4 27t10.5 50t19 90q22 105 83.5 151t147.5 46q28 0 58 -8.5t54.5 -27.5t40 -48.5t15.5 -71.5q0 -11 -0.5 -20t-4 -27t-10.5 -50t-19 -90zM239 683h76l-17 -76h-76zM475 683h76l-17 -76h-76z" />
    <glyph glyph-name="divide" unicode="&#xf7;" 
d="M267 479q0 17 12.5 29.5t29.5 12.5t29.5 -12.5t12.5 -29.5t-12.5 -29.5t-29.5 -12.5t-29.5 12.5t-12.5 29.5zM267 82q0 17 12.5 29.5t29.5 12.5t29.5 -12.5t12.5 -29.5t-12.5 -29.5t-29.5 -12.5t-29.5 12.5t-12.5 29.5zM111 258v45h396v-45h-396z" />
    <glyph glyph-name="oslash" unicode="&#xf8;" 
d="M487 187q-23 -105 -84 -151t-147 -46q-29 0 -59 8.5t-54 27.5l-48 -59l-36 27l53 65q-11 17 -17.5 38.5t-6.5 48.5q0 11 0.5 20t4 27t10.5 50t19 90q22 105 83.5 151t147.5 46q28 0 57.5 -8.5t53.5 -27.5l48 59l36 -27l-52 -64q11 -17 18 -39t7 -49q0 -11 -0.5 -20
t-4 -27t-10.5 -50t-19 -90zM469 368q0 28 -9 49l-285 -350q31 -27 90 -27q60 0 107 38.5t62 108.5q12 56 19 88t10.5 49.5t4.5 26t1 17.5zM175 333q-12 -56 -19 -88t-10.5 -49.5t-4.5 -26t-1 -17.5q0 -26 8 -48l284 350q-32 26 -88 26q-60 0 -107 -38.5t-62 -108.5z" />
    <glyph glyph-name="ugrave" unicode="&#xf9;" 
d="M258 -10q-29 0 -58.5 9t-54 28t-40 48.5t-15.5 70.5q0 10 1 20.5t4.5 29.5t10 50.5t17.5 82.5l40 187h53l-40 -187q-11 -49 -17.5 -79t-10 -49t-5 -29.5t-1.5 -19.5q0 -51 31 -81.5t91 -30.5q28 0 54.5 10t48.5 28.5t38 46t24 62.5l70 329h53l-110 -516h-53l14 63
q-8 -13 -22.5 -26t-33 -23.5t-41.5 -17t-48 -6.5zM247 657l10 48l264 -72l-10 -48z" />
    <glyph glyph-name="uacute" unicode="&#xfa;" 
d="M258 -10q-29 0 -58.5 9t-54 28t-40 48.5t-15.5 70.5q0 10 1 20.5t4.5 29.5t10 50.5t17.5 82.5l40 187h53l-40 -187q-11 -49 -17.5 -79t-10 -49t-5 -29.5t-1.5 -19.5q0 -51 31 -81.5t91 -30.5q28 0 54.5 10t48.5 28.5t38 46t24 62.5l70 329h53l-110 -516h-53l14 63
q-8 -13 -22.5 -26t-33 -23.5t-41.5 -17t-48 -6.5zM247 579l12 54l264 72l-12 -54z" />
    <glyph glyph-name="ucircumflex" unicode="&#xfb;" 
d="M258 -10q-29 0 -58.5 9t-54 28t-40 48.5t-15.5 70.5q0 10 1 20.5t4.5 29.5t10 50.5t17.5 82.5l40 187h53l-40 -187q-11 -49 -17.5 -79t-10 -49t-5 -29.5t-1.5 -19.5q0 -51 31 -81.5t91 -30.5q28 0 54.5 10t48.5 28.5t38 46t24 62.5l70 329h53l-110 -516h-53l14 63
q-8 -13 -22.5 -26t-33 -23.5t-41.5 -17t-48 -6.5zM391 651l-167 -72l13 58l157 68l145 -77l-11 -49z" />
    <glyph glyph-name="udieresis" unicode="&#xfc;" 
d="M258 -10q-29 0 -58.5 9t-54 28t-40 48.5t-15.5 70.5q0 10 1 20.5t4.5 29.5t10 50.5t17.5 82.5l40 187h53l-40 -187q-11 -49 -17.5 -79t-10 -49t-5 -29.5t-1.5 -19.5q0 -51 31 -81.5t91 -30.5q28 0 54.5 10t48.5 28.5t38 46t24 62.5l70 329h53l-110 -516h-53l14 63
q-8 -13 -22.5 -26t-33 -23.5t-41.5 -17t-48 -6.5zM237 683h76l-17 -76h-76zM473 683h76l-17 -76h-76z" />
    <glyph glyph-name="yacute" unicode="&#xfd;" 
d="M146 516h52l66 -444l252 444h60l-342 -597q-12 -22 -24 -40.5t-26.5 -32.5t-34 -22t-47.5 -8h-42l11 50h43q26 0 39.5 17t27.5 42l42 74zM250 579l12 54l264 72l-12 -54z" />
    <glyph glyph-name="thorn" unicode="&#xfe;" 
d="M347 480q-60 0 -107 -38.5t-62 -108.5q-12 -56 -19 -88t-10.5 -49.5t-4.5 -26t-1 -17.5q0 -52 31.5 -82t93.5 -30q60 0 107 38.5t62 108.5q12 56 19 88t10.5 49.5t4.5 26t1 17.5q0 52 -31.5 82t-93.5 30zM204 457q20 30 58.5 51.5t93.5 21.5q28 0 58 -8.5t54.5 -27.5
t40 -48.5t15.5 -71.5q0 -11 -0.5 -20t-4 -27t-10.5 -50t-19 -90q-23 -105 -84 -151t-147 -46q-29 0 -52 8t-40.5 20t-28.5 26.5t-16 28.5l-54 -257h-53l188 884h53z" />
    <glyph glyph-name="ydieresis" unicode="&#xff;" 
d="M144 516h52l66 -444l252 444h60l-342 -597q-12 -22 -24 -40.5t-26.5 -32.5t-34 -22t-47.5 -8h-42l11 50h43q26 0 39.5 17t27.5 42l42 74zM239 683h76l-17 -76h-76zM475 683h76l-17 -76h-76z" />
    <glyph glyph-name="Abreve" unicode="&#x102;" 
d="M432 218h-266l-120 -218h-59l386 700h50l89 -700h-52zM426 267l-44 343l-189 -343h233zM377 743q-40 0 -65 25t-25 63v11t2 12h47q-1 -5 -1 -13q0 -21 13.5 -35t36.5 -14h55q31 0 52.5 20t26.5 42h52q-10 -46 -45 -78.5t-89 -32.5h-60z" />
    <glyph glyph-name="Amacron" unicode="&#x100;" 
d="M432 218h-266l-120 -218h-59l386 700h50l89 -700h-52zM426 267l-44 343l-189 -343h233zM257 774l11 50h312l-11 -50h-312z" />
    <glyph glyph-name="Aogonek" unicode="&#x104;" 
d="M432 218h-266l-120 -218h-59l386 700h50l89 -700h-52zM426 267l-44 343l-189 -343h233zM472 -186q-9 -2 -14.5 -2.5t-11.5 -0.5q-37 0 -60 26.5t-23 59.5q0 22 8 39.5t21.5 30t31 21t36.5 12.5h52q-15 -6 -32.5 -14.5t-32.5 -20t-25 -27t-10 -34.5q0 -44 46 -44
q12 0 24 3z" />
    <glyph glyph-name="Cacute" unicode="&#x106;" 
d="M524 500q1 8 1 12v9q0 34 -11.5 59.5t-31 43t-45.5 26t-55 8.5q-33 0 -63.5 -10t-56 -31t-44 -54.5t-28.5 -80.5q-14 -66 -23.5 -111.5t-16.5 -76t-11 -49.5t-6 -30.5t-2.5 -19t-0.5 -16.5q0 -34 11.5 -59.5t31 -43t45.5 -26t55 -8.5q64 0 115 36.5t73 121.5h55
q-12 -49 -33 -88t-51.5 -66t-71.5 -41.5t-94 -14.5q-39 0 -73.5 12.5t-60.5 36t-41.5 57.5t-15.5 76q0 9 0.5 17.5t2.5 21t6 31.5t10.5 50.5t16.5 77.5t24 112q22 106 82.5 167t171.5 61q39 0 73.5 -12.5t60.5 -36t41.5 -57.5t15.5 -76q0 -8 -0.5 -15.5t-1.5 -12.5h-54z
M284 734l12 54l264 72l-12 -54z" />
    <glyph glyph-name="Ccaron" unicode="&#x10c;" 
d="M524 500q1 8 1 12v9q0 34 -11.5 59.5t-31 43t-45.5 26t-55 8.5q-33 0 -63.5 -10t-56 -31t-44 -54.5t-28.5 -80.5q-14 -66 -23.5 -111.5t-16.5 -76t-11 -49.5t-6 -30.5t-2.5 -19t-0.5 -16.5q0 -34 11.5 -59.5t31 -43t45.5 -26t55 -8.5q64 0 115 36.5t73 121.5h55
q-12 -49 -33 -88t-51.5 -66t-71.5 -41.5t-94 -14.5q-39 0 -73.5 12.5t-60.5 36t-41.5 57.5t-15.5 76q0 9 0.5 17.5t2.5 21t6 31.5t10.5 50.5t16.5 77.5t24 112q22 106 82.5 167t171.5 61q39 0 73.5 -12.5t60.5 -36t41.5 -57.5t15.5 -76q0 -8 -0.5 -15.5t-1.5 -12.5h-54z
M416 787l167 72l-13 -58l-157 -68l-145 77l11 49z" />
    <glyph glyph-name="Ccircumflex" unicode="&#x108;" 
d="M524 500q1 8 1 12v9q0 34 -11.5 59.5t-31 43t-45.5 26t-55 8.5q-33 0 -63.5 -10t-56 -31t-44 -54.5t-28.5 -80.5q-14 -66 -23.5 -111.5t-16.5 -76t-11 -49.5t-6 -30.5t-2.5 -19t-0.5 -16.5q0 -34 11.5 -59.5t31 -43t45.5 -26t55 -8.5q64 0 115 36.5t73 121.5h55
q-12 -49 -33 -88t-51.5 -66t-71.5 -41.5t-94 -14.5q-39 0 -73.5 12.5t-60.5 36t-41.5 57.5t-15.5 76q0 9 0.5 17.5t2.5 21t6 31.5t10.5 50.5t16.5 77.5t24 112q22 106 82.5 167t171.5 61q39 0 73.5 -12.5t60.5 -36t41.5 -57.5t15.5 -76q0 -8 -0.5 -15.5t-1.5 -12.5h-54z
M427 805l-167 -72l13 58l157 68l145 -77l-11 -49z" />
    <glyph glyph-name="Cdotaccent" unicode="&#x10a;" 
d="M524 500q1 8 1 12v9q0 34 -11.5 59.5t-31 43t-45.5 26t-55 8.5q-33 0 -63.5 -10t-56 -31t-44 -54.5t-28.5 -80.5q-14 -66 -23.5 -111.5t-16.5 -76t-11 -49.5t-6 -30.5t-2.5 -19t-0.5 -16.5q0 -34 11.5 -59.5t31 -43t45.5 -26t55 -8.5q64 0 115 36.5t73 121.5h55
q-12 -49 -33 -88t-51.5 -66t-71.5 -41.5t-94 -14.5q-39 0 -73.5 12.5t-60.5 36t-41.5 57.5t-15.5 76q0 9 0.5 17.5t2.5 21t6 31.5t10.5 50.5t16.5 77.5t24 112q22 106 82.5 167t171.5 61q39 0 73.5 -12.5t60.5 -36t41.5 -57.5t15.5 -76q0 -8 -0.5 -15.5t-1.5 -12.5h-54z
M393 837h76l-17 -76h-76z" />
    <glyph glyph-name="Dcaron" unicode="&#x10e;" 
d="M275 52q33 0 63.5 10t56 31t44 54.5t28.5 80.5q14 66 23.5 110t15.5 72.5t9.5 44.5t5 25.5t2 15.5t0.5 15q0 34 -11.5 59.5t-31 43t-45.5 26t-55 8.5h-155l-127 -596h177zM32 0l149 700h206q39 0 73.5 -12.5t60.5 -36t41.5 -57.5t15.5 -76q0 -14 -2.5 -32t-8.5 -49
t-17 -81t-28 -128q-12 -53 -32 -95.5t-51 -72t-73.5 -45t-97.5 -15.5h-236zM396 787l167 72l-13 -58l-157 -68l-145 77l11 49z" />
    <glyph glyph-name="Dcroat" unicode="&#x110;" 
d="M44 0l70 328h-70l9 45h70l70 327h206q39 0 73.5 -12.5t60.5 -36t41.5 -57.5t15.5 -76q0 -14 -2.5 -32t-8.5 -49t-17 -81t-28 -128q-12 -53 -32 -95.5t-51 -72t-73.5 -45t-97.5 -15.5h-236zM287 52q33 0 63.5 10t56 31t44 54.5t28.5 80.5q14 66 23.5 110t15.5 72.5
t9.5 44.5t5 25.5t2 15.5t0.5 15q0 34 -11.5 59.5t-31 43t-45.5 26t-55 8.5h-155l-59 -275h166l-9 -45h-166l-59 -276h177z" />
    <glyph glyph-name="Ebreve" unicode="&#x114;" 
d="M131 52h332l-11 -52h-387l149 700h387l-11 -52h-332l-57 -268h262l-11 -51h-262zM386 743q-40 0 -65 25t-25 63v11t2 12h47q-1 -5 -1 -13q0 -21 13.5 -35t36.5 -14h55q31 0 52.5 20t26.5 42h52q-10 -46 -45 -78.5t-89 -32.5h-60z" />
    <glyph glyph-name="Ecaron" unicode="&#x11a;" 
d="M131 52h332l-11 -52h-387l149 700h387l-11 -52h-332l-57 -268h262l-11 -51h-262zM422 787l167 72l-13 -58l-157 -68l-145 77l11 49z" />
    <glyph glyph-name="Emacron" unicode="&#x112;" 
d="M131 52h332l-11 -52h-387l149 700h387l-11 -52h-332l-57 -268h262l-11 -51h-262zM266 774l11 50h312l-11 -50h-312z" />
    <glyph glyph-name="Eogonek" unicode="&#x118;" 
d="M131 52h332l-11 -52h-387l149 700h387l-11 -52h-332l-57 -268h262l-11 -51h-262zM412 -186q-9 -2 -14.5 -2.5t-11.5 -0.5q-37 0 -60 26.5t-23 59.5q0 40 20 66t46 37h83q-15 -6 -32.5 -14.5t-32.5 -20t-25 -27t-10 -34.5q0 -44 46 -44q12 0 24 3z" />
    <glyph glyph-name="Edotaccent" unicode="&#x116;" 
d="M131 52h332l-11 -52h-387l149 700h387l-11 -52h-332l-57 -268h262l-11 -51h-262zM399 837h76l-17 -76h-76z" />
    <glyph glyph-name="Gbreve" unicode="&#x11e;" 
d="M521 500q1 7 1 11.5v9.5q0 34 -11.5 59.5t-31 43t-45.5 26t-55 8.5q-33 0 -63.5 -10t-56 -31t-44 -54.5t-28.5 -80.5q-14 -66 -23.5 -111.5t-16.5 -76t-11 -49.5t-6 -30.5t-2.5 -19t-0.5 -16.5q0 -34 11.5 -59.5t31 -43t45.5 -26t55 -8.5q33 0 63.5 10t56 31t44 54.5
t28.5 80.5q5 26 9.5 48.5t9.5 42.5h-165l11 51h220q-6 -28 -13 -62.5t-17 -79.5q-23 -107 -83 -167.5t-171 -60.5q-39 0 -73.5 12.5t-60.5 36t-41.5 57.5t-15.5 76q0 9 0.5 17.5t2.5 21t6 31.5t10.5 50.5t16.5 77.5t24 112q22 106 82.5 167t171.5 61q39 0 73.5 -12.5
t60.5 -36t41.5 -57.5t15.5 -76q0 -8 -0.5 -15.5t-1.5 -12.5h-54zM379 743q-40 0 -65 25t-25 63v11t2 12h47q-1 -5 -1 -13q0 -21 13.5 -35t36.5 -14h55q31 0 52.5 20t26.5 42h52q-10 -46 -45 -78.5t-89 -32.5h-60z" />
    <glyph glyph-name="Gcircumflex" unicode="&#x11c;" 
d="M521 500q1 7 1 11.5v9.5q0 34 -11.5 59.5t-31 43t-45.5 26t-55 8.5q-33 0 -63.5 -10t-56 -31t-44 -54.5t-28.5 -80.5q-14 -66 -23.5 -111.5t-16.5 -76t-11 -49.5t-6 -30.5t-2.5 -19t-0.5 -16.5q0 -34 11.5 -59.5t31 -43t45.5 -26t55 -8.5q33 0 63.5 10t56 31t44 54.5
t28.5 80.5q5 26 9.5 48.5t9.5 42.5h-165l11 51h220q-6 -28 -13 -62.5t-17 -79.5q-23 -107 -83 -167.5t-171 -60.5q-39 0 -73.5 12.5t-60.5 36t-41.5 57.5t-15.5 76q0 9 0.5 17.5t2.5 21t6 31.5t10.5 50.5t16.5 77.5t24 112q22 106 82.5 167t171.5 61q39 0 73.5 -12.5
t60.5 -36t41.5 -57.5t15.5 -76q0 -8 -0.5 -15.5t-1.5 -12.5h-54zM425 805l-167 -72l13 58l157 68l145 -77l-11 -49z" />
    <glyph glyph-name="Gcommaaccent" unicode="&#x122;" 
d="M521 500q1 7 1 11.5v9.5q0 34 -11.5 59.5t-31 43t-45.5 26t-55 8.5q-33 0 -63.5 -10t-56 -31t-44 -54.5t-28.5 -80.5q-14 -66 -23.5 -111.5t-16.5 -76t-11 -49.5t-6 -30.5t-2.5 -19t-0.5 -16.5q0 -34 11.5 -59.5t31 -43t45.5 -26t55 -8.5q33 0 63.5 10t56 31t44 54.5
t28.5 80.5q5 26 9.5 48.5t9.5 42.5h-165l11 51h220q-6 -28 -13 -62.5t-17 -79.5q-23 -107 -83 -167.5t-171 -60.5q-39 0 -73.5 12.5t-60.5 36t-41.5 57.5t-15.5 76q0 9 0.5 17.5t2.5 21t6 31.5t10.5 50.5t16.5 77.5t24 112q22 106 82.5 167t171.5 61q39 0 73.5 -12.5
t60.5 -36t41.5 -57.5t15.5 -76q0 -8 -0.5 -15.5t-1.5 -12.5h-54zM192 -189l-36 37l100 99l36 -36z" />
    <glyph glyph-name="Gdotaccent" unicode="&#x120;" 
d="M521 500q1 7 1 11.5v9.5q0 34 -11.5 59.5t-31 43t-45.5 26t-55 8.5q-33 0 -63.5 -10t-56 -31t-44 -54.5t-28.5 -80.5q-14 -66 -23.5 -111.5t-16.5 -76t-11 -49.5t-6 -30.5t-2.5 -19t-0.5 -16.5q0 -34 11.5 -59.5t31 -43t45.5 -26t55 -8.5q33 0 63.5 10t56 31t44 54.5
t28.5 80.5q5 26 9.5 48.5t9.5 42.5h-165l11 51h220q-6 -28 -13 -62.5t-17 -79.5q-23 -107 -83 -167.5t-171 -60.5q-39 0 -73.5 12.5t-60.5 36t-41.5 57.5t-15.5 76q0 9 0.5 17.5t2.5 21t6 31.5t10.5 50.5t16.5 77.5t24 112q22 106 82.5 167t171.5 61q39 0 73.5 -12.5
t60.5 -36t41.5 -57.5t15.5 -76q0 -8 -0.5 -15.5t-1.5 -12.5h-54zM391 837h76l-17 -76h-76z" />
    <glyph glyph-name="Hbar" unicode="&#x126;" 
d="M580 518l-110 -518h-55l70 329h-332l-70 -329h-55l110 518h-69l9 45h70l29 137h55l-29 -137h332l29 137h55l-29 -137h70l-9 -45h-71zM525 518h-332l-29 -138h332z" />
    <glyph glyph-name="Hcircumflex" unicode="&#x124;" 
d="M564 700h55l-149 -700h-55l70 329h-332l-70 -329h-55l149 700h55l-68 -320h332zM424 805l-167 -72l13 58l157 68l145 -77l-11 -49z" />
    <glyph glyph-name="Ibreve" unicode="&#x12c;" 
d="M415 648l-127 -596h166l-11 -52h-387l11 52h166l127 596h-166l11 52h387l-11 -52h-166zM378 743q-40 0 -65 25t-25 63v11t2 12h47q-1 -5 -1 -13q0 -21 13.5 -35t36.5 -14h55q31 0 52.5 20t26.5 42h52q-10 -46 -45 -78.5t-89 -32.5h-60z" />
    <glyph glyph-name="Idotaccent" unicode="&#x130;" 
d="M415 648l-127 -596h166l-11 -52h-387l11 52h166l127 596h-166l11 52h387l-11 -52h-166zM390 837h76l-17 -76h-76z" />
    <glyph glyph-name="Imacron" unicode="&#x12a;" 
d="M415 648l-127 -596h166l-11 -52h-387l11 52h166l127 596h-166l11 52h387l-11 -52h-166zM257 774l11 50h312l-11 -50h-312z" />
    <glyph glyph-name="Iogonek" unicode="&#x12e;" 
d="M415 648l-127 -596h166l-11 -52h-387l11 52h166l127 596h-166l11 52h387l-11 -52h-166zM403 -186q-9 -2 -14.5 -2.5t-11.5 -0.5q-37 0 -60 26.5t-23 59.5q0 40 20 66t46 37h83q-15 -6 -32.5 -14.5t-32.5 -20t-25 -27t-10 -34.5q0 -44 46 -44q12 0 24 3z" />
    <glyph glyph-name="Itilde" unicode="&#x128;" 
d="M415 648l-127 -596h166l-11 -52h-387l11 52h166l127 596h-166l11 52h387l-11 -52h-166zM463 737l-91 66l-124 -66l14 63l113 60l91 -66l124 66l-14 -63z" />
    <glyph glyph-name="uni1ECA" unicode="&#x1eca;" 
d="M415 648l-127 -596h166l-11 -52h-387l11 52h166l127 596h-166l11 52h387l-11 -52h-166zM193 -86h76l-17 -76h-76z" />
    <glyph glyph-name="Jcircumflex" unicode="&#x134;" 
d="M117 200q-1 -5 -1 -10.5v-10.5q0 -34 11.5 -59.5t31 -43t45.5 -26t55 -8.5q33 0 63.5 10t55.5 31t44 54.5t29 80.5l91 430h-332l12 52h387l-103 -482q-23 -107 -83 -167.5t-171 -60.5q-39 0 -73.5 12.5t-60.5 36t-41.5 57.5t-15.5 76q0 8 0.5 16.5t1.5 11.5h54zM440 805
l-167 -72l13 58l157 68l145 -77l-11 -49z" />
    <glyph glyph-name="Kcommaaccent" unicode="&#x136;" 
d="M83 0h-55l149 700h55l-86 -406l432 406h74l-308 -289l185 -411h-58l-168 372l-176 -166zM206 -189l-36 37l100 99l36 -36z" />
    <glyph glyph-name="Lacute" unicode="&#x139;" 
d="M139 52h332l-12 -52h-387l149 700h55zM133 733l12 54l264 72l-12 -54z" />
    <glyph glyph-name="Lcaron" unicode="&#x13d;" 
d="M458 574l-87 -116l-41 24l83 114l22 104h50zM139 52h332l-12 -52h-387l149 700h55z" />
    <glyph glyph-name="Lcommaaccent" unicode="&#x13b;" 
d="M139 52h332l-12 -52h-387l149 700h55zM207 -189l-36 37l100 99l36 -36z" />
    <glyph glyph-name="Ldot" unicode="&#x13f;" 
d="M139 52h332l-12 -52h-387l149 700h55zM472 416h76l-17 -76h-76z" />
    <glyph glyph-name="Lslash" unicode="&#x141;" 
d="M233 353l175 87l13 -41l-200 -99l-52 -248h332l-12 -52h-387l57 269l-63 -31l-14 41l89 44l80 377h55z" />
    <glyph glyph-name="Eng" unicode="&#x14a;" 
d="M211 605l-128 -605h-55l149 700h55l204 -605l128 605h55l-149 -700q-9 -43 -24 -77t-39 -58t-58.5 -36.5t-83.5 -12.5h-54l11 52h56q30 0 53 10.5t39.5 28.5t27.5 42t17 51z" />
    <glyph glyph-name="Nacute" unicode="&#x143;" 
d="M470 0h-55l-204 605l-128 -605h-55l149 700h55l204 -605l128 605h55zM281 733l12 54l264 72l-12 -54z" />
    <glyph glyph-name="Ncaron" unicode="&#x147;" 
d="M470 0h-55l-204 605l-128 -605h-55l149 700h55l204 -605l128 605h55zM412 787l167 72l-13 -58l-157 -68l-145 77l11 49z" />
    <glyph glyph-name="Ncommaaccent" unicode="&#x145;" 
d="M470 0h-55l-204 605l-128 -605h-55l149 700h55l204 -605l128 605h55zM191 -189l-36 37l100 99l36 -36z" />
    <glyph glyph-name="OE" unicode="&#x152;" 
d="M263 0q-39 0 -73.5 12.5t-60.5 36t-41.5 57.5t-15.5 76q0 9 0.5 16t2 17t5 26.5t10 46t16 74t23.5 110.5q22 106 82.5 167t171.5 61h252l-11 -52h-182l-57 -268h112l-11 -51h-112l-59 -277h182l-11 -52h-223zM387 648h-11q-33 0 -63.5 -10t-56 -31t-44 -54.5t-28.5 -80.5
q-14 -66 -23.5 -110t-16 -72.5t-10 -44.5t-5 -25.5t-2 -15.5t-0.5 -15q0 -33 10.5 -57.5t28.5 -42t42 -27t52 -10.5z" />
    <glyph glyph-name="Obreve" unicode="&#x14e;" 
d="M516 218q-23 -107 -83 -167.5t-171 -60.5q-39 0 -73.5 12.5t-60.5 36t-41.5 57.5t-15.5 76q0 9 0.5 17.5t2.5 21t6 31.5t10.5 50.5t16.5 77.5t24 112q22 106 82.5 167t171.5 61q39 0 73.5 -12.5t60.5 -36t41.5 -57.5t15.5 -76q0 -10 -0.5 -18t-2.5 -20.5t-6 -31.5
t-10.5 -50.5t-16.5 -77.5t-24 -112zM186 482q-14 -66 -23.5 -111.5t-16.5 -76t-11 -49.5t-6 -30.5t-2.5 -19t-0.5 -16.5q0 -34 11.5 -59.5t31 -43t45.5 -26t55 -8.5q33 0 63.5 10t56 31t44 54.5t28.5 80.5q14 66 23.5 111.5t16.5 76t11 49.5t6 30.5t2.5 19t0.5 16.5
q0 34 -11.5 59.5t-31 43t-45.5 26t-55 8.5q-33 0 -63.5 -10t-56 -31t-44 -54.5t-28.5 -80.5zM378 743q-40 0 -65 25t-25 63v11t2 12h47q-1 -5 -1 -13q0 -21 13.5 -35t36.5 -14h55q31 0 52.5 20t26.5 42h52q-10 -46 -45 -78.5t-89 -32.5h-60z" />
    <glyph glyph-name="Ohungarumlaut" unicode="&#x150;" 
d="M516 218q-23 -107 -83 -167.5t-171 -60.5q-39 0 -73.5 12.5t-60.5 36t-41.5 57.5t-15.5 76q0 9 0.5 17.5t2.5 21t6 31.5t10.5 50.5t16.5 77.5t24 112q22 106 82.5 167t171.5 61q39 0 73.5 -12.5t60.5 -36t41.5 -57.5t15.5 -76q0 -10 -0.5 -18t-2.5 -20.5t-6 -31.5
t-10.5 -50.5t-16.5 -77.5t-24 -112zM186 482q-14 -66 -23.5 -111.5t-16.5 -76t-11 -49.5t-6 -30.5t-2.5 -19t-0.5 -16.5q0 -34 11.5 -59.5t31 -43t45.5 -26t55 -8.5q33 0 63.5 10t56 31t44 54.5t28.5 80.5q14 66 23.5 111.5t16.5 76t11 49.5t6 30.5t2.5 19t0.5 16.5
q0 34 -11.5 59.5t-31 43t-45.5 26t-55 8.5q-33 0 -63.5 -10t-56 -31t-44 -54.5t-28.5 -80.5zM257 753l12 54l126 35l-12 -54zM443 753l12 54l126 35l-12 -54z" />
    <glyph glyph-name="Omacron" unicode="&#x14c;" 
d="M516 218q-23 -107 -83 -167.5t-171 -60.5q-39 0 -73.5 12.5t-60.5 36t-41.5 57.5t-15.5 76q0 9 0.5 17.5t2.5 21t6 31.5t10.5 50.5t16.5 77.5t24 112q22 106 82.5 167t171.5 61q39 0 73.5 -12.5t60.5 -36t41.5 -57.5t15.5 -76q0 -10 -0.5 -18t-2.5 -20.5t-6 -31.5
t-10.5 -50.5t-16.5 -77.5t-24 -112zM186 482q-14 -66 -23.5 -111.5t-16.5 -76t-11 -49.5t-6 -30.5t-2.5 -19t-0.5 -16.5q0 -34 11.5 -59.5t31 -43t45.5 -26t55 -8.5q33 0 63.5 10t56 31t44 54.5t28.5 80.5q14 66 23.5 111.5t16.5 76t11 49.5t6 30.5t2.5 19t0.5 16.5
q0 34 -11.5 59.5t-31 43t-45.5 26t-55 8.5q-33 0 -63.5 -10t-56 -31t-44 -54.5t-28.5 -80.5zM258 774l11 50h312l-11 -50h-312z" />
    <glyph glyph-name="uni1ECC" unicode="&#x1ecc;" 
d="M516 218q-23 -107 -83 -167.5t-171 -60.5q-39 0 -73.5 12.5t-60.5 36t-41.5 57.5t-15.5 76q0 9 0.5 17.5t2.5 21t6 31.5t10.5 50.5t16.5 77.5t24 112q22 106 82.5 167t171.5 61q39 0 73.5 -12.5t60.5 -36t41.5 -57.5t15.5 -76q0 -10 -0.5 -18t-2.5 -20.5t-6 -31.5
t-10.5 -50.5t-16.5 -77.5t-24 -112zM186 482q-14 -66 -23.5 -111.5t-16.5 -76t-11 -49.5t-6 -30.5t-2.5 -19t-0.5 -16.5q0 -34 11.5 -59.5t31 -43t45.5 -26t55 -8.5q33 0 63.5 10t56 31t44 54.5t28.5 80.5q14 66 23.5 111.5t16.5 76t11 49.5t6 30.5t2.5 19t0.5 16.5
q0 34 -11.5 59.5t-31 43t-45.5 26t-55 8.5q-33 0 -63.5 -10t-56 -31t-44 -54.5t-28.5 -80.5zM194 -86h76l-17 -76h-76z" />
    <glyph glyph-name="Racute" unicode="&#x154;" 
d="M173 329l-70 -329h-55l149 700h226q39 0 70 -12t53 -33t33.5 -49.5t11.5 -61.5q0 -50 -17 -88.5t-46 -65.5t-68 -42.5t-83 -18.5l124 -329h-58l-123 329h-147zM367 380q36 1 67 13t53.5 32.5t35.5 49t13 63.5q0 51 -32.5 80.5t-92.5 29.5h-170l-57 -268h183zM287 733
l12 54l264 72l-12 -54z" />
    <glyph glyph-name="Rcaron" unicode="&#x158;" 
d="M173 329l-70 -329h-55l149 700h226q39 0 70 -12t53 -33t33.5 -49.5t11.5 -61.5q0 -50 -17 -88.5t-46 -65.5t-68 -42.5t-83 -18.5l124 -329h-58l-123 329h-147zM367 380q36 1 67 13t53.5 32.5t35.5 49t13 63.5q0 51 -32.5 80.5t-92.5 29.5h-170l-57 -268h183zM420 787
l167 72l-13 -58l-157 -68l-145 77l11 49z" />
    <glyph glyph-name="Rcommaaccent" unicode="&#x156;" 
d="M173 329l-70 -329h-55l149 700h226q39 0 70 -12t53 -33t33.5 -49.5t11.5 -61.5q0 -50 -17 -88.5t-46 -65.5t-68 -42.5t-83 -18.5l124 -329h-58l-123 329h-147zM367 380q36 1 67 13t53.5 32.5t35.5 49t13 63.5q0 51 -32.5 80.5t-92.5 29.5h-170l-57 -268h183zM203 -189
l-36 37l100 99l36 -36z" />
    <glyph glyph-name="Sacute" unicode="&#x15a;" 
d="M492 523v4q0 32 -11.5 56.5t-30 41t-42.5 25t-49 8.5q-73 0 -114.5 -38t-41.5 -100q0 -42 17.5 -75.5t63.5 -50.5l104 -39q54 -20 82.5 -63.5t28.5 -97.5q0 -41 -13 -78t-39.5 -65t-68 -44.5t-98.5 -16.5q-39 0 -76.5 11.5t-67 35t-47 59.5t-17.5 84v10t1 10h55
q-1 -5 -1 -8.5v-8.5q0 -40 14.5 -67t37.5 -43.5t52 -23.5t58 -7q31 0 59.5 9.5t49.5 27.5t33.5 45.5t12.5 63.5q0 35 -18.5 68t-59.5 48l-104 39q-31 12 -52.5 30t-35 40t-20 47t-6.5 51q0 49 15.5 86t44 62t67.5 38t87 13q39 0 72.5 -13.5t59 -37t40 -55.5t14.5 -70v-4.5
t-1 -6.5h-55zM266 733l12 54l264 72l-12 -54z" />
    <glyph glyph-name="Scaron" unicode="&#x160;" 
d="M492 523v4q0 32 -11.5 56.5t-30 41t-42.5 25t-49 8.5q-73 0 -114.5 -38t-41.5 -100q0 -42 17.5 -75.5t63.5 -50.5l104 -39q54 -20 82.5 -63.5t28.5 -97.5q0 -41 -13 -78t-39.5 -65t-68 -44.5t-98.5 -16.5q-39 0 -76.5 11.5t-67 35t-47 59.5t-17.5 84v10t1 10h55
q-1 -5 -1 -8.5v-8.5q0 -40 14.5 -67t37.5 -43.5t52 -23.5t58 -7q31 0 59.5 9.5t49.5 27.5t33.5 45.5t12.5 63.5q0 35 -18.5 68t-59.5 48l-104 39q-31 12 -52.5 30t-35 40t-20 47t-6.5 51q0 49 15.5 86t44 62t67.5 38t87 13q39 0 72.5 -13.5t59 -37t40 -55.5t14.5 -70v-4.5
t-1 -6.5h-55zM398 787l167 72l-13 -58l-157 -68l-145 77l11 49z" />
    <glyph glyph-name="Scedilla" unicode="&#x15e;" 
d="M492 523v4q0 32 -11.5 56.5t-30 41t-42.5 25t-49 8.5q-73 0 -114.5 -38t-41.5 -100q0 -42 17.5 -75.5t63.5 -50.5l104 -39q54 -20 82.5 -63.5t28.5 -97.5q0 -41 -13 -78t-39.5 -65t-68 -44.5t-98.5 -16.5q-39 0 -76.5 11.5t-67 35t-47 59.5t-17.5 84v10t1 10h55
q-1 -5 -1 -8.5v-8.5q0 -40 14.5 -67t37.5 -43.5t52 -23.5t58 -7q31 0 59.5 9.5t49.5 27.5t33.5 45.5t12.5 63.5q0 35 -18.5 68t-59.5 48l-104 39q-31 12 -52.5 30t-35 40t-20 47t-6.5 51q0 49 15.5 86t44 62t67.5 38t87 13q39 0 72.5 -13.5t59 -37t40 -55.5t14.5 -70v-4.5
t-1 -6.5h-55zM230 -134l18 84h50l-29 -134h-134l11 50h84z" />
    <glyph glyph-name="Scircumflex" unicode="&#x15c;" 
d="M492 523v4q0 32 -11.5 56.5t-30 41t-42.5 25t-49 8.5q-73 0 -114.5 -38t-41.5 -100q0 -42 17.5 -75.5t63.5 -50.5l104 -39q54 -20 82.5 -63.5t28.5 -97.5q0 -41 -13 -78t-39.5 -65t-68 -44.5t-98.5 -16.5q-39 0 -76.5 11.5t-67 35t-47 59.5t-17.5 84v10t1 10h55
q-1 -5 -1 -8.5v-8.5q0 -40 14.5 -67t37.5 -43.5t52 -23.5t58 -7q31 0 59.5 9.5t49.5 27.5t33.5 45.5t12.5 63.5q0 35 -18.5 68t-59.5 48l-104 39q-31 12 -52.5 30t-35 40t-20 47t-6.5 51q0 49 15.5 86t44 62t67.5 38t87 13q39 0 72.5 -13.5t59 -37t40 -55.5t14.5 -70v-4.5
t-1 -6.5h-55zM409 805l-167 -72l13 58l157 68l145 -77l-11 -49z" />
    <glyph glyph-name="Scommaaccent" unicode="&#x218;" 
d="M492 523v4q0 32 -11.5 56.5t-30 41t-42.5 25t-49 8.5q-73 0 -114.5 -38t-41.5 -100q0 -42 17.5 -75.5t63.5 -50.5l104 -39q54 -20 82.5 -63.5t28.5 -97.5q0 -41 -13 -78t-39.5 -65t-68 -44.5t-98.5 -16.5q-39 0 -76.5 11.5t-67 35t-47 59.5t-17.5 84v10t1 10h55
q-1 -5 -1 -8.5v-8.5q0 -40 14.5 -67t37.5 -43.5t52 -23.5t58 -7q31 0 59.5 9.5t49.5 27.5t33.5 45.5t12.5 63.5q0 35 -18.5 68t-59.5 48l-104 39q-31 12 -52.5 30t-35 40t-20 47t-6.5 51q0 49 15.5 86t44 62t67.5 38t87 13q39 0 72.5 -13.5t59 -37t40 -55.5t14.5 -70v-4.5
t-1 -6.5h-55zM216 -189l-36 37l100 99l36 -36z" />
    <glyph glyph-name="Tbar" unicode="&#x166;" 
d="M355 373h124l-9 -45h-124l-70 -328h-55l70 328h-124l9 45h124l59 275h-194l11 52h443l-11 -52h-194z" />
    <glyph glyph-name="Tcaron" unicode="&#x164;" 
d="M276 0h-55l138 648h-194l11 52h443l-11 -52h-194zM412 787l167 72l-13 -58l-157 -68l-145 77l11 49z" />
    <glyph glyph-name="uni0162" unicode="&#x162;" 
d="M276 0h-55l138 648h-194l11 52h443l-11 -52h-194zM191 -189l-36 37l100 99l36 -36z" />
    <glyph glyph-name="Tcommaaccent" unicode="&#x21a;" 
d="M276 0h-55l138 648h-194l11 52h443l-11 -52h-194zM191 -189l-36 37l100 99l36 -36z" />
    <glyph glyph-name="Ubreve" unicode="&#x16c;" 
d="M126 179q0 -34 11.5 -59.5t31 -43t45.5 -26t55 -8.5q33 0 63.5 10t55.5 31t44 54.5t29 80.5l103 482h55l-103 -482q-23 -107 -83 -167.5t-171 -60.5q-39 0 -73.5 12.5t-61 36t-42 57.5t-15.5 76q0 9 1 18.5t4.5 28t10 50.5t18.5 87.5t30 139t44 204.5h55
q-26 -120 -44 -203t-29.5 -138t-18.5 -86.5t-10 -49.5t-4 -26.5t-1 -17.5zM378 743q-40 0 -65 25t-25 63v11t2 12h47q-1 -5 -1 -13q0 -21 13.5 -35t36.5 -14h55q31 0 52.5 20t26.5 42h52q-10 -46 -45 -78.5t-89 -32.5h-60z" />
    <glyph glyph-name="Uhungarumlaut" unicode="&#x170;" 
d="M126 179q0 -34 11.5 -59.5t31 -43t45.5 -26t55 -8.5q33 0 63.5 10t55.5 31t44 54.5t29 80.5l103 482h55l-103 -482q-23 -107 -83 -167.5t-171 -60.5q-39 0 -73.5 12.5t-61 36t-42 57.5t-15.5 76q0 9 1 18.5t4.5 28t10 50.5t18.5 87.5t30 139t44 204.5h55
q-26 -120 -44 -203t-29.5 -138t-18.5 -86.5t-10 -49.5t-4 -26.5t-1 -17.5zM258 753l12 54l126 35l-12 -54zM444 753l12 54l126 35l-12 -54z" />
    <glyph glyph-name="Umacron" unicode="&#x16a;" 
d="M126 179q0 -34 11.5 -59.5t31 -43t45.5 -26t55 -8.5q33 0 63.5 10t55.5 31t44 54.5t29 80.5l103 482h55l-103 -482q-23 -107 -83 -167.5t-171 -60.5q-39 0 -73.5 12.5t-61 36t-42 57.5t-15.5 76q0 9 1 18.5t4.5 28t10 50.5t18.5 87.5t30 139t44 204.5h55
q-26 -120 -44 -203t-29.5 -138t-18.5 -86.5t-10 -49.5t-4 -26.5t-1 -17.5zM259 774l11 50h312l-11 -50h-312z" />
    <glyph glyph-name="Uogonek" unicode="&#x172;" 
d="M311 -186q-9 -2 -14.5 -2.5t-11.5 -0.5q-37 0 -60 26.5t-23 59.5t14 56.5t34 37.5q-37 2 -69.5 15t-57 36.5t-39 56t-14.5 73.5q0 9 1 18.5t4.5 28t10 50.5t18.5 87.5t30 139t44 204.5h55q-26 -120 -44 -203t-29.5 -138t-18.5 -86.5t-10 -49.5t-4 -26.5t-1 -17.5
q0 -34 11.5 -59.5t31 -43t45.5 -26t55 -8.5q33 0 63.5 10t55.5 31t44 54.5t29 80.5l103 482h55l-103 -482q-17 -77 -51.5 -130t-94.5 -78q-20 -8 -41.5 -17.5t-38.5 -21.5t-28 -28.5t-11 -38.5q0 -44 46 -44q12 0 24 3z" />
    <glyph glyph-name="Uring" unicode="&#x16e;" 
d="M126 179q0 -34 11.5 -59.5t31 -43t45.5 -26t55 -8.5q33 0 63.5 10t55.5 31t44 54.5t29 80.5l103 482h55l-103 -482q-23 -107 -83 -167.5t-171 -60.5q-39 0 -73.5 12.5t-61 36t-42 57.5t-15.5 76q0 9 1 18.5t4.5 28t10 50.5t18.5 87.5t30 139t44 204.5h55
q-26 -120 -44 -203t-29.5 -138t-18.5 -86.5t-10 -49.5t-4 -26.5t-1 -17.5zM285 765q0 24 9 44.5t24.5 36.5t36 25t44.5 9t44.5 -9t36.5 -25t25 -36.5t9 -44.5t-9 -44.5t-25 -36t-36.5 -24.5t-44.5 -9t-44.5 9t-36 24.5t-24.5 36t-9 44.5zM334 765q0 -27 19 -46t46 -19
t46.5 19t19.5 46t-19.5 46.5t-46.5 19.5t-46 -19.5t-19 -46.5z" />
    <glyph glyph-name="Utilde" unicode="&#x168;" 
d="M126 179q0 -34 11.5 -59.5t31 -43t45.5 -26t55 -8.5q33 0 63.5 10t55.5 31t44 54.5t29 80.5l103 482h55l-103 -482q-23 -107 -83 -167.5t-171 -60.5q-39 0 -73.5 12.5t-61 36t-42 57.5t-15.5 76q0 9 1 18.5t4.5 28t10 50.5t18.5 87.5t30 139t44 204.5h55
q-26 -120 -44 -203t-29.5 -138t-18.5 -86.5t-10 -49.5t-4 -26.5t-1 -17.5zM463 737l-91 66l-124 -66l14 63l113 60l91 -66l124 66l-14 -63z" />
    <glyph glyph-name="uni1EE4" unicode="&#x1ee4;" 
d="M126 179q0 -34 11.5 -59.5t31 -43t45.5 -26t55 -8.5q33 0 63.5 10t55.5 31t44 54.5t29 80.5l103 482h55l-103 -482q-23 -107 -83 -167.5t-171 -60.5q-39 0 -73.5 12.5t-61 36t-42 57.5t-15.5 76q0 9 1 18.5t4.5 28t10 50.5t18.5 87.5t30 139t44 204.5h55
q-26 -120 -44 -203t-29.5 -138t-18.5 -86.5t-10 -49.5t-4 -26.5t-1 -17.5zM194 -86h76l-17 -76h-76z" />
    <glyph glyph-name="Wacute" unicode="&#x1e82;" 
d="M406 121l202 579h54l-249 -700h-49l-6 499l-222 -499h-51l49 700h53l-41 -569l208 469h46zM281 733l12 54l264 72l-12 -54z" />
    <glyph glyph-name="Wcircumflex" unicode="&#x174;" 
d="M406 121l202 579h54l-249 -700h-49l-6 499l-222 -499h-51l49 700h53l-41 -569l208 469h46zM424 805l-167 -72l13 58l157 68l145 -77l-11 -49z" />
    <glyph glyph-name="Wdieresis" unicode="&#x1e84;" 
d="M406 121l202 579h54l-249 -700h-49l-6 499l-222 -499h-51l49 700h53l-41 -569l208 469h46zM272 837h76l-17 -76h-76zM508 837h76l-17 -76h-76z" />
    <glyph glyph-name="Wgrave" unicode="&#x1e80;" 
d="M406 121l202 579h54l-249 -700h-49l-6 499l-222 -499h-51l49 700h53l-41 -569l208 469h46zM282 811l10 48l264 -72l-10 -48z" />
    <glyph glyph-name="Ycircumflex" unicode="&#x176;" 
d="M339 291l-62 -291h-55l62 291l-149 409h56l129 -350l275 350h67zM425 805l-167 -72l13 58l157 68l145 -77l-11 -49z" />
    <glyph glyph-name="Ydieresis" unicode="&#x178;" 
d="M339 291l-62 -291h-55l62 291l-149 409h56l129 -350l275 350h67zM272 837h76l-17 -76h-76zM508 837h76l-17 -76h-76z" />
    <glyph glyph-name="Ygrave" unicode="&#x1ef2;" 
d="M339 291l-62 -291h-55l62 291l-149 409h56l129 -350l275 350h67zM282 811l10 48l264 -72l-10 -48z" />
    <glyph glyph-name="uni0232" unicode="&#x232;" 
d="M339 291l-62 -291h-55l62 291l-149 409h56l129 -350l275 350h67zM257 774l11 50h312l-11 -50h-312z" />
    <glyph glyph-name="Zacute" unicode="&#x179;" 
d="M21 0l11 52l500 596h-369l11 52h437l-11 -52l-500 -596h378l-11 -52h-446zM275 733l12 54l264 72l-12 -54z" />
    <glyph glyph-name="Zcaron" unicode="&#x17d;" 
d="M21 0l11 52l500 596h-369l11 52h437l-11 -52l-500 -596h378l-11 -52h-446zM406 787l167 72l-13 -58l-157 -68l-145 77l11 49z" />
    <glyph glyph-name="Zdotaccent" unicode="&#x17b;" 
d="M21 0l11 52l500 596h-369l11 52h437l-11 -52l-500 -596h378l-11 -52h-446zM384 837h76l-17 -76h-76z" />
    <glyph glyph-name="abreve" unicode="&#x103;" 
d="M123 360q26 90 85 130t139 40q28 0 58 -8.5t54.5 -27.5t40 -48.5t15.5 -71.5q0 -11 -0.5 -20t-4 -27t-10.5 -50t-19 -90l-40 -187h-53l15 66q-24 -34 -65.5 -55t-101.5 -21q-37 0 -67 11t-51.5 30t-33 44.5t-11.5 53.5q0 66 32 105t93 56q25 7 56 12t64.5 8t69 5t68.5 4
q5 20 6 29.5t1 19.5q0 52 -31.5 82t-93.5 30q-54 0 -98 -31.5t-64 -88.5h-53zM446 271q-87 -4 -149.5 -11.5t-94.5 -18.5q-40 -14 -58 -43.5t-18 -64.5q0 -37 28.5 -65t92.5 -28q34 0 64.5 11t54 31t40 48t23.5 62zM343 589q-40 0 -65 25t-25 63v11t2 12h47q-1 -5 -1 -13
q0 -21 13.5 -35t36.5 -14h55q31 0 52.5 20t26.5 42h52q-10 -46 -45 -78.5t-89 -32.5h-60z" />
    <glyph glyph-name="amacron" unicode="&#x101;" 
d="M123 360q26 90 85 130t139 40q28 0 58 -8.5t54.5 -27.5t40 -48.5t15.5 -71.5q0 -11 -0.5 -20t-4 -27t-10.5 -50t-19 -90l-40 -187h-53l15 66q-24 -34 -65.5 -55t-101.5 -21q-37 0 -67 11t-51.5 30t-33 44.5t-11.5 53.5q0 66 32 105t93 56q25 7 56 12t64.5 8t69 5t68.5 4
q5 20 6 29.5t1 19.5q0 52 -31.5 82t-93.5 30q-54 0 -98 -31.5t-64 -88.5h-53zM446 271q-87 -4 -149.5 -11.5t-94.5 -18.5q-40 -14 -58 -43.5t-18 -64.5q0 -37 28.5 -65t92.5 -28q34 0 64.5 11t54 31t40 48t23.5 62zM223 620l11 50h312l-11 -50h-312z" />
    <glyph glyph-name="aogonek" unicode="&#x105;" 
d="M123 360q26 90 85 130t139 40q28 0 58 -8.5t54.5 -27.5t40 -48.5t15.5 -71.5q0 -11 -0.5 -20t-4 -27t-10.5 -50t-19 -90l-40 -187q-15 -6 -32.5 -14.5t-32.5 -20t-25 -27t-10 -34.5q0 -44 46 -44q12 0 24 3l-10 -49q-9 -2 -14.5 -2.5t-11.5 -0.5q-37 0 -60 26.5t-23 59.5
q0 22 8 39t21.5 30t30.5 21t36 13l15 66q-24 -34 -65.5 -55t-101.5 -21q-37 0 -67 11t-51.5 30t-33 44.5t-11.5 53.5q0 66 32 105t93 56q25 7 56 12t64.5 8t69 5t68.5 4q5 20 6 29.5t1 19.5q0 52 -31.5 82t-93.5 30q-54 0 -98 -31.5t-64 -88.5h-53zM446 271
q-87 -4 -149.5 -11.5t-94.5 -18.5q-40 -14 -58 -43.5t-18 -64.5q0 -37 28.5 -65t92.5 -28q34 0 64.5 11t54 31t40 48t23.5 62z" />
    <glyph glyph-name="cacute" unicode="&#x107;" 
d="M524 360h-52v8q0 52 -31.5 82t-93.5 30q-60 0 -107 -38.5t-62 -108.5q-12 -56 -19 -88t-10.5 -49.5t-4.5 -26t-1 -17.5q0 -52 31.5 -82t93.5 -30q54 0 98 31.5t64 88.5h53q-26 -90 -85 -130t-139 -40q-29 0 -58.5 8.5t-54 27.5t-40 48.5t-15.5 71.5q0 11 0.5 20t4 27
t10.5 50t19 90q22 105 83.5 151t147.5 46q28 0 58 -8.5t54.5 -27.5t40 -48.5t15.5 -71.5v-14zM251 579l12 54l264 72l-12 -54z" />
    <glyph glyph-name="ccaron" unicode="&#x10d;" 
d="M524 360h-52v8q0 52 -31.5 82t-93.5 30q-60 0 -107 -38.5t-62 -108.5q-12 -56 -19 -88t-10.5 -49.5t-4.5 -26t-1 -17.5q0 -52 31.5 -82t93.5 -30q54 0 98 31.5t64 88.5h53q-26 -90 -85 -130t-139 -40q-29 0 -58.5 8.5t-54 27.5t-40 48.5t-15.5 71.5q0 11 0.5 20t4 27
t10.5 50t19 90q22 105 83.5 151t147.5 46q28 0 58 -8.5t54.5 -27.5t40 -48.5t15.5 -71.5v-14zM382 633l167 72l-13 -58l-157 -68l-145 77l11 49z" />
    <glyph glyph-name="ccircumflex" unicode="&#x109;" 
d="M524 360h-52v8q0 52 -31.5 82t-93.5 30q-60 0 -107 -38.5t-62 -108.5q-12 -56 -19 -88t-10.5 -49.5t-4.5 -26t-1 -17.5q0 -52 31.5 -82t93.5 -30q54 0 98 31.5t64 88.5h53q-26 -90 -85 -130t-139 -40q-29 0 -58.5 8.5t-54 27.5t-40 48.5t-15.5 71.5q0 11 0.5 20t4 27
t10.5 50t19 90q22 105 83.5 151t147.5 46q28 0 58 -8.5t54.5 -27.5t40 -48.5t15.5 -71.5v-14zM394 651l-167 -72l13 58l157 68l145 -77l-11 -49z" />
    <glyph glyph-name="cdotaccent" unicode="&#x10b;" 
d="M524 360h-52v8q0 52 -31.5 82t-93.5 30q-60 0 -107 -38.5t-62 -108.5q-12 -56 -19 -88t-10.5 -49.5t-4.5 -26t-1 -17.5q0 -52 31.5 -82t93.5 -30q54 0 98 31.5t64 88.5h53q-26 -90 -85 -130t-139 -40q-29 0 -58.5 8.5t-54 27.5t-40 48.5t-15.5 71.5q0 11 0.5 20t4 27
t10.5 50t19 90q22 105 83.5 151t147.5 46q28 0 58 -8.5t54.5 -27.5t40 -48.5t15.5 -71.5v-14zM359 683h76l-17 -76h-76z" />
    <glyph glyph-name="dcaron" unicode="&#x10f;" 
d="M660 574l-87 -116l-41 24l83 114l22 104h50zM217 40q60 0 107 38.5t62 108.5q12 56 19 88t10.5 49.5t4.5 26t1 17.5q0 52 -31.5 82t-93.5 30q-60 0 -107 -38.5t-62 -108.5q-12 -56 -19 -88t-10.5 -49.5t-4.5 -26t-1 -17.5q0 -52 31.5 -82t93.5 -30zM360 63
q-20 -30 -58.5 -51.5t-93.5 -21.5q-29 0 -58.5 8.5t-54 27.5t-40 48.5t-15.5 71.5q0 11 0.5 20t4 27t10.5 50t19 90q22 105 83.5 151t147.5 46q29 0 52 -8t40.5 -20t28.5 -27t16 -28l53 253h53l-149 -700h-53z" />
    <glyph glyph-name="dcroat" unicode="&#x111;" 
d="M404 63q-20 -30 -58.5 -51.5t-93.5 -21.5q-29 0 -58.5 8.5t-54 27.5t-40 48.5t-15.5 71.5q0 11 0.5 20t4 27t10.5 50t19 90q22 105 83.5 151t147.5 46q29 0 52 -8t40.5 -20t28.5 -27t16 -28l30 144h-145l9 43h145l14 66h53l-14 -66h70l-9 -43h-70l-126 -591h-53zM261 40
q60 0 107 38.5t62 108.5q12 56 19 88t10.5 49.5t4.5 26t1 17.5q0 52 -31.5 82t-93.5 30q-60 0 -107 -38.5t-62 -108.5q-12 -56 -19 -88t-10.5 -49.5t-4.5 -26t-1 -17.5q0 -52 31.5 -82t93.5 -30z" />
    <glyph glyph-name="ebreve" unicode="&#x115;" 
d="M159 253q-6 -27 -9.5 -43.5t-5.5 -27t-2.5 -17t-0.5 -13.5q0 -52 31.5 -82t93.5 -30q54 0 97.5 31.5t63.5 88.5h54q-26 -90 -85 -130t-139 -40q-29 0 -58.5 8.5t-54 27.5t-40 48.5t-15.5 71.5q0 11 0.5 20t4 27t10.5 50t19 90q22 105 83.5 151t147.5 46q28 0 58 -8.5
t54.5 -27.5t40 -48.5t15.5 -71.5q0 -9 -0.5 -16.5t-2.5 -19.5t-6 -31.5t-11 -53.5h-343zM460 303l5 25t3 17t1.5 12t0.5 11q0 52 -31.5 82t-93.5 30q-35 0 -64.5 -12.5t-52.5 -35.5t-38 -55.5t-20 -73.5h290zM346 589q-40 0 -65 25t-25 63v11t2 12h47q-1 -5 -1 -13
q0 -21 13.5 -35t36.5 -14h55q31 0 52.5 20t26.5 42h52q-10 -46 -45 -78.5t-89 -32.5h-60z" />
    <glyph glyph-name="ecaron" unicode="&#x11b;" 
d="M159 253q-6 -27 -9.5 -43.5t-5.5 -27t-2.5 -17t-0.5 -13.5q0 -52 31.5 -82t93.5 -30q54 0 97.5 31.5t63.5 88.5h54q-26 -90 -85 -130t-139 -40q-29 0 -58.5 8.5t-54 27.5t-40 48.5t-15.5 71.5q0 11 0.5 20t4 27t10.5 50t19 90q22 105 83.5 151t147.5 46q28 0 58 -8.5
t54.5 -27.5t40 -48.5t15.5 -71.5q0 -9 -0.5 -16.5t-2.5 -19.5t-6 -31.5t-11 -53.5h-343zM460 303l5 25t3 17t1.5 12t0.5 11q0 52 -31.5 82t-93.5 30q-35 0 -64.5 -12.5t-52.5 -35.5t-38 -55.5t-20 -73.5h290zM382 633l167 72l-13 -58l-157 -68l-145 77l11 49z" />
    <glyph glyph-name="emacron" unicode="&#x113;" 
d="M159 253q-6 -27 -9.5 -43.5t-5.5 -27t-2.5 -17t-0.5 -13.5q0 -52 31.5 -82t93.5 -30q54 0 97.5 31.5t63.5 88.5h54q-26 -90 -85 -130t-139 -40q-29 0 -58.5 8.5t-54 27.5t-40 48.5t-15.5 71.5q0 11 0.5 20t4 27t10.5 50t19 90q22 105 83.5 151t147.5 46q28 0 58 -8.5
t54.5 -27.5t40 -48.5t15.5 -71.5q0 -9 -0.5 -16.5t-2.5 -19.5t-6 -31.5t-11 -53.5h-343zM460 303l5 25t3 17t1.5 12t0.5 11q0 52 -31.5 82t-93.5 30q-35 0 -64.5 -12.5t-52.5 -35.5t-38 -55.5t-20 -73.5h290zM226 620l11 50h312l-11 -50h-312z" />
    <glyph glyph-name="eogonek" unicode="&#x119;" 
d="M303 -186q-9 -2 -14.5 -2.5t-11.5 -0.5q-37 0 -60 26.5t-23 59.5t14.5 56.5t34.5 37.5q-27 2 -54.5 11.5t-49.5 28.5t-36 47.5t-14 67.5q0 11 0.5 20t4 27t10.5 50t19 90q22 105 83.5 151t147.5 46q28 0 58 -8.5t54.5 -27.5t40 -48.5t15.5 -71.5q0 -9 -0.5 -16.5
t-2.5 -19.5t-6 -31.5t-11 -53.5h-343q-6 -27 -9.5 -43.5t-5.5 -27t-2.5 -17t-0.5 -13.5q0 -52 31.5 -82t93.5 -30q54 0 97.5 31.5t63.5 88.5h54q-17 -60 -48.5 -97t-74.5 -55q-16 -7 -36 -16t-37.5 -21.5t-29.5 -29t-12 -37.5q0 -44 46 -44q12 0 24 3zM460 303l5 25t3 17
t1.5 12t0.5 11q0 52 -31.5 82t-93.5 30q-35 0 -64.5 -12.5t-52.5 -35.5t-38 -55.5t-20 -73.5h290z" />
    <glyph glyph-name="edotaccent" unicode="&#x117;" 
d="M159 253q-6 -27 -9.5 -43.5t-5.5 -27t-2.5 -17t-0.5 -13.5q0 -52 31.5 -82t93.5 -30q54 0 97.5 31.5t63.5 88.5h54q-26 -90 -85 -130t-139 -40q-29 0 -58.5 8.5t-54 27.5t-40 48.5t-15.5 71.5q0 11 0.5 20t4 27t10.5 50t19 90q22 105 83.5 151t147.5 46q28 0 58 -8.5
t54.5 -27.5t40 -48.5t15.5 -71.5q0 -9 -0.5 -16.5t-2.5 -19.5t-6 -31.5t-11 -53.5h-343zM460 303l5 25t3 17t1.5 12t0.5 11q0 52 -31.5 82t-93.5 30q-35 0 -64.5 -12.5t-52.5 -35.5t-38 -55.5t-20 -73.5h290zM358 683h76l-17 -76h-76z" />
    <glyph glyph-name="gbreve" unicode="&#x11f;" 
d="M98 -32q0 -52 31.5 -82t93.5 -30q60 0 107 38.5t62 108.5l16 74q-20 -30 -58.5 -51.5t-93.5 -21.5q-29 0 -58.5 8.5t-54 27.5t-40 48.5t-15.5 71.5q0 10 1.5 22t5 30.5t9.5 47.5t15 73q22 105 83.5 151t147.5 46q29 0 52 -8t40.5 -20t28.5 -27t16 -28l14 69h53l-109 -513
q-23 -105 -84 -151t-147 -46q-29 0 -58.5 8.5t-54 27.5t-40 48.5t-15.5 71.5v14h52v-8zM265 54q60 0 106 38.5t63 108.5q10 42 16.5 71.5t10 49t4.5 30.5t1 16q0 52 -31.5 82t-93.5 30q-60 0 -107 -38.5t-62 -108.5q-8 -38 -14 -65.5t-10 -47t-6 -32.5t-2 -22
q0 -52 31.5 -82t93.5 -30zM344 589q-40 0 -65 25t-25 63v11t2 12h47q-1 -5 -1 -13q0 -21 13.5 -35t36.5 -14h55q31 0 52.5 20t26.5 42h52q-10 -46 -45 -78.5t-89 -32.5h-60z" />
    <glyph glyph-name="gcircumflex" unicode="&#x11d;" 
d="M98 -32q0 -52 31.5 -82t93.5 -30q60 0 107 38.5t62 108.5l16 74q-20 -30 -58.5 -51.5t-93.5 -21.5q-29 0 -58.5 8.5t-54 27.5t-40 48.5t-15.5 71.5q0 10 1.5 22t5 30.5t9.5 47.5t15 73q22 105 83.5 151t147.5 46q29 0 52 -8t40.5 -20t28.5 -27t16 -28l14 69h53l-109 -513
q-23 -105 -84 -151t-147 -46q-29 0 -58.5 8.5t-54 27.5t-40 48.5t-15.5 71.5v14h52v-8zM265 54q60 0 106 38.5t63 108.5q10 42 16.5 71.5t10 49t4.5 30.5t1 16q0 52 -31.5 82t-93.5 30q-60 0 -107 -38.5t-62 -108.5q-8 -38 -14 -65.5t-10 -47t-6 -32.5t-2 -22
q0 -52 31.5 -82t93.5 -30zM391 651l-167 -72l13 58l157 68l145 -77l-11 -49z" />
    <glyph glyph-name="gcommaaccent" unicode="&#x123;" 
d="M98 -32q0 -52 31.5 -82t93.5 -30q60 0 107 38.5t62 108.5l16 74q-20 -30 -58.5 -51.5t-93.5 -21.5q-29 0 -58.5 8.5t-54 27.5t-40 48.5t-15.5 71.5q0 10 1.5 22t5 30.5t9.5 47.5t15 73q22 105 83.5 151t147.5 46q29 0 52 -8t40.5 -20t28.5 -27t16 -28l14 69h53l-109 -513
q-23 -105 -84 -151t-147 -46q-29 0 -58.5 8.5t-54 27.5t-40 48.5t-15.5 71.5v14h52v-8zM265 54q60 0 106 38.5t63 108.5q10 42 16.5 71.5t10 49t4.5 30.5t1 16q0 52 -31.5 82t-93.5 30q-60 0 -107 -38.5t-62 -108.5q-8 -38 -14 -65.5t-10 -47t-6 -32.5t-2 -22
q0 -52 31.5 -82t93.5 -30zM416.975 719.956l35.998 -36.998l-99.9941 -98.9932l-35.998 35.9971z" />
    <glyph glyph-name="gdotaccent" unicode="&#x121;" 
d="M98 -32q0 -52 31.5 -82t93.5 -30q60 0 107 38.5t62 108.5l16 74q-20 -30 -58.5 -51.5t-93.5 -21.5q-29 0 -58.5 8.5t-54 27.5t-40 48.5t-15.5 71.5q0 10 1.5 22t5 30.5t9.5 47.5t15 73q22 105 83.5 151t147.5 46q29 0 52 -8t40.5 -20t28.5 -27t16 -28l14 69h53l-109 -513
q-23 -105 -84 -151t-147 -46q-29 0 -58.5 8.5t-54 27.5t-40 48.5t-15.5 71.5v14h52v-8zM265 54q60 0 106 38.5t63 108.5q10 42 16.5 71.5t10 49t4.5 30.5t1 16q0 52 -31.5 82t-93.5 30q-60 0 -107 -38.5t-62 -108.5q-8 -38 -14 -65.5t-10 -47t-6 -32.5t-2 -22
q0 -52 31.5 -82t93.5 -30zM356 683h76l-17 -76h-76z" />
    <glyph glyph-name="hbar" unicode="&#x127;" 
d="M354 530q28 0 58 -8.5t54.5 -27.5t40 -48.5t15.5 -71.5q0 -11 -0.5 -20t-4 -27t-10.5 -50t-19 -90l-40 -187h-53l40 187q12 56 19 88t10.5 49.5t4.5 26t1 17.5q0 52 -31.5 82t-93.5 30q-60 0 -107 -38.5t-62 -108.5l-71 -333h-53l126 591h-71l9 43h71l14 66h53l-14 -66
h144l-9 -43h-145l-28 -134q20 30 58.5 51.5t93.5 21.5z" />
    <glyph glyph-name="hcircumflex" unicode="&#x125;" 
d="M354 530q28 0 58 -8.5t54.5 -27.5t40 -48.5t15.5 -71.5q0 -11 -0.5 -20t-4 -27t-10.5 -50t-19 -90l-40 -187h-53l40 187q12 56 19 88t10.5 49.5t4.5 26t1 17.5q0 52 -31.5 82t-93.5 30q-60 0 -107 -38.5t-62 -108.5l-71 -333h-53l149 700h53l-52 -243q20 30 58.5 51.5
t93.5 21.5zM425 805l-167 -72l13 58l157 68l145 -77l-11 -49z" />
    <glyph glyph-name="dotlessi" unicode="&#x131;" 
d="M203 516h185l-99 -466h182l-11 -50h-417l11 50h182l88 416h-132z" />
    <glyph glyph-name="ibreve" unicode="&#x12d;" 
d="M203 516h185l-99 -466h182l-11 -50h-417l11 50h182l88 416h-132zM347 589q-40 0 -65 25t-25 63v11t2 12h47q-1 -5 -1 -13q0 -21 13.5 -35t36.5 -14h55q31 0 52.5 20t26.5 42h52q-10 -46 -45 -78.5t-89 -32.5h-60z" />
    <glyph glyph-name="imacron" unicode="&#x12b;" 
d="M203 516h185l-99 -466h182l-11 -50h-417l11 50h182l88 416h-132zM227 620l11 50h312l-11 -50h-312z" />
    <glyph glyph-name="iogonek" unicode="&#x12f;" 
d="M203 516h185l-99 -466h182l-11 -50h-417l11 50h182l88 416h-132zM339 700h98l-21 -98h-98zM420 -186q-9 -2 -14.5 -2.5t-11.5 -0.5q-37 0 -60 26.5t-23 59.5q0 40 20 66t46 37h83q-15 -6 -32.5 -14.5t-32.5 -20t-25 -27t-10 -34.5q0 -44 46 -44q12 0 24 3z" />
    <glyph glyph-name="itilde" unicode="&#x129;" 
d="M203 516h185l-99 -466h182l-11 -50h-417l11 50h182l88 416h-132zM432 580l-91 66l-124 -66l14 63l113 60l91 -66l124 66l-14 -63z" />
    <glyph glyph-name="uni1ECB" unicode="&#x1ecb;" 
d="M203 516h185l-99 -466h182l-11 -50h-417l11 50h182l88 416h-132zM339 700h98l-21 -98h-98zM196 -86h76l-17 -76h-76z" />
    <glyph glyph-name="dotlessj" unicode="&#x237;" 
d="M171 466l11 50h270l-127 -597q-5 -25 -11.5 -44t-20 -32t-36.5 -20t-61 -7h-213l11 50h213q32 0 45.5 12.5t19.5 40.5l116 547h-217z" />
    <glyph glyph-name="jcircumflex" unicode="&#x135;" 
d="M458 651l-167 -72l13 58l157 68l145 -77l-11 -49zM171 466l11 50h270l-127 -597q-5 -25 -11.5 -44t-20 -32t-36.5 -20t-61 -7h-213l11 50h213q32 0 45.5 12.5t19.5 40.5l116 547h-217z" />
    <glyph glyph-name="kcommaaccent" unicode="&#x137;" 
d="M186 252l299 264h73l-231 -204l146 -312h-56l-130 277l-118 -104l-37 -173h-53l149 700h53zM205 -189l-36 37l100 99l36 -36z" />
    <glyph glyph-name="lacute" unicode="&#x13a;" 
d="M239 700h185l-138 -650h182l-11 -50h-417l11 50h182l127 600h-132zM280 733l12 54l264 72l-12 -54z" />
    <glyph glyph-name="lcaron" unicode="&#x13e;" 
d="M536 574l-87 -116l-41 24l83 114l22 104h50zM239 700h185l-138 -650h182l-11 -50h-417l11 50h182l127 600h-132z" />
    <glyph glyph-name="lcommaaccent" unicode="&#x13c;" 
d="M239 700h185l-138 -650h182l-11 -50h-417l11 50h182l127 600h-132zM191 -189l-36 37l100 99l36 -36z" />
    <glyph glyph-name="ldot" unicode="&#x140;" 
d="M239 700h185l-138 -650h182l-11 -50h-417l11 50h182l127 600h-132zM470 415h76l-17 -76h-76z" />
    <glyph glyph-name="lslash" unicode="&#x142;" 
d="M239 700h185l-61 -288l59 29l15 -41l-86 -42l-65 -308h182l-11 -50h-417l11 50h182l59 279l-57 -28l-15 41l83 41l57 267h-132z" />
    <glyph glyph-name="eng" unicode="&#x14b;" 
d="M202 457q20 30 58.5 51.5t93.5 21.5q28 0 58 -8.5t54.5 -27.5t40 -48.5t15.5 -71.5q0 -11 -0.5 -20t-4 -27t-10.5 -50t-19 -90l-57 -268q-5 -25 -11.5 -44t-20 -32t-36.5 -20t-61 -7h-10l11 50h10q32 0 45.5 12.5t19.5 40.5l57 268q12 56 19 88t10.5 49.5t4.5 26t1 17.5
q0 52 -31.5 82t-93.5 30q-60 0 -107 -38.5t-62 -108.5l-71 -333h-53l110 516h53z" />
    <glyph glyph-name="nacute" unicode="&#x144;" 
d="M354 530q28 0 58 -8.5t54.5 -27.5t40 -48.5t15.5 -71.5q0 -11 -0.5 -20t-4 -27t-10.5 -50t-19 -90l-40 -187h-53l40 187q12 56 19 88t10.5 49.5t4.5 26t1 17.5q0 52 -31.5 82t-93.5 30q-60 0 -107 -38.5t-62 -108.5l-71 -333h-53l110 516h53l-13 -59q20 30 58.5 51.5
t93.5 21.5zM250 579l12 54l264 72l-12 -54z" />
    <glyph glyph-name="ncaron" unicode="&#x148;" 
d="M354 530q28 0 58 -8.5t54.5 -27.5t40 -48.5t15.5 -71.5q0 -11 -0.5 -20t-4 -27t-10.5 -50t-19 -90l-40 -187h-53l40 187q12 56 19 88t10.5 49.5t4.5 26t1 17.5q0 52 -31.5 82t-93.5 30q-60 0 -107 -38.5t-62 -108.5l-71 -333h-53l110 516h53l-13 -59q20 30 58.5 51.5
t93.5 21.5zM382 633l167 72l-13 -58l-157 -68l-145 77l11 49z" />
    <glyph glyph-name="ncommaaccent" unicode="&#x146;" 
d="M354 530q28 0 58 -8.5t54.5 -27.5t40 -48.5t15.5 -71.5q0 -11 -0.5 -20t-4 -27t-10.5 -50t-19 -90l-40 -187h-53l40 187q12 56 19 88t10.5 49.5t4.5 26t1 17.5q0 52 -31.5 82t-93.5 30q-60 0 -107 -38.5t-62 -108.5l-71 -333h-53l110 516h53l-13 -59q20 30 58.5 51.5
t93.5 21.5zM193 -189l-36 37l100 99l36 -36z" />
    <glyph glyph-name="oe" unicode="&#x153;" 
d="M144 -10q-55 0 -88.5 32t-33.5 79q0 7 4 29.5t9.5 52.5t12.5 64t13.5 63.5t11 51.5t6.5 29q7 30 17.5 55.5t28.5 44t45.5 29t68.5 10.5q37 0 63.5 -16.5t39.5 -39.5q18 23 47.5 39.5t76.5 16.5q55 0 88.5 -32t33.5 -79q0 -6 -2.5 -22.5t-7 -39.5t-9.5 -50t-11 -54h-228
q-6 -26 -11 -51l-9 -45t-6.5 -34t-2.5 -18q0 -32 21.5 -48.5t55.5 -16.5q39 0 64.5 21.5t34.5 66.5q1 3 2 8q1 4 2 10t3 14h54l-7 -31q-7 -30 -17.5 -55.5t-28.5 -44t-45.5 -29t-68.5 -10.5q-37 0 -63.5 16.5t-39.5 39.5q-18 -23 -47.5 -39.5t-76.5 -16.5zM133 392
q-17 -75 -30 -136q-6 -26 -11 -51.5t-9 -46.5t-6.5 -35t-2.5 -18q0 -32 21.5 -48.5t55.5 -16.5q39 0 64.5 21.5t34.5 66.5q16 75 29 136q6 26 11 51.5t9.5 46.5t7 35t2.5 18q0 32 -21.5 48.5t-55.5 16.5q-39 0 -64.5 -21.5t-34.5 -66.5zM515 303q8 42 14.5 74t6.5 38
q0 32 -21.5 48.5t-55.5 16.5q-39 0 -64.5 -21.5t-34.5 -66.5q-2 -12 -5 -26q-2 -12 -6 -28.5t-8 -34.5h174z" />
    <glyph glyph-name="obreve" unicode="&#x14f;" 
d="M175 333q-12 -56 -19 -88t-10.5 -49.5t-4.5 -26t-1 -17.5q0 -52 31.5 -82t93.5 -30q60 0 107 38.5t62 108.5q12 56 19 88t10.5 49.5t4.5 26t1 17.5q0 52 -31.5 82t-93.5 30q-60 0 -107 -38.5t-62 -108.5zM487 187q-23 -105 -84 -151t-147 -46q-29 0 -58.5 8.5t-54 27.5
t-40 48.5t-15.5 71.5q0 11 0.5 20t4 27t10.5 50t19 90q22 105 83.5 151t147.5 46q28 0 58 -8.5t54.5 -27.5t40 -48.5t15.5 -71.5q0 -11 -0.5 -20t-4 -27t-10.5 -50t-19 -90zM345 589q-40 0 -65 25t-25 63v11t2 12h47q-1 -5 -1 -13q0 -21 13.5 -35t36.5 -14h55q31 0 52.5 20
t26.5 42h52q-10 -46 -45 -78.5t-89 -32.5h-60z" />
    <glyph glyph-name="ohungarumlaut" unicode="&#x151;" 
d="M175 333q-12 -56 -19 -88t-10.5 -49.5t-4.5 -26t-1 -17.5q0 -52 31.5 -82t93.5 -30q60 0 107 38.5t62 108.5q12 56 19 88t10.5 49.5t4.5 26t1 17.5q0 52 -31.5 82t-93.5 30q-60 0 -107 -38.5t-62 -108.5zM487 187q-23 -105 -84 -151t-147 -46q-29 0 -58.5 8.5t-54 27.5
t-40 48.5t-15.5 71.5q0 11 0.5 20t4 27t10.5 50t19 90q22 105 83.5 151t147.5 46q28 0 58 -8.5t54.5 -27.5t40 -48.5t15.5 -71.5q0 -11 -0.5 -20t-4 -27t-10.5 -50t-19 -90zM224 599l12 54l126 35l-12 -54zM410 599l12 54l126 35l-12 -54z" />
    <glyph glyph-name="omacron" unicode="&#x14d;" 
d="M175 333q-12 -56 -19 -88t-10.5 -49.5t-4.5 -26t-1 -17.5q0 -52 31.5 -82t93.5 -30q60 0 107 38.5t62 108.5q12 56 19 88t10.5 49.5t4.5 26t1 17.5q0 52 -31.5 82t-93.5 30q-60 0 -107 -38.5t-62 -108.5zM487 187q-23 -105 -84 -151t-147 -46q-29 0 -58.5 8.5t-54 27.5
t-40 48.5t-15.5 71.5q0 11 0.5 20t4 27t10.5 50t19 90q22 105 83.5 151t147.5 46q28 0 58 -8.5t54.5 -27.5t40 -48.5t15.5 -71.5q0 -11 -0.5 -20t-4 -27t-10.5 -50t-19 -90zM225 620l11 50h312l-11 -50h-312z" />
    <glyph glyph-name="uni1ECD" unicode="&#x1ecd;" 
d="M175 333q-12 -56 -19 -88t-10.5 -49.5t-4.5 -26t-1 -17.5q0 -52 31.5 -82t93.5 -30q60 0 107 38.5t62 108.5q12 56 19 88t10.5 49.5t4.5 26t1 17.5q0 52 -31.5 82t-93.5 30q-60 0 -107 -38.5t-62 -108.5zM487 187q-23 -105 -84 -151t-147 -46q-29 0 -58.5 8.5t-54 27.5
t-40 48.5t-15.5 71.5q0 11 0.5 20t4 27t10.5 50t19 90q22 105 83.5 151t147.5 46q28 0 58 -8.5t54.5 -27.5t40 -48.5t15.5 -71.5q0 -11 -0.5 -20t-4 -27t-10.5 -50t-19 -90zM194 -86h76l-17 -76h-76z" />
    <glyph glyph-name="racute" unicode="&#x155;" 
d="M165 466l11 50h167l-14 -64q20 30 58.5 51.5t93.5 21.5h114l-11 -50h-112q-60 0 -107 -38.5t-62 -108.5l-59 -278h201l-11 -50h-417l11 50h163l88 416h-114zM250 579l12 54l264 72l-12 -54z" />
    <glyph glyph-name="rcaron" unicode="&#x159;" 
d="M165 466l11 50h167l-14 -64q20 30 58.5 51.5t93.5 21.5h114l-11 -50h-112q-60 0 -107 -38.5t-62 -108.5l-59 -278h201l-11 -50h-417l11 50h163l88 416h-114zM382 633l167 72l-13 -58l-157 -68l-145 77l11 49z" />
    <glyph glyph-name="rcommaaccent" unicode="&#x157;" 
d="M165 466l11 50h167l-14 -64q20 30 58.5 51.5t93.5 21.5h114l-11 -50h-112q-60 0 -107 -38.5t-62 -108.5l-59 -278h201l-11 -50h-417l11 50h163l88 416h-114zM168 -189l-36 37l100 99l36 -36z" />
    <glyph glyph-name="sacute" unicode="&#x15b;" 
d="M455 368v8q0 27 -11 46.5t-29.5 32t-42 19t-47.5 6.5t-47 -6t-41.5 -18t-29.5 -29.5t-11 -39.5q0 -36 19 -54.5t61 -31.5l93 -28q48 -14 77 -46t29 -79q0 -81 -54.5 -119.5t-144.5 -38.5q-36 0 -70 9.5t-60.5 29t-42.5 49t-16 70.5v13h52v-11q0 -29 11.5 -49.5t31.5 -34
t46.5 -20t56.5 -6.5q26 0 50.5 6t44 18.5t31.5 31.5t12 45q0 35 -21.5 55t-53.5 29l-100 30q-46 11 -75 45t-29 81q0 37 15.5 65t41 47t57.5 28t66 9q33 0 66 -9t59 -27.5t42 -46.5t16 -66v-13h-52zM246 579l12 54l264 72l-12 -54z" />
    <glyph glyph-name="scaron" unicode="&#x161;" 
d="M455 368v8q0 27 -11 46.5t-29.5 32t-42 19t-47.5 6.5t-47 -6t-41.5 -18t-29.5 -29.5t-11 -39.5q0 -36 19 -54.5t61 -31.5l93 -28q48 -14 77 -46t29 -79q0 -81 -54.5 -119.5t-144.5 -38.5q-36 0 -70 9.5t-60.5 29t-42.5 49t-16 70.5v13h52v-11q0 -29 11.5 -49.5t31.5 -34
t46.5 -20t56.5 -6.5q26 0 50.5 6t44 18.5t31.5 31.5t12 45q0 35 -21.5 55t-53.5 29l-100 30q-46 11 -75 45t-29 81q0 37 15.5 65t41 47t57.5 28t66 9q33 0 66 -9t59 -27.5t42 -46.5t16 -66v-13h-52zM378 633l167 72l-13 -58l-157 -68l-145 77l11 49z" />
    <glyph glyph-name="scedilla" unicode="&#x15f;" 
d="M455 368v8q0 27 -11 46.5t-29.5 32t-42 19t-47.5 6.5t-47 -6t-41.5 -18t-29.5 -29.5t-11 -39.5q0 -36 19 -54.5t61 -31.5l93 -28q48 -14 77 -46t29 -79q0 -81 -54.5 -119.5t-144.5 -38.5q-36 0 -70 9.5t-60.5 29t-42.5 49t-16 70.5v13h52v-11q0 -29 11.5 -49.5t31.5 -34
t46.5 -20t56.5 -6.5q26 0 50.5 6t44 18.5t31.5 31.5t12 45q0 35 -21.5 55t-53.5 29l-100 30q-46 11 -75 45t-29 81q0 37 15.5 65t41 47t57.5 28t66 9q33 0 66 -9t59 -27.5t42 -46.5t16 -66v-13h-52zM225 -134l18 84h50l-29 -134h-134l11 50h84z" />
    <glyph glyph-name="scircumflex" unicode="&#x15d;" 
d="M455 368v8q0 27 -11 46.5t-29.5 32t-42 19t-47.5 6.5t-47 -6t-41.5 -18t-29.5 -29.5t-11 -39.5q0 -36 19 -54.5t61 -31.5l93 -28q48 -14 77 -46t29 -79q0 -81 -54.5 -119.5t-144.5 -38.5q-36 0 -70 9.5t-60.5 29t-42.5 49t-16 70.5v13h52v-11q0 -29 11.5 -49.5t31.5 -34
t46.5 -20t56.5 -6.5q26 0 50.5 6t44 18.5t31.5 31.5t12 45q0 35 -21.5 55t-53.5 29l-100 30q-46 11 -75 45t-29 81q0 37 15.5 65t41 47t57.5 28t66 9q33 0 66 -9t59 -27.5t42 -46.5t16 -66v-13h-52zM390 651l-167 -72l13 58l157 68l145 -77l-11 -49z" />
    <glyph glyph-name="scommaaccent" unicode="&#x219;" 
d="M455 368v8q0 27 -11 46.5t-29.5 32t-42 19t-47.5 6.5t-47 -6t-41.5 -18t-29.5 -29.5t-11 -39.5q0 -36 19 -54.5t61 -31.5l93 -28q48 -14 77 -46t29 -79q0 -81 -54.5 -119.5t-144.5 -38.5q-36 0 -70 9.5t-60.5 29t-42.5 49t-16 70.5v13h52v-11q0 -29 11.5 -49.5t31.5 -34
t46.5 -20t56.5 -6.5q26 0 50.5 6t44 18.5t31.5 31.5t12 45q0 35 -21.5 55t-53.5 29l-100 30q-46 11 -75 45t-29 81q0 37 15.5 65t41 47t57.5 28t66 9q33 0 66 -9t59 -27.5t42 -46.5t16 -66v-13h-52zM209 -189l-36 37l100 99l36 -36z" />
    <glyph glyph-name="tbar" unicode="&#x167;" 
d="M137 466l11 50h147l25 117h53l-25 -117h217l-11 -50h-217l-32 -149h218l-9 -43h-219q-13 -61 -20.5 -98t-11.5 -57.5t-5 -28.5t-1 -12q0 -15 10 -21.5t26 -6.5h173l-11 -50h-159q-47 0 -69 20.5t-22 55.5q0 6 1.5 18t6 34.5t12 57.5t18.5 88h-146l9 43h146l32 149h-147z
" />
    <glyph glyph-name="tcaron" unicode="&#x165;" 
d="M453 625l16 75h50l-21 -97l-24 -32h-61zM137 466l11 50h147l25 117h53l-25 -117h217l-11 -50h-217q-18 -85 -31 -146t-22 -103t-14.5 -67.5t-8 -40.5t-3.5 -21.5t-1 -9.5q0 -15 10 -21.5t26 -6.5h173l-11 -50h-159q-47 0 -69 20.5t-22 55.5q0 9 3.5 28.5t12 62t24 114.5
t39.5 185h-147z" />
    <glyph glyph-name="uni0163" unicode="&#x163;" 
d="M137 466l11 50h147l25 117h53l-25 -117h217l-11 -50h-217q-18 -85 -31 -146t-22 -103t-14.5 -67.5t-8 -40.5t-3.5 -21.5t-1 -9.5q0 -15 10 -21.5t26 -6.5h173l-11 -50h-159q-47 0 -69 20.5t-22 55.5q0 9 3.5 28.5t12 62t24 114.5t39.5 185h-147zM263 -189l-36 37l100 99
l36 -36z" />
    <glyph glyph-name="tcommaaccent" unicode="&#x21b;" 
d="M137 466l11 50h147l25 117h53l-25 -117h217l-11 -50h-217q-18 -85 -31 -146t-22 -103t-14.5 -67.5t-8 -40.5t-3.5 -21.5t-1 -9.5q0 -15 10 -21.5t26 -6.5h173l-11 -50h-159q-47 0 -69 20.5t-22 55.5q0 9 3.5 28.5t12 62t24 114.5t39.5 185h-147zM263 -189l-36 37l100 99
l36 -36z" />
    <glyph glyph-name="ubreve" unicode="&#x16d;" 
d="M258 -10q-29 0 -58.5 9t-54 28t-40 48.5t-15.5 70.5q0 10 1 20.5t4.5 29.5t10 50.5t17.5 82.5l40 187h53l-40 -187q-11 -49 -17.5 -79t-10 -49t-5 -29.5t-1.5 -19.5q0 -51 31 -81.5t91 -30.5q28 0 54.5 10t48.5 28.5t38 46t24 62.5l70 329h53l-110 -516h-53l14 63
q-8 -13 -22.5 -26t-33 -23.5t-41.5 -17t-48 -6.5zM343 589q-40 0 -65 25t-25 63v11t2 12h47q-1 -5 -1 -13q0 -21 13.5 -35t36.5 -14h55q31 0 52.5 20t26.5 42h52q-10 -46 -45 -78.5t-89 -32.5h-60z" />
    <glyph glyph-name="uhungarumlaut" unicode="&#x171;" 
d="M258 -10q-29 0 -58.5 9t-54 28t-40 48.5t-15.5 70.5q0 10 1 20.5t4.5 29.5t10 50.5t17.5 82.5l40 187h53l-40 -187q-11 -49 -17.5 -79t-10 -49t-5 -29.5t-1.5 -19.5q0 -51 31 -81.5t91 -30.5q28 0 54.5 10t48.5 28.5t38 46t24 62.5l70 329h53l-110 -516h-53l14 63
q-8 -13 -22.5 -26t-33 -23.5t-41.5 -17t-48 -6.5zM223 599l12 54l126 35l-12 -54zM409 599l12 54l126 35l-12 -54z" />
    <glyph glyph-name="umacron" unicode="&#x16b;" 
d="M258 -10q-29 0 -58.5 9t-54 28t-40 48.5t-15.5 70.5q0 10 1 20.5t4.5 29.5t10 50.5t17.5 82.5l40 187h53l-40 -187q-11 -49 -17.5 -79t-10 -49t-5 -29.5t-1.5 -19.5q0 -51 31 -81.5t91 -30.5q28 0 54.5 10t48.5 28.5t38 46t24 62.5l70 329h53l-110 -516h-53l14 63
q-8 -13 -22.5 -26t-33 -23.5t-41.5 -17t-48 -6.5zM223 620l11 50h312l-11 -50h-312z" />
    <glyph glyph-name="uogonek" unicode="&#x173;" 
d="M402 -186q-9 -2 -14.5 -2.5t-11.5 -0.5q-37 0 -60 26.5t-23 59.5q0 22 8 39t21.5 30t30.5 21t36 13l14 63q-8 -13 -22.5 -26t-33 -23.5t-41.5 -17t-48 -6.5q-29 0 -58.5 9t-54 28t-40 48.5t-15.5 70.5q0 10 1 20.5t4.5 29.5t10 50.5t17.5 82.5l40 187h53l-40 -187
q-11 -49 -17.5 -79t-10 -49t-5 -29.5t-1.5 -19.5q0 -51 31 -81.5t91 -30.5q28 0 54.5 10t48.5 28.5t38 46t24 62.5l70 329h53l-110 -516q-15 -6 -32.5 -14.5t-32.5 -20t-25 -27t-10 -34.5q0 -44 46 -44q12 0 24 3z" />
    <glyph glyph-name="uring" unicode="&#x16f;" 
d="M258 -10q-29 0 -58.5 9t-54 28t-40 48.5t-15.5 70.5q0 10 1 20.5t4.5 29.5t10 50.5t17.5 82.5l40 187h53l-40 -187q-11 -49 -17.5 -79t-10 -49t-5 -29.5t-1.5 -19.5q0 -51 31 -81.5t91 -30.5q28 0 54.5 10t48.5 28.5t38 46t24 62.5l70 329h53l-110 -516h-53l14 63
q-8 -13 -22.5 -26t-33 -23.5t-41.5 -17t-48 -6.5zM246 595q0 24 9 44.5t24.5 36.5t36 25t44.5 9t44.5 -9t36.5 -25t25 -36.5t9 -44.5t-9 -44.5t-25 -36t-36.5 -24.5t-44.5 -9t-44.5 9t-36 24.5t-24.5 36t-9 44.5zM295 595q0 -27 19 -46t46 -19t46.5 19t19.5 46t-19.5 46.5
t-46.5 19.5t-46 -19.5t-19 -46.5z" />
    <glyph glyph-name="utilde" unicode="&#x169;" 
d="M258 -10q-29 0 -58.5 9t-54 28t-40 48.5t-15.5 70.5q0 10 1 20.5t4.5 29.5t10 50.5t17.5 82.5l40 187h53l-40 -187q-11 -49 -17.5 -79t-10 -49t-5 -29.5t-1.5 -19.5q0 -51 31 -81.5t91 -30.5q28 0 54.5 10t48.5 28.5t38 46t24 62.5l70 329h53l-110 -516h-53l14 63
q-8 -13 -22.5 -26t-33 -23.5t-41.5 -17t-48 -6.5zM428 580l-91 66l-124 -66l14 63l113 60l91 -66l124 66l-14 -63z" />
    <glyph glyph-name="uni1EE5" unicode="&#x1ee5;" 
d="M258 -10q-29 0 -58.5 9t-54 28t-40 48.5t-15.5 70.5q0 10 1 20.5t4.5 29.5t10 50.5t17.5 82.5l40 187h53l-40 -187q-11 -49 -17.5 -79t-10 -49t-5 -29.5t-1.5 -19.5q0 -51 31 -81.5t91 -30.5q28 0 54.5 10t48.5 28.5t38 46t24 62.5l70 329h53l-110 -516h-53l14 63
q-8 -13 -22.5 -26t-33 -23.5t-41.5 -17t-48 -6.5zM191 -86h76l-17 -76h-76z" />
    <glyph glyph-name="wacute" unicode="&#x1e83;" 
d="M410 97l150 419h53l-192 -516h-46l-42 368l-208 -368h-46l26 516h52l-25 -412l184 332h52zM248 579l12 54l264 72l-12 -54z" />
    <glyph glyph-name="wcircumflex" unicode="&#x175;" 
d="M410 97l150 419h53l-192 -516h-46l-42 368l-208 -368h-46l26 516h52l-25 -412l184 332h52zM392 651l-167 -72l13 58l157 68l145 -77l-11 -49z" />
    <glyph glyph-name="wdieresis" unicode="&#x1e85;" 
d="M410 97l150 419h53l-192 -516h-46l-42 368l-208 -368h-46l26 516h52l-25 -412l184 332h52zM239 683h76l-17 -76h-76zM475 683h76l-17 -76h-76z" />
    <glyph glyph-name="wgrave" unicode="&#x1e81;" 
d="M410 97l150 419h53l-192 -516h-46l-42 368l-208 -368h-46l26 516h52l-25 -412l184 332h52zM250 657l10 48l264 -72l-10 -48z" />
    <glyph glyph-name="ycircumflex" unicode="&#x177;" 
d="M144 516h52l66 -444l252 444h60l-342 -597q-12 -22 -24 -40.5t-26.5 -32.5t-34 -22t-47.5 -8h-42l11 50h43q26 0 39.5 17t27.5 42l42 74zM393 651l-167 -72l13 58l157 68l145 -77l-11 -49z" />
    <glyph glyph-name="ygrave" unicode="&#x1ef3;" 
d="M144 516h52l66 -444l252 444h60l-342 -597q-12 -22 -24 -40.5t-26.5 -32.5t-34 -22t-47.5 -8h-42l11 50h43q26 0 39.5 17t27.5 42l42 74zM249 657l10 48l264 -72l-10 -48z" />
    <glyph glyph-name="uni0233" unicode="&#x233;" 
d="M144 516h52l66 -444l252 444h60l-342 -597q-12 -22 -24 -40.5t-26.5 -32.5t-34 -22t-47.5 -8h-42l11 50h43q26 0 39.5 17t27.5 42l42 74zM225 620l11 50h312l-11 -50h-312z" />
    <glyph glyph-name="zacute" unicode="&#x17a;" 
d="M134 50h320l-11 -50h-389l11 50l400 416h-307l11 50h376l-11 -50zM247 579l12 54l264 72l-12 -54z" />
    <glyph glyph-name="zcaron" unicode="&#x17e;" 
d="M134 50h320l-11 -50h-389l11 50l400 416h-307l11 50h376l-11 -50zM379 633l167 72l-13 -58l-157 -68l-145 77l11 49z" />
    <glyph glyph-name="zdotaccent" unicode="&#x17c;" 
d="M134 50h320l-11 -50h-389l11 50l400 416h-307l11 50h376l-11 -50zM355 683h76l-17 -76h-76z" />
    <glyph glyph-name="ellipsis" unicode="&#x2026;" 
d="M225 84h84l-17 -84h-84zM427 84h84l-17 -84h-84zM23 84h84l-17 -84h-84z" />
    <glyph glyph-name="endash" unicode="&#x2013;" 
d="M110 258v45h396v-45h-396z" />
    <glyph glyph-name="emdash" unicode="&#x2014;" 
d="M79 258v45h459v-45h-459z" />
    <glyph glyph-name="guilsinglleft" unicode="&#x2039;" 
d="M173 258l254 210l29 -34l-221 -182l137 -176l-34 -28z" />
    <glyph glyph-name="guilsinglright" unicode="&#x203a;" 
d="M435 258l-254 -210l-29 34l221 182l-137 176l34 28z" />
    <glyph glyph-name="quoteleft" unicode="&#x2018;" 
d="M353 467l-46 19l87 219l46 -19z" />
    <glyph glyph-name="quoteright" unicode="&#x2019;" 
d="M353 467l-46 19l87 219l46 -19z" />
    <glyph glyph-name="quotedblleft" unicode="&#x201c;" 
d="M465 467l-46 19l87 219l46 -19zM243 467l-46 19l87 219l46 -19z" />
    <glyph glyph-name="quotedblright" unicode="&#x201d;" 
d="M465 467l-46 19l87 219l46 -19zM243 467l-46 19l87 219l46 -19z" />
    <glyph glyph-name="quotesinglbase" unicode="&#x201a;" 
d="M229 -119l-46 19l87 219l46 -19z" />
    <glyph glyph-name="quotedblbase" unicode="&#x201e;" 
d="M340 -119l-46 19l87 219l46 -19zM117 -119l-46 19l87 219l46 -19z" />
    <glyph glyph-name="bullet" unicode="&#x2022;" 
d="M155 298q0 35 13 65.5t36 53.5t53.5 36t65.5 13t65.5 -13t53.5 -36t36 -53.5t13 -65.5t-13 -65.5t-36 -53.5t-53.5 -36t-65.5 -13t-65.5 13t-53.5 36t-36 53.5t-13 65.5z" />
    <glyph glyph-name="dagger" unicode="&#x2020;" 
d="M371 473l-119 -560h-43l119 560h-176l9 43h176l39 184h43l-39 -184h176l-9 -43h-176z" />
    <glyph glyph-name="daggerdbl" unicode="&#x2021;" 
d="M291 97l-39 -184h-43l39 184h-176l9 43h176l71 333h-176l9 43h176l39 184h43l-39 -184h176l-9 -43h-176l-71 -333h176l-9 -43h-176z" />
    <glyph glyph-name="perthousand" unicode="&#x2030;" 
d="M74 567q0 28 10.5 53.5t29.5 44t43.5 29.5t53.5 11q28 0 53.5 -11t44 -29.5t29.5 -44t11 -53.5q0 -29 -11 -53.5t-29.5 -43.5t-44 -29.5t-53.5 -10.5q-29 0 -53.5 10.5t-43.5 29.5t-29.5 43.5t-10.5 53.5zM234 86q0 19 7 36t19.5 29.5t29 19.5t35.5 7q25 0 46 -12.5
t33 -32.5q12 20 32.5 32.5t45.5 12.5q19 0 36 -7t29.5 -19.5t19.5 -29.5t7 -36t-7 -35.5t-19.5 -29t-29.5 -19.5t-36 -7q-25 0 -45.5 12t-32.5 32q-12 -20 -33 -32t-46 -12q-38 0 -64.5 26.5t-26.5 64.5zM116 567q0 -40 27.5 -67.5t67.5 -27.5t68 27.5t28 67.5t-28 68
t-68 28t-67.5 -28t-27.5 -68zM526 585l32 -32l-434 -435l-32 32zM273 86q0 -22 15 -37t37 -15t37.5 14.5t15.5 37.5t-15.5 38t-37.5 15t-37 -15.5t-15 -37.5zM430 86q0 -22 15 -37t37 -15t37.5 14.5t15.5 37.5t-15.5 38t-37.5 15t-37 -15.5t-15 -37.5z" />
    <glyph glyph-name="uni2117" unicode="&#x2117;" 
d="M544 451q0 48 -14.5 88t-43 68.5t-69.5 44.5t-94 16t-94 -16t-69.5 -44.5t-43 -68.5t-14.5 -88v-202q0 -48 14.5 -88t43 -68.5t69.5 -44.5t94 -16t94 16t69.5 44.5t43 68.5t14.5 88v202zM587 249q0 -58 -17.5 -106t-51.5 -82t-83 -52.5t-112 -18.5t-112 18.5t-83 52.5
t-51.5 82t-17.5 106v202q0 58 17.5 106t51.5 82t83 52.5t112 18.5t112 -18.5t83 -52.5t51.5 -82t17.5 -106v-202zM205 568h141q68 0 102 -35.5t34 -95.5t-34 -95.5t-102 -35.5h-98v-175h-43v437zM346 348q46 0 69 24.5t23 64.5q0 39 -23 63.5t-69 24.5h-98v-177h98z" />
    <glyph glyph-name="trademark" unicode="&#x2122;" 
d="M189 658h-90v42h223v-42h-90v-301h-43v301zM403 700h43l69 -205l69 205h43v-343h-43v234l-47 -142h-44l-47 142v-234h-43v343z" />
    <glyph glyph-name="lozenge" unicode="&#x25ca;" 
d="M323 -10l-257 360l257 360l257 -360zM323 69l201 281l-201 281l-201 -281z" />
    <glyph glyph-name="afii61289" unicode="&#x2113;" 
d="M268 567q8 38 18 65t25 44.5t35 25.5t48 8q36 0 54.5 -26t18.5 -70q0 -49 -18.5 -100.5t-48.5 -99.5t-68.5 -90t-78.5 -72q-12 -57 -19 -88.5t-10 -48t-3.5 -23t-0.5 -13.5q0 -25 12 -35.5t37 -10.5q16 0 34.5 3.5t39.5 11.5l3 -31q-33 -17 -54.5 -22t-42.5 -5
q-42 0 -62 21.5t-20 60.5q0 6 0.5 12.5t2.5 20t7 38t14 66.5l-51 -36l-19 31l81 56zM265 306q32 27 62 62.5t53.5 75.5t38 83t14.5 84q0 24 -8.5 39.5t-30.5 15.5q-23 0 -41.5 -18.5t-29.5 -69.5z" />
    <glyph glyph-name="afii61352" unicode="&#x2116;" 
d="M302 0h-50l-56 557l-118 -557h-50l148 700h50l56 -557l118 557h50zM416 350l10 45h134l-10 -45h-134zM442 469q5 -1 10.5 -1.5t11.5 -0.5q40 0 68 27.5t28 67.5q0 35 -22.5 61.5t-55.5 32.5l9 41q48 -9 79.5 -46.5t31.5 -88.5q0 -29 -11 -53.5t-29.5 -43.5t-44 -29.5
t-53.5 -10.5q-16 0 -31 3z" />
    <glyph glyph-name="apple" 
d="M175 26q-28 6 -38.5 24.5t-10.5 53.5v256q-27 0 -37 24q-24 10 -24 37q0 17 11 28q-17 8 -26.5 23.5t-9.5 35.5q0 19 9.5 35t26.5 24q-11 11 -11 28q0 15 9 26.5t23 13.5q6 20 23 34t40 14q24 0 44 -17q7 19 23.5 31.5t37.5 12.5q17 0 31.5 -8.5t23.5 -22.5q14 7 29 7
q19 0 35 -10t24 -27q12 12 28 12q13 0 22.5 -6.5t14.5 -17.5q22 -5 36.5 -23t14.5 -41q0 -19 -9.5 -34t-24.5 -23v-38h4q47 0 63.5 -18.5t16.5 -61.5v-215q0 -43 -16.5 -61.5t-63.5 -18.5h-4q0 -35 -10.5 -53t-38.5 -24v-26h-266v26zM441 510q-17 4 -29 17h-83
q-19 -19 -46 -19q-34 0 -53 27q-8 -3 -16 -3q-18 0 -29 11q-2 -4 -4.5 -7.5t-5.5 -7.5v-424q0 -19 7 -26.5t25 -7.5h202q18 0 25 7.5t7 26.5v406zM105 443q-10 0 -15.5 -7t-5.5 -15q0 -9 6 -15t15 -6q0 -9 6 -15t15 -6v147q19 0 32 12t15 30v4h19q0 -10 6.5 -15.5t15.5 -5.5
t15 6t6 15h19q0 -8 -2.5 -14.5t-6.5 -11.5q13 -19 38 -19q20 0 33.5 13t13.5 33h82q0 -20 13 -33t33 -13t33.5 13t13.5 33t-13.5 33.5t-33.5 13.5q0 9 -6.5 15.5t-15.5 6.5q-8 0 -14.5 -5.5t-6.5 -16.5h-19q0 20 -13.5 33.5t-33.5 13.5q-15 0 -26.5 -8.5t-16.5 -21.5
q12 -4 20 -14t8 -24h-19q0 9 -6.5 15t-15.5 6t-15 -6t-6 -15h-19q0 15 9.5 26t23.5 13q6 19 19 30q-6 11 -17 17t-23 6q-19 0 -32 -13t-14 -32q7 -16 7 -29h-19q0 20 -13.5 33.5t-33.5 13.5q-15 0 -26.5 -8t-16.5 -22q13 -4 21 -14.5t8 -24.5h-19q0 9 -6.5 15.5t-15.5 6.5
t-15 -6.5t-6 -15.5q0 -19 17 -21h4v-19h-4q-18 -2 -30 -15t-12 -32t12 -32t30 -14h4v-19zM525 398q0 19 -7 26.5t-24 7.5h-4v-283h4q17 0 24 7.5t7 26.5v215zM216 478h15v-375h-15v375zM384 478h15v-375h-15v375zM328 478h15v-375h-15v375zM272 478h15v-375h-15v375z" />
    <glyph glyph-name="estimated" unicode="&#x212e;" 
d="M317 609q-35 0 -67.5 -13t-59.5 -36q-12 -10 -12 -25v-191q0 -10 10 -10h260q10 0 10 10v191q0 15 -12 25q-28 23 -60 36t-69 13zM327 -10q-61 0 -112.5 26t-89 70.5t-58.5 104t-21 126.5q0 63 21 122t57.5 104.5t86 73t106.5 27.5q58 0 107.5 -27t86.5 -72.5t58 -104.5
t21 -123v-17h-402q-10 0 -10 -10v-191q0 -15 12 -25q27 -23 60.5 -36t76.5 -13q51 0 90 19.5t69 49.5h50q-38 -45 -90 -74.5t-119 -29.5z" />
    <glyph glyph-name="minus" unicode="&#x2212;" 
d="M111 258v45h396v-45h-396z" />
    <glyph glyph-name="lessequal" unicode="&#x2264;" 
d="M111 0v45h396v-45h-396zM111 299v44l396 180v-48l-338 -154l338 -154v-48z" />
    <glyph glyph-name="greaterequal" unicode="&#x2265;" 
d="M111 0v45h396v-45h-396zM111 119v48l338 154l-338 154v48l396 -180v-44z" />
    <glyph glyph-name="notequal" unicode="&#x2260;" 
d="M266 155l-65 -117l-37 22l53 95h-106v45h396v-45h-241zM401 395h106v-45h-396v45h240l66 117l37 -22z" />
    <glyph glyph-name="approxequal" unicode="&#x2248;" 
d="M358 310l-102 73l-135 -73l-21 38l159 86l102 -73l135 73l21 -38zM358 116l-102 73l-135 -73l-21 38l159 86l102 -73l135 73l21 -38z" />
    <glyph glyph-name="partialdiff" unicode="&#x2202;" 
d="M497 552q0 50 -30 81.5t-98 31.5q-33 0 -63 -11t-54.5 -31t-42 -49.5t-23.5 -65.5l-1 -8h-45l1 8q10 56 34.5 94.5t57.5 62.5t71 34.5t75 10.5q30 0 59 -8t52 -25.5t37.5 -46t14.5 -69.5q0 -12 -1 -25.5t-4 -27.5l-61 -316q-10 -56 -34.5 -94.5t-57.5 -62.5t-71 -34.5
t-75 -10.5q-30 0 -59 8t-52 25.5t-37.5 46t-14.5 69.5q0 21 4 43.5t8 45.5q10 56 34.5 94.5t57 62.5t70.5 34.5t75 10.5q50 0 87.5 -21.5t51.5 -53.5q0 1 1.5 8.5t3.5 18.5t4.5 24.5t5.5 27.5l14 74q2 13 3.5 23t1.5 21zM248 35q33 0 63 11t54.5 31t42 49.5t23.5 65.5
q4 21 8 40.5t4 39.5q0 50 -30.5 81.5t-98.5 31.5q-33 0 -63 -11t-54.5 -31t-41.5 -49.5t-23 -65.5q-4 -21 -8 -40.5t-4 -39.5q0 -50 30 -81.5t98 -31.5z" />
    <glyph glyph-name="product" unicode="&#x220f;" 
d="M103 700h442v-700h-55v647h-332v-647h-55v700z" />
    <glyph glyph-name="radical" unicode="&#x221a;" 
d="M468 700h102v-42h-69l-194 -658h-64l-77 258h-68v42h102l75 -253z" />
    <glyph glyph-name="summation" unicode="&#x2211;" 
d="M389 258l-321 400v42h512v-42h-454l321 -400l-321 -400h454v-42h-512v42z" />
    <glyph glyph-name="integral" unicode="&#x222b;" 
d="M326 -81q0 -25 -4.5 -44t-16.5 -32t-33 -20t-53 -7h-118v42h118q40 0 52 15t12 46v678q0 25 4.5 44t16.5 32t33 20t53 7h118v-42h-118q-40 0 -52 -15t-12 -46v-678z" />
    <glyph glyph-name="infinity" unicode="&#x221e;" 
d="M92 336q0 26 9.5 49t26.5 40t40 27t49 10q32 0 59.5 -15t44.5 -40q17 25 44 40t60 15q26 0 49 -10t40 -27t27 -40t10 -49t-10 -49t-27 -40t-40 -26.5t-49 -9.5q-33 0 -60 14.5t-44 39.5q-17 -25 -44.5 -39.5t-59.5 -14.5q-26 0 -49 9.5t-40 26.5t-26.5 40t-9.5 49z
M343 336q0 -35 23.5 -59t58.5 -24t59 24t24 59q0 17 -6.5 32.5t-17.5 27t-26 18t-33 6.5q-35 0 -58 -23.5t-24 -57.5v-3zM135 336q0 -35 23.5 -59t58.5 -24t59 24t24 59v3q-2 34 -25 57.5t-58 23.5t-58.5 -24.5t-23.5 -59.5z" />
    <glyph glyph-name="Delta" unicode="&#x394;" 
d="M11 0l263 710l263 -710h-526zM274 559l-187 -505h374z" />
    <glyph glyph-name="Delta" unicode="&#x2206;" 
d="M11 0l263 710l263 -710h-526zM274 559l-187 -505h374z" />
    <glyph glyph-name="Omega" unicode="&#x3a9;" 
d="M520 521q0 34 -11.5 59.5t-31 43t-45.5 26t-55 8.5q-33 0 -63.5 -10t-55.5 -31t-44 -54.5t-29 -80.5q-16 -73 -27.5 -127.5t-11.5 -80.5q0 -47 23 -79.5t61 -45.5l-32 -149h-151l11 52h96l15 67q-35 23 -56.5 61.5t-21.5 86.5q0 29 10.5 79.5t28.5 135.5q22 106 82.5 167
t171.5 61q39 0 73.5 -12.5t60.5 -36t41.5 -57.5t15.5 -76q0 -29 -11 -81.5t-28 -133.5q-18 -84 -57 -137t-105 -75l-10 -49h96l-11 -52h-151l30 142q54 11 95 52t58 119q16 76 27.5 129t11.5 79z" />
    <glyph glyph-name="Omega" unicode="&#x2126;" 
d="M520 521q0 34 -11.5 59.5t-31 43t-45.5 26t-55 8.5q-33 0 -63.5 -10t-55.5 -31t-44 -54.5t-29 -80.5q-16 -73 -27.5 -127.5t-11.5 -80.5q0 -47 23 -79.5t61 -45.5l-32 -149h-151l11 52h96l15 67q-35 23 -56.5 61.5t-21.5 86.5q0 29 10.5 79.5t28.5 135.5q22 106 82.5 167
t171.5 61q39 0 73.5 -12.5t60.5 -36t41.5 -57.5t15.5 -76q0 -29 -11 -81.5t-28 -133.5q-18 -84 -57 -137t-105 -75l-10 -49h96l-11 -52h-151l30 142q54 11 95 52t58 119q16 76 27.5 129t11.5 79z" />
    <glyph glyph-name="pi" unicode="&#x3c0;" 
d="M77 466l11 50h542l-11 -50h-73l-98 -466h-53l98 466h-290l-98 -466h-53l98 466h-73z" />
    <glyph glyph-name="Euro" unicode="&#x20ac;" 
d="M542 500q1 8 1 12v9q0 69 -41 104t-104 35q-72 0 -123 -41.5t-71 -136.5l-12 -56h284l-9 -43h-284q-5 -19 -8 -35t-6 -30h284l-9 -43h-285q-5 -24 -8 -39t-4.5 -25t-2 -17t-0.5 -15q0 -69 41 -104t104 -35q69 0 118.5 37.5t71.5 122.5h53q-12 -49 -33 -88t-51.5 -66
t-71.5 -41.5t-94 -14.5q-39 0 -73.5 12.5t-60.5 36t-41.5 57.5t-15.5 76q0 9 0.5 16.5t2 18t4.5 26.5t8 42h-69l9 43h70q3 14 6 30t8 35h-70l9 43h70l12 56q22 106 82.5 167t171.5 61q39 0 73.5 -12.5t60.5 -36t41.5 -57.5t15.5 -76q0 -8 -0.5 -15.5t-1.5 -12.5h-52z" />
    <glyph glyph-name="fi" unicode="&#xfb01;" 
d="M107 516h73l17 81q5 25 11.5 44t20 32t36.5 20t61 7h73l-11 -50h-73q-32 0 -45.5 -12.5t-19.5 -40.5l-17 -81h343l-110 -516h-53l99 466h-290l-99 -466h-53l99 466h-73zM527 700h98l-21 -98h-98z" />
    <glyph glyph-name="f_i" 
d="M107 516h73l17 81q5 25 11.5 44t20 32t36.5 20t61 7h73l-11 -50h-73q-32 0 -45.5 -12.5t-19.5 -40.5l-17 -81h343l-110 -516h-53l99 466h-290l-99 -466h-53l99 466h-73zM527 700h98l-21 -98h-98z" />
    <glyph glyph-name="fl" unicode="&#xfb02;" 
d="M107 516h73l17 81q5 25 11.5 44t20 32t36.5 20t61 7h289l-149 -700h-53l138 650h-236q-32 0 -45.5 -12.5t-19.5 -40.5l-17 -81h127l-11 -50h-127l-99 -466h-53l99 466h-73z" />
    <glyph glyph-name="f_l" 
d="M107 516h73l17 81q5 25 11.5 44t20 32t36.5 20t61 7h289l-149 -700h-53l138 650h-236q-32 0 -45.5 -12.5t-19.5 -40.5l-17 -81h127l-11 -50h-127l-99 -466h-53l99 466h-73z" />
    <glyph glyph-name="breve" unicode="&#x2d8;" 
d="M332 589q-40 0 -65 25t-25 63v11t2 12h47q-1 -5 -1 -13q0 -21 13.5 -35t36.5 -14h55q31 0 52.5 20t26.5 42h52q-10 -46 -45 -78.5t-89 -32.5h-60z" />
    <glyph glyph-name="caron" unicode="&#x2c7;" 
d="M374 633l167 72l-13 -58l-157 -68l-145 77l11 49z" />
    <glyph glyph-name="circumflex" unicode="&#x2c6;" 
d="M390 651l-167 -72l13 58l157 68l145 -77l-11 -49z" />
    <glyph glyph-name="dotaccent" unicode="&#x2d9;" 
d="M354 683h76l-17 -76h-76z" />
    <glyph glyph-name="hungarumlaut" unicode="&#x2dd;" 
d="M222 599l12 54l126 35l-12 -54zM408 599l12 54l126 35l-12 -54z" />
    <glyph glyph-name="commaaccent" 
d="M187 -189l-36 37l100 99l36 -36z" />
    <glyph glyph-name="ogonek" unicode="&#x2db;" 
d="M262 -186q-9 -2 -14.5 -2.5t-11.5 -0.5q-37 0 -60 26.5t-23 59.5q0 40 20 66t46 37h83q-15 -6 -32.5 -14.5t-32.5 -20t-25 -27t-10 -34.5q0 -44 46 -44q12 0 24 3z" />
    <glyph glyph-name="ring" unicode="&#x2da;" 
d="M270 595q0 24 9 44.5t24.5 36.5t36 25t44.5 9t44.5 -9t36.5 -25t25 -36.5t9 -44.5t-9 -44.5t-25 -36t-36.5 -24.5t-44.5 -9t-44.5 9t-36 24.5t-24.5 36t-9 44.5zM319 595q0 -27 19 -46t46 -19t46.5 19t19.5 46t-19.5 46.5t-46.5 19.5t-46 -19.5t-19 -46.5z" />
    <glyph glyph-name="tilde" unicode="&#x2dc;" 
d="M427 580l-91 66l-124 -66l14 63l113 60l91 -66l124 66l-14 -63z" />
    <glyph glyph-name="uni032C" unicode="&#x32c;" 
d="M228 -77l167 72l-13 -58l-157 -68l-145 77l11 49z" />
    <glyph glyph-name="one.case" 
d="M200 546l187 154h55l-138 -648h182l-11 -52h-419l11 52h182l120 563l-136 -111z" />
    <glyph glyph-name="two.case" 
d="M208 359q-24 23 -36.5 53.5t-12.5 62.5q0 48 15.5 90.5t44 74.5t70 51t94.5 19q41 0 73.5 -14.5t55 -37.5t34.5 -53t12 -61q0 -27 -5 -50t-18.5 -47t-36 -51t-58.5 -60l-302 -284h322l-12 -52h-396l11 53l339 319q47 45 75 83.5t28 78.5q0 23 -7.5 45.5t-23.5 40t-40 28
t-58 10.5q-37 0 -67.5 -15.5t-52 -40.5t-33 -56t-11.5 -61q0 -26 8.5 -49t26.5 -40z" />
    <glyph glyph-name="three.case" 
d="M255 -10q-41 0 -73 14t-55 37.5t-35 53t-12 61.5q0 8 0.5 16.5t1.5 16.5h53q-1 -6 -1.5 -12t-0.5 -12q0 -23 7.5 -45.5t23 -39.5t40 -27.5t58.5 -10.5q37 0 67.5 15.5t52 40.5t33 56t11.5 61q0 45 -27.5 80t-87.5 40l11 51h11q36 0 64.5 13.5t48.5 36t31 51.5t11 59
q0 23 -6.5 43.5t-21 35.5t-37.5 24t-55 9t-58 -11.5t-45.5 -30.5t-32 -43.5t-16.5 -51.5h-53q5 41 21.5 76t43.5 60t64 39t83 14q39 0 70 -12.5t52 -33.5t32.5 -49t11.5 -59q0 -72 -32.5 -126.5t-92.5 -79.5q30 -23 46.5 -56.5t16.5 -68.5q0 -48 -15.5 -90.5t-44 -74.5
t-70.5 -51t-94 -19z" />
    <glyph glyph-name="four.case" 
d="M337 0l41 198h-328l12 53l428 454l41 -36l-396 -419h255l36 169h55l-36 -169h73l-12 -52h-73l-41 -198h-55z" />
    <glyph glyph-name="five.case" 
d="M263 -10q-41 0 -73.5 14.5t-55 37.5t-34.5 53t-12 61v15.5t2 17.5h54q-2 -11 -2.5 -16t-0.5 -7q0 -23 7.5 -45.5t23 -40t40 -28t58.5 -10.5t61 13t47.5 35t34 49t19.5 56q8 37 10.5 50t2.5 17q0 23 -7.5 45.5t-23.5 40t-40 28t-58 10.5q-45 0 -78.5 -23.5t-54.5 -57.5
l-54 30l157 365h257l-12 -52h-209l-103 -237q16 11 45.5 19t58.5 8q41 0 73.5 -14.5t55 -37.5t34.5 -53t12 -61q0 -23 -3.5 -40.5t-10.5 -48.5q-18 -89 -75.5 -141t-145.5 -52z" />
    <glyph glyph-name="six.case" 
d="M252 -10q-41 0 -73.5 14.5t-55 37.5t-34.5 53t-12 61q0 23 3.5 40.5t10.5 48.5q9 43 28 77t45 60l304 323l40 -37l-219 -231q6 1 11.5 1h11.5q41 0 73.5 -14.5t55 -37.5t34.5 -53t12 -61q0 -23 -3.5 -40.5t-10.5 -48.5q-18 -89 -75.5 -141t-145.5 -52zM259 42q34 0 61 13
t47.5 35t34 49t19.5 56q8 37 10.5 50t2.5 17q0 23 -7.5 45.5t-23.5 40t-40 28t-58 10.5t-61 -13t-47.5 -35t-34 -49.5t-19.5 -55.5q-8 -37 -10.5 -50t-2.5 -17q0 -23 7.5 -45.5t23 -40t40 -28t58.5 -10.5z" />
    <glyph glyph-name="seven.case" 
d="M203 700h390l-10 -51l-376 -654l-49 18l366 635h-277l-26 -122h-55z" />
    <glyph glyph-name="eight.case" 
d="M264 -10q-41 0 -73 14.5t-55 37.5t-35 53t-12 61q0 73 35 130.5t100 82.5q-27 21 -41 51.5t-14 66.5q0 48 14.5 89t42.5 70.5t68 46.5t90 17q39 0 70 -12.5t52 -33.5t32.5 -49t11.5 -59q0 -73 -33.5 -127t-93.5 -78q32 -23 48.5 -56t16.5 -70q0 -48 -15.5 -90.5
t-44 -74.5t-70.5 -51t-94 -19zM271 42q37 0 67.5 15.5t52 40.5t33 56t11.5 61q0 23 -7.5 45t-23.5 38.5t-40 26.5t-58 10q-37 0 -67.5 -15t-52 -39.5t-33 -54.5t-11.5 -60q0 -24 7.5 -46t23 -39.5t40 -28t58.5 -10.5zM342 385q36 0 64.5 14t48.5 36.5t31 51.5t11 59
q0 23 -7 43.5t-21.5 35.5t-37 24t-54.5 9q-36 0 -64.5 -14t-48.5 -36.5t-31 -51.5t-11 -59q0 -47 27.5 -79.5t92.5 -32.5z" />
    <glyph glyph-name="nine.case" 
d="M395 709q41 0 73.5 -14.5t55 -37.5t34.5 -53t12 -61q0 -23 -3.5 -40.5t-10.5 -48.5q-9 -43 -28 -77t-45 -60l-304 -323l-40 37l219 231q-6 -1 -11.5 -1h-11.5q-41 0 -73.5 14.5t-55 37.5t-34.5 53t-12 61q0 23 3.5 40.5t10.5 48.5q18 89 75.5 141t145.5 52zM388 657
q-34 0 -61 -13t-47.5 -35t-34 -49.5t-19.5 -55.5q-8 -37 -10.5 -50t-2.5 -17q0 -23 7.5 -45.5t23 -40t40 -28t58.5 -10.5t61 13t47.5 35t34 49t19.5 56q8 37 10.5 50t2.5 17q0 23 -7.5 45.5t-23.5 40t-40 28t-58 10.5z" />
    <glyph glyph-name="zero.case" 
d="M264 -10q-41 0 -73.5 14.5t-55 37.5t-34.5 53t-12 61q0 6 0.5 13t3 21t7.5 37.5t13 61.5t19.5 93.5t28.5 134.5q19 89 76 141t145 52q41 0 73.5 -14.5t55 -37.5t34.5 -53t12 -61q0 -12 -3 -30t-11 -56t-22 -103.5t-36 -171.5q-19 -89 -76 -141t-145 -52zM504 534
q0 23 -7.5 45.5t-23.5 40t-40 28t-58 10.5t-61 -13t-47.5 -35t-34 -49.5t-19.5 -55.5l-57 -265l347 287q1 3 1 7zM271 42q34 0 61 13t47.5 35t34 49t19.5 56l56 264l-347 -287v-6q0 -23 7.5 -45.5t23 -40t40 -28t58.5 -10.5z" />
    <glyph glyph-name="uni21B2" unicode="&#x21b2;" 
d="M341 20l-30 -30l-286 285l286 285l30 -30l-234 -233h374v403h44v-447h-418z" />
    <glyph glyph-name="uni21B3" unicode="&#x21b3;" 
d="M127 297h374l-234 233l30 30l286 -285l-286 -285l-30 30l234 233h-418v447h44v-403z" />
    <glyph glyph-name="uni21B0" unicode="&#x21b0;" 
d="M341 20l-30 -30l-286 285l286 285l30 -30l-234 -233h418v-481h-44v437h-374z" />
    <glyph glyph-name="uni21B1" unicode="&#x21b1;" 
d="M127 -184h-44v481h418l-234 233l30 30l286 -285l-286 -285l-30 30l234 233h-374v-437z" />
    <glyph glyph-name="uni2190" unicode="&#x2190;" 
d="M341 20l-30 -30l-286 285l286 285l30 -30l-234 -233h476v-44h-476z" />
    <glyph glyph-name="uni2191" unicode="&#x2191;" 
d="M326 628v-628h-44v628l-233 -234l-30 30l285 286l285 -286l-30 -30z" />
    <glyph glyph-name="uni2192" unicode="&#x2192;" 
d="M501 253h-476v44h476l-234 233l30 30l286 -285l-286 -285l-30 30z" />
    <glyph glyph-name="uni2193" unicode="&#x2193;" 
d="M559 316l30 -30l-285 -286l-285 286l30 30l233 -234v628h44v-628z" />
    <glyph glyph-name="uni2196" unicode="&#x2196;" 
d="M131 473l452 -452l-31 -31l-453 452v-330h-43v404h405v-43h-330z" />
    <glyph glyph-name="uni2197" unicode="&#x2197;" 
d="M147 473v43h405v-404h-43v330l-453 -452l-31 31l452 452h-330z" />
    <glyph glyph-name="uni2198" unicode="&#x2198;" 
d="M477 43l-452 452l31 31l453 -452v330h43v-404h-405v43h330z" />
    <glyph glyph-name="uni2199" unicode="&#x2199;" 
d="M461 43v-43h-405v404h43v-330l453 452l31 -31l-452 -452h330z" />
    <glyph glyph-name="uni25A0" unicode="&#x25a0;" 
d="M46 516h516v-516h-516v516z" />
    <glyph glyph-name="uni25A1" unicode="&#x25a1;" 
d="M46 516h516v-516h-516v516zM90 44h428v428h-428v-428z" />
    <glyph glyph-name="uni25CB" unicode="&#x25cb;" 
d="M34 260q0 56 21 105t58 86t86 58t105 21t105 -21t86 -58t58 -86t21 -105t-21 -105t-58 -86t-86 -58t-105 -21t-105 21t-86 58t-58 86t-21 105zM77 260q0 -47 18 -88.5t48.5 -72t72 -48.5t88.5 -18t88.5 18t72 48.5t48.5 72t18 88.5t-18 88.5t-48.5 72t-72 48.5t-88.5 18
t-88.5 -18t-72 -48.5t-48.5 -72t-18 -88.5z" />
    <glyph glyph-name="uni25CF" unicode="&#x25cf;" 
d="M34 260q0 56 21 105t58 86t86 58t105 21t105 -21t86 -58t58 -86t21 -105t-21 -105t-58 -86t-86 -58t-105 -21t-105 21t-86 58t-58 86t-21 105z" />
    <glyph glyph-name="onethird" unicode="&#x2153;" 
d="M117 635l79 65h42l-48 -221h69l-9 -40h-178l9 40h67l34 158l-40 -34zM497 531l26 -33l-392 -324l-26 33zM423 -4q-15 0 -28 5.5t-23.5 15t-16.5 22.5t-6 27v4.5t1 6.5h41q-1 -3 -1 -8q0 -14 10 -23.5t26 -9.5q21 0 33 14.5t12 35.5q0 13 -9 22.5t-23 10.5l8 38h4
q17 0 27 11t10 29q0 11 -7.5 19.5t-20.5 8.5q-34 0 -37 -34h-41q2 32 22.5 53t58.5 21q26 0 45.5 -18t19.5 -47q0 -22 -8 -39.5t-24 -28.5q16 -19 16 -43q0 -38 -23 -65.5t-66 -27.5z" />
    <glyph glyph-name="uni2155" unicode="&#x2155;" 
d="M117 635l79 65h42l-48 -221h69l-9 -40h-178l9 40h67l34 158l-40 -34zM497 531l26 -33l-392 -324l-26 33zM422 -4q-31 0 -51.5 20.5t-20.5 49.5v11h41v-8q0 -14 9 -23.5t24 -9.5q19 0 30.5 12t15.5 29q2 8 2.5 12t0.5 7q0 14 -9 23.5t-25 9.5q-23 0 -36 -19l-36 33l51 118
h117l-9 -39h-82l-24 -57q4 2 10 3t12 1q31 0 51.5 -20.5t20.5 -49.5v-7.5t-2 -13.5q-8 -36 -29 -59t-61 -23z" />
    <glyph glyph-name="uni2159" unicode="&#x2159;" 
d="M117 635l79 65h42l-48 -221h69l-9 -40h-178l9 40h67l34 158l-40 -34zM497 531l26 -33l-392 -324l-26 33zM426 -4q-31 0 -51.5 20.5t-20.5 49.5v8.5t2 13.5q8 37 28 57l111 118l31 -26l-66 -69l4 -1q23 -5 38.5 -25t15.5 -43v-8.5t-2 -12.5q-8 -37 -29 -59.5t-61 -22.5z
M429 36q19 0 29.5 11.5t15.5 29.5q4 15 4 19q0 14 -9.5 23.5t-24.5 9.5q-19 0 -30.5 -12t-15.5 -29q-2 -8 -2.5 -12t-0.5 -7q0 -14 9 -23.5t25 -9.5z" />
    <glyph glyph-name="oneeighth" unicode="&#x215b;" 
d="M117 635l79 65h42l-48 -221h69l-9 -40h-178l9 40h67l34 158l-40 -34zM497 531l26 -33l-392 -324l-26 33zM431 -4q-29 0 -50.5 20.5t-21.5 49.5q0 26 11.5 47t32.5 33q-11 16 -11 37q0 35 20.5 58.5t60.5 23.5q26 0 45.5 -18t19.5 -47q0 -44 -33 -68q17 -19 17 -43
q0 -38 -24 -65.5t-67 -27.5zM434 36q21 0 34 14.5t13 35.5q0 14 -9.5 23.5t-24.5 9.5q-21 0 -34 -14.5t-13 -35.5q0 -14 9 -23.5t25 -9.5zM459 158q17 0 28 10.5t11 28.5q0 11 -7.5 19.5t-20.5 8.5q-18 0 -27.5 -10.5t-9.5 -28.5q0 -11 6.5 -19.5t19.5 -8.5z" />
    <glyph glyph-name="twothirds" unicode="&#x2154;" 
d="M130 567q-17 20 -17 44q0 38 24 65.5t67 27.5q29 0 50.5 -20.5t21.5 -49.5q0 -27 -11.5 -45.5t-34.5 -37.5l-84 -72h99l-9 -40h-162l9 40l116 99q16 14 26 25t10 28q0 14 -9 23.5t-25 9.5q-21 0 -34 -14.5t-13 -35.5q0 -13 7 -21zM496 531l26 -33l-392 -324l-26 33z
M423 -4q-15 0 -28 5.5t-23.5 15t-16.5 22.5t-6 27v4.5t1 6.5h41q-1 -3 -1 -8q0 -14 10 -23.5t26 -9.5q21 0 33 14.5t12 35.5q0 13 -9 22.5t-23 10.5l8 38h4q17 0 27 11t10 29q0 11 -7.5 19.5t-20.5 8.5q-34 0 -37 -34h-41q2 32 22.5 53t58.5 21q26 0 45.5 -18t19.5 -47
q0 -22 -8 -39.5t-24 -28.5q16 -19 16 -43q0 -38 -23 -65.5t-66 -27.5z" />
    <glyph glyph-name="uni2156" unicode="&#x2156;" 
d="M130 567q-17 20 -17 44q0 38 24 65.5t67 27.5q29 0 50.5 -20.5t21.5 -49.5q0 -27 -11.5 -45.5t-34.5 -37.5l-84 -72h99l-9 -40h-162l9 40l116 99q16 14 26 25t10 28q0 14 -9 23.5t-25 9.5q-21 0 -34 -14.5t-13 -35.5q0 -13 7 -21zM496 531l26 -33l-392 -324l-26 33z
M422 -4q-31 0 -51.5 20.5t-20.5 49.5v11h41v-8q0 -14 9 -23.5t24 -9.5q19 0 30.5 12t15.5 29q2 8 2.5 12t0.5 7q0 14 -9 23.5t-25 9.5q-23 0 -36 -19l-36 33l51 118h117l-9 -39h-82l-24 -57q4 2 10 3t12 1q31 0 51.5 -20.5t20.5 -49.5v-7.5t-2 -13.5q-8 -36 -29 -59t-61 -23
z" />
    <glyph glyph-name="uni2157" unicode="&#x2157;" 
d="M170 435q-15 0 -28 5.5t-23.5 15t-16.5 22.5t-6 27v4.5t1 6.5h41q-1 -3 -1 -8q0 -14 10 -23.5t26 -9.5q21 0 33 14.5t12 35.5q0 13 -9 22.5t-23 10.5l8 38h4q17 0 27 11t10 29q0 11 -7.5 19.5t-20.5 8.5q-34 0 -37 -34h-41q2 32 22.5 53t58.5 21q26 0 45.5 -18t19.5 -47
q0 -22 -8 -39.5t-24 -28.5q16 -19 16 -43q0 -38 -23 -65.5t-66 -27.5zM497 531l26 -33l-392 -324l-26 33zM422 -4q-31 0 -51.5 20.5t-20.5 49.5v11h41v-8q0 -14 9 -23.5t24 -9.5q19 0 30.5 12t15.5 29q2 8 2.5 12t0.5 7q0 14 -9 23.5t-25 9.5q-23 0 -36 -19l-36 33l51 118
h117l-9 -39h-82l-24 -57q4 2 10 3t12 1q31 0 51.5 -20.5t20.5 -49.5v-7.5t-2 -13.5q-8 -36 -29 -59t-61 -23z" />
    <glyph glyph-name="threeeighths" unicode="&#x215c;" 
d="M170 435q-15 0 -28 5.5t-23.5 15t-16.5 22.5t-6 27v4.5t1 6.5h41q-1 -3 -1 -8q0 -14 10 -23.5t26 -9.5q21 0 33 14.5t12 35.5q0 13 -9 22.5t-23 10.5l8 38h4q17 0 27 11t10 29q0 11 -7.5 19.5t-20.5 8.5q-34 0 -37 -34h-41q2 32 22.5 53t58.5 21q26 0 45.5 -18t19.5 -47
q0 -22 -8 -39.5t-24 -28.5q16 -19 16 -43q0 -38 -23 -65.5t-66 -27.5zM497 531l26 -33l-392 -324l-26 33zM431 -4q-29 0 -50.5 20.5t-21.5 49.5q0 26 11.5 47t32.5 33q-11 16 -11 37q0 35 20.5 58.5t60.5 23.5q26 0 45.5 -18t19.5 -47q0 -44 -33 -68q17 -19 17 -43
q0 -38 -24 -65.5t-67 -27.5zM434 36q21 0 34 14.5t13 35.5q0 14 -9.5 23.5t-24.5 9.5q-21 0 -34 -14.5t-13 -35.5q0 -14 9 -23.5t25 -9.5zM459 158q17 0 28 10.5t11 28.5q0 11 -7.5 19.5t-20.5 8.5q-18 0 -27.5 -10.5t-9.5 -28.5q0 -11 6.5 -19.5t19.5 -8.5z" />
    <glyph glyph-name="uni2158" unicode="&#x2158;" 
d="M194 439l13 63h-115l9 40l150 160l30 -26l-126 -134h61l11 53h42l-11 -53h27l-9 -40h-27l-13 -63h-42zM497 531l26 -33l-392 -324l-26 33zM422 -4q-31 0 -51.5 20.5t-20.5 49.5v11h41v-8q0 -14 9 -23.5t24 -9.5q19 0 30.5 12t15.5 29q2 8 2.5 12t0.5 7q0 14 -9 23.5
t-25 9.5q-23 0 -36 -19l-36 33l51 118h117l-9 -39h-82l-24 -57q4 2 10 3t12 1q31 0 51.5 -20.5t20.5 -49.5v-7.5t-2 -13.5q-8 -36 -29 -59t-61 -23z" />
    <glyph glyph-name="uni215A" unicode="&#x215a;" 
d="M174 435q-31 0 -51.5 20.5t-20.5 49.5v11h41v-8q0 -14 9 -23.5t24 -9.5q19 0 30.5 12t15.5 29q2 8 2.5 12t0.5 7q0 14 -9 23.5t-25 9.5q-23 0 -36 -19l-36 33l51 118h117l-9 -39h-82l-24 -57q4 2 10 3t12 1q31 0 51.5 -20.5t20.5 -49.5v-7.5t-2 -13.5q-8 -36 -29 -59
t-61 -23zM496 531l26 -33l-392 -324l-26 33zM426 -4q-31 0 -51.5 20.5t-20.5 49.5v8.5t2 13.5q8 37 28 57l111 118l31 -26l-66 -69l4 -1q23 -5 38.5 -25t15.5 -43v-8.5t-2 -12.5q-8 -37 -29 -59.5t-61 -22.5zM429 36q19 0 29.5 11.5t15.5 29.5q4 15 4 19q0 14 -9.5 23.5
t-24.5 9.5q-19 0 -30.5 -12t-15.5 -29q-2 -8 -2.5 -12t-0.5 -7q0 -14 9 -23.5t25 -9.5z" />
    <glyph glyph-name="fiveeighths" unicode="&#x215d;" 
d="M174 435q-31 0 -51.5 20.5t-20.5 49.5v11h41v-8q0 -14 9 -23.5t24 -9.5q19 0 30.5 12t15.5 29q2 8 2.5 12t0.5 7q0 14 -9 23.5t-25 9.5q-23 0 -36 -19l-36 33l51 118h117l-9 -39h-82l-24 -57q4 2 10 3t12 1q31 0 51.5 -20.5t20.5 -49.5v-7.5t-2 -13.5q-8 -36 -29 -59
t-61 -23zM496 531l26 -33l-392 -324l-26 33zM431 -4q-29 0 -50.5 20.5t-21.5 49.5q0 26 11.5 47t32.5 33q-11 16 -11 37q0 35 20.5 58.5t60.5 23.5q26 0 45.5 -18t19.5 -47q0 -44 -33 -68q17 -19 17 -43q0 -38 -24 -65.5t-67 -27.5zM434 36q21 0 34 14.5t13 35.5
q0 14 -9.5 23.5t-24.5 9.5q-21 0 -34 -14.5t-13 -35.5q0 -14 9 -23.5t25 -9.5zM459 158q17 0 28 10.5t11 28.5q0 11 -7.5 19.5t-20.5 8.5q-18 0 -27.5 -10.5t-9.5 -28.5q0 -11 6.5 -19.5t19.5 -8.5z" />
    <glyph glyph-name="seveneighths" unicode="&#x215e;" 
d="M169 700h160l-8 -40l-127 -223l-38 15l119 209h-72l-8 -40h-42zM496 531l26 -33l-392 -324l-26 33zM431 -4q-29 0 -50.5 20.5t-21.5 49.5q0 26 11.5 47t32.5 33q-11 16 -11 37q0 35 20.5 58.5t60.5 23.5q26 0 45.5 -18t19.5 -47q0 -44 -33 -68q17 -19 17 -43
q0 -38 -24 -65.5t-67 -27.5zM434 36q21 0 34 14.5t13 35.5q0 14 -9.5 23.5t-24.5 9.5q-21 0 -34 -14.5t-13 -35.5q0 -14 9 -23.5t25 -9.5zM459 158q17 0 28 10.5t11 28.5q0 11 -7.5 19.5t-20.5 8.5q-18 0 -27.5 -10.5t-9.5 -28.5q0 -11 6.5 -19.5t19.5 -8.5z" />
    <glyph glyph-name="uni215F" unicode="&#x215f;" horiz-adv-x="1" 
d="M117 635l79 65h42l-48 -221h69l-9 -40h-178l9 40h67l34 158l-40 -34zM497 531l26 -33l-392 -324l-26 33z" />
    <glyph glyph-name="fraction" unicode="&#x2044;" horiz-adv-x="-608" 
d="M-111 531l26 -33l-392 -324l-26 33z" />
    <glyph glyph-name="a.superior" 
d="M333 436q35 0 61 19t34 57l8 36q-50 -3 -77.5 -6.5t-51.5 -13.5q-17 -7 -26 -18t-9 -31q0 -18 14.5 -30.5t46.5 -12.5zM324 395q-47 0 -71.5 25t-24.5 55q0 39 17 60.5t60 34.5q28 8 64.5 11.5t74.5 5.5q2 9 3 17t1 13q0 26 -19 38.5t-43 12.5q-30 0 -51.5 -15t-32.5 -44
h-44q15 54 48.5 76.5t84.5 22.5q19 0 37.5 -5.5t32.5 -16.5t22.5 -26.5t8.5 -36.5q0 -16 -7 -48t-14 -63l-12 -56q-5 -21 -8 -38.5t-3 -16.5h-43l7 32q-12 -17 -35.5 -27.5t-52.5 -10.5z" />
    <glyph glyph-name="b.superior" 
d="M344 436q35 0 58.5 19t31.5 57q3 13 6 28.5t6 30t5 27t2 19.5q0 26 -19 38.5t-43 12.5q-34 0 -57.5 -19t-31.5 -57q-3 -13 -6 -28.5t-6 -30.5t-5 -27t-2 -19q0 -27 19 -39t42 -12zM343 395q-26 0 -45 12t-28 31l-8 -37h-43l86 406h43l-29 -136q10 14 31 25.5t51 11.5
q17 0 34.5 -5.5t31 -16.5t22 -26.5t8.5 -36.5q0 -16 -7 -48t-13 -63q-14 -64 -48.5 -90.5t-85.5 -26.5z" />
    <glyph glyph-name="c.superior" 
d="M339 395q-20 0 -38 5.5t-32 16.5t-22.5 27t-8.5 37q0 15 7 47.5t14 62.5q14 65 48 91t89 26q19 0 37.5 -5.5t32 -16.5t22 -26.5t8.5 -36.5v-8t-1 -9h-43q1 5 1 7v4q0 26 -19.5 38.5t-42.5 12.5q-34 0 -57.5 -19t-31.5 -57q-3 -13 -6.5 -28.5t-6.5 -30.5t-5 -27t-2 -19
q0 -27 19.5 -39t42.5 -12q31 0 53 15.5t32 46.5h43q-15 -57 -48.5 -80t-84.5 -23z" />
    <glyph glyph-name="d.superior" 
d="M340 436q34 0 57.5 19t31.5 57q3 13 6.5 28.5t6.5 30t5 27t2 19.5q0 26 -19.5 38.5t-42.5 12.5q-35 0 -58 -19t-31 -57q-3 -13 -6.5 -28.5t-6.5 -30.5t-5 -27t-2 -19q0 -27 19 -39t43 -12zM331 395q-18 0 -35 5.5t-31 16.5t-22.5 27t-8.5 37q0 15 7 47.5t14 62.5
q14 65 48 91t85 26q26 0 45 -11.5t28 -31.5l31 142h43l-87 -406h-43l7 32q-10 -15 -31 -26.5t-50 -11.5z" />
    <glyph glyph-name="e.superior" 
d="M338 395q-20 0 -38 5.5t-32 16.5t-22.5 27t-8.5 37q0 15 7 47.5t14 62.5q14 65 48 91t89 26q19 0 37.5 -5.5t32 -16.5t22 -26.5t8.5 -36.5q0 -12 -4.5 -34.5l-9.5 -47.5h-191q-4 -17 -6.5 -31.5t-2.5 -22.5q0 -27 19 -39t43 -12q30 0 51.5 15t32.5 44h44q-16 -54 -49 -77
t-84 -23zM446 580q2 12 4 21.5t2 15.5q0 26 -19.5 38.5t-42.5 12.5q-39 0 -62.5 -23.5t-29.5 -64.5h148z" />
    <glyph glyph-name="f.superior" 
d="M342 660h-85l9 40h86l7 36q4 19 9 32.5t14.5 22t24 12.5t38.5 4h98l-9 -41h-97q-16 0 -23.5 -6t-10.5 -21l-8 -39h125l-9 -40h-126l-54 -259h-43z" />
    <glyph glyph-name="g.superior" 
d="M343 447q34 0 57.5 19t31.5 57q5 26 11 53t6 41q0 26 -19 38.5t-43 12.5q-34 0 -57.5 -19t-31.5 -57q-5 -26 -11 -53t-6 -41q0 -26 19 -38.5t43 -12.5zM313 288q-20 0 -38 5.5t-32 16.5t-22.5 27t-8.5 37q0 3 0.5 8.5t1.5 8.5h42v-11q0 -26 19 -38.5t43 -12.5
q34 0 57.5 19t31.5 57l8 40q-10 -15 -31 -26.5t-50 -11.5q-18 0 -35 5.5t-31 16.5t-22.5 26.5t-8.5 36.5q0 16 6 42.5t12 56.5q14 65 48.5 91t85.5 26q26 0 45 -11.5t28 -31.5l8 35h43l-63 -294q-14 -65 -48.5 -91.5t-88.5 -26.5z" />
    <glyph glyph-name="h.superior" 
d="M303 807h43l-29 -136q11 14 31.5 25.5t50.5 11.5q18 0 35 -5.5t30.5 -16.5t22 -26.5t8.5 -36.5q0 -15 -6.5 -47.5t-13.5 -63.5l-24 -111h-43l24 111q3 13 6.5 28.5t6.5 30.5t5 27t2 19q0 26 -19.5 38.5t-42.5 12.5q-35 0 -58 -19t-31 -57l-41 -191h-43z" />
    <glyph glyph-name="i.superior" 
d="M217 442h106l46 218h-77l9 40h120l-55 -258h105l-8 -41h-255zM386 807h63l-13 -64h-64z" />
    <glyph glyph-name="j.superior" 
d="M183 335h126q16 0 23 6.5t10 20.5l64 298h-126l8 40h169l-71 -335q-4 -19 -9 -32.5t-14.5 -22t-24 -12.5t-38.5 -4h-126zM422 807h64l-14 -64h-63z" />
    <glyph glyph-name="k.superior" 
d="M305 562l156 138h58l-133 -117l85 -182h-46l-72 154l-62 -55l-20 -99h-43l86 406h43z" />
    <glyph glyph-name="l.superior" 
d="M215 442h105l69 324h-76l8 41h120l-78 -365h106l-9 -41h-254z" />
    <glyph glyph-name="m.superior" 
d="M195 401l64 299h43l-4 -17q7 11 19 18t27 7q16 0 28.5 -8.5t17.5 -22.5q6 11 20 21t38 10q37 0 55.5 -18t18.5 -47q0 -3 -0.5 -6t-2 -11t-4.5 -22.5t-8.5 -40.5t-14 -65.5t-20.5 -96.5h-43q18 86 28.5 133t15 69.5l5.5 27.5t1 8q0 29 -32 29q-20 0 -30 -12t-14 -30
l-48 -225h-43q18 86 28.5 133t15 69.5l5.5 27.5t1 8q0 29 -32 29q-21 0 -30.5 -12t-13.5 -30l-48 -225h-43z" />
    <glyph glyph-name="n.superior" unicode="&#x207f;" 
d="M281 700h43l-7 -29q11 14 31.5 25.5t50.5 11.5q18 0 35 -5.5t30.5 -16.5t22 -26.5t8.5 -36.5q0 -15 -6.5 -47.5t-13.5 -63.5l-24 -111h-43l24 111q3 13 6.5 28.5t6.5 30.5t5 27t2 19q0 26 -19.5 38.5t-42.5 12.5q-35 0 -58 -19t-31 -57l-41 -191h-43z" />
    <glyph glyph-name="o.superior" 
d="M342 436q34 0 57.5 19t31.5 57q3 13 6.5 28.5t6.5 30.5t5 27t2 19q0 26 -19.5 38.5t-42.5 12.5q-34 0 -57.5 -19t-31.5 -57q-3 -13 -6.5 -28.5t-6.5 -30.5t-5 -27t-2 -19q0 -27 19.5 -39t42.5 -12zM337 395q-20 0 -38 5.5t-31.5 16.5t-22 27t-8.5 37q0 15 6.5 47.5
t13.5 62.5q14 65 48 91t89 26q19 0 37.5 -5.5t32.5 -16.5t22.5 -26.5t8.5 -36.5q0 -16 -7 -48t-14 -63q-14 -64 -48 -90.5t-89 -26.5z" />
    <glyph glyph-name="p.superior" 
d="M344 436q35 0 58.5 19t31.5 57q3 13 6 28.5t6 30t5 27t2 19.5q0 26 -19 38.5t-43 12.5q-34 0 -57.5 -19t-31.5 -57q-3 -13 -6 -28.5t-6 -30.5t-5 -27t-2 -19q0 -27 19 -39t42 -12zM282 700h43l-6 -29q10 14 31 25.5t51 11.5q17 0 34.5 -5.5t31 -16.5t22 -26.5t8.5 -36.5
q0 -16 -7 -48t-13 -63q-14 -64 -48.5 -90.5t-85.5 -26.5q-26 0 -45 12t-28 31l-31 -144h-43z" />
    <glyph glyph-name="q.superior" 
d="M340 436q34 0 57.5 19t31.5 57q3 13 6.5 28.5t6.5 30t5 27t2 19.5q0 26 -19.5 38.5t-42.5 12.5q-35 0 -58 -19t-31 -57q-3 -13 -6.5 -28.5t-6.5 -30.5t-5 -27t-2 -19q0 -27 19 -39t43 -12zM412 433q-10 -15 -31 -26.5t-50 -11.5q-18 0 -35 5.5t-31 16.5t-22.5 27t-8.5 37
q0 15 7 47.5t14 62.5q14 65 48 91t85 26q26 0 45 -11.5t28 -31.5l8 35h43l-86 -406h-43z" />
    <glyph glyph-name="r.superior" 
d="M201 442h95l46 218h-66l9 40h109l-7 -32q11 14 31.5 26t50.5 12h71l-8 -41h-73q-34 0 -57.5 -19t-31.5 -57l-31 -147h116l-8 -41h-254z" />
    <glyph glyph-name="s.superior" 
d="M352 395q-21 0 -40.5 5.5t-35.5 17t-25.5 29t-9.5 40.5q0 7 1 10h43v-6q0 -29 22 -42t51 -13q10 0 21 2.5t20.5 8t15.5 14.5t6 23t-8.5 26t-31.5 19l-39 12q-29 9 -46 27.5t-17 47.5q0 41 27 66.5t80 25.5q44 0 71.5 -23.5t27.5 -61.5v-10h-43v4q0 26 -18.5 38.5
t-40.5 12.5q-23 0 -42 -11.5t-19 -34.5q0 -14 7 -25.5t27 -17.5l40 -11q30 -9 49.5 -27.5t19.5 -47.5q0 -45 -28 -71.5t-85 -26.5z" />
    <glyph glyph-name="t.superior" 
d="M355 401q-29 0 -43 13.5t-14 36.5q0 6 1.5 16.5t6 33t12.5 60t21 99.5h-85l9 40h85l14 68h43l-14 -68h126l-9 -40h-126q-15 -73 -23.5 -113t-12.5 -59.5t-5 -24t-1 -6.5q0 -15 23 -15h99l-9 -41h-98z" />
    <glyph glyph-name="u.superior" 
d="M333 395q-17 0 -34 5.5t-30.5 16.5t-22 27t-8.5 37q0 15 7 47.5t13 62.5l23 109h43l-23 -108q-3 -13 -6.5 -28.5t-6.5 -30.5t-5 -27t-2 -19q0 -26 19 -38.5t42 -12.5q33 0 56 19t31 57l40 188h43l-64 -299h-43l7 32q-10 -14 -30.5 -26t-48.5 -12z" />
    <glyph glyph-name="v.superior" 
d="M265 700h42l36 -248l140 248h46l-171 -299h-48z" />
    <glyph glyph-name="w.superior" 
d="M250 700h41l-12 -215l87 169h42l13 -177l81 223h43l-112 -299h-38l-16 202l-106 -202h-38z" />
    <glyph glyph-name="x.superior" 
d="M340 553l-67 147h45l52 -114l99 114h52l-131 -148l67 -151h-43l-53 119l-103 -119h-52z" />
    <glyph glyph-name="y.superior" 
d="M224 335h32q14 0 20 5.5t11 13.5l24 41l-46 305h42l36 -248l140 248h46l-214 -374q-10 -17 -27 -24t-45 -8h-28z" />
    <glyph glyph-name="z.superior" 
d="M285 442h169l-9 -41h-225l9 41l211 218h-162l9 40h218l-9 -40z" />
    <glyph glyph-name="four.superior" unicode="&#x2074;" 
d="M377 401l23 110h-186l8 41l243 258l31 -27l-218 -231h131l19 92h43l-19 -92h42l-9 -41h-42l-23 -110h-43z" />
    <glyph glyph-name="five.superior" unicode="&#x2075;" 
d="M342 395q-23 0 -42 8t-32.5 21.5t-21 31t-7.5 35.5v10t2 11h42q-3 -11 -3 -15q0 -25 17 -42.5t49 -17.5t54.5 21t30.5 54q4 22 6 31t2 13q0 26 -17 44t-49 18q-23 0 -41.5 -12t-30.5 -32l-38 26l89 207h161l-9 -41h-123l-52 -118q7 4 19.5 7t28.5 3q23 0 42 -8t33 -21
t21.5 -30.5t7.5 -35.5q0 -11 -1.5 -21t-6.5 -35q-10 -48 -43 -80t-88 -32z" />
    <glyph glyph-name="six.superior" unicode="&#x2076;" 
d="M335 395q-23 0 -42 8t-32.5 21.5t-21 31t-7.5 35.5q0 11 1.5 20.5t6.5 34.5q11 46 37 75l178 189l31 -27l-117 -125h4q22 0 40.5 -8t32 -21t21 -30.5t7.5 -35.5q0 -11 -1.5 -21t-6.5 -35q-10 -48 -43 -80t-88 -32zM339 436q32 0 54.5 21.5t30.5 54.5q5 22 6.5 31t1.5 13
q0 26 -17 44t-49 18q-31 0 -54 -22t-30 -55q-5 -22 -7 -30.5t-2 -13.5q0 -25 17 -43t49 -18z" />
    <glyph glyph-name="seven.superior" unicode="&#x2077;" 
d="M305 807h230l-8 -41l-208 -368l-39 15l200 353h-141l-15 -68h-43z" />
    <glyph glyph-name="eight.superior" unicode="&#x2078;" 
d="M343 395q-23 0 -42 8t-32.5 21.5t-21 31t-7.5 35.5q0 42 18.5 74t51.5 48q-26 26 -26 65q0 30 9.5 55t27 43t40.5 27.5t50 9.5q46 0 73 -27.5t27 -64.5q0 -43 -18.5 -74t-49.5 -47q14 -14 22.5 -31.5t8.5 -36.5q0 -29 -9.5 -54t-26.5 -43.5t-41 -29t-54 -10.5zM347 436
q20 0 36 8.5t27 21.5t17 28.5t6 30.5q0 26 -17 43.5t-49 17.5q-20 0 -35.5 -8.5t-27 -22t-17.5 -29t-6 -30.5q0 -26 17 -43t49 -17zM387 627q20 0 35 8t25.5 21t16 28t5.5 30q0 26 -15 42t-47 16q-20 0 -35 -8t-25.5 -21t-16 -28t-5.5 -30q0 -26 15 -42t47 -16z" />
    <glyph glyph-name="nine.superior" unicode="&#x2079;" 
d="M418 813q23 0 42 -8t32.5 -21.5t21 -31t7.5 -35.5q0 -11 -1.5 -20.5t-6.5 -34.5q-11 -46 -37 -75l-178 -189l-31 27l117 125h-4q-22 0 -40.5 8t-32 21t-21 30.5t-7.5 35.5q0 6 0.5 10.5t1 10.5t2 14t4.5 21q10 48 43 80t88 32zM414 772q-32 0 -54.5 -21.5t-30.5 -54.5
q-5 -22 -6.5 -31t-1.5 -13q0 -26 17 -44t49 -18q31 0 54 22t30 55q5 22 7 30.5t2 13.5q0 25 -17 43t-49 18z" />
    <glyph glyph-name="zero.superior" unicode="&#x2070;" 
d="M343 395q-23 0 -42 8t-32.5 21.5t-21 31t-7.5 35.5q0 9 1 18t5 30t12 59t22 103q11 48 43.5 80t87.5 32q23 0 42 -8t32.5 -21.5t21 -31t7.5 -35.5q0 -9 -1 -18.5t-5.5 -30.5t-12.5 -58.5t-22 -102.5q-11 -48 -43 -80t-87 -32zM347 436q31 0 54 21.5t30 54.5l31 147
l-180 -149q-1 -6 -1 -8.5v-4.5q0 -25 17 -43t49 -18zM472 711q0 25 -16.5 43t-48.5 18t-55 -21.5t-30 -54.5l-32 -147l180 148q2 7 2 9.5v4.5z" />
    <glyph glyph-name="period.superior" 
d="M316 461h61l-13 -60h-61z" />
    <glyph glyph-name="hyphen.superior" 
d="M279 551l5 26h168l-5 -26h-168z" />
    <glyph glyph-name="comma.superior" 
d="M246 336l119 118l31 -32l-118 -117z" />
    <glyph glyph-name="equal.superior" unicode="&#x207c;" 
d="M253 604v26h230v-26h-230zM253 491v26h230v-26h-230z" />
    <glyph glyph-name="plus.superior" unicode="&#x207a;" 
d="M355 551h-102v26h102v101h27v-101h101v-26h-101v-102h-27v102z" />
    <glyph glyph-name="minus.superior" unicode="&#x207b;" 
d="M253 551v26h230v-26h-230z" />
    <glyph glyph-name="parenleft.superior" unicode="&#x207d;" 
d="M382 747q6 29 20 44.5t52 15.5h71l-5 -24h-69q-21 0 -30.5 -9.5t-13.5 -29.5q-35 -171 -54.5 -257t-19.5 -94q0 -21 27 -21h73l-6 -24h-72q-26 0 -36.5 12t-10.5 31q0 4 2.5 16l10 48t22.5 105t39 187z" />
    <glyph glyph-name="parenright.superior" unicode="&#x207e;" 
d="M360 408q-6 -29 -20 -44.5t-52 -15.5h-71l5 24h69q21 0 30.5 9.5t13.5 29.5q35 171 54.5 257t19.5 94q0 21 -27 21h-73l6 24h72q26 0 36.5 -12t10.5 -31q0 -5 -2.5 -16.5t-10 -47.5t-22.5 -105t-39 -187z" />
    <glyph glyph-name="a.inferior" 
d="M228 -61q35 0 61 19t34 57l8 36q-50 -3 -77.5 -6.5t-51.5 -13.5q-17 -7 -26 -18t-9 -31q0 -18 14.5 -30.5t46.5 -12.5zM219 -102q-47 0 -71.5 25t-24.5 55q0 39 17 60.5t60 34.5q28 8 64.5 11.5t74.5 5.5q2 9 3 17t1 13q0 26 -19 38.5t-43 12.5q-30 0 -51.5 -15
t-32.5 -44h-44q15 54 48.5 76.5t84.5 22.5q19 0 37.5 -5.5t32.5 -16.5t22.5 -26.5t8.5 -36.5q0 -16 -7 -48t-14 -63l-12 -56q-5 -21 -8 -38.5t-3 -16.5h-43l7 32q-12 -17 -35.5 -27.5t-52.5 -10.5z" />
    <glyph glyph-name="b.inferior" 
d="M239 -61q35 0 58.5 19t31.5 57q3 13 6 28.5t6 30t5 27t2 19.5q0 26 -19 38.5t-43 12.5q-34 0 -57.5 -19t-31.5 -57q-3 -13 -6 -28.5t-6 -30.5t-5 -27t-2 -19q0 -27 19 -39t42 -12zM238 -102q-26 0 -45 12t-28 31l-8 -37h-43l86 406h43l-29 -136q10 14 31 25.5t51 11.5
q17 0 34.5 -5.5t31 -16.5t22 -26.5t8.5 -36.5q0 -16 -7 -48t-13 -63q-14 -64 -48.5 -90.5t-85.5 -26.5z" />
    <glyph glyph-name="c.inferior" 
d="M234 -102q-20 0 -38 5.5t-32 16.5t-22.5 27t-8.5 37q0 15 7 47.5t14 62.5q14 65 48 91t89 26q19 0 37.5 -5.5t32 -16.5t22 -26.5t8.5 -36.5v-8t-1 -9h-43q1 5 1 7v4q0 26 -19.5 38.5t-42.5 12.5q-34 0 -57.5 -19t-31.5 -57q-3 -13 -6.5 -28.5t-6.5 -30.5t-5 -27t-2 -19
q0 -27 19.5 -39t42.5 -12q31 0 53 15.5t32 46.5h43q-15 -57 -48.5 -80t-84.5 -23z" />
    <glyph glyph-name="d.inferior" 
d="M235 -61q34 0 57.5 19t31.5 57q3 13 6.5 28.5t6.5 30t5 27t2 19.5q0 26 -19.5 38.5t-42.5 12.5q-35 0 -58 -19t-31 -57q-3 -13 -6.5 -28.5t-6.5 -30.5t-5 -27t-2 -19q0 -27 19 -39t43 -12zM226 -102q-18 0 -35 5.5t-31 16.5t-22.5 27t-8.5 37q0 15 7 47.5t14 62.5
q14 65 48 91t85 26q26 0 45 -11.5t28 -31.5l31 142h43l-87 -406h-43l7 32q-10 -15 -31 -26.5t-50 -11.5z" />
    <glyph glyph-name="e.inferior" 
d="M233 -102q-20 0 -38 5.5t-32 16.5t-22.5 27t-8.5 37q0 15 7 47.5t14 62.5q14 65 48 91t89 26q19 0 37.5 -5.5t32 -16.5t22 -26.5t8.5 -36.5q0 -12 -4.5 -34.5l-9.5 -47.5h-191q-4 -17 -6.5 -31.5t-2.5 -22.5q0 -27 19 -39t43 -12q30 0 51.5 15t32.5 44h44
q-16 -54 -49 -77t-84 -23zM341 83q2 12 4 21.5t2 15.5q0 26 -19.5 38.5t-42.5 12.5q-39 0 -62.5 -23.5t-29.5 -64.5h148z" />
    <glyph glyph-name="f.inferior" 
d="M237 163h-85l9 40h86l7 36q4 19 9 32.5t14.5 22t24 12.5t38.5 4h98l-9 -41h-97q-16 0 -23.5 -6t-10.5 -21l-8 -39h125l-9 -40h-126l-54 -259h-43z" />
    <glyph glyph-name="g.inferior" 
d="M238 -50q34 0 57.5 19t31.5 57q5 26 11 53t6 41q0 26 -19 38.5t-43 12.5q-34 0 -57.5 -19t-31.5 -57q-5 -26 -11 -53t-6 -41q0 -26 19 -38.5t43 -12.5zM208 -209q-20 0 -38 5.5t-32 16.5t-22.5 27t-8.5 37q0 3 0.5 8.5t1.5 8.5h42v-11q0 -26 19 -38.5t43 -12.5
q34 0 57.5 19t31.5 57l8 40q-10 -15 -31 -26.5t-50 -11.5q-18 0 -35 5.5t-31 16.5t-22.5 26.5t-8.5 36.5q0 16 6 42.5t12 56.5q14 65 48.5 91t85.5 26q26 0 45 -11.5t28 -31.5l8 35h43l-63 -294q-14 -65 -48.5 -91.5t-88.5 -26.5z" />
    <glyph glyph-name="h.inferior" 
d="M198 310h43l-29 -136q11 14 31.5 25.5t50.5 11.5q18 0 35 -5.5t30.5 -16.5t22 -26.5t8.5 -36.5q0 -15 -6.5 -47.5t-13.5 -63.5l-24 -111h-43l24 111q3 13 6.5 28.5t6.5 30.5t5 27t2 19q0 26 -19.5 38.5t-42.5 12.5q-35 0 -58 -19t-31 -57l-41 -191h-43z" />
    <glyph glyph-name="i.inferior" 
d="M112 -55h106l46 218h-77l9 40h120l-55 -258h105l-8 -41h-255zM281 310h63l-13 -64h-64z" />
    <glyph glyph-name="j.inferior" 
d="M78 -162h126q16 0 23 6.5t10 20.5l64 298h-126l8 40h169l-71 -335q-4 -19 -9 -32.5t-14.5 -22t-24 -12.5t-38.5 -4h-126zM317 310h64l-14 -64h-63z" />
    <glyph glyph-name="k.inferior" 
d="M200 65l156 138h58l-133 -117l85 -182h-46l-72 154l-62 -55l-20 -99h-43l86 406h43z" />
    <glyph glyph-name="l.inferior" 
d="M110 -55h105l69 324h-76l8 41h120l-78 -365h106l-9 -41h-254z" />
    <glyph glyph-name="m.inferior" 
d="M90 -96l64 299h43l-4 -17q7 11 19 18t27 7q16 0 28.5 -8.5t17.5 -22.5q6 11 20 21t38 10q37 0 55.5 -18t18.5 -47q0 -3 -0.5 -6t-2 -11t-4.5 -22.5t-8.5 -40.5t-14 -65.5t-20.5 -96.5h-43q18 86 28.5 133t15 69.5l5.5 27.5t1 8q0 29 -32 29q-20 0 -30 -12t-14 -30
l-48 -225h-43q18 86 28.5 133t15 69.5l5.5 27.5t1 8q0 29 -32 29q-21 0 -30.5 -12t-13.5 -30l-48 -225h-43z" />
    <glyph glyph-name="n.inferior" 
d="M176 203h43l-7 -29q11 14 31.5 25.5t50.5 11.5q18 0 35 -5.5t30.5 -16.5t22 -26.5t8.5 -36.5q0 -15 -6.5 -47.5t-13.5 -63.5l-24 -111h-43l24 111q3 13 6.5 28.5t6.5 30.5t5 27t2 19q0 26 -19.5 38.5t-42.5 12.5q-35 0 -58 -19t-31 -57l-41 -191h-43z" />
    <glyph glyph-name="o.inferior" 
d="M237 -61q34 0 57.5 19t31.5 57q3 13 6.5 28.5t6.5 30.5t5 27t2 19q0 26 -19.5 38.5t-42.5 12.5q-34 0 -57.5 -19t-31.5 -57q-3 -13 -6.5 -28.5t-6.5 -30.5t-5 -27t-2 -19q0 -27 19.5 -39t42.5 -12zM232 -102q-20 0 -38 5.5t-31.5 16.5t-22 27t-8.5 37q0 15 6.5 47.5
t13.5 62.5q14 65 48 91t89 26q19 0 37.5 -5.5t32.5 -16.5t22.5 -26.5t8.5 -36.5q0 -16 -7 -48t-14 -63q-14 -64 -48 -90.5t-89 -26.5z" />
    <glyph glyph-name="p.inferior" 
d="M239 -61q35 0 58.5 19t31.5 57q3 13 6 28.5t6 30t5 27t2 19.5q0 26 -19 38.5t-43 12.5q-34 0 -57.5 -19t-31.5 -57q-3 -13 -6 -28.5t-6 -30.5t-5 -27t-2 -19q0 -27 19 -39t42 -12zM177 203h43l-6 -29q10 14 31 25.5t51 11.5q17 0 34.5 -5.5t31 -16.5t22 -26.5t8.5 -36.5
q0 -16 -7 -48t-13 -63q-14 -64 -48.5 -90.5t-85.5 -26.5q-26 0 -45 12t-28 31l-31 -144h-43z" />
    <glyph glyph-name="q.inferior" 
d="M235 -61q34 0 57.5 19t31.5 57q3 13 6.5 28.5t6.5 30t5 27t2 19.5q0 26 -19.5 38.5t-42.5 12.5q-35 0 -58 -19t-31 -57q-3 -13 -6.5 -28.5t-6.5 -30.5t-5 -27t-2 -19q0 -27 19 -39t43 -12zM307 -64q-10 -15 -31 -26.5t-50 -11.5q-18 0 -35 5.5t-31 16.5t-22.5 27t-8.5 37
q0 15 7 47.5t14 62.5q14 65 48 91t85 26q26 0 45 -11.5t28 -31.5l8 35h43l-86 -406h-43z" />
    <glyph glyph-name="r.inferior" 
d="M96 -55h95l46 218h-66l9 40h109l-7 -32q11 14 31.5 26t50.5 12h71l-8 -41h-73q-34 0 -57.5 -19t-31.5 -57l-31 -147h116l-8 -41h-254z" />
    <glyph glyph-name="s.inferior" 
d="M247 -102q-21 0 -40.5 5.5t-35.5 17t-25.5 29t-9.5 40.5q0 7 1 10h43v-6q0 -29 22 -42t51 -13q10 0 21 2.5t20.5 8t15.5 14.5t6 23t-8.5 26t-31.5 19l-39 12q-29 9 -46 27.5t-17 47.5q0 41 27 66.5t80 25.5q44 0 71.5 -23.5t27.5 -61.5v-10h-43v4q0 26 -18.5 38.5
t-40.5 12.5q-23 0 -42 -11.5t-19 -34.5q0 -14 7 -25.5t27 -17.5l40 -11q30 -9 49.5 -27.5t19.5 -47.5q0 -45 -28 -71.5t-85 -26.5z" />
    <glyph glyph-name="t.inferior" 
d="M250 -96q-29 0 -43 13.5t-14 36.5q0 6 1.5 16.5t6 33t12.5 60t21 99.5h-85l9 40h85l14 68h43l-14 -68h126l-9 -40h-126q-15 -73 -23.5 -113t-12.5 -59.5t-5 -24t-1 -6.5q0 -15 23 -15h99l-9 -41h-98z" />
    <glyph glyph-name="u.inferior" 
d="M228 -102q-17 0 -34 5.5t-30.5 16.5t-22 27t-8.5 37q0 15 7 47.5t13 62.5l23 109h43l-23 -108q-3 -13 -6.5 -28.5t-6.5 -30.5t-5 -27t-2 -19q0 -26 19 -38.5t42 -12.5q33 0 56 19t31 57l40 188h43l-64 -299h-43l7 32q-10 -14 -30.5 -26t-48.5 -12z" />
    <glyph glyph-name="v.inferior" 
d="M160 203h42l36 -248l140 248h46l-171 -299h-48z" />
    <glyph glyph-name="w.inferior" 
d="M145 203h41l-12 -215l87 169h42l13 -177l81 223h43l-112 -299h-38l-16 202l-106 -202h-38z" />
    <glyph glyph-name="x.inferior" 
d="M235 56l-67 147h45l52 -114l99 114h52l-131 -148l67 -151h-43l-53 119l-103 -119h-52z" />
    <glyph glyph-name="y.inferior" 
d="M119 -162h32q14 0 20 5.5t11 13.5l24 41l-46 305h42l36 -248l140 248h46l-214 -374q-10 -17 -27 -24t-45 -8h-28z" />
    <glyph glyph-name="z.inferior" 
d="M180 -55h169l-9 -41h-225l9 41l211 218h-162l9 40h218l-9 -40z" />
    <glyph glyph-name="one.inferior" unicode="&#x2081;" 
d="M190 217l113 93h43l-78 -365h106l-9 -41h-254l9 41h105l64 300l-74 -61z" />
    <glyph glyph-name="two.inferior" unicode="&#x2082;" 
d="M205 112q-30 28 -30 68q0 28 9.5 53t26.5 43.5t41 29t54 10.5q23 0 42 -8t32.5 -21.5t21 -31t7.5 -35.5q0 -40 -18.5 -70t-47.5 -56l-162 -149h174l-9 -41h-234l9 41l193 178q22 20 37.5 42.5t15.5 48.5q0 25 -16.5 43t-48.5 18q-20 0 -36 -8.5t-27 -22t-17 -29t-6 -30.5
q0 -28 19 -45z" />
    <glyph glyph-name="three.inferior" unicode="&#x2083;" 
d="M233 -102q-23 0 -42 8t-32.5 21t-21 30.5t-7.5 35.5v11t2 11h41q-2 -10 -2 -17q0 -26 17 -42.5t49 -16.5q19 0 35 8.5t27.5 21t17.5 28t6 30.5q0 24 -15.5 43t-44.5 21l9 40h7q19 0 34.5 8t26 20.5t16 27.5t5.5 30q0 26 -15 42t-47 16q-35 0 -55.5 -23t-25.5 -49h-42
q6 50 39.5 81.5t87.5 31.5q45 0 72 -27.5t27 -64.5q0 -42 -18 -73.5t-50 -47.5q14 -14 22 -32t8 -38q0 -29 -9.5 -53.5t-26.5 -42.5t-41 -28.5t-54 -10.5z" />
    <glyph glyph-name="four.inferior" unicode="&#x2084;" 
d="M272 -96l23 110h-186l8 41l243 258l31 -27l-218 -231h131l19 92h43l-19 -92h42l-9 -41h-42l-23 -110h-43z" />
    <glyph glyph-name="five.inferior" unicode="&#x2085;" 
d="M237 -102q-23 0 -42 8t-32.5 21.5t-21 31t-7.5 35.5v10t2 11h42q-3 -11 -3 -15q0 -25 17 -42.5t49 -17.5t54.5 21t30.5 54q4 22 6 31t2 13q0 26 -17 44t-49 18q-23 0 -41.5 -12t-30.5 -32l-38 26l89 207h161l-9 -41h-123l-52 -118q7 4 19.5 7t28.5 3q23 0 42 -8t33 -21
t21.5 -30.5t7.5 -35.5q0 -11 -1.5 -21t-6.5 -35q-10 -48 -43 -80t-88 -32z" />
    <glyph glyph-name="six.inferior" unicode="&#x2086;" 
d="M230 -102q-23 0 -42 8t-32.5 21.5t-21 31t-7.5 35.5q0 11 1.5 20.5t6.5 34.5q11 46 37 75l178 189l31 -27l-117 -125h4q22 0 40.5 -8t32 -21t21 -30.5t7.5 -35.5q0 -11 -1.5 -21t-6.5 -35q-10 -48 -43 -80t-88 -32zM234 -61q32 0 54.5 21.5t30.5 54.5q5 22 6.5 31t1.5 13
q0 26 -17 44t-49 18q-31 0 -54 -22t-30 -55q-5 -22 -7 -30.5t-2 -13.5q0 -25 17 -43t49 -18z" />
    <glyph glyph-name="seven.inferior" unicode="&#x2087;" 
d="M200 310h230l-8 -41l-208 -368l-39 15l200 353h-141l-15 -68h-43z" />
    <glyph glyph-name="eight.inferior" unicode="&#x2088;" 
d="M238 -102q-23 0 -42 8t-32.5 21.5t-21 31t-7.5 35.5q0 42 18.5 74t51.5 48q-26 26 -26 65q0 30 9.5 55t27 43t40.5 27.5t50 9.5q46 0 73 -27.5t27 -64.5q0 -43 -18.5 -74t-49.5 -47q14 -14 22.5 -31.5t8.5 -36.5q0 -29 -9.5 -54t-26.5 -43.5t-41 -29t-54 -10.5zM242 -61
q20 0 36 8.5t27 21.5t17 28.5t6 30.5q0 26 -17 43.5t-49 17.5q-20 0 -35.5 -8.5t-27 -22t-17.5 -29t-6 -30.5q0 -26 17 -43t49 -17zM282 130q20 0 35 8t25.5 21t16 28t5.5 30q0 26 -15 42t-47 16q-20 0 -35 -8t-25.5 -21t-16 -28t-5.5 -30q0 -26 15 -42t47 -16z" />
    <glyph glyph-name="nine.inferior" unicode="&#x2089;" 
d="M313 316q23 0 42 -8t32.5 -21.5t21 -31t7.5 -35.5q0 -11 -1.5 -20.5t-6.5 -34.5q-11 -46 -37 -75l-178 -189l-31 27l117 125h-4q-22 0 -40.5 8t-32 21t-21 30.5t-7.5 35.5q0 6 0.5 10.5t1 10.5t2 14t4.5 21q10 48 43 80t88 32zM309 275q-32 0 -54.5 -21.5t-30.5 -54.5
q-5 -22 -6.5 -31t-1.5 -13q0 -26 17 -44t49 -18q31 0 54 22t30 55q5 22 7 30.5t2 13.5q0 25 -17 43t-49 18z" />
    <glyph glyph-name="zero.inferior" unicode="&#x2080;" 
d="M238 -102q-23 0 -42 8t-32.5 21.5t-21 31t-7.5 35.5q0 9 1 18t5 30t12 59t22 103q11 48 43.5 80t87.5 32q23 0 42 -8t32.5 -21.5t21 -31t7.5 -35.5q0 -9 -1 -18.5t-5.5 -30.5t-12.5 -58.5t-22 -102.5q-11 -48 -43 -80t-87 -32zM242 -61q31 0 54 21.5t30 54.5l31 147
l-180 -149q-1 -6 -1 -8.5v-4.5q0 -25 17 -43t49 -18zM367 214q0 25 -16.5 43t-48.5 18t-55 -21.5t-30 -54.5l-32 -147l180 148q2 7 2 9.5v4.5z" />
    <glyph glyph-name="period.inferior" 
d="M211 -36h61l-13 -60h-61z" />
    <glyph glyph-name="hyphen.inferior" 
d="M174 54l5 26h168l-5 -26h-168z" />
    <glyph glyph-name="comma.inferior" 
d="M141 -161l119 118l31 -32l-118 -117z" />
    <glyph glyph-name="equal.inferior" 
d="M148 107v26h230v-26h-230zM148 -6v26h230v-26h-230z" />
    <glyph glyph-name="plus.inferior" 
d="M250 54h-102v26h102v101h27v-101h101v-26h-101v-102h-27v102z" />
    <glyph glyph-name="minus.inferior" 
d="M148 54v26h230v-26h-230z" />
    <glyph glyph-name="parenleft.inferior" unicode="&#x208d;" 
d="M277 250q6 29 20 44.5t52 15.5h71l-5 -24h-69q-21 0 -30.5 -9.5t-13.5 -29.5q-35 -171 -54.5 -257t-19.5 -94q0 -21 27 -21h73l-6 -24h-72q-26 0 -36.5 12t-10.5 31q0 4 2.5 16l10 48t22.5 105t39 187z" />
    <glyph glyph-name="parenright.inferior" unicode="&#x208e;" 
d="M255 -89q-6 -29 -20 -44.5t-52 -15.5h-71l5 24h69q21 0 30.5 9.5t13.5 29.5q35 171 54.5 257t19.5 94q0 21 -27 21h-73l6 24h72q26 0 36.5 -12t10.5 -31q0 -5 -2.5 -16.5t-10 -47.5t-22.5 -105t-39 -187z" />
    <glyph glyph-name="one.numerator" 
d="M117 635l79 65h42l-48 -221h69l-9 -40h-178l9 40h67l34 158l-40 -34z" />
    <glyph glyph-name="two.numerator" 
d="M130 567q-17 20 -17 44q0 38 24 65.5t67 27.5q29 0 50.5 -20.5t21.5 -49.5q0 -27 -11.5 -45.5t-34.5 -37.5l-84 -72h99l-9 -40h-162l9 40l116 99q16 14 26 25t10 28q0 14 -9 23.5t-25 9.5q-21 0 -34 -14.5t-13 -35.5q0 -13 7 -21z" />
    <glyph glyph-name="three.numerator" 
d="M170 435q-15 0 -28 5.5t-23.5 15t-16.5 22.5t-6 27v4.5t1 6.5h41q-1 -3 -1 -8q0 -14 10 -23.5t26 -9.5q21 0 33 14.5t12 35.5q0 13 -9 22.5t-23 10.5l8 38h4q17 0 27 11t10 29q0 11 -7.5 19.5t-20.5 8.5q-34 0 -37 -34h-41q2 32 22.5 53t58.5 21q26 0 45.5 -18t19.5 -47
q0 -22 -8 -39.5t-24 -28.5q16 -19 16 -43q0 -38 -23 -65.5t-66 -27.5z" />
    <glyph glyph-name="four.numerator" 
d="M194 439l13 63h-115l9 40l150 160l30 -26l-126 -134h61l11 53h42l-11 -53h27l-9 -40h-27l-13 -63h-42z" />
    <glyph glyph-name="five.numerator" 
d="M174 435q-31 0 -51.5 20.5t-20.5 49.5v11h41v-8q0 -14 9 -23.5t24 -9.5q19 0 30.5 12t15.5 29q2 8 2.5 12t0.5 7q0 14 -9 23.5t-25 9.5q-23 0 -36 -19l-36 33l51 118h117l-9 -39h-82l-24 -57q4 2 10 3t12 1q31 0 51.5 -20.5t20.5 -49.5v-7.5t-2 -13.5q-8 -36 -29 -59
t-61 -23z" />
    <glyph glyph-name="six.numerator" 
d="M188 435q-31 0 -51.5 20.5t-20.5 49.5v8.5t2 13.5q8 37 28 57l111 118l31 -26l-66 -69l4 -1q23 -5 38.5 -25t15.5 -43v-8.5t-2 -12.5q-8 -37 -29 -59.5t-61 -22.5zM191 475q19 0 29.5 11.5t15.5 29.5q4 15 4 19q0 14 -9.5 23.5t-24.5 9.5q-19 0 -30.5 -12t-15.5 -29
q-2 -8 -2.5 -12t-0.5 -7q0 -14 9 -23.5t25 -9.5z" />
    <glyph glyph-name="seven.numerator" 
d="M169 700h160l-8 -40l-127 -223l-38 15l119 209h-72l-8 -40h-42z" />
    <glyph glyph-name="eight.numerator" 
d="M177 435q-29 0 -50.5 20.5t-21.5 49.5q0 26 11.5 47t32.5 33q-11 16 -11 37q0 35 20.5 58.5t60.5 23.5q26 0 45.5 -18t19.5 -47q0 -44 -33 -68q17 -19 17 -43q0 -38 -24 -65.5t-67 -27.5zM180 475q21 0 34 14.5t13 35.5q0 14 -9.5 23.5t-24.5 9.5q-21 0 -34 -14.5
t-13 -35.5q0 -14 9 -23.5t25 -9.5zM205 597q17 0 28 10.5t11 28.5q0 11 -7.5 19.5t-20.5 8.5q-18 0 -27.5 -10.5t-9.5 -28.5q0 -11 6.5 -19.5t19.5 -8.5z" />
    <glyph glyph-name="nine.numerator" 
d="M237 704q31 0 51.5 -20.5t20.5 -49.5v-8.5t-2 -13.5q-8 -37 -28 -57l-111 -118l-31 26l66 69l-4 1q-23 5 -38.5 25t-15.5 43v8.5t2 12.5q8 37 29 59.5t61 22.5zM234 664q-19 0 -29.5 -11.5t-15.5 -29.5q-4 -15 -4 -19q0 -14 9.5 -23.5t24.5 -9.5q19 0 30.5 12t15.5 29
q2 8 2.5 12t0.5 7q0 14 -9 23.5t-25 9.5z" />
    <glyph glyph-name="zero.numerator" 
d="M138 622q8 36 29 59t61 23q30 0 51 -20.5t21 -49.5q0 -8 -5.5 -36.5t-16.5 -80.5q-8 -36 -29 -59t-61 -23q-30 0 -51 20.5t-21 49.5q0 8 5.5 36.5t16.5 80.5zM236 516q6 29 10.5 48.5t6.5 32.5l-95 -79q-1 -5 -1 -7v-3q0 -14 9 -23.5t25 -9.5q19 0 30 12t15 29zM259 631
q0 14 -9 23.5t-25 9.5q-19 0 -30 -12t-15 -29l-17 -79l95 78q1 5 1 9z" />
    <glyph glyph-name="one.denominator" 
d="M376 196l79 65h42l-48 -221h69l-9 -40h-178l9 40h67l34 158l-40 -34z" />
    <glyph glyph-name="two.denominator" 
d="M379 128q-8 9 -12.5 20.5t-4.5 23.5q0 38 24 65.5t67 27.5q29 0 50.5 -20.5t21.5 -49.5q0 -27 -11.5 -45.5t-34.5 -37.5l-84 -72h99l-9 -40h-162l9 40l116 99q16 14 26 25t10 28q0 14 -9 23.5t-25 9.5q-21 0 -34 -14.5t-13 -35.5q0 -13 7 -21z" />
    <glyph glyph-name="three.denominator" 
d="M423 -4q-15 0 -28 5.5t-23.5 15t-16.5 22.5t-6 27v4.5t1 6.5h41q-1 -3 -1 -8q0 -14 10 -23.5t26 -9.5q21 0 33 14.5t12 35.5q0 13 -9 22.5t-23 10.5l8 38h4q17 0 27 11t10 29q0 11 -7.5 19.5t-20.5 8.5q-34 0 -37 -34h-41q2 32 22.5 53t58.5 21q26 0 45.5 -18t19.5 -47
q0 -22 -8 -39.5t-24 -28.5q16 -19 16 -43q0 -38 -23 -65.5t-66 -27.5z" />
    <glyph glyph-name="four.denominator" 
d="M448 0l13 63h-115l9 40l150 160l30 -26l-126 -134h61l11 53h42l-11 -53h27l-9 -40h-27l-13 -63h-42z" />
    <glyph glyph-name="five.denominator" 
d="M422 -4q-31 0 -51.5 20.5t-20.5 49.5v11h41v-8q0 -14 9 -23.5t24 -9.5q19 0 30.5 12t15.5 29q2 8 2.5 12t0.5 7q0 14 -9 23.5t-25 9.5q-23 0 -36 -19l-36 33l51 118h117l-9 -39h-82l-24 -57q4 2 10 3t12 1q31 0 51.5 -20.5t20.5 -49.5v-7.5t-2 -13.5q-8 -36 -29 -59
t-61 -23z" />
    <glyph glyph-name="six.denominator" 
d="M426 -4q-31 0 -51.5 20.5t-20.5 49.5v8.5t2 13.5q8 37 28 57l111 118l31 -26l-66 -69l4 -1q23 -5 38.5 -25t15.5 -43v-8.5t-2 -12.5q-8 -37 -29 -59.5t-61 -22.5zM429 36q19 0 29.5 11.5t15.5 29.5q4 15 4 19q0 14 -9.5 23.5t-24.5 9.5q-19 0 -30.5 -12t-15.5 -29
q-2 -8 -2.5 -12t-0.5 -7q0 -14 9 -23.5t25 -9.5z" />
    <glyph glyph-name="seven.denominator" 
d="M412 261h160l-8 -40l-127 -223l-38 15l119 209h-72l-8 -40h-42z" />
    <glyph glyph-name="eight.denominator" 
d="M431 -4q-29 0 -50.5 20.5t-21.5 49.5q0 26 11.5 47t32.5 33q-11 16 -11 37q0 35 20.5 58.5t60.5 23.5q26 0 45.5 -18t19.5 -47q0 -44 -33 -68q17 -19 17 -43q0 -38 -24 -65.5t-67 -27.5zM434 36q21 0 34 14.5t13 35.5q0 14 -9.5 23.5t-24.5 9.5q-21 0 -34 -14.5
t-13 -35.5q0 -14 9 -23.5t25 -9.5zM459 158q17 0 28 10.5t11 28.5q0 11 -7.5 19.5t-20.5 8.5q-18 0 -27.5 -10.5t-9.5 -28.5q0 -11 6.5 -19.5t19.5 -8.5z" />
    <glyph glyph-name="nine.denominator" 
d="M460 265q31 0 51.5 -20.5t20.5 -49.5v-8.5t-2 -13.5q-8 -37 -28 -57l-111 -118l-31 26l66 69l-4 1q-23 5 -38.5 25t-15.5 43v8.5t2 12.5q8 37 29 59.5t61 22.5zM457 225q-19 0 -29.5 -11.5t-15.5 -29.5q-4 -15 -4 -19q0 -14 9.5 -23.5t24.5 -9.5q19 0 30.5 12t15.5 29
q2 8 2.5 12t0.5 7q0 14 -9 23.5t-25 9.5z" />
    <glyph glyph-name="zero.denominator" 
d="M367 183q8 36 29 59t61 23q30 0 51 -20.5t21 -49.5q0 -8 -5.5 -36.5t-16.5 -80.5q-8 -36 -29 -59t-61 -23q-30 0 -51 20.5t-21 49.5q0 8 5.5 36.5t16.5 80.5zM465 77q6 29 10.5 48.5t6.5 32.5l-95 -79q-1 -5 -1 -7v-3q0 -14 9 -23.5t25 -9.5q19 0 30 12t15 29zM488 192
q0 14 -9 23.5t-25 9.5q-19 0 -30 -12t-15 -29l-17 -79l95 78q1 5 1 9z" />
    <glyph glyph-name="ampersand.case" 
d="M213 -10q-41 0 -74 14t-55.5 38t-34.5 56t-12 67q0 46 15 88t44 73.5t71 50t96 18.5q20 0 40 -5l-92 258l12 52h328l-12 -52h-272l157 -441l123 160l44 -29l-147 -188l46 -129l-47 -25l-38 105q-19 -27 -38.5 -47.5t-42 -35t-49.5 -21.5t-62 -7zM220 42q32 0 56 10.5
t43 27t34.5 37.5t31.5 41l-60 170q-14 7 -31.5 11t-37.5 4q-37 0 -67.5 -14.5t-52.5 -38t-34 -54t-12 -61.5q0 -24 7.5 -48t23.5 -42.5t40.5 -30.5t58.5 -12z" />
    <glyph glyph-name="hyphen.case" 
d="M172 315l9 45h290l-9 -45h-290z" />
    <glyph glyph-name="endash.case" 
d="M119 315l9 45h396l-9 -45h-396z" />
    <glyph glyph-name="emdash.case" 
d="M87 315l9 45h459l-9 -45h-459z" />
    <glyph glyph-name="question.case" 
d="M327 368q37 0 67.5 15t52.5 39t33.5 54.5t11.5 60.5q0 23 -7.5 45t-23.5 38.5t-40.5 26.5t-58.5 10q-33 0 -61 -12.5t-49 -33t-34.5 -46.5t-17.5 -54h-53q5 42 22.5 78t46 63t67.5 42.5t86 15.5q41 0 73.5 -14t55.5 -36.5t35 -52t12 -60.5q0 -47 -15 -88t-42.5 -72.5
t-67.5 -50.5t-90 -21l-18 -85h-56l30 138h41zM211 84h84l-18 -84h-84z" />
    <glyph glyph-name="questiondown.case" 
d="M293 332q-36 -2 -65 -17t-49.5 -39t-31.5 -53.5t-11 -59.5q0 -23 7.5 -45t23.5 -38.5t40.5 -26.5t58.5 -10q33 0 61 12.5t49 33t34.5 46.5t17.5 54h53q-5 -42 -23 -78t-46.5 -63t-67 -42.5t-85.5 -15.5q-41 0 -73.5 14t-55.5 36.5t-35 52t-12 60.5q0 46 14.5 87.5
t42.5 73t68 50.5t90 21l18 85h56l-30 -138h-49zM417 616h-84l18 84h84z" />
    <glyph glyph-name="exclam.case" 
d="M425 700l-104 -490h-55l104 490h55zM225 84h84l-18 -84h-84z" />
    <glyph glyph-name="exclamdown.case" 
d="M221 0l104 490h55l-104 -490h-55zM421 616h-84l18 84h84z" />
    <glyph glyph-name="guilsinglleft.case" 
d="M172 315l254 210l29 -34l-221 -182l137 -176l-34 -28z" />
    <glyph glyph-name="guilsinglright.case" 
d="M436 315l-254 -210l-29 34l221 182l-137 176l34 28z" />
    <glyph glyph-name="guillemotleft.case" 
d="M65 315l254 210l29 -34l-221 -182l137 -176l-34 -28zM290 315l254 210l29 -34l-221 -182l137 -176l-34 -28z" />
    <glyph glyph-name="guillemotright.case" 
d="M543 315l-254 -210l-29 34l221 182l-137 176l34 28zM318 315l-254 -210l-29 34l221 182l-137 176l34 28z" />
    <glyph glyph-name="parenleft.case" 
d="M333 597q5 25 13 44t21.5 32t35 20t54.5 7h123l-9 -42h-119q-36 0 -52.5 -16t-24.5 -51q-31 -146 -51.5 -242t-33 -154t-17.5 -84.5t-5 -32.5q0 -36 47 -36h125l-9 -42h-125q-44 0 -62.5 21.5t-18.5 53.5q0 5 1.5 16t6 33.5t12.5 59t20 93t28.5 135t39.5 185.5z" />
    <glyph glyph-name="parenright.case" 
d="M315 103q-5 -25 -13 -44t-21.5 -32t-35 -20t-54.5 -7h-123l9 42h119q36 0 52.5 16t24.5 51q31 146 51.5 242t33 154t17.5 84.5t5 32.5q0 36 -47 36h-125l9 42h125q44 0 62.5 -21.5t18.5 -53.5q0 -5 -1.5 -16t-6 -33.5t-12.5 -59t-20 -93t-28.5 -135t-39.5 -185.5z" />
    <glyph glyph-name="bracketleft.case" 
d="M354 700h225l-9 -42h-182l-131 -616h182l-9 -42h-225z" />
    <glyph glyph-name="bracketright.case" 
d="M293 0h-225l9 42h182l131 616h-182l9 42h225z" />
    <glyph glyph-name="braceleft.case" 
d="M266 293q0 18 -11.5 27t-42.5 9h-10l9 42h10q40 0 55 15t22 46l35 165q5 25 13 44t21.5 32t35 20t54.5 7h123l-9 -42h-119q-36 0 -52.5 -16t-24.5 -51l-34 -159q-6 -28 -16 -51.5t-34 -34.5q11 -8 14.5 -18.5t3.5 -26.5q0 -9 -3 -27.5t-7.5 -40.5t-10 -46.5t-10 -46.5
t-7.5 -38.5t-3 -23.5q0 -36 47 -36h125l-9 -42h-125q-44 0 -62.5 21.5t-18.5 53.5q0 8 3 25.5t7.5 39.5t10 46t10 45.5t7.5 38t3 23.5z" />
    <glyph glyph-name="braceright.case" 
d="M381 407q0 -18 11.5 -27t42.5 -9h10l-9 -42h-10q-40 0 -55 -15t-22 -46l-35 -165q-5 -25 -13 -44t-21.5 -32t-35 -20t-54.5 -7h-123l9 42h119q36 0 52.5 16t24.5 51l34 159q6 28 16 51.5t34 34.5q-11 8 -14.5 18.5t-3.5 26.5q0 14 6.5 46.5t14 68.5t14 66.5t6.5 41.5
q0 36 -47 36h-125l9 42h125q44 0 62.5 -21.5t18.5 -53.5q0 -8 -3 -25.5t-7.5 -39.5t-10 -46t-10 -45.5t-7.5 -38t-3 -23.5z" />
    <glyph glyph-name="bar.case" 
d="M302 700h43v-700h-43v700z" />
    <glyph glyph-name="brokenbar.case" 
d="M302 289h43v-289h-43v289zM302 700h43v-289h-43v289z" />
    <glyph glyph-name="periodcentered.case" 
d="M290 389h84l-17 -84h-84z" />
    <glyph glyph-name="at.case" 
d="M423 124q-19 -23 -46 -33.5t-59 -10.5q-69 0 -104.5 39.5t-35.5 99.5v36q0 60 35.5 99.5t104.5 39.5h87v88q0 45 -24 66t-63 21t-63 -21t-24 -66v-32h-53v31q0 60 35.5 99.5t104.5 39.5t104.5 -39.5t35.5 -99.5v-317q0 -19 11.5 -30.5t31.5 -11.5t31.5 11.5t11.5 30.5
v307q0 48 -14.5 88t-43 68.5t-69.5 44.5t-94 16t-94 -16t-69.5 -44.5t-43 -68.5t-14.5 -88v-242q0 -48 14.5 -88t43 -68.5t69.5 -44.5t94 -16v-42q-63 0 -112 18.5t-83 52.5t-51.5 82t-17.5 106v242q0 58 17.5 106t51.5 82t83 52.5t112 18.5t112 -18.5t83 -52.5t51.5 -82
t17.5 -106v-304q0 -38 -21 -62.5t-65 -24.5q-25 0 -47.5 11t-30.5 33zM318 131q39 0 63 21t24 66v125h-87q-39 0 -63 -21.5t-24 -66.5v-37q0 -45 24 -66t63 -21z" />
    <glyph glyph-name="plus.case" 
d="M298 315h-176v45h176v175h45v-175h175v-45h-175v-176h-45v176z" />
    <glyph glyph-name="minus.case" 
d="M122 315v45h396v-45h-396z" />
    <glyph glyph-name="divide.case" 
d="M278 536q0 17 12.5 29.5t29.5 12.5t29.5 -12.5t12.5 -29.5t-12.5 -29.5t-29.5 -12.5t-29.5 12.5t-12.5 29.5zM278 139q0 17 12.5 29.5t29.5 12.5t29.5 -12.5t12.5 -29.5t-12.5 -29.5t-29.5 -12.5t-29.5 12.5t-12.5 29.5zM122 315v45h396v-45h-396z" />
    <glyph glyph-name="multiply.case" 
d="M352 337l140 -139l-32 -32l-140 139l-139 -139l-32 32l139 139l-139 139l32 32l139 -139l140 139l32 -32z" />
    <glyph glyph-name="equal.case" 
d="M122 212v45h396v-45h-396zM122 407v45h396v-45h-396z" />
    <glyph glyph-name="plusminus.case" 
d="M298 407h-176v45h176v121h45v-121h175v-45h-175v-121h-45v121zM122 212v45h396v-45h-396z" />
    <glyph glyph-name="less.case" 
d="M210 317l239 -239l-32 -31l-270 270l270 270l32 -31z" />
    <glyph glyph-name="greater.case" 
d="M159 556l32 31l270 -270l-270 -270l-32 31l239 239z" />
    <glyph glyph-name="lessequal.case" 
d="M122 57v45h396v-45h-396zM122 356v44l396 180v-48l-338 -154l338 -154v-48z" />
    <glyph glyph-name="greaterequal.case" 
d="M122 57v45h396v-45h-396zM122 176v48l338 154l-338 154v48l396 -180v-44z" />
    <glyph glyph-name="notequal.case" 
d="M277 212l-65 -117l-37 22l53 95h-106v45h396v-45h-241zM412 452h106v-45h-396v45h240l66 117l37 -22z" />
    <glyph glyph-name="acute.case" 
d="M266 733l12 54l264 72l-12 -54z" />
    <glyph glyph-name="breve.case" 
d="M353 743q-40 0 -65 25t-25 63v11t2 12h47q-1 -5 -1 -13q0 -21 13.5 -35t36.5 -14h55q31 0 52.5 20t26.5 42h52q-10 -46 -45 -78.5t-89 -32.5h-60z" />
    <glyph glyph-name="caron.case" 
d="M395 787l167 72l-13 -58l-157 -68l-145 77l11 49z" />
    <glyph glyph-name="cedilla.case" 
d="M210 -134l18 84h50l-29 -134h-134l11 50h84z" />
    <glyph glyph-name="circumflex.case" 
d="M414 805l-167 -72l13 58l157 68l145 -77l-11 -49z" />
    <glyph glyph-name="dieresis.case" 
d="M257 837h76l-17 -76h-76zM493 837h76l-17 -76h-76z" />
    <glyph glyph-name="dotaccent.case" 
d="M375 837h76l-17 -76h-76z" />
    <glyph glyph-name="grave.case" 
d="M267 811l10 48l264 -72l-10 -48z" />
    <glyph glyph-name="hungarumlaut.case" 
d="M242 753l12 54l126 35l-12 -54zM428 753l12 54l126 35l-12 -54z" />
    <glyph glyph-name="macron.case" 
d="M242 774l11 50h312l-11 -50h-312z" />
    <glyph glyph-name="ogonek.case" 
d="M262 -186q-9 -2 -14.5 -2.5t-11.5 -0.5q-37 0 -60 26.5t-23 59.5q0 40 20 66t46 37h83q-15 -6 -32.5 -14.5t-32.5 -20t-25 -27t-10 -34.5q0 -44 46 -44q12 0 24 3z" />
    <glyph glyph-name="ring.case" 
d="M290 765q0 24 9 44.5t24.5 36.5t36 25t44.5 9t44.5 -9t36.5 -25t25 -36.5t9 -44.5t-9 -44.5t-25 -36t-36.5 -24.5t-44.5 -9t-44.5 9t-36 24.5t-24.5 36t-9 44.5zM339 765q0 -27 19 -46t46 -19t46.5 19t19.5 46t-19.5 46.5t-46.5 19.5t-46 -19.5t-19 -46.5z" />
    <glyph glyph-name="tilde.case" 
d="M448 737l-91 66l-124 -66l14 63l113 60l91 -66l124 66l-14 -63z" />
    <glyph glyph-name="at.case.ss01" 
d="M423 124q-19 -23 -46 -33.5t-59 -10.5q-69 0 -104.5 39.5t-35.5 99.5v262q0 60 35.5 99.5t104.5 39.5q31 0 52 -10t35 -26v22h53v-442q0 -19 11.5 -30.5t31.5 -11.5t31.5 11.5t11.5 30.5v307q0 48 -14.5 88t-43 68.5t-69.5 44.5t-94 16t-94 -16t-69.5 -44.5t-43 -68.5
t-14.5 -88v-242q0 -48 14.5 -88t43 -68.5t69.5 -44.5t94 -16v-42q-63 0 -112 18.5t-83 52.5t-51.5 82t-17.5 106v242q0 58 17.5 106t51.5 82t83 52.5t112 18.5t112 -18.5t83 -52.5t51.5 -82t17.5 -106v-304q0 -38 -21 -62.5t-65 -24.5q-25 0 -47.5 11t-30.5 33zM405 482
q0 45 -24 66t-63 21t-63 -21t-24 -66v-264q0 -45 24 -66t63 -21t63 21t24 66v264z" />
    <glyph glyph-name="a.ss01" 
d="M261 40q60 0 107 38.5t62 108.5q12 56 19 88t10.5 49.5t4.5 26t1 17.5q0 52 -31.5 82t-93.5 30q-60 0 -107 -38.5t-62 -108.5q-12 -56 -19 -88t-10.5 -49.5t-4.5 -26t-1 -17.5q0 -52 31.5 -82t93.5 -30zM404 63q-20 -30 -58.5 -51.5t-93.5 -21.5q-29 0 -58.5 8.5
t-54 27.5t-40 48.5t-15.5 71.5q0 11 0.5 20t4 27t10.5 50t19 90q22 105 83.5 151t147.5 46q29 0 52 -8t40.5 -20t28.5 -27t16 -28l14 69h53l-110 -516h-53z" />
    <glyph glyph-name="aacute.ss01" 
d="M261 40q60 0 107 38.5t62 108.5q12 56 19 88t10.5 49.5t4.5 26t1 17.5q0 52 -31.5 82t-93.5 30q-60 0 -107 -38.5t-62 -108.5q-12 -56 -19 -88t-10.5 -49.5t-4.5 -26t-1 -17.5q0 -52 31.5 -82t93.5 -30zM404 63q-20 -30 -58.5 -51.5t-93.5 -21.5q-29 0 -58.5 8.5
t-54 27.5t-40 48.5t-15.5 71.5q0 11 0.5 20t4 27t10.5 50t19 90q22 105 83.5 151t147.5 46q29 0 52 -8t40.5 -20t28.5 -27t16 -28l14 69h53l-110 -516h-53zM246 579l12 54l264 72l-12 -54z" />
    <glyph glyph-name="abreve.ss01" 
d="M261 40q60 0 107 38.5t62 108.5q12 56 19 88t10.5 49.5t4.5 26t1 17.5q0 52 -31.5 82t-93.5 30q-60 0 -107 -38.5t-62 -108.5q-12 -56 -19 -88t-10.5 -49.5t-4.5 -26t-1 -17.5q0 -52 31.5 -82t93.5 -30zM404 63q-20 -30 -58.5 -51.5t-93.5 -21.5q-29 0 -58.5 8.5
t-54 27.5t-40 48.5t-15.5 71.5q0 11 0.5 20t4 27t10.5 50t19 90q22 105 83.5 151t147.5 46q29 0 52 -8t40.5 -20t28.5 -27t16 -28l14 69h53l-110 -516h-53zM341 589q-40 0 -65 25t-25 63v11t2 12h47q-1 -5 -1 -13q0 -21 13.5 -35t36.5 -14h55q31 0 52.5 20t26.5 42h52
q-10 -46 -45 -78.5t-89 -32.5h-60z" />
    <glyph glyph-name="acircumflex.ss01" 
d="M261 40q60 0 107 38.5t62 108.5q12 56 19 88t10.5 49.5t4.5 26t1 17.5q0 52 -31.5 82t-93.5 30q-60 0 -107 -38.5t-62 -108.5q-12 -56 -19 -88t-10.5 -49.5t-4.5 -26t-1 -17.5q0 -52 31.5 -82t93.5 -30zM404 63q-20 -30 -58.5 -51.5t-93.5 -21.5q-29 0 -58.5 8.5
t-54 27.5t-40 48.5t-15.5 71.5q0 11 0.5 20t4 27t10.5 50t19 90q22 105 83.5 151t147.5 46q29 0 52 -8t40.5 -20t28.5 -27t16 -28l14 69h53l-110 -516h-53zM389 651l-167 -72l13 58l157 68l145 -77l-11 -49z" />
    <glyph glyph-name="adieresis.ss01" 
d="M261 40q60 0 107 38.5t62 108.5q12 56 19 88t10.5 49.5t4.5 26t1 17.5q0 52 -31.5 82t-93.5 30q-60 0 -107 -38.5t-62 -108.5q-12 -56 -19 -88t-10.5 -49.5t-4.5 -26t-1 -17.5q0 -52 31.5 -82t93.5 -30zM404 63q-20 -30 -58.5 -51.5t-93.5 -21.5q-29 0 -58.5 8.5
t-54 27.5t-40 48.5t-15.5 71.5q0 11 0.5 20t4 27t10.5 50t19 90q22 105 83.5 151t147.5 46q29 0 52 -8t40.5 -20t28.5 -27t16 -28l14 69h53l-110 -516h-53zM236 683h76l-17 -76h-76zM472 683h76l-17 -76h-76z" />
    <glyph glyph-name="agrave.ss01" 
d="M261 40q60 0 107 38.5t62 108.5q12 56 19 88t10.5 49.5t4.5 26t1 17.5q0 52 -31.5 82t-93.5 30q-60 0 -107 -38.5t-62 -108.5q-12 -56 -19 -88t-10.5 -49.5t-4.5 -26t-1 -17.5q0 -52 31.5 -82t93.5 -30zM404 63q-20 -30 -58.5 -51.5t-93.5 -21.5q-29 0 -58.5 8.5
t-54 27.5t-40 48.5t-15.5 71.5q0 11 0.5 20t4 27t10.5 50t19 90q22 105 83.5 151t147.5 46q29 0 52 -8t40.5 -20t28.5 -27t16 -28l14 69h53l-110 -516h-53zM247 657l10 48l264 -72l-10 -48z" />
    <glyph glyph-name="amacron.ss01" 
d="M261 40q60 0 107 38.5t62 108.5q12 56 19 88t10.5 49.5t4.5 26t1 17.5q0 52 -31.5 82t-93.5 30q-60 0 -107 -38.5t-62 -108.5q-12 -56 -19 -88t-10.5 -49.5t-4.5 -26t-1 -17.5q0 -52 31.5 -82t93.5 -30zM404 63q-20 -30 -58.5 -51.5t-93.5 -21.5q-29 0 -58.5 8.5
t-54 27.5t-40 48.5t-15.5 71.5q0 11 0.5 20t4 27t10.5 50t19 90q22 105 83.5 151t147.5 46q29 0 52 -8t40.5 -20t28.5 -27t16 -28l14 69h53l-110 -516h-53zM222 620l11 50h312l-11 -50h-312z" />
    <glyph glyph-name="aogonek.ss01" 
d="M403 -186q-9 -2 -14.5 -2.5t-11.5 -0.5q-37 0 -60 26.5t-23 59.5q0 22 8 39t21.5 30t30.5 21t36 13l14 63q-20 -30 -58.5 -51.5t-93.5 -21.5q-29 0 -58.5 8.5t-54 27.5t-40 48.5t-15.5 71.5q0 11 0.5 20t4 27t10.5 50t19 90q22 105 83.5 151t147.5 46q29 0 52 -8
t40.5 -20t28.5 -27t16 -28l14 69h53l-110 -516q-15 -6 -32.5 -14.5t-32.5 -20t-25 -27t-10 -34.5q0 -44 46 -44q12 0 24 3zM261 40q60 0 107 38.5t62 108.5q12 56 19 88t10.5 49.5t4.5 26t1 17.5q0 52 -31.5 82t-93.5 30q-60 0 -107 -38.5t-62 -108.5q-12 -56 -19 -88
t-10.5 -49.5t-4.5 -26t-1 -17.5q0 -52 31.5 -82t93.5 -30z" />
    <glyph glyph-name="aring.ss01" 
d="M258 595q0 24 9 44.5t24.5 36.5t36 25t44.5 9t44.5 -9t36.5 -25t25 -36.5t9 -44.5q0 -29 -13 -52.5t-34 -39.5q18 -13 29.5 -27.5t16.5 -28.5l14 69h53l-110 -516h-53l14 63q-20 -30 -58.5 -51.5t-93.5 -21.5q-29 0 -58.5 8.5t-54 27.5t-40 48.5t-15.5 71.5q0 11 0.5 20
t4 27t10.5 50t19 90q18 85 60.5 130.5t104.5 59.5q-25 30 -25 72zM261 40q60 0 107 38.5t62 108.5q12 56 19 88t10.5 49.5t4.5 26t1 17.5q0 52 -31.5 82t-93.5 30q-60 0 -107 -38.5t-62 -108.5q-12 -56 -19 -88t-10.5 -49.5t-4.5 -26t-1 -17.5q0 -52 31.5 -82t93.5 -30z
M307 595q0 -27 19 -46t46 -19t46.5 19t19.5 46t-19.5 46.5t-46.5 19.5t-46 -19.5t-19 -46.5z" />
    <glyph glyph-name="atilde.ss01" 
d="M261 40q60 0 107 38.5t62 108.5q12 56 19 88t10.5 49.5t4.5 26t1 17.5q0 52 -31.5 82t-93.5 30q-60 0 -107 -38.5t-62 -108.5q-12 -56 -19 -88t-10.5 -49.5t-4.5 -26t-1 -17.5q0 -52 31.5 -82t93.5 -30zM404 63q-20 -30 -58.5 -51.5t-93.5 -21.5q-29 0 -58.5 8.5
t-54 27.5t-40 48.5t-15.5 71.5q0 11 0.5 20t4 27t10.5 50t19 90q22 105 83.5 151t147.5 46q29 0 52 -8t40.5 -20t28.5 -27t16 -28l14 69h53l-110 -516h-53zM427 580l-91 66l-124 -66l14 63l113 60l91 -66l124 66l-14 -63z" />
    <glyph glyph-name="at.ss01" 
d="M404 34q-19 -23 -46 -33.5t-59 -10.5q-69 0 -104.5 39.5t-35.5 99.5v262q0 60 35.5 99.5t104.5 39.5q31 0 52 -10t35 -26v22h53v-442q0 -19 11.5 -30.5t31.5 -11.5t31.5 11.5t11.5 30.5v377q0 48 -14.5 88t-43 68.5t-69.5 44.5t-94 16t-94 -16t-69.5 -44.5t-43 -68.5
t-14.5 -88v-381q0 -48 14.5 -88t43 -68.5t69.5 -44.5t94 -16v-42q-63 0 -112 18.5t-83 52.5t-51.5 82t-17.5 106v381q0 58 17.5 106t51.5 82t83 52.5t112 18.5t112 -18.5t83 -52.5t51.5 -82t17.5 -106v-374q0 -38 -21 -62.5t-65 -24.5q-25 0 -47.5 11t-30.5 33zM386 392
q0 45 -24 66t-63 21t-63 -21t-24 -66v-264q0 -45 24 -66t63 -21t63 21t24 66v264z" />
  </font>
</defs>
</svg>
