<?xml version="1.0" standalone="no"?>
<!DOCTYPE svg PUBLIC "-//W3C//DTD SVG 1.1//EN" "http://www.w3.org/Graphics/SVG/1.1/DTD/svg11.dtd" >
<svg xmlns="http://www.w3.org/2000/svg" xmlns:xlink="http://www.w3.org/1999/xlink" version="1.1">
<metadata>
Created by Christoph Koeberlin (http://christoph.koe.berlin)
Copyright (c) 2011 Swiss Typefaces Sa`rl. All rights reserved.
</metadata>
<defs>
<font id="Font" horiz-adv-x="608" >
  <font-face 
    font-family="Font"
    font-weight="500"
    font-stretch="normal"
    units-per-em="1000"
    panose-1="2 11 6 9 3 0 0 0 0 0"
    ascent="800"
    descent="-200"
    x-height="516"
    cap-height="700"
    bbox="-537 -209 625 880"
    underline-thickness="80"
    underline-position="-20"
    unicode-range="U+0020-FB02"
  />
<missing-glyph 
d="M111 0v700h387v-700h-387zM410 646h-212l106 -238zM443 603l-113 -253l113 -254v507zM278 350l-112 251v-503zM410 54l-106 237l-106 -237h212z" />
    <glyph glyph-name=".notdef" 
d="M111 0v700h387v-700h-387zM410 646h-212l106 -238zM443 603l-113 -253l113 -254v507zM278 350l-112 251v-503zM410 54l-106 237l-106 -237h212z" />
    <glyph glyph-name=".null" horiz-adv-x="0" 
 />
    <glyph glyph-name="nonmarkingreturn" horiz-adv-x="0" 
 />
    <glyph glyph-name="space" unicode=" " 
 />
    <glyph glyph-name="exclam" unicode="!" 
d="M357 230h-105v470h105v-470zM237 134h134v-134h-134v134z" />
    <glyph glyph-name="quotedbl" unicode="&#x22;" 
d="M399 476v224h53v-224h-53zM157 476v224h53v-224h-53z" />
    <glyph glyph-name="numbersign" unicode="#" 
d="M423 216l-53 -216h-47l53 216h-211l-53 -216h-47l53 216h-71v45h82l44 178h-81v45h92l54 216h47l-54 -216h211l54 216h47l-54 -216h72v-45h-83l-44 -178h82v-45h-93zM176 261h211l44 178h-211z" />
    <glyph glyph-name="dollar" unicode="$" 
d="M281 -9q-48 3 -85 21.5t-63 48.5t-40.5 70t-15.5 86h105q4 -59 35.5 -92.5t85.5 -33.5t82 25t28 66q0 31 -18 58t-68 47l-95 37q-66 26 -105 72.5t-39 121.5q0 44 14.5 78.5t40 58.5t61 37.5t77.5 16.5v91h43v-91q81 -7 129 -60t54 -136h-105q-6 43 -30.5 69.5
t-68.5 26.5q-55 0 -82.5 -25.5t-27.5 -65.5q0 -41 23.5 -61.5t56.5 -33.5l103 -40q79 -31 110.5 -81t31.5 -120q0 -81 -48 -133.5t-146 -57.5v-91h-43v91z" />
    <glyph glyph-name="percent" unicode="%" 
d="M54 567q0 28 10.5 53.5t29.5 44t43.5 29.5t53.5 11q28 0 53.5 -11t44 -29.5t29.5 -44t11 -53.5q0 -29 -11 -53.5t-29.5 -43.5t-44 -29.5t-53.5 -10.5q-29 0 -53.5 10.5t-43.5 29.5t-29.5 43.5t-10.5 53.5zM279 132q0 28 10.5 53.5t29.5 44t43.5 29.5t53.5 11
q28 0 53.5 -11t44 -29.5t29.5 -44t11 -53.5q0 -29 -11 -53.5t-29.5 -43.5t-44 -29.5t-53.5 -10.5q-29 0 -53.5 10.5t-43.5 29.5t-29.5 43.5t-10.5 53.5zM132 567q0 -25 16.5 -43t42.5 -18t43 18t17 43t-17 43.5t-43 18.5t-42.5 -18.5t-16.5 -43.5zM357 132q0 -25 16.5 -43
t42.5 -18t43 18t17 43t-17 43.5t-43 18.5t-42.5 -18.5t-16.5 -43.5zM505 585l32 -32l-434 -435l-32 32z" />
    <glyph glyph-name="ampersand" unicode="&#x26;" 
d="M564 318l-84 -150l69 -121l-89 -52l-42 73q-21 -32 -64 -55t-98 -23q-45 0 -84 16.5t-68 45.5t-45.5 68t-16.5 84q0 37 11.5 70.5t32.5 60.5t49.5 47t62.5 29q13 4 22 5l-105 185v99h356v-99h-237l188 -331l54 98zM147 204q0 -24 8.5 -44.5t23 -35.5t34.5 -24t43 -9
q41 0 64.5 20.5t41.5 55.5l-85 149q-5 1 -10.5 1.5t-10.5 0.5q-23 0 -43 -9t-34.5 -24.5t-23 -36t-8.5 -44.5z" />
    <glyph glyph-name="quotesingle" unicode="'" 
d="M277 476v224h53v-224h-53z" />
    <glyph glyph-name="parenleft" unicode="(" 
d="M250 597q0 25 4.5 44t16.5 32t33 20t53 7h118v-42h-118q-40 0 -52 -15t-12 -46v-586q0 -31 12 -46t52 -15h118v-42h-118q-32 0 -53 7t-33 20t-16.5 32t-4.5 44v586z" />
    <glyph glyph-name="parenright" unicode=")" 
d="M358 11q0 -25 -4.5 -44t-16.5 -32t-33 -20t-53 -7h-118v42h118q40 0 52 15t12 46v586q0 31 -12 46t-52 15h-118v42h118q32 0 53 -7t33 -20t16.5 -32t4.5 -44v-586z" />
    <glyph glyph-name="asterisk" unicode="*" 
d="M209 339l-37 25l96 131l-154 50l13 43l154 -50v162h45v-162l154 50l13 -43l-154 -50l96 -131l-37 -25l-94 131z" />
    <glyph glyph-name="plus" unicode="+" 
d="M282 258h-176v45h176v175h45v-175h175v-45h-175v-176h-45v176z" />
    <glyph glyph-name="comma" unicode="," 
d="M125 -92l204 203l74 -74l-204 -203z" />
    <glyph glyph-name="hyphen" unicode="-" 
d="M159 258v45h290v-45h-290z" />
    <glyph glyph-name="period" unicode="." 
d="M237 134h134v-134h-134v134z" />
    <glyph glyph-name="slash" unicode="/" 
d="M559 679l-472 -684l-37 26l472 684z" />
    <glyph glyph-name="zero" unicode="0" 
d="M519 205q0 -45 -17 -84t-46 -68t-68 -46t-84 -17t-84 17t-68 46t-46 68t-17 84v290q0 45 17 84t46 68t68 46t84 17t84 -17t68 -46t46 -68t17 -84v-290zM414 429l-220 -221v-3q0 -23 8 -44t22.5 -36.5t35 -24.5t44.5 -9t44.5 9t35 24.5t22.5 36.5t8 44v224zM194 272
l220 221v2q0 23 -8 44t-22.5 36.5t-35 24.5t-44.5 9t-44.5 -9t-35 -24.5t-22.5 -36.5t-8 -44v-223z" />
    <glyph glyph-name="one" unicode="1" 
d="M268 101v457l-100 -100l-71 71l171 171h105v-599h182v-101h-469v101h182z" />
    <glyph glyph-name="two" unicode="2" 
d="M160 337q-32 29 -50.5 69.5t-18.5 88.5q0 45 17 84t46 68t68 46t84 17t84 -17t68 -46t46 -68t17 -84q0 -49 -21.5 -93t-71.5 -97l-194 -204h287v-101h-430v101l258 271q18 18 30.5 33t20.5 29.5t12 29t4 31.5q0 23 -8 44t-22.5 36.5t-35 24.5t-44.5 9t-44.5 -9t-35 -24.5
t-22.5 -36.5t-8 -44q0 -51 36 -84z" />
    <glyph glyph-name="three" unicode="3" 
d="M295 417h4q19 1 35.5 9t28 21t18 30t6.5 36q0 39 -25.5 67.5t-66.5 28.5t-66 -28.5t-25 -67.5h-105q0 41 15.5 77t42 62.5t62 42t76.5 15.5t77 -15.5t62.5 -42t42 -62.5t15.5 -77q0 -43 -17 -79.5t-46 -62.5q37 -29 59 -72t22 -94q0 -45 -17 -84t-46 -68t-68 -46t-84 -17
t-84 17t-68 46t-46 68t-17 84h105q0 -23 8 -44t22.5 -36.5t35 -24.5t44.5 -9t44.5 9t35 24.5t22.5 36.5t8 44q0 22 -7.5 42.5t-21.5 36.5t-33.5 25.5t-42.5 10.5h-5v97z" />
    <glyph glyph-name="four" unicode="4" 
d="M173 274h185v145h105v-145h73v-101h-73v-173h-105v173h-311v101l315 431l82 -60z" />
    <glyph glyph-name="five" unicode="5" 
d="M166 700h306v-101h-222l-39 -176q16 11 41.5 19.5t53.5 8.5q43 0 81 -17t66.5 -46t45.5 -68t17 -84v-31q0 -45 -17 -84t-46 -68t-68 -46t-84 -17t-84 17t-68 46t-46 68t-17 84h105q0 -23 8 -44t22.5 -36.5t35 -24.5t44.5 -9t44.5 9t35 24.5t22.5 36.5t8 44v31q0 23 -8 44
t-22.5 36.5t-35 24.5t-44.5 9q-31 0 -55.5 -16t-38.5 -40l-112 82z" />
    <glyph glyph-name="six" unicode="6" 
d="M506 205q0 -45 -17 -84t-46 -68t-68 -46t-84 -17t-84 17t-68 46t-46 68t-17 84v31q0 36 11.5 69t31.5 60l249 340l82 -60l-143 -195q37 -3 67 -16q59 -24 95.5 -77.5t36.5 -120.5v-31zM401 236q0 23 -8 44t-22.5 36.5t-35 24.5t-44.5 9t-44.5 -9t-35 -24.5t-22.5 -36.5
t-8 -44v-31q0 -23 8 -44t22.5 -36.5t35 -24.5t44.5 -9t44.5 9t35 24.5t22.5 36.5t8 44v31z" />
    <glyph glyph-name="seven" unicode="7" 
d="M516 700v-101l-218 -604l-96 34l206 570h-211v-107h-105v208h424z" />
    <glyph glyph-name="eight" unicode="8" 
d="M108 513q0 41 15.5 77t42 62.5t62 42t76.5 15.5t77 -15.5t62.5 -42t42 -62.5t15.5 -77q0 -43 -16.5 -79.5t-45.5 -62.5q37 -29 58.5 -72t21.5 -94q0 -45 -17 -84t-46 -68t-68 -46t-84 -17t-84 17t-68 46t-46 68t-17 84q0 51 21.5 94t58.5 72q-29 26 -45 62.5t-16 79.5z
M194 205q0 -23 8 -43.5t23 -36t35 -24.5t44 -9t44 9t35 24.5t23 36t8 43.5t-8 43.5t-23 36t-35 24.5t-44 9t-44 -9t-35 -24.5t-23 -36t-8 -43.5zM396 513q0 39 -25.5 67.5t-66.5 28.5t-66 -28.5t-25 -67.5t25 -67t66 -28t66.5 28t25.5 67z" />
    <glyph glyph-name="nine" unicode="9" 
d="M102 495q0 45 17 84t46 68t68 46t84 17t84 -17t68 -46t46 -68t17 -84v-31q0 -36 -11.5 -69t-31.5 -60l-249 -340l-82 60l143 195q-37 3 -67 16q-59 24 -95.5 77.5t-36.5 120.5v31zM207 464q0 -23 8 -44t22.5 -36.5t35 -24.5t44.5 -9t44.5 9t35 24.5t22.5 36.5t8 44v31
q0 23 -8 44t-22.5 36.5t-35 24.5t-44.5 9t-44.5 -9t-35 -24.5t-22.5 -36.5t-8 -44v-31z" />
    <glyph glyph-name="colon" unicode=":" 
d="M237 455h134v-134h-134v134zM237 134h134v-134h-134v134z" />
    <glyph glyph-name="semicolon" unicode=";" 
d="M93 -92l204 203l74 -74l-204 -203zM237 455h134v-134h-134v134z" />
    <glyph glyph-name="less" unicode="&#x3c;" 
d="M210 260l239 -239l-32 -31l-270 270l270 270l32 -31z" />
    <glyph glyph-name="equal" unicode="=" 
d="M106 156v45h396v-45h-396zM106 350v45h396v-45h-396z" />
    <glyph glyph-name="greater" unicode="&#x3e;" 
d="M159 499l32 31l270 -270l-270 -270l-32 31l239 239z" />
    <glyph glyph-name="question" unicode="?" 
d="M80 499q0 46 17 85t46 67t68 43.5t84 15.5t84 -16t68 -44.5t46 -67t17 -83.5q0 -38 -12.5 -71.5t-34 -60.5t-51.5 -46t-65 -27v-64h-105v159h57q22 1 41.5 9.5t33.5 23.5t22.5 34.5t8.5 42.5t-8.5 43t-23.5 35t-35 23.5t-43 8.5t-43 -8.5t-35 -23.5t-23.5 -35t-8.5 -43
h-105v0zM228 134h134v-134h-134v134z" />
    <glyph glyph-name="at" unicode="@" 
d="M416 42q-20 -28 -50.5 -40t-64.5 -12q-67 0 -109.5 39t-42.5 106v41q0 67 42.5 106t109.5 39h48v62q0 23 -14 34.5t-34 11.5t-33.5 -11.5t-13.5 -34.5v-27h-105v30q0 67 42.5 105.5t110.5 38.5q67 0 109.5 -38.5t42.5 -105.5v-317q0 -37 35 -37q17 0 26.5 10t9.5 27v382
q0 48 -14.5 88t-43 68.5t-69.5 44.5t-94 16t-94 -16t-69.5 -44.5t-43 -68.5t-14.5 -88v-381q0 -48 14.5 -88t43 -68.5t69.5 -44.5t94 -16v-42q-63 0 -112 18.5t-83 52.5t-51.5 82t-17.5 106v381q0 58 17.5 106t51.5 82t83 52.5t112 18.5t112 -18.5t83 -52.5t51.5 -82
t17.5 -106v-390q0 -32 -21.5 -51.5t-57.5 -19.5q-29 0 -47.5 14.5t-25.5 37.5zM349 219h-48q-20 0 -33.5 -11.5t-13.5 -34.5v-36q0 -23 13.5 -34.5t33.5 -11.5t34 11.5t14 33.5v83z" />
    <glyph glyph-name="A" unicode="A" 
d="M435 169h-262l-59 -169h-110l245 700h110l245 -700h-110zM401 268l-97 278l-97 -278h194z" />
    <glyph glyph-name="B" unicode="B" 
d="M65 700h270q105 0 160 -54.5t55 -145.5q0 -45 -17.5 -81.5t-51.5 -60.5q45 -27 65.5 -68t20.5 -88q0 -94 -54.5 -148t-160.5 -54h-287v700zM172 594v-188h163q49 0 77.5 24t28.5 70t-28.5 70t-77.5 24h-163zM172 300v-194h180q50 0 78 24.5t28 72.5t-28 72.5t-78 24.5
h-180z" />
    <glyph glyph-name="C" unicode="C" 
d="M558 217q-3 -52 -22.5 -94t-52 -71.5t-77 -45.5t-98.5 -16q-56 0 -102.5 17.5t-79.5 49.5t-51 77.5t-18 102.5v226q0 57 18 102.5t51 77.5t79.5 49.5t102.5 17.5q54 0 98.5 -16t77 -45t52 -71.5t22.5 -94.5h-107q-3 31 -17 54t-33.5 38t-44 22t-48.5 7q-26 0 -52 -8.5
t-46.5 -25.5t-33 -43.5t-12.5 -63.5v-226q0 -37 12.5 -63.5t33 -44t46.5 -25.5t52 -8q24 0 48.5 7t44 22t33.5 37.5t17 54.5h107z" />
    <glyph glyph-name="D" unicode="D" 
d="M57 0v700h251q56 0 102.5 -17.5t79.5 -49.5t51 -77.5t18 -102.5v-206q0 -57 -18 -102.5t-51 -77.5t-79.5 -49.5t-102.5 -17.5h-251zM308 106q26 0 52 8.5t46.5 26t33 44.5t12.5 64v202q0 37 -12.5 64t-33 44.5t-46.5 26t-52 8.5h-144v-488h144z" />
    <glyph glyph-name="E" unicode="E" 
d="M215 406h236v-106h-236v-194h306v-106h-413v700h413v-106h-306v-188z" />
    <glyph glyph-name="F" unicode="F" 
d="M233 406h236v-106h-236v-300h-107v700h413v-106h-306v-188z" />
    <glyph glyph-name="G" unicode="G" 
d="M306 710q53 0 97.5 -15.5t77 -44.5t52 -70.5t23.5 -93.5h-107q-4 31 -18 53t-33.5 36.5t-43.5 21.5t-48 7q-26 0 -52 -8.5t-46.5 -25.5t-33 -43.5t-12.5 -63.5v-226q0 -37 12.5 -63.5t33 -44t46.5 -25.5t52 -8t52 8t46.5 25.5t33 44t12.5 63.5v45h-144v103h251v-148
q0 -57 -18 -102.5t-51 -77.5t-79.5 -49.5t-102.5 -17.5t-102.5 17.5t-79.5 49.5t-51 77.5t-18 102.5v226q0 57 18 102.5t51 77.5t79.5 49.5t102.5 17.5z" />
    <glyph glyph-name="H" unicode="H" 
d="M448 700h107v-700h-107v300h-288v-300h-107v700h107v-294h288v294z" />
    <glyph glyph-name="I" unicode="I" 
d="M358 594v-488h153v-106h-413v106h153v488h-153v106h413v-106h-153z" />
    <glyph glyph-name="J" unicode="J" 
d="M152 200q6 -27 20 -46.5t33.5 -32.5t41.5 -19t45 -6q26 0 52 8t46.5 25.5t33 44t12.5 63.5v357h-306v106h413v-463q0 -57 -18 -102.5t-51 -77.5t-79.5 -49.5t-102.5 -17.5q-51 0 -94.5 14.5t-76 41.5t-52.5 66t-26 88h109z" />
    <glyph glyph-name="K" unicode="K" 
d="M163 0h-107v700h107v-342l291 342h132l-245 -288l272 -412h-126l-217 329l-107 -126v-203z" />
    <glyph glyph-name="L" unicode="L" 
d="M115 700h107v-594h306v-106h-413v700z" />
    <glyph glyph-name="M" unicode="M" 
d="M442 700h113v-700h-104v481l-105 -293h-84l-105 293v-481h-104v700h113l138 -385z" />
    <glyph glyph-name="N" unicode="N" 
d="M555 0h-107l-288 502v-502h-107v700h107l288 -502v502h107v-700z" />
    <glyph glyph-name="O" unicode="O" 
d="M448 463q0 37 -12.5 63.5t-33 43.5t-46.5 25.5t-52 8.5t-52 -8.5t-46.5 -25.5t-33 -43.5t-12.5 -63.5v-226q0 -37 12.5 -63.5t33 -44t46.5 -25.5t52 -8t52 8t46.5 25.5t33 44t12.5 63.5v226zM53 463q0 57 18 102.5t51 77.5t79.5 49.5t102.5 17.5t102.5 -17.5t79.5 -49.5
t51 -77.5t18 -102.5v-226q0 -57 -18 -102.5t-51 -77.5t-79.5 -49.5t-102.5 -17.5t-102.5 17.5t-79.5 49.5t-51 77.5t-18 102.5v226z" />
    <glyph glyph-name="P" unicode="P" 
d="M184 596v-248h159q34 0 58 10t39.5 27t22.5 39.5t7 47.5t-7 47.5t-22.5 39.5t-39.5 27t-58 10h-159zM184 0h-107v700h266q61 0 105.5 -18.5t73.5 -49.5t43 -73t14 -88q0 -47 -14 -88.5t-43 -72.5t-73.5 -49.5t-105.5 -18.5h-159v-242z" />
    <glyph glyph-name="Q" unicode="Q" 
d="M53 463q0 57 18 102.5t51 77.5t79.5 49.5t102.5 17.5t102.5 -17.5t79.5 -49.5t51 -77.5t18 -102.5v-226q0 -86 -42 -148l62 -63l-73 -71l-65 66q-57 -31 -133 -31q-56 0 -102.5 17.5t-79.5 49.5t-51 77.5t-18 102.5v226zM160 455l274 -284q14 28 14 66v226
q0 37 -12.5 63.5t-33 43.5t-46.5 25.5t-52 8.5t-52 -8.5t-46.5 -25.5t-33 -43.5t-12.5 -63.5v-8zM160 308v-71q0 -37 12.5 -63.5t33 -44t46.5 -25.5t52 -8q25 0 52 8z" />
    <glyph glyph-name="R" unicode="R" 
d="M180 301v-301h-107v700h275q105 0 160 -54.5t55 -145.5q0 -78 -40 -129t-117 -65l180 -306h-120l-177 301h-109zM454 499q0 46 -28.5 70.5t-77.5 24.5h-168v-190h168q49 0 77.5 24.5t28.5 70.5z" />
    <glyph glyph-name="S" unicode="S" 
d="M312 -10q-60 0 -106.5 17t-79 47.5t-50.5 72t-22 90.5h109q11 -59 50 -90t101 -31q54 0 86 24t32 65q0 39 -23 63.5t-76 37.5l-124 30q-69 17 -106.5 69t-37.5 127q0 51 18 88t48.5 61.5t71.5 36.5t88 12q106 0 166 -54.5t73 -142.5h-114q-11 43 -42 67t-82 24
q-63 0 -90.5 -26t-27.5 -66q0 -41 22 -63t57 -30l120 -29q84 -20 126 -71t42 -136q0 -42 -15.5 -77.5t-44.5 -61t-71.5 -40t-97.5 -14.5z" />
    <glyph glyph-name="T" unicode="T" 
d="M358 594v-594h-107v594h-197v106h501v-106h-197z" />
    <glyph glyph-name="U" unicode="U" 
d="M448 700h107v-463q0 -57 -18 -102.5t-51 -77.5t-79.5 -49.5t-102.5 -17.5t-102.5 17.5t-79.5 49.5t-51 77.5t-18 102.5v463h107v-463q0 -37 12.5 -63.5t33 -44t46.5 -25.5t52 -8t52 8t46.5 25.5t33 44t12.5 63.5v463z" />
    <glyph glyph-name="V" unicode="V" 
d="M359 0h-110l-245 700h110l190 -546l190 546h110z" />
    <glyph glyph-name="W" unicode="W" 
d="M418 175l65 525h105l-100 -700h-106l-78 430l-78 -430h-106l-100 700h105l65 -525l71 425h86z" />
    <glyph glyph-name="X" unicode="X" 
d="M304 286l-174 -286h-120l222 362l-207 338h120l159 -261l159 261h120l-207 -338l222 -362h-120z" />
    <glyph glyph-name="Y" unicode="Y" 
d="M357 267v-267h-107v267l-246 433h118l182 -322l182 322h118z" />
    <glyph glyph-name="Z" unicode="Z" 
d="M46 0v106l372 488h-367v106h497v-106l-372 -488h377v-106h-507z" />
    <glyph glyph-name="bracketleft" unicode="[" 
d="M250 700h225v-42h-182v-708h182v-42h-225v792z" />
    <glyph glyph-name="backslash" unicode="\" 
d="M86 705l472 -684l-37 -26l-472 684z" />
    <glyph glyph-name="bracketright" unicode="]" 
d="M358 -92h-225v42h182v708h-182v42h225v-792z" />
    <glyph glyph-name="asciicircum" unicode="^" 
d="M304 642l-239 -239l-31 32l270 270l270 -270l-31 -32z" />
    <glyph glyph-name="underscore" unicode="_" 
d="M106 -114v45h396v-45h-396z" />
    <glyph glyph-name="grave" unicode="`" 
d="M164 657l13 48l267 -73l-13 -48z" />
    <glyph glyph-name="a" unicode="a" 
d="M300 429q-39 0 -66.5 -18t-38.5 -55h-107q7 51 29 85t52.5 53.5t65 27.5t65.5 8q34 0 71.5 -9.5t69.5 -33.5t53 -65.5t21 -105.5v-316h-105v49q-25 -30 -64 -44.5t-90 -14.5q-35 0 -67 9t-56 27.5t-38.5 47.5t-14.5 69q0 22 5.5 45t18.5 44t34.5 38.5t53.5 27.5
q47 14 99 19.5t118 10.5q-1 7 -1.5 13t-2.5 12q-10 38 -37.5 57t-67.5 19zM273 91q22 0 46.5 4.5t44.5 17t33 35t13 58.5v29q-69 -5 -120 -11.5t-80 -23.5q-10 -6 -17.5 -17t-7.5 -31q0 -32 23 -46.5t65 -14.5z" />
    <glyph glyph-name="b" unicode="b" 
d="M418 314q0 59 -30.5 86.5t-79.5 27.5t-79.5 -27.5t-30.5 -86.5v-108q0 -59 30.5 -86.5t79.5 -27.5t79.5 27.5t30.5 86.5v108zM523 204q0 -60 -19.5 -100.5t-49.5 -66t-66.5 -36.5t-69.5 -11q-20 0 -39.5 5t-35.5 13t-27.5 19t-17.5 22v-49h-105v700h105v-229
q6 11 17.5 21.5t27.5 19t35.5 13.5t39.5 5q33 0 69.5 -11t66.5 -36.5t49.5 -66t19.5 -100.5v-112z" />
    <glyph glyph-name="c" unicode="c" 
d="M522 176q-5 -55 -27 -91t-53 -57t-66.5 -29.5t-67.5 -8.5q-34 0 -71.5 9.5t-69.5 33.5t-53 65.5t-21 105.5v112q0 64 21 105.5t53 65.5t69.5 33.5t71.5 9.5q32 0 67.5 -8.5t66.5 -29.5t53 -57t27 -91h-107q-8 43 -36.5 64t-70.5 21q-49 0 -79.5 -28t-30.5 -87v-108
q0 -59 30.5 -87t79.5 -28q42 0 71 21t37 64h106z" />
    <glyph glyph-name="d" unicode="d" 
d="M190 206q0 -59 29.5 -86.5t73.5 -27.5q49 0 83 27.5t34 86.5v108q0 59 -30.5 86.5t-79.5 27.5t-79.5 -27.5t-30.5 -86.5v-108zM85 316q0 60 19.5 100.5t49.5 66t66.5 36.5t69.5 11q20 0 39.5 -5t35.5 -13.5t27.5 -19t17.5 -21.5v229h105v-700h-105v49q-6 -11 -17.5 -22
t-27.5 -19t-35.5 -13t-39.5 -5q-33 0 -69.5 11t-66.5 36.5t-49.5 66t-19.5 100.5v112z" />
    <glyph glyph-name="e" unicode="e" 
d="M305 91q39 0 66.5 18t38.5 55h107q-7 -51 -29 -85t-52.5 -53.5t-65 -27.5t-65.5 -8q-34 0 -71.5 9.5t-69.5 33.5t-53 65.5t-21 105.5v112q0 64 21 105.5t53 65.5t69.5 33.5t71.5 9.5t71.5 -9.5t69.5 -33.5t53 -65.5t21 -105.5v-93h-325v-17q0 -59 30.5 -87t79.5 -28z
M305 429q-49 0 -79.5 -27.5t-30.5 -84.5v-1h220v1q-1 57 -31.5 84.5t-78.5 27.5z" />
    <glyph glyph-name="f" unicode="f" 
d="M362 599q-31 0 -39.5 -10t-8.5 -39v-34h217v-99h-217v-417h-105v417h-147v99h147v61q0 61 29 92t94 31h199v-101h-169z" />
    <glyph glyph-name="g" unicode="g" 
d="M300 -93q49 0 79.5 28t30.5 87v57q-6 -11 -17.5 -22t-27.5 -19t-35.5 -13t-39.5 -5q-33 0 -69.5 11t-66.5 36.5t-49.5 66t-19.5 100.5v82q0 60 19.5 100.5t49.5 66t66.5 36.5t69.5 11q20 0 39.5 -5t35.5 -13.5t27.5 -19t17.5 -21.5v45h105v-496q0 -64 -21 -105.5
t-53 -65.5t-69.5 -33.5t-71.5 -9.5q-32 0 -67 8.5t-66 29.5t-53 56.5t-27 89.5h106q8 -42 36.5 -62.5t70.5 -20.5zM190 236q0 -59 30.5 -86.5t79.5 -27.5t79.5 27.5t30.5 86.5v78q0 59 -30.5 86.5t-79.5 27.5t-79.5 -27.5t-30.5 -86.5v-78z" />
    <glyph glyph-name="h" unicode="h" 
d="M196 0h-105v700h105v-229q6 11 17.5 21.5t27.5 19t35.5 13.5t39.5 5q33 0 69.5 -11t66.5 -36.5t49.5 -66t19.5 -100.5v-316h-105v314q0 59 -30.5 86.5t-79.5 27.5t-79.5 -27.5t-30.5 -86.5v-314z" />
    <glyph glyph-name="i" unicode="i" 
d="M123 516h237v-415h182v-101h-469v101h182v314h-132v101zM240 700h130v-130h-130v130z" />
    <glyph glyph-name="j" unicode="j" 
d="M320 415h-217v101h322v-577q0 -61 -29 -92t-94 -31h-249v101h219q31 0 39.5 10t8.5 39v449zM305 700h130v-130h-130v130z" />
    <glyph glyph-name="k" unicode="k" 
d="M211 306l193 210h127l-186 -202l214 -314h-122l-162 238l-64 -70v-168h-105v700h105v-394z" />
    <glyph glyph-name="l" unicode="l" 
d="M120 700h237v-599h182v-101h-469v101h182v498h-132v101z" />
    <glyph glyph-name="m" unicode="m" 
d="M161 0h-105v516h105v-23q11 17 30 24.5t39 7.5q24 0 43.5 -9.5t32.5 -26.5q19 21 45 31t53 10q74 0 112.5 -41.5t38.5 -106.5v-382h-105v382q0 22 -13 34t-33 12t-33 -12t-13 -34v-382h-105v382q0 22 -13 34t-33 12t-33 -12t-13 -34v-382z" />
    <glyph glyph-name="n" unicode="n" 
d="M196 0h-105v516h105v-45q6 11 17.5 21.5t27.5 19t35.5 13.5t39.5 5q33 0 69.5 -11t66.5 -36.5t49.5 -66t19.5 -100.5v-316h-105v314q0 59 -30.5 86.5t-79.5 27.5t-79.5 -27.5t-30.5 -86.5v-314z" />
    <glyph glyph-name="o" unicode="o" 
d="M414 314q0 59 -30.5 87t-79.5 28t-79.5 -28t-30.5 -87v-108q0 -59 30.5 -87t79.5 -28t79.5 28t30.5 87v108zM89 316q0 64 21 105.5t53 65.5t69.5 33.5t71.5 9.5t71.5 -9.5t69.5 -33.5t53 -65.5t21 -105.5v-112q0 -64 -21 -105.5t-53 -65.5t-69.5 -33.5t-71.5 -9.5
t-71.5 9.5t-69.5 33.5t-53 65.5t-21 105.5v112z" />
    <glyph glyph-name="p" unicode="p" 
d="M418 314q0 59 -30.5 86.5t-79.5 27.5t-79.5 -27.5t-30.5 -86.5v-108q0 -59 30.5 -86.5t79.5 -27.5t79.5 27.5t30.5 86.5v108zM523 204q0 -60 -19.5 -100.5t-49.5 -66t-66.5 -36.5t-69.5 -11q-20 0 -39.5 5t-35.5 13t-27.5 19t-17.5 22v-233h-105v700h105v-45
q6 11 17.5 21.5t27.5 19t35.5 13.5t39.5 5q33 0 69.5 -11t66.5 -36.5t49.5 -66t19.5 -100.5v-112z" />
    <glyph glyph-name="q" unicode="q" 
d="M190 206q0 -59 29.5 -86.5t73.5 -27.5q49 0 83 27.5t34 86.5v108q0 59 -30.5 86.5t-79.5 27.5t-79.5 -27.5t-30.5 -86.5v-108zM85 316q0 60 19.5 100.5t49.5 66t66.5 36.5t69.5 11q20 0 39.5 -5t35.5 -13.5t27.5 -19t17.5 -21.5v45h105v-700h-105v233q-6 -11 -17.5 -22
t-27.5 -19t-35.5 -13t-39.5 -5q-33 0 -69.5 11t-66.5 36.5t-49.5 66t-19.5 100.5v112z" />
    <glyph glyph-name="r" unicode="r" 
d="M424 424q-49 0 -79.5 -27.5t-30.5 -86.5v-209h201v-101h-469v101h163v314h-113v101h218v-50q6 11 17.5 21.5t27.5 19t35.5 13.5t39.5 5h131v-101h-141z" />
    <glyph glyph-name="s" unicode="s" 
d="M319 -10q-45 0 -84 10.5t-68.5 32.5t-47.5 55t-20 77h108q6 -38 38.5 -56t74.5 -18q17 0 32.5 2.5t27 8.5t18.5 16.5t7 26.5q0 26 -19.5 37t-45.5 17l-98 25q-26 6 -49.5 17t-41.5 29t-29 44.5t-11 63.5q0 38 14.5 66.5t39.5 47.5t59.5 28.5t73.5 9.5q84 0 137 -39
t61 -126h-110q-6 34 -32.5 49t-62.5 15q-12 0 -25 -2.5t-24 -8.5t-18 -16.5t-7 -25.5q0 -23 18.5 -33t39.5 -15l95 -24q35 -9 61.5 -21.5t44 -31.5t26.5 -45.5t9 -63.5q0 -38 -14.5 -66.5t-40 -47.5t-60.5 -28.5t-77 -9.5z" />
    <glyph glyph-name="t" unicode="t" 
d="M308 150q0 -29 8.5 -39t39.5 -10h169v-101h-199q-65 0 -94 31t-29 92v294h-147v99h147v117h105v-117h217v-99h-217v-267z" />
    <glyph glyph-name="u" unicode="u" 
d="M195 206q0 -59 30 -86.5t77 -27.5t77 27.5t30 86.5v310h105v-516h-105v49q-6 -11 -17.5 -22t-27.5 -19t-35.5 -13t-39.5 -5q-33 0 -68.5 12t-64.5 38t-47.5 66.5t-18.5 97.5v312h105v-310z" />
    <glyph glyph-name="v" unicode="v" 
d="M433 516h109l-186 -516h-104l-186 516h109l129 -367z" />
    <glyph glyph-name="w" unicode="w" 
d="M304 311l-74 -311h-97l-83 516h104l47 -354l58 274h90l58 -274l47 354h104l-83 -516h-97z" />
    <glyph glyph-name="x" unicode="x" 
d="M304 185l-121 -185h-116l175 265l-167 251h116l113 -172l113 172h116l-167 -251l175 -265h-116z" />
    <glyph glyph-name="y" unicode="y" 
d="M313 -119q-23 -65 -114 -65h-70v101h37q19 0 30 2t17.5 8t11.5 16t11 26l14 38l-184 509h109l129 -367l129 367h109z" />
    <glyph glyph-name="z" unicode="z" 
d="M240 99h254v-99h-385v99l247 318h-240v99h371v-99z" />
    <glyph glyph-name="braceleft" unicode="{" 
d="M176 283v42h10q40 0 52 15t12 46v211q0 25 4.5 44t16.5 32t33 20t53 7h118v-42h-118q-40 0 -52 -15t-12 -46v-211q0 -28 -7.5 -49.5t-26.5 -32.5q19 -12 26.5 -33.5t7.5 -48.5v-211q0 -31 12 -46t52 -15h118v-42h-118q-32 0 -53 7t-33 20t-16.5 32t-4.5 44v211
q0 31 -12 46t-52 15h-10z" />
    <glyph glyph-name="bar" unicode="|" 
d="M282 700h43v-800h-43v800z" />
    <glyph glyph-name="braceright" unicode="}" 
d="M422 283q-40 0 -52 -15t-12 -46v-211q0 -25 -4.5 -44t-16.5 -32t-33 -20t-53 -7h-118v42h118q40 0 52 15t12 46v211q0 27 7.5 48.5t26.5 33.5q-19 11 -26.5 32.5t-7.5 49.5v211q0 31 -12 46t-52 15h-118v42h118q32 0 53 -7t33 -20t16.5 -32t4.5 -44v-211q0 -31 12 -46
t52 -15h10v-42h-10z" />
    <glyph glyph-name="asciitilde" unicode="~" 
d="M354 218l-102 73l-135 -73l-21 38l159 86l102 -73l135 73l21 -38z" />
    <glyph glyph-name="uni00A0" unicode="&#xa0;" 
 />
    <glyph glyph-name="exclamdown" unicode="&#xa1;" 
d="M357 -184h-105v470h105v-470zM237 516h134v-134h-134v134z" />
    <glyph glyph-name="cent" unicode="&#xa2;" 
d="M288 -9q-33 2 -67.5 13.5t-63 36t-46.5 64.5t-18 99v112q0 59 18 99t46.5 64.5t63 36t67.5 13.5v91h43v-91q30 -3 62 -13t59 -31.5t46 -56t24 -84.5h-107q-8 43 -36.5 64t-70.5 21q-49 0 -79.5 -28t-30.5 -87v-108q0 -59 30.5 -87t79.5 -28q42 0 71 21t37 64h106
q-5 -50 -24 -84.5t-46 -56t-59 -32t-62 -12.5v-91h-43v91z" />
    <glyph glyph-name="sterling" unicode="&#xa3;" 
d="M125 372v124q0 64 21 105.5t53 65.5t69.5 33.5t71.5 9.5t71.5 -9.5t69.5 -33.5t53 -65.5t21 -105.5v-2h-105q0 59 -30.5 87t-79.5 28t-79.5 -28t-30.5 -87v-122h220v-43h-220v-228h325v-101h-494v101h64v228h-64v43h64z" />
    <glyph glyph-name="currency" unicode="&#xa4;" 
d="M479 134q-35 -30 -79.5 -47t-95.5 -17t-95.5 17t-79.5 47l-84 -84l-31 30l84 85q-30 35 -47 79.5t-17 95.5t17 95.5t47 79.5l-84 85l31 30l84 -85q35 31 79.5 48t95.5 17t95.5 -17t79.5 -48l84 85l31 -30l-85 -85q31 -35 48 -79.5t17 -95.5t-17 -95.5t-48 -79.5l85 -85
l-31 -30zM135 340q0 -35 13.5 -65.5t36.5 -53.5t53.5 -36.5t65.5 -13.5t65.5 13.5t53.5 36.5t36.5 53.5t13.5 65.5t-13.5 65.5t-36.5 53.5t-53.5 36.5t-65.5 13.5t-65.5 -13.5t-53.5 -36.5t-36.5 -53.5t-13.5 -65.5z" />
    <glyph glyph-name="yen" unicode="&#xa5;" 
d="M501 310v-43h-145v-88h145v-43h-145v-136h-105v136h-145v43h145v88h-145v43h120l-222 390h116l184 -324l184 324h116l-224 -390h121z" />
    <glyph glyph-name="brokenbar" unicode="&#xa6;" 
d="M283 239h43v-339h-43v339zM283 700h43v-339h-43v339z" />
    <glyph glyph-name="section" unicode="&#xa7;" 
d="M232 122q-20 7 -43.5 18t-44.5 29t-35 45t-14 67q0 52 27 86.5t74 50.5q-29 20 -48.5 52t-19.5 81q0 35 13.5 64.5t37 50.5t55.5 32.5t69 11.5q72 0 121.5 -42.5t60.5 -119.5h-45q-8 54 -44 87t-93 33q-25 0 -48 -8t-41 -23t-29.5 -37t-11.5 -49q0 -45 24.5 -73.5
t62.5 -41.5l116 -40q20 -7 44 -18t45 -29t35.5 -45.5t14.5 -67.5q0 -54 -28.5 -88t-75.5 -50q29 -21 49.5 -55.5t20.5 -84.5q0 -30 -9 -57.5t-29 -48.5t-53.5 -33.5t-81.5 -12.5q-42 0 -75 13t-56.5 36t-37 54.5t-17.5 68.5h45q6 -58 45 -94t96 -36q68 0 98 32.5t30 77.5
t-24 78t-63 46zM262 388q-21 -2 -43 -7.5t-39 -18t-28.5 -32t-11.5 -49.5q0 -25 8 -43.5t22 -32t33 -23.5t40 -17l103 -36q21 1 43 7t40 18.5t29.5 32t11.5 49.5q0 49 -30 76t-73 41z" />
    <glyph glyph-name="dieresis" unicode="&#xa8;" 
d="M148 683h76v-76h-76v76zM384 683h76v-76h-76v76z" />
    <glyph glyph-name="copyright" unicode="&#xa9;" 
d="M525 451q0 48 -14.5 88t-43 68.5t-69.5 44.5t-94 16t-94 -16t-69.5 -44.5t-43 -68.5t-14.5 -88v-202q0 -48 14.5 -88t43 -68.5t69.5 -44.5t94 -16t94 16t69.5 44.5t43 68.5t14.5 88v202zM568 249q0 -58 -17.5 -106t-51.5 -82t-83 -52.5t-112 -18.5t-112 18.5t-83 52.5
t-51.5 82t-17.5 106v202q0 58 17.5 106t51.5 82t83 52.5t112 18.5t112 -18.5t83 -52.5t51.5 -82t17.5 -106v-202zM304 153q-75 0 -112.5 40.5t-37.5 106.5v100q0 65 37.5 106t112.5 41q74 0 111.5 -39t39.5 -102h-86q-2 25 -19 40.5t-46 15.5q-31 0 -48 -17t-17 -45v-100
q0 -28 17 -45.5t48 -17.5q29 0 46 15t19 41h86q-2 -63 -39.5 -101.5t-111.5 -38.5z" />
    <glyph glyph-name="ordfeminine" unicode="&#xaa;" 
d="M267 294q-29 0 -54 7t-43.5 22t-29.5 37t-11 52q0 36 18 69.5t67 50.5q35 11 77.5 16t91.5 8q-1 5 -1.5 10t-2.5 10q-17 54 -78 54q-29 0 -50 -13.5t-29 -40.5h-86q5 38 21.5 64t40 41.5t50.5 22.5t53 7q29 0 59 -8.5t54 -28.5t39.5 -52t15.5 -80v-240h-85v39
q-18 -23 -47 -35t-70 -12zM281 374q18 0 36 4t33 13.5t24.5 26.5t9.5 43v21q-51 -4 -90 -8.5t-60 -16.5q-8 -5 -14 -13.5t-6 -23.5q0 -46 67 -46zM129 207v45h340v-45h-340z" />
    <glyph glyph-name="guillemotleft" unicode="&#xab;" 
d="M55 257l210 210l32 -31l-179 -179l179 -179l-32 -31zM279 257l210 210l32 -31l-179 -179l179 -179l-32 -31z" />
    <glyph glyph-name="logicalnot" unicode="&#xac;" 
d="M106 303h396v-221h-45v176h-351v45z" />
    <glyph glyph-name="uni00AD" unicode="&#xad;" 
d="M159 258v45h290v-45h-290z" />
    <glyph glyph-name="registered" unicode="&#xae;" 
d="M568 249q0 -58 -17.5 -106t-51.5 -82t-83 -52.5t-112 -18.5t-112 18.5t-83 52.5t-51.5 82t-17.5 106v202q0 58 17.5 106t51.5 82t83 52.5t112 18.5t112 -18.5t83 -52.5t51.5 -82t17.5 -106v-202zM525 451q0 48 -14.5 88t-43 68.5t-69.5 44.5t-94 16t-94 -16t-69.5 -44.5
t-43 -68.5t-14.5 -88v-202q0 -48 14.5 -88t43 -68.5t69.5 -44.5t94 -16t94 16t69.5 44.5t43 68.5t14.5 88v202zM373 158l-89 152h-33v-152h-85v383h170q60 0 92 -30.5t32 -84.5q0 -43 -21 -71.5t-59 -39.5l92 -157h-99zM251 393h88q17 0 26.5 8t9.5 23q0 17 -9.5 25t-26.5 8
h-88v-64z" />
    <glyph glyph-name="macron" unicode="&#xaf;" 
d="M148 620v50h312v-50h-312z" />
    <glyph glyph-name="degree" unicode="&#xb0;" 
d="M148 549q0 32 12.5 60.5t33.5 49.5t49.5 33.5t60.5 12.5t60.5 -12.5t49.5 -33.5t33.5 -49.5t12.5 -60.5t-12.5 -60.5t-33.5 -49.5t-49.5 -33.5t-60.5 -12.5t-60.5 12.5t-49.5 33.5t-33.5 49.5t-12.5 60.5zM191 549q0 -24 9 -44.5t24 -36t35.5 -24.5t44.5 -9t44.5 9
t35.5 24.5t24 36t9 44.5t-9 44.5t-24 36t-35.5 24.5t-44.5 9t-44.5 -9t-35.5 -24.5t-24 -36t-9 -44.5z" />
    <glyph glyph-name="plusminus" unicode="&#xb1;" 
d="M282 350h-176v45h176v121h45v-121h175v-45h-175v-121h-45v121zM106 155v45h396v-45h-396z" />
    <glyph glyph-name="twosuperior" unicode="&#xb2;" 
d="M204 587q-20 20 -28.5 41t-8.5 47q0 28 11 53.5t29.5 44t43.5 29.5t54 11t54.5 -11t44 -29.5t29.5 -44t11 -53.5q0 -20 -4 -35t-12 -27.5t-19 -24t-26 -25.5l-92 -87h153v-75h-277v75l165 154q17 17 22 27.5t5 21.5q0 25 -14 42t-40 17t-39.5 -17t-13.5 -42q0 -8 4.5 -18
t9.5 -17z" />
    <glyph glyph-name="threesuperior" unicode="&#xb3;" 
d="M308 395q-35 0 -62.5 11t-46.5 29.5t-28.5 43.5t-9.5 54h85q0 -24 12.5 -43.5t40.5 -19.5t40.5 19.5t12.5 43.5q0 22 -14.5 41t-38.5 19v76q14 0 21 10t7 21q0 14 -5.5 26t-22.5 12t-22.5 -12t-5.5 -26h-85q0 24 9 44.5t24.5 35.5t36 24t43.5 9t43.5 -9t36 -24
t24.5 -35.5t9 -44.5q0 -37 -22 -65q21 -19 34 -45t13 -57q0 -29 -8 -54t-24.5 -43.5t-40.5 -29.5t-56 -11z" />
    <glyph glyph-name="acute" unicode="&#xb4;" 
d="M177 584l-13 48l267 73l13 -48z" />
    <glyph glyph-name="mu" unicode="&#xb5;" 
d="M304 41q29 0 55 10.5t45 30t30 47.5t11 63v324h53v-516h-53v63q-23 -36 -63 -54.5t-78 -18.5t-78 18.5t-63 54.5v-247h-53v700h53v-324q0 -35 11 -63t30 -47.5t45 -30t55 -10.5z" />
    <glyph glyph-name="mu" unicode="&#x3bc;" 
d="M304 41q29 0 55 10.5t45 30t30 47.5t11 63v324h53v-516h-53v63q-23 -36 -63 -54.5t-78 -18.5t-78 18.5t-63 54.5v-247h-53v700h53v-324q0 -35 11 -63t30 -47.5t45 -30t55 -10.5z" />
    <glyph glyph-name="paragraph" unicode="&#xb6;" 
d="M515 -87h-43v745h-155v-745h-43v387h-10q-41 0 -77.5 16t-63.5 43t-42.5 63.5t-15.5 77.5t15.5 77.5t42.5 63.5t63.5 43t77.5 16h251v-787z" />
    <glyph glyph-name="periodcentered" unicode="&#xb7;" 
d="M237 357h134v-134h-134v134z" />
    <glyph glyph-name="cedilla" unicode="&#xb8;" 
d="M299 -134v84h50v-134h-134v50h84z" />
    <glyph glyph-name="onesuperior" unicode="&#xb9;" 
d="M163 698l109 109h85v-331h105v-75h-296v75h106v215l-52 -51z" />
    <glyph glyph-name="ordmasculine" unicode="&#xba;" 
d="M304 375q38 0 60.5 21.5t22.5 64.5v82q0 44 -22.5 65.5t-60.5 21.5q-37 0 -60 -21.5t-23 -65.5v-82q0 -43 23 -64.5t60 -21.5zM304 294q-29 0 -59 8.5t-54 28.5t-39.5 52t-15.5 80v79q0 48 15.5 80t39.5 52t54 28.5t59 8.5q30 0 60 -8.5t54 -28.5t39 -52t15 -80v-79
q0 -48 -15 -80t-39 -52t-54 -28.5t-60 -8.5zM136 207v45h336v-45h-336z" />
    <glyph glyph-name="guillemotright" unicode="&#xbb;" 
d="M328.979 257l-209.986 210l-31.998 -31l178.988 -179l-178.988 -179l31.998 -31zM553.966 257l-209.987 210l-31.998 -31l178.989 -179l-178.989 -179l31.998 -31z" />
    <glyph glyph-name="onequarter" unicode="&#xbc;" 
d="M40 635l65 65h42v-221h67v-40h-177v40h68v164l-36 -37zM505 585l32 -32l-434 -435l-32 32zM477 0v63h-115v40l116 160l33 -24l-99 -136h65v53h42v-53h27v-40h-27v-63h-42z" />
    <glyph glyph-name="onehalf" unicode="&#xbd;" 
d="M40 635l65 65h42v-221h67v-40h-177v40h68v164l-36 -37zM505 585l32 -32l-434 -435l-32 32zM403 125q-11 11 -18 26t-7 33q0 34 23.5 57.5t57.5 23.5t57.5 -23.5t23.5 -57.5q0 -22 -7.5 -37t-27.5 -35l-70 -72h105v-40h-162v40l96 99q13 13 18.5 23t5.5 22
q0 17 -10.5 28.5t-28.5 11.5q-17 0 -28 -11.5t-11 -28.5q0 -18 12 -30z" />
    <glyph glyph-name="threequarters" unicode="&#xbe;" 
d="M134 596h3q13 1 21 11t8 23q0 14 -9 23.5t-23 9.5t-23 -9.5t-9 -23.5h-42q0 31 21.5 52.5t52.5 21.5t52.5 -21.5t21.5 -52.5q0 -16 -6 -29t-16 -23q29 -24 29 -62q0 -34 -23.5 -57.5t-57.5 -23.5t-57.5 23.5t-23.5 57.5h42q0 -17 11 -28.5t28 -11.5t28 11.5t11 28.5
t-10 28.5t-26 13.5h-3v38zM505 585l32 -32l-434 -435l-32 32zM477 0v63h-115v40l116 160l33 -24l-99 -136h65v53h42v-53h27v-40h-27v-63h-42z" />
    <glyph glyph-name="questiondown" unicode="&#xbf;" 
d="M308 135q-23 -1 -42 -10.5t-33 -25t-22 -36t-8 -42.5q0 -23 8.5 -44t23 -36.5t34.5 -24.5t44 -9t44 9t34.5 24.5t23 36.5t8.5 44h105q0 -45 -17 -84t-46 -68t-68 -46t-84 -17t-84 17t-68 46t-46 68t-17 84q0 38 12 72t34 61.5t52 47t65 28.5v56h105v-151h-58zM246 516
h134v-134h-134v134z" />
    <glyph glyph-name="Agrave" unicode="&#xc0;" 
d="M435 169h-262l-59 -169h-110l245 700h110l245 -700h-110zM401 268l-97 278l-97 -278h194zM164 811l13 48l267 -73l-13 -48z" />
    <glyph glyph-name="Aacute" unicode="&#xc1;" 
d="M435 169h-262l-59 -169h-110l245 700h110l245 -700h-110zM401 268l-97 278l-97 -278h194zM177 738l-13 48l267 73l13 -48z" />
    <glyph glyph-name="Acircumflex" unicode="&#xc2;" 
d="M435 169h-262l-59 -169h-110l245 700h110l245 -700h-110zM401 268l-97 278l-97 -278h194zM304 805l-141 -67l-21 44l162 77l162 -77l-21 -44z" />
    <glyph glyph-name="Atilde" unicode="&#xc3;" 
d="M435 169h-262l-59 -169h-110l245 700h110l245 -700h-110zM401 268l-97 278l-97 -278h194zM342 742l-79 57l-107 -57l-23 43l133 71l79 -57l107 57l23 -43z" />
    <glyph glyph-name="Adieresis" unicode="&#xc4;" 
d="M435 169h-262l-59 -169h-110l245 700h110l245 -700h-110zM401 268l-97 278l-97 -278h194zM148 837h76v-76h-76v76zM384 837h76v-76h-76v76z" />
    <glyph glyph-name="Aring" unicode="&#xc5;" 
d="M190 765q0 24 9 44.5t24.5 36.5t36 25t44.5 9t44.5 -9t36.5 -25t25 -36.5t9 -44.5q0 -29 -13.5 -53.5t-36.5 -40.5l235 -671h-110l-59 169h-262l-59 -169h-110l235 671q-23 16 -36 40.5t-13 53.5zM401 268l-97 278l-97 -278h194zM239 765q0 -27 19 -46t46 -19t46.5 19
t19.5 46t-19.5 46.5t-46.5 19.5t-46 -19.5t-19 -46.5z" />
    <glyph glyph-name="AE" unicode="&#xc6;" 
d="M395 406h90v-106h-90v-194h160v-106h-267v169h-115l-59 -169h-110l245 700h306v-106h-160v-188zM288 268v230l-81 -230h81z" />
    <glyph glyph-name="Ccedilla" unicode="&#xc7;" 
d="M283 -134v84h50v-134h-134v50h84zM558 217q-3 -52 -22.5 -94t-52 -71.5t-77 -45.5t-98.5 -16q-56 0 -102.5 17.5t-79.5 49.5t-51 77.5t-18 102.5v226q0 57 18 102.5t51 77.5t79.5 49.5t102.5 17.5q54 0 98.5 -16t77 -45t52 -71.5t22.5 -94.5h-107q-3 31 -17 54t-33.5 38
t-44 22t-48.5 7q-26 0 -52 -8.5t-46.5 -25.5t-33 -43.5t-12.5 -63.5v-226q0 -37 12.5 -63.5t33 -44t46.5 -25.5t52 -8q24 0 48.5 7t44 22t33.5 37.5t17 54.5h107z" />
    <glyph glyph-name="Egrave" unicode="&#xc8;" 
d="M215 406h236v-106h-236v-194h306v-106h-413v700h413v-106h-306v-188zM174 811l13 48l267 -73l-13 -48z" />
    <glyph glyph-name="Eacute" unicode="&#xc9;" 
d="M215 406h236v-106h-236v-194h306v-106h-413v700h413v-106h-306v-188zM187 738l-13 48l267 73l13 -48z" />
    <glyph glyph-name="Ecircumflex" unicode="&#xca;" 
d="M215 406h236v-106h-236v-194h306v-106h-413v700h413v-106h-306v-188zM314 805l-141 -67l-21 44l162 77l162 -77l-21 -44z" />
    <glyph glyph-name="Edieresis" unicode="&#xcb;" 
d="M215 406h236v-106h-236v-194h306v-106h-413v700h413v-106h-306v-188zM158 837h76v-76h-76v76zM394 837h76v-76h-76v76z" />
    <glyph glyph-name="Igrave" unicode="&#xcc;" 
d="M358 594v-488h153v-106h-413v106h153v488h-153v106h413v-106h-153zM164 811l13 48l267 -73l-13 -48z" />
    <glyph glyph-name="Iacute" unicode="&#xcd;" 
d="M358 594v-488h153v-106h-413v106h153v488h-153v106h413v-106h-153zM177 738l-13 48l267 73l13 -48z" />
    <glyph glyph-name="Icircumflex" unicode="&#xce;" 
d="M358 594v-488h153v-106h-413v106h153v488h-153v106h413v-106h-153zM304 805l-141 -67l-21 44l162 77l162 -77l-21 -44z" />
    <glyph glyph-name="Idieresis" unicode="&#xcf;" 
d="M358 594v-488h153v-106h-413v106h153v488h-153v106h413v-106h-153zM148 837h76v-76h-76v76zM384 837h76v-76h-76v76z" />
    <glyph glyph-name="Eth" unicode="&#xd0;" 
d="M69 0v328h-70v45h70v327h251q56 0 102.5 -17.5t79.5 -49.5t51 -77.5t18 -102.5v-206q0 -57 -18 -102.5t-51 -77.5t-79.5 -49.5t-102.5 -17.5h-251zM320 106q26 0 52 8.5t46.5 26t33 44.5t12.5 64v202q0 37 -12.5 64t-33 44.5t-46.5 26t-52 8.5h-144v-221h144v-45h-144
v-222h144z" />
    <glyph glyph-name="Ntilde" unicode="&#xd1;" 
d="M555 0h-107l-288 502v-502h-107v700h107l288 -502v502h107v-700zM342 742l-79 57l-107 -57l-23 43l133 71l79 -57l107 57l23 -43z" />
    <glyph glyph-name="Ograve" unicode="&#xd2;" 
d="M448 463q0 37 -12.5 63.5t-33 43.5t-46.5 25.5t-52 8.5t-52 -8.5t-46.5 -25.5t-33 -43.5t-12.5 -63.5v-226q0 -37 12.5 -63.5t33 -44t46.5 -25.5t52 -8t52 8t46.5 25.5t33 44t12.5 63.5v226zM53 463q0 57 18 102.5t51 77.5t79.5 49.5t102.5 17.5t102.5 -17.5t79.5 -49.5
t51 -77.5t18 -102.5v-226q0 -57 -18 -102.5t-51 -77.5t-79.5 -49.5t-102.5 -17.5t-102.5 17.5t-79.5 49.5t-51 77.5t-18 102.5v226zM164 811l13 48l267 -73l-13 -48z" />
    <glyph glyph-name="Oacute" unicode="&#xd3;" 
d="M448 463q0 37 -12.5 63.5t-33 43.5t-46.5 25.5t-52 8.5t-52 -8.5t-46.5 -25.5t-33 -43.5t-12.5 -63.5v-226q0 -37 12.5 -63.5t33 -44t46.5 -25.5t52 -8t52 8t46.5 25.5t33 44t12.5 63.5v226zM53 463q0 57 18 102.5t51 77.5t79.5 49.5t102.5 17.5t102.5 -17.5t79.5 -49.5
t51 -77.5t18 -102.5v-226q0 -57 -18 -102.5t-51 -77.5t-79.5 -49.5t-102.5 -17.5t-102.5 17.5t-79.5 49.5t-51 77.5t-18 102.5v226zM177 738l-13 48l267 73l13 -48z" />
    <glyph glyph-name="Ocircumflex" unicode="&#xd4;" 
d="M448 463q0 37 -12.5 63.5t-33 43.5t-46.5 25.5t-52 8.5t-52 -8.5t-46.5 -25.5t-33 -43.5t-12.5 -63.5v-226q0 -37 12.5 -63.5t33 -44t46.5 -25.5t52 -8t52 8t46.5 25.5t33 44t12.5 63.5v226zM53 463q0 57 18 102.5t51 77.5t79.5 49.5t102.5 17.5t102.5 -17.5t79.5 -49.5
t51 -77.5t18 -102.5v-226q0 -57 -18 -102.5t-51 -77.5t-79.5 -49.5t-102.5 -17.5t-102.5 17.5t-79.5 49.5t-51 77.5t-18 102.5v226zM304 805l-141 -67l-21 44l162 77l162 -77l-21 -44z" />
    <glyph glyph-name="Otilde" unicode="&#xd5;" 
d="M448 463q0 37 -12.5 63.5t-33 43.5t-46.5 25.5t-52 8.5t-52 -8.5t-46.5 -25.5t-33 -43.5t-12.5 -63.5v-226q0 -37 12.5 -63.5t33 -44t46.5 -25.5t52 -8t52 8t46.5 25.5t33 44t12.5 63.5v226zM53 463q0 57 18 102.5t51 77.5t79.5 49.5t102.5 17.5t102.5 -17.5t79.5 -49.5
t51 -77.5t18 -102.5v-226q0 -57 -18 -102.5t-51 -77.5t-79.5 -49.5t-102.5 -17.5t-102.5 17.5t-79.5 49.5t-51 77.5t-18 102.5v226zM342 742l-79 57l-107 -57l-23 43l133 71l79 -57l107 57l23 -43z" />
    <glyph glyph-name="Odieresis" unicode="&#xd6;" 
d="M448 463q0 37 -12.5 63.5t-33 43.5t-46.5 25.5t-52 8.5t-52 -8.5t-46.5 -25.5t-33 -43.5t-12.5 -63.5v-226q0 -37 12.5 -63.5t33 -44t46.5 -25.5t52 -8t52 8t46.5 25.5t33 44t12.5 63.5v226zM53 463q0 57 18 102.5t51 77.5t79.5 49.5t102.5 17.5t102.5 -17.5t79.5 -49.5
t51 -77.5t18 -102.5v-226q0 -57 -18 -102.5t-51 -77.5t-79.5 -49.5t-102.5 -17.5t-102.5 17.5t-79.5 49.5t-51 77.5t-18 102.5v226zM148 837h76v-76h-76v76zM384 837h76v-76h-76v76z" />
    <glyph glyph-name="multiply" unicode="&#xd7;" 
d="M336 280l140 -139l-32 -32l-140 139l-139 -139l-32 32l139 139l-139 139l32 32l139 -139l140 139l32 -32z" />
    <glyph glyph-name="Oslash" unicode="&#xd8;" 
d="M53 463q0 57 18 102.5t51 77.5t79.5 49.5t102.5 17.5q96 0 160 -49l43 72l37 -23l-47 -79q28 -32 43 -74t15 -94v-226q0 -57 -18 -102.5t-51 -77.5t-79.5 -49.5t-102.5 -17.5q-97 0 -161 49l-43 -72l-37 23l47 79q-27 32 -42 74t-15 94v226zM448 463q0 35 -13 64
l-235 -392q21 -20 48 -29.5t56 -9.5q26 0 52 8t46.5 25.5t33 44t12.5 63.5v226zM160 237q0 -37 12 -64l235 393q-21 20 -48 29t-55 9q-26 0 -52 -8.5t-46.5 -25.5t-33 -43.5t-12.5 -63.5v-226z" />
    <glyph glyph-name="Ugrave" unicode="&#xd9;" 
d="M448 700h107v-463q0 -57 -18 -102.5t-51 -77.5t-79.5 -49.5t-102.5 -17.5t-102.5 17.5t-79.5 49.5t-51 77.5t-18 102.5v463h107v-463q0 -37 12.5 -63.5t33 -44t46.5 -25.5t52 -8t52 8t46.5 25.5t33 44t12.5 63.5v463zM164 811l13 48l267 -73l-13 -48z" />
    <glyph glyph-name="Uacute" unicode="&#xda;" 
d="M448 700h107v-463q0 -57 -18 -102.5t-51 -77.5t-79.5 -49.5t-102.5 -17.5t-102.5 17.5t-79.5 49.5t-51 77.5t-18 102.5v463h107v-463q0 -37 12.5 -63.5t33 -44t46.5 -25.5t52 -8t52 8t46.5 25.5t33 44t12.5 63.5v463zM177 738l-13 48l267 73l13 -48z" />
    <glyph glyph-name="Ucircumflex" unicode="&#xdb;" 
d="M448 700h107v-463q0 -57 -18 -102.5t-51 -77.5t-79.5 -49.5t-102.5 -17.5t-102.5 17.5t-79.5 49.5t-51 77.5t-18 102.5v463h107v-463q0 -37 12.5 -63.5t33 -44t46.5 -25.5t52 -8t52 8t46.5 25.5t33 44t12.5 63.5v463zM304 805l-141 -67l-21 44l162 77l162 -77l-21 -44z
" />
    <glyph glyph-name="Udieresis" unicode="&#xdc;" 
d="M448 700h107v-463q0 -57 -18 -102.5t-51 -77.5t-79.5 -49.5t-102.5 -17.5t-102.5 17.5t-79.5 49.5t-51 77.5t-18 102.5v463h107v-463q0 -37 12.5 -63.5t33 -44t46.5 -25.5t52 -8t52 8t46.5 25.5t33 44t12.5 63.5v463zM148 837h76v-76h-76v76zM384 837h76v-76h-76v76z" />
    <glyph glyph-name="Yacute" unicode="&#xdd;" 
d="M357 267v-267h-107v267l-246 433h118l182 -322l182 322h118zM177 738l-13 48l267 73l13 -48z" />
    <glyph glyph-name="Thorn" unicode="&#xde;" 
d="M184 475v-248h159q34 0 58 10t39.5 27t22.5 39.5t7 47.5t-7 47.5t-22.5 39.5t-39.5 27t-58 10h-159zM184 0h-107v700h107v-121h159q61 0 105.5 -18.5t73.5 -49.5t43 -73t14 -88q0 -47 -14 -88.5t-43 -72.5t-73.5 -49.5t-105.5 -18.5h-159v-121z" />
    <glyph glyph-name="germandbls" unicode="&#xdf;" 
d="M381 283q32 -15 58.5 -37.5t46 -52t30 -64t10.5 -71.5q0 -51 -19.5 -96t-53 -78.5t-78.5 -53t-96 -19.5v101q30 0 56 11.5t45 31.5t30 46.5t11 56.5t-11 56.5t-30 46t-45 31t-56 11.5v102l85 110h-149v-415h-105v577q0 61 29 92t94 31h46v-101h-16q-31 0 -39.5 -10
t-8.5 -39v-34h274v-97z" />
    <glyph glyph-name="agrave" unicode="&#xe0;" 
d="M300 429q-39 0 -66.5 -18t-38.5 -55h-107q7 51 29 85t52.5 53.5t65 27.5t65.5 8q34 0 71.5 -9.5t69.5 -33.5t53 -65.5t21 -105.5v-316h-105v49q-25 -30 -64 -44.5t-90 -14.5q-35 0 -67 9t-56 27.5t-38.5 47.5t-14.5 69q0 22 5.5 45t18.5 44t34.5 38.5t53.5 27.5
q47 14 99 19.5t118 10.5q-1 7 -1.5 13t-2.5 12q-10 38 -37.5 57t-67.5 19zM273 91q22 0 46.5 4.5t44.5 17t33 35t13 58.5v29q-69 -5 -120 -11.5t-80 -23.5q-10 -6 -17.5 -17t-7.5 -31q0 -32 23 -46.5t65 -14.5zM167 657l13 48l267 -73l-13 -48z" />
    <glyph glyph-name="aacute" unicode="&#xe1;" 
d="M300 429q-39 0 -66.5 -18t-38.5 -55h-107q7 51 29 85t52.5 53.5t65 27.5t65.5 8q34 0 71.5 -9.5t69.5 -33.5t53 -65.5t21 -105.5v-316h-105v49q-25 -30 -64 -44.5t-90 -14.5q-35 0 -67 9t-56 27.5t-38.5 47.5t-14.5 69q0 22 5.5 45t18.5 44t34.5 38.5t53.5 27.5
q47 14 99 19.5t118 10.5q-1 7 -1.5 13t-2.5 12q-10 38 -37.5 57t-67.5 19zM273 91q22 0 46.5 4.5t44.5 17t33 35t13 58.5v29q-69 -5 -120 -11.5t-80 -23.5q-10 -6 -17.5 -17t-7.5 -31q0 -32 23 -46.5t65 -14.5zM180 584l-13 48l267 73l13 -48z" />
    <glyph glyph-name="acircumflex" unicode="&#xe2;" 
d="M300 429q-39 0 -66.5 -18t-38.5 -55h-107q7 51 29 85t52.5 53.5t65 27.5t65.5 8q34 0 71.5 -9.5t69.5 -33.5t53 -65.5t21 -105.5v-316h-105v49q-25 -30 -64 -44.5t-90 -14.5q-35 0 -67 9t-56 27.5t-38.5 47.5t-14.5 69q0 22 5.5 45t18.5 44t34.5 38.5t53.5 27.5
q47 14 99 19.5t118 10.5q-1 7 -1.5 13t-2.5 12q-10 38 -37.5 57t-67.5 19zM273 91q22 0 46.5 4.5t44.5 17t33 35t13 58.5v29q-69 -5 -120 -11.5t-80 -23.5q-10 -6 -17.5 -17t-7.5 -31q0 -32 23 -46.5t65 -14.5zM307 651l-141 -67l-21 44l162 77l162 -77l-21 -44z" />
    <glyph glyph-name="atilde" unicode="&#xe3;" 
d="M300 429q-39 0 -66.5 -18t-38.5 -55h-107q7 51 29 85t52.5 53.5t65 27.5t65.5 8q34 0 71.5 -9.5t69.5 -33.5t53 -65.5t21 -105.5v-316h-105v49q-25 -30 -64 -44.5t-90 -14.5q-35 0 -67 9t-56 27.5t-38.5 47.5t-14.5 69q0 22 5.5 45t18.5 44t34.5 38.5t53.5 27.5
q47 14 99 19.5t118 10.5q-1 7 -1.5 13t-2.5 12q-10 38 -37.5 57t-67.5 19zM273 91q22 0 46.5 4.5t44.5 17t33 35t13 58.5v29q-69 -5 -120 -11.5t-80 -23.5q-10 -6 -17.5 -17t-7.5 -31q0 -32 23 -46.5t65 -14.5zM345 588l-79 57l-107 -57l-23 43l133 71l79 -57l107 57l23 -43
z" />
    <glyph glyph-name="adieresis" unicode="&#xe4;" 
d="M300 429q-39 0 -66.5 -18t-38.5 -55h-107q7 51 29 85t52.5 53.5t65 27.5t65.5 8q34 0 71.5 -9.5t69.5 -33.5t53 -65.5t21 -105.5v-316h-105v49q-25 -30 -64 -44.5t-90 -14.5q-35 0 -67 9t-56 27.5t-38.5 47.5t-14.5 69q0 22 5.5 45t18.5 44t34.5 38.5t53.5 27.5
q47 14 99 19.5t118 10.5q-1 7 -1.5 13t-2.5 12q-10 38 -37.5 57t-67.5 19zM273 91q22 0 46.5 4.5t44.5 17t33 35t13 58.5v29q-69 -5 -120 -11.5t-80 -23.5q-10 -6 -17.5 -17t-7.5 -31q0 -32 23 -46.5t65 -14.5zM151 683h76v-76h-76v76zM387 683h76v-76h-76v76z" />
    <glyph glyph-name="aring" unicode="&#xe5;" 
d="M186 595q0 24 9 44.5t24.5 36.5t36 25t44.5 9t44.5 -9t36.5 -25t25 -36.5t9 -44.5q0 -46 -32 -78q26 -9 50 -24.5t42 -39.5t29 -58t11 -79v-316h-105v49q-25 -30 -64 -44.5t-90 -14.5q-35 0 -67 9t-56 27.5t-38.5 47.5t-14.5 69q0 22 5.5 45t18.5 44t34.5 38.5t53.5 27.5
q47 14 99 19.5t118 10.5q-4 51 -33.5 76t-75.5 25q-39 0 -66.5 -18t-38.5 -55h-107q9 70 46 108t83 53q-14 15 -22.5 35t-8.5 43zM273 91q22 0 46.5 4.5t44.5 17t33 35t13 58.5v29q-69 -5 -120 -11.5t-80 -23.5q-10 -6 -17.5 -17t-7.5 -31q0 -32 23 -46.5t65 -14.5zM235 595
q0 -27 19 -46t46 -19t46.5 19t19.5 46t-19.5 46.5t-46.5 19.5t-46 -19.5t-19 -46.5z" />
    <glyph glyph-name="ae" unicode="&#xe6;" 
d="M203 -10q-67 0 -109.5 39t-42.5 106v41q0 67 42.5 106t109.5 39h48v62q0 23 -14 34.5t-34 11.5t-33.5 -11.5t-13.5 -34.5v-27h-105v30q0 67 42.5 105.5t109.5 38.5q32 0 57 -10t44 -27q18 17 43 27t57 10q67 0 109.5 -38.5t42.5 -105.5v-167h-200v-82q0 -23 13.5 -34.5
t33.5 -11.5t34 11.5t14 33.5v28h105v-30q0 -67 -42.5 -105.5t-109.5 -38.5q-32 0 -57 10t-43 27q-19 -17 -44 -27t-57 -10zM251 219h-48q-20 0 -33.5 -11.5t-13.5 -34.5v-36q0 -23 13.5 -34.5t33.5 -11.5t34 11.5t14 33.5v83zM356 321h95v62q0 23 -14 34.5t-34 11.5
t-33.5 -11.5t-13.5 -34.5v-62z" />
    <glyph glyph-name="ccedilla" unicode="&#xe7;" 
d="M522 176q-5 -55 -27 -91t-53 -57t-66.5 -29.5t-67.5 -8.5q-34 0 -71.5 9.5t-69.5 33.5t-53 65.5t-21 105.5v112q0 64 21 105.5t53 65.5t69.5 33.5t71.5 9.5q32 0 67.5 -8.5t66.5 -29.5t53 -57t27 -91h-107q-8 43 -36.5 64t-70.5 21q-49 0 -79.5 -28t-30.5 -87v-108
q0 -59 30.5 -87t79.5 -28q42 0 71 21t37 64h106zM283 -134v84h50v-134h-134v50h84z" />
    <glyph glyph-name="egrave" unicode="&#xe8;" 
d="M305 91q39 0 66.5 18t38.5 55h107q-7 -51 -29 -85t-52.5 -53.5t-65 -27.5t-65.5 -8q-34 0 -71.5 9.5t-69.5 33.5t-53 65.5t-21 105.5v112q0 64 21 105.5t53 65.5t69.5 33.5t71.5 9.5t71.5 -9.5t69.5 -33.5t53 -65.5t21 -105.5v-93h-325v-17q0 -59 30.5 -87t79.5 -28z
M305 429q-49 0 -79.5 -27.5t-30.5 -84.5v-1h220v1q-1 57 -31.5 84.5t-78.5 27.5zM165 657l13 48l267 -73l-13 -48z" />
    <glyph glyph-name="eacute" unicode="&#xe9;" 
d="M305 91q39 0 66.5 18t38.5 55h107q-7 -51 -29 -85t-52.5 -53.5t-65 -27.5t-65.5 -8q-34 0 -71.5 9.5t-69.5 33.5t-53 65.5t-21 105.5v112q0 64 21 105.5t53 65.5t69.5 33.5t71.5 9.5t71.5 -9.5t69.5 -33.5t53 -65.5t21 -105.5v-93h-325v-17q0 -59 30.5 -87t79.5 -28z
M305 429q-49 0 -79.5 -27.5t-30.5 -84.5v-1h220v1q-1 57 -31.5 84.5t-78.5 27.5zM178 584l-13 48l267 73l13 -48z" />
    <glyph glyph-name="ecircumflex" unicode="&#xea;" 
d="M305 91q39 0 66.5 18t38.5 55h107q-7 -51 -29 -85t-52.5 -53.5t-65 -27.5t-65.5 -8q-34 0 -71.5 9.5t-69.5 33.5t-53 65.5t-21 105.5v112q0 64 21 105.5t53 65.5t69.5 33.5t71.5 9.5t71.5 -9.5t69.5 -33.5t53 -65.5t21 -105.5v-93h-325v-17q0 -59 30.5 -87t79.5 -28z
M305 429q-49 0 -79.5 -27.5t-30.5 -84.5v-1h220v1q-1 57 -31.5 84.5t-78.5 27.5zM305 651l-141 -67l-21 44l162 77l162 -77l-21 -44z" />
    <glyph glyph-name="edieresis" unicode="&#xeb;" 
d="M305 91q39 0 66.5 18t38.5 55h107q-7 -51 -29 -85t-52.5 -53.5t-65 -27.5t-65.5 -8q-34 0 -71.5 9.5t-69.5 33.5t-53 65.5t-21 105.5v112q0 64 21 105.5t53 65.5t69.5 33.5t71.5 9.5t71.5 -9.5t69.5 -33.5t53 -65.5t21 -105.5v-93h-325v-17q0 -59 30.5 -87t79.5 -28z
M305 429q-49 0 -79.5 -27.5t-30.5 -84.5v-1h220v1q-1 57 -31.5 84.5t-78.5 27.5zM149 683h76v-76h-76v76zM385 683h76v-76h-76v76z" />
    <glyph glyph-name="igrave" unicode="&#xec;" 
d="M123 516h237v-415h182v-101h-469v101h182v314h-132v101zM167 657l13 48l267 -73l-13 -48z" />
    <glyph glyph-name="iacute" unicode="&#xed;" 
d="M123 516h237v-415h182v-101h-469v101h182v314h-132v101zM180 584l-13 48l267 73l13 -48z" />
    <glyph glyph-name="icircumflex" unicode="&#xee;" 
d="M123 516h237v-415h182v-101h-469v101h182v314h-132v101zM307 651l-141 -67l-21 44l162 77l162 -77l-21 -44z" />
    <glyph glyph-name="idieresis" unicode="&#xef;" 
d="M123 516h237v-415h182v-101h-469v101h182v314h-132v101zM151 683h76v-76h-76v76zM387 683h76v-76h-76v76z" />
    <glyph glyph-name="eth" unicode="&#xf0;" 
d="M89 316q0 62 20 102.5t50.5 65t67 35t69.5 11.5l-40 55h-118v43h86l-52 72h126l52 -72h90v-43h-58l92 -127q20 -24 32.5 -59t12.5 -83v-112q0 -64 -21 -105.5t-53 -65.5t-69.5 -33.5t-71.5 -9.5t-71.5 9.5t-69.5 33.5t-53 65.5t-21 105.5v112zM414 314q0 59 -30.5 87
t-79.5 28t-79.5 -28t-30.5 -87v-108q0 -59 30.5 -87t79.5 -28t79.5 28t30.5 87v108z" />
    <glyph glyph-name="ntilde" unicode="&#xf1;" 
d="M344 588l-79 57l-107 -57l-23 43l133 71l79 -57l107 57l23 -43zM196 0h-105v516h105v-45q6 11 17.5 21.5t27.5 19t35.5 13.5t39.5 5q33 0 69.5 -11t66.5 -36.5t49.5 -66t19.5 -100.5v-316h-105v314q0 59 -30.5 86.5t-79.5 27.5t-79.5 -27.5t-30.5 -86.5v-314z" />
    <glyph glyph-name="ograve" unicode="&#xf2;" 
d="M414 314q0 59 -30.5 87t-79.5 28t-79.5 -28t-30.5 -87v-108q0 -59 30.5 -87t79.5 -28t79.5 28t30.5 87v108zM89 316q0 64 21 105.5t53 65.5t69.5 33.5t71.5 9.5t71.5 -9.5t69.5 -33.5t53 -65.5t21 -105.5v-112q0 -64 -21 -105.5t-53 -65.5t-69.5 -33.5t-71.5 -9.5
t-71.5 9.5t-69.5 33.5t-53 65.5t-21 105.5v112zM164 657l13 48l267 -73l-13 -48z" />
    <glyph glyph-name="oacute" unicode="&#xf3;" 
d="M414 314q0 59 -30.5 87t-79.5 28t-79.5 -28t-30.5 -87v-108q0 -59 30.5 -87t79.5 -28t79.5 28t30.5 87v108zM89 316q0 64 21 105.5t53 65.5t69.5 33.5t71.5 9.5t71.5 -9.5t69.5 -33.5t53 -65.5t21 -105.5v-112q0 -64 -21 -105.5t-53 -65.5t-69.5 -33.5t-71.5 -9.5
t-71.5 9.5t-69.5 33.5t-53 65.5t-21 105.5v112zM177 584l-13 48l267 73l13 -48z" />
    <glyph glyph-name="ocircumflex" unicode="&#xf4;" 
d="M414 314q0 59 -30.5 87t-79.5 28t-79.5 -28t-30.5 -87v-108q0 -59 30.5 -87t79.5 -28t79.5 28t30.5 87v108zM89 316q0 64 21 105.5t53 65.5t69.5 33.5t71.5 9.5t71.5 -9.5t69.5 -33.5t53 -65.5t21 -105.5v-112q0 -64 -21 -105.5t-53 -65.5t-69.5 -33.5t-71.5 -9.5
t-71.5 9.5t-69.5 33.5t-53 65.5t-21 105.5v112zM304 651l-141 -67l-21 44l162 77l162 -77l-21 -44z" />
    <glyph glyph-name="otilde" unicode="&#xf5;" 
d="M342 588l-79 57l-107 -57l-23 43l133 71l79 -57l107 57l23 -43zM414 314q0 59 -30.5 87t-79.5 28t-79.5 -28t-30.5 -87v-108q0 -59 30.5 -87t79.5 -28t79.5 28t30.5 87v108zM89 316q0 64 21 105.5t53 65.5t69.5 33.5t71.5 9.5t71.5 -9.5t69.5 -33.5t53 -65.5t21 -105.5
v-112q0 -64 -21 -105.5t-53 -65.5t-69.5 -33.5t-71.5 -9.5t-71.5 9.5t-69.5 33.5t-53 65.5t-21 105.5v112z" />
    <glyph glyph-name="odieresis" unicode="&#xf6;" 
d="M414 314q0 59 -30.5 87t-79.5 28t-79.5 -28t-30.5 -87v-108q0 -59 30.5 -87t79.5 -28t79.5 28t30.5 87v108zM89 316q0 64 21 105.5t53 65.5t69.5 33.5t71.5 9.5t71.5 -9.5t69.5 -33.5t53 -65.5t21 -105.5v-112q0 -64 -21 -105.5t-53 -65.5t-69.5 -33.5t-71.5 -9.5
t-71.5 9.5t-69.5 33.5t-53 65.5t-21 105.5v112zM148 683h76v-76h-76v76zM384 683h76v-76h-76v76z" />
    <glyph glyph-name="divide" unicode="&#xf7;" 
d="M262 479q0 17 12.5 29.5t29.5 12.5t29.5 -12.5t12.5 -29.5t-12.5 -29.5t-29.5 -12.5t-29.5 12.5t-12.5 29.5zM262 82q0 17 12.5 29.5t29.5 12.5t29.5 -12.5t12.5 -29.5t-12.5 -29.5t-29.5 -12.5t-29.5 12.5t-12.5 29.5zM106 258v45h396v-45h-396z" />
    <glyph glyph-name="oslash" unicode="&#xf8;" 
d="M89 316q0 64 21 105.5t53 65.5t69.5 33.5t71.5 9.5q28 0 58.5 -6.5t59.5 -22.5l31 52l37 -23l-32 -54q27 -25 44 -64t17 -96v-112q0 -64 -21 -105.5t-53 -65.5t-69.5 -33.5t-71.5 -9.5q-29 0 -59.5 6.5t-59.5 22.5l-31 -52l-37 23l32 54q-26 25 -43 64t-17 96v112z
M414 314q0 20 -4 35.5t-11 28.5l-161 -270q28 -17 66 -17q49 0 79.5 28t30.5 87v108zM194 206q0 -38 14 -64l161 270q-28 17 -65 17q-49 0 -79.5 -28t-30.5 -87v-108z" />
    <glyph glyph-name="ugrave" unicode="&#xf9;" 
d="M195 206q0 -59 30 -86.5t77 -27.5t77 27.5t30 86.5v310h105v-516h-105v49q-6 -11 -17.5 -22t-27.5 -19t-35.5 -13t-39.5 -5q-33 0 -68.5 12t-64.5 38t-47.5 66.5t-18.5 97.5v312h105v-310zM163 657l13 48l267 -73l-13 -48z" />
    <glyph glyph-name="uacute" unicode="&#xfa;" 
d="M195 206q0 -59 30 -86.5t77 -27.5t77 27.5t30 86.5v310h105v-516h-105v49q-6 -11 -17.5 -22t-27.5 -19t-35.5 -13t-39.5 -5q-33 0 -68.5 12t-64.5 38t-47.5 66.5t-18.5 97.5v312h105v-310zM176 584l-13 48l267 73l13 -48z" />
    <glyph glyph-name="ucircumflex" unicode="&#xfb;" 
d="M195 206q0 -59 30 -86.5t77 -27.5t77 27.5t30 86.5v310h105v-516h-105v49q-6 -11 -17.5 -22t-27.5 -19t-35.5 -13t-39.5 -5q-33 0 -68.5 12t-64.5 38t-47.5 66.5t-18.5 97.5v312h105v-310zM303 651l-141 -67l-21 44l162 77l162 -77l-21 -44z" />
    <glyph glyph-name="udieresis" unicode="&#xfc;" 
d="M195 206q0 -59 30 -86.5t77 -27.5t77 27.5t30 86.5v310h105v-516h-105v49q-6 -11 -17.5 -22t-27.5 -19t-35.5 -13t-39.5 -5q-33 0 -68.5 12t-64.5 38t-47.5 66.5t-18.5 97.5v312h105v-310zM147 683h76v-76h-76v76zM383 683h76v-76h-76v76z" />
    <glyph glyph-name="yacute" unicode="&#xfd;" 
d="M313 -119q-23 -65 -114 -65h-70v101h37q19 0 30 2t17.5 8t11.5 16t11 26l14 38l-184 509h109l129 -367l129 367h109zM177 584l-13 48l267 73l13 -48z" />
    <glyph glyph-name="thorn" unicode="&#xfe;" 
d="M418 314q0 59 -30.5 86.5t-79.5 27.5t-79.5 -27.5t-30.5 -86.5v-108q0 -59 30.5 -86.5t79.5 -27.5t79.5 27.5t30.5 86.5v108zM523 204q0 -60 -19.5 -100.5t-49.5 -66t-66.5 -36.5t-69.5 -11q-20 0 -39.5 5t-35.5 13t-27.5 19t-17.5 22v-233h-105v884h105v-229
q6 11 17.5 21.5t27.5 19t35.5 13.5t39.5 5q33 0 69.5 -11t66.5 -36.5t49.5 -66t19.5 -100.5v-112z" />
    <glyph glyph-name="ydieresis" unicode="&#xff;" 
d="M313 -119q-23 -65 -114 -65h-70v101h37q19 0 30 2t17.5 8t11.5 16t11 26l14 38l-184 509h109l129 -367l129 367h109zM148 683h76v-76h-76v76zM384 683h76v-76h-76v76z" />
    <glyph glyph-name="Abreve" unicode="&#x102;" 
d="M435 169h-262l-59 -169h-110l245 700h110l245 -700h-110zM401 268l-97 278l-97 -278h194zM274 743q-23 0 -43 9t-35 24t-24 35t-9 43h49q0 -26 18 -44t44 -18h60q26 0 44 18t18 44h49q0 -23 -9 -43t-24 -35t-35 -24t-43 -9h-60z" />
    <glyph glyph-name="Amacron" unicode="&#x100;" 
d="M435 169h-262l-59 -169h-110l245 700h110l245 -700h-110zM401 268l-97 278l-97 -278h194zM148 774v50h312v-50h-312z" />
    <glyph glyph-name="Aogonek" unicode="&#x104;" 
d="M435 169h-262l-59 -169h-110l245 700h110l245 -700h-110zM401 268l-97 278l-97 -278h194zM604 -187q-8 -2 -15 -2h-15q-25 0 -43.5 8.5t-31 22t-18.5 30t-6 33.5q0 10 1.5 22.5t7 25t15.5 25t27 22.5h78q-35 -14 -57.5 -38t-22.5 -51q0 -22 13.5 -36.5t42.5 -14.5
q12 0 24 3v-50z" />
    <glyph glyph-name="Cacute" unicode="&#x106;" 
d="M558 217q-3 -52 -22.5 -94t-52 -71.5t-77 -45.5t-98.5 -16q-56 0 -102.5 17.5t-79.5 49.5t-51 77.5t-18 102.5v226q0 57 18 102.5t51 77.5t79.5 49.5t102.5 17.5q54 0 98.5 -16t77 -45t52 -71.5t22.5 -94.5h-107q-3 31 -17 54t-33.5 38t-44 22t-48.5 7q-26 0 -52 -8.5
t-46.5 -25.5t-33 -43.5t-12.5 -63.5v-226q0 -37 12.5 -63.5t33 -44t46.5 -25.5t52 -8q24 0 48.5 7t44 22t33.5 37.5t17 54.5h107zM180 738l-13 48l267 73l13 -48z" />
    <glyph glyph-name="Ccaron" unicode="&#x10c;" 
d="M558 217q-3 -52 -22.5 -94t-52 -71.5t-77 -45.5t-98.5 -16q-56 0 -102.5 17.5t-79.5 49.5t-51 77.5t-18 102.5v226q0 57 18 102.5t51 77.5t79.5 49.5t102.5 17.5q54 0 98.5 -16t77 -45t52 -71.5t22.5 -94.5h-107q-3 31 -17 54t-33.5 38t-44 22t-48.5 7q-26 0 -52 -8.5
t-46.5 -25.5t-33 -43.5t-12.5 -63.5v-226q0 -37 12.5 -63.5t33 -44t46.5 -25.5t52 -8q24 0 48.5 7t44 22t33.5 37.5t17 54.5h107zM448 859l21 -44l-162 -77l-162 77l21 44l141 -67z" />
    <glyph glyph-name="Ccircumflex" unicode="&#x108;" 
d="M558 217q-3 -52 -22.5 -94t-52 -71.5t-77 -45.5t-98.5 -16q-56 0 -102.5 17.5t-79.5 49.5t-51 77.5t-18 102.5v226q0 57 18 102.5t51 77.5t79.5 49.5t102.5 17.5q54 0 98.5 -16t77 -45t52 -71.5t22.5 -94.5h-107q-3 31 -17 54t-33.5 38t-44 22t-48.5 7q-26 0 -52 -8.5
t-46.5 -25.5t-33 -43.5t-12.5 -63.5v-226q0 -37 12.5 -63.5t33 -44t46.5 -25.5t52 -8q24 0 48.5 7t44 22t33.5 37.5t17 54.5h107zM307 805l-141 -67l-21 44l162 77l162 -77l-21 -44z" />
    <glyph glyph-name="Cdotaccent" unicode="&#x10a;" 
d="M558 217q-3 -52 -22.5 -94t-52 -71.5t-77 -45.5t-98.5 -16q-56 0 -102.5 17.5t-79.5 49.5t-51 77.5t-18 102.5v226q0 57 18 102.5t51 77.5t79.5 49.5t102.5 17.5q54 0 98.5 -16t77 -45t52 -71.5t22.5 -94.5h-107q-3 31 -17 54t-33.5 38t-44 22t-48.5 7q-26 0 -52 -8.5
t-46.5 -25.5t-33 -43.5t-12.5 -63.5v-226q0 -37 12.5 -63.5t33 -44t46.5 -25.5t52 -8q24 0 48.5 7t44 22t33.5 37.5t17 54.5h107zM269 837h76v-76h-76v76z" />
    <glyph glyph-name="Dcaron" unicode="&#x10e;" 
d="M57 0v700h251q56 0 102.5 -17.5t79.5 -49.5t51 -77.5t18 -102.5v-206q0 -57 -18 -102.5t-51 -77.5t-79.5 -49.5t-102.5 -17.5h-251zM308 106q26 0 52 8.5t46.5 26t33 44.5t12.5 64v202q0 37 -12.5 64t-33 44.5t-46.5 26t-52 8.5h-144v-488h144zM430 859l21 -44l-162 -77
l-162 77l21 44l141 -67z" />
    <glyph glyph-name="Dcroat" unicode="&#x110;" 
d="M69 0v328h-70v45h70v327h251q56 0 102.5 -17.5t79.5 -49.5t51 -77.5t18 -102.5v-206q0 -57 -18 -102.5t-51 -77.5t-79.5 -49.5t-102.5 -17.5h-251zM320 106q26 0 52 8.5t46.5 26t33 44.5t12.5 64v202q0 37 -12.5 64t-33 44.5t-46.5 26t-52 8.5h-144v-221h144v-45h-144
v-222h144z" />
    <glyph glyph-name="Ebreve" unicode="&#x114;" 
d="M215 406h236v-106h-236v-194h306v-106h-413v700h413v-106h-306v-188zM284 743q-23 0 -43 9t-35 24t-24 35t-9 43h49q0 -26 18 -44t44 -18h60q26 0 44 18t18 44h49q0 -23 -9 -43t-24 -35t-35 -24t-43 -9h-60z" />
    <glyph glyph-name="Ecaron" unicode="&#x11a;" 
d="M215 406h236v-106h-236v-194h306v-106h-413v700h413v-106h-306v-188zM455 859l21 -44l-162 -77l-162 77l21 44l141 -67z" />
    <glyph glyph-name="Emacron" unicode="&#x112;" 
d="M215 406h236v-106h-236v-194h306v-106h-413v700h413v-106h-306v-188zM158 774v50h312v-50h-312z" />
    <glyph glyph-name="Eogonek" unicode="&#x118;" 
d="M215 406h236v-106h-236v-194h306v-106h-413v700h413v-106h-306v-188zM521 -187q-8 -2 -15 -2h-15q-25 0 -43.5 8.5t-31 22t-18.5 30t-6 33.5q0 10 1.5 22.5t7 25t15.5 25t27 22.5h78q-35 -14 -57.5 -38t-22.5 -51q0 -22 13.5 -36.5t42.5 -14.5q12 0 24 3v-50z" />
    <glyph glyph-name="Edotaccent" unicode="&#x116;" 
d="M215 406h236v-106h-236v-194h306v-106h-413v700h413v-106h-306v-188zM276 837h76v-76h-76v76z" />
    <glyph glyph-name="Gbreve" unicode="&#x11e;" 
d="M306 710q53 0 97.5 -15.5t77 -44.5t52 -70.5t23.5 -93.5h-107q-4 31 -18 53t-33.5 36.5t-43.5 21.5t-48 7q-26 0 -52 -8.5t-46.5 -25.5t-33 -43.5t-12.5 -63.5v-226q0 -37 12.5 -63.5t33 -44t46.5 -25.5t52 -8t52 8t46.5 25.5t33 44t12.5 63.5v45h-144v103h251v-148
q0 -57 -18 -102.5t-51 -77.5t-79.5 -49.5t-102.5 -17.5t-102.5 17.5t-79.5 49.5t-51 77.5t-18 102.5v226q0 57 18 102.5t51 77.5t79.5 49.5t102.5 17.5zM276 743q-23 0 -43 9t-35 24t-24 35t-9 43h49q0 -26 18 -44t44 -18h60q26 0 44 18t18 44h49q0 -23 -9 -43t-24 -35
t-35 -24t-43 -9h-60z" />
    <glyph glyph-name="Gcircumflex" unicode="&#x11c;" 
d="M306 710q53 0 97.5 -15.5t77 -44.5t52 -70.5t23.5 -93.5h-107q-4 31 -18 53t-33.5 36.5t-43.5 21.5t-48 7q-26 0 -52 -8.5t-46.5 -25.5t-33 -43.5t-12.5 -63.5v-226q0 -37 12.5 -63.5t33 -44t46.5 -25.5t52 -8t52 8t46.5 25.5t33 44t12.5 63.5v45h-144v103h251v-148
q0 -57 -18 -102.5t-51 -77.5t-79.5 -49.5t-102.5 -17.5t-102.5 17.5t-79.5 49.5t-51 77.5t-18 102.5v226q0 57 18 102.5t51 77.5t79.5 49.5t102.5 17.5zM306 805l-141 -67l-21 44l162 77l162 -77l-21 -44z" />
    <glyph glyph-name="Gcommaaccent" unicode="&#x122;" 
d="M306 710q53 0 97.5 -15.5t77 -44.5t52 -70.5t23.5 -93.5h-107q-4 31 -18 53t-33.5 36.5t-43.5 21.5t-48 7q-26 0 -52 -8.5t-46.5 -25.5t-33 -43.5t-12.5 -63.5v-226q0 -37 12.5 -63.5t33 -44t46.5 -25.5t52 -8t52 8t46.5 25.5t33 44t12.5 63.5v45h-144v103h251v-148
q0 -57 -18 -102.5t-51 -77.5t-79.5 -49.5t-102.5 -17.5t-102.5 17.5t-79.5 49.5t-51 77.5t-18 102.5v226q0 57 18 102.5t51 77.5t79.5 49.5t102.5 17.5zM274 -189l-36 37l100 99l36 -36z" />
    <glyph glyph-name="Gdotaccent" unicode="&#x120;" 
d="M306 710q53 0 97.5 -15.5t77 -44.5t52 -70.5t23.5 -93.5h-107q-4 31 -18 53t-33.5 36.5t-43.5 21.5t-48 7q-26 0 -52 -8.5t-46.5 -25.5t-33 -43.5t-12.5 -63.5v-226q0 -37 12.5 -63.5t33 -44t46.5 -25.5t52 -8t52 8t46.5 25.5t33 44t12.5 63.5v45h-144v103h251v-148
q0 -57 -18 -102.5t-51 -77.5t-79.5 -49.5t-102.5 -17.5t-102.5 17.5t-79.5 49.5t-51 77.5t-18 102.5v226q0 57 18 102.5t51 77.5t79.5 49.5t102.5 17.5zM268 837h76v-76h-76v76z" />
    <glyph glyph-name="Hbar" unicode="&#x126;" 
d="M555 531v-531h-107v300h-288v-300h-107v531h-70v45h70v124h107v-124h288v124h107v-124h70v-45h-70zM448 531h-288v-125h288v125z" />
    <glyph glyph-name="Hcircumflex" unicode="&#x124;" 
d="M448 700h107v-700h-107v300h-288v-300h-107v700h107v-294h288v294zM304 805l-141 -67l-21 44l162 77l162 -77l-21 -44z" />
    <glyph glyph-name="Ibreve" unicode="&#x12c;" 
d="M358 594v-488h153v-106h-413v106h153v488h-153v106h413v-106h-153zM274 743q-23 0 -43 9t-35 24t-24 35t-9 43h49q0 -26 18 -44t44 -18h60q26 0 44 18t18 44h49q0 -23 -9 -43t-24 -35t-35 -24t-43 -9h-60z" />
    <glyph glyph-name="Idotaccent" unicode="&#x130;" 
d="M358 594v-488h153v-106h-413v106h153v488h-153v106h413v-106h-153zM266 837h76v-76h-76v76z" />
    <glyph glyph-name="Imacron" unicode="&#x12a;" 
d="M358 594v-488h153v-106h-413v106h153v488h-153v106h413v-106h-153zM148 774v50h312v-50h-312z" />
    <glyph glyph-name="Iogonek" unicode="&#x12e;" 
d="M358 594v-488h153v-106h-413v106h153v488h-153v106h413v-106h-153zM511 -187q-8 -2 -15 -2h-15q-25 0 -43.5 8.5t-31 22t-18.5 30t-6 33.5q0 10 1.5 22.5t7 25t15.5 25t27 22.5h78q-35 -14 -57.5 -38t-22.5 -51q0 -22 13.5 -36.5t42.5 -14.5q12 0 24 3v-50z" />
    <glyph glyph-name="Itilde" unicode="&#x128;" 
d="M358 594v-488h153v-106h-413v106h153v488h-153v106h413v-106h-153zM342 742l-79 57l-107 -57l-23 43l133 71l79 -57l107 57l23 -43z" />
    <glyph glyph-name="uni1ECA" unicode="&#x1eca;" 
d="M358 594v-488h153v-106h-413v106h153v488h-153v106h413v-106h-153zM266 -86h76v-76h-76v76z" />
    <glyph glyph-name="Jcircumflex" unicode="&#x134;" 
d="M152 200q6 -27 20 -46.5t33.5 -32.5t41.5 -19t45 -6q26 0 52 8t46.5 25.5t33 44t12.5 63.5v357h-306v106h413v-463q0 -57 -18 -102.5t-51 -77.5t-79.5 -49.5t-102.5 -17.5q-51 0 -94.5 14.5t-76 41.5t-52.5 66t-26 88h109zM336 805l-141 -67l-21 44l162 77l162 -77
l-21 -44z" />
    <glyph glyph-name="Kcommaaccent" unicode="&#x136;" 
d="M163 0h-107v700h107v-342l291 342h132l-245 -288l272 -412h-126l-217 329l-107 -126v-203zM283 -189l-36 37l100 99l36 -36z" />
    <glyph glyph-name="Lacute" unicode="&#x139;" 
d="M115 700h107v-594h306v-106h-413v700zM42 738l-13 48l267 73l13 -48z" />
    <glyph glyph-name="Lcaron" unicode="&#x13d;" 
d="M429 574l-63 -116l-44 23l57 105v114h50v-126zM115 700h107v-594h306v-106h-413v700z" />
    <glyph glyph-name="Lcommaaccent" unicode="&#x13b;" 
d="M115 700h107v-594h306v-106h-413v700zM289 -189l-36 37l100 99l36 -36z" />
    <glyph glyph-name="Ldot" unicode="&#x13f;" 
d="M115 700h107v-594h306v-106h-413v700zM452 442h76v-76h-76v76z" />
    <glyph glyph-name="Lslash" unicode="&#x141;" 
d="M145 271l-59 -32l-22 39l81 44v378h107v-319l156 86l21 -39l-177 -98v-224h306v-106h-413v271z" />
    <glyph glyph-name="Eng" unicode="&#x14a;" 
d="M304 -184v106h50q41 0 63.5 22.5t28.5 58.5l-286 499v-502h-107v700h107l288 -502v502h107v-669q0 -108 -53.5 -161.5t-147.5 -53.5h-50z" />
    <glyph glyph-name="Nacute" unicode="&#x143;" 
d="M555 0h-107l-288 502v-502h-107v700h107l288 -502v502h107v-700zM177 738l-13 48l267 73l13 -48z" />
    <glyph glyph-name="Ncaron" unicode="&#x147;" 
d="M555 0h-107l-288 502v-502h-107v700h107l288 -502v502h107v-700zM445 859l21 -44l-162 -77l-162 77l21 44l141 -67z" />
    <glyph glyph-name="Ncommaaccent" unicode="&#x145;" 
d="M555 0h-107l-288 502v-502h-107v700h107l288 -502v502h107v-700zM272 -189l-36 37l100 99l36 -36z" />
    <glyph glyph-name="OE" unicode="&#x152;" 
d="M411 406h90v-106h-90v-194h160v-106h-267q-56 0 -102.5 17.5t-79.5 49.5t-51 77.5t-18 102.5v206q0 57 18 102.5t51 77.5t79.5 49.5t102.5 17.5h267v-106h-160v-188zM160 247q0 -37 12.5 -63.5t33 -44t46.5 -25.5t52 -8v488q-26 0 -52 -8.5t-46.5 -25.5t-33 -43.5
t-12.5 -63.5v-206z" />
    <glyph glyph-name="Obreve" unicode="&#x14e;" 
d="M448 463q0 37 -12.5 63.5t-33 43.5t-46.5 25.5t-52 8.5t-52 -8.5t-46.5 -25.5t-33 -43.5t-12.5 -63.5v-226q0 -37 12.5 -63.5t33 -44t46.5 -25.5t52 -8t52 8t46.5 25.5t33 44t12.5 63.5v226zM53 463q0 57 18 102.5t51 77.5t79.5 49.5t102.5 17.5t102.5 -17.5t79.5 -49.5
t51 -77.5t18 -102.5v-226q0 -57 -18 -102.5t-51 -77.5t-79.5 -49.5t-102.5 -17.5t-102.5 17.5t-79.5 49.5t-51 77.5t-18 102.5v226zM274 743q-23 0 -43 9t-35 24t-24 35t-9 43h49q0 -26 18 -44t44 -18h60q26 0 44 18t18 44h49q0 -23 -9 -43t-24 -35t-35 -24t-43 -9h-60z" />
    <glyph glyph-name="Ohungarumlaut" unicode="&#x150;" 
d="M448 463q0 37 -12.5 63.5t-33 43.5t-46.5 25.5t-52 8.5t-52 -8.5t-46.5 -25.5t-33 -43.5t-12.5 -63.5v-226q0 -37 12.5 -63.5t33 -44t46.5 -25.5t52 -8t52 8t46.5 25.5t33 44t12.5 63.5v226zM53 463q0 57 18 102.5t51 77.5t79.5 49.5t102.5 17.5t102.5 -17.5t79.5 -49.5
t51 -77.5t18 -102.5v-226q0 -57 -18 -102.5t-51 -77.5t-79.5 -49.5t-102.5 -17.5t-102.5 17.5t-79.5 49.5t-51 77.5t-18 102.5v226zM154 756l-13 48l127 35l13 -48zM340 759l-13 48l127 35l13 -48z" />
    <glyph glyph-name="Omacron" unicode="&#x14c;" 
d="M448 463q0 37 -12.5 63.5t-33 43.5t-46.5 25.5t-52 8.5t-52 -8.5t-46.5 -25.5t-33 -43.5t-12.5 -63.5v-226q0 -37 12.5 -63.5t33 -44t46.5 -25.5t52 -8t52 8t46.5 25.5t33 44t12.5 63.5v226zM53 463q0 57 18 102.5t51 77.5t79.5 49.5t102.5 17.5t102.5 -17.5t79.5 -49.5
t51 -77.5t18 -102.5v-226q0 -57 -18 -102.5t-51 -77.5t-79.5 -49.5t-102.5 -17.5t-102.5 17.5t-79.5 49.5t-51 77.5t-18 102.5v226zM148 774v50h312v-50h-312z" />
    <glyph glyph-name="uni1ECC" unicode="&#x1ecc;" 
d="M448 463q0 37 -12.5 63.5t-33 43.5t-46.5 25.5t-52 8.5t-52 -8.5t-46.5 -25.5t-33 -43.5t-12.5 -63.5v-226q0 -37 12.5 -63.5t33 -44t46.5 -25.5t52 -8t52 8t46.5 25.5t33 44t12.5 63.5v226zM53 463q0 57 18 102.5t51 77.5t79.5 49.5t102.5 17.5t102.5 -17.5t79.5 -49.5
t51 -77.5t18 -102.5v-226q0 -57 -18 -102.5t-51 -77.5t-79.5 -49.5t-102.5 -17.5t-102.5 17.5t-79.5 49.5t-51 77.5t-18 102.5v226zM266 -86h76v-76h-76v76z" />
    <glyph glyph-name="Racute" unicode="&#x154;" 
d="M180 301v-301h-107v700h275q105 0 160 -54.5t55 -145.5q0 -78 -40 -129t-117 -65l180 -306h-120l-177 301h-109zM454 499q0 46 -28.5 70.5t-77.5 24.5h-168v-190h168q49 0 77.5 24.5t28.5 70.5zM182 738l-13 48l267 73l13 -48z" />
    <glyph glyph-name="Rcaron" unicode="&#x158;" 
d="M180 301v-301h-107v700h275q105 0 160 -54.5t55 -145.5q0 -78 -40 -129t-117 -65l180 -306h-120l-177 301h-109zM454 499q0 46 -28.5 70.5t-77.5 24.5h-168v-190h168q49 0 77.5 24.5t28.5 70.5zM450 859l21 -44l-162 -77l-162 77l21 44l141 -67z" />
    <glyph glyph-name="Rcommaaccent" unicode="&#x156;" 
d="M180 301v-301h-107v700h275q105 0 160 -54.5t55 -145.5q0 -78 -40 -129t-117 -65l180 -306h-120l-177 301h-109zM454 499q0 46 -28.5 70.5t-77.5 24.5h-168v-190h168q49 0 77.5 24.5t28.5 70.5zM281 -189l-36 37l100 99l36 -36z" />
    <glyph glyph-name="Sacute" unicode="&#x15a;" 
d="M312 -10q-60 0 -106.5 17t-79 47.5t-50.5 72t-22 90.5h109q11 -59 50 -90t101 -31q54 0 86 24t32 65q0 39 -23 63.5t-76 37.5l-124 30q-69 17 -106.5 69t-37.5 127q0 51 18 88t48.5 61.5t71.5 36.5t88 12q106 0 166 -54.5t73 -142.5h-114q-11 43 -42 67t-82 24
q-63 0 -90.5 -26t-27.5 -66q0 -41 22 -63t57 -30l120 -29q84 -20 126 -71t42 -136q0 -42 -15.5 -77.5t-44.5 -61t-71.5 -40t-97.5 -14.5zM171 738l-13 48l267 73l13 -48z" />
    <glyph glyph-name="Scaron" unicode="&#x160;" 
d="M312 -10q-60 0 -106.5 17t-79 47.5t-50.5 72t-22 90.5h109q11 -59 50 -90t101 -31q54 0 86 24t32 65q0 39 -23 63.5t-76 37.5l-124 30q-69 17 -106.5 69t-37.5 127q0 51 18 88t48.5 61.5t71.5 36.5t88 12q106 0 166 -54.5t73 -142.5h-114q-11 43 -42 67t-82 24
q-63 0 -90.5 -26t-27.5 -66q0 -41 22 -63t57 -30l120 -29q84 -20 126 -71t42 -136q0 -42 -15.5 -77.5t-44.5 -61t-71.5 -40t-97.5 -14.5zM439 859l21 -44l-162 -77l-162 77l21 44l141 -67z" />
    <glyph glyph-name="Scedilla" unicode="&#x15e;" 
d="M312 -10q-60 0 -106.5 17t-79 47.5t-50.5 72t-22 90.5h109q11 -59 50 -90t101 -31q54 0 86 24t32 65q0 39 -23 63.5t-76 37.5l-124 30q-69 17 -106.5 69t-37.5 127q0 51 18 88t48.5 61.5t71.5 36.5t88 12q106 0 166 -54.5t73 -142.5h-114q-11 43 -42 67t-82 24
q-63 0 -90.5 -26t-27.5 -66q0 -41 22 -63t57 -30l120 -29q84 -20 126 -71t42 -136q0 -42 -15.5 -77.5t-44.5 -61t-71.5 -40t-97.5 -14.5zM288 -134v84h50v-134h-134v50h84z" />
    <glyph glyph-name="Scircumflex" unicode="&#x15c;" 
d="M312 -10q-60 0 -106.5 17t-79 47.5t-50.5 72t-22 90.5h109q11 -59 50 -90t101 -31q54 0 86 24t32 65q0 39 -23 63.5t-76 37.5l-124 30q-69 17 -106.5 69t-37.5 127q0 51 18 88t48.5 61.5t71.5 36.5t88 12q106 0 166 -54.5t73 -142.5h-114q-11 43 -42 67t-82 24
q-63 0 -90.5 -26t-27.5 -66q0 -41 22 -63t57 -30l120 -29q84 -20 126 -71t42 -136q0 -42 -15.5 -77.5t-44.5 -61t-71.5 -40t-97.5 -14.5zM298 805l-141 -67l-21 44l162 77l162 -77l-21 -44z" />
    <glyph glyph-name="Scommaaccent" unicode="&#x218;" 
d="M312 -10q-60 0 -106.5 17t-79 47.5t-50.5 72t-22 90.5h109q11 -59 50 -90t101 -31q54 0 86 24t32 65q0 39 -23 63.5t-76 37.5l-124 30q-69 17 -106.5 69t-37.5 127q0 51 18 88t48.5 61.5t71.5 36.5t88 12q106 0 166 -54.5t73 -142.5h-114q-11 43 -42 67t-82 24
q-63 0 -90.5 -26t-27.5 -66q0 -41 22 -63t57 -30l120 -29q84 -20 126 -71t42 -136q0 -42 -15.5 -77.5t-44.5 -61t-71.5 -40t-97.5 -14.5zM266 -189l-36 37l100 99l36 -36z" />
    <glyph glyph-name="Tbar" unicode="&#x166;" 
d="M358 594v-221h127v-45h-127v-328h-107v328h-127v45h127v221h-197v106h501v-106h-197z" />
    <glyph glyph-name="Tcaron" unicode="&#x164;" 
d="M358 594v-594h-107v594h-197v106h501v-106h-197zM445 859l21 -44l-162 -77l-162 77l21 44l141 -67z" />
    <glyph glyph-name="uni0162" unicode="&#x162;" 
d="M358 594v-594h-107v594h-197v106h501v-106h-197zM272 -189l-36 37l100 99l36 -36z" />
    <glyph glyph-name="Tcommaaccent" unicode="&#x21a;" 
d="M358 594v-594h-107v594h-197v106h501v-106h-197zM272 -189l-36 37l100 99l36 -36z" />
    <glyph glyph-name="Ubreve" unicode="&#x16c;" 
d="M448 700h107v-463q0 -57 -18 -102.5t-51 -77.5t-79.5 -49.5t-102.5 -17.5t-102.5 17.5t-79.5 49.5t-51 77.5t-18 102.5v463h107v-463q0 -37 12.5 -63.5t33 -44t46.5 -25.5t52 -8t52 8t46.5 25.5t33 44t12.5 63.5v463zM274 743q-23 0 -43 9t-35 24t-24 35t-9 43h49
q0 -26 18 -44t44 -18h60q26 0 44 18t18 44h49q0 -23 -9 -43t-24 -35t-35 -24t-43 -9h-60z" />
    <glyph glyph-name="Uhungarumlaut" unicode="&#x170;" 
d="M448 700h107v-463q0 -57 -18 -102.5t-51 -77.5t-79.5 -49.5t-102.5 -17.5t-102.5 17.5t-79.5 49.5t-51 77.5t-18 102.5v463h107v-463q0 -37 12.5 -63.5t33 -44t46.5 -25.5t52 -8t52 8t46.5 25.5t33 44t12.5 63.5v463zM154 756l-13 48l127 35l13 -48zM340 759l-13 48
l127 35l13 -48z" />
    <glyph glyph-name="Umacron" unicode="&#x16a;" 
d="M448 700h107v-463q0 -57 -18 -102.5t-51 -77.5t-79.5 -49.5t-102.5 -17.5t-102.5 17.5t-79.5 49.5t-51 77.5t-18 102.5v463h107v-463q0 -37 12.5 -63.5t33 -44t46.5 -25.5t52 -8t52 8t46.5 25.5t33 44t12.5 63.5v463zM148 774v50h312v-50h-312z" />
    <glyph glyph-name="Uogonek" unicode="&#x172;" 
d="M403 -187q-8 -2 -15 -2h-15q-25 0 -43.5 8.5t-31 22t-18.5 30t-6 33.5t6.5 41t29.5 44h-6q-56 0 -102.5 17.5t-79.5 49.5t-51 77.5t-18 102.5v463h107v-463q0 -37 12.5 -63.5t33 -44t46.5 -25.5t52 -8t52 8t46.5 25.5t33 44t12.5 63.5v463h107v-463q0 -77 -32.5 -133
t-89.5 -85q-18 -9 -37 -19.5t-35.5 -24t-27 -29.5t-10.5 -35q0 -22 13.5 -36.5t42.5 -14.5q12 0 24 3v-50z" />
    <glyph glyph-name="Uring" unicode="&#x16e;" 
d="M448 700h107v-463q0 -57 -18 -102.5t-51 -77.5t-79.5 -49.5t-102.5 -17.5t-102.5 17.5t-79.5 49.5t-51 77.5t-18 102.5v463h107v-463q0 -37 12.5 -63.5t33 -44t46.5 -25.5t52 -8t52 8t46.5 25.5t33 44t12.5 63.5v463zM190 765q0 24 9 44.5t24.5 36.5t36 25t44.5 9
t44.5 -9t36.5 -25t25 -36.5t9 -44.5t-9 -44.5t-25 -36t-36.5 -24.5t-44.5 -9t-44.5 9t-36 24.5t-24.5 36t-9 44.5zM239 765q0 -27 19 -46t46 -19t46.5 19t19.5 46t-19.5 46.5t-46.5 19.5t-46 -19.5t-19 -46.5z" />
    <glyph glyph-name="Utilde" unicode="&#x168;" 
d="M448 700h107v-463q0 -57 -18 -102.5t-51 -77.5t-79.5 -49.5t-102.5 -17.5t-102.5 17.5t-79.5 49.5t-51 77.5t-18 102.5v463h107v-463q0 -37 12.5 -63.5t33 -44t46.5 -25.5t52 -8t52 8t46.5 25.5t33 44t12.5 63.5v463zM342 742l-79 57l-107 -57l-23 43l133 71l79 -57
l107 57l23 -43z" />
    <glyph glyph-name="uni1EE4" unicode="&#x1ee4;" 
d="M448 700h107v-463q0 -57 -18 -102.5t-51 -77.5t-79.5 -49.5t-102.5 -17.5t-102.5 17.5t-79.5 49.5t-51 77.5t-18 102.5v463h107v-463q0 -37 12.5 -63.5t33 -44t46.5 -25.5t52 -8t52 8t46.5 25.5t33 44t12.5 63.5v463zM266 -86h76v-76h-76v76z" />
    <glyph glyph-name="Wacute" unicode="&#x1e82;" 
d="M418 175l65 525h105l-100 -700h-106l-78 430l-78 -430h-106l-100 700h105l65 -525l71 425h86zM177 738l-13 48l267 73l13 -48z" />
    <glyph glyph-name="Wcircumflex" unicode="&#x174;" 
d="M418 175l65 525h105l-100 -700h-106l-78 430l-78 -430h-106l-100 700h105l65 -525l71 425h86zM304 805l-141 -67l-21 44l162 77l162 -77l-21 -44z" />
    <glyph glyph-name="Wdieresis" unicode="&#x1e84;" 
d="M418 175l65 525h105l-100 -700h-106l-78 430l-78 -430h-106l-100 700h105l65 -525l71 425h86zM148 837h76v-76h-76v76zM384 837h76v-76h-76v76z" />
    <glyph glyph-name="Wgrave" unicode="&#x1e80;" 
d="M418 175l65 525h105l-100 -700h-106l-78 430l-78 -430h-106l-100 700h105l65 -525l71 425h86zM164 811l13 48l267 -73l-13 -48z" />
    <glyph glyph-name="Ycircumflex" unicode="&#x176;" 
d="M357 267v-267h-107v267l-246 433h118l182 -322l182 322h118zM304 805l-141 -67l-21 44l162 77l162 -77l-21 -44z" />
    <glyph glyph-name="Ydieresis" unicode="&#x178;" 
d="M357 267v-267h-107v267l-246 433h118l182 -322l182 322h118zM148 837h76v-76h-76v76zM384 837h76v-76h-76v76z" />
    <glyph glyph-name="Ygrave" unicode="&#x1ef2;" 
d="M357 267v-267h-107v267l-246 433h118l182 -322l182 322h118zM164 811l13 48l267 -73l-13 -48z" />
    <glyph glyph-name="uni0232" unicode="&#x232;" 
d="M357 267v-267h-107v267l-246 433h118l182 -322l182 322h118zM148 774v50h312v-50h-312z" />
    <glyph glyph-name="Zacute" unicode="&#x179;" 
d="M46 0v106l372 488h-367v106h497v-106l-372 -488h377v-106h-507zM173 738l-13 48l267 73l13 -48z" />
    <glyph glyph-name="Zcaron" unicode="&#x17d;" 
d="M46 0v106l372 488h-367v106h497v-106l-372 -488h377v-106h-507zM441 859l21 -44l-162 -77l-162 77l21 44l141 -67z" />
    <glyph glyph-name="Zdotaccent" unicode="&#x17b;" 
d="M46 0v106l372 488h-367v106h497v-106l-372 -488h377v-106h-507zM262 837h76v-76h-76v76z" />
    <glyph glyph-name="abreve" unicode="&#x103;" 
d="M300 429q-39 0 -66.5 -18t-38.5 -55h-107q7 51 29 85t52.5 53.5t65 27.5t65.5 8q34 0 71.5 -9.5t69.5 -33.5t53 -65.5t21 -105.5v-316h-105v49q-25 -30 -64 -44.5t-90 -14.5q-35 0 -67 9t-56 27.5t-38.5 47.5t-14.5 69q0 22 5.5 45t18.5 44t34.5 38.5t53.5 27.5
q47 14 99 19.5t118 10.5q-1 7 -1.5 13t-2.5 12q-10 38 -37.5 57t-67.5 19zM273 91q22 0 46.5 4.5t44.5 17t33 35t13 58.5v29q-69 -5 -120 -11.5t-80 -23.5q-10 -6 -17.5 -17t-7.5 -31q0 -32 23 -46.5t65 -14.5zM277 589q-23 0 -43 9t-35 24t-24 35t-9 43h49q0 -26 18 -44
t44 -18h60q26 0 44 18t18 44h49q0 -23 -9 -43t-24 -35t-35 -24t-43 -9h-60z" />
    <glyph glyph-name="amacron" unicode="&#x101;" 
d="M300 429q-39 0 -66.5 -18t-38.5 -55h-107q7 51 29 85t52.5 53.5t65 27.5t65.5 8q34 0 71.5 -9.5t69.5 -33.5t53 -65.5t21 -105.5v-316h-105v49q-25 -30 -64 -44.5t-90 -14.5q-35 0 -67 9t-56 27.5t-38.5 47.5t-14.5 69q0 22 5.5 45t18.5 44t34.5 38.5t53.5 27.5
q47 14 99 19.5t118 10.5q-1 7 -1.5 13t-2.5 12q-10 38 -37.5 57t-67.5 19zM273 91q22 0 46.5 4.5t44.5 17t33 35t13 58.5v29q-69 -5 -120 -11.5t-80 -23.5q-10 -6 -17.5 -17t-7.5 -31q0 -32 23 -46.5t65 -14.5zM151 620v50h312v-50h-312z" />
    <glyph glyph-name="aogonek" unicode="&#x105;" 
d="M300 429q-39 0 -66.5 -18t-38.5 -55h-107q7 51 29 85t52.5 53.5t65 27.5t65.5 8q34 0 71.5 -9.5t69.5 -33.5t53 -65.5t21 -105.5v-316h-105v49q-25 -30 -64 -44.5t-90 -14.5q-35 0 -67 9t-56 27.5t-38.5 47.5t-14.5 69q0 22 5.5 45t18.5 44t34.5 38.5t53.5 27.5
q47 14 99 19.5t118 10.5q-1 7 -1.5 13t-2.5 12q-10 38 -37.5 57t-67.5 19zM273 91q22 0 46.5 4.5t44.5 17t33 35t13 58.5v29q-69 -5 -120 -11.5t-80 -23.5q-10 -6 -17.5 -17t-7.5 -31q0 -32 23 -46.5t65 -14.5zM515 -187q-8 -2 -15 -2h-15q-25 0 -43.5 8.5t-31 22t-18.5 30
t-6 33.5q0 10 1.5 22.5t7 25t15.5 25t27 22.5h78q-35 -14 -57.5 -38t-22.5 -51q0 -22 13.5 -36.5t42.5 -14.5q12 0 24 3v-50z" />
    <glyph glyph-name="cacute" unicode="&#x107;" 
d="M522 176q-5 -55 -27 -91t-53 -57t-66.5 -29.5t-67.5 -8.5q-34 0 -71.5 9.5t-69.5 33.5t-53 65.5t-21 105.5v112q0 64 21 105.5t53 65.5t69.5 33.5t71.5 9.5q32 0 67.5 -8.5t66.5 -29.5t53 -57t27 -91h-107q-8 43 -36.5 64t-70.5 21q-49 0 -79.5 -28t-30.5 -87v-108
q0 -59 30.5 -87t79.5 -28q42 0 71 21t37 64h106zM180 584l-13 48l267 73l13 -48z" />
    <glyph glyph-name="ccaron" unicode="&#x10d;" 
d="M522 176q-5 -55 -27 -91t-53 -57t-66.5 -29.5t-67.5 -8.5q-34 0 -71.5 9.5t-69.5 33.5t-53 65.5t-21 105.5v112q0 64 21 105.5t53 65.5t69.5 33.5t71.5 9.5q32 0 67.5 -8.5t66.5 -29.5t53 -57t27 -91h-107q-8 43 -36.5 64t-70.5 21q-49 0 -79.5 -28t-30.5 -87v-108
q0 -59 30.5 -87t79.5 -28q42 0 71 21t37 64h106zM448 705l21 -44l-162 -77l-162 77l21 44l141 -67z" />
    <glyph glyph-name="ccircumflex" unicode="&#x109;" 
d="M522 176q-5 -55 -27 -91t-53 -57t-66.5 -29.5t-67.5 -8.5q-34 0 -71.5 9.5t-69.5 33.5t-53 65.5t-21 105.5v112q0 64 21 105.5t53 65.5t69.5 33.5t71.5 9.5q32 0 67.5 -8.5t66.5 -29.5t53 -57t27 -91h-107q-8 43 -36.5 64t-70.5 21q-49 0 -79.5 -28t-30.5 -87v-108
q0 -59 30.5 -87t79.5 -28q42 0 71 21t37 64h106zM307 651l-141 -67l-21 44l162 77l162 -77l-21 -44z" />
    <glyph glyph-name="cdotaccent" unicode="&#x10b;" 
d="M522 176q-5 -55 -27 -91t-53 -57t-66.5 -29.5t-67.5 -8.5q-34 0 -71.5 9.5t-69.5 33.5t-53 65.5t-21 105.5v112q0 64 21 105.5t53 65.5t69.5 33.5t71.5 9.5q32 0 67.5 -8.5t66.5 -29.5t53 -57t27 -91h-107q-8 43 -36.5 64t-70.5 21q-49 0 -79.5 -28t-30.5 -87v-108
q0 -59 30.5 -87t79.5 -28q42 0 71 21t37 64h106zM269 683h76v-76h-76v76z" />
    <glyph glyph-name="dcaron" unicode="&#x10f;" 
d="M608 574l-63 -116l-44 23l57 105v114h50v-126zM146 206q0 -59 29.5 -86.5t73.5 -27.5q49 0 83 27.5t34 86.5v108q0 59 -30.5 86.5t-79.5 27.5t-79.5 -27.5t-30.5 -86.5v-108zM41 316q0 60 19.5 100.5t49.5 66t66.5 36.5t69.5 11q20 0 39.5 -5t35.5 -13.5t27.5 -19
t17.5 -21.5v229h105v-700h-105v49q-6 -11 -17.5 -22t-27.5 -19t-35.5 -13t-39.5 -5q-33 0 -69.5 11t-66.5 36.5t-49.5 66t-19.5 100.5v112z" />
    <glyph glyph-name="dcroat" unicode="&#x111;" 
d="M85 316q0 60 19.5 100.5t49.5 66t66.5 36.5t69.5 11q20 0 39.5 -5t35.5 -13.5t27.5 -19t17.5 -21.5v120h-120v43h120v66h105v-66h70v-43h-70v-591h-105v49q-6 -11 -17.5 -22t-27.5 -19t-35.5 -13t-39.5 -5q-33 0 -69.5 11t-66.5 36.5t-49.5 66t-19.5 100.5v112zM190 206
q0 -59 29.5 -86.5t73.5 -27.5q49 0 83 27.5t34 86.5v108q0 59 -30.5 86.5t-79.5 27.5t-79.5 -27.5t-30.5 -86.5v-108z" />
    <glyph glyph-name="ebreve" unicode="&#x115;" 
d="M305 91q39 0 66.5 18t38.5 55h107q-7 -51 -29 -85t-52.5 -53.5t-65 -27.5t-65.5 -8q-34 0 -71.5 9.5t-69.5 33.5t-53 65.5t-21 105.5v112q0 64 21 105.5t53 65.5t69.5 33.5t71.5 9.5t71.5 -9.5t69.5 -33.5t53 -65.5t21 -105.5v-93h-325v-17q0 -59 30.5 -87t79.5 -28z
M305 429q-49 0 -79.5 -27.5t-30.5 -84.5v-1h220v1q-1 57 -31.5 84.5t-78.5 27.5zM275 589q-23 0 -43 9t-35 24t-24 35t-9 43h49q0 -26 18 -44t44 -18h60q26 0 44 18t18 44h49q0 -23 -9 -43t-24 -35t-35 -24t-43 -9h-60z" />
    <glyph glyph-name="ecaron" unicode="&#x11b;" 
d="M305 91q39 0 66.5 18t38.5 55h107q-7 -51 -29 -85t-52.5 -53.5t-65 -27.5t-65.5 -8q-34 0 -71.5 9.5t-69.5 33.5t-53 65.5t-21 105.5v112q0 64 21 105.5t53 65.5t69.5 33.5t71.5 9.5t71.5 -9.5t69.5 -33.5t53 -65.5t21 -105.5v-93h-325v-17q0 -59 30.5 -87t79.5 -28z
M305 429q-49 0 -79.5 -27.5t-30.5 -84.5v-1h220v1q-1 57 -31.5 84.5t-78.5 27.5zM446 705l21 -44l-162 -77l-162 77l21 44l141 -67z" />
    <glyph glyph-name="emacron" unicode="&#x113;" 
d="M305 91q39 0 66.5 18t38.5 55h107q-7 -51 -29 -85t-52.5 -53.5t-65 -27.5t-65.5 -8q-34 0 -71.5 9.5t-69.5 33.5t-53 65.5t-21 105.5v112q0 64 21 105.5t53 65.5t69.5 33.5t71.5 9.5t71.5 -9.5t69.5 -33.5t53 -65.5t21 -105.5v-93h-325v-17q0 -59 30.5 -87t79.5 -28z
M305 429q-49 0 -79.5 -27.5t-30.5 -84.5v-1h220v1q-1 57 -31.5 84.5t-78.5 27.5zM149 620v50h312v-50h-312z" />
    <glyph glyph-name="eogonek" unicode="&#x119;" 
d="M305 91q39 0 66.5 18t38.5 55h107q-8 -59 -35 -94t-63 -54q-17 -9 -35.5 -19.5t-34 -23.5t-25.5 -28t-10 -34q0 -22 13.5 -36.5t42.5 -14.5q12 0 24 3v-50q-8 -2 -15 -2h-15q-25 0 -43.5 8.5t-31 22t-18.5 30t-6 33.5t6.5 41t29.5 44q-33 0 -70.5 10t-68.5 34.5
t-51.5 65.5t-20.5 104v112q0 64 21 105.5t53 65.5t69.5 33.5t71.5 9.5t71.5 -9.5t69.5 -33.5t53 -65.5t21 -105.5v-93h-325v-17q0 -59 30.5 -87t79.5 -28zM305 429q-49 0 -79.5 -27.5t-30.5 -84.5v-1h220v1q-1 57 -31.5 84.5t-78.5 27.5z" />
    <glyph glyph-name="edotaccent" unicode="&#x117;" 
d="M305 91q39 0 66.5 18t38.5 55h107q-7 -51 -29 -85t-52.5 -53.5t-65 -27.5t-65.5 -8q-34 0 -71.5 9.5t-69.5 33.5t-53 65.5t-21 105.5v112q0 64 21 105.5t53 65.5t69.5 33.5t71.5 9.5t71.5 -9.5t69.5 -33.5t53 -65.5t21 -105.5v-93h-325v-17q0 -59 30.5 -87t79.5 -28z
M305 429q-49 0 -79.5 -27.5t-30.5 -84.5v-1h220v1q-1 57 -31.5 84.5t-78.5 27.5zM267 683h76v-76h-76v76z" />
    <glyph glyph-name="gbreve" unicode="&#x11f;" 
d="M300 -93q49 0 79.5 28t30.5 87v57q-6 -11 -17.5 -22t-27.5 -19t-35.5 -13t-39.5 -5q-33 0 -69.5 11t-66.5 36.5t-49.5 66t-19.5 100.5v82q0 60 19.5 100.5t49.5 66t66.5 36.5t69.5 11q20 0 39.5 -5t35.5 -13.5t27.5 -19t17.5 -21.5v45h105v-496q0 -64 -21 -105.5
t-53 -65.5t-69.5 -33.5t-71.5 -9.5q-32 0 -67 8.5t-66 29.5t-53 56.5t-27 89.5h106q8 -42 36.5 -62.5t70.5 -20.5zM190 236q0 -59 30.5 -86.5t79.5 -27.5t79.5 27.5t30.5 86.5v78q0 59 -30.5 86.5t-79.5 27.5t-79.5 -27.5t-30.5 -86.5v-78zM271 589q-23 0 -43 9t-35 24
t-24 35t-9 43h49q0 -26 18 -44t44 -18h60q26 0 44 18t18 44h49q0 -23 -9 -43t-24 -35t-35 -24t-43 -9h-60z" />
    <glyph glyph-name="gcircumflex" unicode="&#x11d;" 
d="M300 -93q49 0 79.5 28t30.5 87v57q-6 -11 -17.5 -22t-27.5 -19t-35.5 -13t-39.5 -5q-33 0 -69.5 11t-66.5 36.5t-49.5 66t-19.5 100.5v82q0 60 19.5 100.5t49.5 66t66.5 36.5t69.5 11q20 0 39.5 -5t35.5 -13.5t27.5 -19t17.5 -21.5v45h105v-496q0 -64 -21 -105.5
t-53 -65.5t-69.5 -33.5t-71.5 -9.5q-32 0 -67 8.5t-66 29.5t-53 56.5t-27 89.5h106q8 -42 36.5 -62.5t70.5 -20.5zM190 236q0 -59 30.5 -86.5t79.5 -27.5t79.5 27.5t30.5 86.5v78q0 59 -30.5 86.5t-79.5 27.5t-79.5 -27.5t-30.5 -86.5v-78zM301 651l-141 -67l-21 44l162 77
l162 -77l-21 -44z" />
    <glyph glyph-name="gcommaaccent" unicode="&#x123;" 
d="M300 -93q49 0 79.5 28t30.5 87v57q-6 -11 -17.5 -22t-27.5 -19t-35.5 -13t-39.5 -5q-33 0 -69.5 11t-66.5 36.5t-49.5 66t-19.5 100.5v82q0 60 19.5 100.5t49.5 66t66.5 36.5t69.5 11q20 0 39.5 -5t35.5 -13.5t27.5 -19t17.5 -21.5v45h105v-496q0 -64 -21 -105.5
t-53 -65.5t-69.5 -33.5t-71.5 -9.5q-32 0 -67 8.5t-66 29.5t-53 56.5t-27 89.5h106q8 -42 36.5 -62.5t70.5 -20.5zM190 236q0 -59 30.5 -86.5t79.5 -27.5t79.5 27.5t30.5 86.5v78q0 59 -30.5 86.5t-79.5 27.5t-79.5 -27.5t-30.5 -86.5v-78zM331.979 719.956l35.998 -36.998
l-99.9941 -98.9932l-35.9971 35.9971z" />
    <glyph glyph-name="gdotaccent" unicode="&#x121;" 
d="M300 -93q49 0 79.5 28t30.5 87v57q-6 -11 -17.5 -22t-27.5 -19t-35.5 -13t-39.5 -5q-33 0 -69.5 11t-66.5 36.5t-49.5 66t-19.5 100.5v82q0 60 19.5 100.5t49.5 66t66.5 36.5t69.5 11q20 0 39.5 -5t35.5 -13.5t27.5 -19t17.5 -21.5v45h105v-496q0 -64 -21 -105.5
t-53 -65.5t-69.5 -33.5t-71.5 -9.5q-32 0 -67 8.5t-66 29.5t-53 56.5t-27 89.5h106q8 -42 36.5 -62.5t70.5 -20.5zM190 236q0 -59 30.5 -86.5t79.5 -27.5t79.5 27.5t30.5 86.5v78q0 59 -30.5 86.5t-79.5 27.5t-79.5 -27.5t-30.5 -86.5v-78zM263 683h76v-76h-76v76z" />
    <glyph glyph-name="hbar" unicode="&#x127;" 
d="M196 0h-105v591h-70v43h70v66h105v-66h120v-43h-120v-120q6 11 17.5 21.5t27.5 19t35.5 13.5t39.5 5q33 0 69.5 -11t66.5 -36.5t49.5 -66t19.5 -100.5v-316h-105v314q0 59 -30.5 86.5t-79.5 27.5t-79.5 -27.5t-30.5 -86.5v-314z" />
    <glyph glyph-name="hcircumflex" unicode="&#x125;" 
d="M196 0h-105v700h105v-229q6 11 17.5 21.5t27.5 19t35.5 13.5t39.5 5q33 0 69.5 -11t66.5 -36.5t49.5 -66t19.5 -100.5v-316h-105v314q0 59 -30.5 86.5t-79.5 27.5t-79.5 -27.5t-30.5 -86.5v-314zM306 805l-141 -67l-21 44l162 77l162 -77l-21 -44z" />
    <glyph glyph-name="dotlessi" unicode="&#x131;" 
d="M123 516h237v-415h182v-101h-469v101h182v314h-132v101z" />
    <glyph glyph-name="ibreve" unicode="&#x12d;" 
d="M123 516h237v-415h182v-101h-469v101h182v314h-132v101zM277 589q-23 0 -43 9t-35 24t-24 35t-9 43h49q0 -26 18 -44t44 -18h60q26 0 44 18t18 44h49q0 -23 -9 -43t-24 -35t-35 -24t-43 -9h-60z" />
    <glyph glyph-name="imacron" unicode="&#x12b;" 
d="M123 516h237v-415h182v-101h-469v101h182v314h-132v101zM151 620v50h312v-50h-312z" />
    <glyph glyph-name="iogonek" unicode="&#x12f;" 
d="M123 516h237v-415h182v-101h-469v101h182v314h-132v101zM240 700h130v-130h-130v130zM542 -187q-8 -2 -15 -2h-15q-25 0 -43.5 8.5t-31 22t-18.5 30t-6 33.5q0 10 1.5 22.5t7 25t15.5 25t27 22.5h78q-35 -14 -57.5 -38t-22.5 -51q0 -22 13.5 -36.5t42.5 -14.5q12 0 24 3
v-50z" />
    <glyph glyph-name="itilde" unicode="&#x129;" 
d="M123 516h237v-415h182v-101h-469v101h182v314h-132v101zM345 588l-79 57l-107 -57l-23 43l133 71l79 -57l107 57l23 -43z" />
    <glyph glyph-name="uni1ECB" unicode="&#x1ecb;" 
d="M123 516h237v-415h182v-101h-469v101h182v314h-132v101zM240 700h130v-130h-130v130zM269 -86h76v-76h-76v76z" />
    <glyph glyph-name="dotlessj" unicode="&#x237;" 
d="M320 415h-217v101h322v-577q0 -61 -29 -92t-94 -31h-249v101h219q31 0 39.5 10t8.5 39v449z" />
    <glyph glyph-name="jcircumflex" unicode="&#x135;" 
d="M320 415h-217v101h322v-577q0 -61 -29 -92t-94 -31h-249v101h219q31 0 39.5 10t8.5 39v449zM372 651l-141 -67l-21 44l162 77l162 -77l-21 -44z" />
    <glyph glyph-name="kcommaaccent" unicode="&#x137;" 
d="M211 306l193 210h127l-186 -202l214 -314h-122l-162 238l-64 -70v-168h-105v700h105v-394zM282 -189l-36 37l100 99l36 -36z" />
    <glyph glyph-name="lacute" unicode="&#x13a;" 
d="M120 700h237v-599h182v-101h-469v101h182v498h-132v101zM177 738l-13 48l267 73l13 -48z" />
    <glyph glyph-name="lcaron" unicode="&#x13e;" 
d="M494 574l-63 -116l-44 23l57 105v114h50v-126zM120 700h237v-599h182v-101h-469v101h182v498h-132v101z" />
    <glyph glyph-name="lcommaaccent" unicode="&#x13c;" 
d="M120 700h237v-599h182v-101h-469v101h182v498h-132v101zM272 -189l-36 37l100 99l36 -36z" />
    <glyph glyph-name="ldot" unicode="&#x140;" 
d="M120 700h237v-599h182v-101h-469v101h182v498h-132v101zM464 440h76v-76h-76v76z" />
    <glyph glyph-name="lslash" unicode="&#x142;" 
d="M120 700h237v-277l53 29l21 -38l-74 -40v-273h182v-101h-469v101h182v216l-53 -29l-21 38l74 40v233h-132v101z" />
    <glyph glyph-name="eng" unicode="&#x14b;" 
d="M521 -61q0 -61 -29 -92t-94 -31h-46v101h16q31 0 39.5 10t8.5 39v348q0 59 -30.5 86.5t-79.5 27.5t-79.5 -27.5t-30.5 -86.5v-314h-105v516h105v-45q6 11 17.5 21.5t27.5 19t35.5 13.5t39.5 5q33 0 69.5 -11t66.5 -36.5t49.5 -66t19.5 -100.5v-377z" />
    <glyph glyph-name="nacute" unicode="&#x144;" 
d="M196 0h-105v516h105v-45q6 11 17.5 21.5t27.5 19t35.5 13.5t39.5 5q33 0 69.5 -11t66.5 -36.5t49.5 -66t19.5 -100.5v-316h-105v314q0 59 -30.5 86.5t-79.5 27.5t-79.5 -27.5t-30.5 -86.5v-314zM179 584l-13 48l267 73l13 -48z" />
    <glyph glyph-name="ncaron" unicode="&#x148;" 
d="M196 0h-105v516h105v-45q6 11 17.5 21.5t27.5 19t35.5 13.5t39.5 5q33 0 69.5 -11t66.5 -36.5t49.5 -66t19.5 -100.5v-316h-105v314q0 59 -30.5 86.5t-79.5 27.5t-79.5 -27.5t-30.5 -86.5v-314zM447 705l21 -44l-162 -77l-162 77l21 44l141 -67z" />
    <glyph glyph-name="ncommaaccent" unicode="&#x146;" 
d="M196 0h-105v516h105v-45q6 11 17.5 21.5t27.5 19t35.5 13.5t39.5 5q33 0 69.5 -11t66.5 -36.5t49.5 -66t19.5 -100.5v-316h-105v314q0 59 -30.5 86.5t-79.5 27.5t-79.5 -27.5t-30.5 -86.5v-314zM274 -189l-36 37l100 99l36 -36z" />
    <glyph glyph-name="oe" unicode="&#x153;" 
d="M204 530q32 0 57.5 -10t43.5 -27q18 17 43 27t57 10q67 0 109.5 -38.5t42.5 -105.5v-167h-200v-82q0 -23 13.5 -34.5t33.5 -11.5t34 11.5t14 33.5v28h105v-30q0 -67 -42.5 -105.5t-109.5 -38.5q-32 0 -57 10t-43 27q-18 -17 -43.5 -27t-57.5 -10q-67 0 -109.5 39
t-42.5 106v251q0 67 42.5 105.5t109.5 38.5zM252 383q0 23 -14 34.5t-34 11.5t-33.5 -11.5t-13.5 -34.5v-246q0 -23 13.5 -34.5t33.5 -11.5t34 11.5t14 33.5v247zM357 321h95v62q0 23 -14 34.5t-34 11.5t-33.5 -11.5t-13.5 -34.5v-62z" />
    <glyph glyph-name="obreve" unicode="&#x14f;" 
d="M414 314q0 59 -30.5 87t-79.5 28t-79.5 -28t-30.5 -87v-108q0 -59 30.5 -87t79.5 -28t79.5 28t30.5 87v108zM89 316q0 64 21 105.5t53 65.5t69.5 33.5t71.5 9.5t71.5 -9.5t69.5 -33.5t53 -65.5t21 -105.5v-112q0 -64 -21 -105.5t-53 -65.5t-69.5 -33.5t-71.5 -9.5
t-71.5 9.5t-69.5 33.5t-53 65.5t-21 105.5v112zM274 589q-23 0 -43 9t-35 24t-24 35t-9 43h49q0 -26 18 -44t44 -18h60q26 0 44 18t18 44h49q0 -23 -9 -43t-24 -35t-35 -24t-43 -9h-60z" />
    <glyph glyph-name="ohungarumlaut" unicode="&#x151;" 
d="M414 314q0 59 -30.5 87t-79.5 28t-79.5 -28t-30.5 -87v-108q0 -59 30.5 -87t79.5 -28t79.5 28t30.5 87v108zM89 316q0 64 21 105.5t53 65.5t69.5 33.5t71.5 9.5t71.5 -9.5t69.5 -33.5t53 -65.5t21 -105.5v-112q0 -64 -21 -105.5t-53 -65.5t-69.5 -33.5t-71.5 -9.5
t-71.5 9.5t-69.5 33.5t-53 65.5t-21 105.5v112zM154 602l-13 48l127 35l13 -48zM340 605l-13 48l127 35l13 -48z" />
    <glyph glyph-name="omacron" unicode="&#x14d;" 
d="M414 314q0 59 -30.5 87t-79.5 28t-79.5 -28t-30.5 -87v-108q0 -59 30.5 -87t79.5 -28t79.5 28t30.5 87v108zM89 316q0 64 21 105.5t53 65.5t69.5 33.5t71.5 9.5t71.5 -9.5t69.5 -33.5t53 -65.5t21 -105.5v-112q0 -64 -21 -105.5t-53 -65.5t-69.5 -33.5t-71.5 -9.5
t-71.5 9.5t-69.5 33.5t-53 65.5t-21 105.5v112zM148 620v50h312v-50h-312z" />
    <glyph glyph-name="uni1ECD" unicode="&#x1ecd;" 
d="M414 314q0 59 -30.5 87t-79.5 28t-79.5 -28t-30.5 -87v-108q0 -59 30.5 -87t79.5 -28t79.5 28t30.5 87v108zM89 316q0 64 21 105.5t53 65.5t69.5 33.5t71.5 9.5t71.5 -9.5t69.5 -33.5t53 -65.5t21 -105.5v-112q0 -64 -21 -105.5t-53 -65.5t-69.5 -33.5t-71.5 -9.5
t-71.5 9.5t-69.5 33.5t-53 65.5t-21 105.5v112zM266 -86h76v-76h-76v76z" />
    <glyph glyph-name="racute" unicode="&#x155;" 
d="M424 424q-49 0 -79.5 -27.5t-30.5 -86.5v-209h201v-101h-469v101h163v314h-113v101h218v-50q6 11 17.5 21.5t27.5 19t35.5 13.5t39.5 5h131v-101h-141zM178 584l-13 48l267 73l13 -48z" />
    <glyph glyph-name="rcaron" unicode="&#x159;" 
d="M424 424q-49 0 -79.5 -27.5t-30.5 -86.5v-209h201v-101h-469v101h163v314h-113v101h218v-50q6 11 17.5 21.5t27.5 19t35.5 13.5t39.5 5h131v-101h-141zM446 705l21 -44l-162 -77l-162 77l21 44l141 -67z" />
    <glyph glyph-name="rcommaaccent" unicode="&#x157;" 
d="M424 424q-49 0 -79.5 -27.5t-30.5 -86.5v-209h201v-101h-469v101h163v314h-113v101h218v-50q6 11 17.5 21.5t27.5 19t35.5 13.5t39.5 5h131v-101h-141zM249 -189l-36 37l100 99l36 -36z" />
    <glyph glyph-name="sacute" unicode="&#x15b;" 
d="M319 -10q-45 0 -84 10.5t-68.5 32.5t-47.5 55t-20 77h108q6 -38 38.5 -56t74.5 -18q17 0 32.5 2.5t27 8.5t18.5 16.5t7 26.5q0 26 -19.5 37t-45.5 17l-98 25q-26 6 -49.5 17t-41.5 29t-29 44.5t-11 63.5q0 38 14.5 66.5t39.5 47.5t59.5 28.5t73.5 9.5q84 0 137 -39
t61 -126h-110q-6 34 -32.5 49t-62.5 15q-12 0 -25 -2.5t-24 -8.5t-18 -16.5t-7 -25.5q0 -23 18.5 -33t39.5 -15l95 -24q35 -9 61.5 -21.5t44 -31.5t26.5 -45.5t9 -63.5q0 -38 -14.5 -66.5t-40 -47.5t-60.5 -28.5t-77 -9.5zM178 584l-13 48l267 73l13 -48z" />
    <glyph glyph-name="scaron" unicode="&#x161;" 
d="M319 -10q-45 0 -84 10.5t-68.5 32.5t-47.5 55t-20 77h108q6 -38 38.5 -56t74.5 -18q17 0 32.5 2.5t27 8.5t18.5 16.5t7 26.5q0 26 -19.5 37t-45.5 17l-98 25q-26 6 -49.5 17t-41.5 29t-29 44.5t-11 63.5q0 38 14.5 66.5t39.5 47.5t59.5 28.5t73.5 9.5q84 0 137 -39
t61 -126h-110q-6 34 -32.5 49t-62.5 15q-12 0 -25 -2.5t-24 -8.5t-18 -16.5t-7 -25.5q0 -23 18.5 -33t39.5 -15l95 -24q35 -9 61.5 -21.5t44 -31.5t26.5 -45.5t9 -63.5q0 -38 -14.5 -66.5t-40 -47.5t-60.5 -28.5t-77 -9.5zM446 705l21 -44l-162 -77l-162 77l21 44l141 -67z
" />
    <glyph glyph-name="scedilla" unicode="&#x15f;" 
d="M319 -10q-45 0 -84 10.5t-68.5 32.5t-47.5 55t-20 77h108q6 -38 38.5 -56t74.5 -18q17 0 32.5 2.5t27 8.5t18.5 16.5t7 26.5q0 26 -19.5 37t-45.5 17l-98 25q-26 6 -49.5 17t-41.5 29t-29 44.5t-11 63.5q0 38 14.5 66.5t39.5 47.5t59.5 28.5t73.5 9.5q84 0 137 -39
t61 -126h-110q-6 34 -32.5 49t-62.5 15q-12 0 -25 -2.5t-24 -8.5t-18 -16.5t-7 -25.5q0 -23 18.5 -33t39.5 -15l95 -24q35 -9 61.5 -21.5t44 -31.5t26.5 -45.5t9 -63.5q0 -38 -14.5 -66.5t-40 -47.5t-60.5 -28.5t-77 -9.5zM295 -134v84h50v-134h-134v50h84z" />
    <glyph glyph-name="scircumflex" unicode="&#x15d;" 
d="M319 -10q-45 0 -84 10.5t-68.5 32.5t-47.5 55t-20 77h108q6 -38 38.5 -56t74.5 -18q17 0 32.5 2.5t27 8.5t18.5 16.5t7 26.5q0 26 -19.5 37t-45.5 17l-98 25q-26 6 -49.5 17t-41.5 29t-29 44.5t-11 63.5q0 38 14.5 66.5t39.5 47.5t59.5 28.5t73.5 9.5q84 0 137 -39
t61 -126h-110q-6 34 -32.5 49t-62.5 15q-12 0 -25 -2.5t-24 -8.5t-18 -16.5t-7 -25.5q0 -23 18.5 -33t39.5 -15l95 -24q35 -9 61.5 -21.5t44 -31.5t26.5 -45.5t9 -63.5q0 -38 -14.5 -66.5t-40 -47.5t-60.5 -28.5t-77 -9.5zM305 651l-141 -67l-21 44l162 77l162 -77l-21 -44z
" />
    <glyph glyph-name="scommaaccent" unicode="&#x219;" 
d="M319 -10q-45 0 -84 10.5t-68.5 32.5t-47.5 55t-20 77h108q6 -38 38.5 -56t74.5 -18q17 0 32.5 2.5t27 8.5t18.5 16.5t7 26.5q0 26 -19.5 37t-45.5 17l-98 25q-26 6 -49.5 17t-41.5 29t-29 44.5t-11 63.5q0 38 14.5 66.5t39.5 47.5t59.5 28.5t73.5 9.5q84 0 137 -39
t61 -126h-110q-6 34 -32.5 49t-62.5 15q-12 0 -25 -2.5t-24 -8.5t-18 -16.5t-7 -25.5q0 -23 18.5 -33t39.5 -15l95 -24q35 -9 61.5 -21.5t44 -31.5t26.5 -45.5t9 -63.5q0 -38 -14.5 -66.5t-40 -47.5t-60.5 -28.5t-77 -9.5zM273 -189l-36 37l100 99l36 -36z" />
    <glyph glyph-name="tbar" unicode="&#x167;" 
d="M308 317h217v-43h-217v-124q0 -29 8.5 -39t39.5 -10h169v-101h-199q-65 0 -94 31t-29 92v151h-147v43h147v100h-147v99h147v117h105v-117h217v-99h-217v-100z" />
    <glyph glyph-name="tcaron" unicode="&#x165;" 
d="M441 603l-18 -32h-56l24 44v85h50v-97zM308 150q0 -29 8.5 -39t39.5 -10h169v-101h-199q-65 0 -94 31t-29 92v294h-147v99h147v117h105v-117h217v-99h-217v-267z" />
    <glyph glyph-name="uni0163" unicode="&#x163;" 
d="M308 150q0 -29 8.5 -39t39.5 -10h169v-101h-199q-65 0 -94 31t-29 92v294h-147v99h147v117h105v-117h217v-99h-217v-267zM332 -189l-36 37l100 99l36 -36z" />
    <glyph glyph-name="tcommaaccent" unicode="&#x21b;" 
d="M308 150q0 -29 8.5 -39t39.5 -10h169v-101h-199q-65 0 -94 31t-29 92v294h-147v99h147v117h105v-117h217v-99h-217v-267zM332 -189l-36 37l100 99l36 -36z" />
    <glyph glyph-name="ubreve" unicode="&#x16d;" 
d="M195 206q0 -59 30 -86.5t77 -27.5t77 27.5t30 86.5v310h105v-516h-105v49q-6 -11 -17.5 -22t-27.5 -19t-35.5 -13t-39.5 -5q-33 0 -68.5 12t-64.5 38t-47.5 66.5t-18.5 97.5v312h105v-310zM273 589q-23 0 -43 9t-35 24t-24 35t-9 43h49q0 -26 18 -44t44 -18h60
q26 0 44 18t18 44h49q0 -23 -9 -43t-24 -35t-35 -24t-43 -9h-60z" />
    <glyph glyph-name="uhungarumlaut" unicode="&#x171;" 
d="M195 206q0 -59 30 -86.5t77 -27.5t77 27.5t30 86.5v310h105v-516h-105v49q-6 -11 -17.5 -22t-27.5 -19t-35.5 -13t-39.5 -5q-33 0 -68.5 12t-64.5 38t-47.5 66.5t-18.5 97.5v312h105v-310zM153 602l-13 48l127 35l13 -48zM339 605l-13 48l127 35l13 -48z" />
    <glyph glyph-name="umacron" unicode="&#x16b;" 
d="M195 206q0 -59 30 -86.5t77 -27.5t77 27.5t30 86.5v310h105v-516h-105v49q-6 -11 -17.5 -22t-27.5 -19t-35.5 -13t-39.5 -5q-33 0 -68.5 12t-64.5 38t-47.5 66.5t-18.5 97.5v312h105v-310zM147 620v50h312v-50h-312z" />
    <glyph glyph-name="uogonek" unicode="&#x173;" 
d="M195 206q0 -59 30 -86.5t77 -27.5t77 27.5t30 86.5v310h105v-516h-105v49q-6 -11 -17.5 -22t-27.5 -19t-35.5 -13t-39.5 -5q-33 0 -68.5 12t-64.5 38t-47.5 66.5t-18.5 97.5v312h105v-310zM514 -187q-8 -2 -15 -2h-15q-25 0 -43.5 8.5t-31 22t-18.5 30t-6 33.5
q0 10 1.5 22.5t7 25t15.5 25t27 22.5h78q-35 -14 -57.5 -38t-22.5 -51q0 -22 13.5 -36.5t42.5 -14.5q12 0 24 3v-50z" />
    <glyph glyph-name="uring" unicode="&#x16f;" 
d="M195 206q0 -59 30 -86.5t77 -27.5t77 27.5t30 86.5v310h105v-516h-105v49q-6 -11 -17.5 -22t-27.5 -19t-35.5 -13t-39.5 -5q-33 0 -68.5 12t-64.5 38t-47.5 66.5t-18.5 97.5v312h105v-310zM190 595q0 24 9 44.5t24.5 36.5t36 25t44.5 9t44.5 -9t36.5 -25t25 -36.5
t9 -44.5t-9 -44.5t-25 -36t-36.5 -24.5t-44.5 -9t-44.5 9t-36 24.5t-24.5 36t-9 44.5zM239 595q0 -27 19 -46t46 -19t46.5 19t19.5 46t-19.5 46.5t-46.5 19.5t-46 -19.5t-19 -46.5z" />
    <glyph glyph-name="utilde" unicode="&#x169;" 
d="M195 206q0 -59 30 -86.5t77 -27.5t77 27.5t30 86.5v310h105v-516h-105v49q-6 -11 -17.5 -22t-27.5 -19t-35.5 -13t-39.5 -5q-33 0 -68.5 12t-64.5 38t-47.5 66.5t-18.5 97.5v312h105v-310zM341 588l-79 57l-107 -57l-23 43l133 71l79 -57l107 57l23 -43z" />
    <glyph glyph-name="uni1EE5" unicode="&#x1ee5;" 
d="M195 206q0 -59 30 -86.5t77 -27.5t77 27.5t30 86.5v310h105v-516h-105v49q-6 -11 -17.5 -22t-27.5 -19t-35.5 -13t-39.5 -5q-33 0 -68.5 12t-64.5 38t-47.5 66.5t-18.5 97.5v312h105v-310zM265 -86h76v-76h-76v76z" />
    <glyph glyph-name="wacute" unicode="&#x1e83;" 
d="M304 311l-74 -311h-97l-83 516h104l47 -354l58 274h90l58 -274l47 354h104l-83 -516h-97zM177 584l-13 48l267 73l13 -48z" />
    <glyph glyph-name="wcircumflex" unicode="&#x175;" 
d="M304 311l-74 -311h-97l-83 516h104l47 -354l58 274h90l58 -274l47 354h104l-83 -516h-97zM304 651l-141 -67l-21 44l162 77l162 -77l-21 -44z" />
    <glyph glyph-name="wdieresis" unicode="&#x1e85;" 
d="M304 311l-74 -311h-97l-83 516h104l47 -354l58 274h90l58 -274l47 354h104l-83 -516h-97zM148 683h76v-76h-76v76zM384 683h76v-76h-76v76z" />
    <glyph glyph-name="wgrave" unicode="&#x1e81;" 
d="M304 311l-74 -311h-97l-83 516h104l47 -354l58 274h90l58 -274l47 354h104l-83 -516h-97zM164 657l13 48l267 -73l-13 -48z" />
    <glyph glyph-name="ycircumflex" unicode="&#x177;" 
d="M313 -119q-23 -65 -114 -65h-70v101h37q19 0 30 2t17.5 8t11.5 16t11 26l14 38l-184 509h109l129 -367l129 367h109zM304 651l-141 -67l-21 44l162 77l162 -77l-21 -44z" />
    <glyph glyph-name="ygrave" unicode="&#x1ef3;" 
d="M313 -119q-23 -65 -114 -65h-70v101h37q19 0 30 2t17.5 8t11.5 16t11 26l14 38l-184 509h109l129 -367l129 367h109zM164 657l13 48l267 -73l-13 -48z" />
    <glyph glyph-name="uni0233" unicode="&#x233;" 
d="M313 -119q-23 -65 -114 -65h-70v101h37q19 0 30 2t17.5 8t11.5 16t11 26l14 38l-184 509h109l129 -367l129 367h109zM148 620v50h312v-50h-312z" />
    <glyph glyph-name="zacute" unicode="&#x17a;" 
d="M240 99h254v-99h-385v99l247 318h-240v99h371v-99zM175 584l-13 48l267 73l13 -48z" />
    <glyph glyph-name="zcaron" unicode="&#x17e;" 
d="M240 99h254v-99h-385v99l247 318h-240v99h371v-99zM443 705l21 -44l-162 -77l-162 77l21 44l141 -67z" />
    <glyph glyph-name="zdotaccent" unicode="&#x17c;" 
d="M240 99h254v-99h-385v99l247 318h-240v99h371v-99zM264 683h76v-76h-76v76z" />
    <glyph glyph-name="ellipsis" unicode="&#x2026;" 
d="M48 105h105v-105h-105v105zM251 105h105v-105h-105v105zM454 105h105v-105h-105v105z" />
    <glyph glyph-name="endash" unicode="&#x2013;" 
d="M106 258v45h396v-45h-396z" />
    <glyph glyph-name="emdash" unicode="&#x2014;" 
d="M74 258v45h459v-45h-459z" />
    <glyph glyph-name="guilsinglleft" unicode="&#x2039;" 
d="M153 258l210 210l32 -31l-179 -179l179 -179l-32 -31z" />
    <glyph glyph-name="guilsinglright" unicode="&#x203a;" 
d="M245 48l-32 31l179 179l-179 179l32 31l210 -210z" />
    <glyph glyph-name="quoteleft" unicode="&#x2018;" 
d="M283 467l-46 19l87 219l46 -19z" />
    <glyph glyph-name="quoteright" unicode="&#x2019;" 
d="M283 467l-46 19l87 219l46 -19z" />
    <glyph glyph-name="quotedblleft" unicode="&#x201c;" 
d="M395 467l-46 19l87 219l46 -19zM173 467l-46 19l87 219l46 -19z" />
    <glyph glyph-name="quotedblright" unicode="&#x201d;" 
d="M395 467l-46 19l87 219l46 -19zM173 467l-46 19l87 219l46 -19z" />
    <glyph glyph-name="quotesinglbase" unicode="&#x201a;" 
d="M283 -119l-46 19l87 219l46 -19z" />
    <glyph glyph-name="quotedblbase" unicode="&#x201e;" 
d="M395 -119l-46 19l87 219l46 -19zM172 -119l-46 19l87 219l46 -19z" />
    <glyph glyph-name="bullet" unicode="&#x2022;" 
d="M136 298q0 35 13 65.5t36 53.5t53.5 36t65.5 13t65.5 -13t53.5 -36t36 -53.5t13 -65.5t-13 -65.5t-36 -53.5t-53.5 -36t-65.5 -13t-65.5 13t-53.5 36t-36 53.5t-13 65.5z" />
    <glyph glyph-name="dagger" unicode="&#x2020;" 
d="M325 471v-558h-43v558h-176v45h176v184h43v-184h176v-45h-176z" />
    <glyph glyph-name="daggerdbl" unicode="&#x2021;" 
d="M325 97v-184h-43v184h-176v45h176v329h-176v45h176v184h43v-184h176v-45h-176v-329h176v-45h-176z" />
    <glyph glyph-name="perthousand" unicode="&#x2030;" 
d="M54 567q0 28 10.5 53.5t29.5 44t43.5 29.5t53.5 11q28 0 53.5 -11t44 -29.5t29.5 -44t11 -53.5q0 -29 -11 -53.5t-29.5 -43.5t-44 -29.5t-53.5 -10.5q-29 0 -53.5 10.5t-43.5 29.5t-29.5 43.5t-10.5 53.5zM214 86q0 19 7 36t19.5 29.5t29 19.5t35.5 7q25 0 46 -12.5
t33 -32.5q12 20 32.5 32.5t45.5 12.5q19 0 36 -7t29.5 -19.5t19.5 -29.5t7 -36t-7 -35.5t-19.5 -29t-29.5 -19.5t-36 -7q-25 0 -45.5 12t-32.5 32q-12 -20 -33 -32t-46 -12q-38 0 -64.5 26.5t-26.5 64.5zM505 585l32 -32l-434 -435l-32 32zM132 567q0 -25 16.5 -43t42.5 -18
t43 18t17 43t-17 43.5t-43 18.5t-42.5 -18.5t-16.5 -43.5zM410 86q0 -22 15 -37t37 -15t37.5 14.5t15.5 37.5t-15.5 38t-37.5 15t-37 -15.5t-15 -37.5zM253 86q0 -22 15 -37t37 -15t37.5 14.5t15.5 37.5t-15.5 38t-37.5 15t-37 -15.5t-15 -37.5z" />
    <glyph glyph-name="uni2117" unicode="&#x2117;" 
d="M525 451q0 48 -14.5 88t-43 68.5t-69.5 44.5t-94 16t-94 -16t-69.5 -44.5t-43 -68.5t-14.5 -88v-202q0 -48 14.5 -88t43 -68.5t69.5 -44.5t94 -16t94 16t69.5 44.5t43 68.5t14.5 88v202zM568 249q0 -58 -17.5 -106t-51.5 -82t-83 -52.5t-112 -18.5t-112 18.5t-83 52.5
t-51.5 82t-17.5 106v202q0 58 17.5 106t51.5 82t83 52.5t112 18.5t112 -18.5t83 -52.5t51.5 -82t17.5 -106v-202zM169 541h165q35 0 60.5 -11.5t42 -30.5t24.5 -44t8 -52t-8 -52t-24.5 -44.5t-42 -31t-60.5 -11.5h-80v-106h-85v383zM334 349q26 0 38.5 18t12.5 36
t-12.5 35.5t-38.5 17.5h-80v-107h80z" />
    <glyph glyph-name="trademark" unicode="&#x2122;" 
d="M110 622h-94v78h272v-78h-95v-265h-83v265zM320 700h73l63 -163l63 163h73v-343h-78v190l-36 -98h-44l-36 98v-190h-78v343z" />
    <glyph glyph-name="lozenge" unicode="&#x25ca;" 
d="M304 -10l-257 360l257 360l257 -360zM304 69l201 281l-201 281l-201 -281z" />
    <glyph glyph-name="afii61289" unicode="&#x2113;" 
d="M178 173l-48 -38l-22 28l70 56v331q0 42 10.5 72t29 49.5t43 29t52.5 9.5q112 0 112 -150q0 -36 -10 -77t-28.5 -81.5t-45 -78t-58.5 -65.5v-126q0 -51 18.5 -69.5t51.5 -18.5q14 0 30 2.5t33 6.5l9 -31q-26 -14 -53.5 -23t-54.5 -9q-28 0 -53 9t-44 27t-30.5 46
t-11.5 66v35zM283 307q22 24 41.5 54t34.5 63t23.5 67t8.5 66q0 35 -16 52.5t-38 17.5q-33 0 -43.5 -27.5t-10.5 -81.5v-211z" />
    <glyph glyph-name="afii61352" unicode="&#x2116;" 
d="M555 395v-71h-128v71h128zM387 0h-92l-150 482v-482h-92v700h92l150 -482v482h92v-700zM427 501q26 0 43 18t17 43t-17 43.5t-43 18.5v76q28 0 53.5 -11t44 -29.5t29.5 -44t11 -53.5q0 -29 -11 -53.5t-29.5 -43.5t-44 -29.5t-53.5 -10.5v76z" />
    <glyph glyph-name="apple" 
d="M155 26q-28 6 -38.5 24.5t-10.5 53.5v256q-27 0 -37 24q-24 10 -24 37q0 17 11 28q-17 8 -26.5 23.5t-9.5 35.5q0 19 9.5 35t26.5 24q-11 11 -11 28q0 15 9 26.5t23 13.5q6 20 23 34t40 14q24 0 44 -17q7 19 23.5 31.5t37.5 12.5q17 0 31.5 -8.5t23.5 -22.5q14 7 29 7
q19 0 35 -10t24 -27q12 12 28 12q13 0 22.5 -6.5t14.5 -17.5q22 -5 36.5 -23t14.5 -41q0 -19 -9.5 -34t-24.5 -23v-38h4q47 0 63.5 -18.5t16.5 -61.5v-215q0 -43 -16.5 -61.5t-63.5 -18.5h-4q0 -35 -10.5 -53t-38.5 -24v-26h-266v26zM421 510q-17 4 -29 17h-83
q-19 -19 -46 -19q-34 0 -53 27q-8 -3 -16 -3q-18 0 -29 11q-2 -4 -4.5 -7.5t-5.5 -7.5v-424q0 -19 7 -26.5t25 -7.5h202q18 0 25 7.5t7 26.5v406zM85 443q-10 0 -15.5 -7t-5.5 -15q0 -9 6 -15t15 -6q0 -9 6 -15t15 -6v147q19 0 32 12t15 30v4h19q0 -10 6.5 -15.5t15.5 -5.5
t15 6t6 15h19q0 -8 -2.5 -14.5t-6.5 -11.5q13 -19 38 -19q20 0 33.5 13t13.5 33h82q0 -20 13 -33t33 -13t33.5 13t13.5 33t-13.5 33.5t-33.5 13.5q0 9 -6.5 15.5t-15.5 6.5q-8 0 -14.5 -5.5t-6.5 -16.5h-19q0 20 -13.5 33.5t-33.5 13.5q-15 0 -26.5 -8.5t-16.5 -21.5
q12 -4 20 -14t8 -24h-19q0 9 -6.5 15t-15.5 6t-15 -6t-6 -15h-19q0 15 9.5 26t23.5 13q6 19 19 30q-6 11 -17 17t-23 6q-19 0 -32 -13t-14 -32q7 -16 7 -29h-19q0 20 -13.5 33.5t-33.5 13.5q-15 0 -26.5 -8t-16.5 -22q13 -4 21 -14.5t8 -24.5h-19q0 9 -6.5 15.5t-15.5 6.5
t-15 -6.5t-6 -15.5q0 -19 17 -21h4v-19h-4q-18 -2 -30 -15t-12 -32t12 -32t30 -14h4v-19zM505 398q0 19 -7 26.5t-24 7.5h-4v-283h4q17 0 24 7.5t7 26.5v215zM196 478h15v-375h-15v375zM364 478h15v-375h-15v375zM308 478h15v-375h-15v375zM252 478h15v-375h-15v375z" />
    <glyph glyph-name="estimated" unicode="&#x212e;" 
d="M303 609q-35 0 -67.5 -13t-59.5 -36q-12 -10 -12 -25v-191q0 -10 10 -10h260q10 0 10 10v191q0 15 -12 25q-28 23 -60 36t-69 13zM313 -10q-61 0 -112.5 26t-89 70.5t-58.5 104t-21 126.5q0 63 21 122t57.5 104.5t86 73t106.5 27.5q58 0 107.5 -27t86.5 -72.5t58 -104.5
t21 -123v-17h-402q-10 0 -10 -10v-191q0 -15 12 -25q27 -23 60.5 -36t76.5 -13q51 0 90 19.5t69 49.5h50q-38 -45 -90 -74.5t-119 -29.5z" />
    <glyph glyph-name="minus" unicode="&#x2212;" 
d="M106 258v45h396v-45h-396z" />
    <glyph glyph-name="lessequal" unicode="&#x2264;" 
d="M106 0v45h396v-45h-396zM106 299v44l396 180v-48l-338 -154l338 -154v-48z" />
    <glyph glyph-name="greaterequal" unicode="&#x2265;" 
d="M106 0v45h396v-45h-396zM106 119v48l338 154l-338 154v48l396 -180v-44z" />
    <glyph glyph-name="notequal" unicode="&#x2260;" 
d="M261 155l-65 -117l-37 22l53 95h-106v45h396v-45h-241zM396 395h106v-45h-396v45h240l66 117l37 -22z" />
    <glyph glyph-name="approxequal" unicode="&#x2248;" 
d="M354 310l-102 73l-135 -73l-21 38l159 86l102 -73l135 73l21 -38zM354 116l-102 73l-135 -73l-21 38l159 86l102 -73l135 73l21 -38z" />
    <glyph glyph-name="partialdiff" unicode="&#x2202;" 
d="M482 552q0 50 -30 81.5t-98 31.5q-33 0 -63 -11t-54.5 -31t-42 -49.5t-23.5 -65.5l-1 -8h-45l1 8q10 56 34.5 94.5t57.5 62.5t71 34.5t75 10.5q30 0 59 -8t52 -25.5t37.5 -46t14.5 -69.5q0 -12 -1 -25.5t-4 -27.5l-61 -316q-10 -56 -34.5 -94.5t-57.5 -62.5t-71 -34.5
t-75 -10.5q-30 0 -59 8t-52 25.5t-37.5 46t-14.5 69.5q0 21 4 43.5t8 45.5q10 56 34.5 94.5t57 62.5t70.5 34.5t75 10.5q50 0 87.5 -21.5t51.5 -53.5q0 1 1.5 8.5t3.5 18.5t4.5 24.5t5.5 27.5l14 74q2 13 3.5 23t1.5 21zM233 35q33 0 63 11t54.5 31t42 49.5t23.5 65.5
q4 21 8 40.5t4 39.5q0 50 -30.5 81.5t-98.5 31.5q-33 0 -63 -11t-54.5 -31t-41.5 -49.5t-23 -65.5q-4 -21 -8 -40.5t-4 -39.5q0 -50 30 -81.5t98 -31.5z" />
    <glyph glyph-name="product" unicode="&#x220f;" 
d="M83 700h442v-700h-55v647h-332v-647h-55v700z" />
    <glyph glyph-name="radical" unicode="&#x221a;" 
d="M438 700h102v-42h-69l-194 -658h-64l-77 258h-68v42h102l75 -253z" />
    <glyph glyph-name="summation" unicode="&#x2211;" 
d="M369 258l-321 400v42h512v-42h-454l321 -400l-321 -400h454v-42h-512v42z" />
    <glyph glyph-name="integral" unicode="&#x222b;" 
d="M326 -81q0 -25 -4.5 -44t-16.5 -32t-33 -20t-53 -7h-118v42h118q40 0 52 15t12 46v678q0 25 4.5 44t16.5 32t33 20t53 7h118v-42h-118q-40 0 -52 -15t-12 -46v-678z" />
    <glyph glyph-name="infinity" unicode="&#x221e;" 
d="M74 336q0 26 9.5 49t26.5 40t40 27t49 10q32 0 59.5 -15t44.5 -40q17 25 44 40t60 15q26 0 49 -10t40 -27t27 -40t10 -49t-10 -49t-27 -40t-40 -26.5t-49 -9.5q-33 0 -60 14.5t-44 39.5q-17 -25 -44.5 -39.5t-59.5 -14.5q-26 0 -49 9.5t-40 26.5t-26.5 40t-9.5 49z
M325 336q0 -35 23.5 -59t58.5 -24t59 24t24 59q0 17 -6.5 32.5t-17.5 27t-26 18t-33 6.5q-35 0 -58 -23.5t-24 -57.5v-3zM117 336q0 -35 23.5 -59t58.5 -24t59 24t24 59v3q-2 34 -25 57.5t-58 23.5t-58.5 -24.5t-23.5 -59.5z" />
    <glyph glyph-name="Delta" unicode="&#x394;" 
d="M41 0l263 710l263 -710h-526zM304 559l-187 -505h374z" />
    <glyph glyph-name="Delta" unicode="&#x2206;" 
d="M41 0l263 710l263 -710h-526zM304 559l-187 -505h374z" />
    <glyph glyph-name="Omega" unicode="&#x3a9;" 
d="M103 54h96v60q-54 27 -85 81t-31 132v146q0 55 16.5 99t46 74.5t70 47t88.5 16.5t88.5 -16.5t70 -47t46 -74.5t16.5 -99v-146q0 -77 -31.5 -131.5t-84.5 -81.5v-60h96v-54h-151v150q51 14 83.5 58t32.5 119v146q0 46 -13 80.5t-35.5 57.5t-53 34t-64.5 11t-64.5 -11
t-53 -34t-35.5 -57.5t-13 -80.5v-146q0 -75 32.5 -119t83.5 -58v-150h-151v54z" />
    <glyph glyph-name="Omega" unicode="&#x2126;" 
d="M103 54h96v60q-54 27 -85 81t-31 132v146q0 55 16.5 99t46 74.5t70 47t88.5 16.5t88.5 -16.5t70 -47t46 -74.5t16.5 -99v-146q0 -77 -31.5 -131.5t-84.5 -81.5v-60h96v-54h-151v150q51 14 83.5 58t32.5 119v146q0 46 -13 80.5t-35.5 57.5t-53 34t-64.5 11t-64.5 -11
t-53 -34t-35.5 -57.5t-13 -80.5v-146q0 -75 32.5 -119t83.5 -58v-150h-151v54z" />
    <glyph glyph-name="pi" unicode="&#x3c0;" 
d="M33 465v51h542v-51h-73v-465h-53v465h-290v-465h-53v465h-73z" />
    <glyph glyph-name="Euro" unicode="&#x20ac;" 
d="M80 463q0 57 18 102.5t51 77.5t79.5 49.5t102.5 17.5q54 0 98.5 -16t77 -45.5t52 -71.5t22.5 -94h-105q-3 32 -17 56t-34 39.5t-44.5 23t-49.5 7.5q-27 0 -53 -9t-47 -27t-33.5 -45.5t-12.5 -64.5v-37h241v-43h-241v-65h241v-43h-241v-38q0 -37 12.5 -64.5t33.5 -45.5
t47 -27t53 -9q25 0 49.5 7.5t44.5 23t34 39.5t17 56h105q-3 -52 -22.5 -94t-52 -71.5t-77 -45.5t-98.5 -16q-56 0 -102.5 17.5t-79.5 49.5t-51 77.5t-18 102.5v38h-70v43h70v65h-70v43h70v37z" />
    <glyph glyph-name="fi" unicode="&#xfb01;" 
d="M213 0h-105v415h-73v101h73v61q0 61 29 92t94 31h109v-101h-79q-31 0 -39.5 -10t-8.5 -39v-34h325v-516h-105v415h-220v-415zM418 700h130v-130h-130v130z" />
    <glyph glyph-name="f_i" 
d="M213 0h-105v415h-73v101h73v61q0 61 29 92t94 31h109v-101h-79q-31 0 -39.5 -10t-8.5 -39v-34h325v-516h-105v415h-220v-415zM418 700h130v-130h-130v130z" />
    <glyph glyph-name="fl" unicode="&#xfb02;" 
d="M538 700v-700h-105v599h-172q-31 0 -39.5 -10t-8.5 -39v-34h127v-101h-127v-415h-105v415h-73v101h73v61q0 61 29 92t94 31h307z" />
    <glyph glyph-name="f_l" 
d="M538 700v-700h-105v599h-172q-31 0 -39.5 -10t-8.5 -39v-34h127v-101h-127v-415h-105v415h-73v101h73v61q0 61 29 92t94 31h307z" />
    <glyph glyph-name="breve" unicode="&#x2d8;" 
d="M274 589q-23 0 -43 9t-35 24t-24 35t-9 43h49q0 -26 18 -44t44 -18h60q26 0 44 18t18 44h49q0 -23 -9 -43t-24 -35t-35 -24t-43 -9h-60z" />
    <glyph glyph-name="caron" unicode="&#x2c7;" 
d="M445 705l21 -44l-162 -77l-162 77l21 44l141 -67z" />
    <glyph glyph-name="circumflex" unicode="&#x2c6;" 
d="M304 651l-141 -67l-21 44l162 77l162 -77l-21 -44z" />
    <glyph glyph-name="dotaccent" unicode="&#x2d9;" 
d="M266 683h76v-76h-76v76z" />
    <glyph glyph-name="hungarumlaut" unicode="&#x2dd;" 
d="M154 602l-13 48l127 35l13 -48zM340 605l-13 48l127 35l13 -48z" />
    <glyph glyph-name="commaaccent" 
d="M272 -189l-36 37l100 99l36 -36z" />
    <glyph glyph-name="ogonek" unicode="&#x2db;" 
d="M329 -187q-8 -2 -15 -2h-15q-25 0 -43.5 8.5t-31 22t-18.5 30t-6 33.5q0 10 1.5 22.5t7 25t15.5 25t27 22.5h78q-35 -14 -57.5 -38t-22.5 -51q0 -22 13.5 -36.5t42.5 -14.5q12 0 24 3v-50z" />
    <glyph glyph-name="ring" unicode="&#x2da;" 
d="M190 595q0 24 9 44.5t24.5 36.5t36 25t44.5 9t44.5 -9t36.5 -25t25 -36.5t9 -44.5t-9 -44.5t-25 -36t-36.5 -24.5t-44.5 -9t-44.5 9t-36 24.5t-24.5 36t-9 44.5zM239 595q0 -27 19 -46t46 -19t46.5 19t19.5 46t-19.5 46.5t-46.5 19.5t-46 -19.5t-19 -46.5z" />
    <glyph glyph-name="tilde" unicode="&#x2dc;" 
d="M342 588l-79 57l-107 -57l-23 43l133 71l79 -57l107 57l23 -43z" />
    <glyph glyph-name="uni032C" unicode="&#x32c;" 
d="M445 -5l21 -44l-162 -77l-162 77l21 44l141 -67z" />
    <glyph glyph-name="one.case" 
d="M95 526l172 174h107v-594h182v-106h-471v106h182v442l-98 -100z" />
    <glyph glyph-name="two.case" 
d="M159 334q-32 30 -50.5 69.5t-18.5 87.5q0 45 17 85t46 70t68.5 47t84.5 17t84.5 -17t68.5 -47t46 -70t17 -85q0 -29 -5 -53t-16 -46t-29 -44t-43 -48l-193 -194h286v-106h-432v106l259 270q35 36 50.5 61.5t15.5 54.5q0 23 -8 43.5t-22 35.5t-34.5 24t-44.5 9t-44.5 -9
t-34.5 -24t-22 -35.5t-8 -43.5q0 -47 35 -80z" />
    <glyph glyph-name="three.case" 
d="M295 425q40 0 65 26.5t25 62.5t-25 63t-65 27t-64.5 -27t-24.5 -63h-107q0 40 15.5 76t42 62.5t62 42t76.5 15.5t77 -15.5t62.5 -42t42 -62.5t15.5 -76q0 -42 -16 -77t-43 -61q36 -30 57 -73t21 -94q0 -45 -16.5 -85t-46 -70t-68.5 -47t-84 -17t-85 17t-69 47t-46 70
t-17 85h107q0 -23 8 -43.5t22 -36t34.5 -24.5t44.5 -9t44.5 9t34.5 24.5t22 36t8 43.5q0 22 -8 42.5t-22 36.5t-34.5 25t-44.5 9v103v0z" />
    <glyph glyph-name="four.case" 
d="M357 0v169h-311v108l315 428l83 -64l-270 -366h183v144h107v-144h73v-106h-73v-169h-107z" />
    <glyph glyph-name="five.case" 
d="M302 -10q-45 0 -85 17t-69 47t-46 70t-17 85h107q0 -23 8 -43.5t22 -36t34.5 -24.5t44.5 -9t44.5 9t34.5 24t22 35t8 43v29q0 22 -8 42.5t-22 35.5t-34.5 24t-44.5 9q-31 0 -55 -16t-38 -40l-114 85l71 324h308v-106h-222l-39 -167q16 11 41.5 18.5t52.5 7.5
q43 0 81.5 -17t67 -47t45.5 -70t17 -85v-25q0 -45 -16.5 -85t-46 -70t-68.5 -47t-84 -17z" />
    <glyph glyph-name="six.case" 
d="M291 -10q-45 0 -84.5 17t-68.5 47t-46 70t-17 85v25q0 38 11.5 71.5t32.5 62.5l248 337l84 -64l-142 -190q35 -3 66 -17q29 -12 53.5 -32.5t42 -46.5t27 -57t9.5 -64v-25q0 -45 -17 -85t-46 -70t-68.5 -47t-84.5 -17zM291 96q24 0 44.5 9t34.5 24t22 35t8 43v29
q0 22 -8 42.5t-22 35.5t-34.5 24t-44.5 9t-44.5 -9t-34.5 -24t-22 -35.5t-8 -42.5v-29q0 -23 8 -43t22 -35t34.5 -24t44.5 -9z" />
    <glyph glyph-name="seven.case" 
d="M91 700h426v-106l-218 -599l-98 37l206 562h-209v-108h-107v214z" />
    <glyph glyph-name="eight.case" 
d="M304 -10q-45 0 -84 17t-68.5 46.5t-46.5 69.5t-17 85q0 51 21.5 95t59.5 74q-29 26 -44.5 61t-15.5 77q0 40 15 76t41.5 62t62 41.5t76.5 15.5t76.5 -15.5t62 -41.5t42 -62t15.5 -76q0 -42 -16 -77t-45 -61q38 -30 59.5 -74t21.5 -95q0 -45 -17 -85t-46.5 -69.5
t-68.5 -46.5t-84 -17zM304 97q24 0 44 9t34.5 24t22.5 35.5t8 43.5t-8 43.5t-22.5 36t-34.5 24.5t-44 9t-44 -9t-34.5 -24.5t-22.5 -36t-8 -43.5t8 -43.5t22.5 -35.5t34.5 -24t44 -9zM304 425q40 0 65 26.5t25 62.5t-25 63t-65 27t-64.5 -27t-24.5 -63t24.5 -62.5
t64.5 -26.5z" />
    <glyph glyph-name="nine.case" 
d="M157 59l142 190q-35 3 -66 17q-29 12 -53.5 32.5t-42 46.5t-27 57t-9.5 64v25q0 45 17 85t46 70t68.5 47t84.5 17t84.5 -17t68.5 -47t46 -70t17 -85v-25q0 -38 -11.5 -71.5t-32.5 -62.5l-248 -337zM317 353q24 0 44.5 9t34.5 24t22 35t8 43v29q0 22 -8 42.5t-22 35.5
t-34.5 24t-44.5 9t-44.5 -9t-34.5 -24t-22 -35.5t-8 -42.5v-29q0 -23 8 -43t22 -35t34.5 -24t44.5 -9z" />
    <glyph glyph-name="zero.case" 
d="M304 -10q-45 0 -84.5 17t-68.5 47t-46 70t-17 85v282q0 45 17 85t46 70t68.5 47t84.5 17t84.5 -17t68.5 -47t46 -70t17 -85v-282q0 -45 -17 -85t-46 -70t-68.5 -47t-84.5 -17zM304 96q24 0 44.5 9t34.5 24t22 35t8 43v221l-218 -219v-2q0 -23 8 -43t22 -35t34.5 -24
t44.5 -9zM195 273l218 219v1q0 22 -8 42.5t-22 35.5t-34.5 24t-44.5 9t-44.5 -9t-34.5 -24t-22 -35.5t-8 -42.5v-220z" />
    <glyph glyph-name="uni21B2" unicode="&#x21b2;" 
d="M341 20l-30 -30l-286 285l286 285l30 -30l-234 -233h374v403h44v-447h-418z" />
    <glyph glyph-name="uni21B3" unicode="&#x21b3;" 
d="M127 297h374l-234 233l30 30l286 -285l-286 -285l-30 30l234 233h-418v447h44v-403z" />
    <glyph glyph-name="uni21B0" unicode="&#x21b0;" 
d="M341 20l-30 -30l-286 285l286 285l30 -30l-234 -233h418v-481h-44v437h-374z" />
    <glyph glyph-name="uni21B1" unicode="&#x21b1;" 
d="M127 -184h-44v481h418l-234 233l30 30l286 -285l-286 -285l-30 30l234 233h-374v-437z" />
    <glyph glyph-name="uni2190" unicode="&#x2190;" 
d="M341 20l-30 -30l-286 285l286 285l30 -30l-234 -233h476v-44h-476z" />
    <glyph glyph-name="uni2191" unicode="&#x2191;" 
d="M326 628v-628h-44v628l-233 -234l-30 30l285 286l285 -286l-30 -30z" />
    <glyph glyph-name="uni2192" unicode="&#x2192;" 
d="M501 253h-476v44h476l-234 233l30 30l286 -285l-286 -285l-30 30z" />
    <glyph glyph-name="uni2193" unicode="&#x2193;" 
d="M559 316l30 -30l-285 -286l-285 286l30 30l233 -234v628h44v-628z" />
    <glyph glyph-name="uni2196" unicode="&#x2196;" 
d="M131 473l452 -452l-31 -31l-453 452v-330h-43v404h405v-43h-330z" />
    <glyph glyph-name="uni2197" unicode="&#x2197;" 
d="M147 473v43h405v-404h-43v330l-453 -452l-31 31l452 452h-330z" />
    <glyph glyph-name="uni2198" unicode="&#x2198;" 
d="M477 43l-452 452l31 31l453 -452v330h43v-404h-405v43h330z" />
    <glyph glyph-name="uni2199" unicode="&#x2199;" 
d="M461 43v-43h-405v404h43v-330l453 452l31 -31l-452 -452h330z" />
    <glyph glyph-name="uni25A0" unicode="&#x25a0;" 
d="M46 516h516v-516h-516v516z" />
    <glyph glyph-name="uni25A1" unicode="&#x25a1;" 
d="M46 516h516v-516h-516v516zM90 44h428v428h-428v-428z" />
    <glyph glyph-name="uni25CB" unicode="&#x25cb;" 
d="M34 260q0 56 21 105t58 86t86 58t105 21t105 -21t86 -58t58 -86t21 -105t-21 -105t-58 -86t-86 -58t-105 -21t-105 21t-86 58t-58 86t-21 105zM77 260q0 -47 18 -88.5t48.5 -72t72 -48.5t88.5 -18t88.5 18t72 48.5t48.5 72t18 88.5t-18 88.5t-48.5 72t-72 48.5t-88.5 18
t-88.5 -18t-72 -48.5t-48.5 -72t-18 -88.5z" />
    <glyph glyph-name="uni25CF" unicode="&#x25cf;" 
d="M34 260q0 56 21 105t58 86t86 58t105 21t105 -21t86 -58t58 -86t21 -105t-21 -105t-58 -86t-86 -58t-105 -21t-105 21t-86 58t-58 86t-21 105z" />
    <glyph glyph-name="onethird" unicode="&#x2153;" 
d="M40 635l65 65h42v-221h67v-40h-177v40h68v164l-36 -37zM505 585l32 -32l-434 -435l-32 32zM469 157h3q13 1 21 11t8 23q0 14 -9 23.5t-23 9.5t-23 -9.5t-9 -23.5h-42q0 31 21.5 52.5t52.5 21.5t52.5 -21.5t21.5 -52.5q0 -16 -6 -29t-16 -23q29 -24 29 -62
q0 -34 -23.5 -57.5t-57.5 -23.5t-57.5 23.5t-23.5 57.5h42q0 -17 11 -28.5t28 -11.5t28 11.5t11 28.5t-10 28.5t-26 13.5h-3v38z" />
    <glyph glyph-name="uni2155" unicode="&#x2155;" 
d="M40 635l65 65h42v-221h67v-40h-177v40h68v164l-36 -37zM505 585l32 -32l-434 -435l-32 32zM464 -4q-34 0 -57.5 23.5t-23.5 57.5h42q0 -17 11 -28.5t28 -11.5q18 0 28.5 11.5t10.5 28.5v11q0 17 -10.5 29t-28.5 12q-11 0 -19.5 -6t-13.5 -14l-44 34l26 118h116v-40h-83
l-13 -61q5 3 14 6t19 3q16 0 30.5 -6.5t25 -17.5t17 -25.5t6.5 -31.5v-11q0 -34 -23.5 -57.5t-57.5 -23.5z" />
    <glyph glyph-name="uni2159" unicode="&#x2159;" 
d="M40 635l65 65h42v-221h67v-40h-177v40h68v164l-36 -37zM505 585l32 -32l-434 -435l-32 32zM456 -4q-34 0 -58 23.5t-24 57.5v11q0 27 17 49l92 126l33 -24l-52 -70q29 -2 51 -25.5t22 -55.5v-11q0 -34 -24 -57.5t-57 -23.5zM456 37q17 0 28 11.5t11 28.5v11q0 17 -11 29
t-28 12q-18 0 -29 -12t-11 -29v-11q0 -17 11 -28.5t29 -11.5z" />
    <glyph glyph-name="oneeighth" unicode="&#x215b;" 
d="M40 635l65 65h42v-221h67v-40h-177v40h68v164l-36 -37zM505 585l32 -32l-434 -435l-32 32zM474 -4q-34 0 -57.5 23.5t-23.5 57.5q0 38 29 62q-21 21 -21 52t21 52.5t52 21.5t52.5 -21.5t21.5 -52.5t-21 -52q29 -24 29 -62q0 -34 -24 -57.5t-58 -23.5zM474 37
q17 0 28.5 11.5t11.5 28.5t-11.5 29t-28.5 12t-28 -12t-11 -29t11 -28.5t28 -11.5zM474 158q14 0 23 9.5t9 23.5t-9 23.5t-23 9.5t-22.5 -9.5t-8.5 -23.5t8.5 -23.5t22.5 -9.5z" />
    <glyph glyph-name="twothirds" unicode="&#x2154;" 
d="M63 564q-11 11 -18 26t-7 33q0 34 23.5 57.5t57.5 23.5t57.5 -23.5t23.5 -57.5q0 -22 -7.5 -37t-27.5 -35l-70 -72h105v-40h-162v40l96 99q13 13 18.5 23t5.5 22q0 17 -10.5 28.5t-28.5 11.5q-17 0 -28 -11.5t-11 -28.5q0 -18 12 -30zM505 585l32 -32l-434 -435l-32 32z
M469 157h3q13 1 21 11t8 23q0 14 -9 23.5t-23 9.5t-23 -9.5t-9 -23.5h-42q0 31 21.5 52.5t52.5 21.5t52.5 -21.5t21.5 -52.5q0 -16 -6 -29t-16 -23q29 -24 29 -62q0 -34 -23.5 -57.5t-57.5 -23.5t-57.5 23.5t-23.5 57.5h42q0 -17 11 -28.5t28 -11.5t28 11.5t11 28.5
t-10 28.5t-26 13.5h-3v38z" />
    <glyph glyph-name="uni2156" unicode="&#x2156;" 
d="M63 564q-11 11 -18 26t-7 33q0 34 23.5 57.5t57.5 23.5t57.5 -23.5t23.5 -57.5q0 -22 -7.5 -37t-27.5 -35l-70 -72h105v-40h-162v40l96 99q13 13 18.5 23t5.5 22q0 17 -10.5 28.5t-28.5 11.5q-17 0 -28 -11.5t-11 -28.5q0 -18 12 -30zM505 585l32 -32l-434 -435l-32 32z
M464 -4q-34 0 -57.5 23.5t-23.5 57.5h42q0 -17 11 -28.5t28 -11.5q18 0 28.5 11.5t10.5 28.5v11q0 17 -10.5 29t-28.5 12q-11 0 -19.5 -6t-13.5 -14l-44 34l26 118h116v-40h-83l-13 -61q5 3 14 6t19 3q16 0 30.5 -6.5t25 -17.5t17 -25.5t6.5 -31.5v-11q0 -34 -23.5 -57.5
t-57.5 -23.5z" />
    <glyph glyph-name="uni2157" unicode="&#x2157;" 
d="M134 596h3q13 1 21 11t8 23q0 14 -9 23.5t-23 9.5t-23 -9.5t-9 -23.5h-42q0 31 21.5 52.5t52.5 21.5t52.5 -21.5t21.5 -52.5q0 -16 -6 -29t-16 -23q29 -24 29 -62q0 -34 -23.5 -57.5t-57.5 -23.5t-57.5 23.5t-23.5 57.5h42q0 -17 11 -28.5t28 -11.5t28 11.5t11 28.5
t-10 28.5t-26 13.5h-3v38zM505 585l32 -32l-434 -435l-32 32zM464 -4q-34 0 -57.5 23.5t-23.5 57.5h42q0 -17 11 -28.5t28 -11.5q18 0 28.5 11.5t10.5 28.5v11q0 17 -10.5 29t-28.5 12q-11 0 -19.5 -6t-13.5 -14l-44 34l26 118h116v-40h-83l-13 -61q5 3 14 6t19 3
q16 0 30.5 -6.5t25 -17.5t17 -25.5t6.5 -31.5v-11q0 -34 -23.5 -57.5t-57.5 -23.5z" />
    <glyph glyph-name="threeeighths" unicode="&#x215c;" 
d="M134 596h3q13 1 21 11t8 23q0 14 -9 23.5t-23 9.5t-23 -9.5t-9 -23.5h-42q0 31 21.5 52.5t52.5 21.5t52.5 -21.5t21.5 -52.5q0 -16 -6 -29t-16 -23q29 -24 29 -62q0 -34 -23.5 -57.5t-57.5 -23.5t-57.5 23.5t-23.5 57.5h42q0 -17 11 -28.5t28 -11.5t28 11.5t11 28.5
t-10 28.5t-26 13.5h-3v38zM505 585l32 -32l-434 -435l-32 32zM474 -4q-34 0 -57.5 23.5t-23.5 57.5q0 38 29 62q-21 21 -21 52t21 52.5t52 21.5t52.5 -21.5t21.5 -52.5t-21 -52q29 -24 29 -62q0 -34 -24 -57.5t-58 -23.5zM474 37q17 0 28.5 11.5t11.5 28.5t-11.5 29
t-28.5 12t-28 -12t-11 -29t11 -28.5t28 -11.5zM474 158q14 0 23 9.5t9 23.5t-9 23.5t-23 9.5t-22.5 -9.5t-8.5 -23.5t8.5 -23.5t22.5 -9.5z" />
    <glyph glyph-name="uni2158" unicode="&#x2158;" 
d="M157 439v63h-115v40l116 160l33 -24l-99 -136h65v53h42v-53h27v-40h-27v-63h-42zM505 585l32 -32l-434 -435l-32 32zM464 -4q-34 0 -57.5 23.5t-23.5 57.5h42q0 -17 11 -28.5t28 -11.5q18 0 28.5 11.5t10.5 28.5v11q0 17 -10.5 29t-28.5 12q-11 0 -19.5 -6t-13.5 -14
l-44 34l26 118h116v-40h-83l-13 -61q5 3 14 6t19 3q16 0 30.5 -6.5t25 -17.5t17 -25.5t6.5 -31.5v-11q0 -34 -23.5 -57.5t-57.5 -23.5z" />
    <glyph glyph-name="uni215A" unicode="&#x215a;" 
d="M144 435q-34 0 -57.5 23.5t-23.5 57.5h42q0 -17 11 -28.5t28 -11.5q18 0 28.5 11.5t10.5 28.5v11q0 17 -10.5 29t-28.5 12q-11 0 -19.5 -6t-13.5 -14l-44 34l26 118h116v-40h-83l-13 -61q5 3 14 6t19 3q16 0 30.5 -6.5t25 -17.5t17 -25.5t6.5 -31.5v-11
q0 -34 -23.5 -57.5t-57.5 -23.5zM505 585l32 -32l-434 -435l-32 32zM456 -4q-34 0 -58 23.5t-24 57.5v11q0 27 17 49l92 126l33 -24l-52 -70q29 -2 51 -25.5t22 -55.5v-11q0 -34 -24 -57.5t-57 -23.5zM456 37q17 0 28 11.5t11 28.5v11q0 17 -11 29t-28 12q-18 0 -29 -12
t-11 -29v-11q0 -17 11 -28.5t29 -11.5z" />
    <glyph glyph-name="fiveeighths" unicode="&#x215d;" 
d="M144 435q-34 0 -57.5 23.5t-23.5 57.5h42q0 -17 11 -28.5t28 -11.5q18 0 28.5 11.5t10.5 28.5v11q0 17 -10.5 29t-28.5 12q-11 0 -19.5 -6t-13.5 -14l-44 34l26 118h116v-40h-83l-13 -61q5 3 14 6t19 3q16 0 30.5 -6.5t25 -17.5t17 -25.5t6.5 -31.5v-11
q0 -34 -23.5 -57.5t-57.5 -23.5zM505 585l32 -32l-434 -435l-32 32zM474 -4q-34 0 -57.5 23.5t-23.5 57.5q0 38 29 62q-21 21 -21 52t21 52.5t52 21.5t52.5 -21.5t21.5 -52.5t-21 -52q29 -24 29 -62q0 -34 -24 -57.5t-58 -23.5zM474 37q17 0 28.5 11.5t11.5 28.5t-11.5 29
t-28.5 12t-28 -12t-11 -29t11 -28.5t28 -11.5zM474 158q14 0 23 9.5t9 23.5t-9 23.5t-23 9.5t-22.5 -9.5t-8.5 -23.5t8.5 -23.5t22.5 -9.5z" />
    <glyph glyph-name="seveneighths" unicode="&#x215e;" 
d="M77 700h160v-40l-80 -223l-38 14l75 209h-75v-39h-42v79zM505 585l32 -32l-434 -435l-32 32zM474 -4q-34 0 -57.5 23.5t-23.5 57.5q0 38 29 62q-21 21 -21 52t21 52.5t52 21.5t52.5 -21.5t21.5 -52.5t-21 -52q29 -24 29 -62q0 -34 -24 -57.5t-58 -23.5zM474 37
q17 0 28.5 11.5t11.5 28.5t-11.5 29t-28.5 12t-28 -12t-11 -29t11 -28.5t28 -11.5zM474 158q14 0 23 9.5t9 23.5t-9 23.5t-23 9.5t-22.5 -9.5t-8.5 -23.5t8.5 -23.5t22.5 -9.5z" />
    <glyph glyph-name="uni215F" unicode="&#x215f;" horiz-adv-x="0" 
d="M40 635l65 65h42v-221h67v-40h-177v40h68v164l-36 -37zM505 585l32 -32l-434 -435l-32 32z" />
    <glyph glyph-name="fraction" unicode="&#x2044;" horiz-adv-x="-608" 
d="M-103 585l32 -32l-434 -435l-32 32z" />
    <glyph glyph-name="a.superior" 
d="M274 395q-57 0 -85 25t-28 64q0 35 14 56t37 32q28 14 65 18t76 8q-4 13 -10 19q-15 17 -42 17q-19 0 -31 -8t-17 -20h-86q5 20 14.5 38.5t25.5 32.5t39 22.5t55 8.5q39 0 65.5 -12t42.5 -32t23 -46t7 -54v-163h-85v37q-8 -17 -25.5 -30t-54.5 -13zM288 467q32 0 49 17.5
t17 38.5v6q-14 -1 -28.5 -2t-27 -2.5t-22 -3t-13.5 -2.5q-11 -6 -14 -11t-3 -13t8 -18t34 -10z" />
    <glyph glyph-name="b.superior" 
d="M324 395q-18 0 -38.5 9t-31.5 25v-28h-85v406h85v-133q11 17 31.5 25.5t38.5 8.5q25 0 47 -8.5t38.5 -25.5t26 -42t9.5 -57v-47q0 -32 -9.5 -57t-26 -42t-38.5 -25.5t-47 -8.5zM307 479q18 0 35.5 12t17.5 41v39q0 29 -17.5 41.5t-35.5 12.5q-19 0 -36 -12.5t-17 -41.5
v-39q0 -29 17 -41t36 -12z" />
    <glyph glyph-name="c.superior" 
d="M308 395q-39 0 -66 12t-43 32.5t-23 46.5t-7 54v24q0 28 7 54t23 46t43 32t66 12q35 0 59.5 -9.5t40.5 -26t24.5 -38t11.5 -44.5h-84q-3 19 -16 31.5t-36 12.5q-27 0 -40.5 -15.5t-13.5 -38.5v-56q0 -23 13.5 -38.5t40.5 -15.5q23 0 36 12t15 32h85q-3 -23 -11.5 -44.5
t-24.5 -38t-40.5 -26.5t-59.5 -10z" />
    <glyph glyph-name="d.superior" 
d="M285 395q-25 0 -47 8.5t-38.5 25.5t-26 42t-9.5 57v47q0 32 9.5 57t26 42t38.5 25.5t47 8.5q18 0 38 -8.5t32 -25.5v133h85v-406h-85v28q-12 -16 -32 -25t-38 -9zM304 479q18 0 34.5 12t16.5 41v39q0 29 -17.5 41.5t-35.5 12.5t-35.5 -12.5t-17.5 -41.5v-39
q0 -29 17.5 -41t37.5 -12z" />
    <glyph glyph-name="e.superior" 
d="M305 395q-39 0 -65.5 12t-42.5 32.5t-23 46.5t-7 54v24q0 28 7 54t23 46t42.5 32t65.5 12t65.5 -12t42.5 -32t23 -46t7 -54v-43h-191q0 -20 13 -35.5t40 -15.5q19 0 31 8t17 20h86q-5 -20 -14.5 -39t-25 -33t-39 -22.5t-55.5 -8.5zM357 590q-2 19 -14.5 31.5t-37.5 12.5
q-24 0 -37 -13t-16 -31h105z" />
    <glyph glyph-name="f.superior" 
d="M237 626h-86v74h86v28q0 36 18.5 57.5t60.5 21.5h132v-75h-107q-12 0 -15.5 -6.5t-3.5 -14.5v-11h126v-74h-126v-225h-85v225z" />
    <glyph glyph-name="g.superior" 
d="M302 288q-34 0 -58 9.5t-40 25t-25 36t-13 42.5h85q4 -17 16 -27.5t35 -10.5q27 0 40 15.5t13 38.5v36q-12 -17 -32 -25.5t-38 -8.5q-25 0 -47 8.5t-38.5 25.5t-26 42t-9.5 57v23q0 32 9.5 57t26 42t38.5 25.5t47 8.5q18 0 38 -8.5t32 -25.5v26h85v-267q0 -28 -7 -54
t-23 -46.5t-42.5 -32.5t-65.5 -12zM302 502q18 0 35.5 12.5t17.5 41.5v15q0 29 -17.5 41.5t-35.5 12.5t-35.5 -12.5t-17.5 -41.5v-15q0 -29 17.5 -41.5t35.5 -12.5z" />
    <glyph glyph-name="h.superior" 
d="M167 807h85v-133q12 17 32.5 25.5t38.5 8.5q25 0 47 -8.5t38.5 -25.5t26 -42t9.5 -57v-174h-85v170q0 29 -17.5 41.5t-36.5 12.5q-18 0 -35.5 -12.5t-17.5 -41.5v-170h-85v406z" />
    <glyph glyph-name="i.superior" 
d="M158 476h105v150h-76v74h161v-224h106v-75h-296v75zM264 807h90v-91h-90v91z" />
    <glyph glyph-name="j.superior" 
d="M147 369h136q12 0 15.5 7t3.5 14v236h-126v74h211v-326q0 -37 -18.5 -58.5t-60.5 -21.5h-161v75zM293 807h91v-91h-91v91z" />
    <glyph glyph-name="k.superior" 
d="M261 605l87 95h103l-109 -118l125 -181h-101l-81 118l-24 -26v-92h-85v406h85v-202z" />
    <glyph glyph-name="l.superior" 
d="M157 476h106v256h-77v75h162v-331h105v-75h-296v75z" />
    <glyph glyph-name="m.superior" 
d="M381 606q0 8 -5.5 13.5t-13.5 5.5t-13.5 -5.5t-5.5 -13.5v-205h-75v205q0 8 -5.5 13.5t-13.5 5.5t-13.5 -5.5t-5.5 -13.5v-205h-78v299h78v-9q7 9 20 12t21 3q9 0 21.5 -3t21.5 -16q7 8 21.5 14.5t32.5 6.5q27 0 44 -8.5t27.5 -23t14.5 -33.5t4 -39v-203h-77v205z" />
    <glyph glyph-name="n.superior" unicode="&#x207f;" 
d="M167 700h85v-26q12 17 32.5 25.5t38.5 8.5q25 0 47 -8.5t38.5 -25.5t26 -42t9.5 -57v-174h-85v170q0 29 -17.5 41.5t-36.5 12.5q-18 0 -35.5 -12.5t-17.5 -41.5v-170h-85v299z" />
    <glyph glyph-name="o.superior" 
d="M304 470q27 0 40 15.5t13 38.5v56q0 23 -13 38.5t-40 15.5t-40 -15.5t-13 -38.5v-56q0 -23 13 -38.5t40 -15.5zM304 395q-39 0 -65.5 12t-42.5 32.5t-23 46.5t-7 54v24q0 28 7 54t23 46t42.5 32t65.5 12t65.5 -12t42.5 -32t23 -46t7 -54v-24q0 -28 -7 -54t-23 -46.5
t-42.5 -32.5t-65.5 -12z" />
    <glyph glyph-name="p.superior" 
d="M169 700h85v-26q11 17 31.5 25.5t38.5 8.5q25 0 47 -8.5t38.5 -25.5t26 -42t9.5 -57v-47q0 -32 -9.5 -57t-26 -42t-38.5 -25.5t-47 -8.5q-18 0 -38.5 9t-31.5 25v-135h-85v406zM307 479q18 0 35.5 12t17.5 41v39q0 29 -17.5 41.5t-35.5 12.5q-19 0 -36 -12.5t-17 -41.5
v-39q0 -29 17 -41t36 -12z" />
    <glyph glyph-name="q.superior" 
d="M355 429q-12 -16 -32 -25t-38 -9q-25 0 -47 8.5t-38.5 25.5t-26 42t-9.5 57v47q0 32 9.5 57t26 42t38.5 25.5t47 8.5q18 0 38 -8.5t32 -25.5v26h85v-406h-85v135zM304 479q18 0 34.5 12t16.5 41v39q0 29 -17.5 41.5t-35.5 12.5t-35.5 -12.5t-17.5 -41.5v-39
q0 -29 17.5 -41t37.5 -12z" />
    <glyph glyph-name="r.superior" 
d="M142 476h95v150h-66v74h151v-34q6 16 23.5 28t45.5 12h52v-75h-68q-18 0 -35.5 -12.5t-17.5 -41.5v-101h92v-75h-272v75z" />
    <glyph glyph-name="s.superior" 
d="M310 395q-22 0 -44.5 6t-41.5 18.5t-31.5 32t-13.5 46.5h84q2 -14 18.5 -21t32.5 -7q3 0 8 0.5t10.5 2.5t9 5.5t3.5 10.5q0 5 -4 10.5t-17 7.5l-65 14q-11 2 -23.5 8.5t-23.5 18t-18.5 28t-7.5 38.5t9.5 39.5t26 29.5t38 18.5t44.5 6.5q45 0 78.5 -23t37.5 -74h-86
q-3 11 -12 17t-20 6q-18 0 -24 -6t-7 -12q0 -16 17 -19l74 -16q8 -2 19.5 -7t22.5 -15.5t18.5 -27.5t7.5 -41q0 -27 -10 -45t-26.5 -29t-38.5 -16t-45 -5z" />
    <glyph glyph-name="t.superior" 
d="M314 401q-42 0 -61 21.5t-19 57.5v146h-85v74h85v68h85v-68h126v-74h-126v-129q0 -8 3.5 -14.5t15.5 -6.5h107v-75h-131z" />
    <glyph glyph-name="u.superior" 
d="M280 395q-21 0 -41.5 8t-36.5 24.5t-25.5 41.5t-9.5 59v172h85v-168q0 -28 17 -40.5t34 -12.5q18 0 34.5 12.5t16.5 40.5v168h86v-299h-86v35q-11 -17 -27.5 -29t-46.5 -12z" />
    <glyph glyph-name="v.superior" 
d="M152 700h90l62 -179l63 179h90l-108 -299h-89z" />
    <glyph glyph-name="w.superior" 
d="M157 700h90l19 -201l20 155h36l21 -155l19 201h90l-48 -299h-80l-20 158l-19 -158h-80z" />
    <glyph glyph-name="x.superior" 
d="M254 555l-97 145h98l49 -76l50 76h97l-96 -145l101 -154h-98l-54 83l-53 -83h-98z" />
    <glyph glyph-name="y.superior" 
d="M192 369h48q9 0 10 4l9 26l-107 301h90l62 -179l63 179h90l-110 -305q-8 -21 -12 -39.5t-11 -32t-19.5 -21.5t-36.5 -8h-76v75z" />
    <glyph glyph-name="z.superior" 
d="M294 476h125v-75h-232v75l121 150h-117v74h224v-74z" />
    <glyph glyph-name="four.superior" unicode="&#x2074;" 
d="M320 401v88h-173v82l175 239l67 -49l-144 -198h75v81h85v-81h42v-74h-42v-88h-85z" />
    <glyph glyph-name="five.superior" unicode="&#x2075;" 
d="M312 395q-36 0 -63.5 11t-46 29.5t-28.5 43.5t-10 54h86q0 -28 14 -45.5t39 -17.5q24 0 38.5 17t14.5 39v12q0 22 -14.5 39t-38.5 17q-35 0 -46 -31l-87 56l41 188h202v-75h-134l-16 -74q11 7 21.5 9t25.5 2q26 0 49.5 -11t41.5 -29.5t29 -43t11 -52.5q0 -29 -8 -54
t-24.5 -43.5t-40.5 -29.5t-56 -11z" />
    <glyph glyph-name="six.superior" unicode="&#x2076;" 
d="M297 395q-29 0 -54 11t-43.5 29.5t-29.5 43t-11 52.5q0 26 9 48t24 42l139 189l67 -49l-70 -95q10 -2 18 -5.5t16 -7.5q32 -17 52.5 -49.5t20.5 -70.5q0 -29 -11 -54t-29.5 -43.5t-44 -29.5t-53.5 -11zM297 470q24 0 38.5 17t14.5 39v12q0 22 -14.5 39t-38.5 17
q-25 0 -39 -17t-14 -39v-12q0 -22 14 -39t39 -17z" />
    <glyph glyph-name="seven.superior" unicode="&#x2077;" 
d="M168 807h273v-75l-129 -334l-77 30l117 304h-99v-65h-85v140z" />
    <glyph glyph-name="eight.superior" unicode="&#x2078;" 
d="M304 395q-28 0 -52.5 10.5t-42.5 29t-28.5 43t-10.5 52.5q0 32 14 59.5t37 46.5q-24 29 -24 69q0 22 8.5 41.5t23 34.5t34 23.5t41.5 8.5t42 -8.5t34.5 -23.5t23 -34.5t8.5 -41.5q0 -40 -24 -70q23 -18 37 -45.5t14 -59.5q0 -28 -10.5 -52.5t-29 -43t-43 -29t-52.5 -10.5
zM304 470q26 0 39.5 19t13.5 44q0 26 -13.5 45t-39.5 19t-39.5 -19t-13.5 -45q0 -25 13.5 -44t39.5 -19zM304 665q17 0 23.5 11.5t6.5 24.5t-6.5 25t-23.5 12t-22.5 -12t-5.5 -25t5.5 -24.5t22.5 -11.5z" />
    <glyph glyph-name="nine.superior" unicode="&#x2079;" 
d="M211 447l69 95q-9 2 -17 5.5t-16 7.5q-33 17 -53 49.5t-20 70.5q0 28 11 53.5t29.5 44t43.5 29.5t54 11q28 0 53.5 -11t44 -29.5t29.5 -43t11 -52.5q0 -26 -9.5 -48t-23.5 -42l-139 -189zM312 614q24 0 38.5 17t14.5 39v12q0 22 -14.5 39t-38.5 17t-38.5 -17t-14.5 -39
v-12q0 -22 14.5 -39t38.5 -17z" />
    <glyph glyph-name="zero.superior" unicode="&#x2070;" 
d="M304 395q-29 0 -54 11t-43.5 29.5t-29.5 43.5t-11 54v142q0 28 11 53.5t29.5 44t43.5 29.5t54 11q28 0 53.5 -11t44 -29.5t29.5 -44t11 -53.5v-142q0 -29 -11 -54t-29.5 -43.5t-44 -29.5t-53.5 -11zM251 571l106 106v5q0 22 -14 39t-39 17q-24 0 -38.5 -17t-14.5 -39
v-111zM304 470q25 0 39 17t14 39v110l-106 -105v-5q0 -22 14.5 -39t38.5 -17z" />
    <glyph glyph-name="period.superior" 
d="M258 494h93v-93h-93v93z" />
    <glyph glyph-name="hyphen.superior" 
d="M220 551v26h168v-26h-168z" />
    <glyph glyph-name="comma.superior" 
d="M220 354l119 118l49 -50l-118 -117z" />
    <glyph glyph-name="equal.superior" unicode="&#x207c;" 
d="M189 604v26h230v-26h-230zM189 491v26h230v-26h-230z" />
    <glyph glyph-name="plus.superior" unicode="&#x207a;" 
d="M292 551h-103v26h103v101h26v-101h101v-26h-101v-102h-26v102z" />
    <glyph glyph-name="minus.superior" unicode="&#x207b;" 
d="M189 551v26h230v-26h-230z" />
    <glyph glyph-name="parenleft.superior" unicode="&#x207d;" 
d="M273 747q0 29 12 44.5t50 15.5h69v-24h-69q-23 0 -30 -9t-7 -27v-340q0 -17 7 -26t30 -9h69v-24h-69q-38 0 -50 15t-12 44v340z" />
    <glyph glyph-name="parenright.superior" unicode="&#x207e;" 
d="M336 407q0 -29 -12.5 -44t-49.5 -15h-69v24h69q23 0 30 9t7 26v340q0 18 -7 27t-30 9h-69v24h69q37 0 49.5 -15.5t12.5 -44.5v-340z" />
    <glyph glyph-name="a.inferior" 
d="M274 -102q-57 0 -85 25t-28 64q0 35 14 56t37 32q28 14 65 18t76 8q-4 13 -10 19q-15 17 -42 17q-19 0 -31 -8t-17 -20h-86q5 20 14.5 38.5t25.5 32.5t39 22.5t55 8.5q39 0 65.5 -12t42.5 -32t23 -46t7 -54v-163h-85v37q-8 -17 -25.5 -30t-54.5 -13zM288 -30
q32 0 49 17.5t17 38.5v6q-14 -1 -28.5 -2t-27 -2.5t-22 -3t-13.5 -2.5q-11 -6 -14 -11t-3 -13t8 -18t34 -10z" />
    <glyph glyph-name="b.inferior" 
d="M324 -102q-18 0 -38.5 9t-31.5 25v-28h-85v406h85v-133q11 17 31.5 25.5t38.5 8.5q25 0 47 -8.5t38.5 -25.5t26 -42t9.5 -57v-47q0 -32 -9.5 -57t-26 -42t-38.5 -25.5t-47 -8.5zM307 -18q18 0 35.5 12t17.5 41v39q0 29 -17.5 41.5t-35.5 12.5q-19 0 -36 -12.5t-17 -41.5
v-39q0 -29 17 -41t36 -12z" />
    <glyph glyph-name="c.inferior" 
d="M308 -102q-39 0 -66 12t-43 32.5t-23 46.5t-7 54v24q0 28 7 54t23 46t43 32t66 12q35 0 59.5 -9.5t40.5 -26t24.5 -38t11.5 -44.5h-84q-3 19 -16 31.5t-36 12.5q-27 0 -40.5 -15.5t-13.5 -38.5v-56q0 -23 13.5 -38.5t40.5 -15.5q23 0 36 12t15 32h85q-3 -23 -11.5 -44.5
t-24.5 -38t-40.5 -26.5t-59.5 -10z" />
    <glyph glyph-name="d.inferior" 
d="M285 -102q-25 0 -47 8.5t-38.5 25.5t-26 42t-9.5 57v47q0 32 9.5 57t26 42t38.5 25.5t47 8.5q18 0 38 -8.5t32 -25.5v133h85v-406h-85v28q-12 -16 -32 -25t-38 -9zM304 -18q18 0 34.5 12t16.5 41v39q0 29 -17.5 41.5t-35.5 12.5t-35.5 -12.5t-17.5 -41.5v-39
q0 -29 17.5 -41t37.5 -12z" />
    <glyph glyph-name="e.inferior" 
d="M305 -102q-39 0 -65.5 12t-42.5 32.5t-23 46.5t-7 54v24q0 28 7 54t23 46t42.5 32t65.5 12t65.5 -12t42.5 -32t23 -46t7 -54v-43h-191q0 -20 13 -35.5t40 -15.5q19 0 31 8t17 20h86q-5 -20 -14.5 -39t-25 -33t-39 -22.5t-55.5 -8.5zM357 93q-2 19 -14.5 31.5t-37.5 12.5
q-24 0 -37 -13t-16 -31h105z" />
    <glyph glyph-name="f.inferior" 
d="M237 129h-86v74h86v28q0 36 18.5 57.5t60.5 21.5h132v-75h-107q-12 0 -15.5 -6.5t-3.5 -14.5v-11h126v-74h-126v-225h-85v225z" />
    <glyph glyph-name="g.inferior" 
d="M302 -209q-34 0 -58 9.5t-40 25t-25 36t-13 42.5h85q4 -17 16 -27.5t35 -10.5q27 0 40 15.5t13 38.5v36q-12 -17 -32 -25.5t-38 -8.5q-25 0 -47 8.5t-38.5 25.5t-26 42t-9.5 57v23q0 32 9.5 57t26 42t38.5 25.5t47 8.5q18 0 38 -8.5t32 -25.5v26h85v-267q0 -28 -7 -54
t-23 -46.5t-42.5 -32.5t-65.5 -12zM302 5q18 0 35.5 12.5t17.5 41.5v15q0 29 -17.5 41.5t-35.5 12.5t-35.5 -12.5t-17.5 -41.5v-15q0 -29 17.5 -41.5t35.5 -12.5z" />
    <glyph glyph-name="h.inferior" 
d="M167 310h85v-133q12 17 32.5 25.5t38.5 8.5q25 0 47 -8.5t38.5 -25.5t26 -42t9.5 -57v-174h-85v170q0 29 -17.5 41.5t-36.5 12.5q-18 0 -35.5 -12.5t-17.5 -41.5v-170h-85v406z" />
    <glyph glyph-name="i.inferior" 
d="M158 -21h105v150h-76v74h161v-224h106v-75h-296v75zM264 310h90v-91h-90v91z" />
    <glyph glyph-name="j.inferior" 
d="M147 -128h136q12 0 15.5 7t3.5 14v236h-126v74h211v-326q0 -37 -18.5 -58.5t-60.5 -21.5h-161v75zM293 310h91v-91h-91v91z" />
    <glyph glyph-name="k.inferior" 
d="M261 108l87 95h103l-109 -118l125 -181h-101l-81 118l-24 -26v-92h-85v406h85v-202z" />
    <glyph glyph-name="l.inferior" 
d="M157 -21h106v256h-77v75h162v-331h105v-75h-296v75z" />
    <glyph glyph-name="m.inferior" 
d="M381 109q0 8 -5.5 13.5t-13.5 5.5t-13.5 -5.5t-5.5 -13.5v-205h-75v205q0 8 -5.5 13.5t-13.5 5.5t-13.5 -5.5t-5.5 -13.5v-205h-78v299h78v-9q7 9 20 12t21 3q9 0 21.5 -3t21.5 -16q7 8 21.5 14.5t32.5 6.5q27 0 44 -8.5t27.5 -23t14.5 -33.5t4 -39v-203h-77v205z" />
    <glyph glyph-name="n.inferior" 
d="M167 203h85v-26q12 17 32.5 25.5t38.5 8.5q25 0 47 -8.5t38.5 -25.5t26 -42t9.5 -57v-174h-85v170q0 29 -17.5 41.5t-36.5 12.5q-18 0 -35.5 -12.5t-17.5 -41.5v-170h-85v299z" />
    <glyph glyph-name="o.inferior" 
d="M304 -27q27 0 40 15.5t13 38.5v56q0 23 -13 38.5t-40 15.5t-40 -15.5t-13 -38.5v-56q0 -23 13 -38.5t40 -15.5zM304 -102q-39 0 -65.5 12t-42.5 32.5t-23 46.5t-7 54v24q0 28 7 54t23 46t42.5 32t65.5 12t65.5 -12t42.5 -32t23 -46t7 -54v-24q0 -28 -7 -54t-23 -46.5
t-42.5 -32.5t-65.5 -12z" />
    <glyph glyph-name="p.inferior" 
d="M169 203h85v-26q11 17 31.5 25.5t38.5 8.5q25 0 47 -8.5t38.5 -25.5t26 -42t9.5 -57v-47q0 -32 -9.5 -57t-26 -42t-38.5 -25.5t-47 -8.5q-18 0 -38.5 9t-31.5 25v-135h-85v406zM307 -18q18 0 35.5 12t17.5 41v39q0 29 -17.5 41.5t-35.5 12.5q-19 0 -36 -12.5t-17 -41.5
v-39q0 -29 17 -41t36 -12z" />
    <glyph glyph-name="q.inferior" 
d="M355 -68q-12 -16 -32 -25t-38 -9q-25 0 -47 8.5t-38.5 25.5t-26 42t-9.5 57v47q0 32 9.5 57t26 42t38.5 25.5t47 8.5q18 0 38 -8.5t32 -25.5v26h85v-406h-85v135zM304 -18q18 0 34.5 12t16.5 41v39q0 29 -17.5 41.5t-35.5 12.5t-35.5 -12.5t-17.5 -41.5v-39
q0 -29 17.5 -41t37.5 -12z" />
    <glyph glyph-name="r.inferior" 
d="M142 -21h95v150h-66v74h151v-34q6 16 23.5 28t45.5 12h52v-75h-68q-18 0 -35.5 -12.5t-17.5 -41.5v-101h92v-75h-272v75z" />
    <glyph glyph-name="s.inferior" 
d="M310 -102q-22 0 -44.5 6t-41.5 18.5t-31.5 32t-13.5 46.5h84q2 -14 18.5 -21t32.5 -7q3 0 8 0.5t10.5 2.5t9 5.5t3.5 10.5q0 5 -4 10.5t-17 7.5l-65 14q-11 2 -23.5 8.5t-23.5 18t-18.5 28t-7.5 38.5t9.5 39.5t26 29.5t38 18.5t44.5 6.5q45 0 78.5 -23t37.5 -74h-86
q-3 11 -12 17t-20 6q-18 0 -24 -6t-7 -12q0 -16 17 -19l74 -16q8 -2 19.5 -7t22.5 -15.5t18.5 -27.5t7.5 -41q0 -27 -10 -45t-26.5 -29t-38.5 -16t-45 -5z" />
    <glyph glyph-name="t.inferior" 
d="M314 -96q-42 0 -61 21.5t-19 57.5v146h-85v74h85v68h85v-68h126v-74h-126v-129q0 -8 3.5 -14.5t15.5 -6.5h107v-75h-131z" />
    <glyph glyph-name="u.inferior" 
d="M280 -102q-21 0 -41.5 8t-36.5 24.5t-25.5 41.5t-9.5 59v172h85v-168q0 -28 17 -40.5t34 -12.5q18 0 34.5 12.5t16.5 40.5v168h86v-299h-86v35q-11 -17 -27.5 -29t-46.5 -12z" />
    <glyph glyph-name="v.inferior" 
d="M152 203h90l62 -179l63 179h90l-108 -299h-89z" />
    <glyph glyph-name="w.inferior" 
d="M157 203h90l19 -201l20 155h36l21 -155l19 201h90l-48 -299h-80l-20 158l-19 -158h-80z" />
    <glyph glyph-name="x.inferior" 
d="M254 58l-97 145h98l49 -76l50 76h97l-96 -145l101 -154h-98l-54 83l-53 -83h-98z" />
    <glyph glyph-name="y.inferior" 
d="M192 -128h48q9 0 10 4l9 26l-107 301h90l62 -179l63 179h90l-110 -305q-8 -21 -12 -39.5t-11 -32t-19.5 -21.5t-36.5 -8h-76v75z" />
    <glyph glyph-name="z.inferior" 
d="M294 -21h125v-75h-232v75l121 150h-117v74h224v-74z" />
    <glyph glyph-name="one.inferior" unicode="&#x2081;" 
d="M163 201l109 109h85v-331h105v-75h-296v75h106v215l-52 -51z" />
    <glyph glyph-name="two.inferior" unicode="&#x2082;" 
d="M204 90q-20 20 -28.5 41t-8.5 47q0 28 11 53.5t29.5 44t43.5 29.5t54 11t54.5 -11t44 -29.5t29.5 -44t11 -53.5q0 -20 -4 -35t-12 -27.5t-19 -24t-26 -25.5l-92 -87h153v-75h-277v75l165 154q17 17 22 27.5t5 21.5q0 25 -14 42t-40 17t-39.5 -17t-13.5 -42q0 -8 4.5 -18
t9.5 -17z" />
    <glyph glyph-name="three.inferior" unicode="&#x2083;" 
d="M308 -102q-35 0 -62.5 11t-46.5 29.5t-28.5 43.5t-9.5 54h85q0 -24 12.5 -43.5t40.5 -19.5t40.5 19.5t12.5 43.5q0 22 -14.5 41t-38.5 19v76q14 0 21 10t7 21q0 14 -5.5 26t-22.5 12t-22.5 -12t-5.5 -26h-85q0 24 9 44.5t24.5 35.5t36 24t43.5 9t43.5 -9t36 -24
t24.5 -35.5t9 -44.5q0 -37 -22 -65q21 -19 34 -45t13 -57q0 -29 -8 -54t-24.5 -43.5t-40.5 -29.5t-56 -11z" />
    <glyph glyph-name="four.inferior" unicode="&#x2084;" 
d="M320 -96v88h-173v82l175 239l67 -49l-144 -198h75v81h85v-81h42v-74h-42v-88h-85z" />
    <glyph glyph-name="five.inferior" unicode="&#x2085;" 
d="M312 -102q-36 0 -63.5 11t-46 29.5t-28.5 43.5t-10 54h86q0 -28 14 -45.5t39 -17.5q24 0 38.5 17t14.5 39v12q0 22 -14.5 39t-38.5 17q-35 0 -46 -31l-87 56l41 188h202v-75h-134l-16 -74q11 7 21.5 9t25.5 2q26 0 49.5 -11t41.5 -29.5t29 -43t11 -52.5q0 -29 -8 -54
t-24.5 -43.5t-40.5 -29.5t-56 -11z" />
    <glyph glyph-name="six.inferior" unicode="&#x2086;" 
d="M297 -102q-29 0 -54 11t-43.5 29.5t-29.5 43t-11 52.5q0 26 9 48t24 42l139 189l67 -49l-70 -95q10 -2 18 -5.5t16 -7.5q32 -17 52.5 -49.5t20.5 -70.5q0 -29 -11 -54t-29.5 -43.5t-44 -29.5t-53.5 -11zM297 -27q24 0 38.5 17t14.5 39v12q0 22 -14.5 39t-38.5 17
q-25 0 -39 -17t-14 -39v-12q0 -22 14 -39t39 -17z" />
    <glyph glyph-name="seven.inferior" unicode="&#x2087;" 
d="M168 310h273v-75l-129 -334l-77 30l117 304h-99v-65h-85v140z" />
    <glyph glyph-name="eight.inferior" unicode="&#x2088;" 
d="M304 -102q-28 0 -52.5 10.5t-42.5 29t-28.5 43t-10.5 52.5q0 32 14 59.5t37 46.5q-24 29 -24 69q0 22 8.5 41.5t23 34.5t34 23.5t41.5 8.5t42 -8.5t34.5 -23.5t23 -34.5t8.5 -41.5q0 -40 -24 -70q23 -18 37 -45.5t14 -59.5q0 -28 -10.5 -52.5t-29 -43t-43 -29
t-52.5 -10.5zM304 -27q26 0 39.5 19t13.5 44q0 26 -13.5 45t-39.5 19t-39.5 -19t-13.5 -45q0 -25 13.5 -44t39.5 -19zM304 168q17 0 23.5 11.5t6.5 24.5t-6.5 25t-23.5 12t-22.5 -12t-5.5 -25t5.5 -24.5t22.5 -11.5z" />
    <glyph glyph-name="nine.inferior" unicode="&#x2089;" 
d="M211 -50l69 95q-9 2 -17 5.5t-16 7.5q-33 17 -53 49.5t-20 70.5q0 28 11 53.5t29.5 44t43.5 29.5t54 11q28 0 53.5 -11t44 -29.5t29.5 -43t11 -52.5q0 -26 -9.5 -48t-23.5 -42l-139 -189zM312 117q24 0 38.5 17t14.5 39v12q0 22 -14.5 39t-38.5 17t-38.5 -17t-14.5 -39
v-12q0 -22 14.5 -39t38.5 -17z" />
    <glyph glyph-name="zero.inferior" unicode="&#x2080;" 
d="M304 -102q-29 0 -54 11t-43.5 29.5t-29.5 43.5t-11 54v142q0 28 11 53.5t29.5 44t43.5 29.5t54 11q28 0 53.5 -11t44 -29.5t29.5 -44t11 -53.5v-142q0 -29 -11 -54t-29.5 -43.5t-44 -29.5t-53.5 -11zM251 74l106 106v5q0 22 -14 39t-39 17q-24 0 -38.5 -17t-14.5 -39
v-111zM304 -27q25 0 39 17t14 39v110l-106 -105v-5q0 -22 14.5 -39t38.5 -17z" />
    <glyph glyph-name="period.inferior" 
d="M258 -3h93v-93h-93v93z" />
    <glyph glyph-name="hyphen.inferior" 
d="M220 54v26h168v-26h-168z" />
    <glyph glyph-name="comma.inferior" 
d="M220 -143l119 118l49 -50l-118 -117z" />
    <glyph glyph-name="equal.inferior" 
d="M189 107v26h230v-26h-230zM189 -6v26h230v-26h-230z" />
    <glyph glyph-name="plus.inferior" 
d="M292 54h-103v26h103v101h26v-101h101v-26h-101v-102h-26v102z" />
    <glyph glyph-name="minus.inferior" 
d="M189 54v26h230v-26h-230z" />
    <glyph glyph-name="parenleft.inferior" unicode="&#x208d;" 
d="M273 250q0 29 12 44.5t50 15.5h69v-24h-69q-23 0 -30 -9t-7 -27v-340q0 -17 7 -26t30 -9h69v-24h-69q-38 0 -50 15t-12 44v340z" />
    <glyph glyph-name="parenright.inferior" unicode="&#x208e;" 
d="M336 -90q0 -29 -12.5 -44t-49.5 -15h-69v24h69q23 0 30 9t7 26v340q0 18 -7 27t-30 9h-69v24h69q37 0 49.5 -15.5t12.5 -44.5v-340z" />
    <glyph glyph-name="one.numerator" 
d="M40 635l65 65h42v-221h67v-40h-177v40h68v164l-36 -37z" />
    <glyph glyph-name="two.numerator" 
d="M63 564q-11 11 -18 26t-7 33q0 34 23.5 57.5t57.5 23.5t57.5 -23.5t23.5 -57.5q0 -22 -7.5 -37t-27.5 -35l-70 -72h105v-40h-162v40l96 99q13 13 18.5 23t5.5 22q0 17 -10.5 28.5t-28.5 11.5q-17 0 -28 -11.5t-11 -28.5q0 -18 12 -30z" />
    <glyph glyph-name="three.numerator" 
d="M134 596h3q13 1 21 11t8 23q0 14 -9 23.5t-23 9.5t-23 -9.5t-9 -23.5h-42q0 31 21.5 52.5t52.5 21.5t52.5 -21.5t21.5 -52.5q0 -16 -6 -29t-16 -23q29 -24 29 -62q0 -34 -23.5 -57.5t-57.5 -23.5t-57.5 23.5t-23.5 57.5h42q0 -17 11 -28.5t28 -11.5t28 11.5t11 28.5
t-10 28.5t-26 13.5h-3v38z" />
    <glyph glyph-name="four.numerator" 
d="M157 439v63h-115v40l116 160l33 -24l-99 -136h65v53h42v-53h27v-40h-27v-63h-42z" />
    <glyph glyph-name="five.numerator" 
d="M144 435q-34 0 -57.5 23.5t-23.5 57.5h42q0 -17 11 -28.5t28 -11.5q18 0 28.5 11.5t10.5 28.5v11q0 17 -10.5 29t-28.5 12q-11 0 -19.5 -6t-13.5 -14l-44 34l26 118h116v-40h-83l-13 -61q5 3 14 6t19 3q16 0 30.5 -6.5t25 -17.5t17 -25.5t6.5 -31.5v-11
q0 -34 -23.5 -57.5t-57.5 -23.5z" />
    <glyph glyph-name="six.numerator" 
d="M144 435q-34 0 -58 23.5t-24 57.5v11q0 27 17 49l92 126l33 -24l-52 -70q29 -2 51 -25.5t22 -55.5v-11q0 -34 -24 -57.5t-57 -23.5zM144 476q17 0 28 11.5t11 28.5v11q0 17 -11 29t-28 12q-18 0 -29 -12t-11 -29v-11q0 -17 11 -28.5t29 -11.5z" />
    <glyph glyph-name="seven.numerator" 
d="M77 700h160v-40l-80 -223l-38 14l75 209h-75v-39h-42v79z" />
    <glyph glyph-name="eight.numerator" 
d="M133 435q-34 0 -57.5 23.5t-23.5 57.5q0 38 29 62q-21 21 -21 52t21 52.5t52 21.5t52.5 -21.5t21.5 -52.5t-21 -52q29 -24 29 -62q0 -34 -24 -57.5t-58 -23.5zM133 476q17 0 28.5 11.5t11.5 28.5t-11.5 29t-28.5 12t-28 -12t-11 -29t11 -28.5t28 -11.5zM133 597
q14 0 23 9.5t9 23.5t-9 23.5t-23 9.5t-22.5 -9.5t-8.5 -23.5t8.5 -23.5t22.5 -9.5z" />
    <glyph glyph-name="nine.numerator" 
d="M152 704q34 0 58 -23.5t24 -57.5v-11q0 -27 -17 -49l-92 -126l-33 24l52 70q-29 2 -51 25.5t-22 55.5v11q0 34 24 57.5t57 23.5zM152 663q-17 0 -28 -11.5t-11 -28.5v-11q0 -17 11 -29t28 -12q18 0 29 12t11 29v11q0 17 -11 28.5t-29 11.5z" />
    <glyph glyph-name="zero.numerator" 
d="M144 435q-34 0 -57.5 23.5t-23.5 57.5v107q0 34 23.5 57.5t57.5 23.5t58 -23.5t24 -57.5v-107q0 -34 -24 -57.5t-58 -23.5zM144 476q18 0 29 11.5t11 28.5v80l-79 -79v-1q0 -17 11 -28.5t28 -11.5zM105 543l79 80q0 17 -11 28.5t-29 11.5q-17 0 -28 -11.5t-11 -28.5v-80z
" />
    <glyph glyph-name="one.denominator" 
d="M389 196l65 65h42v-221h67v-40h-177v40h68v164l-36 -37z" />
    <glyph glyph-name="two.denominator" 
d="M403 125q-11 11 -18 26t-7 33q0 34 23.5 57.5t57.5 23.5t57.5 -23.5t23.5 -57.5q0 -22 -7.5 -37t-27.5 -35l-70 -72h105v-40h-162v40l96 99q13 13 18.5 23t5.5 22q0 17 -10.5 28.5t-28.5 11.5q-17 0 -28 -11.5t-11 -28.5q0 -18 12 -30z" />
    <glyph glyph-name="three.denominator" 
d="M469 157h3q13 1 21 11t8 23q0 14 -9 23.5t-23 9.5t-23 -9.5t-9 -23.5h-42q0 31 21.5 52.5t52.5 21.5t52.5 -21.5t21.5 -52.5q0 -16 -6 -29t-16 -23q29 -24 29 -62q0 -34 -23.5 -57.5t-57.5 -23.5t-57.5 23.5t-23.5 57.5h42q0 -17 11 -28.5t28 -11.5t28 11.5t11 28.5
t-10 28.5t-26 13.5h-3v38z" />
    <glyph glyph-name="four.denominator" 
d="M477 0v63h-115v40l116 160l33 -24l-99 -136h65v53h42v-53h27v-40h-27v-63h-42z" />
    <glyph glyph-name="five.denominator" 
d="M464 -4q-34 0 -57.5 23.5t-23.5 57.5h42q0 -17 11 -28.5t28 -11.5q18 0 28.5 11.5t10.5 28.5v11q0 17 -10.5 29t-28.5 12q-11 0 -19.5 -6t-13.5 -14l-44 34l26 118h116v-40h-83l-13 -61q5 3 14 6t19 3q16 0 30.5 -6.5t25 -17.5t17 -25.5t6.5 -31.5v-11q0 -34 -23.5 -57.5
t-57.5 -23.5z" />
    <glyph glyph-name="six.denominator" 
d="M456 -4q-34 0 -58 23.5t-24 57.5v11q0 27 17 49l92 126l33 -24l-52 -70q29 -2 51 -25.5t22 -55.5v-11q0 -34 -24 -57.5t-57 -23.5zM456 37q17 0 28 11.5t11 28.5v11q0 17 -11 29t-28 12q-18 0 -29 -12t-11 -29v-11q0 -17 11 -28.5t29 -11.5z" />
    <glyph glyph-name="seven.denominator" 
d="M411 261h160v-40l-80 -223l-38 14l75 209h-75v-39h-42v79z" />
    <glyph glyph-name="eight.denominator" 
d="M474 -4q-34 0 -57.5 23.5t-23.5 57.5q0 38 29 62q-21 21 -21 52t21 52.5t52 21.5t52.5 -21.5t21.5 -52.5t-21 -52q29 -24 29 -62q0 -34 -24 -57.5t-58 -23.5zM474 37q17 0 28.5 11.5t11.5 28.5t-11.5 29t-28.5 12t-28 -12t-11 -29t11 -28.5t28 -11.5zM474 158
q14 0 23 9.5t9 23.5t-9 23.5t-23 9.5t-22.5 -9.5t-8.5 -23.5t8.5 -23.5t22.5 -9.5z" />
    <glyph glyph-name="nine.denominator" 
d="M464 265q34 0 58 -23.5t24 -57.5v-11q0 -27 -17 -49l-92 -126l-33 24l52 70q-29 2 -51 25.5t-22 55.5v11q0 34 24 57.5t57 23.5zM464 224q-17 0 -28 -11.5t-11 -28.5v-11q0 -17 11 -29t28 -12q18 0 29 12t11 29v11q0 17 -11 28.5t-29 11.5z" />
    <glyph glyph-name="zero.denominator" 
d="M463 -4q-34 0 -57.5 23.5t-23.5 57.5v107q0 34 23.5 57.5t57.5 23.5t58 -23.5t24 -57.5v-107q0 -34 -24 -57.5t-58 -23.5zM463 37q18 0 29 11.5t11 28.5v80l-79 -79v-1q0 -17 11 -28.5t28 -11.5zM424 104l79 80q0 17 -11 28.5t-29 11.5q-17 0 -28 -11.5t-11 -28.5v-80z
" />
    <glyph glyph-name="ampersand.case" 
d="M256 -10q-45 0 -84 17t-68 46t-45.5 68.5t-16.5 84.5q0 63 34 116.5t92 80.5q12 5 22.5 8.5t28.5 6.5l-103 176v106h356v-106h-238l186 -317l55 91l89 -54l-85 -147l69 -118l-89 -54l-41 69q-22 -32 -65 -53t-97 -21zM256 96q41 0 64 20t41 52l-84 146q-5 1 -10.5 1.5
t-10.5 0.5q-23 0 -42.5 -9t-34 -24t-22.5 -35t-8 -42q0 -23 8 -43t22.5 -35t34 -23.5t42.5 -8.5z" />
    <glyph glyph-name="hyphen.case" 
d="M159 315v45h290v-45h-290z" />
    <glyph glyph-name="endash.case" 
d="M106 315v45h396v-45h-396z" />
    <glyph glyph-name="emdash.case" 
d="M74 315v45h459v-45h-459z" />
    <glyph glyph-name="question.case" 
d="M241 391h54q22 0 42 8.5t35 22.5t23.5 33.5t8.5 41.5t-8.5 41.5t-23.5 34t-35 23t-42 8.5q-23 0 -42.5 -8.5t-34.5 -23t-23.5 -34t-8.5 -41.5h-107q0 46 17 85.5t46 67.5t68.5 44t84.5 16t84.5 -16t68.5 -44.5t46 -67.5t17 -85q0 -39 -12.5 -72.5t-34 -60.5t-51.5 -46
t-65 -27v-61h-107v161zM227 134h134v-134h-134v134z" />
    <glyph glyph-name="questiondown.case" 
d="M367 309h-54q-23 0 -42.5 -8.5t-34.5 -22.5t-23.5 -33.5t-8.5 -41.5t8.5 -41.5t23.5 -34t34.5 -23t42.5 -8.5q22 0 42 8.5t35 23t23.5 34t8.5 41.5h107q0 -47 -17 -86t-46 -67t-68.5 -44t-84.5 -16t-84.5 16t-68.5 44.5t-46 67.5t-17 85q0 39 12 72.5t34 60.5t52 46
t65 27v61h107v-161zM246 700h134v-134h-134v134z" />
    <glyph glyph-name="exclam.case" 
d="M358 230h-107v470h107v-470zM237 134h134v-134h-134v134z" />
    <glyph glyph-name="exclamdown.case" 
d="M358 0h-107v470h107v-470zM237 700h134v-134h-134v134z" />
    <glyph glyph-name="guilsinglleft.case" 
d="M153 315l210 210l32 -31l-179 -179l179 -179l-32 -31z" />
    <glyph glyph-name="guilsinglright.case" 
d="M245 105l-32 31l179 179l-179 179l32 31l210 -210z" />
    <glyph glyph-name="guillemotleft.case" 
d="M54 313l210 210l32 -31l-179 -179l179 -179l-32 -31zM279 313l210 210l32 -31l-179 -179l179 -179l-32 -31z" />
    <glyph glyph-name="guillemotright.case" 
d="M119 103l-32 31l179 179l-179 179l32 31l210 -210zM344 103l-32 31l179 179l-179 179l32 31l210 -210z" />
    <glyph glyph-name="parenleft.case" 
d="M250 597q0 25 4.5 44t16.5 32t33 20t53 7h118v-42h-118q-40 0 -52 -15t-12 -46v-494q0 -31 12 -46t52 -15h118v-42h-118q-32 0 -53 7t-33 20t-16.5 32t-4.5 44v494z" />
    <glyph glyph-name="parenright.case" 
d="M358 103q0 -25 -4.5 -44t-16.5 -32t-33 -20t-53 -7h-118v42h118q40 0 52 15t12 46v494q0 31 -12 46t-52 15h-118v42h118q32 0 53 -7t33 -20t16.5 -32t4.5 -44v-494z" />
    <glyph glyph-name="bracketleft.case" 
d="M250 700h225v-42h-182v-616h182v-42h-225v700z" />
    <glyph glyph-name="bracketright.case" 
d="M358 0h-225v42h182v616h-182v42h225v-700z" />
    <glyph glyph-name="braceleft.case" 
d="M176 329v42h10q40 0 52 15t12 46v165q0 25 4.5 44t16.5 32t33 20t53 7h118v-42h-118q-40 0 -52 -15t-12 -46v-165q0 -28 -7.5 -49.5t-26.5 -32.5q19 -12 26.5 -33.5t7.5 -48.5v-165q0 -31 12 -46t52 -15h118v-42h-118q-32 0 -53 7t-33 20t-16.5 32t-4.5 44v165
q0 31 -12 46t-52 15h-10z" />
    <glyph glyph-name="braceright.case" 
d="M422 329q-40 0 -52 -15t-12 -46v-165q0 -25 -4.5 -44t-16.5 -32t-33 -20t-53 -7h-118v42h118q40 0 52 15t12 46v165q0 27 7.5 48.5t26.5 33.5q-19 11 -26.5 32.5t-7.5 49.5v165q0 31 -12 46t-52 15h-118v42h118q32 0 53 -7t33 -20t16.5 -32t4.5 -44v-165q0 -31 12 -46
t52 -15h10v-42h-10z" />
    <glyph glyph-name="bar.case" 
d="M282 700h43v-700h-43v700z" />
    <glyph glyph-name="brokenbar.case" 
d="M283 289h43v-289h-43v289zM283 700h43v-289h-43v289z" />
    <glyph glyph-name="periodcentered.case" 
d="M237 414h134v-134h-134v134z" />
    <glyph glyph-name="at.case" 
d="M416 132q-20 -28 -50.5 -40t-64.5 -12q-67 0 -109.5 39t-42.5 106v41q0 67 42.5 106t109.5 39h48v62q0 23 -14 34.5t-34 11.5t-33.5 -11.5t-13.5 -34.5v-27h-105v30q0 67 42.5 105.5t110.5 38.5q67 0 109.5 -38.5t42.5 -105.5v-317q0 -37 35 -37q17 0 26.5 10t9.5 27v312
q0 48 -14.5 88t-43 68.5t-69.5 44.5t-94 16t-94 -16t-69.5 -44.5t-43 -68.5t-14.5 -88v-242q0 -48 14.5 -88t43 -68.5t69.5 -44.5t94 -16v-42q-63 0 -112 18.5t-83 52.5t-51.5 82t-17.5 106v242q0 58 17.5 106t51.5 82t83 52.5t112 18.5t112 -18.5t83 -52.5t51.5 -82
t17.5 -106v-320q0 -32 -21.5 -51.5t-57.5 -19.5q-29 0 -47.5 14.5t-25.5 37.5zM349 309h-48q-20 0 -33.5 -11.5t-13.5 -34.5v-36q0 -23 13.5 -34.5t33.5 -11.5t34 11.5t14 33.5v83z" />
    <glyph glyph-name="plus.case" 
d="M282 315h-176v45h176v175h45v-175h175v-45h-175v-176h-45v176z" />
    <glyph glyph-name="minus.case" 
d="M106 315v45h396v-45h-396z" />
    <glyph glyph-name="divide.case" 
d="M262 536q0 17 12.5 29.5t29.5 12.5t29.5 -12.5t12.5 -29.5t-12.5 -29.5t-29.5 -12.5t-29.5 12.5t-12.5 29.5zM262 139q0 17 12.5 29.5t29.5 12.5t29.5 -12.5t12.5 -29.5t-12.5 -29.5t-29.5 -12.5t-29.5 12.5t-12.5 29.5zM106 315v45h396v-45h-396z" />
    <glyph glyph-name="multiply.case" 
d="M336 337l140 -139l-32 -32l-140 139l-139 -139l-32 32l139 139l-139 139l32 32l139 -139l140 139l32 -32z" />
    <glyph glyph-name="equal.case" 
d="M106 212v45h396v-45h-396zM106 407v45h396v-45h-396z" />
    <glyph glyph-name="plusminus.case" 
d="M282 407h-176v45h176v121h45v-121h175v-45h-175v-121h-45v121zM106 212v45h396v-45h-396z" />
    <glyph glyph-name="less.case" 
d="M210 317l239 -239l-32 -31l-270 270l270 270l32 -31z" />
    <glyph glyph-name="greater.case" 
d="M159 556l32 31l270 -270l-270 -270l-32 31l239 239z" />
    <glyph glyph-name="lessequal.case" 
d="M106 57v45h396v-45h-396zM106 356v44l396 180v-48l-338 -154l338 -154v-48z" />
    <glyph glyph-name="greaterequal.case" 
d="M106 57v45h396v-45h-396zM106 176v48l338 154l-338 154v48l396 -180v-44z" />
    <glyph glyph-name="notequal.case" 
d="M261 212l-65 -117l-37 22l53 95h-106v45h396v-45h-241zM396 452h106v-45h-396v45h240l66 117l37 -22z" />
    <glyph glyph-name="acute.case" 
d="M177 738l-13 48l267 73l13 -48z" />
    <glyph glyph-name="breve.case" 
d="M274 743q-23 0 -43 9t-35 24t-24 35t-9 43h49q0 -26 18 -44t44 -18h60q26 0 44 18t18 44h49q0 -23 -9 -43t-24 -35t-35 -24t-43 -9h-60z" />
    <glyph glyph-name="caron.case" 
d="M445 859l21 -44l-162 -77l-162 77l21 44l141 -67z" />
    <glyph glyph-name="cedilla.case" 
d="M299 -134v84h50v-134h-134v50h84z" />
    <glyph glyph-name="circumflex.case" 
d="M304 805l-141 -67l-21 44l162 77l162 -77l-21 -44z" />
    <glyph glyph-name="dieresis.case" 
d="M148 837h76v-76h-76v76zM384 837h76v-76h-76v76z" />
    <glyph glyph-name="dotaccent.case" 
d="M266 837h76v-76h-76v76z" />
    <glyph glyph-name="grave.case" 
d="M164 811l13 48l267 -73l-13 -48z" />
    <glyph glyph-name="hungarumlaut.case" 
d="M154 756l-13 48l127 35l13 -48zM340 759l-13 48l127 35l13 -48z" />
    <glyph glyph-name="macron.case" 
d="M148 774v50h312v-50h-312z" />
    <glyph glyph-name="ogonek.case" 
d="M329 -187q-8 -2 -15 -2h-15q-25 0 -43.5 8.5t-31 22t-18.5 30t-6 33.5q0 10 1.5 22.5t7 25t15.5 25t27 22.5h78q-35 -14 -57.5 -38t-22.5 -51q0 -22 13.5 -36.5t42.5 -14.5q12 0 24 3v-50z" />
    <glyph glyph-name="ring.case" 
d="M190 765q0 24 9 44.5t24.5 36.5t36 25t44.5 9t44.5 -9t36.5 -25t25 -36.5t9 -44.5t-9 -44.5t-25 -36t-36.5 -24.5t-44.5 -9t-44.5 9t-36 24.5t-24.5 36t-9 44.5zM239 765q0 -27 19 -46t46 -19t46.5 19t19.5 46t-19.5 46.5t-46.5 19.5t-46 -19.5t-19 -46.5z" />
    <glyph glyph-name="tilde.case" 
d="M342 742l-79 57l-107 -57l-23 43l133 71l79 -57l107 57l23 -43z" />
    <glyph glyph-name="at.case.ss01" 
d="M349 606h105v-447q0 -37 35 -37q17 0 26.5 10t9.5 27v312q0 48 -14.5 88t-43 68.5t-69.5 44.5t-94 16t-94 -16t-69.5 -44.5t-43 -68.5t-14.5 -88v-242q0 -48 14.5 -88t43 -68.5t69.5 -44.5t94 -16v-42q-63 0 -112 18.5t-83 52.5t-51.5 82t-17.5 106v242q0 58 17.5 106
t51.5 82t83 52.5t112 18.5t112 -18.5t83 -52.5t51.5 -82t17.5 -106v-320q0 -32 -21.5 -51.5t-57.5 -19.5q-29 0 -47.5 14.5t-25.5 37.5q-18 -27 -50.5 -39.5t-64.5 -12.5q-67 0 -109.5 39t-42.5 106v251q0 33 11.5 60t30 45.5t41.5 28.5t46 10q26 0 44 -11.5t27 -30.5v28z
M349 473q0 23 -14 34.5t-34 11.5t-33.5 -11.5t-13.5 -34.5v-246q0 -23 13.5 -34.5t33.5 -11.5t34 11.5t14 33.5v247z" />
    <glyph glyph-name="a.ss01" 
d="M193 206q0 -59 29.5 -86.5t73.5 -27.5q49 0 83 27.5t34 86.5v108q0 59 -30.5 86.5t-79.5 27.5t-79.5 -27.5t-30.5 -86.5v-108zM88 316q0 60 19.5 100.5t49.5 66t66.5 36.5t69.5 11q20 0 39.5 -5t35.5 -13.5t27.5 -19t17.5 -21.5v45h105v-516h-105v49q-6 -11 -17.5 -22
t-27.5 -19t-35.5 -13t-39.5 -5q-33 0 -69.5 11t-66.5 36.5t-49.5 66t-19.5 100.5v112z" />
    <glyph glyph-name="aacute.ss01" 
d="M193 206q0 -59 29.5 -86.5t73.5 -27.5q49 0 83 27.5t34 86.5v108q0 59 -30.5 86.5t-79.5 27.5t-79.5 -27.5t-30.5 -86.5v-108zM88 316q0 60 19.5 100.5t49.5 66t66.5 36.5t69.5 11q20 0 39.5 -5t35.5 -13.5t27.5 -19t17.5 -21.5v45h105v-516h-105v49q-6 -11 -17.5 -22
t-27.5 -19t-35.5 -13t-39.5 -5q-33 0 -69.5 11t-66.5 36.5t-49.5 66t-19.5 100.5v112zM177 584l-13 48l267 73l13 -48z" />
    <glyph glyph-name="abreve.ss01" 
d="M193 206q0 -59 29.5 -86.5t73.5 -27.5q49 0 83 27.5t34 86.5v108q0 59 -30.5 86.5t-79.5 27.5t-79.5 -27.5t-30.5 -86.5v-108zM88 316q0 60 19.5 100.5t49.5 66t66.5 36.5t69.5 11q20 0 39.5 -5t35.5 -13.5t27.5 -19t17.5 -21.5v45h105v-516h-105v49q-6 -11 -17.5 -22
t-27.5 -19t-35.5 -13t-39.5 -5q-33 0 -69.5 11t-66.5 36.5t-49.5 66t-19.5 100.5v112zM274 589q-23 0 -43 9t-35 24t-24 35t-9 43h49q0 -26 18 -44t44 -18h60q26 0 44 18t18 44h49q0 -23 -9 -43t-24 -35t-35 -24t-43 -9h-60z" />
    <glyph glyph-name="acircumflex.ss01" 
d="M193 206q0 -59 29.5 -86.5t73.5 -27.5q49 0 83 27.5t34 86.5v108q0 59 -30.5 86.5t-79.5 27.5t-79.5 -27.5t-30.5 -86.5v-108zM88 316q0 60 19.5 100.5t49.5 66t66.5 36.5t69.5 11q20 0 39.5 -5t35.5 -13.5t27.5 -19t17.5 -21.5v45h105v-516h-105v49q-6 -11 -17.5 -22
t-27.5 -19t-35.5 -13t-39.5 -5q-33 0 -69.5 11t-66.5 36.5t-49.5 66t-19.5 100.5v112zM304 651l-141 -67l-21 44l162 77l162 -77l-21 -44z" />
    <glyph glyph-name="adieresis.ss01" 
d="M193 206q0 -59 29.5 -86.5t73.5 -27.5q49 0 83 27.5t34 86.5v108q0 59 -30.5 86.5t-79.5 27.5t-79.5 -27.5t-30.5 -86.5v-108zM88 316q0 60 19.5 100.5t49.5 66t66.5 36.5t69.5 11q20 0 39.5 -5t35.5 -13.5t27.5 -19t17.5 -21.5v45h105v-516h-105v49q-6 -11 -17.5 -22
t-27.5 -19t-35.5 -13t-39.5 -5q-33 0 -69.5 11t-66.5 36.5t-49.5 66t-19.5 100.5v112zM148 683h76v-76h-76v76zM384 683h76v-76h-76v76z" />
    <glyph glyph-name="agrave.ss01" 
d="M193 206q0 -59 29.5 -86.5t73.5 -27.5q49 0 83 27.5t34 86.5v108q0 59 -30.5 86.5t-79.5 27.5t-79.5 -27.5t-30.5 -86.5v-108zM88 316q0 60 19.5 100.5t49.5 66t66.5 36.5t69.5 11q20 0 39.5 -5t35.5 -13.5t27.5 -19t17.5 -21.5v45h105v-516h-105v49q-6 -11 -17.5 -22
t-27.5 -19t-35.5 -13t-39.5 -5q-33 0 -69.5 11t-66.5 36.5t-49.5 66t-19.5 100.5v112zM164 657l13 48l267 -73l-13 -48z" />
    <glyph glyph-name="amacron.ss01" 
d="M193 206q0 -59 29.5 -86.5t73.5 -27.5q49 0 83 27.5t34 86.5v108q0 59 -30.5 86.5t-79.5 27.5t-79.5 -27.5t-30.5 -86.5v-108zM88 316q0 60 19.5 100.5t49.5 66t66.5 36.5t69.5 11q20 0 39.5 -5t35.5 -13.5t27.5 -19t17.5 -21.5v45h105v-516h-105v49q-6 -11 -17.5 -22
t-27.5 -19t-35.5 -13t-39.5 -5q-33 0 -69.5 11t-66.5 36.5t-49.5 66t-19.5 100.5v112zM148 620v50h312v-50h-312z" />
    <glyph glyph-name="aogonek.ss01" 
d="M193 206q0 -59 29.5 -86.5t73.5 -27.5q49 0 83 27.5t34 86.5v108q0 59 -30.5 86.5t-79.5 27.5t-79.5 -27.5t-30.5 -86.5v-108zM88 316q0 60 19.5 100.5t49.5 66t66.5 36.5t69.5 11q20 0 39.5 -5t35.5 -13.5t27.5 -19t17.5 -21.5v45h105v-516h-105v49q-6 -11 -17.5 -22
t-27.5 -19t-35.5 -13t-39.5 -5q-33 0 -69.5 11t-66.5 36.5t-49.5 66t-19.5 100.5v112zM518 -187q-8 -2 -15 -2h-15q-25 0 -43.5 8.5t-31 22t-18.5 30t-6 33.5q0 10 1.5 22.5t7 25t15.5 25t27 22.5h78q-35 -14 -57.5 -38t-22.5 -51q0 -22 13.5 -36.5t42.5 -14.5q12 0 24 3
v-50z" />
    <glyph glyph-name="aring.ss01" 
d="M189 595q0 24 9 44.5t24.5 36.5t36 25t44.5 9t44.5 -9t36.5 -25t25 -36.5t9 -44.5q0 -27 -11.5 -49.5t-30.5 -38.5q27 -17 37 -36v45h105v-516h-105v49q-6 -11 -17.5 -22t-27.5 -19t-35.5 -13t-39.5 -5q-33 0 -69.5 11t-66.5 36.5t-49.5 66t-19.5 100.5v112q0 44 11 77.5
t29 58t41.5 40.5t49.5 25q-30 33 -30 78zM193 206q0 -59 29.5 -86.5t73.5 -27.5q49 0 83 27.5t34 86.5v108q0 59 -30.5 86.5t-79.5 27.5t-79.5 -27.5t-30.5 -86.5v-108zM238 595q0 -27 19 -46t46 -19t46.5 19t19.5 46t-19.5 46.5t-46.5 19.5t-46 -19.5t-19 -46.5z" />
    <glyph glyph-name="atilde.ss01" 
d="M193 206q0 -59 29.5 -86.5t73.5 -27.5q49 0 83 27.5t34 86.5v108q0 59 -30.5 86.5t-79.5 27.5t-79.5 -27.5t-30.5 -86.5v-108zM88 316q0 60 19.5 100.5t49.5 66t66.5 36.5t69.5 11q20 0 39.5 -5t35.5 -13.5t27.5 -19t17.5 -21.5v45h105v-516h-105v49q-6 -11 -17.5 -22
t-27.5 -19t-35.5 -13t-39.5 -5q-33 0 -69.5 11t-66.5 36.5t-49.5 66t-19.5 100.5v112zM342 588l-79 57l-107 -57l-23 43l133 71l79 -57l107 57l23 -43z" />
    <glyph glyph-name="at.ss01" 
d="M349 516h105v-447q0 -37 35 -37q17 0 26.5 10t9.5 27v382q0 48 -14.5 88t-43 68.5t-69.5 44.5t-94 16t-94 -16t-69.5 -44.5t-43 -68.5t-14.5 -88v-381q0 -48 14.5 -88t43 -68.5t69.5 -44.5t94 -16v-42q-63 0 -112 18.5t-83 52.5t-51.5 82t-17.5 106v381q0 58 17.5 106
t51.5 82t83 52.5t112 18.5t112 -18.5t83 -52.5t51.5 -82t17.5 -106v-390q0 -32 -21.5 -51.5t-57.5 -19.5q-29 0 -47.5 14.5t-25.5 37.5q-18 -27 -50.5 -39.5t-64.5 -12.5q-67 0 -109.5 39t-42.5 106v251q0 33 11.5 60t30 45.5t41.5 28.5t46 10q26 0 44 -11.5t27 -30.5v28z
M349 383q0 23 -14 34.5t-34 11.5t-33.5 -11.5t-13.5 -34.5v-246q0 -23 13.5 -34.5t33.5 -11.5t34 11.5t14 33.5v247z" />
  </font>
</defs>
</svg>
