<svg id="Ebene_1" data-name="Ebene 1" xmlns="http://www.w3.org/2000/svg" xmlns:xlink="http://www.w3.org/1999/xlink" viewBox="0 0 305.32 412.88"><defs><style>.cls-1{fill:url(#Weiß_Schwarz);}.cls-2{fill:url(#Weiß_Schwarz-2);}.cls-3{fill:url(#Weiß_Schwarz-3);}.cls-4{fill:url(#Weiß_Schwarz-4);}.cls-5{fill:url(#Weiß_Schwarz-5);}.cls-6{fill:url(#Weiß_Schwarz-6);}.cls-7{fill:url(#Weiß_Schwarz-7);}.cls-8{fill:url(#Weiß_Schwarz-8);}.cls-9{fill:url(#Weiß_Schwarz-9);}.cls-10{fill:url(#Weiß_Schwarz-10);}.cls-11{fill:url(#Weiß_Schwarz-11);}.cls-12{fill:url(#Weiß_Schwarz-12);}.cls-13{fill:url(#Weiß_Schwarz-13);}.cls-14{fill:url(#Weiß_Schwarz-14);}.cls-15{fill:url(#Weiß_Schwarz-15);}.cls-16{fill:url(#Weiß_Schwarz-16);}.cls-17{fill:url(#Weiß_Schwarz-17);}.cls-18{fill:url(#Weiß_Schwarz-18);}.cls-19{fill:url(#Weiß_Schwarz-19);}.cls-20{fill:url(#Weiß_Schwarz-20);}.cls-21{fill:url(#Weiß_Schwarz-21);}.cls-22{fill:url(#Weiß_Schwarz-22);}.cls-23{fill:url(#Weiß_Schwarz-23);}.cls-24{fill:url(#Weiß_Schwarz-24);}.cls-25{fill:url(#Weiß_Schwarz-25);}.cls-26{fill:url(#Weiß_Schwarz-26);}.cls-27{fill:url(#Weiß_Schwarz-27);}.cls-28{fill:url(#Weiß_Schwarz-28);}.cls-29{fill:url(#Weiß_Schwarz-29);}.cls-30{fill:url(#Weiß_Schwarz-30);}.cls-31{fill:url(#Weiß_Schwarz-31);}.cls-32{fill:url(#Weiß_Schwarz-32);}.cls-33{fill:url(#Weiß_Schwarz-33);}.cls-34{fill:url(#Weiß_Schwarz-34);}.cls-35{fill:url(#Weiß_Schwarz-35);}.cls-36{fill:url(#Weiß_Schwarz-36);}.cls-37{fill:url(#Weiß_Schwarz-37);}.cls-38{fill:url(#Weiß_Schwarz-38);}.cls-39{fill:url(#Weiß_Schwarz-39);}.cls-40{fill:url(#Weiß_Schwarz-40);}.cls-41{fill:url(#Weiß_Schwarz-41);}.cls-42{fill:url(#Weiß_Schwarz-42);}.cls-43{fill:url(#Weiß_Schwarz-43);}.cls-44{fill:url(#Weiß_Schwarz-44);}.cls-45{fill:url(#Weiß_Schwarz-45);}.cls-46{fill:url(#Weiß_Schwarz-46);}.cls-47{fill:url(#Weiß_Schwarz-47);}.cls-48{fill:url(#Weiß_Schwarz-48);}.cls-49{fill:url(#Weiß_Schwarz-49);}.cls-50{fill:url(#Weiß_Schwarz-50);}.cls-51{fill:url(#Weiß_Schwarz-51);}.cls-52{fill:url(#Weiß_Schwarz-52);}.cls-53{fill:url(#Weiß_Schwarz-53);}.cls-54{fill:url(#Weiß_Schwarz-54);}.cls-55{fill:url(#Weiß_Schwarz-55);}.cls-56{fill:url(#Weiß_Schwarz-56);}.cls-57{fill:url(#Weiß_Schwarz-57);}.cls-58{fill:url(#Weiß_Schwarz-58);}</style><linearGradient id="Weiß_Schwarz" x1="183.42" y1="319.13" x2="390.51" y2="319.13" gradientUnits="userSpaceOnUse"><stop offset="0" stop-color="#fff"/><stop offset="1" stop-color="#1d1d1b"/></linearGradient><linearGradient id="Weiß_Schwarz-2" x1="225.71" y1="355.77" x2="363.71" y2="355.77" xlink:href="#Weiß_Schwarz"/><linearGradient id="Weiß_Schwarz-3" x1="144.48" y1="516.69" x2="226.5" y2="516.69" xlink:href="#Weiß_Schwarz"/><linearGradient id="Weiß_Schwarz-4" x1="209.29" y1="272.31" x2="387.44" y2="272.31" xlink:href="#Weiß_Schwarz"/><linearGradient id="Weiß_Schwarz-5" x1="235.53" y1="502.94" x2="279.08" y2="502.94" xlink:href="#Weiß_Schwarz"/><linearGradient id="Weiß_Schwarz-6" x1="252.69" y1="375.42" x2="309.76" y2="375.42" xlink:href="#Weiß_Schwarz"/><linearGradient id="Weiß_Schwarz-7" x1="381.94" y1="555.17" x2="449.8" y2="555.17" xlink:href="#Weiß_Schwarz"/><linearGradient id="Weiß_Schwarz-8" x1="356.95" y1="525.39" x2="427.03" y2="525.39" xlink:href="#Weiß_Schwarz"/><linearGradient id="Weiß_Schwarz-9" x1="338.52" y1="527.8" x2="373.64" y2="527.8" xlink:href="#Weiß_Schwarz"/><linearGradient id="Weiß_Schwarz-10" x1="212.36" y1="521.49" x2="241.24" y2="521.49" xlink:href="#Weiß_Schwarz"/><linearGradient id="Weiß_Schwarz-11" x1="350.94" y1="385.37" x2="373.02" y2="385.37" xlink:href="#Weiß_Schwarz"/><linearGradient id="Weiß_Schwarz-12" x1="217.76" y1="389.83" x2="243.31" y2="389.83" xlink:href="#Weiß_Schwarz"/><linearGradient id="Weiß_Schwarz-13" x1="229.29" y1="397.91" x2="265.19" y2="397.91" xlink:href="#Weiß_Schwarz"/><linearGradient id="Weiß_Schwarz-14" x1="322.83" y1="531.94" x2="361.14" y2="531.94" xlink:href="#Weiß_Schwarz"/><linearGradient id="Weiß_Schwarz-15" x1="359.88" y1="250.62" x2="397.76" y2="250.62" xlink:href="#Weiß_Schwarz"/><linearGradient id="Weiß_Schwarz-16" x1="144.49" y1="551.37" x2="205.45" y2="551.37" xlink:href="#Weiß_Schwarz"/><linearGradient id="Weiß_Schwarz-17" x1="230.52" y1="509.11" x2="252.05" y2="509.11" xlink:href="#Weiß_Schwarz"/><linearGradient id="Weiß_Schwarz-18" x1="260.18" y1="444.15" x2="282.08" y2="444.15" xlink:href="#Weiß_Schwarz"/><linearGradient id="Weiß_Schwarz-19" x1="267.88" y1="394.16" x2="292.42" y2="394.16" xlink:href="#Weiß_Schwarz"/><linearGradient id="Weiß_Schwarz-20" x1="317.58" y1="394.63" x2="346.09" y2="394.63" xlink:href="#Weiß_Schwarz"/><linearGradient id="Weiß_Schwarz-21" x1="179.23" y1="398.86" x2="202.45" y2="398.86" xlink:href="#Weiß_Schwarz"/><linearGradient id="Weiß_Schwarz-22" x1="177.62" y1="370.82" x2="189.83" y2="370.82" xlink:href="#Weiß_Schwarz"/><linearGradient id="Weiß_Schwarz-23" x1="287.64" y1="359.65" x2="311.92" y2="359.65" xlink:href="#Weiß_Schwarz"/><linearGradient id="Weiß_Schwarz-24" x1="380.23" y1="566.54" x2="449.17" y2="566.54" xlink:href="#Weiß_Schwarz"/><linearGradient id="Weiß_Schwarz-25" x1="310.67" y1="392.22" x2="331.15" y2="392.22" xlink:href="#Weiß_Schwarz"/><linearGradient id="Weiß_Schwarz-26" x1="401.02" y1="366.5" x2="421.26" y2="366.5" xlink:href="#Weiß_Schwarz"/><linearGradient id="Weiß_Schwarz-27" x1="285.73" y1="353.74" x2="319.59" y2="353.74" xlink:href="#Weiß_Schwarz"/><linearGradient id="Weiß_Schwarz-28" x1="314.78" y1="455.82" x2="333.26" y2="455.82" xlink:href="#Weiß_Schwarz"/><linearGradient id="Weiß_Schwarz-29" x1="325.07" y1="430.22" x2="340.19" y2="430.22" xlink:href="#Weiß_Schwarz"/><linearGradient id="Weiß_Schwarz-30" x1="235.92" y1="584.6" x2="262.87" y2="584.6" xlink:href="#Weiß_Schwarz"/><linearGradient id="Weiß_Schwarz-31" x1="397.2" y1="396.42" x2="406.24" y2="396.42" xlink:href="#Weiß_Schwarz"/><linearGradient id="Weiß_Schwarz-32" x1="277.76" y1="421.93" x2="290.64" y2="421.93" xlink:href="#Weiß_Schwarz"/><linearGradient id="Weiß_Schwarz-33" x1="284.97" y1="344.84" x2="315.17" y2="344.84" xlink:href="#Weiß_Schwarz"/><linearGradient id="Weiß_Schwarz-34" x1="288.35" y1="401.86" x2="315.12" y2="401.86" xlink:href="#Weiß_Schwarz"/><linearGradient id="Weiß_Schwarz-35" x1="170.92" y1="375.09" x2="176.19" y2="375.09" xlink:href="#Weiß_Schwarz"/><linearGradient id="Weiß_Schwarz-36" x1="272.53" y1="325.03" x2="285.61" y2="325.03" xlink:href="#Weiß_Schwarz"/><linearGradient id="Weiß_Schwarz-37" x1="372.86" y1="248.07" x2="385.35" y2="248.07" xlink:href="#Weiß_Schwarz"/><linearGradient id="Weiß_Schwarz-38" x1="316.24" y1="421.73" x2="326.98" y2="421.73" xlink:href="#Weiß_Schwarz"/><linearGradient id="Weiß_Schwarz-39" x1="172.12" y1="341.51" x2="186.01" y2="341.51" xlink:href="#Weiß_Schwarz"/><linearGradient id="Weiß_Schwarz-40" x1="391.31" y1="370.03" x2="393.69" y2="370.03" xlink:href="#Weiß_Schwarz"/><linearGradient id="Weiß_Schwarz-41" x1="145.98" y1="561.64" x2="178.52" y2="561.64" xlink:href="#Weiß_Schwarz"/><linearGradient id="Weiß_Schwarz-42" x1="367.87" y1="249.59" x2="382.11" y2="249.59" xlink:href="#Weiß_Schwarz"/><linearGradient id="Weiß_Schwarz-43" x1="169.21" y1="350.42" x2="177.26" y2="350.42" xlink:href="#Weiß_Schwarz"/><linearGradient id="Weiß_Schwarz-44" x1="400.36" y1="295.69" x2="401.05" y2="295.69" xlink:href="#Weiß_Schwarz"/><linearGradient id="Weiß_Schwarz-45" x1="392.31" y1="308.36" x2="395.54" y2="308.36" xlink:href="#Weiß_Schwarz"/><linearGradient id="Weiß_Schwarz-46" x1="426.93" y1="594.26" x2="443.52" y2="594.26" xlink:href="#Weiß_Schwarz"/><linearGradient id="Weiß_Schwarz-47" x1="407" y1="334.64" x2="411.9" y2="334.64" xlink:href="#Weiß_Schwarz"/><linearGradient id="Weiß_Schwarz-48" x1="242.96" y1="332.33" x2="252.99" y2="332.33" xlink:href="#Weiß_Schwarz"/><linearGradient id="Weiß_Schwarz-49" x1="337.2" y1="329.04" x2="346.34" y2="329.04" xlink:href="#Weiß_Schwarz"/><linearGradient id="Weiß_Schwarz-50" x1="366.77" y1="226.82" x2="377.45" y2="226.82" xlink:href="#Weiß_Schwarz"/><linearGradient id="Weiß_Schwarz-51" x1="421.37" y1="373.55" x2="425.1" y2="373.55" xlink:href="#Weiß_Schwarz"/><linearGradient id="Weiß_Schwarz-52" x1="210.44" y1="255.47" x2="376.78" y2="255.47" xlink:href="#Weiß_Schwarz"/><linearGradient id="Weiß_Schwarz-53" x1="200.16" y1="245.91" x2="225.14" y2="245.91" xlink:href="#Weiß_Schwarz"/><linearGradient id="Weiß_Schwarz-54" x1="205.32" y1="306.86" x2="209.37" y2="306.86" xlink:href="#Weiß_Schwarz"/><linearGradient id="Weiß_Schwarz-55" x1="211.84" y1="332.24" x2="215.03" y2="332.24" xlink:href="#Weiß_Schwarz"/><linearGradient id="Weiß_Schwarz-56" x1="204.14" y1="257.79" x2="215.95" y2="257.79" xlink:href="#Weiß_Schwarz"/><linearGradient id="Weiß_Schwarz-57" x1="200.6" y1="355.94" x2="202.98" y2="355.94" xlink:href="#Weiß_Schwarz"/><linearGradient id="Weiß_Schwarz-58" x1="279.8" y1="337.58" x2="312.13" y2="337.58" xlink:href="#Weiß_Schwarz"/></defs><path class="cls-1" d="M350.87,219.27a45.52,45.52,0,0,1,4.54,4.57c13.36,17.85,24.44,36.5,26.56,59.62,1.92,21,6.2,41.73,8,62.71,1.17,13.49,0,27.21-.5,40.81-.45,11.77-1.46,23.51-2.29,35.27a36.54,36.54,0,0,0-.54,4.11V372.79c-4.51,22.21-1,44.54-8.56,65.33,1.7-21.41,2.71-42.9,5.29-64.2,2.64-21.74-4.46-42.24-6.24-63.46-1.48,4.14-3.68,8.18-4.24,12.44-.48,3.7-.31,8.52,1.7,11.31,7,9.71,7.18,20.45,6.37,31.48-1,14.08-2,28.18-3.62,42.19s-2,28.25-8,41.39a17.12,17.12,0,0,1-3.41,5.41c1.28-5,3.1-10,3.74-15.14,2.13-17.29,4-34.61,5.67-51.94.92-9.42,1.25-18.89,2-28.32.6-7.69-1.73-14.26-6.41-20.36a36.66,36.66,0,0,1-5.47-10.39c-1.46-4.3-.43-8.31,2.91-11.91,5.57-6,7.32-13.17,4.88-21.2-7-23.11-17.25-44.45-33.38-62.78-17.69-20.09-52.79-30.27-81.27-12.92-20.54,12.51-30.57,32-36.82,54-2.21,7.81-3.48,15.89-5.09,23.86a16.23,16.23,0,0,0,0,7.53c2.37-8.27,4.65-16.57,7.13-24.81,3.64-12.09,7.51-24.07,15-34.53,12.83-18,30.68-25.86,52.32-25.16,14.86.48,29.29,4.45,41.06,13.36,7.54,5.71,13.58,14.08,18.58,22.3,7.38,12.13,13.45,25.08,19.63,37.91,2.43,5.05,1.59,10.44-2.17,14.91-3,3.53-4.21,3.43-8.05,0,8.9-8.74,8.89-12.06,2.54-23.25-7.54-13.3-15.42-26.22-25.36-37.95-8.78-10.36-19.84-16-32.41-20-17.91-5.61-33.74-.43-48.73,8.77-11.21,6.89-17.37,18.06-22.26,29.78-4.78,11.47-9,23.19-13.26,34.87-2.75,7.51-.52,12.88,6.82,17.63-2.95,4.35-7.31,3.16-9.8-2.7-.76-1.79-1.38-3.65-2.4-6.36a18.7,18.7,0,0,0,3.53,16.56c4.71,6.19,4.91,12.34,1,18.45-5.64,8.84-5.3,18.37-3.84,27.93q4.41,28.8,9.7,57.45c1,5.57,3.47,10.88,5.66,17.5-12-18.64-11.41-39.49-16.39-58.81,2.67,18.24,2.14,37.07,10.58,54.18l-1.46.6-15.67-33.55c.91-.07.52-.16.4,0-2.09,2.44-4.38,5.22-7.69,2.28s-.77-5.86,1.11-8.28c3.2-4.13,3.73-8.35,2.77-13.51-1.9-10.27-3-20.69-4.38-31q.89,2.19,1.76,4.36l.62-.16-1.23-16-1.07,0V359.8l-1.45-7.3c-1,3.53,1.79,8.45-4.11,8.92-5.3-5.57-5.28-8.63-.39-13.94a7.19,7.19,0,0,0,1.53-5c-.42-4.93-1.31-9.81-2-14.71-1.25-8.53-2.49-17.05-3.66-25l-2.52-.48c-2.11,9.33,5.42,18.74-.14,28.14-5-21-6.41-42-1.22-63.13l-.81,12.76.69.05c.93-9.1,3.63-18.48,2.26-27.22-1.3-8.34,5.1-11.56,7.33-17.28a85.06,85.06,0,0,1,21.32-31.29c-15.18,24.14-29.48,48.4-28.36,78.33.92-6,1.43-12.15,2.89-18a152.61,152.61,0,0,1,6-17.92,178.24,178.24,0,0,1,7.54-17.37c2.85-5.56,6.36-10.79,9.59-16.16l1.71.93c-3.93,8-7.47,16.29-11.85,24.07a97.87,97.87,0,0,0-12.77,54.61c1.48-9.49,1.55-20.43,5.09-30.11A204.5,204.5,0,0,1,216.12,225c12.75-20.36,31.2-33.91,54.88-39.13,9-2,18.33-2.07,27.61-2.29-12.14-.06-24,1.39-35.37,6a85.94,85.94,0,0,0-29.93,20.28c18.73-14.46,39.27-23.47,63.47-21.79-31,1.23-56.49,12.81-73.3,40.16l3.26-3.54c1.25-1.33,2.56-2.61,3.76-4C248.36,200.45,270.89,191,297.71,192a42.15,42.15,0,0,1,22.89,7.29c-9.53-2-19-5.27-28.58-5.67-24-1-42.77,11.15-58.38,27.67-14.22,15-21.93,33.78-24.27,54.54q-2,31.07-4.05,62.1L207,338c.17-2.26.43-4.52.51-6.78q.57-16.89,1.07-33.79.34-10.87.7-21.76c.85-1.36,2.12-2.61,2.51-4.1,5.07-19.38,12.21-37.78,27.61-51.44,23.18-20.56,49.1-27.06,78.73-14.62,28.55,12,44,35.44,55,62.44,7,17.22,6.33,36.15,9.11,54.31q2.21,14.38,4.37,28.78c.61-6.38,1.16-12.73.49-18.94-1.14-10.56-3.64-21-4.5-31.55-2.23-27.35-10.66-52.22-27.5-74.07A64.23,64.23,0,0,1,350.87,219.27ZM210.44,309.65h1.66c1-7.37,2-14.74,2.91-22.12,2.76-22,10.47-42.12,25.79-58.27,24.93-26.28,61.86-29.21,91.9-7.44,22.81,16.53,35.06,40.56,41.33,67.74.48,2.11,1.16,4.16,1.75,6.24a3.78,3.78,0,0,0,.9-3.41c-2.89-13.48-6.12-26.8-12.92-39-10.75-19.33-23.52-36.22-44.47-46-31.22-14.53-64.44-1.18-82.44,20-12.29,14.44-19.61,31.59-22.76,50.27C212.32,288.2,211.62,299,210.44,309.65Zm-10.28-36.26c5.27-19.69,11.91-38.77,25-54.95C209.9,233.6,202.83,252.49,200.16,273.39Zm11.68,74.9c5.62-11.36,2.65-21.73,0-32.11ZM216,238.63A85.7,85.7,0,0,0,204.14,277C207.9,264.73,212.11,251.08,216,238.63Z" transform="translate(-144.48 -183.58)"/><path class="cls-2" d="M283.74,337.29l-.38-2.94c-4.21,5.8-7.9,11.28-12,16.43-3.2,4-6.44,8.24-10.49,11.25-11.06,8.24-14.94,19-13,32.3a8.1,8.1,0,0,1,.11,1,120.68,120.68,0,0,0,10.57,51.12c2.86,6.55,3.53,14,4.25,21.91-2.44-3.65-5.5-7-7.23-11-9.9-22.7-16.07-46.24-16.8-71.24-.39-13.28,5.47-22.44,15.32-30,4.86-3.74,10-7.1,14.62-11.15,3.42-3,6.12-6.85,9.12-10.3l4.31-5.48c1.35-2.26,3-4.4,4-6.82,2.59-6.34,1-9.39-5.49-11.82-6-2.28-12-4.83-17.92-7.31a19.18,19.18,0,0,1-2.71-1.92c10,1.11,19,1.78,27.95,3.21,5.82.94,8.12,7.67,4.88,13-1.59,2.64-3.51,5.07-5.48,7.89l13.43-5.1A21.53,21.53,0,0,0,299.6,318c-4.75-7.48-1.9-13.39,6.75-16.1a119.42,119.42,0,0,0,19.83-8.75,7.87,7.87,0,0,0,3.39-6.33c-.14-1.53-3.36-3.66-5.44-4-12.93-1.78-25.85-4.23-38.73,1.32-3.84,1.66-8.83,1.56-13.14,1-8.48-1-15.72.55-21.92,6.77-1.32,1.32-3.91,1.38-5.91,2,0-2.19-.86-4.91.13-6.47,3.55-5.59,8.49-9.73,15.23-11.13,9.09-1.9,18.12-4.43,27.31-5.42,16.27-1.76,32.55-1.47,47.89,5.47,5.53,2.49,9,8,8.25,12.42-.33,2-.62,3.83-3.77,3.14-1.49-.32-3.56,1-5.07,2-7.15,4.77-14.19,9.72-21.28,14.57-2.95,2-6.4,3.62-6.48,8.86,9-9.63,19.93-14.19,32-16.5a66.68,66.68,0,0,0,8.61-2.4c7.48-2.53,9.12-6.69,3.85-12.55s-11.77-11.06-18-16.21-12.9-9.37-18.81-14.65c-12.26-10.94-35.34-11.88-48-1.28-13.13,11-22.43,25.25-32.28,39-4.25,5.9-1.55,12.21,5.32,14.62,2,.71,4.19.91,6.35,2.55-4.62,0-9.33.55-13.84-.16a6.84,6.84,0,0,1-5.95-8.43,39,39,0,0,1,4.5-12.48c7-11.48,14.22-22.82,21.88-33.86,7.36-10.62,18.23-15.65,30.84-16.94,14.53-1.47,29.3-.95,40.74,8.93,14.24,12.31,28.36,25.23,36.66,42.74a12,12,0,0,1-.25,9.67c-2.76,4.84-8.05,5.76-13.54,5.49a80.91,80.91,0,0,0-14.77.17c-8,1.1-13.23,6.43-17,13.27a7.32,7.32,0,0,0-.86,3.8c.41,5.83,9.4,14.62,15.18,15,22.05,1.55,34.67,14.64,34.42,36.91-.19,17.59-.07,35.37-2.73,52.66-2,13.19-8.19,25.74-12.56,38.56-.29.85-1.05,1.53-2.32,3.33,2.14-8.16,3.79-15.09,5.78-21.91,7.4-25.41,6.92-51.2,3.81-77.11a18.7,18.7,0,0,0-2.86-7.88C345,350,332,345.09,320.26,338.54c6.28,6.32,12.1,13.2,18.95,18.81,11.06,9.06,14.49,21,15.15,34.37.3,6,.45,11.95.7,17.92A58.55,58.55,0,0,1,350,435.75c-3.16,7.36-4.75,15.48-6.41,23.39A20.44,20.44,0,0,1,332.35,474c4.33-7,5.65-14.28,3.63-22.26-.47-1.83.49-4.23,1.32-6.14,1.92-4.4,4.32-8.59,6.25-13,5.39-12.29,4.18-24.82,2.13-37.7-2.79-17.54-13.24-30.67-22.82-44.45.75,6.26,1.69,12.32,2.05,18.41.11,1.83-1.41,3.76-3.29,5.55,2.56-7.36-.4-13.09-4.15-18.65l-2.3-4.49-3-7.06a14,14,0,0,0-.44-3.4c-.74-2-2.05-3.77-2.62-5.79-1.67-6-5.95-10.19-12.1-10.55-5.27-.32-8.26,3.34-10.49,7.65-.9,1.73-1.92,3.4-2.88,5.09Z" transform="translate(-144.48 -183.58)"/><path class="cls-3" d="M188.74,591.29c15.75-.38,25.23-12.39,25.26-25.44,0-15.22-1.47-30.43-1.73-45.66-.38-22.94-.25-45.89-.34-68.84A39.2,39.2,0,0,1,213,440c0,10.41-.39,20.84.08,31.24,1.27,28.52,2.7,57,4.48,85.54.87,13.94-1.1,21.9-10.22,32.89,6.11-2.1,9.93-5.57,12.38-10.68,3.55-7.4,3.57-15.18,2-22.93-5.09-24.59-5.19-49.52-5.57-74.44-.21-13.47-.23-26.94-.3-40.4a19.83,19.83,0,0,1,.38-2.86l1.42-.22c.5,3.35,1.35,6.69,1.43,10.05.63,26.08.63,52.19,1.85,78.24.59,12.72,3.27,25.34,5.15,38,2.52,17-6.4,28.79-23.47,30.17-8.26.66-16.59.71-24.89.66-5.78,0-11.57-.72-17.54-1.13l2.91-2.62-.29-1.23-17,3.6c-3-6.13,2.57-5.64,6.28-7.47-1.37-.35-2-.58-2.66-.67a9.4,9.4,0,0,1-2.47-.18,12.89,12.89,0,0,1-2.49-1.8c1-.49,2-1.39,3-1.41,4.46-.08,8.95.4,13.39.11,22.44-1.5,34.86-14.87,41.14-35.29,2.49-8.07,4.85-16.19,7.26-24.29,1.93,7.28-2,25-6.17,35.33-4.69,11.46-11.5,21.23-22.92,27.21,7.44,0,13-3.78,17.83-8.79,8-8.2,10-18.88,12-29.52.56-3,.87-6.1,1.44-10.27C213.09,561.54,210.3,582.34,188.74,591.29Z" transform="translate(-144.48 -183.58)"/><path class="cls-4" d="M209.35,275.78c2.36-20.73,10.07-39.46,24.29-54.51,15.61-16.52,34.41-28.65,58.38-27.67,9.58.4,19.05,3.69,28.58,5.67,9.61,3.46,17.74,9.22,25.25,16,1.59,1.43,3.34,2.67,5,4a64.23,64.23,0,0,0,4.26,7.24c16.84,21.85,25.27,46.72,27.5,74.07.86,10.56,3.36,21,4.5,31.55.67,6.21.12,12.56-.49,18.94q-2.19-14.38-4.37-28.78c-2.78-18.16-2.1-37.09-9.11-54.31-11-27-26.47-50.45-55-62.44-29.63-12.44-55.55-5.94-78.73,14.62-15.4,13.66-22.54,32.06-27.61,51.44-.39,1.49-1.66,2.74-2.51,4.1Z" transform="translate(-144.48 -183.58)"/><path class="cls-5" d="M278,506.24c-1.52-.92-3.42-1.53-4.51-2.82-3.84-4.56-7.32-9.43-11.12-14a74.47,74.47,0,0,0-5.79-5.72l-1,.75q9.55,19.72,19.1,39.46l-.57,1.08c-1.89-1.28-4.62-2.14-5.53-3.92-3.89-7.66-7.18-15.61-10.8-23.4a162.83,162.83,0,0,0-9.44-17.87c3.2,10.89,7,21.66,9.44,32.72a79.08,79.08,0,0,0,14.66,31.82c-7-.38-10.55-3.81-12.57-8-3.08-6.36-6.19-13-7.45-19.89a221.7,221.7,0,0,0-15.76-51.25c-.33-.74-.52-1.54-1.2-3.57,2.37.74,4.32.76,5.24,1.74,6.87,7.25,13.46,14.76,20.27,22.06,4.75,5.09,9.73,9.94,14.57,14.94,1.24,1.29,2.32,2.75,3.47,4.13Z" transform="translate(-144.48 -183.58)"/><path class="cls-6" d="M285,355.18c-2.77,3.41-5.9,6.6-8.11,10.33-.81,1.36.31,4.09,1,6a18.81,18.81,0,0,0,2.31,3.92c-1.48,2.38-2.46,4.27-3.73,5.94-3.58,4.71-7.14,9.44-11,13.95a25.48,25.48,0,0,0-6.07,17.89c.06,2.47-1.16,5-1.8,7.45l-2.45.11c-.87-2.43-2.73-5-2.44-7.26,1.47-11.56,1.95-23.41,8.4-35.16.35,3.32.58,5.47.89,8.46,5.79-4.88,9.32-10.31,10.28-17.32a.73.73,0,0,0,0-.49c-5.57-8,1.34-13.42,4.13-19.55,2-4.29,4.86-8.15,7.34-12.2l-.14-.08q-1.91,6.48-3.8,13l1.15.53c2.23-4.47,4.71-8.85,6.6-13.46,1.51-3.65,3.53-6.39,7.55-7,4.54-.7,8.65.18,11.24,4.44,1.29,2.1,2.29,4.39,3.42,6.59-1.65-1.08-3.38-2.06-4.95-3.26-6.66-5.07-8.92-4.82-14.22,1.78-1.24,1.55-2.84,3-3.41,4.84A100.21,100.21,0,0,0,285,355.18Z" transform="translate(-144.48 -183.58)"/><path class="cls-7" d="M449,583.2c-40.94,4.55-62.77-12.15-67-56.35l1.24-.43c1,3.46,1.81,7,3.1,10.35,4.32,11.28,7.8,23.24,17.7,31.17,8.88,7.12,19.93,7.16,30.86,7.62-18.26-3.89-31.86-13.89-41.17-30.63,5.43,4.92,10.2,9.76,15.49,13.92,10,7.85,21.52,12.41,33.88,14.81C450.3,575.06,450.64,575.32,449,583.2Z" transform="translate(-144.48 -183.58)"/><path class="cls-8" d="M373.64,593.9c-3.3-1.83-7-3.19-9.83-5.6-8.44-7.22-7.57-16.85-5.36-26.25,2.32-9.84,6.44-19.33,8-29.26,3-19.16,4.84-38.52,7.13-57.8.79-6.69,1.51-13.38,3.45-20,0,2.62.22,5.27,0,7.87-3.39,34.21-7,68.38-16.4,101.62-2.5,8.79,1.09,19.46,7.56,23.72,2.52,1.66,5.63,2.43,9,3.1-8-5.65-10.38-13.8-10.28-22.54.1-8.38,1.44-16.75,2-23.16,0,7.16.29,16.19-.07,25.2-.4,9.8,9.43,21,21.35,21.75,2.29.15,4.6,0,8.21,0a40,40,0,0,0-4.84-1.5c-13.22-2-19.71-14.51-19.7-25.73,0-6.3.63-12.59,1.05-20.21.42,6.43.74,11.55,1.1,16.68,1.21,17,10.67,26.73,27.67,28.11,6.1.49,12.24.36,18.36.73,1.65.1,3.25,1,4.88,1.51l.1-.09-10.32-.79-.3.89,3.23,2.12-.24.8L405,592.42l-.38.82,4,2.55-35.11-2Z" transform="translate(-144.48 -183.58)"/><path class="cls-9" d="M373.52,593.77c-4.07.4-8.26,1.62-12.17,1-5.68-.87-11.25-2.8-16.71-4.73-6-2.12-7.34-4.64-5.09-10.72,3.39-9.18,7.09-18.26,11.18-27.14,5.46-11.83,7.37-24.37,8.91-37.12,1.79-14.83,3.95-29.63,6.27-44.39.54-3.46,2.4-6.7,3.66-10.05l1.6.56c-1.72,13.47-3.37,27-5.19,40.42-1.39,10.2-2.36,20.53-4.71,30.52-2,8.33-5.63,16.27-8.63,24.35-1.9,5.14-3.85,10.26-6,15.31-1.68,4-1.33,7.35,2.21,10.21,7.33,5.91,15.06,10.92,24.76,11.89Z" transform="translate(-144.48 -183.58)"/><path class="cls-10" d="M212.37,594.67c5.1-3.62,10.61-6.94,15.42-11.08,6.14-5.29,7.65-12.52,5.13-20-6.42-19-7.39-38.66-7.94-58.42-.5-17.92-1.2-35.84-1.77-53.76a20.81,20.81,0,0,1,.55-3.64l1.39-.1c.84,4.81,2.17,9.59,2.42,14.43.58,11.6,1,23.23.87,34.84-.17,26.56,2,52.72,11.82,77.73,1.37,3.5,1.6,7-1.25,9.75a40.28,40.28,0,0,1-22.92,10.85,10.67,10.67,0,0,1-3-.26A1.76,1.76,0,0,1,212.37,594.67Z" transform="translate(-144.48 -183.58)"/><path class="cls-11" d="M356.47,460.55c7.87-18,8.95-37.18,9.6-56.46.38-11.27,1.16-22.54,2.16-33.77,1.13-12.55-2.72-22.79-12.67-30.68-5.67-4.5-6-7.53-1.65-13.39,1.93-2.59,4-4.94-1-6.72-.81-.29-1.61-3.37-1.05-4.13,1-1.33,3.07-1.87,5.61-3.23l.31-1.87.78-.11c.27,1.6.69,3.2.8,4.82.61,9.07-2.61,18.75,6.12,26.26,9.08,7.81,7.69,18.78,7,29.2-1.22,17.2-2.3,34.44-4.2,51.58C366.78,435.49,365.14,449.12,356.47,460.55Z" transform="translate(-144.48 -183.58)"/><path class="cls-12" d="M241.61,459.68c-3.27-6.64-7.57-13-9.56-20-3.43-12.09-5.57-24.55-8-36.92-2.05-10.59-3.51-21.31-5.59-31.9-1.55-7.93-.79-15.61,3.84-22,6.32-8.7,8.89-17.94,7-28.9l8.53,2.83c-5.87,3-3.95,6.59-2.23,10.34,1.87,4.1,1.39,7.84-1.71,11.5-3.5,4.13-7.89,8.35-9.23,13.26-1.69,6.19-1.49,13.22-.67,19.71,1.82,14.32,4.75,28.5,6.82,42.79,2,13.55,5.31,26.57,12.42,38.47Z" transform="translate(-144.48 -183.58)"/><path class="cls-13" d="M249.07,456.5c-3.72-9.63-8.55-19-10.91-29-3.75-15.8-6.32-31.92-8.55-48-2.78-20.16,13-39.24,32.41-40.19.75,0,1.51,0,3.17,0-4.44,3.05-8.21,5.37-11.69,8.08-13.13,10.22-19.38,23.24-17.66,40.32,2.3,22.9,6.23,45.35,14.43,66.93a5.13,5.13,0,0,1,.09,1.37Z" transform="translate(-144.48 -183.58)"/><path class="cls-14" d="M339.67,595.35c-3.75,0-7.5.17-11.23-.05-4-.24-6.53-3.19-5.3-7.24,2.26-7.39,4.64-14.91,8.24-21.7A144.44,144.44,0,0,0,347.82,509,90.7,90.7,0,0,1,361,468.46c0,2.19.3,3.31,0,4.16-5.61,13.51-7.91,27.75-9,42.17-1.15,15.56-6.16,29.74-13.39,43.38a131,131,0,0,0-7.06,16.42C327,587.15,327.8,589,339.67,595.35Z" transform="translate(-144.48 -183.58)"/><path class="cls-15" d="M377.34,234.57l2.52,1.38,1-.62-21-33,.39-.41,21.34,27.53-2.51-5.59c14.55,11,23.52,52.13,15.86,74.63l-1.48-5-.81,0q-.59,2.91-1.16,5.84l-1.55-.15,1.33-21.49.62,0q.46,5.12.92,10.21l2-.2q-1.46-13.16-2.9-26.31l-1.18.08c.27,3.68.54,7.35.77,10.54-3.2-9.33-6.43-19-9.87-28.64-1.1-3.08-2.77-5.95-4.17-8.92Z" transform="translate(-144.48 -183.58)"/><path class="cls-16" d="M195.09,541.09l-4.88,4.17,15.24-21.69c-2.57,20.68-17,47.7-40,53.41a91.85,91.85,0,0,1-16.21,2.18c-1.51.1-3.15-1.78-4.74-2.75,1.51-.83,3-2.29,4.52-2.4C170.92,572.45,185.87,560.94,195.09,541.09Z" transform="translate(-144.48 -183.58)"/><path class="cls-17" d="M232.35,457.85c2.44,8.86,5.62,17.59,7.12,26.61A282.05,282.05,0,0,1,243,519.52a118.74,118.74,0,0,0,9.07,40.85c-8.75-11-13.68-22.24-13.89-34.89-.37-22.19-3.57-44-7.6-65.71a8.41,8.41,0,0,1,0-1.42Z" transform="translate(-144.48 -183.58)"/><path class="cls-18" d="M276.56,446.26l5.52.95c-2.11,3.81-4.89,6.91-5.44,10.37s1.19,7.12,1.9,10.59c-4,.21-10.51-6.48-10.56-11.78a14.23,14.23,0,0,1,.55-4.42c1.94-6.06.35-10.81-4.28-15.2-5.8-5.48-5.29-11,.8-15.38,3.11-2.21,4.72-1.57,5.48,2.19,0,.16.12.35.07.48C267.49,432.79,272.6,439.44,276.56,446.26Z" transform="translate(-144.48 -183.58)"/><path class="cls-19" d="M289.32,374.28c3.88,3.53,4,6.38.94,10.38-5.22,6.79-9.95,14-11.16,22.93-.31,2.31-3,4.31-4.57,6.45-1.76-1.36-4.26-2.37-5.09-4.17-1.11-2.41-2.22-6.27-1.07-8,4-6,9-11.3,13.44-17,1.48-1.92,2.25-4.38,3.63-6.39A36.28,36.28,0,0,1,289.32,374.28Z" transform="translate(-144.48 -183.58)"/><path class="cls-20" d="M325.86,373.43c6.41,9.26,12.76,17.49,18,26.37,3.79,6.35,2.54,11.17-2.55,14.91-1.42,1-3.85.7-6.69,1.12,5.2-11.59,4.13-16.83-4.37-24.51-3.91-3.52-8.15-6.67-12.7-10.37Z" transform="translate(-144.48 -183.58)"/><path class="cls-21" d="M197,380.23c1.39,6.39,1.39,6.39,5.48,7.63-1.11.76-2,1.3-2.87,2a34.29,34.29,0,0,0-2.38,2.5l5.07,2.25-5.11,4.12c3.16,3,2.6,5.86-.16,8.85a11.78,11.78,0,0,0-2,3.92c-.59,1.64-.94,3.37-1.65,6l-6.2-8.39-1.88.25c1.35-2.63,2.69-5.27,4.58-9-2.14.55-3.63,1-5.16,1.3s-3.89.77-4.15.27a10.55,10.55,0,0,1-1.27-5.85c.13-1,2.51-2.67,3.5-2.44,5.32,1.24,8.09-4.55,13-4.46.39,0,1-2.49,1.18-3.87A41.45,41.45,0,0,0,197,380.23Z" transform="translate(-144.48 -183.58)"/><path class="cls-22" d="M182.8,390.91c-3.71.48-4.87-1.3-5-4.39-.39-8.15-.31-16.14,2.91-23.92,1.54-3.73,1.91-7.94,2.82-11.94,6.56,1.16,8.38,5.48,3.72,10.42-2.56,2.72-2.12,4.83-1.5,8C187.22,376.49,185.87,383.77,182.8,390.91Z" transform="translate(-144.48 -183.58)"/><path class="cls-23" d="M289.89,364.28c-4.18-4.16-1.75-7.6.93-10.74,3.92-4.59,10.13-5,16.3-1.42q6.33,3.69,4.31,11c-1.33,4.74-6,7-14.11,6.42a28.4,28.4,0,0,1,3.25-3.89c2.29-1.92,4.75-4.16,2.74-7-1.41-2-4.77-4.4-6.58-3.94-2.49.62-4.51,3.65-6.38,5.93C289.68,361.38,290,363,289.89,364.28Z" transform="translate(-144.48 -183.58)"/><path class="cls-24" d="M380.59,541.88c1.83,8.18,3.13,16.54,5.63,24.51,3.57,11.4,12.59,17.49,23.75,19.39,9.91,1.68,20.12,1.58,30.19,2.36,3,.24,6,.77,9,1.17l-.11,1.61a8.94,8.94,0,0,1-2.6.59c-10.88-.86-21.73-2.24-32.61-2.6-20.36-.66-30.88-16.28-32.81-33.57-.51-4.57-.55-9.19-.81-13.78Z" transform="translate(-144.48 -183.58)"/><path class="cls-25" d="M312.33,374c.67,1.45,1.37,2.88,2,4.36s.76,3.07,1.64,4.22c4.12,5.36,8.71,10.39,12.53,15.94,1.66,2.4,2.1,5.75,2.64,8.76.18,1-1,3-1.68,3.11a4.43,4.43,0,0,1-3.65-1.56c-2.59-4.4-4.75-9.06-7.19-13.55a46.13,46.13,0,0,0-4.44-7.09C311,384.25,309.15,380.09,312.33,374Z" transform="translate(-144.48 -183.58)"/><path class="cls-26" d="M408.45,339.37c-1.08,5.37.51,9.68,4.67,13.35,1.32,1.15,1.84,3.36,2.42,5.18,1.76,5.5,3.37,11,5,16.57.24.79.87,1.73.64,2.35-1.07,2.88-3,5.58-3.42,8.52-.38,2.54.83,5.31,1.34,8l-1.18.32L412.78,389c0-.11,0-.58.16-.71,5.28-3.69,6.27-7.87,3.29-14-2.48-5.1-3.3-11-4.73-16.62-1.05-4.12-4.67-6.78-10.48-6.32,2.8-4.43,5.17-8.16,7.54-11.9Z" transform="translate(-144.48 -183.58)"/><path class="cls-27" d="M315.17,351.27l2.3,4.49c.49,1.76.93,3.52,1.46,5.27,1.9,6.29-.23,8.53-6.84,7.16,3.71-9.1.7-18.37-7.19-22.19-8.29-4-14.1-1.59-19.17,8a74,74,0,0,1,3.13-7.23c5.32-9.48,11.69-10.34,19.15-2.72C310.38,346.46,312.78,348.86,315.17,351.27Z" transform="translate(-144.48 -183.58)"/><path class="cls-28" d="M314.78,443.68c7-1.94,17.07,4.47,18.39,11.51.87,4.65-4.75,12.08-10.84,13.12,3-4.59,5.84-9.13,2.31-13.8C321.79,450.73,318.27,447.46,314.78,443.68Z" transform="translate(-144.48 -183.58)"/><path class="cls-29" d="M325.07,443.76c2.54-5.86,4.5-10.55,6.58-15.19,2-4.37,2.48-8.45-2.38-11.86,9.05-.41,13,5.2,9.84,13.82C336.85,436.68,332,440.57,325.07,443.76Z" transform="translate(-144.48 -183.58)"/><path class="cls-30" d="M257.55,575.05c1.36,2.45,2.73,4.89,4.08,7.34,3.28,6-.22,12.27-7.12,12.63-3.13.16-6.29-.1-9.44-.13a87,87,0,0,1-9.15-.37c11.23-2,22.53-3.87,20.12-20.38Z" transform="translate(-144.48 -183.58)"/><path class="cls-31" d="M402.14,407.91c-.89-3.27-1.85-6.44-2.6-9.66-.49-2.11-.61-4.3-1-6.43-.32-1.71-.8-3.4-1.33-5.59a11.63,11.63,0,0,1,2.74-1,46.38,46.38,0,0,1,5.15-.31c.05,1.86,0,3.73.15,5.58a33.79,33.79,0,0,0,.57,6.22C407,401.68,405.6,405.7,402.14,407.91Z" transform="translate(-144.48 -183.58)"/><path class="cls-32" d="M288.89,429c-2.17,0-5.05.87-6.35-.19-2.21-1.81-5.31-6.29-4.7-7.09,2.26-3,5.84-5,9.08-7.07.39-.25,2.5,1,2.55,1.65a8.42,8.42,0,0,1-.88,4.92c-1.64,2.53-3.91,4.69,2.05,6.68Z" transform="translate(-144.48 -183.58)"/><path class="cls-33" d="M315.17,351.27c-2.39-2.41-4.79-4.81-7.16-7.24-7.46-7.62-13.83-6.76-19.15,2.72a74,74,0,0,0-3.13,7.23l-.76,1.2a100.21,100.21,0,0,1,2.21-10.55c.57-1.8,2.17-3.29,3.41-4.84,5.3-6.6,7.56-6.85,14.22-1.78,1.57,1.2,3.3,2.18,4.95,3.26l2.37,2.94C313.14,346.56,314.15,348.92,315.17,351.27Z" transform="translate(-144.48 -183.58)"/><path class="cls-34" d="M315.12,403.09c-9.05,5-17.46-.34-26.77-1.34,2.57-3.15,4.64-3.6,8.34-2.52s8.38.78,12.32-.17C313.48,398,314.59,398.19,315.12,403.09Z" transform="translate(-144.48 -183.58)"/><path class="cls-35" d="M173.05,386.05c-3-8.37-2.79-17,.35-21.92C177.2,372.15,177.14,382.24,173.05,386.05Z" transform="translate(-144.48 -183.58)"/><path class="cls-36" d="M282.1,329.19l-4.31,5.48-4.33,2.78-.93-1c2.87-3.61,6.24-6.95,8.47-10.92,2.42-4.32,1.1-8.82-2.6-13,7.25,2.46,8.51,5,6.07,11.15C283.75,325.59,282.89,327.38,282.1,329.19Z" transform="translate(-144.48 -183.58)"/><path class="cls-37" d="M372.86,234.81c6.75,7.62,12.2,15.7,12.49,25.94l-1.35.58Z" transform="translate(-144.48 -183.58)"/><path class="cls-38" d="M316.24,415.7c3.71-1.3,11.3,3,10.71,6.55-.33,2-2.95,3.61-4.85,5.75Z" transform="translate(-144.48 -183.58)"/><path class="cls-39" d="M186,337c-2.17,3.47-3.49,6.08-5.33,8.24a4.06,4.06,0,0,1-3.87.52,22.35,22.35,0,0,1-4.67-4.41,2.36,2.36,0,0,1,1-1.49C177.15,338.87,181.19,338,186,337Z" transform="translate(-144.48 -183.58)"/><path class="cls-40" d="M393.69,352.78v34.5l-2.38-.07C392.24,373.72,393.17,360.23,393.69,352.78Z" transform="translate(-144.48 -183.58)"/><path class="cls-41" d="M178.52,555.39c-9.16,7.2-20.26,11.29-32.54,12.5Z" transform="translate(-144.48 -183.58)"/><path class="cls-42" d="M382.11,264.09c-4.45-9.06-9.15-18.63-14.24-29C375.36,244.33,380.61,253.64,382.11,264.09Z" transform="translate(-144.48 -183.58)"/><path class="cls-43" d="M169.21,347c5.06-.72,7.82-.09,8,3.69.06,1.09-1.59,2.3-2.46,3.45Z" transform="translate(-144.48 -183.58)"/><path class="cls-44" d="M401.05,282.53v26.31l-.69,0v-26.1Z" transform="translate(-144.48 -183.58)"/><path class="cls-45" d="M394.07,316c-.55-4.84-1.11-9.68-1.76-15.36C396.24,304.62,396.28,305,394.07,316Z" transform="translate(-144.48 -183.58)"/><path class="cls-46" d="M426.93,592.16l16.59,1.62-.54,2.68L427,592.06Z" transform="translate(-144.48 -183.58)"/><path class="cls-47" d="M408.56,339.47c-.48-3-1-5.94-1.56-9.67,1.14.18,3.14-.08,3.71.7a6.4,6.4,0,0,1,1.05,4.82c-.43,1.53-2.16,2.71-3.31,4Z" transform="translate(-144.48 -183.58)"/><path class="cls-48" d="M252.86,334.11c-2.21.13-4.48.62-6.6.25-1-.17-1.66-2-3.3-4.19l10,1.69Z" transform="translate(-144.48 -183.58)"/><path class="cls-49" d="M337.2,328.51l8.68-1.57.46,2.09-8.49,2.11Z" transform="translate(-144.48 -183.58)"/><path class="cls-50" d="M377.45,234.47l-10.68-14.42,1.49-1,9.08,15.48Z" transform="translate(-144.48 -183.58)"/><path class="cls-51" d="M423.53,368.12l1.57,10.59-1.35.27q-1.19-5.31-2.38-10.61Z" transform="translate(-144.48 -183.58)"/><path class="cls-52" d="M210.44,309.65c1.18-10.68,1.88-21.45,3.65-32,3.15-18.68,10.47-35.83,22.76-50.27,18-21.15,51.22-34.5,82.44-20,20.95,9.74,33.72,26.63,44.47,46,6.8,12.25,10,25.57,12.92,39a3.78,3.78,0,0,1-.9,3.41c-.59-2.08-1.27-4.13-1.75-6.24-6.27-27.18-18.52-51.21-41.33-67.74-30-21.77-67-18.84-91.9,7.44-15.32,16.15-23,36.25-25.79,58.27-.92,7.38-1.94,14.75-2.91,22.12Z" transform="translate(-144.48 -183.58)"/><path class="cls-53" d="M200.16,273.39c2.67-20.9,9.74-39.79,25-54.95C212.07,234.62,205.43,253.7,200.16,273.39Z" transform="translate(-144.48 -183.58)"/><path class="cls-54" d="M209.29,275.7q-.36,10.88-.7,21.76-.53,16.89-1.07,33.79c-.08,2.26-.34,4.52-.51,6.78l-1.69-.12q2-31,4.05-62.1Z" transform="translate(-144.48 -183.58)"/><path class="cls-55" d="M211.84,348.29V316.18C214.49,326.56,217.46,336.93,211.84,348.29Z" transform="translate(-144.48 -183.58)"/><path class="cls-56" d="M216,238.63c-3.84,12.45-8,26.1-11.81,38.32A85.7,85.7,0,0,1,216,238.63Z" transform="translate(-144.48 -183.58)"/><path class="cls-57" d="M200.68,359.8V347.88l1.07,0,1.23,16-.62.16q-.87-2.17-1.76-4.36Z" transform="translate(-144.48 -183.58)"/><path class="cls-58" d="M312.13,344.21l-2.37-2.94c-1.13-2.2-2.13-4.49-3.42-6.59-2.59-4.26-6.7-5.14-11.24-4.44-4,.62-6,3.36-7.55,7-1.89,4.61-4.37,9-6.6,13.46l-1.15-.53q1.9-6.48,3.8-13c1-1.69,2-3.36,2.88-5.09,2.23-4.31,5.22-8,10.49-7.65,6.15.36,10.43,4.59,12.1,10.55.57,2,1.88,3.81,2.62,5.79A14,14,0,0,1,312.13,344.21Z" transform="translate(-144.48 -183.58)"/></svg>