<svg id="Arm_left" data-name="Arm left" xmlns="http://www.w3.org/2000/svg" viewBox="0 0 191.84 151.8"><defs><style>.cls-1{fill:#c1a070;stroke-width:3px;}.cls-1,.cls-2{stroke:#dbc39c;}.cls-1,.cls-2,.cls-3{stroke-miterlimit:10;}.cls-2,.cls-3{fill:none;stroke-width:2px;}.cls-3{stroke:#d3b881;}</style></defs><path class="cls-1" d="M927.33,378.82s16.62,14,9.65,26.95-53.59,37.69-60.67,43.54-49.38-12.26-55.6,26.65S801.5,524.44,791.32,525s-27.16,8.1-38.19-7.12,9-8.74,11.79-18.41-6.94-23.3-2.37-33.45,17.43-16.79,17.89-28.7,17.85-20.57,26.56-22.83,17.11-10.35,31.09-19.82S917,377.12,927.33,378.82Z" transform="translate(-748.35 -377.09)"/><path class="cls-2" d="M821,483.15S794.5,460.5,782.5,463.5" transform="translate(-748.35 -377.09)"/><path class="cls-2" d="M779,445.18s15-6.81,25.66,3S820,456,820,456" transform="translate(-748.35 -377.09)"/><path class="cls-2" d="M767.38,478.15c6.62,3.85,10.65,9.15,6.14,12.5s-10.53-4.5-8-5.07" transform="translate(-748.35 -377.09)"/><path class="cls-2" d="M796.5,522.5s-6.5-11.54,0-18-1.44-13.33-1.44-13.33" transform="translate(-748.35 -377.09)"/><path class="cls-2" d="M799.05,421.91s-1,6.9,19,8.5,19.75,12.47,19.75,12.47" transform="translate(-748.35 -377.09)"/><path class="cls-2" d="M838.53,427.72s14.72,8.42,17,21.75" transform="translate(-748.35 -377.09)"/><path class="cls-3" d="M888,393.27s-.8,17.41,9.87,21.37S913,426,913,426" transform="translate(-748.35 -377.09)"/></svg>