<svg id="Bein_Links" data-name="Bein Links" xmlns="http://www.w3.org/2000/svg" viewBox="0 0 179.68 446.87"><defs><style>.cls-1{fill:#c1a070;stroke-width:3px;}.cls-1,.cls-2{stroke:#dbc39c;stroke-miterlimit:10;}.cls-2{fill:none;stroke-width:2px;}</style></defs><path class="cls-1" d="M874,493s-17,32.38-20.27,50.44,11.06,67.2-3.08,80.13-27.15.93-25.15,19.93,5.49,28.07,12.25,27,14,3.93,11.9,6.44-8.56,35.79-24.35,33.16-3.21,38.83,0,39.6,13.74,9,19,7.36,8.23,16.4-17.77,34.4S790,839.63,801.73,856.56s-.74,93.62,36,78.28,47.13-35.64,44.94-52.49,5.85-41.67,16.83-37.76,30,6.26,44-18.42,37.6-37,27.8-71.83-29.8-66-27.8-76.44,5-26-8-26.7-30.66-15.93-27.83-31.31S891.5,536.5,904,527,873.5,492.5,874,493Z" transform="translate(-795.44 -491.49)"/><path class="cls-2" d="M853.73,543.44s5.78,25,18,23.29S885.28,571,885.28,571" transform="translate(-795.44 -491.49)"/><path class="cls-2" d="M841.8,629s11.2,14,7.2,23-13.59,6-14.79,0" transform="translate(-795.44 -491.49)"/><path class="cls-2" d="M905.67,629s-29.16-1.32-33.91,14.34-14.1,14.33-14.1,14.33" transform="translate(-795.44 -491.49)"/><path class="cls-2" d="M931,650.42s-11.07,1.63-8,10.1,13.38,5.56,15.75,4.47c4.31-2-.45-10.63-8.07-7.31" transform="translate(-795.44 -491.49)"/><path class="cls-2" d="M825.3,710.14S845,731,838,742s-12.7-10.57-12.7-10.57" transform="translate(-795.44 -491.49)"/><path class="cls-2" d="M899.52,844.59s-14.18-46.42,6.15-59,16.74-36.85,16.74-36.85" transform="translate(-795.44 -491.49)"/><path class="cls-2" d="M806.81,811.24s.2-10.1,32.69-6.67,37.14-7.91,37.14-7.91" transform="translate(-795.44 -491.49)"/><path class="cls-2" d="M806.81,864.31s7-17.61,25.59-14" transform="translate(-795.44 -491.49)"/><path class="cls-2" d="M882.69,882.35s-31.62-4.62-40.66,16-16.73,14-16.73,14" transform="translate(-795.44 -491.49)"/><path class="cls-2" d="M946,686s-19.71-2.73-31.7,24.14S865,740,865,740" transform="translate(-795.44 -491.49)"/></svg>