<svg id="Bein_Rechts" data-name="Bein Rechts" xmlns="http://www.w3.org/2000/svg" viewBox="0 0 233.78 331.91"><defs><style>.cls-1{fill:#c1a070;stroke-width:3px;}.cls-1,.cls-2{stroke:#dbc39c;stroke-miterlimit:10;}.cls-2{fill:none;stroke-width:2px;}</style></defs><path class="cls-1" d="M968.66,509.5s36.84,20.44,32.34,47.72S971.8,573,982.65,588.74s2.36,42.45,41.6,54.61,59.74,55.45,59,78.8c-.46,14.59,45.26,63.35,32.26,101.35-13.4,39.17-57-13-65,1-22.66,39.65-65-27.07-64.5-49.53s-28.61-41.47-37-47.34c-24.5-17.13,10.69-55.69-22-70-32.5-14.18-39-99.49-39-99.49-.47.31-5.41-44.29,13.56-44.49S968.66,509.5,968.66,509.5Z" transform="translate(-885.55 -507.97)"/><path class="cls-2" d="M982.65,588.74s-38.56-24.86-29.1-45.3,25.68-.44,24.57,3.56-3.23,14.12-11.18,13.06" transform="translate(-885.55 -507.97)"/><path class="cls-2" d="M902,573s18.86,7.09,31.43,8S956,591.38,957,594.69" transform="translate(-885.55 -507.97)"/><path class="cls-2" d="M995.25,622.49S975,608,963,619s-29.2,3.49-29.2,3.49" transform="translate(-885.55 -507.97)"/><path class="cls-2" d="M976.87,751s-10.37-19,8.3-33,38.38,10,50.83,2" transform="translate(-885.55 -507.97)"/><path class="cls-2" d="M1082,734s-32-4-41,9-22,11-22,11" transform="translate(-885.55 -507.97)"/><path class="cls-2" d="M1024.25,643.35s-43.42,10.14-52.84,32.9" transform="translate(-885.55 -507.97)"/><path class="cls-2" d="M986,775s18-12,35-2" transform="translate(-885.55 -507.97)"/><path class="cls-2" d="M1050.5,824.5s-4.23-28.58,17.64-27.84c9.86.34,18.86,6.34,15.13,14.58-2.43,5.37-16.29,15.24-15.78,0" transform="translate(-885.55 -507.97)"/></svg>