<svg id="arm_rechts" data-name="arm rechts" xmlns="http://www.w3.org/2000/svg" viewBox="0 0 197.53 202.79"><defs><style>.cls-1{fill:#c1a070;stroke-width:3px;}.cls-1,.cls-2{stroke:#dbc39c;}.cls-1,.cls-2,.cls-3{stroke-miterlimit:10;}.cls-2,.cls-3{fill:none;stroke-width:2px;}.cls-3{stroke:#d3b881;}</style></defs><path class="cls-1" d="M915.25,416.89s7.64-15.55,15.29-16.35,7.9-1.54,14.35,4.84S946,428.32,963,445.54s32.73,7.31,43.22,15.81,28,15.19,38.61,24.85,12.34,7.66,15.68,12.53,6.53,18,3.12,18.81,1.35,11.21,7.93,11.13,23.66,17.37,24,25.43,4.26,19.56,7.38,20.06,9.69,15.62,0,18.25-23.85,15.1-32.38.3-23.7-26.78-37.81-29.36-23-17.54-22.65-28.64-23-29.71-37.3-30.29-21.4-34.05-24.81-44S914.9,444.71,913.79,437,914.85,417.11,915.25,416.89Z" transform="translate(-911.98 -398.53)"/><path class="cls-2" d="M919.23,442.57s13.77,3.9,16.27-2.34,6.79-2.44,6.79-2.44" transform="translate(-911.98 -398.53)"/><path class="cls-2" d="M966.94,449.07S956,455.29,960,463.65s3,11.84,3,11.84" transform="translate(-911.98 -398.53)"/><path class="cls-2" d="M972.77,504.42s-8.17-10.32-1.47-16.87S991,481,991,474" transform="translate(-911.98 -398.53)"/><path class="cls-2" d="M1054.56,493.74S1032,504,1040,516s11.92-2.3,11.92-2.3" transform="translate(-911.98 -398.53)"/><path class="cls-2" d="M1010.75,538.37s3.62-8.63,19.43,0S1053,542,1053,542" transform="translate(-911.98 -398.53)"/><path class="cls-2" d="M1053,569.37s5-17.37,19-15.37,11-7,11-7" transform="translate(-911.98 -398.53)"/><path class="cls-3" d="M1098,571s-15.46-.19-14.73,5.4,5,5.08,7.35,3.84" transform="translate(-911.98 -398.53)"/></svg>