<svg id="Head" xmlns="http://www.w3.org/2000/svg" viewBox="0 0 111.05 120.15"><defs><style>.cls-1{fill:#c1a070;stroke-width:3px;}.cls-1,.cls-2{stroke:#dbc39c;stroke-miterlimit:10;}.cls-2{fill:none;stroke-width:2px;}</style></defs><path class="cls-1" d="M900.5,355.5s5,1,5-5,3-9,3-9a22.43,22.43,0,0,0,0-12.7c-2-7.3,22-45.68,51.5-40.49s18.5,17.19,24.5,19.19S993,321.7,993,321.7s-2.48,11.8,4.52,19.8,10.63,10,10,27c-.5,13.5-22,19-22,19s-20,2.27-28,13c-5.42,7.23-11,4-13,2-22.2-22.2-36.38-17.11-44-39.38C898.3,356.68,900.5,355.5,900.5,355.5Z" transform="translate(-898.02 -286.33)"/><path class="cls-1" d="M957,335.73s4,4.27,10.76,0" transform="translate(-898.02 -286.33)"/><circle class="cls-1" cx="105.98" cy="78.67" r="3"/><path class="cls-1" d="M986,334s5,3,7-.16" transform="translate(-898.02 -286.33)"/><path class="cls-2" d="M910.67,320.4a39.51,39.51,0,0,0,26.83,6.1c16-2,21-1,21-1" transform="translate(-898.02 -286.33)"/><path class="cls-2" d="M962.8,305.68c16-2,21-1,21-1" transform="translate(-898.02 -286.33)"/><path class="cls-2" d="M941.5,346.5s-9,2-9,9-26.71,5-29.36,0" transform="translate(-898.02 -286.33)"/><path class="cls-2" d="M917.23,310s5.27,8.55,20.27,8.55" transform="translate(-898.02 -286.33)"/><path class="cls-2" d="M992.5,324.5s-5.7-3-9.85,0" transform="translate(-898.02 -286.33)"/><path class="cls-2" d="M943.5,380.5s11.6-1.63,19.3,2.18,18.85,4.74,24.78,3.28" transform="translate(-898.02 -286.33)"/></svg>