<svg id="Body" xmlns="http://www.w3.org/2000/svg" viewBox="0 0 134.78 174.29"><defs><style>.cls-1{fill:#c1a070;stroke-width:3px;}.cls-1,.cls-2{stroke:#dbc39c;stroke-miterlimit:10;}.cls-2{fill:none;stroke-width:2px;}</style></defs><path class="cls-1" d="M895.21,357s-13.1,2-18.65,11.47-31,12.5-31.8,29S870,455.88,870,455.88s6,4.12-2,19.12,6,18,6,18,4,34,30,34,67,9,70-22,4.6-52.75-2.7-62.38-12.22-10.3-7.76-19,10.22-16.34-3.16-19.5S937.64,375,920.32,368.5,906.42,356.06,895.21,357Z" transform="translate(-843.25 -355.43)"/><path class="cls-2" d="M850.65,386s4.69,31,26.09,28S907,421.91,907,421.91" transform="translate(-843.25 -355.43)"/><path class="cls-2" d="M859.27,380.15s7.41-5.91,19.07,6.47,28,8.44,32.33,8.41,13.06,2,16.7,5.47S939,414,949,411" transform="translate(-843.25 -355.43)"/><path class="cls-2" d="M876.56,369.11S886.7,358.68,901,386" transform="translate(-843.25 -355.43)"/><path class="cls-2" d="M871.84,464.94s13.43-10.06,38.79,0,32.87,0,32.87,0" transform="translate(-843.25 -355.43)"/><path class="cls-2" d="M971.3,442.62s-10.61-5.37-25.95,0" transform="translate(-843.25 -355.43)"/><path class="cls-2" d="M956.57,404.16s-3.31,10.09,2.53,9.84.53-4.92.53-4.92" transform="translate(-843.25 -355.43)"/><path class="cls-2" d="M874,493s8.68-.39,7.34-7.2-8.67-9.88-9.5-5.84,5.27,6.19,4.72,5.62" transform="translate(-843.25 -355.43)"/><path class="cls-2" d="M881.34,513.7s8.66-21.37,32.16-11.53,35.5,1.55,35.5,1.55,5.09-6.56,15.55-4.14" transform="translate(-843.25 -355.43)"/></svg>