<svg xmlns="http://www.w3.org/2000/svg" viewBox="0 0 1881 9717.08"><defs><style>.cls-1{fill:lime;}.cls-2{fill:#22b573;}.cls-3{fill:#00a99d;}.cls-4{fill:aqua;}.cls-5{fill:blue;}.cls-6{fill:#2e3192;}.cls-7{fill:#ed5201;}.cls-8{fill:#ed1c24;}.cls-9{fill:#ff931e;}.cls-10{fill:#f7b029;}.cls-11{fill:#f0f;}.cls-12{fill:#ff005d;}.cls-13{fill:#ff1d91;}</style></defs><g id="Ebene_10" data-name="Ebene 10"><path class="cls-1" d="M0,268.83S484.58,35.35,994,252.35c681.6,290.35,887,106.93,887,106.93V1113s-484.58,295.32-1032.19,118.32S0,1145.19,0,1145.19Z" transform="translate(0 -160)"/><path class="cls-2" d="M0,354s484.58-233.48,994-16.48c681.6,290.36,887,106.93,887,106.93v753.75s-484.58,295.32-1032.19,118.32S0,1230.39,0,1230.39Z" transform="translate(0 -160)"/><path d="M0,470s484.58-233.48,994-16.48c681.6,290.36,887,106.93,887,106.93v753.75s-484.58,295.32-1032.19,118.32S0,1346.39,0,1346.39Z" transform="translate(0 -160)"/><path class="cls-3" d="M0,627s484.58-233.48,994-16.48c681.6,290.36,887,106.93,887,106.93v753.75s-484.58,295.32-1032.19,118.32S0,1503.39,0,1503.39Z" transform="translate(0 -160)"/><path class="cls-4" d="M0,742s484.58-233.48,994-16.48c681.6,290.36,887,106.93,887,106.93v753.75s-484.58,295.32-1032.19,118.32S0,1618.39,0,1618.39Z" transform="translate(0 -160)"/><path class="cls-5" d="M0,855s484.58-233.48,994-16.48c681.6,290.36,887,106.93,887,106.93v753.75s-484.58,295.32-1032.19,118.32S0,1731.39,0,1731.39Z" transform="translate(0 -160)"/><path class="cls-6" d="M0,1008s484.58-233.48,994-16.48c681.6,290.36,887,106.93,887,106.93v753.75s-484.58,295.32-1032.19,118.32S0,1884.39,0,1884.39Z" transform="translate(0 -160)"/><path d="M0,1108s484.58-233.48,994-16.48c681.6,290.36,887,106.93,887,106.93v753.75s-484.58,295.32-1032.19,118.32S0,1984.39,0,1984.39Z" transform="translate(0 -160)"/><path class="cls-7" d="M0,1277s484.58-233.48,994-16.48c681.6,290.36,887,106.93,887,106.93v753.75s-484.58,295.32-1032.19,118.32S0,2153.39,0,2153.39Z" transform="translate(0 -160)"/><path class="cls-8" d="M0,1432s484.58-233.48,994-16.48c681.6,290.36,887,106.93,887,106.93v753.75s-484.58,295.32-1032.19,118.32S0,2308.39,0,2308.39Z" transform="translate(0 -160)"/><path class="cls-9" d="M0,1598.36s484.58-233.48,994-16.48c681.6,290.35,887,106.93,887,106.93v753.75s-484.58,295.32-1032.19,118.32S0,2474.72,0,2474.72Z" transform="translate(0 -160)"/><path class="cls-10" d="M0,1735.91s484.58-233.48,994-16.48c681.6,290.35,887,106.93,887,106.93v753.75s-484.58,295.32-1032.19,118.32S0,2612.27,0,2612.27Z" transform="translate(0 -160)"/><path d="M0,1821.11s484.58-233.48,994-16.48c681.6,290.35,887,106.93,887,106.93v753.75s-484.58,295.32-1032.19,118.32S0,2697.47,0,2697.47Z" transform="translate(0 -160)"/><path class="cls-11" d="M0,1937.11s484.58-233.48,994-16.48c681.6,290.35,887,106.93,887,106.93v753.75s-484.58,295.32-1032.19,118.32S0,2813.47,0,2813.47Z" transform="translate(0 -160)"/><path class="cls-12" d="M0,2094.11s484.58-233.48,994-16.48c681.6,290.35,887,106.93,887,106.93v753.75s-484.58,295.32-1032.19,118.32S0,2970.47,0,2970.47Z" transform="translate(0 -160)"/><path class="cls-13" d="M0,2209.11s484.58-233.48,994-16.48c681.6,290.35,887,106.93,887,106.93v753.75s-484.58,295.32-1032.19,118.32S0,3085.47,0,3085.47Z" transform="translate(0 -160)"/><path d="M0,2322.11s484.58-233.48,994-16.48c681.6,290.35,887,106.93,887,106.93v753.75s-484.58,295.32-1032.19,118.32S0,3198.47,0,3198.47Z" transform="translate(0 -160)"/><path class="cls-1" d="M0,2439.3s484.58-233.47,994-16.47c681.6,290.35,887,106.92,887,106.92v753.76s-484.58,295.32-1032.19,118.32S0,3315.67,0,3315.67Z" transform="translate(0 -160)"/><path class="cls-2" d="M0,2524.51S484.58,2291,994,2508c681.6,290.35,887,106.93,887,106.93v753.75S1396.42,3664,848.81,3487,0,3400.87,0,3400.87Z" transform="translate(0 -160)"/><path d="M0,2640.51S484.58,2407,994,2624c681.6,290.35,887,106.93,887,106.93v753.75S1396.42,3780,848.81,3603,0,3516.87,0,3516.87Z" transform="translate(0 -160)"/><path class="cls-3" d="M0,2797.51S484.58,2564,994,2781c681.6,290.35,887,106.93,887,106.93v753.75S1396.42,3937,848.81,3760,0,3673.87,0,3673.87Z" transform="translate(0 -160)"/><path class="cls-4" d="M0,2912.51S484.58,2679,994,2896c681.6,290.35,887,106.93,887,106.93v753.75S1396.42,4052,848.81,3875,0,3788.87,0,3788.87Z" transform="translate(0 -160)"/><path class="cls-5" d="M0,3025.51S484.58,2792,994,3009c681.6,290.35,887,106.93,887,106.93v753.75S1396.42,4165,848.81,3988,0,3901.87,0,3901.87Z" transform="translate(0 -160)"/><path class="cls-6" d="M0,3178.51S484.58,2945,994,3162c681.6,290.35,887,106.93,887,106.93v753.75S1396.42,4318,848.81,4141,0,4054.87,0,4054.87Z" transform="translate(0 -160)"/><path d="M0,3278.51S484.58,3045,994,3262c681.6,290.35,887,106.93,887,106.93v753.75S1396.42,4418,848.81,4241,0,4154.87,0,4154.87Z" transform="translate(0 -160)"/><path class="cls-7" d="M0,3447.51S484.58,3214,994,3431c681.6,290.35,887,106.93,887,106.93v753.75S1396.42,4587,848.81,4410,0,4323.87,0,4323.87Z" transform="translate(0 -160)"/><path class="cls-8" d="M0,3602.51S484.58,3369,994,3586c681.6,290.35,887,106.93,887,106.93v753.75S1396.42,4742,848.81,4565,0,4478.87,0,4478.87Z" transform="translate(0 -160)"/><path class="cls-9" d="M0,3768.83s484.58-233.48,994-16.48c681.6,290.35,887,106.93,887,106.93V4613s-484.58,295.32-1032.19,118.32S0,4645.19,0,4645.19Z" transform="translate(0 -160)"/><path class="cls-10" d="M0,3906.38s484.58-233.48,994-16.48c681.6,290.35,887,106.93,887,106.93v753.75S1396.42,5045.9,848.81,4868.9,0,4782.74,0,4782.74Z" transform="translate(0 -160)"/><path d="M0,3991.59s484.58-233.48,994-16.48c681.6,290.35,887,106.93,887,106.93v753.75s-484.58,295.32-1032.19,118.32S0,4868,0,4868Z" transform="translate(0 -160)"/><path class="cls-11" d="M0,4107.59s484.58-233.48,994-16.48c681.6,290.35,887,106.93,887,106.93v753.75s-484.58,295.32-1032.19,118.32S0,4984,0,4984Z" transform="translate(0 -160)"/><path class="cls-12" d="M0,4264.59s484.58-233.48,994-16.48c681.6,290.35,887,106.93,887,106.93v753.75s-484.58,295.32-1032.19,118.32S0,5141,0,5141Z" transform="translate(0 -160)"/><path class="cls-13" d="M0,4379.59s484.58-233.48,994-16.48c681.6,290.35,887,106.93,887,106.93v753.75s-484.58,295.32-1032.19,118.32S0,5256,0,5256Z" transform="translate(0 -160)"/><path d="M0,4492.59s484.58-233.48,994-16.48c681.6,290.35,887,106.93,887,106.93v753.75s-484.58,295.32-1032.19,118.32S0,5369,0,5369Z" transform="translate(0 -160)"/><path class="cls-1" d="M0,4620.3s484.58-233.47,994-16.47c681.6,290.35,887,106.92,887,106.92v753.76s-484.58,295.32-1032.19,118.32S0,5496.67,0,5496.67Z" transform="translate(0 -160)"/><path class="cls-2" d="M0,4705.51S484.58,4472,994,4689c681.6,290.35,887,106.93,887,106.93v753.75S1396.42,5845,848.81,5668,0,5581.87,0,5581.87Z" transform="translate(0 -160)"/><path d="M0,4821.51S484.58,4588,994,4805c681.6,290.35,887,106.93,887,106.93v753.75S1396.42,5961,848.81,5784,0,5697.87,0,5697.87Z" transform="translate(0 -160)"/><path class="cls-3" d="M0,4978.51S484.58,4745,994,4962c681.6,290.35,887,106.93,887,106.93v753.75S1396.42,6118,848.81,5941,0,5854.87,0,5854.87Z" transform="translate(0 -160)"/><path class="cls-4" d="M0,5093.51S484.58,4860,994,5077c681.6,290.35,887,106.93,887,106.93v753.75S1396.42,6233,848.81,6056,0,5969.87,0,5969.87Z" transform="translate(0 -160)"/><path class="cls-5" d="M0,5206.51S484.58,4973,994,5190c681.6,290.35,887,106.93,887,106.93v753.75S1396.42,6346,848.81,6169,0,6082.87,0,6082.87Z" transform="translate(0 -160)"/><path class="cls-6" d="M0,5359.51S484.58,5126,994,5343c681.6,290.35,887,106.93,887,106.93v753.75S1396.42,6499,848.81,6322,0,6235.87,0,6235.87Z" transform="translate(0 -160)"/><path d="M0,5459.51S484.58,5226,994,5443c681.6,290.35,887,106.93,887,106.93v753.75S1396.42,6599,848.81,6422,0,6335.87,0,6335.87Z" transform="translate(0 -160)"/><path class="cls-7" d="M0,5628.51S484.58,5395,994,5612c681.6,290.35,887,106.93,887,106.93v753.75S1396.42,6768,848.81,6591,0,6504.87,0,6504.87Z" transform="translate(0 -160)"/><path class="cls-8" d="M0,5783.51S484.58,5550,994,5767c681.6,290.35,887,106.93,887,106.93v753.75S1396.42,6923,848.81,6746,0,6659.87,0,6659.87Z" transform="translate(0 -160)"/><path class="cls-9" d="M0,5949.83s484.58-233.48,994-16.48c681.6,290.35,887,106.93,887,106.93V6794s-484.58,295.32-1032.19,118.32S0,6826.19,0,6826.19Z" transform="translate(0 -160)"/><path class="cls-10" d="M0,6087.38s484.58-233.48,994-16.48c681.6,290.35,887,106.93,887,106.93v753.75S1396.42,7226.9,848.81,7049.9,0,6963.74,0,6963.74Z" transform="translate(0 -160)"/><path d="M0,6172.59s484.58-233.48,994-16.48c681.6,290.35,887,106.93,887,106.93v753.75s-484.58,295.32-1032.19,118.32S0,7049,0,7049Z" transform="translate(0 -160)"/><path class="cls-11" d="M0,6288.59s484.58-233.48,994-16.48c681.6,290.35,887,106.93,887,106.93v753.75s-484.58,295.32-1032.19,118.32S0,7165,0,7165Z" transform="translate(0 -160)"/><path class="cls-12" d="M0,6445.59s484.58-233.48,994-16.48c681.6,290.35,887,106.93,887,106.93v753.75s-484.58,295.32-1032.19,118.32S0,7322,0,7322Z" transform="translate(0 -160)"/><path class="cls-13" d="M0,6560.59s484.58-233.48,994-16.48c681.6,290.35,887,106.93,887,106.93v753.75s-484.58,295.32-1032.19,118.32S0,7437,0,7437Z" transform="translate(0 -160)"/><path d="M0,6673.59s484.58-233.48,994-16.48c681.6,290.35,887,106.93,887,106.93v753.75s-484.58,295.32-1032.19,118.32S0,7550,0,7550Z" transform="translate(0 -160)"/><path class="cls-1" d="M0,6804.76s484.58-233.48,994-16.48c681.6,290.35,887,106.93,887,106.93V7649s-484.58,295.32-1032.19,118.32S0,7681.12,0,7681.12Z" transform="translate(0 -160)"/><path class="cls-2" d="M0,6890s484.58-233.47,994-16.47c681.6,290.35,887,106.92,887,106.92v753.76s-484.58,295.32-1032.19,118.32S0,7766.33,0,7766.33Z" transform="translate(0 -160)"/><path d="M0,7006s484.58-233.47,994-16.47c681.6,290.35,887,106.92,887,106.92v753.76s-484.58,295.32-1032.19,118.32S0,7882.33,0,7882.33Z" transform="translate(0 -160)"/><path class="cls-3" d="M0,7163s484.58-233.47,994-16.47c681.6,290.35,887,106.92,887,106.92v753.76s-484.58,295.32-1032.19,118.32S0,8039.33,0,8039.33Z" transform="translate(0 -160)"/><path class="cls-4" d="M0,7278s484.58-233.47,994-16.47c681.6,290.35,887,106.92,887,106.92v753.76s-484.58,295.32-1032.19,118.32S0,8154.33,0,8154.33Z" transform="translate(0 -160)"/><path class="cls-5" d="M0,7391s484.58-233.47,994-16.47c681.6,290.35,887,106.92,887,106.92v753.76s-484.58,295.32-1032.19,118.32S0,8267.33,0,8267.33Z" transform="translate(0 -160)"/><path class="cls-6" d="M0,7544s484.58-233.47,994-16.47c681.6,290.35,887,106.92,887,106.92v753.76s-484.58,295.32-1032.19,118.32S0,8420.33,0,8420.33Z" transform="translate(0 -160)"/><path d="M0,7644s484.58-233.47,994-16.47c681.6,290.35,887,106.92,887,106.92v753.76s-484.58,295.32-1032.19,118.32S0,8520.33,0,8520.33Z" transform="translate(0 -160)"/><path class="cls-7" d="M0,7813s484.58-233.47,994-16.47c681.6,290.35,887,106.92,887,106.92v753.76s-484.58,295.32-1032.19,118.32S0,8689.33,0,8689.33Z" transform="translate(0 -160)"/><path class="cls-8" d="M0,7968s484.58-233.47,994-16.47c681.6,290.35,887,106.92,887,106.92v753.76s-484.58,295.32-1032.19,118.32S0,8844.33,0,8844.33Z" transform="translate(0 -160)"/><path class="cls-9" d="M0,8134.29s484.58-233.48,994-16.48c681.6,290.35,887,106.93,887,106.93v753.75s-484.58,295.32-1032.19,118.32S0,9010.65,0,9010.65Z" transform="translate(0 -160)"/><path class="cls-10" d="M0,8271.84s484.58-233.48,994-16.48c681.6,290.35,887,106.93,887,106.93V9116s-484.58,295.32-1032.19,118.32S0,9148.2,0,9148.2Z" transform="translate(0 -160)"/><path d="M0,8357s484.58-233.48,994-16.48c681.6,290.35,887,106.93,887,106.93v753.75s-484.58,295.32-1032.19,118.32S0,9233.4,0,9233.4Z" transform="translate(0 -160)"/><path class="cls-11" d="M0,8473s484.58-233.48,994-16.48c681.6,290.35,887,106.93,887,106.93v753.75s-484.58,295.32-1032.19,118.32S0,9349.4,0,9349.4Z" transform="translate(0 -160)"/><path class="cls-12" d="M0,8630s484.58-233.48,994-16.48c681.6,290.35,887,106.93,887,106.93v753.75s-484.58,295.32-1032.19,118.32S0,9506.4,0,9506.4Z" transform="translate(0 -160)"/><path class="cls-13" d="M0,8745s484.58-233.48,994-16.48c681.6,290.35,887,106.93,887,106.93v753.75s-484.58,295.32-1032.19,118.32S0,9621.4,0,9621.4Z" transform="translate(0 -160)"/><path d="M0,8858s484.58-233.48,994-16.48c681.6,290.35,887,106.93,887,106.93v753.75s-484.58,295.32-1032.19,118.32S0,9734.4,0,9734.4Z" transform="translate(0 -160)"/></g></svg>