<svg id="Ebene_1" data-name="Ebene 1" xmlns="http://www.w3.org/2000/svg" viewBox="0 0 2394.88 3256.79"><defs><style>.cls-1{fill:#fff;}</style></defs><path class="cls-1" d="M260.62,1479.87a1.5,1.5,0,0,0,0-3,1.5,1.5,0,0,0,0,3Z" transform="translate(154.07 -59.16)"/><path class="cls-1" d="M435.23,1631.81c3.92,0,7.68-3.45,7.5-7.5a7.63,7.63,0,0,0-7.5-7.5c-3.92,0-7.68,3.45-7.5,7.5a7.63,7.63,0,0,0,7.5,7.5Z" transform="translate(154.07 -59.16)"/><path class="cls-1" d="M862.64,1431.14c3.92,0,7.68-3.45,7.5-7.5a7.64,7.64,0,0,0-7.5-7.5c-3.93,0-7.69,3.45-7.5,7.5a7.63,7.63,0,0,0,7.5,7.5Z" transform="translate(154.07 -59.16)"/><path class="cls-1" d="M675,1861.15c3.93,0,7.69-3.45,7.5-7.5a7.63,7.63,0,0,0-7.5-7.5c-3.92,0-7.68,3.45-7.5,7.5a7.64,7.64,0,0,0,7.5,7.5Z" transform="translate(154.07 -59.16)"/><path class="cls-1" d="M1112.82,2048.79c3.93,0,7.68-3.45,7.5-7.5a7.63,7.63,0,0,0-7.5-7.5c-3.92,0-7.68,3.45-7.5,7.5a7.63,7.63,0,0,0,7.5,7.5Z" transform="translate(154.07 -59.16)"/><path class="cls-1" d="M1618.41,1634.42c3.92,0,7.68-3.45,7.5-7.5a7.62,7.62,0,0,0-7.5-7.5c-3.92,0-7.68,3.45-7.5,7.5a7.63,7.63,0,0,0,7.5,7.5Z" transform="translate(154.07 -59.16)"/><path class="cls-1" d="M1665.32,1845.51c3.92,0,7.68-3.45,7.5-7.5a7.63,7.63,0,0,0-7.5-7.5c-3.92,0-7.68,3.45-7.5,7.5a7.63,7.63,0,0,0,7.5,7.5Z" transform="translate(154.07 -59.16)"/><path class="cls-1" d="M1738.29,1379c3.93,0,7.68-3.45,7.5-7.5a7.62,7.62,0,0,0-7.5-7.5c-3.92,0-7.68,3.45-7.5,7.5a7.64,7.64,0,0,0,7.5,7.5Z" transform="translate(154.07 -59.16)"/><path class="cls-1" d="M1493.32,1267c3.92,0,7.68-3.44,7.5-7.5a7.63,7.63,0,0,0-7.5-7.5c-3.93,0-7.68,3.45-7.5,7.5a7.62,7.62,0,0,0,7.5,7.5Z" transform="translate(154.07 -59.16)"/><path class="cls-1" d="M1125.85,1647.45c3.93,0,7.69-3.45,7.5-7.5a7.63,7.63,0,0,0-7.5-7.5c-3.92,0-7.68,3.45-7.5,7.5a7.64,7.64,0,0,0,7.5,7.5Z" transform="translate(154.07 -59.16)"/><path class="cls-1" d="M166.8,2051.4c3.92,0,7.68-3.45,7.5-7.5a7.62,7.62,0,0,0-7.5-7.5c-3.92,0-7.68,3.45-7.5,7.5a7.63,7.63,0,0,0,7.5,7.5Z" transform="translate(154.07 -59.16)"/><path class="cls-1" d="M463.9,1401a6,6,0,1,0-6-6,6.07,6.07,0,0,0,6,6Z" transform="translate(154.07 -59.16)"/><path class="cls-1" d="M380.5,2094.2a6,6,0,1,0-6-6,6.06,6.06,0,0,0,6,6Z" transform="translate(154.07 -59.16)"/><path class="cls-1" d="M106.86,2180.2a6,6,0,1,0-6-6,6.06,6.06,0,0,0,6,6Z" transform="translate(154.07 -59.16)"/><path class="cls-1" d="M23.46,1526.07a6,6,0,1,0-6-6,6.06,6.06,0,0,0,6,6Z" transform="translate(154.07 -59.16)"/><path class="cls-1" d="M13,1242a6,6,0,0,0,0-12,6,6,0,1,0,0,12Z" transform="translate(154.07 -59.16)"/><path class="cls-1" d="M1331.74,1236.79a6,6,0,1,0-6-6,6.07,6.07,0,0,0,6,6Z" transform="translate(154.07 -59.16)"/><path class="cls-1" d="M1183.19,1625.1a6,6,0,1,0-6-6,6.07,6.07,0,0,0,6,6Z" transform="translate(154.07 -59.16)"/><path class="cls-1" d="M1438.59,2026.44a6,6,0,1,0-6-6,6.07,6.07,0,0,0,6,6Z" transform="translate(154.07 -59.16)"/><path class="cls-1" d="M1847.75,2248a6,6,0,1,0-6-6,6.06,6.06,0,0,0,6,6Z" transform="translate(154.07 -59.16)"/><path class="cls-1" d="M1860.78,2062.93a6,6,0,1,0-6-6,6.06,6.06,0,0,0,6,6Z" transform="translate(154.07 -59.16)"/><path class="cls-1" d="M1894.66,1635.52a6,6,0,1,0-6-6,6.06,6.06,0,0,0,6,6Z" transform="translate(154.07 -59.16)"/><path class="cls-1" d="M1568.9,1301.94a6,6,0,1,0-6-6,6.08,6.08,0,0,0,6,6Z" transform="translate(154.07 -59.16)"/><path class="cls-1" d="M672.39,2172.39a6,6,0,1,0-6-6,6.07,6.07,0,0,0,6,6Z" transform="translate(154.07 -59.16)"/><path class="cls-1" d="M91.22,2224.51a6,6,0,1,0-6-6,6.06,6.06,0,0,0,6,6Z" transform="translate(154.07 -59.16)"/><path class="cls-1" d="M750.57,1544.31a6,6,0,1,0-6-6,6.06,6.06,0,0,0,6,6Z" transform="translate(154.07 -59.16)"/><path class="cls-1" d="M664.57,1943.05a6,6,0,1,0-6-6,6.06,6.06,0,0,0,6,6Z" transform="translate(154.07 -59.16)"/><path class="cls-1" d="M1172.76,1763.22a6,6,0,1,0-6-6,6.06,6.06,0,0,0,6,6Z" transform="translate(154.07 -59.16)"/><path class="cls-1" d="M604.63,1763.22a6,6,0,1,0-6-6,6.07,6.07,0,0,0,6,6Z" transform="translate(154.07 -59.16)"/><path class="cls-1" d="M364.87,1240.5a4.5,4.5,0,1,0-4.5-4.5,4.56,4.56,0,0,0,4.5,4.5Z" transform="translate(154.07 -59.16)"/><path class="cls-1" d="M310.14,1495.9a4.5,4.5,0,1,0-4.5-4.5,4.55,4.55,0,0,0,4.5,4.5Z" transform="translate(154.07 -59.16)"/><path class="cls-1" d="M768.82,1673.12a4.5,4.5,0,1,0-4.5-4.5,4.56,4.56,0,0,0,4.5,4.5Z" transform="translate(154.07 -59.16)"/><path class="cls-1" d="M708.87,1331.71a4.5,4.5,0,1,0-4.5-4.5,4.55,4.55,0,0,0,4.5,4.5Z" transform="translate(154.07 -59.16)"/><path class="cls-1" d="M437.84,1759.12a4.5,4.5,0,1,0-4.5-4.5,4.55,4.55,0,0,0,4.5,4.5Z" transform="translate(154.07 -59.16)"/><path class="cls-1" d="M557.72,2074.46a4.5,4.5,0,1,0-4.5-4.5,4.55,4.55,0,0,0,4.5,4.5Z" transform="translate(154.07 -59.16)"/><path class="cls-1" d="M1193.61,2121.37a4.5,4.5,0,1,0-4.5-4.5,4.55,4.55,0,0,0,4.5,4.5Z" transform="translate(154.07 -59.16)"/><path class="cls-1" d="M1433.38,1691.36a4.5,4.5,0,1,0-4.5-4.5,4.55,4.55,0,0,0,4.5,4.5Z" transform="translate(154.07 -59.16)"/><path class="cls-1" d="M1631.44,1172.74a4.5,4.5,0,1,0-4.5-4.5,4.55,4.55,0,0,0,4.5,4.5Z" transform="translate(154.07 -59.16)"/><path class="cls-1" d="M1892.05,1472.44a4.5,4.5,0,1,0-4.5-4.5,4.55,4.55,0,0,0,4.5,4.5Z" transform="translate(154.07 -59.16)"/><path class="cls-1" d="M1905.08,2069.25a4.5,4.5,0,1,0-4.5-4.5,4.55,4.55,0,0,0,4.5,4.5Z" transform="translate(154.07 -59.16)"/><path class="cls-1" d="M1665.32,2204.77a4.5,4.5,0,1,0-4.5-4.5,4.55,4.55,0,0,0,4.5,4.5Z" transform="translate(154.07 -59.16)"/><path class="cls-1" d="M1339.56,2087.49a4.5,4.5,0,1,0-4.5-4.5,4.55,4.55,0,0,0,4.5,4.5Z" transform="translate(154.07 -59.16)"/><path class="cls-1" d="M1352.59,1626.21a4.5,4.5,0,1,0-4.5-4.5,4.55,4.55,0,0,0,4.5,4.5Z" transform="translate(154.07 -59.16)"/><path class="cls-1" d="M1162.34,1350a4.5,4.5,0,1,0-4.5-4.5,4.55,4.55,0,0,0,4.5,4.5Z" transform="translate(154.07 -59.16)"/><path class="cls-1" d="M857.42,1884.21a4.5,4.5,0,1,0-4.5-4.5,4.55,4.55,0,0,0,4.5,4.5Z" transform="translate(154.07 -59.16)"/><path class="cls-1" d="M719.3,2092.7a4.5,4.5,0,1,0-4.5-4.5,4.55,4.55,0,0,0,4.5,4.5Z" transform="translate(154.07 -59.16)"/><path class="cls-1" d="M359.65,2236a4.5,4.5,0,1,0-4.5-4.5,4.55,4.55,0,0,0,4.5,4.5Z" transform="translate(154.07 -59.16)"/><path class="cls-1" d="M331,1647.05a4.5,4.5,0,1,0-4.5-4.5,4.55,4.55,0,0,0,4.5,4.5Z" transform="translate(154.07 -59.16)"/><path class="cls-1" d="M362.26,2097.91a4.5,4.5,0,1,0-4.5-4.5,4.55,4.55,0,0,0,4.5,4.5Z" transform="translate(154.07 -59.16)"/><path class="cls-1" d="M750.57,2322a4.5,4.5,0,1,0-4.5-4.5,4.55,4.55,0,0,0,4.5,4.5Z" transform="translate(154.07 -59.16)"/><path class="cls-1" d="M1138.88,2019.73a4.5,4.5,0,1,0-4.5-4.5,4.55,4.55,0,0,0,4.5,4.5Z" transform="translate(154.07 -59.16)"/><path class="cls-1" d="M1047.67,1652.27a4.5,4.5,0,1,0-4.5-4.5,4.55,4.55,0,0,0,4.5,4.5Z" transform="translate(154.07 -59.16)"/><path class="cls-1" d="M591.84,1251.59a1.5,1.5,0,0,0,0-3,1.5,1.5,0,0,0,0,3Z" transform="translate(154.07 -59.16)"/><path class="cls-1" d="M766.45,1403.54c3.92,0,7.68-3.45,7.5-7.5a7.63,7.63,0,0,0-7.5-7.5c-3.93,0-7.68,3.45-7.5,7.5a7.63,7.63,0,0,0,7.5,7.5Z" transform="translate(154.07 -59.16)"/><path class="cls-1" d="M1193.85,1202.87c3.92,0,7.68-3.45,7.5-7.5a7.62,7.62,0,0,0-7.5-7.5c-3.92,0-7.68,3.45-7.5,7.5a7.63,7.63,0,0,0,7.5,7.5Z" transform="translate(154.07 -59.16)"/><path class="cls-1" d="M1006.21,1632.88c3.92,0,7.68-3.45,7.5-7.5a7.62,7.62,0,0,0-7.5-7.5c-3.92,0-7.68,3.45-7.5,7.5a7.63,7.63,0,0,0,7.5,7.5Z" transform="translate(154.07 -59.16)"/><path class="cls-1" d="M1444,1820.52c3.92,0,7.68-3.45,7.5-7.5a7.63,7.63,0,0,0-7.5-7.5c-3.92,0-7.68,3.45-7.5,7.5a7.63,7.63,0,0,0,7.5,7.5Z" transform="translate(154.07 -59.16)"/><path class="cls-1" d="M1949.63,1406.14c3.92,0,7.68-3.45,7.5-7.5a7.63,7.63,0,0,0-7.5-7.5c-3.93,0-7.68,3.45-7.5,7.5a7.62,7.62,0,0,0,7.5,7.5Z" transform="translate(154.07 -59.16)"/><path class="cls-1" d="M1996.54,1617.24c3.92,0,7.68-3.45,7.5-7.5a7.63,7.63,0,0,0-7.5-7.5c-3.93,0-7.68,3.45-7.5,7.5a7.63,7.63,0,0,0,7.5,7.5Z" transform="translate(154.07 -59.16)"/><path class="cls-1" d="M2069.51,1150.74c3.92,0,7.68-3.45,7.5-7.5a7.63,7.63,0,0,0-7.5-7.5c-3.92,0-7.68,3.45-7.5,7.5a7.62,7.62,0,0,0,7.5,7.5Z" transform="translate(154.07 -59.16)"/><path class="cls-1" d="M1824.53,1038.68c3.93,0,7.68-3.45,7.5-7.5a7.63,7.63,0,0,0-7.5-7.5c-3.92,0-7.68,3.45-7.5,7.5a7.64,7.64,0,0,0,7.5,7.5Z" transform="translate(154.07 -59.16)"/><path class="cls-1" d="M1457.07,1419.17c3.92,0,7.68-3.45,7.5-7.5a7.63,7.63,0,0,0-7.5-7.5c-3.92,0-7.68,3.45-7.5,7.5a7.63,7.63,0,0,0,7.5,7.5Z" transform="translate(154.07 -59.16)"/><path class="cls-1" d="M498,1823.12c3.92,0,7.68-3.45,7.5-7.5a7.64,7.64,0,0,0-7.5-7.5c-3.93,0-7.68,3.45-7.5,7.5a7.62,7.62,0,0,0,7.5,7.5Z" transform="translate(154.07 -59.16)"/><path class="cls-1" d="M795.11,1172.7a6,6,0,1,0-6-6,6.06,6.06,0,0,0,6,6Z" transform="translate(154.07 -59.16)"/><path class="cls-1" d="M711.72,1865.93a6,6,0,1,0-6-6,6.07,6.07,0,0,0,6,6Z" transform="translate(154.07 -59.16)"/><path class="cls-1" d="M438.08,1951.93a6,6,0,1,0-6-6,6.08,6.08,0,0,0,6,6Z" transform="translate(154.07 -59.16)"/><path class="cls-1" d="M354.68,1297.79a6,6,0,1,0-6-6,6.07,6.07,0,0,0,6,6Z" transform="translate(154.07 -59.16)"/><path class="cls-1" d="M344.26,1013.73a6,6,0,1,0-6-6,6.08,6.08,0,0,0,6,6Z" transform="translate(154.07 -59.16)"/><path class="cls-1" d="M1663,1008.51a6,6,0,1,0-6-6,6.06,6.06,0,0,0,6,6Z" transform="translate(154.07 -59.16)"/><path class="cls-1" d="M1514.4,1396.83a6,6,0,1,0-6-6,6.06,6.06,0,0,0,6,6Z" transform="translate(154.07 -59.16)"/><path class="cls-1" d="M1769.8,1798.17a6,6,0,1,0-6-6,6.06,6.06,0,0,0,6,6Z" transform="translate(154.07 -59.16)"/><path class="cls-1" d="M2179,2019.69a6,6,0,1,0-6-6,6.08,6.08,0,0,0,6,6Z" transform="translate(154.07 -59.16)"/><path class="cls-1" d="M2192,1834.65a6,6,0,1,0-6-6,6.07,6.07,0,0,0,6,6Z" transform="translate(154.07 -59.16)"/><path class="cls-1" d="M2225.88,1407.25a6,6,0,1,0-6-6,6.08,6.08,0,0,0,6,6Z" transform="translate(154.07 -59.16)"/><path class="cls-1" d="M1900.11,1073.67a6,6,0,1,0-6-6,6.06,6.06,0,0,0,6,6Z" transform="translate(154.07 -59.16)"/><path class="cls-1" d="M1003.6,1944.11a6,6,0,1,0-6-6,6.06,6.06,0,0,0,6,6Z" transform="translate(154.07 -59.16)"/><path class="cls-1" d="M422.44,1996.23a6,6,0,1,0-6-6,6.07,6.07,0,0,0,6,6Z" transform="translate(154.07 -59.16)"/><path class="cls-1" d="M1081.79,1316a6,6,0,1,0-6-6,6.07,6.07,0,0,0,6,6Z" transform="translate(154.07 -59.16)"/><path class="cls-1" d="M995.79,1714.77a6,6,0,1,0-6-6,6.08,6.08,0,0,0,6,6Z" transform="translate(154.07 -59.16)"/><path class="cls-1" d="M1504,1535a6,6,0,1,0-6-6,6.06,6.06,0,0,0,6,6Z" transform="translate(154.07 -59.16)"/><path class="cls-1" d="M935.85,1535a6,6,0,1,0-6-6,6.08,6.08,0,0,0,6,6Z" transform="translate(154.07 -59.16)"/><path class="cls-1" d="M696.08,1012.23a4.5,4.5,0,1,0-4.5-4.5,4.55,4.55,0,0,0,4.5,4.5Z" transform="translate(154.07 -59.16)"/><path class="cls-1" d="M641.35,1267.63a4.5,4.5,0,1,0-4.5-4.5,4.55,4.55,0,0,0,4.5,4.5Z" transform="translate(154.07 -59.16)"/><path class="cls-1" d="M1100,1444.84a4.5,4.5,0,1,0-4.5-4.5,4.55,4.55,0,0,0,4.5,4.5Z" transform="translate(154.07 -59.16)"/><path class="cls-1" d="M1040.09,1103.44a4.5,4.5,0,1,0-4.5-4.5,4.55,4.55,0,0,0,4.5,4.5Z" transform="translate(154.07 -59.16)"/><path class="cls-1" d="M769.05,1530.84a4.5,4.5,0,1,0-4.5-4.5,4.55,4.55,0,0,0,4.5,4.5Z" transform="translate(154.07 -59.16)"/><path class="cls-1" d="M888.94,1846.18a4.5,4.5,0,1,0-4.5-4.5,4.56,4.56,0,0,0,4.5,4.5Z" transform="translate(154.07 -59.16)"/><path class="cls-1" d="M1524.83,1893.09a4.5,4.5,0,1,0-4.5-4.5,4.55,4.55,0,0,0,4.5,4.5Z" transform="translate(154.07 -59.16)"/><path class="cls-1" d="M1764.59,1463.08a4.5,4.5,0,1,0-4.5-4.5,4.55,4.55,0,0,0,4.5,4.5Z" transform="translate(154.07 -59.16)"/><path class="cls-1" d="M1962.66,944.47a4.5,4.5,0,1,0-4.5-4.5,4.55,4.55,0,0,0,4.5,4.5Z" transform="translate(154.07 -59.16)"/><path class="cls-1" d="M2223.27,1244.17a4.5,4.5,0,1,0-4.5-4.5,4.55,4.55,0,0,0,4.5,4.5Z" transform="translate(154.07 -59.16)"/><path class="cls-1" d="M2236.3,1841a4.5,4.5,0,1,0-4.5-4.5,4.55,4.55,0,0,0,4.5,4.5Z" transform="translate(154.07 -59.16)"/><path class="cls-1" d="M1996.54,1976.49a4.5,4.5,0,1,0-4.5-4.5,4.55,4.55,0,0,0,4.5,4.5Z" transform="translate(154.07 -59.16)"/><path class="cls-1" d="M1670.77,1859.22a4.5,4.5,0,1,0-4.5-4.5,4.55,4.55,0,0,0,4.5,4.5Z" transform="translate(154.07 -59.16)"/><path class="cls-1" d="M1683.8,1397.93a4.5,4.5,0,1,0-4.5-4.5,4.55,4.55,0,0,0,4.5,4.5Z" transform="translate(154.07 -59.16)"/><path class="cls-1" d="M1493.56,1121.68a4.5,4.5,0,1,0-4.5-4.5,4.56,4.56,0,0,0,4.5,4.5Z" transform="translate(154.07 -59.16)"/><path class="cls-1" d="M1188.64,1655.94a4.5,4.5,0,1,0-4.5-4.5,4.55,4.55,0,0,0,4.5,4.5Z" transform="translate(154.07 -59.16)"/><path class="cls-1" d="M1050.51,1864.43a4.5,4.5,0,1,0-4.5-4.5,4.55,4.55,0,0,0,4.5,4.5Z" transform="translate(154.07 -59.16)"/><path class="cls-1" d="M690.87,2007.76a4.5,4.5,0,1,0-4.5-4.5,4.55,4.55,0,0,0,4.5,4.5Z" transform="translate(154.07 -59.16)"/><path class="cls-1" d="M662.2,1418.78a4.5,4.5,0,1,0-4.5-4.5,4.55,4.55,0,0,0,4.5,4.5Z" transform="translate(154.07 -59.16)"/><path class="cls-1" d="M693.48,1869.64a4.5,4.5,0,1,0-4.5-4.5,4.56,4.56,0,0,0,4.5,4.5Z" transform="translate(154.07 -59.16)"/><path class="cls-1" d="M1081.79,2093.77a4.5,4.5,0,1,0-4.5-4.5,4.55,4.55,0,0,0,4.5,4.5Z" transform="translate(154.07 -59.16)"/><path class="cls-1" d="M1470.1,1791.46a4.5,4.5,0,1,0-4.5-4.5,4.55,4.55,0,0,0,4.5,4.5Z" transform="translate(154.07 -59.16)"/><path class="cls-1" d="M1378.89,1424a4.5,4.5,0,1,0-4.5-4.5,4.55,4.55,0,0,0,4.5,4.5Z" transform="translate(154.07 -59.16)"/><path class="cls-1" d="M248.84,635.59a1.5,1.5,0,0,0,0-3,1.5,1.5,0,0,0,0,3Z" transform="translate(154.07 -59.16)"/><path class="cls-1" d="M423.45,787.54c3.92,0,7.68-3.45,7.5-7.5a7.63,7.63,0,0,0-7.5-7.5c-3.93,0-7.68,3.45-7.5,7.5a7.63,7.63,0,0,0,7.5,7.5Z" transform="translate(154.07 -59.16)"/><path class="cls-1" d="M850.85,586.87c3.92,0,7.68-3.45,7.5-7.5a7.62,7.62,0,0,0-7.5-7.5c-3.92,0-7.68,3.45-7.5,7.5a7.63,7.63,0,0,0,7.5,7.5Z" transform="translate(154.07 -59.16)"/><path class="cls-1" d="M663.21,1016.88c3.92,0,7.68-3.45,7.5-7.5a7.62,7.62,0,0,0-7.5-7.5c-3.92,0-7.68,3.45-7.5,7.5a7.63,7.63,0,0,0,7.5,7.5Z" transform="translate(154.07 -59.16)"/><path class="cls-1" d="M1101,1204.52c3.92,0,7.68-3.45,7.5-7.5a7.63,7.63,0,0,0-7.5-7.5c-3.92,0-7.68,3.45-7.5,7.5a7.63,7.63,0,0,0,7.5,7.5Z" transform="translate(154.07 -59.16)"/><path class="cls-1" d="M1606.63,790.14c3.92,0,7.68-3.45,7.5-7.5a7.63,7.63,0,0,0-7.5-7.5c-3.93,0-7.68,3.45-7.5,7.5a7.62,7.62,0,0,0,7.5,7.5Z" transform="translate(154.07 -59.16)"/><path class="cls-1" d="M1653.54,1001.24c3.92,0,7.68-3.45,7.5-7.5a7.63,7.63,0,0,0-7.5-7.5c-3.93,0-7.68,3.45-7.5,7.5a7.63,7.63,0,0,0,7.5,7.5Z" transform="translate(154.07 -59.16)"/><path class="cls-1" d="M1726.51,534.74c3.92,0,7.68-3.45,7.5-7.5a7.63,7.63,0,0,0-7.5-7.5c-3.92,0-7.68,3.45-7.5,7.5a7.62,7.62,0,0,0,7.5,7.5Z" transform="translate(154.07 -59.16)"/><path class="cls-1" d="M1481.53,422.68c3.93,0,7.68-3.45,7.5-7.5a7.63,7.63,0,0,0-7.5-7.5c-3.92,0-7.68,3.45-7.5,7.5a7.64,7.64,0,0,0,7.5,7.5Z" transform="translate(154.07 -59.16)"/><path class="cls-1" d="M1114.07,803.17c3.92,0,7.68-3.45,7.5-7.5a7.63,7.63,0,0,0-7.5-7.5c-3.92,0-7.68,3.45-7.5,7.5a7.63,7.63,0,0,0,7.5,7.5Z" transform="translate(154.07 -59.16)"/><path class="cls-1" d="M155,1207.12c3.92,0,7.68-3.45,7.5-7.5a7.64,7.64,0,0,0-7.5-7.5c-3.93,0-7.68,3.45-7.5,7.5a7.62,7.62,0,0,0,7.5,7.5Z" transform="translate(154.07 -59.16)"/><path class="cls-1" d="M452.11,556.7a6,6,0,1,0-6-6,6.06,6.06,0,0,0,6,6Z" transform="translate(154.07 -59.16)"/><path class="cls-1" d="M368.72,1249.93a6,6,0,1,0-6-6,6.07,6.07,0,0,0,6,6Z" transform="translate(154.07 -59.16)"/><path class="cls-1" d="M95.08,1335.93a6,6,0,1,0-6-6,6.08,6.08,0,0,0,6,6Z" transform="translate(154.07 -59.16)"/><path class="cls-1" d="M11.68,681.79a6,6,0,0,0,0-12,6,6,0,1,0,0,12Z" transform="translate(154.07 -59.16)"/><path class="cls-1" d="M1.26,397.73a6.08,6.08,0,0,0,6-6,6.1,6.1,0,0,0-6-6,6.06,6.06,0,0,0-6,6,6.1,6.1,0,0,0,6,6Z" transform="translate(154.07 -59.16)"/><path class="cls-1" d="M1320,392.51a6,6,0,1,0-6-6,6.06,6.06,0,0,0,6,6Z" transform="translate(154.07 -59.16)"/><path class="cls-1" d="M1171.4,780.83a6,6,0,1,0-6-6,6.06,6.06,0,0,0,6,6Z" transform="translate(154.07 -59.16)"/><path class="cls-1" d="M1426.8,1182.17a6,6,0,1,0-6-6,6.06,6.06,0,0,0,6,6Z" transform="translate(154.07 -59.16)"/><path class="cls-1" d="M1836,1403.69a6,6,0,1,0-6-6,6.08,6.08,0,0,0,6,6Z" transform="translate(154.07 -59.16)"/><path class="cls-1" d="M1849,1218.65a6,6,0,1,0-6-6,6.07,6.07,0,0,0,6,6Z" transform="translate(154.07 -59.16)"/><path class="cls-1" d="M1882.88,791.25a6,6,0,1,0-6-6,6.08,6.08,0,0,0,6,6Z" transform="translate(154.07 -59.16)"/><path class="cls-1" d="M1557.11,457.67a6,6,0,1,0-6-6,6.06,6.06,0,0,0,6,6Z" transform="translate(154.07 -59.16)"/><path class="cls-1" d="M660.6,1328.11a6,6,0,1,0-6-6,6.06,6.06,0,0,0,6,6Z" transform="translate(154.07 -59.16)"/><path class="cls-1" d="M79.44,1380.23a6,6,0,1,0-6-6,6.07,6.07,0,0,0,6,6Z" transform="translate(154.07 -59.16)"/><path class="cls-1" d="M738.79,700a6,6,0,1,0-6-6,6.07,6.07,0,0,0,6,6Z" transform="translate(154.07 -59.16)"/><path class="cls-1" d="M652.79,1098.77a6,6,0,1,0-6-6,6.08,6.08,0,0,0,6,6Z" transform="translate(154.07 -59.16)"/><path class="cls-1" d="M1161,919a6,6,0,1,0-6-6,6.06,6.06,0,0,0,6,6Z" transform="translate(154.07 -59.16)"/><path class="cls-1" d="M592.85,919a6,6,0,1,0-6-6,6.08,6.08,0,0,0,6,6Z" transform="translate(154.07 -59.16)"/><path class="cls-1" d="M353.08,396.23a4.5,4.5,0,1,0-4.5-4.5,4.55,4.55,0,0,0,4.5,4.5Z" transform="translate(154.07 -59.16)"/><path class="cls-1" d="M298.35,651.63a4.5,4.5,0,1,0-4.5-4.5,4.55,4.55,0,0,0,4.5,4.5Z" transform="translate(154.07 -59.16)"/><path class="cls-1" d="M757,828.84a4.5,4.5,0,1,0-4.5-4.5,4.55,4.55,0,0,0,4.5,4.5Z" transform="translate(154.07 -59.16)"/><path class="cls-1" d="M697.09,487.44a4.5,4.5,0,1,0-4.5-4.5,4.55,4.55,0,0,0,4.5,4.5Z" transform="translate(154.07 -59.16)"/><path class="cls-1" d="M426.05,914.84a4.5,4.5,0,1,0-4.5-4.5,4.55,4.55,0,0,0,4.5,4.5Z" transform="translate(154.07 -59.16)"/><path class="cls-1" d="M545.94,1230.18a4.5,4.5,0,1,0-4.5-4.5,4.56,4.56,0,0,0,4.5,4.5Z" transform="translate(154.07 -59.16)"/><path class="cls-1" d="M1181.83,1277.09a4.5,4.5,0,1,0-4.5-4.5,4.55,4.55,0,0,0,4.5,4.5Z" transform="translate(154.07 -59.16)"/><path class="cls-1" d="M1421.59,847.08a4.5,4.5,0,1,0-4.5-4.5,4.55,4.55,0,0,0,4.5,4.5Z" transform="translate(154.07 -59.16)"/><path class="cls-1" d="M1619.66,328.47a4.5,4.5,0,1,0-4.5-4.5,4.55,4.55,0,0,0,4.5,4.5Z" transform="translate(154.07 -59.16)"/><path class="cls-1" d="M1880.27,628.17a4.5,4.5,0,1,0-4.5-4.5,4.55,4.55,0,0,0,4.5,4.5Z" transform="translate(154.07 -59.16)"/><path class="cls-1" d="M1893.3,1225a4.5,4.5,0,1,0-4.5-4.5,4.55,4.55,0,0,0,4.5,4.5Z" transform="translate(154.07 -59.16)"/><path class="cls-1" d="M1653.54,1360.49a4.5,4.5,0,1,0-4.5-4.5,4.55,4.55,0,0,0,4.5,4.5Z" transform="translate(154.07 -59.16)"/><path class="cls-1" d="M1327.77,1243.22a4.5,4.5,0,1,0-4.5-4.5,4.55,4.55,0,0,0,4.5,4.5Z" transform="translate(154.07 -59.16)"/><path class="cls-1" d="M1340.8,781.93a4.5,4.5,0,1,0-4.5-4.5,4.55,4.55,0,0,0,4.5,4.5Z" transform="translate(154.07 -59.16)"/><path class="cls-1" d="M1150.56,505.68a4.5,4.5,0,1,0-4.5-4.5,4.56,4.56,0,0,0,4.5,4.5Z" transform="translate(154.07 -59.16)"/><path class="cls-1" d="M845.64,1039.94a4.5,4.5,0,1,0-4.5-4.5,4.55,4.55,0,0,0,4.5,4.5Z" transform="translate(154.07 -59.16)"/><path class="cls-1" d="M707.51,1248.43a4.5,4.5,0,1,0-4.5-4.5,4.55,4.55,0,0,0,4.5,4.5Z" transform="translate(154.07 -59.16)"/><path class="cls-1" d="M347.87,1391.76a4.5,4.5,0,1,0-4.5-4.5,4.55,4.55,0,0,0,4.5,4.5Z" transform="translate(154.07 -59.16)"/><path class="cls-1" d="M319.2,802.78a4.5,4.5,0,1,0-4.5-4.5,4.55,4.55,0,0,0,4.5,4.5Z" transform="translate(154.07 -59.16)"/><path class="cls-1" d="M350.48,1253.64a4.5,4.5,0,1,0-4.5-4.5,4.56,4.56,0,0,0,4.5,4.5Z" transform="translate(154.07 -59.16)"/><path class="cls-1" d="M738.79,1477.77a4.5,4.5,0,1,0-4.5-4.5,4.55,4.55,0,0,0,4.5,4.5Z" transform="translate(154.07 -59.16)"/><path class="cls-1" d="M1127.1,1175.46a4.5,4.5,0,1,0-4.5-4.5,4.55,4.55,0,0,0,4.5,4.5Z" transform="translate(154.07 -59.16)"/><path class="cls-1" d="M1035.89,808a4.5,4.5,0,1,0-4.5-4.5,4.55,4.55,0,0,0,4.5,4.5Z" transform="translate(154.07 -59.16)"/><path class="cls-1" d="M261.41,2473.78a1.5,1.5,0,0,0,0-3,1.5,1.5,0,0,0,0,3Z" transform="translate(154.07 -59.16)"/><path class="cls-1" d="M436,2625.72c3.92,0,7.68-3.45,7.5-7.5a7.63,7.63,0,0,0-7.5-7.5c-3.92,0-7.68,3.45-7.5,7.5a7.63,7.63,0,0,0,7.5,7.5Z" transform="translate(154.07 -59.16)"/><path class="cls-1" d="M863.42,2425.05c3.93,0,7.68-3.45,7.5-7.5a7.63,7.63,0,0,0-7.5-7.5c-3.92,0-7.68,3.45-7.5,7.5a7.64,7.64,0,0,0,7.5,7.5Z" transform="translate(154.07 -59.16)"/><path class="cls-1" d="M675.78,2855.06c3.93,0,7.68-3.45,7.5-7.5a7.63,7.63,0,0,0-7.5-7.5c-3.92,0-7.68,3.45-7.5,7.5a7.63,7.63,0,0,0,7.5,7.5Z" transform="translate(154.07 -59.16)"/><path class="cls-1" d="M1113.61,3042.7c3.92,0,7.68-3.45,7.5-7.5a7.63,7.63,0,0,0-7.5-7.5c-3.92,0-7.68,3.45-7.5,7.5a7.63,7.63,0,0,0,7.5,7.5Z" transform="translate(154.07 -59.16)"/><path class="cls-1" d="M1619.2,2628.33c3.92,0,7.68-3.45,7.5-7.5a7.63,7.63,0,0,0-7.5-7.5c-3.92,0-7.68,3.45-7.5,7.5a7.63,7.63,0,0,0,7.5,7.5Z" transform="translate(154.07 -59.16)"/><path class="cls-1" d="M1666.11,2839.42c3.92,0,7.68-3.45,7.5-7.5a7.63,7.63,0,0,0-7.5-7.5c-3.92,0-7.68,3.45-7.5,7.5a7.62,7.62,0,0,0,7.5,7.5Z" transform="translate(154.07 -59.16)"/><path class="cls-1" d="M1739.08,2372.93c3.92,0,7.68-3.45,7.5-7.5a7.62,7.62,0,0,0-7.5-7.5c-3.92,0-7.68,3.45-7.5,7.5a7.63,7.63,0,0,0,7.5,7.5Z" transform="translate(154.07 -59.16)"/><path class="cls-1" d="M1494.11,2260.86c3.92,0,7.68-3.45,7.5-7.5a7.64,7.64,0,0,0-7.5-7.5c-3.93,0-7.69,3.45-7.5,7.5a7.62,7.62,0,0,0,7.5,7.5Z" transform="translate(154.07 -59.16)"/><path class="cls-1" d="M1126.64,2641.36c3.92,0,7.68-3.45,7.5-7.5a7.62,7.62,0,0,0-7.5-7.5c-3.92,0-7.68,3.45-7.5,7.5a7.63,7.63,0,0,0,7.5,7.5Z" transform="translate(154.07 -59.16)"/><path class="cls-1" d="M167.59,3045.31c3.92,0,7.68-3.45,7.5-7.5a7.63,7.63,0,0,0-7.5-7.5c-3.92,0-7.68,3.45-7.5,7.5a7.63,7.63,0,0,0,7.5,7.5Z" transform="translate(154.07 -59.16)"/><path class="cls-1" d="M464.69,2394.88a6,6,0,1,0-6-6,6.07,6.07,0,0,0,6,6Z" transform="translate(154.07 -59.16)"/><path class="cls-1" d="M381.29,3088.11a6,6,0,1,0-6-6,6.06,6.06,0,0,0,6,6Z" transform="translate(154.07 -59.16)"/><path class="cls-1" d="M107.65,3174.11a6,6,0,1,0-6-6,6.07,6.07,0,0,0,6,6Z" transform="translate(154.07 -59.16)"/><path class="cls-1" d="M24.25,2520a6,6,0,1,0-6-6,6.06,6.06,0,0,0,6,6Z" transform="translate(154.07 -59.16)"/><path class="cls-1" d="M13.83,2235.91a6,6,0,1,0-6-6,6.1,6.1,0,0,0,6,6Z" transform="translate(154.07 -59.16)"/><path class="cls-1" d="M1332.53,2230.7a6,6,0,1,0-6-6,6.08,6.08,0,0,0,6,6Z" transform="translate(154.07 -59.16)"/><path class="cls-1" d="M1184,2619a6,6,0,1,0-6-6,6.07,6.07,0,0,0,6,6Z" transform="translate(154.07 -59.16)"/><path class="cls-1" d="M1439.38,3020.35a6,6,0,1,0-6-6,6.07,6.07,0,0,0,6,6Z" transform="translate(154.07 -59.16)"/><path class="cls-1" d="M1848.54,3241.87a6,6,0,1,0-6-6,6.07,6.07,0,0,0,6,6Z" transform="translate(154.07 -59.16)"/><path class="cls-1" d="M1861.57,3056.84a6,6,0,1,0-6-6,6.07,6.07,0,0,0,6,6Z" transform="translate(154.07 -59.16)"/><path class="cls-1" d="M1895.45,2629.43a6,6,0,1,0-6-6,6.07,6.07,0,0,0,6,6Z" transform="translate(154.07 -59.16)"/><path class="cls-1" d="M1569.68,2295.85a6,6,0,1,0-6-6,6.06,6.06,0,0,0,6,6Z" transform="translate(154.07 -59.16)"/><path class="cls-1" d="M673.18,3166.29a6,6,0,1,0-6-6,6.08,6.08,0,0,0,6,6Z" transform="translate(154.07 -59.16)"/><path class="cls-1" d="M92,3218.42a6,6,0,1,0-6-6,6.06,6.06,0,0,0,6,6Z" transform="translate(154.07 -59.16)"/><path class="cls-1" d="M751.36,2538.22a6,6,0,1,0-6-6,6.06,6.06,0,0,0,6,6Z" transform="translate(154.07 -59.16)"/><path class="cls-1" d="M665.36,2937a6,6,0,1,0-6-6,6.07,6.07,0,0,0,6,6Z" transform="translate(154.07 -59.16)"/><path class="cls-1" d="M1173.55,2757.13a6,6,0,1,0-6-6,6.06,6.06,0,0,0,6,6Z" transform="translate(154.07 -59.16)"/><path class="cls-1" d="M605.42,2757.13a6,6,0,1,0-6-6,6.07,6.07,0,0,0,6,6Z" transform="translate(154.07 -59.16)"/><path class="cls-1" d="M365.65,2234.41a4.5,4.5,0,1,0-4.5-4.5,4.55,4.55,0,0,0,4.5,4.5Z" transform="translate(154.07 -59.16)"/><path class="cls-1" d="M310.93,2489.81a4.5,4.5,0,1,0-4.5-4.5,4.56,4.56,0,0,0,4.5,4.5Z" transform="translate(154.07 -59.16)"/><path class="cls-1" d="M769.6,2667a4.5,4.5,0,1,0-4.5-4.5,4.55,4.55,0,0,0,4.5,4.5Z" transform="translate(154.07 -59.16)"/><path class="cls-1" d="M709.66,2325.62a4.5,4.5,0,1,0-4.5-4.5,4.55,4.55,0,0,0,4.5,4.5Z" transform="translate(154.07 -59.16)"/><path class="cls-1" d="M438.63,2753a4.5,4.5,0,1,0-4.5-4.5,4.56,4.56,0,0,0,4.5,4.5Z" transform="translate(154.07 -59.16)"/><path class="cls-1" d="M558.51,3068.37a4.5,4.5,0,1,0-4.5-4.5,4.55,4.55,0,0,0,4.5,4.5Z" transform="translate(154.07 -59.16)"/><path class="cls-1" d="M1194.4,3115.28a4.5,4.5,0,1,0-4.5-4.5,4.55,4.55,0,0,0,4.5,4.5Z" transform="translate(154.07 -59.16)"/><path class="cls-1" d="M1434.16,2685.27a4.5,4.5,0,1,0-4.5-4.5,4.55,4.55,0,0,0,4.5,4.5Z" transform="translate(154.07 -59.16)"/><path class="cls-1" d="M1632.23,2166.65a4.5,4.5,0,1,0-4.5-4.5,4.55,4.55,0,0,0,4.5,4.5Z" transform="translate(154.07 -59.16)"/><path class="cls-1" d="M1892.84,2466.35a4.5,4.5,0,1,0-4.5-4.5,4.55,4.55,0,0,0,4.5,4.5Z" transform="translate(154.07 -59.16)"/><path class="cls-1" d="M1905.87,3063.16a4.5,4.5,0,1,0-4.5-4.5,4.55,4.55,0,0,0,4.5,4.5Z" transform="translate(154.07 -59.16)"/><path class="cls-1" d="M1666.11,3198.67a4.5,4.5,0,1,0-4.5-4.5,4.55,4.55,0,0,0,4.5,4.5Z" transform="translate(154.07 -59.16)"/><path class="cls-1" d="M1340.34,3081.4a4.5,4.5,0,1,0-4.5-4.5,4.55,4.55,0,0,0,4.5,4.5Z" transform="translate(154.07 -59.16)"/><path class="cls-1" d="M1353.37,2620.11a4.5,4.5,0,1,0-4.5-4.5,4.55,4.55,0,0,0,4.5,4.5Z" transform="translate(154.07 -59.16)"/><path class="cls-1" d="M1163.13,2343.87a4.5,4.5,0,1,0-4.5-4.5,4.55,4.55,0,0,0,4.5,4.5Z" transform="translate(154.07 -59.16)"/><path class="cls-1" d="M858.21,2878.12a4.5,4.5,0,1,0-4.5-4.5,4.55,4.55,0,0,0,4.5,4.5Z" transform="translate(154.07 -59.16)"/><path class="cls-1" d="M720.09,3086.61a4.5,4.5,0,1,0-4.5-4.5,4.55,4.55,0,0,0,4.5,4.5Z" transform="translate(154.07 -59.16)"/><path class="cls-1" d="M360.44,3230a4.5,4.5,0,1,0-4.5-4.5,4.55,4.55,0,0,0,4.5,4.5Z" transform="translate(154.07 -59.16)"/><path class="cls-1" d="M331.77,2641a4.5,4.5,0,1,0-4.5-4.5,4.55,4.55,0,0,0,4.5,4.5Z" transform="translate(154.07 -59.16)"/><path class="cls-1" d="M363.05,3091.82a4.5,4.5,0,1,0-4.5-4.5,4.55,4.55,0,0,0,4.5,4.5Z" transform="translate(154.07 -59.16)"/><path class="cls-1" d="M751.36,3316a4.5,4.5,0,1,0-4.5-4.5,4.55,4.55,0,0,0,4.5,4.5Z" transform="translate(154.07 -59.16)"/><path class="cls-1" d="M1139.67,3013.64a4.5,4.5,0,1,0-4.5-4.5,4.55,4.55,0,0,0,4.5,4.5Z" transform="translate(154.07 -59.16)"/><path class="cls-1" d="M1048.46,2646.18a4.5,4.5,0,1,0-4.5-4.5,4.55,4.55,0,0,0,4.5,4.5Z" transform="translate(154.07 -59.16)"/><path class="cls-1" d="M383.41,1666.78a1.5,1.5,0,0,0,0-3,1.5,1.5,0,0,0,0,3Z" transform="translate(154.07 -59.16)"/><path class="cls-1" d="M558,1818.72c3.92,0,7.68-3.45,7.5-7.5a7.63,7.63,0,0,0-7.5-7.5c-3.92,0-7.68,3.45-7.5,7.5a7.63,7.63,0,0,0,7.5,7.5Z" transform="translate(154.07 -59.16)"/><path class="cls-1" d="M985.42,1618.05c3.93,0,7.68-3.45,7.5-7.5a7.63,7.63,0,0,0-7.5-7.5c-3.92,0-7.68,3.45-7.5,7.5a7.64,7.64,0,0,0,7.5,7.5Z" transform="translate(154.07 -59.16)"/><path class="cls-1" d="M797.78,2048.06c3.93,0,7.68-3.45,7.5-7.5a7.63,7.63,0,0,0-7.5-7.5c-3.92,0-7.68,3.45-7.5,7.5a7.63,7.63,0,0,0,7.5,7.5Z" transform="translate(154.07 -59.16)"/><path class="cls-1" d="M1235.61,2235.7c3.92,0,7.68-3.45,7.5-7.5a7.63,7.63,0,0,0-7.5-7.5c-3.92,0-7.68,3.45-7.5,7.5a7.63,7.63,0,0,0,7.5,7.5Z" transform="translate(154.07 -59.16)"/><path class="cls-1" d="M1741.2,1821.33c3.92,0,7.68-3.45,7.5-7.5a7.63,7.63,0,0,0-7.5-7.5c-3.92,0-7.68,3.45-7.5,7.5a7.63,7.63,0,0,0,7.5,7.5Z" transform="translate(154.07 -59.16)"/><path class="cls-1" d="M1788.11,2032.42c3.92,0,7.68-3.45,7.5-7.5a7.63,7.63,0,0,0-7.5-7.5c-3.92,0-7.68,3.45-7.5,7.5a7.62,7.62,0,0,0,7.5,7.5Z" transform="translate(154.07 -59.16)"/><path class="cls-1" d="M1861.08,1565.93c3.92,0,7.68-3.45,7.5-7.5a7.62,7.62,0,0,0-7.5-7.5c-3.92,0-7.68,3.45-7.5,7.5a7.63,7.63,0,0,0,7.5,7.5Z" transform="translate(154.07 -59.16)"/><path class="cls-1" d="M1616.11,1453.86c3.92,0,7.68-3.45,7.5-7.5a7.64,7.64,0,0,0-7.5-7.5c-3.93,0-7.69,3.45-7.5,7.5a7.62,7.62,0,0,0,7.5,7.5Z" transform="translate(154.07 -59.16)"/><path class="cls-1" d="M1248.64,1834.36c3.92,0,7.68-3.45,7.5-7.5a7.62,7.62,0,0,0-7.5-7.5c-3.92,0-7.68,3.45-7.5,7.5a7.63,7.63,0,0,0,7.5,7.5Z" transform="translate(154.07 -59.16)"/><path class="cls-1" d="M289.59,2238.31c3.92,0,7.68-3.45,7.5-7.5a7.63,7.63,0,0,0-7.5-7.5c-3.92,0-7.68,3.45-7.5,7.5a7.63,7.63,0,0,0,7.5,7.5Z" transform="translate(154.07 -59.16)"/><path class="cls-1" d="M586.69,1587.88a6,6,0,1,0-6-6,6.07,6.07,0,0,0,6,6Z" transform="translate(154.07 -59.16)"/><path class="cls-1" d="M503.29,2281.11a6,6,0,1,0-6-6,6.06,6.06,0,0,0,6,6Z" transform="translate(154.07 -59.16)"/><path class="cls-1" d="M229.65,2367.11a6,6,0,1,0-6-6,6.07,6.07,0,0,0,6,6Z" transform="translate(154.07 -59.16)"/><path class="cls-1" d="M146.25,1713a6,6,0,1,0-6-6,6.06,6.06,0,0,0,6,6Z" transform="translate(154.07 -59.16)"/><path class="cls-1" d="M135.83,1428.91a6,6,0,1,0-6-6,6.07,6.07,0,0,0,6,6Z" transform="translate(154.07 -59.16)"/><path class="cls-1" d="M1454.53,1423.7a6,6,0,1,0-6-6,6.08,6.08,0,0,0,6,6Z" transform="translate(154.07 -59.16)"/><path class="cls-1" d="M1306,1812a6,6,0,1,0-6-6,6.07,6.07,0,0,0,6,6Z" transform="translate(154.07 -59.16)"/><path class="cls-1" d="M1561.38,2213.35a6,6,0,1,0-6-6,6.07,6.07,0,0,0,6,6Z" transform="translate(154.07 -59.16)"/><path class="cls-1" d="M1970.54,2434.87a6,6,0,1,0-6-6,6.07,6.07,0,0,0,6,6Z" transform="translate(154.07 -59.16)"/><path class="cls-1" d="M1983.57,2249.84a6,6,0,1,0-6-6,6.07,6.07,0,0,0,6,6Z" transform="translate(154.07 -59.16)"/><path class="cls-1" d="M2017.45,1822.43a6,6,0,1,0-6-6,6.07,6.07,0,0,0,6,6Z" transform="translate(154.07 -59.16)"/><path class="cls-1" d="M1691.68,1488.85a6,6,0,1,0-6-6,6.06,6.06,0,0,0,6,6Z" transform="translate(154.07 -59.16)"/><path class="cls-1" d="M795.18,2359.29a6,6,0,1,0-6-6,6.08,6.08,0,0,0,6,6Z" transform="translate(154.07 -59.16)"/><path class="cls-1" d="M214,2411.42a6,6,0,1,0-6-6,6.06,6.06,0,0,0,6,6Z" transform="translate(154.07 -59.16)"/><path class="cls-1" d="M873.36,1731.22a6,6,0,1,0-6-6,6.06,6.06,0,0,0,6,6Z" transform="translate(154.07 -59.16)"/><path class="cls-1" d="M787.36,2130a6,6,0,1,0-6-6,6.07,6.07,0,0,0,6,6Z" transform="translate(154.07 -59.16)"/><path class="cls-1" d="M1295.55,1950.13a6,6,0,1,0-6-6,6.06,6.06,0,0,0,6,6Z" transform="translate(154.07 -59.16)"/><path class="cls-1" d="M727.42,1950.13a6,6,0,1,0-6-6,6.07,6.07,0,0,0,6,6Z" transform="translate(154.07 -59.16)"/><path class="cls-1" d="M487.65,1427.41a4.5,4.5,0,1,0-4.5-4.5,4.55,4.55,0,0,0,4.5,4.5Z" transform="translate(154.07 -59.16)"/><path class="cls-1" d="M432.93,1682.81a4.5,4.5,0,1,0-4.5-4.5,4.56,4.56,0,0,0,4.5,4.5Z" transform="translate(154.07 -59.16)"/><path class="cls-1" d="M891.6,1860a4.5,4.5,0,1,0-4.5-4.5,4.55,4.55,0,0,0,4.5,4.5Z" transform="translate(154.07 -59.16)"/><path class="cls-1" d="M831.66,1518.62a4.5,4.5,0,1,0-4.5-4.5,4.55,4.55,0,0,0,4.5,4.5Z" transform="translate(154.07 -59.16)"/><path class="cls-1" d="M560.63,1946a4.5,4.5,0,1,0-4.5-4.5,4.56,4.56,0,0,0,4.5,4.5Z" transform="translate(154.07 -59.16)"/><path class="cls-1" d="M680.51,2261.37a4.5,4.5,0,1,0-4.5-4.5,4.55,4.55,0,0,0,4.5,4.5Z" transform="translate(154.07 -59.16)"/><path class="cls-1" d="M1316.4,2308.28a4.5,4.5,0,1,0-4.5-4.5,4.55,4.55,0,0,0,4.5,4.5Z" transform="translate(154.07 -59.16)"/><path class="cls-1" d="M1556.16,1878.27a4.5,4.5,0,1,0-4.5-4.5,4.55,4.55,0,0,0,4.5,4.5Z" transform="translate(154.07 -59.16)"/><path class="cls-1" d="M1754.23,1359.65a4.5,4.5,0,1,0-4.5-4.5,4.55,4.55,0,0,0,4.5,4.5Z" transform="translate(154.07 -59.16)"/><path class="cls-1" d="M2014.84,1659.35a4.5,4.5,0,1,0-4.5-4.5,4.55,4.55,0,0,0,4.5,4.5Z" transform="translate(154.07 -59.16)"/><path class="cls-1" d="M2027.87,2256.16a4.5,4.5,0,1,0-4.5-4.5,4.55,4.55,0,0,0,4.5,4.5Z" transform="translate(154.07 -59.16)"/><path class="cls-1" d="M1788.11,2391.67a4.5,4.5,0,1,0-4.5-4.5,4.55,4.55,0,0,0,4.5,4.5Z" transform="translate(154.07 -59.16)"/><path class="cls-1" d="M1462.34,2274.4a4.5,4.5,0,1,0-4.5-4.5,4.55,4.55,0,0,0,4.5,4.5Z" transform="translate(154.07 -59.16)"/><path class="cls-1" d="M1475.37,1813.11a4.5,4.5,0,1,0-4.5-4.5,4.55,4.55,0,0,0,4.5,4.5Z" transform="translate(154.07 -59.16)"/><path class="cls-1" d="M1285.13,1536.87a4.5,4.5,0,1,0-4.5-4.5,4.55,4.55,0,0,0,4.5,4.5Z" transform="translate(154.07 -59.16)"/><path class="cls-1" d="M980.21,2071.12a4.5,4.5,0,1,0-4.5-4.5,4.55,4.55,0,0,0,4.5,4.5Z" transform="translate(154.07 -59.16)"/><path class="cls-1" d="M842.09,2279.61a4.5,4.5,0,1,0-4.5-4.5,4.55,4.55,0,0,0,4.5,4.5Z" transform="translate(154.07 -59.16)"/><path class="cls-1" d="M482.44,2423a4.5,4.5,0,1,0-4.5-4.5,4.55,4.55,0,0,0,4.5,4.5Z" transform="translate(154.07 -59.16)"/><path class="cls-1" d="M453.77,1834a4.5,4.5,0,1,0-4.5-4.5,4.55,4.55,0,0,0,4.5,4.5Z" transform="translate(154.07 -59.16)"/><path class="cls-1" d="M485.05,2284.82a4.5,4.5,0,1,0-4.5-4.5,4.55,4.55,0,0,0,4.5,4.5Z" transform="translate(154.07 -59.16)"/><path class="cls-1" d="M873.36,2509a4.5,4.5,0,1,0-4.5-4.5,4.55,4.55,0,0,0,4.5,4.5Z" transform="translate(154.07 -59.16)"/><path class="cls-1" d="M1261.67,2206.64a4.5,4.5,0,1,0-4.5-4.5,4.55,4.55,0,0,0,4.5,4.5Z" transform="translate(154.07 -59.16)"/><path class="cls-1" d="M1170.46,1839.18a4.5,4.5,0,1,0-4.5-4.5,4.55,4.55,0,0,0,4.5,4.5Z" transform="translate(154.07 -59.16)"/><path class="cls-1" d="M96.41,1530.28c3.86,0,3.87-6,0-6s-3.87,6,0,6Z" transform="translate(154.07 -59.16)"/><path class="cls-1" d="M271,1676.22c3.86,0,3.87-6,0-6s-3.87,6,0,6Z" transform="translate(154.07 -59.16)"/><path class="cls-1" d="M698.42,1475.55c3.86,0,3.87-6,0-6s-3.86,6,0,6Z" transform="translate(154.07 -59.16)"/><path class="cls-1" d="M510.78,1905.56c3.86,0,3.87-6,0-6s-3.86,6,0,6Z" transform="translate(154.07 -59.16)"/><path class="cls-1" d="M948.61,2093.2c3.86,0,3.87-6,0-6s-3.87,6,0,6Z" transform="translate(154.07 -59.16)"/><path class="cls-1" d="M1454.2,1678.83c3.86,0,3.87-6,0-6s-3.87,6,0,6Z" transform="translate(154.07 -59.16)"/><path class="cls-1" d="M1501.11,1889.92c3.86,0,3.87-6,0-6s-3.87,6,0,6Z" transform="translate(154.07 -59.16)"/><path class="cls-1" d="M1574.08,1423.43c3.86,0,3.87-6,0-6s-3.87,6,0,6Z" transform="translate(154.07 -59.16)"/><path class="cls-1" d="M1329.11,1311.36c3.86,0,3.86-6,0-6s-3.87,6,0,6Z" transform="translate(154.07 -59.16)"/><path class="cls-1" d="M961.64,1691.86c3.86,0,3.87-6,0-6s-3.87,6,0,6Z" transform="translate(154.07 -59.16)"/><path class="cls-1" d="M2.59,2095.81c3.86,0,3.87-6,0-6s-3.87,6,0,6Z" transform="translate(154.07 -59.16)"/><path class="cls-1" d="M299.69,1446.88c3.86,0,3.86-6,0-6s-3.87,6,0,6Z" transform="translate(154.07 -59.16)"/><path class="cls-1" d="M216.29,2140.11c3.86,0,3.87-6,0-6s-3.87,6,0,6Z" transform="translate(154.07 -59.16)"/><path class="cls-1" d="M-57.35,2226.11c3.86,0,3.86-6,0-6s-3.87,6,0,6Z" transform="translate(154.07 -59.16)"/><path class="cls-1" d="M-140.75,1572c3.86,0,3.87-6,0-6s-3.87,6,0,6Z" transform="translate(154.07 -59.16)"/><path class="cls-1" d="M-151.17,1287.91c3.86,0,3.86-6,0-6s-3.87,6,0,6Z" transform="translate(154.07 -59.16)"/><path class="cls-1" d="M1167.53,1282.7c3.86,0,3.86-6,0-6s-3.87,6,0,6Z" transform="translate(154.07 -59.16)"/><path class="cls-1" d="M1019,1671c3.86,0,3.86-6,0-6s-3.87,6,0,6Z" transform="translate(154.07 -59.16)"/><path class="cls-1" d="M1274.38,2072.35c3.86,0,3.86-6,0-6s-3.87,6,0,6Z" transform="translate(154.07 -59.16)"/><path class="cls-1" d="M1683.54,2293.87c3.86,0,3.87-6,0-6s-3.87,6,0,6Z" transform="translate(154.07 -59.16)"/><path class="cls-1" d="M1696.57,2108.84c3.86,0,3.87-6,0-6s-3.87,6,0,6Z" transform="translate(154.07 -59.16)"/><path class="cls-1" d="M1730.45,1681.43c3.86,0,3.87-6,0-6s-3.87,6,0,6Z" transform="translate(154.07 -59.16)"/><path class="cls-1" d="M1404.68,1347.85c3.86,0,3.87-6,0-6s-3.86,6,0,6Z" transform="translate(154.07 -59.16)"/><path class="cls-1" d="M508.18,2218.29c3.86,0,3.86-6,0-6s-3.87,6,0,6Z" transform="translate(154.07 -59.16)"/><path class="cls-1" d="M-73,2270.42c3.86,0,3.87-6,0-6s-3.87,6,0,6Z" transform="translate(154.07 -59.16)"/><path class="cls-1" d="M586.36,1590.22c3.86,0,3.87-6,0-6s-3.87,6,0,6Z" transform="translate(154.07 -59.16)"/><path class="cls-1" d="M500.36,1989c3.86,0,3.87-6,0-6s-3.87,6,0,6Z" transform="translate(154.07 -59.16)"/><path class="cls-1" d="M1008.55,1809.13c3.86,0,3.87-6,0-6s-3.87,6,0,6Z" transform="translate(154.07 -59.16)"/><path class="cls-1" d="M440.42,1809.13c3.86,0,3.86-6,0-6s-3.87,6,0,6Z" transform="translate(154.07 -59.16)"/><path class="cls-1" d="M200.65,1287.91c3.86,0,3.87-6,0-6s-3.86,6,0,6Z" transform="translate(154.07 -59.16)"/><path class="cls-1" d="M145.93,1543.31c3.86,0,3.86-6,0-6s-3.87,6,0,6Z" transform="translate(154.07 -59.16)"/><path class="cls-1" d="M604.6,1720.52c3.86,0,3.87-6,0-6s-3.86,6,0,6Z" transform="translate(154.07 -59.16)"/><path class="cls-1" d="M544.66,1379.12c3.86,0,3.87-6,0-6s-3.86,6,0,6Z" transform="translate(154.07 -59.16)"/><path class="cls-1" d="M273.63,1806.53c3.86,0,3.86-6,0-6s-3.87,6,0,6Z" transform="translate(154.07 -59.16)"/><path class="cls-1" d="M393.51,2121.87c3.86,0,3.86-6,0-6s-3.87,6,0,6Z" transform="translate(154.07 -59.16)"/><path class="cls-1" d="M1029.4,2168.78c3.86,0,3.87-6,0-6s-3.87,6,0,6Z" transform="translate(154.07 -59.16)"/><path class="cls-1" d="M1269.16,1738.77c3.87,0,3.87-6,0-6s-3.86,6,0,6Z" transform="translate(154.07 -59.16)"/><path class="cls-1" d="M1467.23,1220.15c3.86,0,3.87-6,0-6s-3.87,6,0,6Z" transform="translate(154.07 -59.16)"/><path class="cls-1" d="M1727.84,1519.85c3.86,0,3.87-6,0-6s-3.87,6,0,6Z" transform="translate(154.07 -59.16)"/><path class="cls-1" d="M1740.87,2116.66c3.86,0,3.87-6,0-6s-3.86,6,0,6Z" transform="translate(154.07 -59.16)"/><path class="cls-1" d="M1501.11,2252.17c3.86,0,3.87-6,0-6s-3.87,6,0,6Z" transform="translate(154.07 -59.16)"/><path class="cls-1" d="M1175.34,2134.9c3.86,0,3.87-6,0-6s-3.86,6,0,6Z" transform="translate(154.07 -59.16)"/><path class="cls-1" d="M1188.37,1673.61c3.87,0,3.87-6,0-6s-3.86,6,0,6Z" transform="translate(154.07 -59.16)"/><path class="cls-1" d="M998.13,1397.37c3.86,0,3.86-6,0-6s-3.87,6,0,6Z" transform="translate(154.07 -59.16)"/><path class="cls-1" d="M693.21,1931.62c3.86,0,3.87-6,0-6s-3.87,6,0,6Z" transform="translate(154.07 -59.16)"/><path class="cls-1" d="M555.09,2140.11c3.86,0,3.86-6,0-6s-3.87,6,0,6Z" transform="translate(154.07 -59.16)"/><path class="cls-1" d="M195.44,2283.45c3.86,0,3.87-6,0-6s-3.87,6,0,6Z" transform="translate(154.07 -59.16)"/><path class="cls-1" d="M166.77,1694.46c3.86,0,3.87-6,0-6s-3.86,6,0,6Z" transform="translate(154.07 -59.16)"/><path class="cls-1" d="M198.05,2145.32c3.86,0,3.86-6,0-6s-3.87,6,0,6Z" transform="translate(154.07 -59.16)"/><path class="cls-1" d="M586.36,2369.45c3.86,0,3.87-6,0-6s-3.87,6,0,6Z" transform="translate(154.07 -59.16)"/><path class="cls-1" d="M974.67,2067.14c3.86,0,3.87-6,0-6s-3.86,6,0,6Z" transform="translate(154.07 -59.16)"/><path class="cls-1" d="M883.46,1699.68c3.86,0,3.87-6,0-6s-3.87,6,0,6Z" transform="translate(154.07 -59.16)"/><path class="cls-1" d="M163.37,2986.77c3.86,0,3.87-6,0-6s-3.87,6,0,6Z" transform="translate(154.07 -59.16)"/><path class="cls-1" d="M205.11,2494.27c3.86,0,3.86-6,0-6s-3.87,6,0,6Z" transform="translate(154.07 -59.16)"/><path class="cls-1" d="M718.48,2970.07c3.86,0,3.86-6,0-6s-3.87,6,0,6Z" transform="translate(154.07 -59.16)"/><path class="cls-1" d="M1039.85,2728c3.86,0,3.87-6,0-6s-3.86,6,0,6Z" transform="translate(154.07 -59.16)"/><path class="cls-1" d="M1231.85,2999.29c3.86,0,3.86-6,0-6s-3.87,6,0,6Z" transform="translate(154.07 -59.16)"/><path class="cls-1" d="M1407.14,2920c3.86,0,3.87-6,0-6s-3.86,6,0,6Z" transform="translate(154.07 -59.16)"/><path class="cls-1" d="M789.43,3061.9c3.86,0,3.87-6,0-6s-3.87,6,0,6Z" transform="translate(154.07 -59.16)"/><path class="cls-1" d="M1115,2673.74c3.86,0,3.87-6,0-6s-3.87,6,0,6Z" transform="translate(154.07 -59.16)"/><path class="cls-1" d="M772.74,2223c3.86,0,3.86-6,0-6s-3.87,6,0,6Z" transform="translate(154.07 -59.16)"/><path class="cls-1" d="M1052.38,1609.44c3.86,0,3.86-6,0-6s-3.87,6,0,6Z" transform="translate(154.07 -59.16)"/><path class="cls-1" d="M827,1947.51c3.86,0,3.87-6,0-6s-3.86,6,0,6Z" transform="translate(154.07 -59.16)"/><path class="cls-1" d="M605.79,2089.42c3.86,0,3.86-6,0-6s-3.87,6,0,6Z" transform="translate(154.07 -59.16)"/><path class="cls-1" d="M255.19,1876.56c3.86,0,3.87-6,0-6s-3.86,6,0,6Z" transform="translate(154.07 -59.16)"/><path class="cls-1" d="M251,2097.76c3.86,0,3.87-6,0-6s-3.87,6,0,6Z" transform="translate(154.07 -59.16)"/><path class="cls-1" d="M263.54,1584.4c3.86,0,3.87-6,0-6s-3.87,6,0,6Z" transform="translate(154.07 -59.16)"/><path class="cls-1" d="M948,1684.57c3.86,0,3.87-6,0-6s-3.87,6,0,6Z" transform="translate(154.07 -59.16)"/><path class="cls-1" d="M1448.88,1939.16c3.86,0,3.87-6,0-6s-3.87,6,0,6Z" transform="translate(154.07 -59.16)"/><path class="cls-1" d="M1615.83,1663.7c3.86,0,3.87-6,0-6s-3.87,6,0,6Z" transform="translate(154.07 -59.16)"/><path class="cls-1" d="M1332,1713.78c3.86,0,3.86-6,0-6s-3.87,6,0,6Z" transform="translate(154.07 -59.16)"/><path class="cls-1" d="M1503.14,1905.77c3.86,0,3.87-6,0-6s-3.87,6,0,6Z" transform="translate(154.07 -59.16)"/><path class="cls-1" d="M1494.79,1705.43c3.86,0,3.87-6,0-6s-3.87,6,0,6Z" transform="translate(154.07 -59.16)"/><path class="cls-1" d="M1315.32,1914.12c3.86,0,3.87-6,0-6s-3.87,6,0,6Z" transform="translate(154.07 -59.16)"/><path class="cls-1" d="M1311.15,1914.12c3.86,0,3.86-6,0-6s-3.87,6,0,6Z" transform="translate(154.07 -59.16)"/><path class="cls-1" d="M993.94,1814c3.86,0,3.87-6,0-6s-3.86,6,0,6Z" transform="translate(154.07 -59.16)"/><path class="cls-1" d="M1148.37,2143.68c3.86,0,3.87-6,0-6s-3.87,6,0,6Z" transform="translate(154.07 -59.16)"/><path class="cls-1" d="M1185.93,2160.37c3.87,0,3.87-6,0-6s-3.86,6,0,6Z" transform="translate(154.07 -59.16)"/><path class="cls-1" d="M1653.39,2915.82c3.86,0,3.87-6,0-6s-3.86,6,0,6Z" transform="translate(154.07 -59.16)"/><path class="cls-1" d="M1824.52,3233c3.86,0,3.86-6,0-6s-3.87,6,0,6Z" transform="translate(154.07 -59.16)"/><path class="cls-1" d="M1561.57,3228.85c3.86,0,3.87-6,0-6s-3.87,6,0,6Z" transform="translate(154.07 -59.16)"/><path class="cls-1" d="M1540.7,2940.86c3.86,0,3.87-6,0-6s-3.87,6,0,6Z" transform="translate(154.07 -59.16)"/><path class="cls-1" d="M1620,2661.22c3.86,0,3.87-6,0-6s-3.86,6,0,6Z" transform="translate(154.07 -59.16)"/><path class="cls-1" d="M1365.41,2874.08c3.86,0,3.86-6,0-6s-3.87,6,0,6Z" transform="translate(154.07 -59.16)"/><path class="cls-1" d="M939.68,2844.86c3.87,0,3.87-6,0-6s-3.86,6,0,6Z" transform="translate(154.07 -59.16)"/><path class="cls-1" d="M964.73,1020.94c3.86,0,3.86-6,0-6s-3.87,6,0,6Z" transform="translate(154.07 -59.16)"/><path class="cls-1" d="M856.21,1367.36c3.86,0,3.87-6,0-6s-3.87,6,0,6Z" transform="translate(154.07 -59.16)"/><path class="cls-1" d="M493.1,1242.15c3.86,0,3.86-6,0-6s-3.87,6,0,6Z" transform="translate(154.07 -59.16)"/><path class="cls-1" d="M367.88,987.55c3.86,0,3.87-6,0-6s-3.86,6,0,6Z" transform="translate(154.07 -59.16)"/><path class="cls-1" d="M205.11,795.56c3.86,0,3.86-6,0-6s-3.87,6,0,6Z" transform="translate(154.07 -59.16)"/><path class="cls-1" d="M104.94,1071c3.86,0,3.87-6,0-6s-3.87,6,0,6Z" transform="translate(154.07 -59.16)"/><path class="cls-1" d="M1219.32,970.86c3.87,0,3.87-6,0-6s-3.86,6,0,6Z" transform="translate(154.07 -59.16)"/><path class="cls-1" d="M1607.48,1363.19c3.86,0,3.87-6,0-6s-3.87,6,0,6Z" transform="translate(154.07 -59.16)"/><path class="cls-1" d="M1774.43,958.34c3.86,0,3.87-6,0-6s-3.87,6,0,6Z" transform="translate(154.07 -59.16)"/><path class="cls-1" d="M1707.65,265.5c3.86,0,3.87-6,0-6s-3.87,6,0,6Z" transform="translate(154.07 -59.16)"/><path class="cls-1" d="M1423.84,136.11c3.86,0,3.86-6,0-6s-3.87,6,0,6Z" transform="translate(154.07 -59.16)"/><path class="cls-1" d="M530.66,165.33c3.86,0,3.87-6,0-6s-3.87,6,0,6Z" transform="translate(154.07 -59.16)"/><path class="cls-1" d="M67.37,65.16c3.87,0,3.87-6,0-6s-3.86,6,0,6Z" transform="translate(154.07 -59.16)"/><path class="cls-1" d="M167.54,478.36c3.86,0,3.87-6,0-6s-3.86,6,0,6Z" transform="translate(154.07 -59.16)"/><path class="cls-1" d="M885.43,607.74c3.86,0,3.86-6,0-6s-3.87,6,0,6Z" transform="translate(154.07 -59.16)"/><path class="cls-1" d="M689.26,273.84c3.86,0,3.87-6,0-6s-3.87,6,0,6Z" transform="translate(154.07 -59.16)"/><path class="cls-1" d="M1557.4,561.83c3.86,0,3.86-6,0-6s-3.87,6,0,6Z" transform="translate(154.07 -59.16)"/><path class="cls-1" d="M1670.09,1037.64c3.86,0,3.86-6,0-6s-3.87,6,0,6Z" transform="translate(154.07 -59.16)"/><path class="cls-1" d="M1403,954.16c3.86,0,3.87-6,0-6s-3.87,6,0,6Z" transform="translate(154.07 -59.16)"/><path class="cls-1" d="M1586.61,824.78c3.86,0,3.87-6,0-6s-3.86,6,0,6Z" transform="translate(154.07 -59.16)"/><path class="cls-1" d="M1853.73,574.35c3.86,0,3.87-6,0-6s-3.87,6,0,6Z" transform="translate(154.07 -59.16)"/></svg>