<svg xmlns="http://www.w3.org/2000/svg" viewBox="0 0 1881 9753.18"><defs><style>.cls-1{fill:#ffc7d2;}.cls-2{fill:#ffd8b9;}.cls-3{fill:#ffadb2;}.cls-4{fill:#ffc0a8;}.cls-5{fill:#ffab79;}.cls-6{fill:#ffe0ff;}.cls-7{fill:#d7b0fe;}.cls-8{fill:#cbf;}.cls-9{fill:#bdebff;}.cls-10{fill:#dae0ff;}.cls-11{fill:#ffb6d4;}</style></defs><g id="Ebene_10" data-name="Ebene 10"><path class="cls-1" d="M0,268.83S484.58,35.35,994,252.35c681.6,290.35,887,106.93,887,106.93V1113s-484.58,295.32-1032.19,118.32S0,1145.19,0,1145.19Z" transform="translate(0 -160)"/><path class="cls-2" d="M0,354s484.58-233.48,994-16.48c681.6,290.36,887,106.93,887,106.93v753.75s-484.58,295.32-1032.19,118.32S0,1230.39,0,1230.39Z" transform="translate(0 -160)"/><path class="cls-3" d="M0,470s484.58-233.48,994-16.48c681.6,290.36,887,106.93,887,106.93v753.75s-484.58,295.32-1032.19,118.32S0,1346.39,0,1346.39Z" transform="translate(0 -160)"/><path class="cls-4" d="M0,627s484.58-233.48,994-16.48c681.6,290.36,887,106.93,887,106.93v753.75s-484.58,295.32-1032.19,118.32S0,1503.39,0,1503.39Z" transform="translate(0 -160)"/><path class="cls-5" d="M0,742s484.58-233.48,994-16.48c681.6,290.36,887,106.93,887,106.93v753.75s-484.58,295.32-1032.19,118.32S0,1618.39,0,1618.39Z" transform="translate(0 -160)"/><path class="cls-6" d="M0,855s484.58-233.48,994-16.48c681.6,290.36,887,106.93,887,106.93v753.75s-484.58,295.32-1032.19,118.32S0,1731.39,0,1731.39Z" transform="translate(0 -160)"/><path class="cls-7" d="M0,1008s484.58-233.48,994-16.48c681.6,290.36,887,106.93,887,106.93v753.75s-484.58,295.32-1032.19,118.32S0,1884.39,0,1884.39Z" transform="translate(0 -160)"/><path class="cls-8" d="M0,1108s484.58-233.48,994-16.48c681.6,290.36,887,106.93,887,106.93v753.75s-484.58,295.32-1032.19,118.32S0,1984.39,0,1984.39Z" transform="translate(0 -160)"/><path class="cls-9" d="M0,1277s484.58-233.48,994-16.48c681.6,290.36,887,106.93,887,106.93v753.75s-484.58,295.32-1032.19,118.32S0,2153.39,0,2153.39Z" transform="translate(0 -160)"/><path class="cls-10" d="M0,1432s484.58-233.48,994-16.48c681.6,290.36,887,106.93,887,106.93v753.75s-484.58,295.32-1032.19,118.32S0,2308.39,0,2308.39Z" transform="translate(0 -160)"/><path class="cls-11" d="M0,1598.36s484.58-233.48,994-16.48c681.6,290.35,887,106.93,887,106.93v753.75s-484.58,295.32-1032.19,118.32S0,2474.72,0,2474.72Z" transform="translate(0 -160)"/><path class="cls-1" d="M0,1735.91s484.58-233.48,994-16.48c681.6,290.35,887,106.93,887,106.93v753.75s-484.58,295.32-1032.19,118.32S0,2612.27,0,2612.27Z" transform="translate(0 -160)"/><path class="cls-2" d="M0,1821.11s484.58-233.48,994-16.48c681.6,290.35,887,106.93,887,106.93v753.75s-484.58,295.32-1032.19,118.32S0,2697.47,0,2697.47Z" transform="translate(0 -160)"/><path class="cls-3" d="M0,1937.11s484.58-233.48,994-16.48c681.6,290.35,887,106.93,887,106.93v753.75s-484.58,295.32-1032.19,118.32S0,2813.47,0,2813.47Z" transform="translate(0 -160)"/><path class="cls-4" d="M0,2094.11s484.58-233.48,994-16.48c681.6,290.35,887,106.93,887,106.93v753.75s-484.58,295.32-1032.19,118.32S0,2970.47,0,2970.47Z" transform="translate(0 -160)"/><path class="cls-5" d="M0,2209.11s484.58-233.48,994-16.48c681.6,290.35,887,106.93,887,106.93v753.75s-484.58,295.32-1032.19,118.32S0,3085.47,0,3085.47Z" transform="translate(0 -160)"/><path class="cls-6" d="M0,2322.11s484.58-233.48,994-16.48c681.6,290.35,887,106.93,887,106.93v753.75s-484.58,295.32-1032.19,118.32S0,3198.47,0,3198.47Z" transform="translate(0 -160)"/><path class="cls-7" d="M0,2475.11s484.58-233.48,994-16.48c681.6,290.35,887,106.93,887,106.93v753.75s-484.58,295.32-1032.19,118.32S0,3351.47,0,3351.47Z" transform="translate(0 -160)"/><path class="cls-8" d="M0,2575.11s484.58-233.48,994-16.48c681.6,290.35,887,106.93,887,106.93v753.75s-484.58,295.32-1032.19,118.32S0,3451.47,0,3451.47Z" transform="translate(0 -160)"/><path class="cls-9" d="M0,2744.11s484.58-233.48,994-16.48c681.6,290.35,887,106.93,887,106.93v753.75s-484.58,295.32-1032.19,118.32S0,3620.47,0,3620.47Z" transform="translate(0 -160)"/><path class="cls-10" d="M0,2899.11s484.58-233.48,994-16.48c681.6,290.35,887,106.93,887,106.93v753.75s-484.58,295.32-1032.19,118.32S0,3775.47,0,3775.47Z" transform="translate(0 -160)"/><path class="cls-11" d="M0,3065.43S484.58,2832,994,3049c681.6,290.36,887,106.93,887,106.93v753.75S1396.42,4205,848.81,4028,0,3941.79,0,3941.79Z" transform="translate(0 -160)"/><path class="cls-1" d="M0,3185.83s484.58-233.48,994-16.48c681.6,290.35,887,106.93,887,106.93V4030s-484.58,295.32-1032.19,118.32S0,4062.19,0,4062.19Z" transform="translate(0 -160)"/><path class="cls-2" d="M0,3271s484.58-233.48,994-16.48c681.6,290.35,887,106.93,887,106.93v753.75s-484.58,295.32-1032.19,118.32S0,4147.39,0,4147.39Z" transform="translate(0 -160)"/><path class="cls-3" d="M0,3387s484.58-233.48,994-16.48c681.6,290.35,887,106.93,887,106.93v753.75s-484.58,295.32-1032.19,118.32S0,4263.39,0,4263.39Z" transform="translate(0 -160)"/><path class="cls-4" d="M0,3544s484.58-233.48,994-16.48c681.6,290.35,887,106.93,887,106.93v753.75s-484.58,295.32-1032.19,118.32S0,4420.39,0,4420.39Z" transform="translate(0 -160)"/><path class="cls-5" d="M0,3659s484.58-233.48,994-16.48c681.6,290.35,887,106.93,887,106.93v753.75s-484.58,295.32-1032.19,118.32S0,4535.39,0,4535.39Z" transform="translate(0 -160)"/><path class="cls-6" d="M0,3772s484.58-233.48,994-16.48c681.6,290.35,887,106.93,887,106.93v753.75s-484.58,295.32-1032.19,118.32S0,4648.39,0,4648.39Z" transform="translate(0 -160)"/><path class="cls-7" d="M0,3925s484.58-233.48,994-16.48c681.6,290.35,887,106.93,887,106.93v753.75s-484.58,295.32-1032.19,118.32S0,4801.39,0,4801.39Z" transform="translate(0 -160)"/><path class="cls-8" d="M0,4025s484.58-233.48,994-16.48c681.6,290.35,887,106.93,887,106.93v753.75s-484.58,295.32-1032.19,118.32S0,4901.39,0,4901.39Z" transform="translate(0 -160)"/><path class="cls-9" d="M0,4194s484.58-233.48,994-16.48c681.6,290.35,887,106.93,887,106.93v753.75s-484.58,295.32-1032.19,118.32S0,5070.39,0,5070.39Z" transform="translate(0 -160)"/><path class="cls-10" d="M0,4349s484.58-233.48,994-16.48c681.6,290.35,887,106.93,887,106.93v753.75s-484.58,295.32-1032.19,118.32S0,5225.39,0,5225.39Z" transform="translate(0 -160)"/><path class="cls-11" d="M0,4515.35s484.58-233.47,994-16.47c681.6,290.35,887,106.92,887,106.92v753.76s-484.58,295.32-1032.19,118.32S0,5391.72,0,5391.72Z" transform="translate(0 -160)"/><path class="cls-1" d="M0,4652.9s484.58-233.47,994-16.47c681.6,290.35,887,106.92,887,106.92v753.76s-484.58,295.32-1032.19,118.32S0,5529.27,0,5529.27Z" transform="translate(0 -160)"/><path class="cls-2" d="M0,4738.11s484.58-233.48,994-16.48c681.6,290.35,887,106.93,887,106.93v753.75s-484.58,295.32-1032.19,118.32S0,5614.47,0,5614.47Z" transform="translate(0 -160)"/><path class="cls-3" d="M0,4854.11s484.58-233.48,994-16.48c681.6,290.35,887,106.93,887,106.93v753.75s-484.58,295.32-1032.19,118.32S0,5730.47,0,5730.47Z" transform="translate(0 -160)"/><path class="cls-4" d="M0,5011.11s484.58-233.48,994-16.48c681.6,290.35,887,106.93,887,106.93v753.75s-484.58,295.32-1032.19,118.32S0,5887.47,0,5887.47Z" transform="translate(0 -160)"/><path class="cls-5" d="M0,5126.11s484.58-233.48,994-16.48c681.6,290.35,887,106.93,887,106.93v753.75s-484.58,295.32-1032.19,118.32S0,6002.47,0,6002.47Z" transform="translate(0 -160)"/><path class="cls-6" d="M0,5239.11s484.58-233.48,994-16.48c681.6,290.35,887,106.93,887,106.93v753.75s-484.58,295.32-1032.19,118.32S0,6115.47,0,6115.47Z" transform="translate(0 -160)"/><path class="cls-7" d="M0,5392.11s484.58-233.48,994-16.48c681.6,290.35,887,106.93,887,106.93v753.75s-484.58,295.32-1032.19,118.32S0,6268.47,0,6268.47Z" transform="translate(0 -160)"/><path class="cls-8" d="M0,5492.11s484.58-233.48,994-16.48c681.6,290.35,887,106.93,887,106.93v753.75s-484.58,295.32-1032.19,118.32S0,6368.47,0,6368.47Z" transform="translate(0 -160)"/><path class="cls-9" d="M0,5661.11s484.58-233.48,994-16.48c681.6,290.35,887,106.93,887,106.93v753.75s-484.58,295.32-1032.19,118.32S0,6537.47,0,6537.47Z" transform="translate(0 -160)"/><path class="cls-10" d="M0,5816.11s484.58-233.48,994-16.48c681.6,290.35,887,106.93,887,106.93v753.75s-484.58,295.32-1032.19,118.32S0,6692.47,0,6692.47Z" transform="translate(0 -160)"/><path class="cls-11" d="M0,5982.43S484.58,5749,994,5966c681.6,290.35,887,106.93,887,106.93v753.75S1396.42,7122,848.81,6945,0,6858.79,0,6858.79Z" transform="translate(0 -160)"/><path class="cls-1" d="M0,6097.55s484.58-233.48,994-16.48c681.6,290.35,887,106.93,887,106.93v753.75s-484.58,295.32-1032.19,118.32S0,6973.91,0,6973.91Z" transform="translate(0 -160)"/><path class="cls-2" d="M0,6182.75s484.58-233.48,994-16.48c681.6,290.35,887,106.93,887,106.93V7027s-484.58,295.32-1032.19,118.32S0,7059.11,0,7059.11Z" transform="translate(0 -160)"/><path class="cls-3" d="M0,6298.75s484.58-233.48,994-16.48c681.6,290.35,887,106.93,887,106.93V7143s-484.58,295.32-1032.19,118.32S0,7175.11,0,7175.11Z" transform="translate(0 -160)"/><path class="cls-4" d="M0,6455.75s484.58-233.48,994-16.48c681.6,290.35,887,106.93,887,106.93V7300s-484.58,295.32-1032.19,118.32S0,7332.11,0,7332.11Z" transform="translate(0 -160)"/><path class="cls-5" d="M0,6570.75s484.58-233.48,994-16.48c681.6,290.35,887,106.93,887,106.93V7415s-484.58,295.32-1032.19,118.32S0,7447.11,0,7447.11Z" transform="translate(0 -160)"/><path class="cls-6" d="M0,6683.75s484.58-233.48,994-16.48c681.6,290.35,887,106.93,887,106.93V7528s-484.58,295.32-1032.19,118.32S0,7560.11,0,7560.11Z" transform="translate(0 -160)"/><path class="cls-7" d="M0,6836.75s484.58-233.48,994-16.48c681.6,290.35,887,106.93,887,106.93V7681s-484.58,295.32-1032.19,118.32S0,7713.11,0,7713.11Z" transform="translate(0 -160)"/><path class="cls-8" d="M0,6936.75s484.58-233.48,994-16.48c681.6,290.35,887,106.93,887,106.93V7781s-484.58,295.32-1032.19,118.32S0,7813.11,0,7813.11Z" transform="translate(0 -160)"/><path class="cls-9" d="M0,7105.75s484.58-233.48,994-16.48c681.6,290.35,887,106.93,887,106.93V7950s-484.58,295.32-1032.19,118.32S0,7982.11,0,7982.11Z" transform="translate(0 -160)"/><path class="cls-10" d="M0,7260.75s484.58-233.48,994-16.48c681.6,290.35,887,106.93,887,106.93V8105s-484.58,295.32-1032.19,118.32S0,8137.11,0,8137.11Z" transform="translate(0 -160)"/><path class="cls-11" d="M0,7427.07s484.58-233.48,994-16.48c681.6,290.36,887,106.93,887,106.93v753.75s-484.58,295.32-1032.19,118.32S0,8303.43,0,8303.43Z" transform="translate(0 -160)"/><path class="cls-1" d="M0,7564.62s484.58-233.48,994-16.48c681.6,290.36,887,106.93,887,106.93v753.75s-484.58,295.32-1032.19,118.32S0,8441,0,8441Z" transform="translate(0 -160)"/><path class="cls-2" d="M0,7649.83s484.58-233.48,994-16.48c681.6,290.35,887,106.93,887,106.93V8494s-484.58,295.32-1032.19,118.32S0,8526.19,0,8526.19Z" transform="translate(0 -160)"/><path class="cls-3" d="M0,7765.83s484.58-233.48,994-16.48c681.6,290.35,887,106.93,887,106.93V8610s-484.58,295.32-1032.19,118.32S0,8642.19,0,8642.19Z" transform="translate(0 -160)"/><path class="cls-4" d="M0,7922.83s484.58-233.48,994-16.48c681.6,290.35,887,106.93,887,106.93V8767s-484.58,295.32-1032.19,118.32S0,8799.19,0,8799.19Z" transform="translate(0 -160)"/><path class="cls-5" d="M0,8037.83s484.58-233.48,994-16.48c681.6,290.35,887,106.93,887,106.93V8882s-484.58,295.32-1032.19,118.32S0,8914.19,0,8914.19Z" transform="translate(0 -160)"/><path class="cls-6" d="M0,8150.83s484.58-233.48,994-16.48c681.6,290.35,887,106.93,887,106.93V8995s-484.58,295.32-1032.19,118.32S0,9027.19,0,9027.19Z" transform="translate(0 -160)"/><path class="cls-7" d="M0,8303.83s484.58-233.48,994-16.48c681.6,290.35,887,106.93,887,106.93V9148s-484.58,295.32-1032.19,118.32S0,9180.19,0,9180.19Z" transform="translate(0 -160)"/><path class="cls-8" d="M0,8403.83s484.58-233.48,994-16.48c681.6,290.35,887,106.93,887,106.93V9248s-484.58,295.32-1032.19,118.32S0,9280.19,0,9280.19Z" transform="translate(0 -160)"/><path class="cls-9" d="M0,8572.83s484.58-233.48,994-16.48c681.6,290.35,887,106.93,887,106.93V9417s-484.58,295.32-1032.19,118.32S0,9449.19,0,9449.19Z" transform="translate(0 -160)"/><path class="cls-10" d="M0,8727.83s484.58-233.48,994-16.48c681.6,290.35,887,106.93,887,106.93V9572s-484.58,295.32-1032.19,118.32S0,9604.19,0,9604.19Z" transform="translate(0 -160)"/><path class="cls-11" d="M0,8894.15s484.58-233.48,994-16.48c681.6,290.35,887,106.93,887,106.93v753.75s-484.58,295.32-1032.19,118.32S0,9770.51,0,9770.51Z" transform="translate(0 -160)"/></g></svg>