<svg id="visual" viewBox="0 0 900 600" width="900" height="600" xmlns="http://www.w3.org/2000/svg" xmlns:xlink="http://www.w3.org/1999/xlink" version="1.1"><path d="M0 0L11.5 8.2C23 16.3 46 32.7 69 40.8C92 49 115 49 138.2 50C161.3 51 184.7 53 207.8 58C231 63 254 71 277 66C300 61 323 43 346 34C369 25 392 25 415.2 31C438.3 37 461.7 49 484.8 57C508 65 531 69 554 69C577 69 600 65 623 56C646 47 669 33 692.2 31C715.3 29 738.7 39 761.8 35.8C785 32.7 808 16.3 831 12.3C854 8.3 877 16.7 888.5 20.8L900 25L900 0L888.5 0C877 0 854 0 831 0C808 0 785 0 761.8 0C738.7 0 715.3 0 692.2 0C669 0 646 0 623 0C600 0 577 0 554 0C531 0 508 0 484.8 0C461.7 0 438.3 0 415.2 0C392 0 369 0 346 0C323 0 300 0 277 0C254 0 231 0 207.8 0C184.7 0 161.3 0 138.2 0C115 0 92 0 69 0C46 0 23 0 11.5 0L0 0Z" fill="#ff4040"></path><path d="M0 25L11.5 40C23 55 46 85 69 100C92 115 115 115 138.2 106C161.3 97 184.7 79 207.8 82C231 85 254 109 277 110C300 111 323 89 346 78C369 67 392 67 415.2 66C438.3 65 461.7 63 484.8 73C508 83 531 105 554 106C577 107 600 87 623 70C646 53 669 39 692.2 42C715.3 45 738.7 65 761.8 60.8C785 56.7 808 28.3 831 29.3C854 30.3 877 60.7 888.5 75.8L900 91L900 23L888.5 19.2C877 15.3 854 7.7 831 11.7C808 15.7 785 31.3 761.8 34.2C738.7 37 715.3 27 692.2 29C669 31 646 45 623 54C600 63 577 67 554 67C531 67 508 63 484.8 55C461.7 47 438.3 35 415.2 29C392 23 369 23 346 32C323 41 300 59 277 64C254 69 231 61 207.8 56C184.7 51 161.3 49 138.2 48C115 47 92 47 69 39.2C46 31.3 23 15.7 11.5 7.8L0 0Z" fill="#e93839"></path><path d="M0 145L11.5 156C23 167 46 189 69 235C92 281 115 351 138.2 341C161.3 331 184.7 241 207.8 215C231 189 254 227 277 222C300 217 323 169 346 141C369 113 392 105 415.2 123C438.3 141 461.7 185 484.8 205C508 225 531 221 554 205C577 189 600 161 623 155C646 149 669 165 692.2 177C715.3 189 738.7 197 761.8 182C785 167 808 129 831 114C854 99 877 107 888.5 111L900 115L900 89L888.5 74.2C877 59.3 854 29.7 831 28.7C808 27.7 785 55.3 761.8 59.2C738.7 63 715.3 43 692.2 40C669 37 646 51 623 68C600 85 577 105 554 104C531 103 508 81 484.8 71C461.7 61 438.3 63 415.2 64C392 65 369 65 346 76C323 87 300 109 277 108C254 107 231 83 207.8 80C184.7 77 161.3 95 138.2 104C115 113 92 113 69 98C46 83 23 53 11.5 38L0 23Z" fill="#d43033"></path><path d="M0 229L11.5 231C23 233 46 237 69 270C92 303 115 365 138.2 362C161.3 359 184.7 291 207.8 266C231 241 254 259 277 255C300 251 323 225 346 201C369 177 392 155 415.2 170C438.3 185 461.7 237 484.8 256C508 275 531 261 554 244C577 227 600 207 623 213C646 219 669 251 692.2 262C715.3 273 738.7 263 761.8 248C785 233 808 213 831 202C854 191 877 189 888.5 188L900 187L900 113L888.5 109C877 105 854 97 831 112C808 127 785 165 761.8 180C738.7 195 715.3 187 692.2 175C669 163 646 147 623 153C600 159 577 187 554 203C531 219 508 223 484.8 203C461.7 183 438.3 139 415.2 121C392 103 369 111 346 139C323 167 300 215 277 220C254 225 231 187 207.8 213C184.7 239 161.3 329 138.2 339C115 349 92 279 69 233C46 187 23 165 11.5 154L0 143Z" fill="#bf292c"></path><path d="M0 277L11.5 282C23 287 46 297 69 324C92 351 115 395 138.2 389C161.3 383 184.7 327 207.8 309C231 291 254 311 277 309C300 307 323 283 346 255C369 227 392 195 415.2 201C438.3 207 461.7 251 484.8 275C508 299 531 303 554 294C577 285 600 263 623 261C646 259 669 277 692.2 281C715.3 285 738.7 275 761.8 261C785 247 808 229 831 220C854 211 877 211 888.5 211L900 211L900 185L888.5 186C877 187 854 189 831 200C808 211 785 231 761.8 246C738.7 261 715.3 271 692.2 260C669 249 646 217 623 211C600 205 577 225 554 242C531 259 508 273 484.8 254C461.7 235 438.3 183 415.2 168C392 153 369 175 346 199C323 223 300 249 277 253C254 257 231 239 207.8 264C184.7 289 161.3 357 138.2 360C115 363 92 301 69 268C46 235 23 231 11.5 229L0 227Z" fill="#aa2226"></path><path d="M0 313L11.5 314C23 315 46 317 69 341C92 365 115 411 138.2 407C161.3 403 184.7 349 207.8 328C231 307 254 319 277 316C300 313 323 295 346 276C369 257 392 237 415.2 250C438.3 263 461.7 309 484.8 324C508 339 531 323 554 307C577 291 600 275 623 280C646 285 669 311 692.2 315C715.3 319 738.7 301 761.8 289C785 277 808 271 831 267C854 263 877 261 888.5 260L900 259L900 209L888.5 209C877 209 854 209 831 218C808 227 785 245 761.8 259C738.7 273 715.3 283 692.2 279C669 275 646 257 623 259C600 261 577 283 554 292C531 301 508 297 484.8 273C461.7 249 438.3 205 415.2 199C392 193 369 225 346 253C323 281 300 305 277 307C254 309 231 289 207.8 307C184.7 325 161.3 381 138.2 387C115 393 92 349 69 322C46 295 23 285 11.5 280L0 275Z" fill="#961a20"></path><path d="M0 397L11.5 393C23 389 46 381 69 397C92 413 115 453 138.2 454C161.3 455 184.7 417 207.8 406C231 395 254 411 277 405C300 399 323 371 346 350C369 329 392 315 415.2 321C438.3 327 461.7 353 484.8 372C508 391 531 403 554 394C577 385 600 355 623 349C646 343 669 361 692.2 358C715.3 355 738.7 331 761.8 319C785 307 808 307 831 311C854 315 877 323 888.5 327L900 331L900 257L888.5 258C877 259 854 261 831 265C808 269 785 275 761.8 287C738.7 299 715.3 317 692.2 313C669 309 646 283 623 278C600 273 577 289 554 305C531 321 508 337 484.8 322C461.7 307 438.3 261 415.2 248C392 235 369 255 346 274C323 293 300 311 277 314C254 317 231 305 207.8 326C184.7 347 161.3 401 138.2 405C115 409 92 363 69 339C46 315 23 313 11.5 312L0 311Z" fill="#82131a"></path><path d="M0 403L11.5 399C23 395 46 387 69 406C92 425 115 471 138.2 479C161.3 487 184.7 457 207.8 446C231 435 254 443 277 431C300 419 323 387 346 367C369 347 392 339 415.2 350C438.3 361 461.7 391 484.8 408C508 425 531 429 554 419C577 409 600 385 623 382C646 379 669 397 692.2 395C715.3 393 738.7 371 761.8 353C785 335 808 321 831 321C854 321 877 335 888.5 342L900 349L900 329L888.5 325C877 321 854 313 831 309C808 305 785 305 761.8 317C738.7 329 715.3 353 692.2 356C669 359 646 341 623 347C600 353 577 383 554 392C531 401 508 389 484.8 370C461.7 351 438.3 325 415.2 319C392 313 369 327 346 348C323 369 300 397 277 403C254 409 231 393 207.8 404C184.7 415 161.3 453 138.2 452C115 451 92 411 69 395C46 379 23 387 11.5 391L0 395Z" fill="#6f0c13"></path><path d="M0 517L11.5 515C23 513 46 509 69 513C92 517 115 529 138.2 540C161.3 551 184.7 561 207.8 551C231 541 254 511 277 512C300 513 323 545 346 544C369 543 392 509 415.2 500C438.3 491 461.7 507 484.8 526C508 545 531 567 554 578C577 589 600 589 623 570C646 551 669 513 692.2 512C715.3 511 738.7 547 761.8 546C785 545 808 507 831 491C854 475 877 481 888.5 484L900 487L900 347L888.5 340C877 333 854 319 831 319C808 319 785 333 761.8 351C738.7 369 715.3 391 692.2 393C669 395 646 377 623 380C600 383 577 407 554 417C531 427 508 423 484.8 406C461.7 389 438.3 359 415.2 348C392 337 369 345 346 365C323 385 300 417 277 429C254 441 231 433 207.8 444C184.7 455 161.3 485 138.2 477C115 469 92 423 69 404C46 385 23 393 11.5 397L0 401Z" fill="#5d050c"></path><path d="M0 601L11.5 601C23 601 46 601 69 601C92 601 115 601 138.2 601C161.3 601 184.7 601 207.8 601C231 601 254 601 277 601C300 601 323 601 346 601C369 601 392 601 415.2 601C438.3 601 461.7 601 484.8 601C508 601 531 601 554 601C577 601 600 601 623 601C646 601 669 601 692.2 601C715.3 601 738.7 601 761.8 601C785 601 808 601 831 601C854 601 877 601 888.5 601L900 601L900 485L888.5 482C877 479 854 473 831 489C808 505 785 543 761.8 544C738.7 545 715.3 509 692.2 510C669 511 646 549 623 568C600 587 577 587 554 576C531 565 508 543 484.8 524C461.7 505 438.3 489 415.2 498C392 507 369 541 346 542C323 543 300 511 277 510C254 509 231 539 207.8 549C184.7 559 161.3 549 138.2 538C115 527 92 515 69 511C46 507 23 511 11.5 513L0 515Z" fill="#4b0101"></path></svg>