<?xml version="1.0" encoding="utf-8"?>
<!-- Generator: Adobe Illustrator 24.3.0, SVG Export Plug-In . SVG Version: 6.00 Build 0)  -->
<svg version="1.1" id="body" xmlns="http://www.w3.org/2000/svg" xmlns:xlink="http://www.w3.org/1999/xlink" x="0px" y="0px"
	 viewBox="0 0 775 814.62" style="enable-background:new 0 0 775 814.62;" xml:space="preserve">
<style type="text/css">
	.st0{fill:#666666;stroke:#FFFFFF;stroke-miterlimit:10;}
	.st1{fill:#999999;stroke:#FFFFFF;stroke-miterlimit:10;}
	.st2{fill:#4D4D4D;stroke:#FFFFFF;stroke-miterlimit:10;}
	.st3{stroke:#FFFFFF;stroke-miterlimit:10;}
	.st4{fill:#5C0000;stroke:#5C002B;stroke-miterlimit:10;}
	.st5{fill:none;stroke:#5C0000;stroke-width:6;stroke-linecap:round;stroke-miterlimit:10;}
	.st6{fill:#808080;stroke:#FFFFFF;stroke-miterlimit:10;}
</style>
<path class="st0" d="M508.72,629.08l8.23,7.08c1.67,1.44,4.25,0.84,5.12-1.19l10.28-23.98c0.54-1.26,0.04-2.72-1.17-3.38
	c-4.02-2.2-12.31-7.14-12.31-10.42c0-4.33,2.81-14.15,2.81-14.15h-21L508.72,629.08z"/>
<path class="st1" d="M540.78,625.57l-6.23,20.06c-0.69,2.23,1.74,4.13,3.74,2.92l10.44-6.33c0.3-0.18,0.52-0.47,0.62-0.82
	l5.02-17.91c0.25-0.89-0.42-1.77-1.34-1.77H546C543.61,621.73,541.49,623.29,540.78,625.57z"/>
<path class="st2" d="M486.46,436.56c0,0-18.13,68.2,7.85,104.31L530.83,515C530.83,515,510.35,426.12,486.46,436.56"/>
<path class="st0" d="M434.22,393.16c-0.76,2.41,0.12,5.03,2.17,6.5c12.89,9.25,57.83,41.69,61.54,46.63
	c4.33,5.78,59.2,166.05,105.41,86.64c46.21-79.42,53.43-112.63,53.43-112.63s13-31.77-75.08-66.42
	c-62.91-24.75-92.68-53.19-104.55-67.42c-2.98-3.57-8.72-2.46-10.11,1.97L434.22,393.16z"/>
<path class="st0" d="M635.65,480.69l-10.26,26.21c-1.69,4.32-2.56,8.91-2.56,13.55v0c0,10.94,4.31,21.44,11.99,29.22l0.23,0.23
	c0.51,0.52,1.06,1.01,1.63,1.47l8.23,6.58c2.56,2.05,5.61,3.39,8.86,3.89l12.41,1.91c0.94,0.15,1.9,0.22,2.85,0.22h20.06
	c2.47,0,4.92-0.49,7.2-1.44l0,0c9.89-4.12,14.32-15.67,9.73-25.34l-30.93-65.1c-3.76-7.92-12.52-12.18-21.08-10.23l-1.9,0.43
	c-5.71,1.3-10.49,5.19-12.91,10.52l-3.16,6.96C635.9,480.07,635.77,480.38,635.65,480.69z"/>
<polygon class="st2" points="269.79,273.02 266.91,327.89 339.6,336.45 350.14,270.41 "/>
<path class="st2" d="M392.53,239.81c0,0,66.42-7.22,77.97,37.54c11.55,44.76-25.99,118.4-37.54,119.85
	c-11.55,1.44-27.43,59.2-27.43,59.2l-88.08-36.1l21.85-69.27c0.63-2,0.88-4.1,0.73-6.19C338.76,327.53,335.46,242.4,392.53,239.81z"
	/>
<path class="st2" d="M461.84,566.14l81.92-60.73c1-0.74,2.11-1.33,3.29-1.72c8.44-2.83,42.69-12.67,37.54,16.29
	c-1.98,11.15-8.36,21.04-17.33,27.95l-45.57,35.1c-5.26,4.05-11.94,5.76-18.5,4.71C484.03,584.68,446.54,577.06,461.84,566.14z"/>
<path class="st3" d="M181.06,636.95l-19.74,0c-0.65,0-1.28,0.15-1.86,0.45l-16.03,8.16c-0.91,0.47-1.62,1.26-1.98,2.21l-7.9,21.07
	c-0.13,0.36-0.32,0.69-0.54,1l-32.25,43.55c-1.03,1.39-1.08,3.27-0.12,4.71l0,0c1.38,2.07,4.27,2.45,6.13,0.8l32.71-28.98
	c2.27-2.01,5.87-0.95,6.68,1.98l2.08,7.59c0.05,0.19,0.09,0.38,0.11,0.58l5.09,40.57c0.08,0.62,0.01,1.24-0.19,1.83l-7.97,23.41
	c-0.53,1.56-0.08,3.29,1.15,4.38l48.04,42.81c1.41,1.26,3.5,1.39,5.05,0.32l17.55-12.06c1.67-1.15,2.25-3.35,1.37-5.17l-20.79-42.88
	c-0.49-1.02-0.54-2.19-0.14-3.25l13.09-34.32l13.54-40.01c0.12-0.36,0.29-0.69,0.5-1l25.66-37.48c0.12-0.18,0.26-0.34,0.4-0.5
	l40.04-42.42l41.87-43.32l40.43-43.32l34.22-39.93c0.29-0.33,0.52-0.71,0.68-1.12l3.17-7.77c0.61-1.49,0.29-3.19-0.81-4.36
	l-7.96-8.46c-0.28-0.3-0.61-0.56-0.97-0.76l-16.49-9.32c-0.28-0.16-0.57-0.28-0.88-0.37l-25.41-7.33l-26.7-8.49
	c-0.2-0.06-0.41-0.11-0.62-0.14l-15.66-2.42c-1.89-0.29-3.72,0.76-4.43,2.53l-13.23,33.07l-9.45,22.06
	c-0.12,0.28-0.21,0.56-0.26,0.86l-3.06,16.3c-0.15,0.79-0.53,1.52-1.08,2.1l-17.07,17.64c-0.08,0.08-0.17,0.17-0.26,0.24
	l-26.12,22.71c-0.3,0.26-0.56,0.57-0.78,0.9l-12.05,19.07c-0.13,0.2-0.23,0.41-0.32,0.62l-8.96,21.67l-13.64,32.79
	c-0.06,0.15-0.13,0.3-0.22,0.44c-0.91,1.6-6.74,11.9-10.83,19.24C191.26,634.08,186.37,636.95,181.06,636.95z"/>
<path class="st3" d="M108.13,247.75h21.71c0.47,0,0.94-0.08,1.38-0.24l21.73-7.89c0.44-0.16,0.91-0.24,1.38-0.24h29.19
	c0.46,0,0.92,0.08,1.36,0.23l10.37,3.69c0.49,0.18,0.95,0.44,1.34,0.79l8.24,7.36c0.47,0.42,1.03,0.72,1.63,0.88l14.49,3.95
	c0.31,0.09,0.62,0.21,0.9,0.37l11.65,6.47c0.6,0.33,1.28,0.51,1.97,0.51h34.06c1.15,0,2.24,0.49,3,1.34l3.87,4.29
	c0.67,0.74,1.04,1.71,1.04,2.71v12.37v19.09v17.45c0,0.26-0.03,0.53-0.08,0.79l-1.87,9.46c-0.38,1.9-2.04,3.26-3.97,3.26h-9.39
	c-0.76,0-1.5-0.21-2.15-0.62l-7.61-4.77c-0.42-0.26-0.87-0.44-1.35-0.54l-5.66-1.13c-0.55-0.11-1.07-0.33-1.53-0.65l-13.02-9.11
	c-0.48-0.33-1.02-0.56-1.6-0.67l-14.82-2.69c-0.13-0.02-0.26-0.05-0.39-0.09l-8.94-2.55c-0.64-0.18-1.23-0.52-1.71-0.99l-6.95-6.74
	c-0.28-0.27-0.59-0.5-0.94-0.68l-19.83-10.42c-0.29-0.15-0.59-0.27-0.9-0.34l-10.96-2.74c-0.08-0.02-0.16-0.04-0.24-0.07
	l-15.92-5.06c-0.4-0.13-0.81-0.19-1.23-0.19h-11.14h-18.83h-11.77H78.29H64.16H51.79c-0.53,0-1.06,0.11-1.56,0.31l-3.62,1.51
	c-1.11,0.46-1.96,1.4-2.31,2.55l-3.2,10.45c-0.12,0.38-0.18,0.78-0.18,1.18v7.12c0,0.42-0.07,0.84-0.19,1.24l-2,6.22
	c-0.43,1.33-1.51,2.35-2.87,2.69l-3.39,0.85c-0.13,0.03-0.27,0.06-0.41,0.08l-8.53,1.22c-0.89,0.13-1.8-0.05-2.58-0.49l-7.68-4.39
	c-0.79-0.45-1.41-1.16-1.75-2.01l-2.3-5.74c-0.04-0.11-0.08-0.23-0.12-0.34l-4.28-14.27l-4.16-13.87c-0.11-0.38-0.17-0.77-0.17-1.16
	v-10.24c0-0.98,0.35-1.92,1-2.66l2.95-3.39c0.26-0.29,0.55-0.55,0.88-0.76l14.39-9.16c0.65-0.41,1.4-0.63,2.17-0.63h8.73
	c1.06,0,2.07-0.41,2.83-1.15l8.36-8.16c1.2-1.17,1.55-2.97,0.89-4.51l-4.12-9.49c-0.35-0.8-0.95-1.47-1.71-1.9l-4.96-2.83
	c-2.11-1.21-2.69-4-1.23-5.94l0,0c0.96-1.28,2.59-1.88,4.15-1.52l14.71,3.39c0.96,0.22,1.81,0.79,2.38,1.59l5.12,7.17
	c0.76,1.06,1.99,1.69,3.29,1.69h9.02c0.3,0,0.59,0.03,0.88,0.1l11.41,2.54c0.75,0.17,1.44,0.54,1.98,1.09l8.69,8.69
	c0.39,0.39,0.85,0.69,1.36,0.9l12.94,5.18C107.11,247.65,107.62,247.75,108.13,247.75z"/>
<path class="st0" d="M479.16,635.45L459.5,573.9c-0.66-2.07,0.71-4.23,2.87-4.5c12.07-1.49,46.39-3.79,44.76,18.64
	c-1.63,22.34,3.93,62.38,5.97,75.97c0.47,3.16,1.49,6.21,3.01,9.03c2.01,3.71,5.95,8.83,7.99,11.38c0.69,0.86,0.5,2.11-0.41,2.73
	c-4.14,2.82-14.74,10.01-18.62,12.44c-0.7,0.44-1.63,0.12-1.92-0.65L479.16,635.45z"/>
<path class="st1" d="M539.54,706.79l12.63,6.32c1.73,0.87,2.1,3.17,0.74,4.54l-6.45,6.45c-0.56,0.56-1.33,0.86-2.12,0.83l-32.9-1.32
	c-1.18-0.05-2.2-0.82-2.58-1.94l0,0c-0.47-1.4,0.22-2.92,1.57-3.5l26.72-11.45C537.92,706.39,538.79,706.42,539.54,706.79z"/>
<path class="st4" d="M659.82,512.68c0,0,4.93,74.78,56.89,45.71c51.96-29.07,59.91-36.04,57.38-70.1
	c-2.53-34.06-31.75-58.46-48.19-68.64s-63.75-11.18-66.08-4.9S624.61,468.61,659.82,512.68z"/>
<path class="st5" d="M615.61,70.15v5.16c0,6.7,1.34,13.32,3.93,19.5l9.06,21.54l8.67,21.06c0.96,2.32,2.09,4.57,3.38,6.73l0,0
	c4.41,7.35,6.87,15.7,7.14,24.26l2.66,83.04c0.05,1.59,0.18,3.17,0.38,4.75l5.03,39.42c0.27,2.11,0.4,4.23,0.4,6.36v46.86
	l-0.17,28.58c-0.03,4.99,0.68,9.95,2.11,14.72l7.9,26.41"/>
<path class="st5" d="M716.69,47.05l-4.25,42.53c-0.05,0.52-0.16,1.04-0.32,1.54l-15.64,48.34l-9.64,32.54
	c-1.27,4.28-1.91,8.71-1.91,13.18v20.46c0,6.19-1.36,12.31-3.99,17.92l-6.22,13.28c-2.76,5.91-4.2,12.35-4.2,18.87v35.23v43.46v33.9
	v31.04c0,6.91-0.64,26.26-5.09,20.97"/>
<path class="st5" d="M687.07,10.85l16.91-7c2.49-1.03,5.26-1.13,7.81-0.27l19.15,6.4c1.72,0.58,3.28,1.56,4.53,2.88l19.24,20.13
	c1.57,1.64,2.6,3.71,2.96,5.95l5.09,31.78c0.09,0.58,0.14,1.17,0.14,1.76v40.69c0,1.95-0.51,3.87-1.48,5.56l-14.4,25.06
	l-25.68,41.37c-0.21,0.34-0.4,0.69-0.57,1.04l-18.27,37.94c-0.16,0.34-0.31,0.68-0.43,1.03l-19.76,54.36
	c-1.16,3.18-1.75,6.53-1.75,9.91v64.37c0,0.57-0.04,1.14-0.13,1.7l-7.69,49.83c-1.12,7.23,4.91,13.56,12.18,12.81h0
	c5.67-0.58,9.99-5.35,10.02-11.04l0.09-15.7c0-0.48-0.03-0.97-0.09-1.45l-3.98-31.8c-0.18-1.41-0.08-2.83,0.28-4.2l7.88-30.21
	c0.16-0.61,0.27-1.24,0.32-1.87l3.89-45.48c0.1-1.12,0.36-2.23,0.79-3.27l19.61-48.03c0.12-0.3,0.26-0.6,0.41-0.89l25.18-48.96
	c0.39-0.76,0.7-1.57,0.9-2.4l8.35-33.4"/>
<path class="st6" d="M539.54,704.39c1.19,1.27,0.81,3.33-0.75,4.1l-26.86,13.19c-2.03,0.97-4.44-0.16-5-2.34
	c-1.38-5.39-2.46-15.21-2.94-20.19c-0.19-1.93,0.66-3.79,2.23-4.92c5.5-3.97,18.34-12.43,20.6-6.79
	C528.89,692.62,535.81,700.41,539.54,704.39z"/>
</svg>
