<?xml version="1.0" encoding="utf-8"?>
<!-- Generator: Adobe Illustrator 24.3.0, SVG Export Plug-In . SVG Version: 6.00 Build 0)  -->
<svg version="1.1" id="Ebene_1" xmlns="http://www.w3.org/2000/svg" xmlns:xlink="http://www.w3.org/1999/xlink" x="0px" y="0px"
	 viewBox="0 0 1920 1080" style="enable-background:new 0 0 1920 1080;" xml:space="preserve">
<style type="text/css">
	.st0{opacity:0.5;stroke:#000000;stroke-miterlimit:10;}
	.st1{stroke:#000000;stroke-miterlimit:10;}
</style>
<path class="st0" d="M792.21,793.02C483.59,649.09,221.94,403.9,142.64,181.19C92.76,41.1,136-38.6,465.63,144.59
	c719.2,399.68,1028.72,491.25,1283.34,606.34c368.54,166.57,7.85,431.29-416.78,272.58C1153.41,956.69,958.25,870.46,792.21,793.02z
	"/>
<path class="st1" d="M555.5,576.5c-256.57,224.5-177.02-92-64.88-180.33c30.91-24.34,74.06-37.07,134.21-22.59
	c192.47,46.35,580.74,234.21,580.67,100.51c-0.07-133.7,43.6-269.68-129.16-250.32S868.48,25.61,943.93,25.57
	c75.45-0.04,382.7-18.34,382.75,83.63c0.05,101.97,152.15,314.89,60.34,385.19c-91.81,70.3-337.75,227.93-261.18,281.14
	c76.57,53.21,213.35,246.88-26.12,224.35s-410.03,13.83-415.6-174.25c-5.57-188.08,14.97-205.67-27.61-212.12
	C590.5,603.5,699.5,450.5,555.5,576.5z"/>
<path class="st1" d="M584.42,743.85c-5.07-0.63-10.17-0.83-15.28-0.74c-33.67,0.65-239.5-0.53-230.46-126.68
	c9.84-137.37,99.5-349.36,224.16-322.32c124.65,27.04,505.17,213.08,582.8,165.49s37.18-211.17-52.49-197.94
	c-64.44,9.51-205.57,35.69-206.66-42.18s-32.8-130.88-42.64-157.92c-15.7-43.13-285.39-73.55-206.66,33.53
	s-314.91,116.81-290.86-7.57c24.06-124.39-433,54.08-237.28,188.2s49.2,279.06,29.52,323.4c-27.8,62.64-8.75,600.3,215.41,415.34
	C569.38,836.74,664.63,753.89,584.42,743.85z"/>
<path class="st1" d="M1296.67,793.23c-34.35,5.86-69.11-10.17-86.79-41.24c-22.37-39.31-15.95-98.96,143.69-158.84
	c273.67-102.66,23.75-352.54,44.75-440.19s388.81-63.34,278.9,287.84C1591.64,714.22,1384.29,778.27,1296.67,793.23z"/>
</svg>
