<?xml version="1.0" encoding="utf-8"?>
<!-- Generator: Adobe Illustrator 25.2.3, SVG Export Plug-In . SVG Version: 6.00 Build 0)  -->
<svg version="1.1" id="Ebene_1" xmlns="http://www.w3.org/2000/svg" xmlns:xlink="http://www.w3.org/1999/xlink" x="0px" y="0px"
	 viewBox="0 0 45.5 45.5" style="enable-background:new 0 0 45.5 45.5;" xml:space="preserve">
<style type="text/css">
	.st0{fill:#FFFFFF;stroke:#FFFFFF;stroke-width:0.75;stroke-miterlimit:10;}
	.st1{fill:#FFFFFF;stroke:#FFFFFF;stroke-miterlimit:10;}
	.st2{fill:none;stroke:#FFFFFF;stroke-width:0.3241;stroke-miterlimit:10;}
	.st3{fill:#FFFFFF;}
	.st4{fill:#FFFFFF;stroke:#FFFFFF;stroke-width:0.3241;stroke-miterlimit:10;}
</style>
<circle class="st0" cx="22.6" cy="23.2" r="6.4"/>
<circle class="st1" cx="22.6" cy="9.4" r="2.9"/>
<circle class="st1" cx="22.6" cy="37" r="2.9"/>
<circle class="st1" cx="32.4" cy="13.4" r="2.9"/>
<circle class="st1" cx="12.8" cy="33" r="2.9"/>
<circle class="st1" cx="36.4" cy="23.2" r="2.9"/>
<circle class="st1" cx="8.8" cy="23.2" r="2.9"/>
<circle class="st1" cx="32.4" cy="33" r="2.9"/>
<circle class="st1" cx="12.8" cy="13.4" r="2.9"/>
<circle class="st1" cx="14.9" cy="4.6" r="1.6"/>
<circle class="st1" cx="30.5" cy="41.5" r="1.6"/>
<circle class="st1" cx="30.3" cy="4.5" r="1.6"/>
<circle class="st1" cx="15.2" cy="41.6" r="1.6"/>
<circle class="st1" cx="41.2" cy="15.2" r="1.6"/>
<circle class="st1" cx="4.3" cy="30.8" r="1.6"/>
<circle class="st1" cx="41.3" cy="30.6" r="1.6"/>
<circle class="st1" cx="4.2" cy="15.5" r="1.6"/>
<line class="st2" x1="22.6" y1="23.2" x2="22.6" y2="9.4"/>
<line class="st2" x1="22.6" y1="23.2" x2="32.4" y2="13.4"/>
<line class="st2" x1="22.6" y1="23.2" x2="36.4" y2="23.2"/>
<line class="st2" x1="22.6" y1="23.2" x2="22.6" y2="37"/>
<line class="st2" x1="22.6" y1="23.2" x2="32.4" y2="33"/>
<line class="st2" x1="22.6" y1="23.2" x2="8.8" y2="23.2"/>
<line class="st2" x1="22.6" y1="23.2" x2="12.8" y2="13.4"/>
<line class="st2" x1="22.6" y1="23.2" x2="12.8" y2="33"/>
<line class="st2" x1="22.6" y1="23.2" x2="14.9" y2="4.6"/>
<line class="st2" x1="22.6" y1="23.2" x2="30.3" y2="4.5"/>
<line class="st2" x1="22.6" y1="23.2" x2="41.3" y2="30.6"/>
<line class="st2" x1="22.6" y1="23.2" x2="41.2" y2="15.2"/>
<line class="st2" x1="22.6" y1="23.2" x2="30.5" y2="41.5"/>
<line class="st2" x1="22.6" y1="23.2" x2="15.2" y2="41.6"/>
<line class="st2" x1="22.6" y1="23.2" x2="4.3" y2="30.8"/>
<line class="st2" x1="22.6" y1="23.2" x2="4.2" y2="15.5"/>
<g>
	<circle class="st3" cx="89.8" cy="33.5" r="6.4"/>
	<circle class="st3" cx="89.8" cy="19.7" r="2.9"/>
	<circle class="st3" cx="89.8" cy="47.3" r="2.9"/>
	<circle class="st3" cx="99.6" cy="23.8" r="2.9"/>
	<circle class="st3" cx="80.1" cy="43.3" r="2.9"/>
	<circle class="st3" cx="103.7" cy="33.5" r="2.9"/>
	<circle class="st3" cx="76" cy="33.5" r="2.9"/>
	<circle class="st3" cx="99.6" cy="43.3" r="2.9"/>
	<circle class="st3" cx="80.1" cy="23.8" r="2.9"/>
	<circle class="st3" cx="82.2" cy="14.9" r="1.6"/>
	<circle class="st3" cx="97.8" cy="51.8" r="1.6"/>
	<circle class="st3" cx="97.5" cy="14.8" r="1.6"/>
	<circle class="st3" cx="82.5" cy="51.9" r="1.6"/>
	<circle class="st3" cx="108.4" cy="25.6" r="1.6"/>
	<circle class="st3" cx="71.5" cy="41.2" r="1.6"/>
	<circle class="st3" cx="108.6" cy="40.9" r="1.6"/>
	<circle class="st3" cx="71.4" cy="25.8" r="1.6"/>
	<line class="st4" x1="89.8" y1="33.5" x2="89.8" y2="19.7"/>
	<line class="st4" x1="89.8" y1="33.5" x2="99.6" y2="23.8"/>
	<line class="st4" x1="89.8" y1="33.5" x2="103.7" y2="33.5"/>
	<line class="st4" x1="89.8" y1="33.5" x2="89.8" y2="47.3"/>
	<line class="st4" x1="89.8" y1="33.5" x2="99.6" y2="43.3"/>
	<line class="st4" x1="89.8" y1="33.5" x2="76" y2="33.5"/>
	<line class="st4" x1="89.8" y1="33.5" x2="80.1" y2="23.8"/>
	<line class="st4" x1="89.8" y1="33.5" x2="80.1" y2="43.3"/>
	<line class="st4" x1="89.8" y1="33.5" x2="82.2" y2="14.9"/>
	<line class="st4" x1="89.8" y1="33.5" x2="97.5" y2="14.8"/>
	<line class="st4" x1="89.8" y1="33.5" x2="108.6" y2="40.9"/>
	<line class="st4" x1="89.8" y1="33.5" x2="108.4" y2="25.6"/>
	<line class="st4" x1="89.8" y1="33.5" x2="97.8" y2="51.8"/>
	<line class="st4" x1="89.8" y1="33.5" x2="82.5" y2="51.9"/>
	<line class="st4" x1="89.8" y1="33.5" x2="71.5" y2="41.2"/>
	<line class="st4" x1="89.8" y1="33.5" x2="71.4" y2="25.8"/>
	<text transform="matrix(1 0 0 1 88.5497 33.5163)" style="font-family:'HKGrotesk-Light'; font-size:0.2px;">bottom right corner</text>
</g>
<g>
	<path d="M20.4,23.3c0,0.1,0,0.2-0.1,0.2c0,0-0.1,0-0.1-0.1v0.1h0v-0.4h0v0.2c0,0,0.1-0.1,0.1-0.1C20.4,23.2,20.4,23.2,20.4,23.3z
		 M20.4,23.3c0-0.1,0-0.1-0.1-0.1c-0.1,0-0.1,0.1-0.1,0.1c0,0.1,0,0.1,0.1,0.1C20.4,23.4,20.4,23.4,20.4,23.3z"/>
	<path d="M20.5,23.3c0-0.1,0.1-0.2,0.1-0.2c0.1,0,0.1,0.1,0.1,0.2c0,0.1-0.1,0.2-0.1,0.2S20.5,23.4,20.5,23.3z M20.8,23.3
		c0-0.1,0-0.1-0.1-0.1c-0.1,0-0.1,0.1-0.1,0.1c0,0.1,0,0.1,0.1,0.1C20.7,23.4,20.8,23.4,20.8,23.3z"/>
	<path d="M21,23.5C21,23.5,21,23.5,21,23.5c-0.1,0-0.1,0-0.1-0.1v-0.2h0v0h0v-0.1l0,0v0.1H21v0h-0.1L21,23.5
		C20.9,23.4,20.9,23.4,21,23.5C21,23.4,21,23.4,21,23.5L21,23.5z"/>
	<path d="M21.2,23.5C21.2,23.5,21.1,23.5,21.2,23.5c-0.1,0-0.1,0-0.1-0.1v-0.2h0v0h0v-0.1l0,0v0.1h0.1v0h-0.1L21.2,23.5
		C21.1,23.4,21.1,23.4,21.2,23.5C21.2,23.4,21.2,23.4,21.2,23.5L21.2,23.5z"/>
	<path d="M21.2,23.3c0-0.1,0.1-0.2,0.1-0.2c0.1,0,0.1,0.1,0.1,0.2c0,0.1-0.1,0.2-0.1,0.2S21.2,23.4,21.2,23.3z M21.5,23.3
		c0-0.1,0-0.1-0.1-0.1c-0.1,0-0.1,0.1-0.1,0.1c0,0.1,0,0.1,0.1,0.1C21.4,23.4,21.5,23.4,21.5,23.3z"/>
	<path d="M22,23.3v0.2h0L22,23.3c0,0,0-0.1-0.1-0.1c-0.1,0-0.1,0-0.1,0.1v0.2h0v-0.2c0-0.1,0-0.1-0.1-0.1c-0.1,0-0.1,0-0.1,0.1v0.2
		h0l0-0.3h0v0c0,0,0,0,0.1,0c0,0,0.1,0,0.1,0.1c0,0,0.1-0.1,0.1-0.1C22,23.2,22,23.2,22,23.3z"/>
	<path d="M22.4,23.2L22.4,23.2C22.4,23.2,22.4,23.2,22.4,23.2c-0.1,0-0.1,0-0.1,0.1v0.2h0v-0.3h0v0.1C22.3,23.2,22.4,23.2,22.4,23.2
		C22.4,23.2,22.4,23.2,22.4,23.2z"/>
	<path d="M22.5,23.1L22.5,23.1L22.5,23.1L22.5,23.1L22.5,23.1z M22.5,23.2L22.5,23.2l0,0.3h0V23.2z"/>
	<path d="M22.9,23.5c0,0.1-0.1,0.1-0.1,0.1c-0.1,0-0.1,0-0.1-0.1c0,0,0,0,0,0l0.1,0c0,0,0,0,0-0.1c0,0,0,0,0-0.1c0,0,0,0,0-0.1
		c0-0.1,0-0.1,0.1-0.1c0,0,0.1,0,0.1,0l0,0l0,0l0,0c0,0,0,0,0,0.1c0,0.1,0,0.1-0.1,0.1c0,0,0,0-0.1,0c0,0,0,0,0,0c0,0,0,0,0.1,0
		C22.8,23.4,22.9,23.5,22.9,23.5z M22.8,23.5c0,0-0.1,0-0.1-0.1c0,0,0,0,0,0l0,0c0,0,0,0,0,0C22.6,23.6,22.7,23.6,22.8,23.5
		C22.8,23.6,22.8,23.6,22.8,23.5z M22.7,23.3C22.7,23.3,22.7,23.3,22.7,23.3c0.1,0.1,0.2,0,0.2,0C22.8,23.2,22.8,23.2,22.7,23.3
		C22.7,23.2,22.7,23.2,22.7,23.3z"/>
	<path d="M23.2,23.3v0.2h0L23.2,23.3c0-0.1-0.1-0.1-0.1-0.1c-0.1,0-0.1,0-0.1,0.1v0.1h0v-0.4h0v0.2c0,0,0.1-0.1,0.1-0.1
		C23.1,23.2,23.2,23.2,23.2,23.3z"/>
	<path d="M23.4,23.5C23.4,23.5,23.4,23.5,23.4,23.5c-0.1,0-0.1,0-0.1-0.1v-0.2h0v0h0v-0.1l0,0v0.1h0.1v0h-0.1L23.4,23.5
		C23.3,23.4,23.3,23.4,23.4,23.5C23.4,23.4,23.4,23.4,23.4,23.5L23.4,23.5z"/>
	<path d="M23.6,23.3c0-0.1,0-0.2,0.1-0.2c0.1,0,0.1,0,0.1,0.1l0,0c0,0,0-0.1-0.1-0.1C23.7,23.2,23.6,23.3,23.6,23.3
		c0,0.1,0.1,0.1,0.1,0.1c0,0,0.1,0,0.1-0.1l0,0c0,0.1-0.1,0.1-0.1,0.1C23.7,23.5,23.6,23.4,23.6,23.3z"/>
	<path d="M23.9,23.3c0-0.1,0.1-0.2,0.1-0.2c0.1,0,0.1,0.1,0.1,0.2c0,0.1-0.1,0.2-0.1,0.2C24,23.5,23.9,23.4,23.9,23.3z M24.2,23.3
		c0-0.1,0-0.1-0.1-0.1s-0.1,0.1-0.1,0.1c0,0.1,0,0.1,0.1,0.1S24.2,23.4,24.2,23.3z"/>
	<path d="M24.5,23.2L24.5,23.2C24.4,23.2,24.4,23.2,24.5,23.2c-0.1,0-0.1,0-0.1,0.1v0.2h0v-0.3h0v0.1C24.3,23.2,24.4,23.2,24.5,23.2
		C24.4,23.2,24.4,23.2,24.5,23.2z"/>
	<path d="M24.7,23.3v0.2h0L24.7,23.3c0-0.1-0.1-0.1-0.1-0.1c-0.1,0-0.1,0-0.1,0.1v0.1h0v-0.3h0v0.1c0,0,0.1-0.1,0.1-0.1
		C24.7,23.2,24.7,23.2,24.7,23.3z"/>
	<path d="M25.1,23.3h-0.2c0,0.1,0,0.1,0.1,0.1C25,23.4,25,23.4,25.1,23.3L25.1,23.3c0,0.1-0.1,0.1-0.1,0.1c-0.1,0-0.1-0.1-0.1-0.1
		c0-0.1,0-0.2,0.1-0.2C25,23.2,25.1,23.2,25.1,23.3C25.1,23.3,25.1,23.3,25.1,23.3z M24.9,23.3h0.2c0,0,0,0,0,0c0,0,0-0.1-0.1-0.1
		C24.9,23.2,24.9,23.2,24.9,23.3z"/>
	<path d="M25.3,23.2L25.3,23.2C25.3,23.2,25.3,23.2,25.3,23.2c-0.1,0-0.1,0-0.1,0.1v0.2h0v-0.3h0v0.1C25.2,23.2,25.3,23.2,25.3,23.2
		C25.3,23.2,25.3,23.2,25.3,23.2z"/>
</g>
</svg>
