<?xml version="1.0" encoding="utf-8"?>
<!-- Generator: Adobe Illustrator 25.2.3, SVG Export Plug-In . SVG Version: 6.00 Build 0)  -->
<svg version="1.1" id="Ebene_1" xmlns="http://www.w3.org/2000/svg" xmlns:xlink="http://www.w3.org/1999/xlink" x="0px" y="0px"
	 viewBox="0 0 45.5 45.5" style="enable-background:new 0 0 45.5 45.5;" xml:space="preserve">
<style type="text/css">
	.st0{fill:#FFFFFF;stroke:#FFFFFF;stroke-miterlimit:10;}
	.st1{fill:#FFFFFF;stroke:#FFFFFF;stroke-width:0.3241;stroke-miterlimit:10;}
</style>
<g>
	<circle class="st0" cx="22.6" cy="23.2" r="6.4"/>
	<circle class="st0" cx="22.6" cy="9.4" r="2.9"/>
	<circle class="st0" cx="22.6" cy="37" r="2.9"/>
	<circle class="st0" cx="32.4" cy="13.4" r="2.9"/>
	<circle class="st0" cx="12.8" cy="33" r="2.9"/>
	<circle class="st0" cx="36.4" cy="23.2" r="2.9"/>
	<circle class="st0" cx="8.8" cy="23.2" r="2.9"/>
	<circle class="st0" cx="32.4" cy="33" r="2.9"/>
	<circle class="st0" cx="12.8" cy="13.4" r="2.9"/>
	<circle class="st0" cx="14.9" cy="4.6" r="1.6"/>
	<circle class="st0" cx="30.5" cy="41.5" r="1.6"/>
	<circle class="st0" cx="30.3" cy="4.5" r="1.6"/>
	<circle class="st0" cx="15.2" cy="41.6" r="1.6"/>
	<circle class="st0" cx="41.2" cy="15.2" r="1.6"/>
	<circle class="st0" cx="4.3" cy="30.8" r="1.6"/>
	<circle class="st0" cx="41.3" cy="30.6" r="1.6"/>
	<circle class="st0" cx="4.2" cy="15.5" r="1.6"/>
	<line class="st1" x1="22.6" y1="23.2" x2="22.6" y2="9.4"/>
	<line class="st1" x1="22.6" y1="23.2" x2="32.4" y2="13.4"/>
	<line class="st1" x1="22.6" y1="23.2" x2="36.4" y2="23.2"/>
	<line class="st1" x1="22.6" y1="23.2" x2="22.6" y2="37"/>
	<line class="st1" x1="22.6" y1="23.2" x2="32.4" y2="33"/>
	<line class="st1" x1="22.6" y1="23.2" x2="8.8" y2="23.2"/>
	<line class="st1" x1="22.6" y1="23.2" x2="12.8" y2="13.4"/>
	<line class="st1" x1="22.6" y1="23.2" x2="12.8" y2="33"/>
	<line class="st1" x1="22.6" y1="23.2" x2="14.9" y2="4.6"/>
	<line class="st1" x1="22.6" y1="23.2" x2="30.3" y2="4.5"/>
	<line class="st1" x1="22.6" y1="23.2" x2="41.3" y2="30.6"/>
	<line class="st1" x1="22.6" y1="23.2" x2="41.2" y2="15.2"/>
	<line class="st1" x1="22.6" y1="23.2" x2="30.5" y2="41.5"/>
	<line class="st1" x1="22.6" y1="23.2" x2="15.2" y2="41.6"/>
	<line class="st1" x1="22.6" y1="23.2" x2="4.3" y2="30.8"/>
	<line class="st1" x1="22.6" y1="23.2" x2="4.2" y2="15.5"/>
</g>
</svg>
