<?xml version="1.0" encoding="utf-8"?>
<!-- Generator: Adobe Illustrator 25.2.3, SVG Export Plug-In . SVG Version: 6.00 Build 0)  -->
<svg version="1.1" id="Ebene_1" xmlns="http://www.w3.org/2000/svg" xmlns:xlink="http://www.w3.org/1999/xlink" x="0px" y="0px"
	 viewBox="0 0 553 549.9" style="enable-background:new 0 0 553 549.9;" xml:space="preserve">
<style type="text/css">
	.st0{fill:#FFFFFF;stroke:#000000;stroke-width:3;stroke-miterlimit:10;}
</style>
<polygon class="st0" points="276.5,141.6 304.4,9.6 304.2,144.5 358.9,21.2 330.7,153.1 409.9,43.9 354.9,167 455,76.7 375.6,185.7 
	492.3,118.1 392,208.3 520.2,166.4 403.4,233.7 537.5,219.5 409.1,261 543.3,275 409.1,288.9 537.5,330.4 403.4,316.2 520.2,383.5 
	392,341.7 492.3,431.8 375.6,364.2 455,473.2 354.9,382.9 409.9,506 330.7,396.8 358.9,528.7 304.2,405.5 304.4,540.3 276.5,408.4 
	248.6,540.3 248.7,405.5 194,528.7 222.2,396.8 143.1,506 198.1,382.9 97.9,473.2 177.3,364.2 60.6,431.8 160.9,341.7 32.7,383.5 
	149.6,316.2 15.5,330.4 143.8,288.9 9.7,275 143.8,261 15.5,219.5 149.6,233.7 32.7,166.4 160.9,208.3 60.6,118.1 177.3,185.7 
	97.9,76.7 198.1,167 143.1,43.9 222.2,153.1 194,21.2 248.7,144.5 248.6,9.6 "/>
</svg>
