<?xml version="1.0" encoding="utf-8"?>
<!-- Generator: Adobe Illustrator 25.2.3, SVG Export Plug-In . SVG Version: 6.00 Build 0)  -->
<svg version="1.1" id="Ebene_1" xmlns="http://www.w3.org/2000/svg" xmlns:xlink="http://www.w3.org/1999/xlink" x="0px" y="0px"
	 viewBox="0 0 544.4 541.6" style="enable-background:new 0 0 544.4 541.6;" xml:space="preserve">
<style type="text/css">
	.st0{fill:#FF4800;stroke:#000000;stroke-width:5;stroke-miterlimit:10;}
</style>
<polygon class="st0" points="272.2,149.2 297.6,28.9 297.5,151.9 347.3,39.5 321.6,159.7 393.8,60.2 343.7,172.4 434.9,90.1 
	362.5,189.4 468.9,127.8 377.5,210 494.4,171.8 387.9,233.2 510.1,220.2 393.1,258.1 515.4,270.8 393.1,283.5 510.1,321.3 
	387.9,308.4 494.4,369.8 377.5,331.6 468.9,413.8 362.5,352.1 434.9,451.5 343.7,369.2 393.8,481.4 321.6,381.9 347.3,502.1 
	297.5,389.8 297.6,512.7 272.2,392.4 246.8,512.7 246.9,389.8 197,502.1 222.7,381.9 150.6,481.4 200.7,369.2 109.4,451.5 
	181.8,352.1 75.4,413.8 166.8,331.6 50,369.8 156.5,308.4 34.3,321.3 151.2,283.5 29,270.8 151.2,258.1 34.3,220.2 156.5,233.2 
	50,171.8 166.8,210 75.4,127.8 181.8,189.4 109.4,90.1 200.7,172.4 150.6,60.2 222.7,159.7 197,39.5 246.9,151.9 246.8,28.9 "/>
</svg>
