<svg id="Ebene_1" data-name="Ebene 1" xmlns="http://www.w3.org/2000/svg" viewBox="0 0 840.18 251.89"><defs><style>.cls-1{stroke:#fff;stroke-miterlimit:10;stroke-width:4px;}</style></defs><path class="cls-1" d="M144,427.56l-4-6.93a134.29,134.29,0,0,0,0-232.57l4-6.92a142.29,142.29,0,0,1,0,246.42Z" transform="translate(0.97 -178.4)"/><path class="cls-1" d="M74.89,427.56l-4-6.93a134.29,134.29,0,0,0,0-232.57l4-6.92a142.29,142.29,0,0,1,0,246.42Z" transform="translate(0.97 -178.4)"/><path class="cls-1" d="M5.77,427.56l-4-6.93A134.76,134.76,0,0,0,68.89,304.35,134.75,134.75,0,0,0,1.76,188.06l4-6.92A142.76,142.76,0,0,1,76.89,304.35,142.78,142.78,0,0,1,5.77,427.56Z" transform="translate(0.97 -178.4)"/><path class="cls-1" d="M213.13,427.56l-4-6.93a134.29,134.29,0,0,0,0-232.57l4-6.92a142.29,142.29,0,0,1,0,246.42Z" transform="translate(0.97 -178.4)"/><path class="cls-1" d="M282.25,427.56l-4-6.93a134.29,134.29,0,0,0,0-232.57l4-6.92a142.29,142.29,0,0,1,0,246.42Z" transform="translate(0.97 -178.4)"/><path class="cls-1" d="M351.38,427.56l-4-6.93a134.29,134.29,0,0,0,0-232.57l4-6.92a142.29,142.29,0,0,1,0,246.42Z" transform="translate(0.97 -178.4)"/><path class="cls-1" d="M420.5,427.56l-4-6.93a134.29,134.29,0,0,0,0-232.57l4-6.92a142.29,142.29,0,0,1,0,246.42Z" transform="translate(0.97 -178.4)"/><path class="cls-1" d="M489.62,427.56l-4-6.93a134.29,134.29,0,0,0,0-232.57l4-6.92a142.3,142.3,0,0,1,0,246.42Z" transform="translate(0.97 -178.4)"/><path class="cls-1" d="M558.74,427.56l-4-6.93a134.29,134.29,0,0,0,0-232.57l4-6.92a142.3,142.3,0,0,1,0,246.42Z" transform="translate(0.97 -178.4)"/><path class="cls-1" d="M627.86,427.56l-4-6.93a134.29,134.29,0,0,0,0-232.57l4-6.92a142.3,142.3,0,0,1,0,246.42Z" transform="translate(0.97 -178.4)"/><path class="cls-1" d="M697,427.56l-4-6.93a134.29,134.29,0,0,0,0-232.57l4-6.92a142.3,142.3,0,0,1,0,246.42Z" transform="translate(0.97 -178.4)"/><path class="cls-1" d="M766.1,427.56l-4-6.93a134.28,134.28,0,0,0,0-232.57l4-6.92a142.29,142.29,0,0,1,0,246.42Z" transform="translate(0.97 -178.4)"/></svg>