<svg id="Ebene_1" data-name="Ebene 1" xmlns="http://www.w3.org/2000/svg" width="23.84mm" height="37.26mm" viewBox="0 0 67.59 105.63">
  <defs>
    <style>
      .cls-1 {
        fill: none;
        stroke: #1d1d1b;
        stroke-miterlimit: 10;
      }
    </style>
  </defs>
  <path class="cls-1" d="M245.49,286.09a7.79,7.79,0,1,1-7.79,7.78,8.12,8.12,0,0,1,.35-2.31,9.16,9.16,0,0,1,4.06-4.7c4.72-3,17.54-18.58,20.36-34.6a105.42,105.42,0,0,0,1.27-12.52c.26-7.07-.39-11.15.52-11.36s2.88,3.7,3.69,7.47a22.43,22.43,0,0,1-.21,9.76c-1.68,7.41-6.84,18.66-11.62,18.1-1.08-.13-3.67-1-6-8.92" transform="translate(-207.31 -199.03)"/>
  <path class="cls-1" d="M245.49,288.26a5.62,5.62,0,1,1-2.35.52" transform="translate(-207.31 -199.03)"/>
  <path class="cls-1" d="M209,213.32c11.48,6.22,19.08,5.81,23.87,4.34,6-1.85,8-5.49,15.32-6.77,6.35-1.1,15.22-.18,16.47,3.58,1.53,4.59-7.71,15.26-15.32,12.89-5.72-1.78-8.87-10.41-6.51-15.7,3.66-8.23,20.76-8.66,24.64-2.43,2.6,4.19-1.06,10.89-3.19,13.79-.74,1-7,9.44-15.49,7.65-6.87-1.45-11.14-8.68-11.07-14.95.11-8.8,8.77-16.19,18-16.19,9.92,0,18,7.25,18,16.19a114.75,114.75,0,0,1-.37,28.94c-4,27.79-17.5,48.85-30.2,47-3.18-.46-7.86-2.44-9.2-6.3-1.07-3.12,0-7.33,1.91-7.86,3.51-1,9.94,10.52,8,12.76-.42.49-1.61,1-2.09,2.41a3.36,3.36,0,0,0-.18,1.17,4.18,4.18,0,0,0,4,4,4,4,0,0,0,0-7.92" transform="translate(-207.31 -199.03)"/>
  <path class="cls-1" d="M268.68,226.89a49.85,49.85,0,0,1,.62,19c-2.17,15.15-9.55,26.63-16.47,25.64-5.17-.74-7.34-3.78-7.34-13.1s.46-15.28,5.61-18.25,6.06,10.68,9.71,6.64c2.9-3.21-1.5-7.89.64-16,1.69-6.39,6.77-12.27,9.24-11.53,3.4,1,2.77,14.86.57,25.09-3.33,15.42-13.25,36.47-22.87,35.6-6-.54-4.5-10.25-5.45-17.12-.09-.64-2.67-12.08,4.72-15.7,6.44-3.15,11.71,1.2,13.28,7.64,2.38,9.84-15,26.54-20.15,29.93a12,12,0,0,0-5.12,6.09,9.29,9.29,0,0,0-.47,3.06c.13,4.06,3.76,10.29,10.29,10.29a10.29,10.29,0,1,0,0-20.57" transform="translate(-207.31 -199.03)"/>
  <path class="cls-1" d="M207.54,215.21c11.48,6.22,19.09,5.81,23.88,4.34,6-1.85,8-5.49,15.32-6.77,6.34-1.1,15.21-.18,16.46,3.58,1.53,4.59-7.7,15.26-15.32,12.89-5.72-1.78-8.86-10.41-6.51-15.7,3.67-8.23,20.77-8.66,24.64-2.43,2.6,4.19-1.05,10.89-3.19,13.79-.74,1-7,9.44-15.49,7.65-6.87-1.45-11.14-8.68-11.06-14.95.1-8.8,8.77-16.48,18-16.19,16.78.54,18.35,12.14,18.35,21.08" transform="translate(-207.31 -199.03)"/>
</svg>
