<?xml version="1.0" encoding="utf-8"?>
<!-- Generator: Adobe Illustrator 25.2.3, SVG Export Plug-In . SVG Version: 6.00 Build 0)  -->
<svg version="1.1" id="Ebene_1" xmlns="http://www.w3.org/2000/svg" xmlns:xlink="http://www.w3.org/1999/xlink" x="0px" y="0px"
	 viewBox="0 0 626.7 547.4" style="enable-background:new 0 0 626.7 547.4;" xml:space="preserve">
<style type="text/css">
	.st0{fill:#FF00BF;}
	.st1{fill:none;}
</style>
<path class="st0" d="M297,209.8c-11.8-1.2-24.2-1.7-35.6,2.4c-14,4.9-24.1,14.8-31.9,27.1c-13,20.5-22.2,47.6-17.1,72
	c5.7,27.2,34,40,59.6,36.8c26.3-3.3,49.6-15.9,65.3-37.5c16.2-22.4,22.5-62.5-0.6-82.8c-8.9-7.9-23.5-9.5-32.2,0
	c-7.9,8.6-9.5,23.8,0,32.2c0.7,0.7,1.4,1.4,2.1,2c-0.5-0.1-2.2-3.7-1.4-1.7c1.9,5.2-0.6-3.4,0.3,0.6c0.2,0.9,0.5,1.9,0.7,2.9
	c0.7,2.8-1.2,0.7-0.2-1.6c-0.6,1.5,0.2,4.9,0.1,6.5c-0.2,1.1-0.3,2.2-0.3,3.3c-0.1-0.3,0.9-4.4,0.2-2c-0.5,1.8-0.8,3.7-1.4,5.6
	c-0.3,1-0.7,2.1-1,3.1c-0.2,0.5-1,3.2-0.1,0.3s-0.2,0.2-0.6,1c-0.6,1.2-1.3,2.4-2,3.6c-0.5,0.8-3.8,5.7-2,3.1
	c1.7-2.4,0.1-0.2-0.3,0.2c-0.7,0.8-1.4,1.6-2.2,2.4c-1.3,1.3-2.6,2.6-4,3.8c-0.6,0.5-3.2,2.8-0.8,0.7c2.6-2.3-1.2,0.7-1.6,1
	c-1.5,1-3.1,2-4.8,2.8c-1.2,0.7-4.1,1.5-5,2.5c0.1-0.1,4.1-1.5,1.8-0.8c-1,0.3-2,0.7-3,1.1c-2,0.7-4,1.3-6.1,1.8
	c-1.6,0.4-3.9,0.5-5.4,1.1c3.5-1.6,4-0.4,1.7-0.2c-1,0-1.9,0.1-2.9,0.2c-1.7,0.1-3.4,0-5.1,0c-0.7-0.1-1.5-0.2-2.2-0.2
	c5.2-0.2,3.1,0.4,1.1-0.1c-0.9-0.2-1.8-0.6-2.7-0.8c-2.2-0.5,2.1,0.7,2.2,1c0,0-5.8-3.8-2.4-1.1c2.8,2.2,0.4,0-0.3-0.5
	c-1.7-1.2,1.2,1.4,1.3,1.8c-0.6-0.8-1.1-1.7-1.5-2.5c0.1-0.1,1.8,5.5,0.4,0.7c-0.2-0.7-0.4-1.4-0.5-2.1c-1.1-4.2,0.5,1.5,0.2,1.6
	c0,0-0.1-4.7-0.1-5.3c0-1,0.2-2,0.2-3.1c0.1-2.5-0.3,2.2-0.3,2.2c0.8-1.6,0.8-4.4,1.3-6.2c1-4.2,2.3-8.4,3.9-12.4
	c0.2-0.8,0.5-1.7,1-2.4c-2,2-1.2,2.7-0.2,0.7s2-4.2,3.1-6.2c1.2-2.2,2.5-4.4,3.9-6.5c0.4-0.7,0.9-1.3,1.3-2c2.8-4.2-2.2,2.2-0.2,0.2
	c0.5-0.5,1-1.2,1.6-1.8s3.9-2.9,1.1-1.4c-2.7,1.5,0.1-0.1,0.8-0.5c0.4-0.3,0.9-0.6,1.4-0.8c1.5-0.8,0.9-0.6-1.7,0.6
	c1.2,0.7,4.9-2.6,6.3-1.7c0,0-5.9,0.4-1.2,0.2c1.1,0,2.2-0.1,3.3-0.1c5,0,10.1,0.3,15,0.9c11.9,1.2,23.3-11.3,22.8-22.8
	C319.2,219.2,309.8,211.1,297,209.8L297,209.8z"/>
<path class="st1" d="M369.4,223.9c59.5-58,142-91.8,225.2-92.1c3.9,0,9,1.1,9.3,5c0.2,2.4-1.7,4.4-3.5,6.1
	c-54.7,49.5-125.3,77-194.1,103.5c27-2.1,54.2-4,81.2-2c27,2,54.1,8.3,77.7,21.7c4.3,2.4,8.5,5.2,11.2,9.3s3.4,9.9,0.6,13.8
	c-1.7,2.4-4.4,3.8-7.1,5.1c-12.5,5.7-26,8.6-39.6,10.4c-31.5,4.1-63.4,2.3-94.2-5.4c19.6,8.4,38.6,18.2,56.8,29.1
	c15,9,29.9,19.2,39.7,33.8c1,1.3,1.6,2.8,1.8,4.4c0,3.4-3.8,5.4-7,6.6c-40.6,15-84.1,20.6-127.2,16.3c-23.7-2.4-47.8-8-67.5-21.6
	c-2-1.4-3.9-4.4-1.9-5.7"/>
<path class="st0" d="M385.5,240c5.5-5.3,11.1-10.4,16.9-15.3c2.7-2.3,5.5-4.5,8.2-6.7c2-1.6-1.3,1-1.4,1.1c0.9-0.6,1.8-1.3,2.6-2
	c1.7-1.3,3.5-2.6,5.2-3.9c12.1-8.7,24.8-16.6,38-23.6c6.5-3.4,13.1-6.6,19.8-9.6l3-1.3c0.5-0.2,3.1-1.3,0.3-0.1s2.3-0.9,3.3-1.3
	c3.5-1.4,7.1-2.8,10.7-4.1c14.3-5.2,29-9.3,43.9-12.5c7.2-1.5,14.4-2.7,21.7-3.8c2.6-0.4-2,0.3-2,0.3c1.1-0.1,2.2-0.2,3.2-0.4
	c1.6-0.2,3.2-0.4,4.8-0.5c4-0.4,8.1-0.8,12.2-1c3.5-0.2,7-0.4,10.6-0.5c1.9,0,3.8-0.1,5.7-0.1h2.4c3.8-0.2-4.3-1.2-1.8-0.3
	c2.3,0.8-2.9-1.4-2.7-1.2l-2.3-13.6c1.7-12.5,0.8-16.9-2.9-13.1c-1.5,1.2-3,2.5-4.3,3.9c-3,2.6-6,5.2-9.1,7.7
	c-1.5,1.2-3.1,2.5-4.6,3.7c-2,1.6,1.2-0.9,1.3-1c-0.9,0.7-1.8,1.4-2.7,2c-3.2,2.4-6.4,4.7-9.6,6.9c-6.5,4.5-13.1,8.8-19.8,12.9
	c-13.3,8.1-27,15.5-41,22.3c-7.9,3.9-15.9,7.6-24,11.2c-4.2,1.9-8.4,3.7-12.5,5.5c-0.5,0.2-3.2,1.3-0.4,0.2l-1.2,0.5l-6.3,2.6
	c-16.6,6.8-33.4,13.3-50.1,19.7c-10.7,4.1-17.9,13-16.3,25c1.4,10.4,11,20.6,22.4,19.7c22.1-1.7,44.2-3.3,66.4-2.7
	c5.2,0.1,10.5,0.4,15.7,0.8c2.7,0.2,5.3,0.5,7.9,0.8c0.7,0.1,3.1,0.1,3.5,0.4l-2.5-0.4l2.6,0.4c9.6,1.5,19.2,3.6,28.5,6.5
	c4.3,1.3,9.3,2.5,13.3,4.7c-4.7-2.6,1.2,0.6,2.6,1.2c2.7,1.3,5.3,2.6,7.8,4c0.4,0.2,5.7,3.5,5.7,3.5l-1-0.8
	c-1.4-1.2-1.3-1.1,0.2,0.3c0.8,0.2,3.2,4.2-0.4-0.9c1,1.5,0.7,3-0.5-1.4c-0.2-0.6-0.1-5.5-0.3-1.7c0.2-3.7,0.7-6.5,3.9-9.5
	c1.6-1.5,3.4-2.2,0.4-0.6c-0.9,0.5-1.9,0.9-2.8,1.4c-3,1.4,3.6-1.2,0.5-0.2c-2.3,0.7-4.5,1.6-6.8,2.3c-4.8,1.5-9.8,2.7-14.7,3.7
	c-2.3,0.5-4.7,0.8-7.1,1.2c-4.3,0.7,0,0.1,0.7-0.1c-1.2,0.2-2.5,0.3-3.8,0.5c-5.7,0.7-11.3,1.1-17,1.4c-12,0.6-24,0.3-36-0.9
	l-3.8-0.4c-0.6-0.1-5.9-0.7-2.6-0.3c3.1,0.4-0.9-0.1-1.7-0.2l-4.7-0.8c-6.2-1.1-12.4-2.4-18.6-3.9c-11-2.9-22.4,2.7-26.8,13.2
	c-4,9.4-1.1,23.9,9.3,28.4c19,8.2,37.4,17.6,55.2,28.2c3.8,2.3,7.6,4.6,11.4,7.1c1.8,1.2,3.7,2.5,5.5,3.7c0.8,0.7,1.7,1.4,2.7,1.9
	c-0.3,0.2-3.5-2.9-0.7-0.5c3.6,2.9,7,6.1,10.2,9.4c0.7,0.8,1.5,1.6,2.2,2.4c0.4,0.5,2.7,3.4,0.8,0.9c-1.9-2.5,0.3,0.5,0.7,1
	s0.6,0.9,0.9,1.4c0.9,1.5,0.6,0.9-1-1.7v-12.1c1.5-3.5,3.9-6.6,7.1-8.7c-2.1,1.1-1.5,0.9,1.8-0.6c-1.1,1.1-4.6,1.7-6.1,2.2
	c-4.1,1.4-8.2,2.7-12.3,3.9c-8.6,2.5-17.2,4.6-26,6.4c-4.2,0.8-8.5,1.5-12.8,2.2c-6.2,1,4.9-0.5-1.3,0.2c-2.5,0.3-4.9,0.6-7.4,0.8
	c-8.6,0.8-17.2,1.3-25.8,1.3c-8.6,0-17.2-0.3-25.8-1.1c-2.4-0.2-4.7-0.4-7.1-0.7c-1.5-0.2-6.7-0.2-0.7-0.1c-3.9-0.1-8-1.3-11.8-2.1
	c-7.8-1.7-15.4-3.9-22.9-6.6c-2.4-0.9-2.1-0.8,0.7,0.4c-1-0.4-2.1-0.9-3.1-1.4c-1.5-0.7-3.1-1.5-4.6-2.3c-2-1-4-2.2-5.9-3.4
	c-1-0.6-1.9-1.2-2.9-1.8c3.1,2.1,5.3,5.2,6.3,8.7v12.1l0.1-1l-5.9,10l0.7-0.8c8.1-8.7,9.3-23.6,0-32.2c-8.8-8.1-23.5-9.3-32.2,0
	c-9.9,10.6-9.5,25.4,0,36c4.7,5.2,11.8,9.1,18.1,12.3c11.9,6,24.5,10.5,37.5,13.3c26.1,5.5,52.9,7.2,79.5,5
	c26.6-1.9,52.9-7.2,78.2-15.9c7.5-2.6,15-5.3,20.8-11c9.5-9.4,10-24.2,3.1-35.3c-7.5-12.2-18.6-21.7-29.9-30.1
	c-22.7-16.8-48.9-29.8-74.7-40.9L430,321.4c25.4,6.3,51.5,9,77.6,8.1c25.3-1,52.3-4.4,75.2-16.1c17.8-9.1,23.3-30.1,14.4-47.4
	c-6.3-12.3-19.3-19.6-31.4-25.1c-23.2-10.7-47.5-16.3-72.9-18.8c-28.8-2.8-57.8-0.7-86.5,1.5l6,44.7
	c67.2-25.8,134.8-52.5,191.3-98.3c8.5-6.9,17.8-13.8,21.6-24.4c5.6-15.6-5.6-31.7-21-35.3c-9.1-2.1-19.2-1.1-28.4-0.5
	c-9.6,0.6-19.2,1.8-28.7,3.1c-34.4,4.8-67.4,15.2-98.9,29.7c-35.1,16.3-67.2,38.4-94.9,65.4c-8.6,8.3-9,23.9,0,32.2
	C362.5,248.5,376.3,248.9,385.5,240L385.5,240z"/>
<path class="st0" d="M265.9,404.4c0.9,8.5,1,17.2,0.3,25.7c-0.1,1.1-0.2,2.3-0.3,3.4c-0.3,2.6-0.2,2.3,0.2-0.9
	c-0.4,0.3-0.7,4.5-0.9,5.1c-0.8,4.5-1.9,9-3.2,13.4c-1.1,3.9-2.5,7.6-3.9,11.4c-1,2.4-0.9,2.1,0.3-0.7c-0.5,1-0.9,2.1-1.4,3.1
	c-0.7,1.6-1.5,3.1-2.3,4.6c-2,4-4.3,7.9-6.8,11.6c-0.4,0.7-0.9,1.3-1.4,2c-1,1.3-0.6,0.9,1.2-1.4c-0.7,1.8-3.1,3.3-4.3,4.7
	c-1.9,1.6-1.5,1.4,1-0.5c-0.8,0.6-1.7,1.2-2.6,1.7l-1.4,0.8c3.2-1.2,3.7-1.5,1.5-0.7c-6.4,1.2,3.5,0.1-0.6,0.2c-2.5-0.1-1.8,0,2,0.4
	c-0.9-0.2-1.7-0.4-2.6-0.7l3,1.3c-2-1.2-1.6-0.7,1.4,1.4c-1.7-1.7-1.4-1.1,0.9,1.7c-1.2-2.2-1.2-1.8,0.2,1.1c-0.3-1-0.6-2.1-0.8-3.1
	c-0.4-2.5-0.4-2.2,0.1,1.2c-0.6-1.5-0.4-3.9-0.5-5.5c-0.3-4.9-0.4-9.8-0.1-14.7c0.1-1.8,0.2-3.7,0.4-5.5c0.1-1.2,0.2-2.5,0.4-3.7
	c-0.4,3-0.5,3.2-0.1,0.6c1.6-9.1,4-18,7.1-26.7c3.4-9-2.2-21.3-10.5-25.7c-9.5-5-19.5-3.2-27.6,3.6c-8.9,7.4-17.8,14.8-26.8,22.1
	c-4.1,3.3-8.2,6.5-12.3,9.8c-3.3,2.6-0.1,0.1,0.5-0.4c-1.1,0.9-2.3,1.8-3.5,2.6c-2.5,1.9-5.1,3.8-7.7,5.7
	c-18.1,13.3-37,25.6-57.2,35.6c-4.4,2.2-9.3,5.2-14.1,6.5c4.5-1.2,1.9-0.8,0.7-0.3c-1.6,0.6-3.2,1.3-4.8,1.9c-2.7,1-5.4,2-8.1,2.9
	c-0.4,0.1-7.4,2.1-7.4,2.1l1.6-0.2c2-0.2,2.1-0.2,0.1-0.1h-1.4l3.3,0.5l-1.3-0.4c2,0.5,3.9,1.4,5.5,2.9c1.6,1.6,2.8,3.5,3.5,5.7
	c-1.2-3.6,0.6,1.9,0.2,2.2c0-0.9,0-1.8,0.1-2.7c-0.5,3.5-0.6,4.4-0.2,2.6c0.7-2,1.4-4,1.9-6.1c-0.9,4.9-1,2.3-0.1,0.4
	c0.6-1.2,1.2-2.5,1.8-3.7c2.4-4.9,5-9.7,7.8-14.4c2.5-4.2,5.2-8.3,8.1-12.4c1.6-2.2,3.1-4.5,4.9-6.6c-0.4,0.5-3.1,3.9-0.5,0.7
	c1-1.3,2.1-2.6,3.1-3.8c15.6-18.7,33.8-35.1,52.6-50.5c7.4-6.1,8.6-19.7,3.6-27.6c-5.4-8.7-15.8-12.9-25.7-10.5
	c-10,2.5-20.1,4.6-30.3,6.4c-2.5,0.4-5.1,0.8-7.6,1.2c-1.3,0.2-2.6,0.4-3.8,0.5c0.3,0,3.9-0.5,1.2-0.2c-5.4,0.6-10.9,1.2-16.4,1.7
	c-9.1,0.8-18.4,1.5-27.6,1c-0.8,0-1.5-0.1-2.3-0.2l-0.8-0.1l0,0l1.5,0.2c-0.7-0.1-1.5-0.3-2.2-0.4s-1.5-0.3-2.2-0.5
	c-1-0.2-1.9-0.6-2.8-0.8c-3.6-0.9,0.8,0.2,1.4,0.7c-0.8-0.5-1.7-0.9-2.6-1.3c-0.9-0.5-4.4-1.7-1.3-0.6c2.5,0.8,0.7,0.5-0.4-0.6
	c-0.6-0.6-2.7-3.1-0.5-0.3c2.6,3.2-0.6-2-1-2.2c2.2,1.4,1.5,4.5,0.9,1.8c-0.2-0.8-0.4-1.7-0.7-2.5c-0.8-2.6,1.3-0.8,0.2,2.1
	c0.3-0.8-0.1-2.5-0.1-3.4s0.1-1.8,0.1-2.7c0-2.4-0.4,2.7-0.4,2.7c0.7-1.6,0.8-3.7,1.3-5.4c0.4-0.9,0.7-1.7,0.9-2.6
	c-0.1,0.6-2.5,4.8-0.6,1.6c0.9-1.6,1.8-3.2,2.8-4.8c2-3.2-0.6,1-1.1,1.3c0.7-0.6,1.3-1.3,1.8-2c0.9-1,4.2-3.1,4.6-4.2
	c-0.2,0.5-4.3,3-0.9,0.8c0.9-0.6,1.7-1.2,2.6-1.7c1.8-1.1,3.6-2.1,5.4-3.1c0.9-0.5,1.9-0.9,2.8-1.4c2-1,1.3-1.7-1.1,0.4
	c1.3-1.1,4.3-1.6,5.9-2.2c4-1.4,8.1-2.5,12.2-3.5c21.2-5.4,43.1-8.8,61.9-21c13.6-8.9,15.8-30.9,0-39.3c-6-3.2-12-6.4-17.7-10
	c-2.7-1.7-5.3-3.9-8.1-5.5c0,0,3.5,2.9,1.7,1.2c-0.5-0.5-1.1-0.9-1.7-1.4c-1.3-1.1-2.6-2.3-3.8-3.5c-1.2-1.2-2.3-2.5-3.5-3.8
	c-2.7-3.1,2.2,3.5,0,0c-0.9-1.5-1.8-2.9-2.6-4.4c-2.4-4.5,0.8,2.9-0.4-0.4c-0.4-1.3-0.9-2.6-1.2-3.9c-0.2-0.8-1.2-6.4-0.6-2.3
	c0.5,3.9,0-0.7,0-1.7c-0.1-1.8,0-3.6,0.1-5.4c0.1-0.7,0.2-1.4,0.2-2c0-0.1-0.9,5.1-0.3,2.7c0.4-1.5,0.6-3.1,1.1-4.6
	c0.4-1.3,0.8-2.6,1.2-3.9c0.2-0.6,0.5-1.3,0.7-1.9c0.9-2.7-2,4.1-0.7,1.6s2.8-5.3,4.4-7.9c0.4-0.6,0.8-1.1,1.2-1.7
	c1.2-2.1-1.5,1.8-1.5,1.8c1.3-1.3,2.4-2.9,3.7-4.2c1-1,1.9-2,3-3c0.8-0.7,4.8-4,1.9-1.8s0.9-0.6,1.6-1c1.7-1.1,3.5-2.1,5.3-3.1
	c0.8-0.4,5.4-2.4,2.4-1.3l2.6-0.9c3.6-1.2,7.2-2.2,10.9-3l2.4-0.5c5.3-1.1-3.5,0.3-0.4,0c1.9-0.2,3.8-0.4,5.7-0.5
	c4.1-0.2,8.2-0.2,12.3,0c2.2,0.1,4.4,0.3,6.6,0.5c0.8,0.2,1.6,0.3,2.5,0.3c-1.3,0.2-4.2-0.7-1.1-0.1c4.3,0.8,8.6,1.6,12.9,2.7
	c9.4,2.4,20.9-1.5,25.7-10.4c4.5-8.6,4.2-20.8-3.6-27.6c-2.5-2.2-4.9-4.6-7.1-7.1c-0.3-0.4-1.1-1.6-1.5-1.8c0.1,0,2.6,3.6,1.2,1.5
	c-1-1.5-2.1-3-3-4.5c-1.8-2.9-3.2-5.9-4.8-8.9c-1.2-2.3,0.9,1.9,0.8,1.9c-0.5-0.9-0.8-1.9-1.1-2.9c-0.6-1.7-1.1-3.4-1.6-5.2
	c-0.4-1.5-0.8-3-1.1-4.5c-0.2-0.8-0.3-1.5-0.4-2.3c-0.8-4.1,0.3,1,0.2,1.4c0.3-1.2-0.3-3.4-0.3-4.6c-0.1-1.8-0.1-3.7,0-5.5
	s0.6-3.8,0.4-5.6c0,0.1-0.8,4.6-0.2,2.1c0.2-0.8,0.3-1.6,0.4-2.4c0.8-3.6,1.8-7.2,3.1-10.7c1.4-4.1-1.7,3.4,0.2-0.4
	c0.8-1.7,1.6-3.3,2.6-5c0.8-1.4,1.6-2.8,2.5-4.1c0.4-0.7,0.9-1.3,1.3-2c1.6-2.5-0.2-0.4-0.7,0.8c1.1-2.7,4.9-5.6,7-7.6
	c0.6-0.6,4.4-4,2.1-1.9s0.4-0.2,1.1-0.6c0.9-0.6,1.9-1.2,2.9-1.7c0.3-0.2,2.1-0.8,2.2-1.1c-0.2,0.4-4,1.2-1.6,0.8
	c0.8-0.2,1.6-0.4,2.3-0.7c3.3-1-0.4,1.1-1.3,0.2c0.8,0.1,1.6,0.1,2.4,0c2.5-0.2-2,0-2.2-0.3c0.7,0.3,1.4,0.5,2.1,0.6
	c2.5,0.5-3.4-2-1.4-0.6c0.6,0.4,1.3,0.8,1.9,1.1c3.3,1.8-0.6-0.3-1-0.9c0.6,1.1,2.4,2.1,3.3,3c1.1,1.1,2,2.2,3,3.4
	c2.1,2.4-0.9,0-0.7-0.9c-0.1,0.4,1.6,2.3,1.9,2.7c2.3,3.5,4.4,7.1,6.1,10.8c0.2,0.8,0.6,1.6,1,2.3c-0.8-0.4-1.5-4-0.4-0.8
	c0.6,1.8,1.3,3.7,1.8,5.5c0.6,2.1,1.1,4.3,1.6,6.5c0.2,0.8,0.3,1.6,0.5,2.4c0.6,3.2-0.4,0-0.1-1.1c-0.5,1.7,0.4,4.9,0.5,6.6
	c0.1,2.2,0,4.4,0,6.6c-0.4,11.3,9,20.9,19.7,22.3c11.9,1.6,20.8-5.6,25-16.3c0.8-2.1,1.6-4.1,2.4-6.2c0.5-1,0.9-2,1.3-3.1
	c-0.1,0.6-2,4.7-0.3,0.9c1.8-4,3.6-8.1,5.6-12c4-8.2,8.4-16.2,13.1-24c4.6-7.6,9.5-14.9,14.7-22.1c1.3-1.8,2.6-3.6,4-5.3
	c1.9-2.6-2.5,3.1-0.5,0.7c0.7-0.9,1.4-1.7,2.1-2.6c2.9-3.7,6-7.2,9.1-10.8c5.9-6.6,12-13,18.4-19.1c1.6-1.5,3.2-3,4.9-4.5
	c0.8-0.8,1.6-1.5,2.5-2.2c0.5-0.5,2.5-1.8,0,0c-5.3,3.8-13.8,3.9-18.9-0.3c-0.6-0.5-3.9-5.1-2.9-3c0.4,0.9,1,1.8,1.5,2.7
	c1.5,2.2-1.3-4.2,0-0.2c0.7,2,1.3,4.1,1.8,6.2c0.1,1.1,0.3,2.2,0.6,3.2c-0.3-0.4-0.4-5.5-0.2-1.2c0.3,4.4,0.3,8.8,0.2,13.2
	c-0.2,4.1,0.1,9.7-1.3,13.5c0.2-0.6,0.8-5,0.1-0.6c-0.2,1.2-0.4,2.4-0.5,3.6c-0.4,2.7-0.9,5.4-1.4,8.1c-2,10.8-4.6,21.4-7.8,31.9
	c-1.6,5.2-3.3,10.4-5.2,15.6c-0.9,2.6-1.9,5.1-2.9,7.7c-0.4,1.2-0.9,2.3-1.4,3.4l0.9-2.1c-0.5,1.1-1,2.2-1.5,3.4
	c-2.5,5.8-4,11.2-2.3,17.5c1.5,5.3,5.5,11,10.5,13.6c9.9,5.2,26,3.5,31.1-8.2c9.8-22.2,17.6-45.1,22.2-68.9
	c4.4-22.7,9.2-49.5,1.1-72C372,12.7,359-4.2,338.6,0.9c-11.8,2.9-21.2,13.7-29.5,22c-33.3,33.5-59,73.7-75.5,117.9l44.7,6.1
	c1.4-40.6-26-100.8-75.2-91.4c-20.7,3.9-38.4,22.1-48.1,39.9c-10.7,19.4-14.1,40.9-11,62.7c3.1,21.3,14.6,42,30.7,56.2l22.1-38
	c-37.4-9.3-80.4-6.9-109.9,20.6c-26.4,24.6-36.4,68.3-13.8,98.7c12.4,16.6,29.5,27.4,47.6,37v-39.3c-2.2,1.4-4.4,2.7-6.7,3.9
	c-1.1,0.6-2.6,1.7-3.8,1.9c0.5-0.1,4.8-1.8,0.7-0.3c-4.9,1.8-9.8,3.4-14.8,4.7c-9.8,2.6-19.7,4.4-29.5,7
	c-22.1,6-43.3,16.4-56.4,35.8C-1.9,364.4-4.3,391.6,8.7,410c14.8,20.9,39.7,25.1,63.6,24c27.8-1.3,55.5-5.4,82.5-12.1l-22.1-38
	c-18.8,15.4-37,31.8-52.6,50.5c-8.5,10-16.3,20.7-23.1,32C50.7,476.9,43.9,489,41.3,501c-4.1,19.4,3.9,39.4,24.2,45.1
	c14.1,3.9,29-2.2,41.8-7.4c24.4-10.1,47.7-22.8,69.3-38c24.4-17,47.4-36.1,70.3-55.1l-38-22.1c-6.5,17.5-9.8,36-9.6,54.7
	c0.1,9.3,0.4,19.7,3.7,28.5c4.6,12,13.3,20.9,25.7,24.8c19.5,6.1,40-3.4,52.2-18.8c11.4-14.7,19.9-31.5,25-49.4
	c5.6-19.1,7.4-39,5.5-58.8c-0.6-6.2-2.1-11.5-6.7-16.1c-3.9-3.9-10.4-6.9-16.1-6.7C277.4,382.1,264.6,391.7,265.9,404.4z"/>
</svg>
