<svg id="Ebene_1" data-name="Ebene 1" xmlns="http://www.w3.org/2000/svg" viewBox="0 0 626.72 547.37"><defs><style>.cls-1{fill:none;}</style></defs><path d="M297,209.76c-11.82-1.19-24.19-1.66-35.57,2.35-14,4.93-24.07,14.75-31.93,27.1-13,20.48-22.2,47.64-17.09,72,5.72,27.2,34,40,59.6,36.76,26.29-3.29,49.61-15.92,65.27-37.54,16.2-22.35,22.45-62.49-.63-82.76-8.93-7.85-23.49-9.46-32.17,0-7.89,8.59-9.55,23.78,0,32.17a21.94,21.94,0,0,0,2.09,2c-.46-.11-2.2-3.74-1.44-1.69,1.94,5.24-.59-3.41.3.6.21.94.45,1.94.69,2.88.73,2.77-1.17.7-.21-1.65-.63,1.53.17,4.86.09,6.55a17.87,17.87,0,0,0-.28,3.26c-.06-.27.9-4.37.19-2-.55,1.82-.83,3.73-1.38,5.56-.32,1-.71,2.07-1,3.11-.18.55-1,3.22-.1.33s-.2.21-.61,1c-.64,1.21-1.31,2.41-2,3.58-.46.75-3.83,5.74-2,3.1,1.67-2.4.11-.19-.3.25-.73.79-1.44,1.6-2.19,2.37-1.28,1.33-2.64,2.59-4,3.79-.61.53-3.2,2.84-.78.7,2.59-2.29-1.21.74-1.56,1q-2.32,1.51-4.77,2.83c-1.24.68-4.1,1.47-5,2.47.1-.11,4.13-1.54,1.76-.77-1,.32-2,.74-3,1.07q-3,1-6.1,1.78c-1.63.4-3.91.45-5.44,1.13,3.52-1.57,4-.36,1.74-.24-1,0-1.94.15-2.92.19-1.7.07-3.42,0-5.12,0a19.82,19.82,0,0,0-2.18-.18c5.21-.2,3.13.44,1.07-.06-.91-.23-1.81-.61-2.73-.78-2.25-.45,2.1.7,2.18,1,0,0-5.81-3.78-2.42-1.11,2.76,2.16.36,0-.31-.52-1.72-1.25,1.22,1.39,1.26,1.81a25,25,0,0,1-1.53-2.53c.15-.07,1.81,5.47.41.67-.21-.72-.35-1.43-.54-2.15-1.12-4.24.51,1.53.18,1.61,0,0-.1-4.67-.07-5.32,0-1,.17-2.05.22-3.07.12-2.53-.28,2.19-.31,2.24.8-1.63.84-4.36,1.29-6.17a108.22,108.22,0,0,1,3.88-12.42,9.17,9.17,0,0,1,.95-2.42c-1.95,2-1.25,2.7-.21.66s2-4.16,3.13-6.19c1.21-2.21,2.49-4.39,3.86-6.5.43-.66.88-1.3,1.31-2,2.76-4.2-2.23,2.25-.2.25.55-.55,1-1.19,1.56-1.75s3.86-2.88,1.14-1.36.13-.06.84-.5a14.72,14.72,0,0,1,1.39-.8c1.51-.78.93-.59-1.73.59,1.23.66,4.93-2.65,6.27-1.69,0,0-5.9.4-1.16.22,1.11,0,2.21-.13,3.32-.15a128.25,128.25,0,0,1,15.05.9c11.88,1.2,23.26-11.32,22.75-22.75-.6-13.35-10-21.47-22.75-22.75Z" transform="translate(0.02 0.02)"/><path class="cls-1" d="M369.43,223.92c59.53-58,142.05-91.78,225.18-92.13,3.89,0,9,1.07,9.34,5,.22,2.41-1.71,4.43-3.51,6.06-54.68,49.49-125.27,77-194.13,103.49,27-2.06,54.2-4,81.24-2s54.14,8.3,77.7,21.74c4.26,2.43,8.53,5.21,11.22,9.31s3.44,9.85.57,13.84c-1.72,2.4-4.44,3.84-7.12,5.07-12.47,5.71-26,8.62-39.64,10.39a254.93,254.93,0,0,1-94.23-5.35,473,473,0,0,1,56.81,29.13c15,9,29.88,19.24,39.65,33.75a8.23,8.23,0,0,1,1.78,4.44c0,3.42-3.76,5.42-7,6.61A285.19,285.19,0,0,1,400.07,389.6c-23.74-2.39-47.8-8.05-67.45-21.6-2-1.35-3.88-4.43-1.85-5.67" transform="translate(0.02 0.02)"/><path d="M385.52,240q8.19-7.94,16.9-15.31c2.7-2.27,5.47-4.46,8.21-6.68,2-1.6-1.3,1-1.39,1.06a19.32,19.32,0,0,0,2.6-2q2.61-2,5.25-3.86a325.84,325.84,0,0,1,38-23.57q9.74-5.15,19.78-9.64l3-1.31c.52-.23,3.12-1.32.28-.14s2.3-.94,3.31-1.34q5.3-2.11,10.66-4.06A329.87,329.87,0,0,1,536,160.66c7.18-1.52,14.41-2.71,21.66-3.82,2.61-.4-2,.27-2,.27a31.46,31.46,0,0,0,3.24-.4c1.61-.19,3.23-.37,4.85-.54q6.07-.63,12.18-1c3.52-.23,7-.4,10.57-.51,1.9,0,3.81-.09,5.71-.12h2.44c3.77-.23-4.29-1.19-1.78-.34,2.33.79-2.94-1.42-2.68-1.24l-2.35-13.62q2.6-18.78-2.89-13.13a55.63,55.63,0,0,0-4.35,3.91q-4.47,3.91-9.09,7.66c-1.53,1.24-3.09,2.46-4.64,3.69-2,1.59,1.16-.88,1.26-1a29.85,29.85,0,0,1-2.7,2q-4.74,3.54-9.61,6.91-9.72,6.76-19.84,12.92c-13.3,8.11-27,15.49-41,22.34q-11.9,5.82-24,11.18-6.26,2.79-12.55,5.46c-.48.21-3.18,1.34-.44.19l-1.23.52-6.33,2.62c-16.6,6.82-33.36,13.29-50.11,19.73-10.69,4.11-17.9,13-16.3,25,1.41,10.45,11,20.59,22.35,19.73,22.08-1.68,44.22-3.3,66.39-2.71,5.25.14,10.5.4,15.73.82q4,.31,7.93.75c.74.08,3.08.09,3.53.42l-2.54-.35,2.63.39a198.09,198.09,0,0,1,28.47,6.46c4.31,1.34,9.34,2.53,13.29,4.74-4.74-2.65,1.24.59,2.64,1.25,2.67,1.27,5.28,2.61,7.85,4,.42.24,5.69,3.51,5.74,3.45l-1-.79q-2.1-1.74.23.27c.75.16,3.18,4.21-.39-.9,1,1.49.72,3-.45-1.39-.16-.6-.11-5.53-.28-1.67.16-3.69.73-6.54,3.92-9.55,1.62-1.54,3.37-2.18.41-.6-.92.49-1.88.9-2.81,1.35-3,1.43,3.61-1.24.48-.24-2.26.72-4.47,1.62-6.75,2.33a138,138,0,0,1-14.74,3.67c-2.35.45-4.71.82-7.07,1.22-4.26.73,0,.08.74-.06-1.22.24-2.53.32-3.77.47q-8.49,1-17,1.37a254.47,254.47,0,0,1-36-.85l-3.78-.38c-.64-.07-5.93-.69-2.63-.29,3.08.38-.94-.14-1.68-.25l-4.68-.75c-6.24-1.07-12.43-2.38-18.58-3.89a22.89,22.89,0,0,0-26.84,13.17c-4,9.39-1.1,23.92,9.31,28.41a479.52,479.52,0,0,1,55.23,28.16c3.84,2.29,7.65,4.63,11.38,7.09,1.84,1.21,3.66,2.46,5.45,3.73a21.14,21.14,0,0,0,2.67,1.94c-.31.17-3.55-2.89-.71-.54a110.82,110.82,0,0,1,10.21,9.4c.74.8,1.47,1.6,2.18,2.42.4.47,2.67,3.36.8.86s.31.49.65,1,.62.9.9,1.37c.91,1.48.59.91-1-1.69v-12.1a19.67,19.67,0,0,1,7.1-8.7q-3.21,1.71,1.83-.58c-1.09,1.12-4.58,1.66-6.09,2.18q-6.12,2.11-12.32,3.94-12.86,3.78-26,6.35c-4.23.82-8.48,1.51-12.75,2.18-6.16,1,4.93-.53-1.27.18-2.45.28-4.9.56-7.35.8q-12.88,1.23-25.84,1.29c-8.62,0-17.25-.31-25.84-1.06q-3.54-.3-7.07-.71c-1.46-.17-6.68-.23-.74-.06-3.89-.11-8-1.27-11.82-2.06a187.61,187.61,0,0,1-22.93-6.59c-2.35-.94-2.1-.82.73.37-1-.44-2.07-.91-3.09-1.39-1.54-.71-3.06-1.47-4.56-2.26-2-1-4-2.16-5.89-3.35-1-.59-1.92-1.2-2.86-1.83A15.52,15.52,0,0,1,352,358v12.1l.15-1-5.85,10,.71-.76c8.1-8.72,9.28-23.65,0-32.17-8.81-8.09-23.52-9.31-32.17,0-9.86,10.6-9.5,25.35,0,36.05,4.68,5.25,11.83,9.1,18.09,12.27a156.26,156.26,0,0,0,37.53,13.32,278.08,278.08,0,0,0,79.55,5,309.12,309.12,0,0,0,78.22-15.85c7.54-2.63,15-5.3,20.85-11.05,9.49-9.41,10-24.25,3.14-35.29-7.51-12.19-18.56-21.69-29.92-30.12-22.67-16.83-48.89-29.75-74.73-40.91L430,321.34a281.54,281.54,0,0,0,77.58,8.12c25.3-1,52.34-4.35,75.16-16.06,17.75-9.12,23.3-30.08,14.43-47.44-6.31-12.34-19.31-19.57-31.43-25.13-23.24-10.72-47.49-16.29-72.9-18.75-28.8-2.79-57.77-.67-86.53,1.51l6,44.69c67.21-25.85,134.82-52.52,191.29-98.34,8.51-6.91,17.78-13.77,21.63-24.45,5.63-15.63-5.59-31.7-21-35.31-9.11-2.14-19.18-1.09-28.43-.49-9.63.61-19.18,1.77-28.74,3.08-34.36,4.75-67.44,15.15-98.91,29.67a344.75,344.75,0,0,0-94.9,65.4c-8.56,8.3-9,23.95,0,32.17,9.2,8.44,23,8.85,32.18,0Z" transform="translate(0.02 0.02)"/><path d="M265.92,404.34a137.38,137.38,0,0,1,.33,25.73q-.13,1.71-.33,3.42c-.31,2.58-.25,2.27.16-.94-.39.34-.74,4.52-.85,5.08A133.1,133.1,0,0,1,262,451c-1.13,3.86-2.51,7.6-3.88,11.38-1,2.35-.85,2.13.32-.68-.46,1-.93,2.09-1.42,3.13q-1.1,2.34-2.27,4.62a116.51,116.51,0,0,1-6.8,11.63c-.43.67-.89,1.32-1.35,2-1,1.33-.59.86,1.17-1.43-.69,1.75-3.06,3.27-4.26,4.66q-2.79,2.43,1-.55c-.84.61-1.7,1.18-2.6,1.71l-1.37.75c3.21-1.23,3.71-1.45,1.49-.68-6.35,1.25,3.49.15-.64.17-2.49-.13-1.83,0,2,.44a19,19,0,0,1-2.57-.66l3,1.3q-3.06-1.81,1.36,1.42c-1.67-1.66-1.36-1.11.93,1.68-1.22-2.19-1.16-1.84.2,1.06a28.62,28.62,0,0,1-.83-3.15q-.64-3.82.1,1.17c-.6-1.5-.37-3.94-.47-5.5a131.42,131.42,0,0,1-.13-14.72c.09-1.84.22-3.68.38-5.51.11-1.23.23-2.45.38-3.67q-.65,4.51-.06.58a151.6,151.6,0,0,1,7.15-26.66c3.38-9-2.18-21.31-10.46-25.69-9.53-5-19.47-3.2-27.56,3.56C205.93,420.78,197,428.2,188,435.49c-4.08,3.29-8.18,6.53-12.29,9.77-3.26,2.56-.11.1.47-.36-1.14.9-2.31,1.77-3.46,2.65q-3.81,2.9-7.67,5.74c-18.09,13.31-37,25.63-57.15,35.62-4.41,2.19-9.29,5.25-14.06,6.49,4.47-1.17,1.91-.79.66-.31-1.61.62-3.21,1.27-4.82,1.88-2.69,1-5.41,2-8.14,2.92-.4.14-7.37,2.12-7.37,2.11l1.55-.19q3.06-.31.1-.09H74.38l3.26.45-1.32-.37a11.94,11.94,0,0,1,5.47,2.86,13.64,13.64,0,0,1,3.47,5.68c-1.24-3.56.63,1.85.24,2.21a22.32,22.32,0,0,1,.1-2.71q-.8,5.25-.24,2.6a53.06,53.06,0,0,0,1.87-6.06c-.91,4.92-1,2.34-.12.39.57-1.25,1.15-2.49,1.75-3.73q3.57-7.4,7.83-14.43,3.82-6.32,8.1-12.35c1.57-2.22,3.14-4.52,4.88-6.61-.42.5-3.08,3.86-.51.71,1-1.28,2.07-2.56,3.13-3.83,15.6-18.73,33.8-35.1,52.62-50.5,7.43-6.08,8.6-19.74,3.56-27.57A23.52,23.52,0,0,0,142.78,378c-10,2.5-20.13,4.64-30.32,6.35-2.54.43-5.09.83-7.64,1.22-1.28.18-2.56.4-3.84.54.27,0,3.94-.48,1.25-.18-5.45.61-10.89,1.25-16.37,1.7-9.13.76-18.39,1.49-27.56,1-.76,0-1.52-.1-2.27-.16l-.76-.07h0l1.53.2c-.73-.12-1.47-.26-2.2-.41s-1.45-.31-2.17-.49c-1-.24-1.88-.58-2.82-.82-3.63-.88.8.25,1.37.73a19.3,19.3,0,0,0-2.56-1.31c-.92-.52-4.38-1.66-1.28-.64,2.52.84.66.51-.44-.61-.62-.62-2.7-3.08-.46-.3,2.57,3.19-.63-2-1-2.21,2.19,1.41,1.46,4.47.86,1.77-.18-.81-.43-1.74-.68-2.55-.78-2.56,1.27-.82.21,2.11.31-.84-.13-2.46-.13-3.36s.13-1.81.13-2.71c0-2.39-.4,2.67-.39,2.66.68-1.61.76-3.69,1.29-5.38a18.74,18.74,0,0,0,.92-2.64c-.07.59-2.47,4.84-.61,1.61.93-1.62,1.83-3.23,2.81-4.82,2-3.19-.62,1-1.07,1.28a17,17,0,0,0,1.84-2.05c.91-.95,4.15-3.07,4.58-4.23-.19.5-4.33,3-.89.75.87-.56,1.71-1.16,2.59-1.71q2.64-1.65,5.42-3.06c.93-.48,1.88-.9,2.81-1.37,2-1,1.29-1.7-1.1.43,1.27-1.13,4.32-1.64,5.94-2.19,4-1.36,8.1-2.51,12.21-3.55,21.22-5.38,43.13-8.76,61.86-21,13.64-8.87,15.84-30.93,0-39.29-6-3.17-12-6.39-17.73-10-2.74-1.73-5.28-3.93-8.06-5.54,0,0,3.49,2.91,1.68,1.25-.54-.49-1.14-.94-1.69-1.43a48.41,48.41,0,0,1-3.76-3.51c-1.21-1.21-2.33-2.48-3.46-3.75-2.74-3.07,2.21,3.46,0,0-.91-1.45-1.84-2.86-2.64-4.37-2.44-4.54.75,2.91-.36-.43-.42-1.3-.87-2.58-1.21-3.9-.22-.84-1.16-6.36-.61-2.26.53,3.93,0-.71,0-1.66a48.32,48.32,0,0,1,.13-5.38c.05-.66.19-1.35.19-2,0-.11-.94,5.09-.3,2.7.41-1.53.64-3.11,1.06-4.64.36-1.32.78-2.63,1.23-3.93.23-.65.5-1.28.72-1.93.93-2.71-2,4.13-.65,1.63s2.76-5.34,4.43-7.88c.38-.58.83-1.14,1.18-1.73,1.24-2.06-1.48,1.82-1.46,1.8,1.28-1.33,2.37-2.88,3.65-4.23,1-1,1.95-2,3-3,.77-.72,4.78-4,1.95-1.82s.92-.58,1.64-1c1.72-1.12,3.5-2.15,5.31-3.11.78-.41,5.41-2.4,2.4-1.29l2.55-.93a85.91,85.91,0,0,1,10.91-3l2.39-.46c5.27-1.07-3.53.28-.41,0,1.9-.17,3.79-.39,5.7-.5a115.26,115.26,0,0,1,12.33,0q3.3.17,6.59.51a11.31,11.31,0,0,0,2.46.27c-1.26.22-4.24-.66-1.13-.12,4.33.76,8.62,1.61,12.89,2.67,9.45,2.35,20.94-1.46,25.7-10.45,4.52-8.57,4.18-20.75-3.56-27.57a76.38,76.38,0,0,1-7.15-7.13c-.33-.37-1.06-1.59-1.51-1.77.09,0,2.57,3.58,1.18,1.53-1-1.51-2.09-3-3-4.5-1.81-2.88-3.25-5.88-4.78-8.9-1.18-2.34.86,1.91.78,1.85a12.58,12.58,0,0,1-1.08-2.91c-.6-1.72-1.12-3.45-1.59-5.2-.4-1.51-.76-3-1.06-4.54-.16-.77-.29-1.53-.43-2.3-.77-4.1.32,1,.19,1.43.33-1.22-.27-3.35-.32-4.65-.06-1.84-.05-3.69,0-5.54s.56-3.78.45-5.56c0,.12-.84,4.57-.22,2.11.19-.76.29-1.57.45-2.35a88.6,88.6,0,0,1,3.11-10.71c1.4-4.06-1.74,3.4.18-.44.84-1.67,1.65-3.33,2.57-5q1.17-2.09,2.48-4.09c.44-.67.9-1.32,1.34-2,1.63-2.47-.21-.37-.69.78,1.11-2.68,4.92-5.62,7-7.59.59-.56,4.36-4,2.09-1.91s.36-.16,1.08-.61c.93-.59,1.87-1.15,2.85-1.67.3-.16,2.1-.82,2.2-1.1-.16.45-4,1.2-1.65.83a20.44,20.44,0,0,0,2.32-.65c3.28-1-.37,1.13-1.31.15a12,12,0,0,0,2.4,0c2.51-.16-2,0-2.19-.28a9.71,9.71,0,0,0,2.12.61c2.46.47-3.41-2-1.39-.56a17.19,17.19,0,0,0,1.91,1.1c3.31,1.81-.62-.28-1-.93.62,1.08,2.43,2.14,3.33,3,1.07,1.08,2,2.23,3,3.36,2.11,2.4-.92,0-.69-.92-.09.37,1.64,2.34,1.9,2.73a82,82,0,0,1,6.11,10.85,11,11,0,0,0,1,2.27c-.84-.44-1.52-4-.45-.81.62,1.85,1.27,3.67,1.82,5.53.62,2.13,1.15,4.29,1.6,6.46.17.81.32,1.63.48,2.44.65,3.2-.44,0-.08-1.11-.53,1.67.44,4.87.51,6.63.08,2.21,0,4.43,0,6.65-.38,11.31,9,20.89,19.73,22.34,11.86,1.59,20.85-5.56,25-16.3.79-2.06,1.59-4.12,2.42-6.17a17.85,17.85,0,0,0,1.26-3.07c-.09.6-2,4.67-.34.86,1.81-4,3.63-8.06,5.58-12q6-12.29,13.1-24,6.87-11.35,14.68-22.08c1.3-1.79,2.64-3.55,4-5.32,1.9-2.55-2.51,3.14-.51.67.7-.86,1.37-1.73,2.07-2.6q4.41-5.49,9.08-10.77,8.78-9.95,18.39-19.1c1.6-1.53,3.21-3,4.85-4.52.82-.75,1.64-1.48,2.46-2.22.54-.49,2.54-1.82,0,0-5.31,3.76-13.82,3.87-18.92-.33-.62-.51-3.89-5.14-2.86-3a23.06,23.06,0,0,0,1.52,2.7c1.51,2.24-1.34-4.23,0-.25.67,2,1.31,4.08,1.78,6.19a15.77,15.77,0,0,0,.61,3.19c-.34-.43-.44-5.5-.2-1.19a123.88,123.88,0,0,1,.16,13.21c-.21,4.06.12,9.66-1.28,13.5.23-.61.75-5,.08-.61-.18,1.2-.36,2.41-.55,3.61-.42,2.71-.89,5.41-1.39,8.1a296.81,296.81,0,0,1-7.81,31.94q-2.4,7.86-5.23,15.59-1.41,3.86-2.93,7.68a29.94,29.94,0,0,1-1.38,3.38l.88-2.06c-.48,1.12-1,2.24-1.46,3.35-2.54,5.8-4.05,11.16-2.29,17.53,1.45,5.28,5.53,11,10.45,13.6,9.86,5.2,26,3.47,31.13-8.17,9.76-22.23,17.57-45.06,22.17-68.94,4.39-22.74,9.25-49.5,1.13-72C372,12.67,359-4.17,338.54.89c-11.75,2.91-21.18,13.7-29.46,22a331.35,331.35,0,0,0-75.46,117.9l44.68,6.05c1.39-40.55-26-100.75-75.16-91.44C182.48,59.34,164.79,77.54,155,95.34c-10.7,19.42-14.15,40.91-11,62.73,3.1,21.31,14.61,42,30.73,56.24l22.15-38c-37.36-9.28-80.38-6.9-109.85,20.56-26.45,24.63-36.4,68.29-13.76,98.69,12.41,16.65,29.5,27.43,47.62,37V293.26c-2.16,1.41-4.36,2.73-6.65,3.92-1.1.57-2.62,1.69-3.84,1.87.54-.08,4.75-1.8.7-.31-4.87,1.79-9.77,3.35-14.79,4.67-9.78,2.57-19.73,4.39-29.49,7-22.09,6-43.33,16.36-56.45,35.81C-1.92,364.4-4.31,391.56,8.7,410c14.75,20.87,39.66,25.12,63.63,24a426.81,426.81,0,0,0,82.53-12.14l-22.13-38c-18.83,15.41-37,31.78-52.63,50.51a253,253,0,0,0-23.12,32C50.68,476.9,43.88,489,41.32,501c-4.12,19.43,3.88,39.37,24.25,45.06,14.07,3.93,29-2.17,41.84-7.41a355.59,355.59,0,0,0,69.32-38c24.45-17,47.44-36.07,70.3-55.15L209,423.4a153,153,0,0,0-9.6,54.68c.08,9.28.35,19.74,3.66,28.46,4.57,12,13.29,20.9,25.71,24.8,19.54,6.13,40-3.38,52.17-18.8a146.48,146.48,0,0,0,25-49.44,153.92,153.92,0,0,0,5.45-58.76c-.65-6.19-2.11-11.52-6.66-16.08-3.9-3.92-10.42-6.92-16.09-6.67C277.41,382.1,264.6,391.67,265.92,404.34Z" transform="translate(0.02 0.02)"/></svg>