<?xml version="1.0" encoding="utf-8"?>
<!-- Generator: Adobe Illustrator 25.2.3, SVG Export Plug-In . SVG Version: 6.00 Build 0)  -->
<svg version="1.1" id="Ebene_1" xmlns="http://www.w3.org/2000/svg" xmlns:xlink="http://www.w3.org/1999/xlink" x="0px" y="0px"
	 viewBox="0 0 840.2 251.9" style="enable-background:new 0 0 840.2 251.9;" xml:space="preserve">
<style type="text/css">
	.st0{stroke:#FFFFFF;stroke-width:0.75;stroke-miterlimit:10;}
</style>
<path class="st0" d="M145,249.2l-4-6.9c64.2-37.1,86.2-119.2,49.1-183.5C178.3,38.4,161.4,21.4,141,9.7l4-6.9
	c68,39.3,91.3,126.3,52,194.4C184.5,218.7,166.6,236.7,145,249.2z"/>
<path class="st0" d="M75.9,249.2l-4-6.9C136.1,205.1,158.1,123,121,58.8C109.2,38.4,92.3,21.4,71.9,9.7l4-6.9
	c68,39.3,91.3,126.3,52,194.4C115.4,218.7,97.5,236.7,75.9,249.2z"/>
<path class="st0" d="M6.7,249.2l-4-6.9c41.5-24.1,67-68.3,67.1-116.3C69.8,78,44.2,33.7,2.7,9.7l4-6.9c43.9,25.5,71,72.4,71.1,123.2
	C77.8,176.7,50.7,223.7,6.7,249.2z"/>
<path class="st0" d="M214.1,249.2l-4-6.9c64.2-37.1,86.2-119.2,49.1-183.5c-11.8-20.4-28.7-37.3-49.1-49.1l4-6.9
	c68,39.3,91.3,126.3,52,194.4C253.7,218.7,235.7,236.7,214.1,249.2z"/>
<path class="st0" d="M283.2,249.2l-4-6.9c64.2-37.1,86.2-119.2,49.1-183.5c-11.8-20.4-28.7-37.3-49.1-49.1l4-6.9
	c68,39.3,91.3,126.3,52,194.4C322.8,218.7,304.8,236.7,283.2,249.2z"/>
<path class="st0" d="M352.4,249.2l-4-6.9c64.2-37.1,86.2-119.2,49.1-183.5c-11.8-20.4-28.7-37.3-49.1-49.1l4-6.9
	c68,39.3,91.3,126.3,52,194.4C391.9,218.7,374,236.7,352.4,249.2z"/>
<path class="st0" d="M421.5,249.2l-4-6.9c64.2-37.1,86.2-119.2,49.1-183.5c-11.8-20.4-28.7-37.3-49.1-49.1l4-6.9
	c68,39.3,91.3,126.3,52,194.4C461,218.7,443.1,236.7,421.5,249.2z"/>
<path class="st0" d="M490.6,249.2l-4-6.9c64.2-37.1,86.2-119.2,49.1-183.5C523.9,38.4,507,21.4,486.6,9.7l4-6.9
	c68,39.3,91.3,126.4,52,194.4C530.1,218.7,512.2,236.7,490.6,249.2z"/>
<path class="st0" d="M559.7,249.2l-4-6.9c64.2-37.1,86.2-119.2,49.1-183.5C593,38.4,576.1,21.4,555.7,9.7l4-6.9
	c68,39.3,91.3,126.4,52,194.4C599.2,218.7,581.3,236.7,559.7,249.2z"/>
<path class="st0" d="M628.8,249.2l-4-6.9C689.1,205.1,711,123,673.9,58.8c-11.8-20.4-28.7-37.3-49.1-49.1l4-6.9
	c68,39.3,91.3,126.4,52,194.4C668.4,218.7,650.4,236.7,628.8,249.2z"/>
<path class="st0" d="M698,249.2l-4-6.9c64.2-37.1,86.2-119.2,49.1-183.5C731.3,38.4,714.4,21.4,694,9.7l4-6.9
	c68,39.3,91.3,126.4,52,194.4C737.5,218.7,719.6,236.7,698,249.2z"/>
<path class="st0" d="M767.1,249.2l-4-6.9c64.2-37.1,86.2-119.2,49.1-183.4c-11.8-20.4-28.7-37.4-49.1-49.1l4-6.9
	c68,39.3,91.3,126.3,52,194.4C806.6,218.7,788.7,236.7,767.1,249.2z"/>
</svg>
