<svg id="Ebene_1" data-name="Ebene 1" xmlns="http://www.w3.org/2000/svg" viewBox="0 0 400 300"><defs><style>.cls-1,.cls-3{fill:#fff;}.cls-2,.cls-3{stroke:#000;stroke-miterlimit:10;}</style></defs><path class="cls-1" d="M68.15,274.08c1.5.06,2.69.16,3.89.16q124.53,0,249.08.09c4.15,0,4.8-1.4,4.79-5.11q-.17-82.82-.08-165.65V98.65H209.2c8.13-26.34,16.06-52,24.06-77.91L224.52,18c-.67,2-1.27,3.59-1.79,5.24Q212.58,56,202.42,88.81c-3.08,9.91-3.11,9.78-13.41,9.93-2.81,0-4-.87-4.88-3.49-7.14-21-14.44-42-21.7-63-2.64-7.64-5.29-15.29-8-23.23l-8.75,3.1,29.84,86.6H68.15Zm78.43,6.58H121.07v8.7h25.51Zm121.36,8.8v-8.77H242.55v8.77Z"/><path d="M68.15,274.08V98.7H175.48L145.64,12.1,154.39,9c2.75,7.94,5.4,15.59,8,23.23,7.26,21,14.56,42,21.7,63,.89,2.62,2.07,3.53,4.88,3.49,10.3-.15,10.33,0,13.41-9.93Q212.61,56,222.73,23.21c.52-1.65,1.12-3.28,1.79-5.24l8.74,2.77c-8,25.9-15.93,51.57-24.06,77.91H325.83v4.92q0,82.83.08,165.65c0,3.71-.64,5.12-4.79,5.11q-124.55-.18-249.08-.09C70.84,274.24,69.65,274.14,68.15,274.08ZM77.5,108v156.7H316V108Z"/><path d="M146.58,280.66v8.7H121.07v-8.7Z"/><path d="M267.94,289.46H242.55v-8.77h25.39Z"/><path class="cls-1" d="M77.5,108H316v156.7H77.5Zm192.36,9.56H88.17V255.69H269.86Zm21.68,38.5A13.61,13.61,0,1,0,278,142.32,13.64,13.64,0,0,0,291.54,156.05Zm-13.32,41.87c8.55,0,16.76,0,25-.08a2.75,2.75,0,0,0,2.07-1.72,72.92,72.92,0,0,0,.1-7.39H278.22Zm27,14.42h-27v9h27ZM278.31,236v9.23c8.42,0,16.5.07,24.58-.1a3.4,3.4,0,0,0,2.4-2.2,45.23,45.23,0,0,0,.11-6.93Z"/><path d="M269.86,117.55V255.69H88.17V117.55Zm-9.28,128.93V126.91H97.46V246.48Z"/><path d="M291.54,156.05a13.61,13.61,0,1,1,13.84-13.5A13.54,13.54,0,0,1,291.54,156.05Zm5.09-12.67c0-.64,0-1.27,0-1.9-1.69-1.15-3.44-3.26-5.06-3.17s-3.72,2.36-4.06,4a3.59,3.59,0,0,0,4.06,4.35C293.36,146.4,294.94,144.52,296.63,143.38Z"/><path d="M278.22,197.92v-9.19h27.14a72.92,72.92,0,0,1-.1,7.39,2.75,2.75,0,0,1-2.07,1.72C295,198,286.77,197.92,278.22,197.92Z"/><path d="M305.21,212.34v9h-27v-9Z"/><path d="M278.31,236H305.4a45.23,45.23,0,0,1-.11,6.93,3.4,3.4,0,0,1-2.4,2.2c-8.08.17-16.16.1-24.58.1Z"/><path class="cls-1" d="M260.58,246.48H97.46V126.91H260.58Z"/><path class="cls-1" d="M296.63,143.38c-1.69,1.14-3.27,3-5.08,3.27a3.59,3.59,0,0,1-4.06-4.35c.34-1.63,2.57-3.91,4.06-4s3.37,2,5.06,3.17C296.62,142.11,296.62,142.74,296.63,143.38Z"/><path class="cls-2" d="M189,233.09a31.59,31.59,0,0,0,7-9c1.67-3,3.11-6.22,4.8-9.25,2.3-4.13,4.75-8.19,7.13-12.28a36.41,36.41,0,0,0,4.57-10.46c.19-.89.3-1.8.45-2.7v-2.32c-.11-.65-.17-1.32-.34-2-.37-1.4-.75-2.79-1.2-4.15a3.55,3.55,0,0,0-3.27-2.43l-.55-.06s0,0-.14-.08a22,22,0,0,0-1-8,14.35,14.35,0,0,0-4.61-6.76c.49-.21.9-.37,1.29-.56a10.74,10.74,0,0,0,4-3.08,3.22,3.22,0,0,0,.54-3.32,7.64,7.64,0,0,0-2.41-3.46,1.79,1.79,0,0,0-2.85.2,11.37,11.37,0,0,1-7.3,3.42,36.59,36.59,0,0,1-4.68-.08c-2.13-.07-4.26-.17-6.39-.26h-.62a7.37,7.37,0,0,1,.15-1.3c0-.14.35-.28.53-.28a13.14,13.14,0,0,0,4.88-.65c2.12-.84,4.19-1.85,6.25-2.84a1.67,1.67,0,0,0,.87-1.53,10.69,10.69,0,0,0-.12-2.12,12.51,12.51,0,0,0-1.64-4.5,1.87,1.87,0,0,0-2.74-.82,17,17,0,0,1-6.32,1.72c-2.22,0-4.45-.17-6.62-.27.18-1.36.34-2.58.51-3.8a1.1,1.1,0,0,0-.81-1.32c-.77-.24-1.57-.39-2.36-.58-.21-.06-.43-.1-.64-.15h-1.95c-.47.11-1,.21-1.41.35a.94.94,0,0,0-.75,1,8,8,0,0,1-1.69,4.54,1,1,0,0,1-.48.34,12.62,12.62,0,0,0-5,3.24,1.6,1.6,0,0,1-.19.16,8.71,8.71,0,0,0-3.63-1.66,2.31,2.31,0,0,0-3,1.34,8.29,8.29,0,0,0-1.08,3.46,11.85,11.85,0,0,1-1.82,5.12,11.63,11.63,0,0,0-2,5.11,2.83,2.83,0,0,1-.72,1.79c-1,1.06-1.86,2.15-2.83,3.19a18,18,0,0,0-4.49,10.58c0,.28-.09.55-.14.83v2.81c.11.82.17,1.65.32,2.47.47,2.47,1,4.94,1.46,7.41.22,1.2.42,2.4.58,3.61a15.89,15.89,0,0,0,1.83,5.27,133,133,0,0,0,17.92,26.7,60.16,60.16,0,0,0,6.07,6.59,16.9,16.9,0,0,0,6.13,3.57c1.42.05,2.8.38,4.16.43a.86.86,0,0,1,.18-.12A12,12,0,0,0,189,233.09Z"/><path class="cls-2" d="M205.75,171.08a22.28,22.28,0,0,1,.55,9.54,1.09,1.09,0,0,1-.21.56c-1.77,2.06-3.91,3.39-6.74,3.06a8.47,8.47,0,0,1-5.41-3,10.93,10.93,0,0,1-2.88-7,7.65,7.65,0,0,0-4.88-7.09l-.77-.35a9.09,9.09,0,0,1,4.84-2.18,32.88,32.88,0,0,1,4.55-.26,26.7,26.7,0,0,0,5.64-.42,1,1,0,0,1,.7.21A13,13,0,0,1,205.75,171.08Z"/><path class="cls-2" d="M203.41,153.55a1.48,1.48,0,0,1,1.15.22,6.26,6.26,0,0,1,2.44,4,.73.73,0,0,1-1.07.72,1.46,1.46,0,0,1-.53-.39c-.63-.82-1.26-1.63-1.86-2.48a3.31,3.31,0,0,1-.41-.94C203,154.29,202.94,153.74,203.41,153.55Z"/><path class="cls-2" d="M184,157.32c2.15,0,4.31.05,6.44.29,3.92.43,7.63,0,11-2.27.27-.18.52-.37.79-.56h.06a11.15,11.15,0,0,0,2.68,4.08c.48.53.74.59,1.66.54a13.27,13.27,0,0,1-5.86,3.52,18.92,18.92,0,0,1-6,.58,16,16,0,0,0-7.4,1.14,8.44,8.44,0,0,0-4.54,4.46.83.83,0,0,1-.43.45,8.94,8.94,0,0,1-5.39.26,6.24,6.24,0,0,1-3.93-3.88,2.87,2.87,0,0,1,.44-3.41A26.08,26.08,0,0,1,176,160a2.84,2.84,0,0,0,1.14-2.24c0-.59,0-1.18,0-1.76a.64.64,0,0,1,.31-.49,12.07,12.07,0,0,1,5.1-.49,1.88,1.88,0,0,1-.87,2.19l-.92.59a3.51,3.51,0,0,0-.9.67c.7-.23,1.4-.48,2.11-.67A7.54,7.54,0,0,1,184,157.32Z"/><path class="cls-2" d="M192.71,142.87a1.18,1.18,0,0,1,.78.49,24.06,24.06,0,0,1,1.34,2.92,26.46,26.46,0,0,1,.66,2.83l-.1,0v.19c0,.94-.33,1.46-.93,1.61s-1.23-.14-1.63-1a14.64,14.64,0,0,1-1.41-5.7C191.38,143.28,191.91,142.76,192.71,142.87Z"/><path class="cls-2" d="M177.69,139.47a9,9,0,0,1-5.09-.34A9,9,0,0,1,177.69,139.47Z"/><path class="cls-2" d="M169.42,145a2.13,2.13,0,0,0,1-.88,10.41,10.41,0,0,0,1.64-3.91,2.06,2.06,0,0,1,.09-.26,12.7,12.7,0,0,0,6,.38,12.08,12.08,0,0,1-.68,3.46c0,.12-.22.22-.37.29l-2.37,1a10.3,10.3,0,0,0,1.79-.18,10.66,10.66,0,0,1,4.6-.06,17.82,17.82,0,0,0,9.28-1.08l.23-.07c.3,2.75.55,5.49,2.43,7.77a16.56,16.56,0,0,1-6.79,2.4c-1.7.1-3.41.07-5.12.14-2.21.1-4.4.33-6.21,1.79a12.15,12.15,0,0,0-3.87,5.94,1,1,0,0,1-.79.79,9.42,9.42,0,0,1-8.1-1.33,28.71,28.71,0,0,1-2.89-2.42.71.71,0,0,1-.17-.62,31.48,31.48,0,0,1,4.15-8.45A12.65,12.65,0,0,1,169.42,145Z"/><path class="cls-2" d="M163.34,148.48a3.65,3.65,0,0,1-1.17.41,5.77,5.77,0,0,1-3.22-1.12,3.75,3.75,0,0,1-.54-.69C159.29,146.41,161.87,147.11,163.34,148.48Z"/><path class="cls-2" d="M154.35,157.49c.48-1,1.15-1.89,1.55-2.9a26.88,26.88,0,0,0,1-3.43c.27-1.07.5-2.16.84-3.25a7.91,7.91,0,0,0,4.4,1.92,36.53,36.53,0,0,0-3.75,7.8c-.06.16-.3.38-.43.37-1.85-.18-3.13.79-4.27,2.05a4.35,4.35,0,0,0-.32.43l-.24-.14C153.52,159.38,153.89,158.41,154.35,157.49Z"/><path class="cls-2" d="M175.87,233.83a23.27,23.27,0,0,1-5.92-5,174.84,174.84,0,0,1-12.13-15.28,142.32,142.32,0,0,1-9.64-16.67,12.2,12.2,0,0,1-.46-1.19c0-.13-.07-.26-.11-.42,1.08-.17,2.12-.27,3.14-.49,5.78-1.28,9.94-4.5,12.19-10.08.89-2.2,2-4.32,3-6.48a.42.42,0,0,0,0-.37c-.28.5-.58,1-.83,1.51-.88,1.83-1.77,3.65-2.6,5.51-2.37,5.26-6.5,8.18-12.08,9.19a18.76,18.76,0,0,1-2.6.25.6.6,0,0,1-.46-.37c-.77-4.13-1.62-8.25-2.23-12.41a18.58,18.58,0,0,1,2.09-11.93,19,19,0,0,1,1.88-2.68c1.5-1.85,3-3.69,4.57-5.47a17.33,17.33,0,0,1,2.47-2.22,2.75,2.75,0,0,1,1.27-.33,1.39,1.39,0,0,1,1.27.55c2.62,2.77,5.71,4.58,9.68,4.31a20,20,0,0,0,2.73-.56.91.91,0,0,0,.71-.73,12.41,12.41,0,0,1,3.17-5.49c.36-.34.77-.63,1.3-1.07,0,.82,0,1.45,0,2.07a1.67,1.67,0,0,1-.78,1.3,10.33,10.33,0,0,0-3.67,4.39,1.25,1.25,0,0,0-.15.7c.58,2.77,1.79,5.11,4.64,6.17a8.73,8.73,0,0,0,4.7.27c.24,0,.47-.11.71-.15a2.31,2.31,0,0,0,2-1.59c.6-1.63.89-1.65,2.44-.91a6.75,6.75,0,0,1,4,6.12,11.49,11.49,0,0,0,5.95,9.83A7.82,7.82,0,0,0,205.6,183a3.92,3.92,0,0,0,1.69-3.2c0-.32.16-.4.46-.41a3,3,0,0,1,2.81,1.88,18,18,0,0,1-.64,15.57c-1.55,3.1-3.28,6.12-5.07,9.1q-4.41,7.38-8.2,15.1a40.11,40.11,0,0,1-6.66,9.95,15.67,15.67,0,0,1-4.25,3.34A9.66,9.66,0,0,1,175.87,233.83Z"/><path class="cls-2" d="M200.44,164a26.7,26.7,0,0,1-5.64.42,32.88,32.88,0,0,0-4.55.26,9.09,9.09,0,0,0-4.84,2.18l.77.35a7.65,7.65,0,0,1,4.88,7.09,10.93,10.93,0,0,0,2.88,7,8.47,8.47,0,0,0,5.41,3c2.83.33,5-1,6.74-3.06a1.09,1.09,0,0,0,.21-.56,22.28,22.28,0,0,0-.55-9.54,13,13,0,0,0-4.61-6.92A1,1,0,0,0,200.44,164Z"/><path class="cls-2" d="M203.54,155.67c.6.85,1.23,1.66,1.86,2.48a1.46,1.46,0,0,0,.53.39.73.73,0,0,0,1.07-.72,6.26,6.26,0,0,0-2.44-4,1.48,1.48,0,0,0-1.15-.22c-.47.19-.4.74-.28,1.18A3.31,3.31,0,0,0,203.54,155.67Z"/><path class="cls-2" d="M179.86,158.42a3.51,3.51,0,0,1,.9-.67l.92-.59a1.88,1.88,0,0,0,.87-2.19,12.07,12.07,0,0,0-5.1.49.64.64,0,0,0-.31.49c0,.58,0,1.17,0,1.76A2.84,2.84,0,0,1,176,160a26.08,26.08,0,0,0-2.58,2.57,2.87,2.87,0,0,0-.44,3.41,6.24,6.24,0,0,0,3.93,3.88,8.94,8.94,0,0,0,5.39-.26.83.83,0,0,0,.43-.45,8.44,8.44,0,0,1,4.54-4.46,16,16,0,0,1,7.4-1.14,18.92,18.92,0,0,0,6-.58,13.27,13.27,0,0,0,5.86-3.52c-.92,0-1.18,0-1.66-.54a11.15,11.15,0,0,1-2.68-4.08h-.06c-.27.19-.52.38-.79.56-3.33,2.31-7,2.7-11,2.27-2.13-.24-4.29-.26-6.44-.29a7.54,7.54,0,0,0-2,.43C181.26,157.94,180.56,158.19,179.86,158.42Z"/><path class="cls-2" d="M192.83,149.94c.4.85,1,1.14,1.63,1s.9-.67.93-1.61v-.19l.1,0a26.46,26.46,0,0,0-.66-2.83,24.06,24.06,0,0,0-1.34-2.92,1.18,1.18,0,0,0-.78-.49c-.8-.11-1.33.41-1.29,1.37A14.64,14.64,0,0,0,192.83,149.94Z"/><path class="cls-2" d="M177.69,139.47a9,9,0,0,0-5.09-.34A9,9,0,0,0,177.69,139.47Z"/><path class="cls-2" d="M159.12,158.17a.71.71,0,0,0,.17.62,28.71,28.71,0,0,0,2.89,2.42,9.42,9.42,0,0,0,8.1,1.33,1,1,0,0,0,.79-.79,12.15,12.15,0,0,1,3.87-5.94c1.81-1.46,4-1.69,6.21-1.79,1.71-.07,3.42,0,5.12-.14a16.56,16.56,0,0,0,6.79-2.4c-1.88-2.28-2.13-5-2.43-7.77l-.23.07a17.82,17.82,0,0,1-9.28,1.08,10.66,10.66,0,0,0-4.6.06,10.3,10.3,0,0,1-1.79.18l2.37-1c.15-.07.33-.17.37-.29a12.08,12.08,0,0,0,.68-3.46,12.7,12.7,0,0,1-6-.38,2.06,2.06,0,0,0-.09.26,10.41,10.41,0,0,1-1.64,3.91,2.13,2.13,0,0,1-1,.88,12.65,12.65,0,0,0-6.15,4.7A31.48,31.48,0,0,0,159.12,158.17Z"/><path class="cls-2" d="M159,147.77a5.77,5.77,0,0,0,3.22,1.12,3.65,3.65,0,0,0,1.17-.41c-1.47-1.37-4.05-2.07-4.93-1.4A3.75,3.75,0,0,0,159,147.77Z"/><path class="cls-2" d="M153.67,160.05c1.14-1.26,2.42-2.23,4.27-2.05.13,0,.37-.21.43-.37a36.53,36.53,0,0,1,3.75-7.8,7.91,7.91,0,0,1-4.4-1.92c-.34,1.09-.57,2.18-.84,3.25a26.88,26.88,0,0,1-1,3.43c-.4,1-1.07,1.91-1.55,2.9s-.83,1.89-1.24,2.85l.24.14A4.35,4.35,0,0,1,153.67,160.05Z"/><path class="cls-2" d="M190,230.94a40.11,40.11,0,0,0,6.66-9.95q3.79-7.73,8.2-15.1c1.79-3,3.52-6,5.07-9.1a18,18,0,0,0,.64-15.57,3,3,0,0,0-2.81-1.88c-.3,0-.48.09-.46.41a3.92,3.92,0,0,1-1.69,3.2,7.82,7.82,0,0,1-9.43,1.12,11.49,11.49,0,0,1-5.95-9.83,6.75,6.75,0,0,0-4-6.12c-1.55-.74-1.84-.72-2.44.91a2.31,2.31,0,0,1-2,1.59c-.24,0-.47.11-.71.15a8.73,8.73,0,0,1-4.7-.27c-2.85-1.06-4.06-3.4-4.64-6.17a1.25,1.25,0,0,1,.15-.7,10.33,10.33,0,0,1,3.67-4.39,1.67,1.67,0,0,0,.78-1.3c0-.62,0-1.25,0-2.07-.53.44-.94.73-1.3,1.07a12.41,12.41,0,0,0-3.17,5.49.91.91,0,0,1-.71.73,20,20,0,0,1-2.73.56c-4,.27-7.06-1.54-9.68-4.31a1.39,1.39,0,0,0-1.27-.55,2.75,2.75,0,0,0-1.27.33,17.33,17.33,0,0,0-2.47,2.22c-1.57,1.78-3.07,3.62-4.57,5.47a19,19,0,0,0-1.88,2.68,18.58,18.58,0,0,0-2.09,11.93c.61,4.16,1.46,8.28,2.23,12.41a.6.6,0,0,0,.46.37,18.76,18.76,0,0,0,2.6-.25c5.58-1,9.71-3.93,12.08-9.19.83-1.86,1.72-3.68,2.6-5.51.25-.52.55-1,.83-1.51a.42.42,0,0,1,0,.37c-1,2.16-2.08,4.28-3,6.48-2.25,5.58-6.41,8.8-12.19,10.08-1,.22-2.06.32-3.14.49,0,.16.07.29.11.42a12.2,12.2,0,0,0,.46,1.19,142.32,142.32,0,0,0,9.64,16.67A174.84,174.84,0,0,0,170,228.79a23.27,23.27,0,0,0,5.92,5,9.66,9.66,0,0,0,9.87.45A15.67,15.67,0,0,0,190,230.94Z"/><path class="cls-3" d="M176.26,155.87c0,.82,0,1.45,0,2.07a1.67,1.67,0,0,1-.78,1.3,10.33,10.33,0,0,0-3.67,4.39,1.25,1.25,0,0,0-.15.7c.58,2.77,1.79,5.11,4.64,6.17a8.73,8.73,0,0,0,4.7.27c.24,0,.47-.11.71-.15a2.31,2.31,0,0,0,2-1.59c.6-1.63.89-1.65,2.44-.91a6.75,6.75,0,0,1,4,6.12,11.49,11.49,0,0,0,5.95,9.83A7.82,7.82,0,0,0,205.6,183a3.92,3.92,0,0,0,1.69-3.2c0-.32.16-.4.46-.41a3,3,0,0,1,2.81,1.88,18,18,0,0,1-.64,15.57c-1.55,3.1-3.28,6.12-5.07,9.1q-4.41,7.38-8.2,15.1a40.11,40.11,0,0,1-6.66,9.95,15.67,15.67,0,0,1-4.25,3.34,9.66,9.66,0,0,1-9.87-.45,23.27,23.27,0,0,1-5.92-5,174.84,174.84,0,0,1-12.13-15.28,142.32,142.32,0,0,1-9.64-16.67,12.2,12.2,0,0,1-.46-1.19c0-.13-.07-.26-.11-.42,1.08-.17,2.12-.27,3.14-.49,5.78-1.28,9.94-4.5,12.19-10.08.89-2.2,2-4.32,3-6.48a.42.42,0,0,0,0-.37c-.28.5-.58,1-.83,1.51-.88,1.83-1.77,3.65-2.6,5.51-2.37,5.26-6.5,8.18-12.08,9.19a18.76,18.76,0,0,1-2.6.25.6.6,0,0,1-.46-.37c-.77-4.13-1.62-8.25-2.23-12.41a18.58,18.58,0,0,1,2.09-11.93,19,19,0,0,1,1.88-2.68c1.5-1.85,3-3.69,4.57-5.47a17.33,17.33,0,0,1,2.47-2.22,2.75,2.75,0,0,1,1.27-.33,1.39,1.39,0,0,1,1.27.55c2.62,2.77,5.71,4.58,9.68,4.31a20,20,0,0,0,2.73-.56.91.91,0,0,0,.71-.73,12.41,12.41,0,0,1,3.17-5.49C175.32,156.6,175.73,156.31,176.26,155.87Z"/><path class="cls-3" d="M172.11,140a12.7,12.7,0,0,0,6,.38,12.08,12.08,0,0,1-.68,3.46c0,.12-.22.22-.37.29l-2.37,1a10.3,10.3,0,0,0,1.79-.18,10.66,10.66,0,0,1,4.6-.06,17.82,17.82,0,0,0,9.28-1.08l.23-.07c.3,2.75.55,5.49,2.43,7.77a16.56,16.56,0,0,1-6.79,2.4c-1.7.1-3.41.07-5.12.14-2.21.1-4.4.33-6.21,1.79a12.15,12.15,0,0,0-3.87,5.94,1,1,0,0,1-.79.79,9.42,9.42,0,0,1-8.1-1.33,28.71,28.71,0,0,1-2.89-2.42.71.71,0,0,1-.17-.62,31.48,31.48,0,0,1,4.15-8.45,12.65,12.65,0,0,1,6.15-4.7,2.13,2.13,0,0,0,1-.88,10.41,10.41,0,0,0,1.64-3.91A2.06,2.06,0,0,1,172.11,140Z"/><path class="cls-3" d="M185.41,166.81a9.09,9.09,0,0,1,4.84-2.18,32.88,32.88,0,0,1,4.55-.26,26.7,26.7,0,0,0,5.64-.42,1,1,0,0,1,.7.21,13,13,0,0,1,4.61,6.92,22.28,22.28,0,0,1,.55,9.54,1.09,1.09,0,0,1-.21.56c-1.77,2.06-3.91,3.39-6.74,3.06a8.47,8.47,0,0,1-5.41-3,10.93,10.93,0,0,1-2.88-7,7.65,7.65,0,0,0-4.88-7.09Z"/><path class="cls-3" d="M206.56,159.4a13.27,13.27,0,0,1-5.86,3.52,18.92,18.92,0,0,1-6,.58,16,16,0,0,0-7.4,1.14,8.44,8.44,0,0,0-4.54,4.46.83.83,0,0,1-.43.45,8.94,8.94,0,0,1-5.39.26,6.24,6.24,0,0,1-3.93-3.88,2.87,2.87,0,0,1,.44-3.41A26.08,26.08,0,0,1,176,160a2.84,2.84,0,0,0,1.14-2.24c0-.59,0-1.18,0-1.76a.64.64,0,0,1,.31-.49,12.07,12.07,0,0,1,5.1-.49,1.88,1.88,0,0,1-.87,2.19l-.92.59a3.51,3.51,0,0,0-.9.67c.7-.23,1.4-.48,2.11-.67a7.54,7.54,0,0,1,2-.43c2.15,0,4.31.05,6.44.29,3.92.43,7.63,0,11-2.27.27-.18.52-.37.79-.56h.06a11.15,11.15,0,0,0,2.68,4.08C205.38,159.39,205.64,159.45,206.56,159.4Z"/><path class="cls-3" d="M162.12,149.83a36.53,36.53,0,0,0-3.75,7.8c-.06.16-.3.38-.43.37-1.85-.18-3.13.79-4.27,2.05a4.35,4.35,0,0,0-.32.43l-.24-.14c.41-1,.78-1.93,1.24-2.85s1.15-1.89,1.55-2.9a26.88,26.88,0,0,0,1-3.43c.27-1.07.5-2.16.84-3.25A7.91,7.91,0,0,0,162.12,149.83Z"/><path class="cls-3" d="M195.39,149.13v.19c0,.94-.33,1.46-.93,1.61s-1.23-.14-1.63-1a14.64,14.64,0,0,1-1.41-5.7c0-1,.49-1.48,1.29-1.37a1.18,1.18,0,0,1,.78.49,24.06,24.06,0,0,1,1.34,2.92,26.46,26.46,0,0,1,.66,2.83Z"/><path class="cls-3" d="M207,157.82a.73.73,0,0,1-1.07.72,1.46,1.46,0,0,1-.53-.39c-.63-.82-1.26-1.63-1.86-2.48a3.31,3.31,0,0,1-.41-.94c-.12-.44-.19-1,.28-1.18a1.48,1.48,0,0,1,1.15.22A6.26,6.26,0,0,1,207,157.82Z"/><path class="cls-3" d="M163.34,148.48a3.65,3.65,0,0,1-1.17.41,5.77,5.77,0,0,1-3.22-1.12,3.75,3.75,0,0,1-.54-.69C159.29,146.41,161.87,147.11,163.34,148.48Z"/><path class="cls-3" d="M177.69,139.47a9,9,0,0,1-5.09-.34A9,9,0,0,1,177.69,139.47Z"/></svg>