<svg id="Ebene_3" data-name="Ebene 3" xmlns="http://www.w3.org/2000/svg" viewBox="0 0 557.83 694.03"><defs><style>.cls-1{fill:none;stroke:#fff;stroke-linecap:round;stroke-linejoin:round;stroke-width:10px;}</style></defs><path class="cls-1" d="M552.46,362.82c1.88,40.41-3.3,90.74-18,153.19-43,183-191.06,181.28-252,157.75C236.49,656,122.49,783,29.49,519s98-361,253-287c0,0,118.21-49.61,198.3-7.88" transform="translate(0 0)"/><path class="cls-1" d="M480.79,224.13c-71.3,98.37-16,122.89,71.67,138.69" transform="translate(0 0)"/><path class="cls-1" d="M548.85,285.19" transform="translate(0 0)"/><path class="cls-1" d="M352.49,126s-49.31,11.78-65.22,72a152.49,152.49,0,0,0-4.78,34" transform="translate(0 0)"/><path class="cls-1" d="M130.49,5S280.05.92,287.27,198C287.27,198,140.49,213,130.49,5Z" transform="translate(0 0)"/><path class="cls-1" d="M196.49,81s8.58,51.93,91,117" transform="translate(0 0)"/></svg>