<svg id="Ebene_2" data-name="Ebene 2" xmlns="http://www.w3.org/2000/svg" viewBox="0 0 1605 1072.43"><defs><style>.cls-1{fill:none;stroke:#fff;stroke-linecap:round;stroke-linejoin:round;stroke-width:10px;}</style></defs><path class="cls-1" d="M87,902.9S453.75,674.77,479,654.29c53.75-43.67,53.75-79.51,194.86-112,134.59-31,249.73,37,324.76,94.07s211.65,20.16,249.73,22.4,172.46,33.6,134.38,86.23-147.82,59.35-187,60.47c-43.21,1.23-179.18-2.24-227.33,28M356.89,1077.6s311.32-241.89,430-213.89,182.54,28,226.13,39.2c24.55,6.31,117.88,50.68,173.1,0,47.59-43.67,235.73-97.43,313-159S1638,616.23,1677.44,563.59c4.7-6.28,17.41-57.14-69.24-23s-84.41,68.89-99,79-95.4,39.55-142.89,75.21M1664,529.49s48-54.38-12.52-48.78S1550.26,548,1516.86,610.65m57.54-86.8s-61.76-36.22-137.38,130m55.67-93.17S1434.39,546,1352.54,687M794.75,177.23s23.52,39.2,135.5,29.12,133.26-58.23,159-100.79-37-72.79-51.51-78.39c-166.92-64.2-243,150.06-243,150.06l.75-.41c159.06-86.67,311.69-98.14,311.69-98.14M921.86,207C808.19,353.05,937,593.82,937,593.82m389.2,82.2c307.45-473.25-25.25-563.74-110.36-535.75a268.78,268.78,0,0,1-83.69,13.58c-41,.05-67.49-9.55-67.49-9.55m72.41,9.51s-14.18-104.24-35.46-127.75l-11.2,7.84Zm-65.69,268.67h187l-79-79m.25,158.1L1258.21,423" transform="translate(-82 -10.17)"/></svg>