<?xml version="1.0" encoding="utf-8"?>
<!-- Generator: Adobe Illustrator 24.3.0, SVG Export Plug-In . SVG Version: 6.00 Build 0)  -->
<svg version="1.1" id="Ebene_3" xmlns="http://www.w3.org/2000/svg" xmlns:xlink="http://www.w3.org/1999/xlink" x="0px" y="0px"
	 viewBox="0 0 557.8 694" style="enable-background:new 0 0 557.8 694;" xml:space="preserve">
<style type="text/css">
	.st0{fill:none;stroke:#FFFFFF;stroke-width:10;stroke-linecap:round;stroke-linejoin:round;}
</style>
<path class="st0" d="M552.5,362.8c1.9,40.4-3.3,90.7-18,153.2c-43,183-191.1,181.3-252,157.8c-46-17.8-160,109.2-253-154.8
	s98-361,253-287c0,0,118.2-49.6,198.3-7.9"/>
<path class="st0" d="M480.8,224.1c-71.3,98.4-16,122.9,71.7,138.7"/>
<path class="st0" d="M548.9,285.2"/>
<path class="st0" d="M352.5,126c0,0-49.3,11.8-65.2,72c-2.9,11.1-4.5,22.5-4.8,34"/>
<path class="st0" d="M130.5,5c0,0,149.6-4.1,156.8,193C287.3,198,140.5,213,130.5,5z"/>
<path class="st0" d="M196.5,81c0,0,8.6,51.9,91,117"/>
</svg>
