<svg id="visual" viewBox="0 0 900 450" width="900" height="450" xmlns="http://www.w3.org/2000/svg" xmlns:xlink="http://www.w3.org/1999/xlink" version="1.1"><g transform="translate(476.72356948014374 233.62826710861452)"><path d="M84.5 -101.5C123.2 -88.2 177.6 -81.8 183.3 -60.5C188.9 -39.1 145.8 -2.9 123.6 32.3C101.4 67.6 100.1 101.7 83 127.7C65.8 153.6 32.9 171.3 6.1 162.9C-20.7 154.4 -41.3 119.9 -85.9 102.9C-130.5 85.9 -199 86.4 -224.5 60.5C-250 34.7 -232.5 -17.6 -213.2 -67C-194 -116.4 -173.1 -163 -137.3 -177.2C-101.5 -191.4 -50.7 -173.2 -13.9 -154C22.9 -134.9 45.8 -114.8 84.5 -101.5" fill="#FFFFFF"></path></g></svg>