<svg id="visual" viewBox="0 0 900 450" width="900" height="450" xmlns="http://www.w3.org/2000/svg" xmlns:xlink="http://www.w3.org/1999/xlink" version="1.1"><g transform="translate(432.33146593312534 266.3826824661114)"><path d="M132.7 -179.7C177.3 -150.3 222.4 -118.6 244.6 -73.9C266.8 -29.2 266.1 28.5 231.8 57.2C197.6 85.9 129.8 85.6 85.6 90.3C41.3 94.9 20.7 104.4 -13.7 123.3C-48 142.1 -96 170.1 -115.5 157.5C-135 144.8 -126 91.4 -146.4 44C-166.8 -3.5 -216.5 -45 -223.5 -87.8C-230.4 -130.5 -194.6 -174.5 -150.2 -203.9C-105.8 -233.3 -52.9 -248.1 -4.4 -242.1C44.1 -236 88.2 -209 132.7 -179.7" fill="#FFFFFF"></path></g></svg>