<svg id="visual" viewBox="0 0 900 450" width="900" height="450" xmlns="http://www.w3.org/2000/svg" xmlns:xlink="http://www.w3.org/1999/xlink" version="1.1"><g transform="translate(428.66692589808986 188.4574918700447)"><path d="M76 -94.9C105.3 -83.2 140.6 -70.2 171.1 -40.5C201.6 -10.7 227.3 35.7 225.5 83.2C223.8 130.6 194.5 179.1 152.4 204.4C110.2 229.7 55.1 231.8 9.7 218.5C-35.7 205.1 -71.3 176.2 -108.4 149.2C-145.5 122.3 -184 97.3 -182.9 67.3C-181.8 37.3 -141.1 2.4 -125.9 -39.9C-110.8 -82.1 -121.2 -131.7 -104.5 -147.4C-87.8 -163.1 -43.9 -145.1 -10.3 -130.9C23.3 -116.8 46.6 -106.5 76 -94.9" fill="#FFFFFF"></path></g></svg>