<svg id="visual" viewBox="0 0 900 450" width="900" height="450" xmlns="http://www.w3.org/2000/svg" xmlns:xlink="http://www.w3.org/1999/xlink" version="1.1"><g transform="translate(428.5467177269976 194.29675898774659)"><path d="M85.9 -93.5C130.5 -85.9 199 -86.4 228.3 -59.3C257.6 -32.2 247.7 22.5 219.1 59C190.4 95.5 143.1 113.7 103.5 134.1C63.9 154.6 31.9 177.3 -1.5 179.3C-34.9 181.3 -69.8 162.7 -94.8 137.5C-119.8 112.3 -135.1 80.6 -158.5 43.3C-182 6 -213.7 -36.9 -199.6 -60.1C-185.5 -83.4 -125.7 -87 -84.8 -95.9C-43.9 -104.7 -21.9 -118.9 -0.6 -118C20.7 -117.1 41.3 -101.2 85.9 -93.5" fill="#FFFFFF"></path></g></svg>