<svg id="visual" viewBox="0 0 900 450" width="900" height="450" xmlns="http://www.w3.org/2000/svg" xmlns:xlink="http://www.w3.org/1999/xlink" version="1.1"><g transform="translate(436.9101262334274 255.0731344887294)"><path d="M124 -170.2C159.8 -144.6 187.4 -107.2 209.9 -62.4C232.5 -17.6 250 34.7 232.8 71.9C215.5 109.2 163.6 131.4 119 145.3C74.5 159.1 37.2 164.6 8.3 153.2C-20.7 141.8 -41.3 113.6 -81.6 98.3C-121.9 83.1 -181.7 80.8 -203.2 56.2C-224.8 31.6 -208 -15.2 -194.5 -65.3C-181.1 -115.3 -171.1 -168.5 -139.2 -195.3C-107.4 -222.1 -53.7 -222.6 -4.8 -215.9C44.1 -209.3 88.2 -195.7 124 -170.2" fill="#FFFFFF"></path></g></svg>