<svg id="visual" viewBox="0 0 900 450" width="900" height="450" xmlns="http://www.w3.org/2000/svg" xmlns:xlink="http://www.w3.org/1999/xlink" version="1.1"><g transform="translate(416.8418634728388 234.80518446172192)"><path d="M130.8 -173.1C167.6 -153.3 194.1 -112.5 215.2 -65.7C236.3 -18.8 251.9 34 237.9 77.4C224 120.8 180.5 154.6 135.9 157.7C91.3 160.8 45.7 133.2 -2.8 137.1C-51.3 141 -102.7 176.5 -134.5 169.2C-166.4 162 -178.8 112.1 -176.7 69.1C-174.7 26.1 -158.2 -10 -146.8 -48.5C-135.4 -87.1 -129.1 -128.1 -105.5 -152.1C-81.9 -176.1 -40.9 -183 3 -187.2C47 -191.4 94 -192.8 130.8 -173.1" fill="#FFFFFF"></path></g></svg>