<svg id="visual" viewBox="0 0 900 450" width="900" height="450" xmlns="http://www.w3.org/2000/svg" xmlns:xlink="http://www.w3.org/1999/xlink" version="1.1"><g transform="translate(458.42182700333007 251.59041979933153)"><path d="M127.7 -191.5C155.4 -155.6 160.9 -104.8 173.5 -58.2C186.1 -11.6 205.7 30.8 200.6 71C195.5 111.1 165.7 149 128.1 158.6C90.5 168.3 45.3 149.6 -4.9 156.4C-55.1 163.2 -110.2 195.4 -153.2 187.5C-196.1 179.6 -226.9 131.7 -216.1 88.3C-205.3 45 -152.8 6.2 -128.3 -33.3C-103.9 -72.7 -107.5 -112.8 -90.8 -152.4C-74.1 -191.9 -37 -231 6.5 -239.9C50 -248.8 99.9 -227.5 127.7 -191.5" fill="#FFFFFF"></path></g></svg>