<svg id="visual" viewBox="0 0 900 450" width="900" height="450" xmlns="http://www.w3.org/2000/svg" xmlns:xlink="http://www.w3.org/1999/xlink" version="1.1"><g transform="translate(397.25300571172926 262.58093307717724)"><path d="M77.6 -111.3C106.6 -85.7 140.3 -71.1 172.8 -39.9C205.2 -8.7 236.3 39.1 223 70.1C209.7 101.1 151.9 115.3 107.3 118.6C62.7 122 31.3 114.5 2.6 110.8C-26.1 107.2 -52.1 107.4 -68.8 95C-85.6 82.6 -92.9 57.6 -98.6 33.6C-104.3 9.6 -108.3 -13.4 -114.1 -49.9C-119.9 -86.3 -127.5 -136.2 -108.8 -165.1C-90.1 -194 -45.1 -202 -10.4 -187.7C24.3 -173.4 48.6 -136.9 77.6 -111.3" fill="#FFFFFF"></path></g></svg>