<svg id="visual" viewBox="0 0 960 540" width="960" height="540" xmlns="http://www.w3.org/2000/svg" xmlns:xlink="http://www.w3.org/1999/xlink" version="1.1"><g transform="translate(464.8318866214788 272.3100961220754)"><path d="M106.2 -117.4C157 -83.8 231.2 -68.8 266.1 -24.2C301 20.4 296.6 94.6 256.5 133.1C216.4 171.7 140.5 174.7 79 181.8C17.4 188.9 -29.8 200.2 -87.3 197.6C-144.8 195 -212.7 178.5 -241.9 135.8C-271.1 93.2 -261.6 24.4 -228.4 -18.8C-195.2 -62 -138.3 -79.5 -96.3 -114.5C-54.2 -149.6 -27.1 -202.3 0.3 -202.6C27.6 -202.9 55.3 -150.9 106.2 -117.4" fill="#fff"></path></g></svg>