<svg id="visual" viewBox="0 0 900 450" width="900" height="450" xmlns="http://www.w3.org/2000/svg" xmlns:xlink="http://www.w3.org/1999/xlink" version="1.1"><g transform="translate(458.73541607685416 201.00328835641056)"><path d="M123.5 -141.3C167.4 -138 215.4 -111.8 222.5 -75.7C229.5 -39.6 195.6 6.5 172.1 48.8C148.5 91.1 135.4 129.7 108.5 154.9C81.5 180.2 40.8 192.1 -1.9 194.7C-44.5 197.2 -89 190.4 -124.9 168.1C-160.9 145.8 -188.4 108 -210.7 62.9C-233.1 17.8 -250.3 -34.6 -235.2 -75C-220.1 -115.4 -172.6 -143.9 -128 -146.9C-83.5 -150 -41.7 -127.8 -1 -126.4C39.8 -125.1 79.5 -144.6 123.5 -141.3" fill="#FFFFFF"></path></g></svg>