<svg id="Ebene_2" data-name="Ebene 2" xmlns="http://www.w3.org/2000/svg" viewBox="0 0 835.15 965.65"><defs><style>.cls-1{fill:none;stroke:#fff;stroke-linecap:round;stroke-linejoin:round;stroke-width:6px;}</style></defs><path class="cls-1" d="M992.5,241.5l-18,17,11,26-27-14-20,18,4-26-25-16,29-1,7-30,14,27,25-1m-8,2-33.62-17.85s-26.18-4.88-34.52,0c-4.86,2.85-16.49,24.56-40.86,21.85-9-1-11,15-11,15s-61,16-72,15,54,27,66,24c0,0,40,68,45,71s21,51,49,50,47-38,48-48c0,0,29-76,29-79s62,10,81-17c0,0-75-9.16-78-24-1-5-4-5-4-5s-27.49-12.49-40-25c-4-4-30,1-30,1m71.87,24.82s42.49-134.6,129.13-156.82c39-10,126-5,141-47,0,0-22,26-109,11s-204,132-203,167m-72.14,1.15S862.5,111.5,801.5,79.5s-166-2-193-24c0,0,10,39,109,32S871.63,248.23,871.63,248.23M673.5,371.5q-.5-11.28-1-22.56c-5-6.55-3-23.44,0-22.44s14,38,16,62-5,51-5,51c68,87,63,94,63,94,25-21,62-62,65-73s41-39,73-51S905,374.2,905,374.2M677.5,386.5s-5-26-15-26-13,7-11,32,10-20,10-23,6,25-1,31m9.76-70.93s-6.25-17.16-8.76-2.07a13.83,13.83,0,0,0,2,10s-1,18,.37,23m-12.21,9.77S640.5,368.5,641.5,381.5s4,19,10,11m-5,3.59s-4,25.41,3,39.41,37.47,127.79,62,141c13,7,18,30,46,8s40.42-10.49,88-66c0,0,3,36,11,55s3,66,11,72m392,90s11,23,21,33,9-2,4-8-29-60-29-60c2-3,26,3,36,3s-28-21-36-22-32-3-37-16c-21.81-56.7-51-77-61-92s-45-82-52-108-60-50-78-59A71.56,71.56,0,0,1,999,380.21M1252.5,748.5c0,2,18,22,24,27s7.56-4,7.56-4m-52.56-33s3-8,3-11,6.71-9,7.36,0-.36,23-5.36,23-13-8-19-19-19-25-19-34-39-43-50-48-39-59-46-71S1067,546,1061,512c0,0,5.5,50.5-5.5,85.5s-13,56-13,56m197.27,94.2s12.73,7.8,13.73-3.2-2.43-42.76-12.21-19.88M811,977c2.18,2.32,17,28,22,29,8,1.59,20-10.52,43.5-4.5,39,10,50-20,70-24s151,17,181-15,74-96,57-141,19.53-48.84-42.23-110.42S981.5,776.5,939.5,769.5s-68-67-113-64-68,55-96,75-12,115.81,35,158C795,965,795,960,811,977Zm48.5-75.5s46,35,81-28,24-85,102-128.61c0,0-93,48.61-118,44.61s-42.42-14.83-66.71-50.91M1108.51,828c-28-16.54-42-5.54-63.5,0-57.77,14.9-94,72-94,72M719.29,850.49s118.21,110,196.21,69M808.21,762.75S857.5,780.5,874.5,811.5s49,47,58,45m247.4-53.26s-40.88-79.69-84.14-86.71M950.15,768.89c-54.36-43.62-24.65-57.39,18.35-81.39,53.18-29.68,36-82,29-87s-28,1-28,7,15,4,19,8,13,46-40,70c-77,34.89-14.68,82.71-14.68,82.71m26.36-4.05s44.32-46.31-.18-70m23.11,58.68s29.39-39.36-14.61-65.36M962,695.29l1.86,64.59M941,703.44l-2.62,55.26M969.5,607.5c1-25-42-20.89-39,1S968.38,635.5,969.5,607.5ZM962,678.21l-2-53.34m-19,48.81c-26.5-6.81-49.51-43.18-38.51-47.18s16-10,25-18-41-18-41,14c0,51,54.51,66.66,54.51,66.66v-65.3M963,608c.66-16.57-27.84-13.85-25.86.66S962.25,626.53,963,608Zm-66,49.62c-23.49,10.09-42,54.47-42,54.47M887.5,631.5c-30,11-58,50-59,74m111.2-62.66c-8.8-2.66-30.08,8.7-30.08,8.7M933.05,616c-2.44-1.47-15.22,1.24-15.22,1.24M988,648.57c-9.52-5.93-27.32-6.14-27.32-6.14m86.08,69.63c-15.76-41.44-46.21-57.61-46.21-57.61m68.6,46.9s-8-45.29-63.33-74.57m-13.08-72.66c26.28,24.88,98.76-20,54-69.57M864,504c-16,74,57,64,66.35,38.42m6.84-146.33S934,406,944,408c15,3,0-16-5-19a19.24,19.24,0,0,1-7-7m47,7.09s-4-3.82-11,4.91c-8,10-6.45,19.76,2,13,5-4,4-9,7-9m301.21,378.62C1292.43,804.23,1302,801,1302,801c46.89,85.24,35,27,35,27,38,88,41,79,27,17-9.91-43.91-119-476-162-586s-87-62-84,19c2,55.32-61.18,143.48-61.18,143.48m48,272.75c9.8,1.23,10.2-15.23,10.2-15.23,22,19,17-19,17-19,21,29,20,18,15.81-10.87M1058,675c14,14,30,14,37.84,19.5M799.78,282.88S796,297,804,306s19,75,27.59,89.16,18.86,31.41,18.86,31.41M798.89,277.13C805,255,797.7,150.16,742,217c-35,42-40.17,115.54-55.59,156.27M659.32,463.5C646,504,517.18,912.44,547,865c22-35,25-38,25-38s2.73,34.78,21.36-2.11c0,0,17.36,13.28,59-86.3,0,0,7.64,18.41.64,32.41s30-25,34-49,0-1.73,0-1.73S681,771,696,722c0,0,3.75,41.24,63-68,0,0,4.06,19.21,17-27.22C782,605,788,681,796,680s17.13-30.57,18.57-1.79,22.95,0,22.95,0M1029,525l2.36-.34m-146.15,3.4,2.29.66" transform="translate(-539.53 -43.5)"/></svg>