<svg id="Ebene_2" data-name="Ebene 2" xmlns="http://www.w3.org/2000/svg" viewBox="0 0 1464.7 806.86"><defs><style>.cls-1{fill:none;stroke:#459757;stroke-linecap:round;stroke-linejoin:round;stroke-width:9px;}</style></defs><path class="cls-1" d="M910,522c-21,127-173.22,80-162-21C756,429,931,395,910,522ZM898.32,816.86c-11.22,101,130.53,145.81,162,21C1099.5,682.5,906.32,744.86,898.32,816.86Zm134-454c-11.22,101,159.89,149.7,162,21C1196.5,251.5,1040.32,290.86,1032.32,362.86Zm-502,412c-22.82,123.64,141,148,162,21S543.47,703.62,530.32,774.86ZM849.48,721.5c11.22-101-141-148-162-21S841.48,793.5,849.48,721.5ZM292.84,869.9C333.62,963,489,927.57,443.64,807.08S263.77,803.54,292.84,869.9ZM909,480.23C945.5,507.5,1068.64,457.49,1032.07,379s-180.18-91.91-169.38,57.8m-64.76,9.55C721.5,351.5,606.5,461.5,660.5,533.5s101.56,26.34,101.56,26.34M985.24,476.1c-70.74,66.4,23.26,195.4,91.26,135.4s63.88-89,23.94-154m-22.38-9.7c-7.45-3.7-32.56-9.29-53.63-1.48m-11.84,174.56c-41.09,33.63-17.9,108.65,0,120.64m43.22,21.55c61.69-6.56,161.25-85.62,28.47-158.59M906,795.52S883.81,765,825.66,760.74m-34.35,18.54S754.5,797.5,754.5,839.5c0,143,126,109,168,50.12m217.74-176.37c91.23,54.25,196.64-61.81,87.5-144.3-85.27-64.45-111.44,54.7-111.44,54.7m-4.68,117.86c-30.15,72-77.15,140,42.85,170s126.55-164.2,63.28-189.1M965.5,565.11c-18-13.61-49.84-18.09-64.42-12.35m-56,45.26s-21.43,46.91-12.52,60.7m14.56,29.62c20.64,36.84,115.35,24.16,142.52-7.15m244.6-107.07c35.76-46.39-11.77-130.62-60.14-131.75M1034,889.58c16.5,3.92,47.42-7.18,50.46-17.63M928.88,708.71c-6.38,14.79-3.1,52.75,16.76,50.77M879.39,775c10.89-2.52,21.11-49.48,18.3-64.05M757.84,818.52c1.34-4-29.34-32-65.52-22.66m-81.19,84.08c-13.36,122.44,150.37,85.56,177.39,49M725.1,634.75c6.61-15.75,7.4-44.25,0-60.64m-71.3-51.35c-93.69,1.25-125.3,55.74-88.66,136s129,16.58,129,16.58M437.89,794c19.4,36.45,73.61,29.54,90.26,12.28M556,634.75C408.5,606.5,394.44,740.1,407.5,760.5M426,904.94c29.51,44.56,84.89,86,189.2,17.8M862.87,404.62c-16.64-11.88-79.37-19.12-92.53,16.76m463.57,66.36S1306.5,340.5,1403.5,363.5c0,0,80,138,236-9m-50.15,0c-79.85,68-145.85,9-152.65,4.08s18.8-28.08-6.77-37.08c-84.93-29.89-239.67,91.66-239.67,91.66M1657.5,319.5c5-37-30-75-53-86s-88-5-95,40,20.74,72.42,110.59,81c77.53,7.4,132.41-82,123.41-131-4.7-25.57-21.21-45.12-35-53-7-4-46-13-16,20,27.79,30.57,35.84,104-37,129.8a142.2,142.2,0,0,1-19,5.2c-93,19-95-72-52-70s45,71,45,71m-225,37c9-1,29,2,31-8m15.07,52.65c-31.07,1.35-57.71,41.64-56.07,49.35m189,333c-4-103-90-259-163.5-316.65s-150.5-18.35-182.62,20.86m205.12-.21c12,50.68-114,164-107.2,246.91m94.2,3.09c15-82-15.7-106.67-37.85-139.33m256.52,157.89c-17.67-28.56-70.87-83.18-90.27-81.87-20.36,1.37-39.4,54.31-49.43,90.47M1662.54,598c-59-102.52-164-70.52-218.43-102.26m192.39,7.74s-72.21.38-73.11,19.69c-.86,18.7,33.11,87.31,60.13,100.46m-375.56,81v52.08m6.36,83.61s1.66,38.87,34.42,0,30-43.13,64.36,0,35.53,31.7,57.46,5.92,29.46-18,34.94-13.79c13,10,24.74-26.81,52-8,100,69,154.84,150.66,163,84,12-98,1-231,28.74-224.73,22.69,5.12,37.41,10.16,25.34-25s-2.12-29.92,4.4-35.07,26.92-17.92-18.78-58.54-42.6-41.13-24.65-56.87,37.45-21.15-17.8-60.45-79.43-47.07-79.43-47.07" transform="translate(-284.27 -161.8)"/></svg>