<svg id="Ebene_2" data-name="Ebene 2" xmlns="http://www.w3.org/2000/svg" viewBox="0 0 925.04 479.45"><defs><style>.cls-1{fill:none;stroke:#fff;stroke-linecap:round;stroke-linejoin:round;stroke-width:7px;}</style></defs><path class="cls-1" d="M1246.5,558.5c-16,3-81.69-18.5-81.69-18.5-11.68,6.5-66.31,6.5-66.31,6.5s-33.81,16.86-63,7c-77-26,2-45,7-48s19-8,35-8,22-6,39.91-12.45,70.09-6.55,84.09-4.55,40,6,53,4,35-3,49-3,35-2,64-18,51-19,60-19a90.4,90.4,0,0,0,36-7c14-6,26-15,54-12s52,0,70-7,45-14,71-15,32,3,56-7,71-22,118-15,87.5-9.72,87.5-9.72M1397.5,522.5c-16.61,11.72-55,47-58,57s-37,19-46,19-47,22-56,28-74,25-41,54,92,15,101,11,23.45-17.12,46-31c26-16,49-24,68-23m-149.86-25.17c.13-12.17,16.86-26.83,16.86-26.83-18,0-43-44-43-44M1218.32,693s1.81,26.85,0,29.68-10.82,29.84-5.82,50.84,5,49,5,52,17,39.29,45,2c3-4,3-48,3-52s12-40,13-56.48c0,0,13.5-18.55,14.75-26M1920,663.76s-55.91-2.54-84.5-8.26c-30-6-179.73-43.42-192-32-29,27-30,26-69,53-11.06,7.66-61.85,35-74,39-12,4-67,6-67,6,1,21-18.73,31.75-18.73,31.75,8.27,11.75-3.27,30.22-3.27,30.22,2,1,5,21,2,26-33.18,55.31-51,1-53-5-1.47-4.42-1.32-33.25-1.14-48.14a37.56,37.56,0,0,1,4-16.44c6.07-12,17.11-34.62,17.11-40.42,0-8-6-7-7-4-1.58,4.74-40,40-40,40-4,26-23,49-23,49s2,31-11.14,46.21c-22.36,25.89-39.39,0-39.39,0M1447.5,646.5c26,13,137-3,137-80" transform="translate(-998.46 -368.28)"/></svg>