<?xml version="1.0" encoding="utf-8"?>
<!-- Generator: Adobe Illustrator 24.3.0, SVG Export Plug-In . SVG Version: 6.00 Build 0)  -->
<svg version="1.1" id="Ebene_1" xmlns="http://www.w3.org/2000/svg" xmlns:xlink="http://www.w3.org/1999/xlink" x="0px" y="0px"
	 viewBox="0 0 1920 1080" style="enable-background:new 0 0 1920 1080;" xml:space="preserve">
<style type="text/css">
	.st0{fill:none;stroke:#FFFFFF;stroke-width:7;stroke-linecap:round;stroke-linejoin:round;stroke-miterlimit:10;}
</style>
<path class="st0" d="M819.8,426.2c0,0-41.6,31.7-79.2,35.6c-37.6,4-97,41.6-176.1,124.7S281.5,798.2,216.2,818
	C150.9,837.8,3.5,936.7,3.5,936.7 M776.6,334.5c0,0,80.8,231.7,237,255.7c156.3,24,234.9,100.4,257.1,115.2
	c29.6,19.8,90.1,73.7,106.7,99.1c37.5,57.4,168.1,61.6,105-73c-19.3-41.2-59.2-101-128.4-128.8c-69.2-27.8-158-194.2-158-194.2
	 M1236.6,476.4c0,0,111.5-36.4,133.3-68 M1349.8,426.2c53.2,59.4,142,16.2,142,16.2c46.8,55.8,165,49.1,165,49.1
	c9.9,23.7,66.9,101.9,104.9,124.7c9.9,5.9,53.4,136.5,158.3,85.1c0,0-49.5-81.1-49.5-87.1s-7.9-49.5-59.4-108.8
	s-40.3-95.2-146.4-144.5c-55.4-25.7-88.9-23.4-152.4-41.6c-13.9-4-37.6-63.3-102.9-71.2 M1321.8,746.4c-26.3,80.8,0.5,119,24.3,125
	c23.7,5.9,45.1-51.3,45.1-51.3 M1354.1,602.3c-2-29.7-5.9-45.5,0-71.2c6.2-26.7-42.4-32-86.5-10.1 M1704.3,869.4
	c-98.9,39.6-108.8-108.8-108.8-108.8c-45.5-35.6-50.7-103.9-50.7-103.9c-42.8-12.9-107.6-141.5-103.7-127.6
	c4,13.9,25.7,85.1,19.8,164.2 M1508.7,506.9c0.3,39.1,78.9,71.7,78.9,71.7c9.9,144.5,55.4,150.4,55.4,150.4s-7.9,27.7,31.7,102.9
	s91,43.5,93.6,40c2.6-3.5-8.5-67.7-8.5-79.6c0-26-47.5-197.9-50.3-225.1 M1532.9,324.8c0,0-58.1-70.8-62.1-86.6
	c-4-15.8-49.5-61.3-172.2-61.3s-237.5-53.4-294.8-71.2C946.4,87.8,879.1,68,837.6,72c-41.6,4-59.4-5.9-83.1-13.9
	s-67.3-9.9-124.7,17.8s-97.6,31.6-160.3,75.2c-45.5,31.7-150.4,15.8-199.9,43.5s-158.3,71.2-193.9,87.1s-76.2,13.8-76.2,13.8"/>
</svg>
