<?xml version="1.0" encoding="utf-8"?>
<!-- Generator: Adobe Illustrator 24.3.0, SVG Export Plug-In . SVG Version: 6.00 Build 0)  -->
<svg version="1.1" id="Ebene_1" xmlns="http://www.w3.org/2000/svg" xmlns:xlink="http://www.w3.org/1999/xlink" x="0px" y="0px"
	 viewBox="0 0 1920 1080" style="enable-background:new 0 0 1920 1080;" xml:space="preserve">
<style type="text/css">
	.st0{fill:none;stroke:#FFFFFF;stroke-width:7;stroke-linecap:round;stroke-linejoin:round;stroke-miterlimit:10;}
</style>
<path class="st0" d="M414.02,460.13c0,0-21,16-40,18s-49,21-89,63s-143,107-176,117s-107.5,60-107.5,60 M392.23,413.83
	c0,0,40.81,117.07,119.79,129.2s118.72,50.73,129.9,58.21c14.94,10,45.54,37.26,53.92,50.09c18.95,29.03,84.95,31.14,53.06-36.91
	c-9.75-20.81-29.92-51.05-64.89-65.11c-34.98-14.06-79.84-98.13-79.84-98.13 M624.67,485.52c0,0,56.35-18.38,67.35-34.38
	 M681.89,460.13c26.87,30,71.76,8.19,71.76,8.19c23.63,28.19,83.37,24.81,83.37,24.81c5,12,33.83,51.5,53,63c5,3,27,69,80,43
	c0,0-25-41-25-44s-4-25-30-55s-20.36-48.1-74-73c-28-13-44.91-11.83-77-21c-7-2-19-32-52-36 M667.74,621.98
	c-13.27,40.84,0.27,60.16,12.27,63.16s22.8-25.93,22.8-25.93 M684.02,549.13c-1-15-3-23,0-36c3.11-13.47-21.44-16.19-43.72-5.1
	 M861.02,684.13c-50,20-55-55-55-55c-23-18-25.61-52.5-25.61-52.5c-21.61-6.5-54.39-71.5-52.39-64.5s13,43,10,83 M762.15,500.91
	c0.13,19.78,39.87,36.22,39.87,36.22c5,73,28,76,28,76s-4,14,16,52s46,22,47.31,20.22s-4.31-34.22-4.31-40.22
	c0-13.15-24-100-25.42-113.76 M774.39,408.89c0,0-29.38-35.76-31.38-43.76s-25-31-87-31s-120-27-149-36s-63-19-84-17s-30-3-42-7
	s-34-5-63,9s-49.31,15.96-81,38c-23,16-76,8-101,22s-80,36-98,44s-38.5,6.95-38.5,6.95"/>
</svg>
