<?xml version="1.0" encoding="utf-8"?>
<!-- Generator: Adobe Illustrator 24.3.0, SVG Export Plug-In . SVG Version: 6.00 Build 0)  -->
<svg version="1.1" id="Ebene_2_1_" xmlns="http://www.w3.org/2000/svg" xmlns:xlink="http://www.w3.org/1999/xlink" x="0px" y="0px"
	 viewBox="0 0 1920 1080" style="enable-background:new 0 0 1920 1080;" xml:space="preserve">
<style type="text/css">
	.st0{fill:none;stroke:#FFFFFF;stroke-width:7;stroke-linecap:round;stroke-linejoin:round;}
</style>
<path class="st0" d="M511.4,436.5c-33.5,6.3-170.8-38.7-170.8-38.7c-24.4,13.6-138.7,13.6-138.7,13.6S131.2,446.6,70.1,426
	c-161-54.4,4.2-94.1,14.6-100.4c10.5-6.3,39.7-16.7,73.2-16.7s46-12.5,83.5-26s146.6-13.7,175.9-9.5c29.3,4.2,83.7,12.5,110.8,8.4
	c27.2-4.2,73.2-6.3,102.5-6.3s73.2-4.2,133.9-37.6S871.2,198,890,198c25.8,0.3,51.5-4.7,75.3-14.6c29.3-12.5,54.4-31.4,112.9-25.1
	c58.6,6.3,108.8,0,146.4-14.6c37.6-14.6,94.1-29.3,148.5-31.4s66.9,6.3,117.1-14.6c50.2-20.9,148.5-46,246.8-31.4
	c98.3,14.6,183-20.3,183-20.3 M827.2,361.2c-34.7,24.5-115,98.3-121.3,119.2c-6.3,20.9-77.4,39.7-96.2,39.7s-98.3,46-117.1,58.6
	c-18.8,12.5-154.8,52.3-85.7,112.9s192.4,31.4,211.2,23s49-35.8,96.2-64.8c54.4-33.5,102.5-50.2,142.2-48.1 M543.1,549
	c0.3-25.5,35.3-56.1,35.3-56.1c-37.6,0-89.9-92-89.9-92 M452.5,717.8c0,0,3.8,56.2,0,62.1c-3.8,5.9-22.6,62.4-12.2,106.3
	c10.5,43.9,10.5,102.5,10.5,108.8c0,6.3,35.6,82.2,94.1,4.2c6.3-8.4,6.3-100.4,6.3-108.8s25.1-83.7,27.2-118.1
	c0,0,28.2-38.8,30.8-54.4 M1920,656.6c0,0-116.9-5.3-176.7-17.3c-62.7-12.5-375.9-90.8-401.6-66.9c-60.7,56.5-62.7,54.4-144.3,110.8
	c-23.1,16-129.4,73.2-154.8,81.6c-25.1,8.4-140.1,12.5-140.1,12.5c2.1,43.9-39.2,66.4-39.2,66.4c17.3,24.6-6.8,63.2-6.8,63.2
	c4.2,2.1,10.5,43.9,4.2,54.4c-69.4,115.7-106.7,2.1-110.8-10.5c-3.1-9.2-2.8-69.5-2.4-100.7c0.1-11.9,3-23.7,8.4-34.4
	c12.7-25.1,35.8-72.4,35.8-84.5c0-16.7-12.5-14.6-14.6-8.4c-3.3,9.9-83.7,83.7-83.7,83.7c-8.4,54.4-48.1,102.5-48.1,102.5
	s4.2,64.8-23.3,96.6c-46.8,54.1-82.4,0-82.4,0 M931.8,620.5c54.4,27.2,286.5-6.3,286.5-167.3"/>
</svg>
