<?xml version="1.0" encoding="utf-8"?>
<!-- Generator: Adobe Illustrator 24.3.0, SVG Export Plug-In . SVG Version: 6.00 Build 0)  -->
<svg version="1.1" id="Ebene_2" xmlns="http://www.w3.org/2000/svg" xmlns:xlink="http://www.w3.org/1999/xlink" x="0px" y="0px"
	 viewBox="0 0 580 714" style="enable-background:new 0 0 580 714;" xml:space="preserve">
<style type="text/css">
	.st0{fill:none;stroke:#FFFFFF;stroke-width:7;stroke-linecap:round;stroke-linejoin:round;stroke-miterlimit:10;}
</style>
<path class="st0" d="M526.5,37.5c5.77-36.55-15,114-61,203c-96.87,187.43-291,215-381-61c0,0-9-10,36-6s221-86,273-87
	S523.5,56.5,526.5,37.5z M88.84,192.34c0,0-10.34,216.16,18.66,278.16 M94.65,419.37C78.8,424.24,43.5,470.5,49.5,484.5
	c212.23,495.21,484-40,484-40s3-7-32-42c-82.17-82.17-30.48-172.92-30.48-172.92 M17.5,162.5c0,0,33,41,31.32,55.97
	c-1.68,14.97,34.94,30.25,34.94,30.25 M486.28,192.34c0,0,81.08-109.06,36.65-135.45 M536.23,99.33c0,0,41.19-15.05,20.23-42.44
	S549.5,3.5,526.5,37.5c0,0,17.82-37.22-67.59-5.61S288.5,89.5,256.5,86.5s-270,60-239,76s67,17,67,17 M456.45,276.15
	c0,0,33.05,20.35,44.05-6.65s36.13-30.32,33.06-36.66c-3.06-6.34,24.44-51.29-22.31-79.31 M291.19,176.88
	c25.69,5.38,3.31,22.62,44.31,24.62s40.22-102.17,40.22-102.17 M267.58,153.53c0,0,0.3,41.42,23.61,34.7 M351.5,195.5
	c9,6,40.41-13.57,18-38 M320.28,199.49c0,0-1.22,15.61,0,17.81 M252.5,240.5c0,0,20,4,32,5s18.21,3.67,21.1,5.83
	c2.9,2.17,17.84,2.83,24.87,0c7.03-2.83,36.03-4.83,40.03-1.83 M259.1,253.22c0,0,2.78,30.29,38.59,30.29
	c35.81,0,51.72,8.72,66.77-15.14 M360.5,237.5c-9-15-22-5-27.04-3c-5.04,2-7.96,2-25.4-4.92s-44.56,4.92-44.56,4.92"/>
</svg>
