<svg id="Ebene_3" data-name="Ebene 3" xmlns="http://www.w3.org/2000/svg" viewBox="0 0 922.21 642.68"><defs><style>.cls-1{fill:none;stroke:#fff;stroke-linecap:round;stroke-linejoin:round;stroke-width:10px;}</style></defs><rect class="cls-1" x="163" y="578.04" width="631.06" height="59.64"/><polygon class="cls-1" points="759.54 578.04 759.54 524.69 234.37 524.69 201.94 524.69 201.94 578.04 759.54 578.04"/><rect class="cls-1" x="235" y="472.04" width="484.78" height="52.65"/><polygon class="cls-1" points="686 428.04 686 472.04 271.98 472.04 271.98 428.04 307.16 428.04 686 428.04"/><rect class="cls-1" x="308.57" y="387.52" width="345.12" height="40.52"/><path class="cls-1" d="M863,560h193.25V410.06c0-37.38-16-73.22-44.69-97.23-26.2-22-62.11-34.51-102.68-.38C879.53,337.14,863,373.85,863,412.21Z" transform="translate(-480 -191.96)"/><path class="cls-1" d="M821,579h277.2V389.25c0-47.3-23-92.67-64.1-123-37.59-27.79-89.09-43.67-147.29-.47C844.71,297,821,343.43,821,392Z" transform="translate(-480 -191.96)"/><path class="cls-1" d="M1133.68,612s-1.87-40.07,42.23-32.54c0,0-3.55-61.48,53.77-39.48,0,0,5.44-42.87,44.38-37.43,0,0,33.94-28.57,54.94,5.43,0,0,38-5,32,37,0,0,44,3,35,45" transform="translate(-480 -191.96)"/><path class="cls-1" d="M749,660.25s1.88-40.07-42.3-32.54c0,0,3.56-61.48-53.86-39.48,0,0-5.46-42.87-44.46-37.43,0,0-34-28.57-55,5.43,0,0-38.06-5-32.05,37,0,0-44.08,3-35.06,45" transform="translate(-480 -191.96)"/><path class="cls-1" d="M821,576s1.68-39.82-42.49-32.29c0,0,3.55-61.48-53.87-39.48,0,0-5.45-42.87-44.46-37.43,0,0-34-28.57-55,5.43,0,0-38.07-5-32.06,37,0,0-49.11,4.77-40.09,46.77" transform="translate(-480 -191.96)"/><path class="cls-1" d="M1175.13,660s9.79-49,51.72-29c0,0,25.86-40,56.15,3,0,0,43.66-11,37,31,0,0,48.55,3,38.62,45" transform="translate(-480 -191.96)"/><path class="cls-1" d="M811,207.41S856,297,763,289c0,0-9,77-73,42,0,0,4,66-56,51,0,0-32,31-53-7" transform="translate(-480 -191.96)"/><path class="cls-1" d="M1277.26,375.74s-105.12,44.08-95-48.83c0,0-89.93-9.79-48.46-73.43,0,0-77.18,3.32-59.12-56.52" transform="translate(-480 -191.96)"/></svg>