<?xml version="1.0" encoding="utf-8"?>
<!-- Generator: Adobe Illustrator 24.3.0, SVG Export Plug-In . SVG Version: 6.00 Build 0)  -->
<svg version="1.1" id="Ebene_2_1_" xmlns="http://www.w3.org/2000/svg" xmlns:xlink="http://www.w3.org/1999/xlink" x="0px" y="0px"
	 viewBox="0 0 807.4 581.1" style="enable-background:new 0 0 807.4 581.1;" xml:space="preserve">
<style type="text/css">
	.st0{fill:none;stroke:#FFFFFF;stroke-width:7;stroke-linecap:round;stroke-linejoin:round;}
</style>
<path class="st0" d="M375.2,344.1c13.9-0.9,25.6,4,28,9s-4.5,10.3-28,10.3C328.1,363.5,353,345.5,375.2,344.1z"/>
<path class="st0" d="M348.4,355.2c27.3,83.2,8.8,80.3,6,85.9c-2.8,5.6,58.2,16.6,43-4.2c-15.2-20.8,6.3-81.7,6.3-81.7"/>
<path class="st0" d="M203.6,430.8c0,0,88.6-30.2,104.4-107.6"/>
<path class="st0" d="M462.4,311.7c-3.5,6.7-4.5,15.7-11.5,19.7c-3-6-3-14-3-21c2-25,6-49,9-74c-0.1-1.6-1.4-2.9-3-3
	c-30,11-47,42-55.2,70.5"/>
<path class="st0" d="M441.3,237.9c0,0-60.6-6-82.8,23.1"/>
<path class="st0" d="M376,247.2c0,0-32.2-9.8-51.9,8.2"/>
<path class="st0" d="M338.1,247.4c0,0-43.3-52.9-51.6-52.9s-42.4,3.5-42.4,3.5c-52.1,56.1-75.3,9-75.3-22.9s-6.9-16.6-29.1-12.5
	c-46.3,8.7-84.5,61-130.2,170.4s187,185.7,177.4,148.3s19.4-48.5,19.4-48.5s-83.2-67.9-95.6-66.5c-12.4,1.4,20.8-11.1-4.1-25
	c-24.9-13.9,26.3-26.3,30.5-80.4"/>
<path class="st0" d="M181.2,395.4c90.1-23.6,68.8-198,68.8-198"/>
<path class="st0" d="M206.7,382.9c-66-36.1-89.7-14.7-89.7-14.7"/>
<path class="st0" d="M197.8,164c11.1-8.3,50.1,33.6,50.1,33.6l38.6-3.1c0,0,1.4-12.5-9.7-15.2s4.1-12.5,12.5-16.6
	s-9.7-9.7-13.9-11.1s-18,15.2-27.7,15.2c-9.7,0-15.2-22.2-15.2-37.4s9.7-34.6,36-38.8c26.3-4.2,11.1-12.5-26.3-23.6
	s-49.9,18-73.4,47.1s-2.3,41.2-2.3,41.2S186.7,172.3,197.8,164z"/>
<path class="st0" d="M274.3,151.5l8.4,2.7c0,0,14.8-8.1,8.7-10.9s-17.3-53.8-17.3-53.8"/>
<path class="st0" d="M282.9,182.7c3.3-3.5,0.7-15.5,0.7-15.5"/>
<path class="st0" d="M271.3,121.1c-1.4-4.1-12.5-2.8-12.5-2.8"/>
<line class="st0" x1="265" y1="129.8" x2="266.6" y2="131.1"/>
<path class="st0" d="M207.6,119.8c-8.1-6.4-12,20.3-3.1,30.6s5.3-9.6,5.3-9.6"/>
<path class="st0" d="M184.8,468.2c23,18.7,40.8,6.2,60.2,17.3c43.1,24.6,9.7-9.7,9.7-9.7c58.2,37.4,8.3-8.3,8.3-8.3
	c63.7,40.2,1.4-15.2,1.4-15.2l12.5,8.3c12.5,8.3,13.9-1.4,2.8-15.2c-11.1-13.8-76-11.2-76-11.2"/>
<path class="st0" d="M456.1,281.4l-5.9,5.4"/>
<path class="st0" d="M511.8,195.9c2-4,4.8-8.9,5.1-13.5c0.4-6.1-6.4-1.6-8.9,0.1c-6.5,4.5-12.3,10-18,15.5
	c2.5-5.1,4.8-10.4,6.7-15.7c0.3-0.9,2.3-5.5,1-6.2c-1.8-1-6.5,5.9-7.2,6.8c-8.7,10.9-16.4,22.7-24,34.4"/>
<path class="st0" d="M483,218.6c-11.4-1.7-23.6-3.7-35.2-2.3c-2.2,0.3-7,0.7-7.3,3.7c-0.4,4.2,8.3,8.8,11.1,10.5
	c6.7,4.1,14,7.1,21.2,10.3"/>
<path class="st0" d="M803.9,189.3c0,0-33.4-116.5-65.2-81.8S672.2,199,662.5,210s-37.4,59.8-47.8,59.7L594.1,302
	c0,0-28.7,25.8-32.8,38.2s-79,37.4-78.3,40.9s13.2,20.1,3.5,40.9s109.5-23.6,120.6-31.9s45.2-19.7,43-52.7"/>
<path class="st0" d="M548.8,198.9c0,0-5.5,27.7,13.9,20.8s139.8-35,67.1-32.8c0,0,67.3-43.5-3.4-10.2c0,0,76.2-49.9-8.3-5.5
	c0,0,49.5-45.7-18.2-4.9C599.9,166.3,634.7,101.9,548.8,198.9L548.8,198.9z"/>
<path class="st0" d="M454.7,297.4c4.8,23.7,25.4,20.6,38.8,25.2c21.6,22.9,49.4,12.2,73.1,5.6"/>
<path class="st0" d="M738.6,107.4c-11.1-5.7-21-13.5-32.1-19.1c-4.7-2.5-9.7-4.4-14.9-5.6c-3.9-0.9-12.1-2.7-15.8-0.7
	c-8.3,4.4,7.1,18.4,9.5,21.7c6.9,9.5,7.1,20.2,1.1,30.3c-2.3,3.9-21.1,27.4-25.4,23.1"/>
<path class="st0" d="M606.5,145.7c-8.6,2.6-14.1,11-23.8,5.4c-6.9-5.5-11.1-13.9-18-19.4c-1.5-0.2-3.1,0.3-4.2,1.4
	c-12.5,19.4-20.8,38.8-38.8,55.4c-12.5,12.5-22.2,27.7-36,40.2c-9.7,8.3-19.4,15.2-24.9,26.3c-4.2,13.9-8.3,29.1-4.6,42.4"/>
<path class="st0" d="M506.7,204.8c10.6,5.8,41.4-6.9,41.4-6.9"/>
<path class="st0" d="M560.9,220.3l-3.1,15.7c-58,55-38.8,51-58,55"/>
<path class="st0" d="M679,81.1c6.9-23.5-48.4-77.6-60.9-77.6S559.9,7.7,542.9,44s23.9,8,35,1.1s31.9,20.8,31.9,33.3
	s-4.2,36-27.7,31.9s-11.8,27-11.8,27"/>
<path class="st0" d="M676.3,92.9c0,0-1.4,20.1-18,3.5s-19.8-10.5-18.9-26s-18.8-38.5-17.3,0s18.2,39.9-2.6,57.9
	s-22.2,21.2-22.2,21.2"/>
<line class="st0" x1="639.2" y1="74.8" x2="633.3" y2="83.9"/>
<path class="st0" d="M552.5,59.8c0,0-1,20,6,27s-11.3,37.1,8.9,33.8"/>
<line class="st0" x1="569.6" y1="77" x2="588.2" y2="70.4"/>
<line class="st0" x1="577.9" y1="81.1" x2="576.5" y2="77"/>
<path class="st0" d="M483,384.8c0,0-68.6-14.1-86.6,8.1s-12.5,19.4,11.1,4.2c0,0-46.3,48.8,8.7,12c0,0-46.1,49,6.5,11.6
	c0,0-31.8,38.3,6.9,12.5c20.8-13.8,18.9-4.3,31.6-5.6c12.7-1.3,27.5-13,27.5-13"/>
<path class="st0" d="M442.3,465.1c-15.5-0.9-28.7,4.2-31.5,9.6c-2.8,5.4,5,11,31.5,11.1C495.1,485.9,467.1,466.6,442.3,465.1z
	 M410.3,477c0,0,24.2,65.3,7.1,87.6s51.3,10.4,48.2,4.5s-23.8-2.9,6.7-92"/>
<path class="st0" d="M450.9,331.4c0,0-127.8,25.5-145.9,3.2"/>
</svg>
