<svg id="Ebene_2" data-name="Ebene 2" xmlns="http://www.w3.org/2000/svg" viewBox="0 0 1904 731.57"><defs><style>.cls-1{fill:none;stroke:#000;stroke-linecap:round;stroke-linejoin:round;stroke-width:7px;}</style></defs><path class="cls-1" d="M380.78,651.77c13.85-.87,25.63,4,28.05,9s-4.49,10.31-28.05,10.34C333.67,671.17,358.61,653.15,380.78,651.77ZM354,662.87c27.27,83.16,8.77,80.35,6,85.9s58.2,16.62,43-4.16,6.34-81.74,6.34-81.74m217.17-30.14c21.43,0,27.72-4.82,25.52-9.4s-12.92-9-25.52-8.19C606.3,616.4,583.61,632.78,626.46,632.73Zm-24.35-7.49c24.8,75.63,8,73.08,5.45,78.12s52.93,15.12,39.07-3.78,5.76-74.34,5.76-74.34m557.53,18.17c19.25,0,24.9-4.33,22.92-8.45s-11.61-8.07-22.92-7.36C1191.8,628.73,1171.42,643.45,1209.92,643.41ZM209.2,738.4s88.55-30.25,104.43-107.63M358.46,677s-55.7.08-74.89,11.66m188.67-81.26s-33.65,103.87-9.7-63.75c1.38-9.69-40.19,9.7-58.2,67.9m42.57-66s-60.59-6-82.76,23.09m17.5-13.76s-32.23-9.8-51.89,8.21M343.7,555s-43.29-52.86-51.6-52.86-42.45,3.47-42.45,3.47c-52.14,56.12-75.34,9-75.34-22.87s-6.93-16.62-29.1-12.47c-46.32,8.69-84.52,61-130.25,170.44S202,826.37,192.33,789s19.4-48.5,19.4-48.5-83.15-67.9-95.62-66.51S136.9,662.85,112,649s26.32-26.33,30.48-80.37M186.78,703c90.07-23.56,68.77-198,68.77-198M212.27,690.51c-66-36.09-89.7-14.7-89.7-14.7m80.84-204.18c11.09-8.31,50.09,33.57,50.09,33.57l38.6-3.09s1.38-12.47-9.7-15.24,4.15-12.47,12.47-16.63-9.7-9.7-13.86-11.08S263,474.4,253.3,474.4,238.05,452.23,238.05,437s9.7-34.65,36-38.8,11.09-12.47-26.33-23.56-49.88,18-73.44,47.11S172,463,172,463,192.33,479.94,203.41,471.63Zm2.77,22.17,82.19-32s14.81-8.14,8.66-10.89-17.31-53.79-17.31-53.79m8.74,93.21c3.29-3.5.66-15.53.66-15.53m-12.27-46.09c-1.38-4.15-12.47-2.77-12.47-2.77m6.24,11.5,1.7,1.31m-59.08-11.34c-8.14-6.35-12,20.26-3.11,30.6s5.26-9.6,5.26-9.6m-25,327.4c23,18.69,40.76,6.25,60.16,17.34,43.12,24.64,9.69-9.7,9.69-9.7,58.2,37.41,8.32-8.32,8.32-8.32,63.74,40.19,1.38-15.24,1.38-15.24l12.48,8.32c12.47,8.31,13.85-1.39,2.77-15.25s-76-11.25-76-11.25m197-69h0s17.55-18.08,49.42-18.08,34.64-81.76,34.64-91.46l-34.43,31.31m34.43-31.31s33.26-33.25,44.34-34.64,20.79-11.08-11.08-9.7c0,0,38.79-40.18-8.32-11.08,0,0,26.12-45.73-19.5-2.08,0,0,29.2-60.45-23.45,19.31m16.34,1.29s-92.56-14.37-5.26,24.43M591.4,639.3m15.25,1.38c-116.4,0-131.64.38-131.64.38m171.82-1.76h419.92s10.81,34.64,40,0H1186m270.07,62.35,67.9,37.42m124.54,64.87L1704,834.77l31.82,17.67s199.71-64.87,166.45-314.3c0,0-87.29-59.58-91.45-72.05s-37.41,13.85-37.41,13.85,49.88,6.93,48.49,43S1827.08,841.11,1648.51,803.94ZM425.65,438.71c-6.4,54.37-62.88-17-62.88-17-29.1,2.78-65.74,82.89-65.74,82.89m81.59,0s-3.38,10-6.15,10-3.31,38-3.31,38m111.5,75.33c36.13-10,28-77.31,28-77.31M398.42,437.4l47.42.66s27.64-32.57,0-49.39-30.44,24.69-30.44,24.69-26.31-9.63-27.69-24.87-12.74-46.43-32-26,14.06,51,18.18,51.64-13.9-24.27-5.58-25.65S389.73,433.66,398.42,437.4Zm-32.27-29.19L366,425.68m52.15-59.36c-8.31-1.39-14.25,9.15-14.25,9.15m41.9,13.2s-13.79-16.81-12.4-23.74c2.77-19.4-42.88-52.95-65.78-9.15m58.85,11.92-13.86,11.09h4.54m28.65,24.73c-2.84-.2-11,8.52-11,8.52m6.35,26.67s14.52,68.5,12,84.87c-.32,2.09,15.95-56.13,14-67.9m34.1,29.12C493,473,506.88,449.46,508.7,441s-20.12-16.63-20.12-16.63c-3.06-5.72-16.34-7.39-16.34-7.39,0-3.42-14.12-8.74-14.12-8.74m51.35,152.44s36.21,30.15,70.85,19.06,39.16,34.64,57-11.08M507.62,444.52c9,38,111.5,93.62,111.5,93.62-11.09,48.5,4.15,29.1,4.15,29.1l33.26-1.38s45.73-27.72,2.77-19.4c0,0,87.2-13.57,2.77-18l-44.4,16.36m-273-113.32s-34.59-43-74.08-73.53-55.39,18.53-55.39,18.53m153.84-28.54s-28.48-14.88-34-10.72-9.67,38.7-51.41,5c-16.49-13.31-32.51,6.16-32.51,6.16m78.61-2.46c-26.09-35.64-16.86,7.94-29.78-3s-15.4,0-15.4,0m80.46,3s15.76-42-.87-22.55-15.24-19.4,1.39-15.24,13.81-23.68-13.19-7-24.23-17.95-14.53-34.58,49.19-32.83,15.59-40-80.71-15.46-83.49,35.81-26.8,85.77-26.8,85.77m126-39.62V318.7m2.9-22s14.35-2.41,3.89-8.17S361,243.9,361,243.9m4.61,24.48c-2.75-3.71-13.88-3.22-13.88-3.22m0,10.77,5.54.32-5.54-.32m201,127.59c-36-58.41-68.09-32.69-68.09-32.69s8.47-5.9,5.7-11.44-65.69-13.48-65.69-13.48M511,366.19s26.4-24.82,15.32-40.06-35.47-12.55-35.06,10.35-37-25.59-37-38.06,61-30.49,51.27-38.8-44.34-34.64-69.28-9.7c-30.49,30.48-28.92,73.22.09,97.58m1.21-39.13c-7.65-3.14-4.86,18.21,4.2,24.27s2-8.54,2-8.54m41-34c-2.78,0-9.7,6.93-9.7,6.93m9.7,4.16-4.85,3.39m14.55,10.47c33.25,6.92,1.38-27.72,1.38-27.72m16.63,41.57c-1.39,1.39-8.14,9.86-8.14,9.86m11.2-20.88c3-8.25-11.93-51.95-11.93-51.95M603.25,529S662.13,466.29,651,427.29c-2.77-9.7-6.93,11.08-20.79,18s-29.1-24.94-55.84-41.78-64.67,46.89-64.67,46.89m102.36,83.76c6.78-2.59,36.17-34.83,62.5-80.55S651,427.29,651,427.29m37,103.47s25.34-53.59-7.91-41.12c0,0,10.42-32.84-4.49-37.9m-4-28.54s.21-29.17-6.71-36.1-15.25,15.24-23.56,19.4-5.54-19.4-13.86-34.64-8.31-19.4,23.3-25.2-24.68-16.37-48.24-16.37-33.89,70.4-33.89,70.4m74,32.64s-23-31.77-22.52-38.31-8.11-35.56-10.77-18.28S597.07,413.17,588,414m18.73-26.15,6.85,11.73m51.27-12.47s8.31-5.54,2.68-10.36-12.22-31.12-12.22-31.12m-1.55,17.93c-2.77,0-6.63,4.15-6.63,4.15m5.26,3.63h1.37M642.6,614.72,535.08,641.06c.49-14.86-31.77-35.84-31.77-35.84M597,331.61a94.9,94.9,0,0,1-20.71-28.72c-8.17-17.71-51.21,45.05-51.21,45.05M683.58,466.21s29.35-80.43,13.66-142.37c-4.68-18.49-27.75-25.56-27.75-25.56s6.44,46.52-15.73,40m-8.31-2.41c-13.86-12.47-33.26-13.86-51.84-32.94s-16.09,2.51-16.09,2.51m92-7.12s-7.42-13.72-8.8-26.19-6.93-1.39-24.94,8.31c-20.78,11.19-19.4-2.77-27.72-13.85s0-31.87,20.79-36,19.4-12.47,4.15-22.17-59.58,0-64.37,45.79S582.18,295,582.18,295m31.38,22.87s-26.31-80.43-24.93-59.65m0,40,0-43.48M596,290.1l-7.39-9.91m34.67-30.27h9m11.78-1.39,6.93-2.77-8.52,2.77m11.29,17.4c2.77-8.94-11.29-42.2-11.29-42.2m10.19,62.61c-1.1-1-10.19,5.56-10.19,5.56m-15-32.28,6.93-1.39m0,15.81c29.1,6.11,8.31-18.58,8.31-18.58M1701.22,832c35.9-6.84,65.25-43,65.25-43M1851,536.76c5.55-16.63-5.62-40.15-5.62-40.15m-49.8-9.74c27.22,23.78-61,15.24-83.15,12.47s-84.52,67.9-115,105.32-110.1,30.8-110.1,30.8c-27,21.11,51.9,146.56,111.49,164.58s134.41-27.72,130.25-51.27,0-80.37,0-80.37M1651.7,543.33s-48.5,0-77-17.15-81.18-19.91-20.21,18.89c0,0-205.92-29.8-24.35,24.45a29,29,0,0,0,11.82,1c13.08-1.6,46.58-3.09,67.65,19.46m-147.7,114.57M1483,641.73s-45-31.53-93.47-32.92,4.16-5.54-69.55-41.25-17.75,2.45-17.75,2.45c-74.83-9.7-6.93,12.47-6.93,12.47-113.62,33.26,0,15.25,0,15.25-90.07,36,5.55,12.47,5.55,12.47S1332.75,631,1338.29,631s27.71,1.39,43,19.4,123.26,58.85,123.26,58.85m135.86-288.87c-2.77-31.87,22.17-6.93,23.56,1.38s24.94,15.25,30.48,12.48,5.54-12.48,30.49,8.31,19.4-9.7,19.4-26.33S1724.9,376,1705.5,376s-55.43-16.63-83.14-8.32-11.09,18,0,18,11.08,24.94,11.08,54-22.17,0-24.94,16.63,11.08,67.9,16.1,69.79,29.63-43.47,29.63-43.47C1665.31,463.32,1643.14,452.23,1640.37,420.36ZM1657,435.6s.94,4.16,8.78-10.39m51.74-46.36c-36.48-74.76-93.83-11.51-93.83-11.51m61.94,144.84c-.46-7.95-29.8-32.78-29.8-32.78m82.53-29.88s27.41,28.11,37.46,28.58m-164.08-95c-16.17,51.47,17.54,17.82-2.69,45s0,26.1,0,26.1m-237.92,187s-28.68,25.78-32.84,38.25-79,37.42-78.31,40.88,13.18,20.09,3.48,40.88,109.47-23.56,120.56-31.87,45.24-19.71,43-52.66m27.72,49.89-61-3.38c34.6,25.72,33.3,4.76,47.47-9.85s11.61-25,11.61-25M1560,593.57c-6.93,0-41.13,41.71-41.13,41.71m62.18-62.15c-1.13,10,4.54,42.45,4.54,42.45m-4.69-87.06s-33.37-116.48-65.24-81.83-66.52,91.45-76.22,102.54S1402,609,1391.63,608.89m-65.81-70.75s-5.54,27.72,13.86,20.79,139.81-35,67.13-32.75c0,0,67.28-43.47-3.39-10.21,0,0,76.21-49.88-8.32-5.54,0,0,49.5-45.73-18.2-4.85C1376.9,505.58,1411.73,441.14,1325.82,538.14ZM1188,636.67c22.28,68,7.16,65.66,4.89,70.19s47.56,13.59,35.1-3.39,5.18-66.8,5.18-66.8c.24,39,30.25,22,46.26,33.74s64.06,0,64.06,0m172.13-223.72c-11.09-5.74-21-13.46-32.14-19.14a64,64,0,0,0-14.87-5.65c-3.93-.9-12.05-2.7-15.83-.69-8.27,4.4,7.07,18.35,9.52,21.74,6.86,9.48,7.05,20.16,1.13,30.27-2.31,3.93-21.11,27.42-25.39,23.09m-54.5-11.39c-8.57,2.64-14.11,11-23.81,5.42-6.93-5.55-11.09-13.86-18-19.4a5.09,5.09,0,0,0-4.15,1.38c-12.47,19.4-20.79,38.8-38.8,55.43-12.47,12.47-22.17,27.71-36,40.18-9.7,8.32-19.4,15.25-24.94,26.33-4.16,13.86-8.32,29.1-4.62,42.41M1283.73,544c10.58,5.85,41.36-6.91,41.36-6.91m12.78,22.41-3.09,15.71M1456,420.38c6.88-23.54-48.45-77.62-60.92-77.62s-58.2,4.16-75.18,40.48,23.91,8,35,1.09,31.87,20.79,31.87,33.26-4.16,36-27.72,31.87-11.79,27-11.79,27m106.06-44.28s-1.42,20.1-18,3.47-19.85-10.47-18.93-26-18.81-38.49-17.26,0,18.17,39.88-2.61,57.89-22.2,21.2-22.2,21.2M1416.22,414l-5.87,9.13M1329.54,399s-1,20,6,26.95-11.33,37.15,8.89,33.82m2.19-43.52,18.58-6.62m-10.29,10.72-1.36-4.1m70.33,9.51M1260,724s-68.56-14.07-86.58,8.1-12.47,19.4,11.09,4.16c0,0-46.29,48.85,8.72,12,0,0-46.14,49,6.52,11.6,0,0-31.81,38.3,6.93,12.47,20.78-13.85,18.92-4.26,31.63-5.59s27.5-13,27.5-13m150.44-401s35.71-33,60.65-10.43,35.26,26.24,52.27,23c0,0,28.09,39.75,50.26,5.1s-1.39-45.72,12.47-62.35,20.79-67.9-23.56-67.9-72,9.7-83.14,30.48-37,39.3-37,64.69m79.88,30.17c-8.34-.76-13.83-11.71-20.76-61.6s-12.47,13.86-12.47,13.86l-22.09,21.38m27.66-15.71-5.48-6.58m88.6-11.16s2.77-15.65,0-30.89-20.79-6.93-40.19,4.16-13.86,13.86-13.78,41.18,17.94,15.63,23.2,5,23.84,2.3,23.84,2.3M1550.3,297h11.36m-5.68,6v-6m20.92,0H1583m-7.71,40s-7-4-13.67,2.44M1608.5,394,1596,405.12c2.77-58.2-8.32-5.55-8.32-5.55,2.77-54-11.08-1.38-11.08-1.38,5.54-45.73-11.09-12.47-13.86,1.38s-15.24,27.72-33.26,5.55-5.54,36-5.54,36m28.77,19.94c19.07.54,56.4-48.22,56.4-48.22M1106.77,639.3s61.08-80.37,12.58-48.5-61,18-44.34-24.94-8.32-8.32-11.09-4.16-5.54,26.33-5.54,26.33m48.5-109.47,9.7-45.73s-45.73,27.71-51.62,72.75-17.66,43.65-23.21,93.53,25,40.19,25,40.19m57.06-51.3S1136,576.94,1136,547.84s18-29.1,26.33-69.28-11.09-8.32-11.09-8.32-2.77,34.65-6.93-19.4-8.31,0-8.31,0c-2.77-52.65-8.31,1.39-8.31,1.39-5.55-45.73-6.93,2.77-6.93,2.77s1.38,9.7-1.39-9.7-6.93,13.86-6.93,19.4,4.16,15.24,5.55,29.1S1080.24,550,1080.24,550m4.47-46.47s3.14,27.85,9.88,29.86M1136,547.84c91.45-4.16,92.84-98.38,92.84-98.38m64.65,83.93c-.47-17.22-17.54-21.58-17.54-21.58m-9.16,23.1s-.41-77.14-5.32-23.1c0,0-8.46-49-8.77-3.73,0,0-8.46-53.61-7.85,0,0,0-8.79-59.15-9.85,0-.62,34.22-17,29.52-10.89,45.73S1241.67,588,1241.67,588M1182.4,484.6,1203.14,460s-29.76,20.35-38.76,9.77m98.39,98.19c-5.83-15.15-3.6-24.85-.51-30.45,1.31-2.39,4-2.88,6.7-2.44,1.18.19,3.29-4.09,7-23.23,6.93-36-47.11-63.58-47.11-63.58s-2.77-5.7,1.39-32-4.16-40.18-13.86-49.88-30.49-11.09-48.5-6.93-16.63,34.64-16.63,40.18-4.16,51.27-4.16,51.27m12.51,38.56s52.62,34.89,55.39-31.63l13.86-9.54M1203.14,460h0l11.82-2.2m0-26.93s21.09-33.68,7.77-24.86c-9.15,6.06-9.15,7.45-9.15,7.45m-38.8,33.26c-1.39-1.39-12.47-1.39-12.47-1.39m0-49.88,1.38,8.31s-18,33.26,11.09,24.94m-23.19,4.16c3.13,1.39,13.46-2.2,13.46-2.2m12.5-28.29h14m-7.74,6.11v-6.11M1175.24,430c12.94,23.5,24.48,2.82,26.25,0s-3.15-19.35,2.39-26.28,2.77-13.86,2.77-19.4-12.47-12.47-19.4-8.31-9.7,9.7-15.24,1.38-20.79,5.55-20.79,5.55m184.88,57.3s-40.44-40-56.89-27.54-31.68,38.87-3.28,52.7a129,129,0,0,1,44.27,35.78m-89.71-86.93c1.67,7.76,30.31,24.11,30.31,24.11m16.48-24.11s-37-36.21-50.34-33.07m64.77,29.64c30-37.58,10.55-57,52.12-72.23,0,0-19.4-45.72-65.13-33.25s-32.65,53.3-61.36,62m136-15.56-9.49-13.18m-41.57-4.15c-9.7,9.7-48.17,59.74-48.17,59.74m31.17-90.27s-6.56-34.6-46.74-51.23-20.79-33.26-73.44-23.56-51.27,58.2-22.17,41.57,26.33,43,44.34,48.5,18,13.86,48.5-5.54,38.41-6.92,38.41-6.92M1198.42,357s-2.16-42.88-19.14.54m-54.6-87c2.56,35.9,11.3,18.14,11.3,25.07,0,18-11.09,23.55,2.77,24.94s15.24,11.08,19.57,17.52,33.18,0,33.18,0m-56.2-44.26,10.38-9.32m-4,3.56,4,5.76M1162.31,322c-8.32,0-8.56,7.92-8.56,7.92M964.17,533.36s11.07,69.91,33.24,38-1.39-56.81,9.7-76.21,17.6-23.56,17.12-37.42,2.28-51.27-7.42-6.93c0,0,3.66-67.58-7.87-2.61,0,0,2.44-77.76-8-2.93,0,0,8.22-79-8.74,1.39,0,0-10,26.32-17,18s-18.51-21.24-9.25,17.09S971.11,505,964.17,533.36Zm158.14-173.24c29.28-3.42-14-45.07-16.82-49.23s-22.17-26.33-38.8-29.1-24.94,12.47-37.41,18-11.08,24.95-14.52,34.65,10.36,23.55,9.49,46.55,21.66,18.57,35.28,16.63,21-25.77,22.93-40.62,10.56-26.72,16-14.25-3.89,17.36-3.89,17.36S1093,363.55,1122.31,360.12Zm-57.13,35.3s18.67,48.5,34.34,50.57m-90.75-28.31c5.82-1.3,19.23-23.49,19.23-23.49m47.29,23.49s48.22-15.39,41.29-56.93m39,9.69-24.22-14.7m-90.23,239.15c-18.69-9.76-6.26-55.36-33.77-55.69M1022.94,322s-2,41.58,9.11,40.19,17.9-1.32,22.12,0,16.07-9.73,19.15-17.35-10.78-42.26-16.33-33.95-18,11.08-20.78,6.93S1022.94,322,1022.94,322Zm9.11,20.79s3.4,24,10,14.79M1045,336l12-4.29m-2.77,6.93-3.23-4.78m-7.17,40.93c-9-4.05-7.61-1.5-7.61-1.5m403.46,399.48c26.42,0,34.18-5.68,31.46-11.08s-15.93-10.58-31.46-9.65C1414.81,753.48,1386.85,772.79,1439.67,772.73Zm-30-8.83c30.57,89.11,9.83,86.11,6.72,92.05s65.25,17.81,48.16-4.46,7.11-87.59,7.11-87.59M468.07,728.45c-15.93-1-29.48,4.55-32.28,10.36s5.18,11.87,32.28,11.9C522.29,750.78,493.59,730.05,468.07,728.45Zm-32.8,12.78s24.83,70.14,7.29,94.06,52.62,11.16,49.43,4.78-24.48-3.15,6.9-98.84m795,75.81c-15.53-.93-28.73,4.24-31.46,9.64s5,11.05,31.46,11.08C1346.69,837.83,1318.72,818.52,1293.87,817Zm-32,11.89s24.2,65.32,7.11,87.6,51.27,10.39,48.16,4.45-23.85-2.93,6.72-92.05" transform="translate(-5.5 -201.44)"/></svg>