<?xml version="1.0" encoding="utf-8"?>
<!-- Generator: Adobe Illustrator 24.3.0, SVG Export Plug-In . SVG Version: 6.00 Build 0)  -->
<svg version="1.1" id="Ebene_2_1_" xmlns="http://www.w3.org/2000/svg" xmlns:xlink="http://www.w3.org/1999/xlink" x="0px" y="0px"
	 viewBox="0 0 1904 731.6" style="enable-background:new 0 0 1904 731.6;" xml:space="preserve">
<style type="text/css">
	.st0{fill:none;stroke:#FFFFFF;stroke-width:7;stroke-linecap:round;stroke-linejoin:round;}
</style>
<path class="st0" d="M375.3,450.3c13.9-0.9,25.6,4,28,9s-4.5,10.3-28,10.3C328.2,469.7,353.1,451.7,375.3,450.3z"/>
<path class="st0" d="M348.5,461.4c27.3,83.2,8.8,80.3,6,85.9s58.2,16.6,43-4.2s6.3-81.7,6.3-81.7"/>
<path class="st0" d="M621,431.3c21.4,0,27.7-4.8,25.5-9.4s-12.9-9-25.5-8.2C600.8,415,578.1,431.3,621,431.3L621,431.3z"/>
<path class="st0" d="M596.7,423.8c24.8,75.6,8,73.1,5.5,78.1s52.9,15.1,39.1-3.8s5.8-74.3,5.8-74.3"/>
<path class="st0" d="M1204.5,442c19.2,0,24.9-4.3,22.9-8.5s-11.6-8.1-22.9-7.4C1186.3,427.3,1165.9,442,1204.5,442L1204.5,442z"/>
<path class="st0" d="M203.7,537c0,0,88.6-30.2,104.4-107.6"/>
<path class="st0" d="M353,475.6c0,0-55.7,0.1-74.9,11.7"/>
<path class="st0" d="M466.7,406c0,0-33.6,103.9-9.7-63.8c1.4-9.7-40.2,9.7-58.2,67.9"/>
<path class="st0" d="M441.4,344.1c0,0-60.6-6-82.8,23.1"/>
<path class="st0" d="M376.1,353.4c0,0-32.2-9.8-51.9,8.2"/>
<path class="st0" d="M338.2,353.6c0,0-43.3-52.9-51.6-52.9s-42.4,3.5-42.4,3.5c-52.1,56.1-75.3,9-75.3-22.9s-6.9-16.6-29.1-12.5
	c-46.3,8.7-84.5,61-130.2,170.4s187,185.7,177.4,148.3s19.4-48.5,19.4-48.5s-83.2-67.9-95.6-66.5s20.8-11.1-4.1-25
	s26.3-26.3,30.5-80.4"/>
<path class="st0" d="M181.3,501.6c90.1-23.6,68.8-198,68.8-198"/>
<path class="st0" d="M206.8,489.1c-66-36.1-89.7-14.7-89.7-14.7"/>
<path class="st0" d="M197.9,270.2c11.1-8.3,50.1,33.6,50.1,33.6l38.6-3.1c0,0,1.4-12.5-9.7-15.2s4.1-12.5,12.5-16.6
	s-9.7-9.7-13.9-11.1s-18,15.2-27.7,15.2s-15.2-22.2-15.2-37.4s9.7-34.6,36-38.8s11.1-12.5-26.3-23.6s-49.9,18-73.4,47.1
	s-2.3,41.2-2.3,41.2S186.8,278.5,197.9,270.2z"/>
<path class="st0" d="M274.4,257.7l8.4,2.7c0,0,14.8-8.1,8.7-10.9s-17.3-53.8-17.3-53.8"/>
<path class="st0" d="M283,288.9c3.3-3.5,0.7-15.5,0.7-15.5"/>
<path class="st0" d="M271.4,227.3c-1.4-4.1-12.5-2.8-12.5-2.8"/>
<line class="st0" x1="265.1" y1="236" x2="266.8" y2="237.3"/>
<path class="st0" d="M207.7,226c-8.1-6.4-12,20.3-3.1,30.6s5.3-9.6,5.3-9.6"/>
<path class="st0" d="M184.9,574.4c23,18.7,40.8,6.2,60.2,17.3c43.1,24.6,9.7-9.7,9.7-9.7c58.2,37.4,8.3-8.3,8.3-8.3
	c63.7,40.2,1.4-15.2,1.4-15.2l12.5,8.3c12.5,8.3,13.9-1.4,2.8-15.2s-76-11.2-76-11.2"/>
<path class="st0" d="M400.7,471.3L400.7,471.3c0,0,17.5-18.1,49.4-18.1s34.6-81.8,34.6-91.5L450.3,393"/>
<path class="st0" d="M484.8,361.7c0,0,33.3-33.2,44.3-34.6s20.8-11.1-11.1-9.7c0,0,38.8-40.2-8.3-11.1c0,0,26.1-45.7-19.5-2.1
	c0,0,29.2-60.5-23.5,19.3"/>
<path class="st0" d="M483.1,324.8c0,0-92.6-14.4-5.3,24.4"/>
<path class="st0" d="M601.2,439.2c-116.4,0-131.6,0.4-131.6,0.4"/>
<path class="st0" d="M641.3,437.9h419.9c0,0,10.8,34.6,40,0h79.2"/>
<line class="st0" x1="1450.6" y1="500.2" x2="1518.5" y2="537.6"/>
<path class="st0" d="M1643,602.5l55.5,30.8l31.8,17.7c0,0,199.7-64.9,166.4-314.3c0,0-87.3-59.6-91.4-72s-37.4,13.9-37.4,13.9
	s49.9,6.9,48.5,43S1821.6,639.7,1643,602.5L1643,602.5z"/>
<path class="st0" d="M420.1,237.3c-6.4,54.4-62.9-17-62.9-17c-29.1,2.8-65.7,82.9-65.7,82.9"/>
<path class="st0" d="M373.1,303.2c0,0-3.4,10-6.1,10s-3.3,38-3.3,38"/>
<path class="st0" d="M475.2,426.5c36.1-10,28-77.3,28-77.3"/>
<path class="st0" d="M392.9,236l47.4,0.7c0,0,27.6-32.6,0-49.4s-30.4,24.7-30.4,24.7s-26.3-9.6-27.7-24.9s-12.7-46.4-32-26
	s14.1,51,18.2,51.6s-13.9-24.3-5.6-25.6S384.2,232.2,392.9,236z"/>
<line class="st0" x1="360.7" y1="206.8" x2="360.5" y2="224.2"/>
<path class="st0" d="M412.6,164.9c-8.3-1.4-14.2,9.1-14.2,9.1"/>
<path class="st0" d="M440.3,187.2c0,0-13.8-16.8-12.4-23.7c2.8-19.4-42.9-53-65.8-9.1"/>
<polyline class="st0" points="421,166.3 407.1,177.4 411.7,177.4 "/>
<path class="st0" d="M440.3,202.1c-2.8-0.2-11,8.5-11,8.5"/>
<path class="st0" d="M435.7,237.3c0,0,14.5,68.5,12,84.9c-0.3,2.1,16-56.1,14-67.9"/>
<path class="st0" d="M495.8,283.4c-8.3-11.8,5.6-35.3,7.4-43.8s-20.1-16.6-20.1-16.6c-3.1-5.7-16.3-7.4-16.3-7.4
	c0-3.4-14.1-8.7-14.1-8.7"/>
<path class="st0" d="M504,359.2c0,0,36.2,30.2,70.8,19.1s39.2,34.6,57-11.1"/>
<path class="st0" d="M502.1,243.1c9,38,111.5,93.6,111.5,93.6c-11.1,48.5,4.2,29.1,4.2,29.1l33.3-1.4c0,0,45.7-27.7,2.8-19.4
	c0,0,87.2-13.6,2.8-18l-44.4,16.4"/>
<path class="st0" d="M339.2,230.1c0,0-34.6-43-74.1-73.5s-55.4,18.5-55.4,18.5"/>
<path class="st0" d="M363.5,146.5c0,0-28.5-14.9-34-10.7s-9.7,38.7-51.4,5c-16.5-13.3-32.5,6.2-32.5,6.2"/>
<path class="st0" d="M324.2,144.5c-26.1-35.6-16.9,7.9-29.8-3s-15.4,0-15.4,0"/>
<path class="st0" d="M359.5,144.5c0,0,15.8-42-0.9-22.5s-15.2-19.4,1.4-15.2s13.8-23.7-13.2-7s-24.2-18-14.5-34.6s49.2-32.8,15.6-40
	s-80.7-15.5-83.5,35.8s-26.8,85.8-26.8,85.8"/>
<line class="st0" x1="363.6" y1="107.1" x2="363.6" y2="117.3"/>
<path class="st0" d="M366.5,95.3c0,0,14.4-2.4,3.9-8.2s-14.9-44.6-14.9-44.6"/>
<path class="st0" d="M360.1,66.9c-2.8-3.7-13.9-3.2-13.9-3.2"/>
<polyline class="st0" points="346.2,74.5 351.8,74.8 346.2,74.5 "/>
<path class="st0" d="M547.2,202.1c-36-58.4-68.1-32.7-68.1-32.7s8.5-5.9,5.7-11.4s-65.7-13.5-65.7-13.5"/>
<path class="st0" d="M505.5,164.8c0,0,26.4-24.8,15.3-40.1s-35.5-12.5-35.1,10.4s-37-25.6-37-38.1s61-30.5,51.3-38.8
	s-44.3-34.6-69.3-9.7c-30.5,30.5-28.9,73.2,0.1,97.6"/>
<path class="st0" d="M432,106.9c-7.6-3.1-4.9,18.2,4.2,24.3s2-8.5,2-8.5"/>
<path class="st0" d="M479.2,88.7c-2.8,0-9.7,6.9-9.7,6.9"/>
<line class="st0" x1="479.2" y1="99.8" x2="474.4" y2="103.1"/>
<path class="st0" d="M488.9,113.6c33.2,6.9,1.4-27.7,1.4-27.7"/>
<path class="st0" d="M507,127.5c-1.4,1.4-8.1,9.9-8.1,9.9"/>
<path class="st0" d="M510,116.4c3-8.2-11.9-52-11.9-52"/>
<path class="st0" d="M597.8,327.6c0,0,58.9-62.7,47.8-101.7c-2.8-9.7-6.9,11.1-20.8,18s-29.1-24.9-55.8-41.8S504.2,249,504.2,249"/>
<path class="st0" d="M606.6,332.7c6.8-2.6,36.2-34.8,62.5-80.5s-23.6-26.3-23.6-26.3"/>
<path class="st0" d="M682.5,329.3c0,0,25.3-53.6-7.9-41.1c0,0,10.4-32.8-4.5-37.9"/>
<path class="st0" d="M666.1,221.8c0,0,0.2-29.2-6.7-36.1s-15.2,15.2-23.6,19.4s-5.5-19.4-13.9-34.6s-8.3-19.4,23.3-25.2
	s-24.7-16.4-48.2-16.4s-33.9,70.4-33.9,70.4"/>
<path class="st0" d="M637.1,231.9c0,0-23-31.8-22.5-38.3s-8.1-35.6-10.8-18.3s-12.3,36.4-21.3,37.3"/>
<line class="st0" x1="601.2" y1="186.4" x2="608.1" y2="198.1"/>
<path class="st0" d="M659.3,185.7c0,0,8.3-5.5,2.7-10.4s-12.2-31.1-12.2-31.1"/>
<path class="st0" d="M648.3,162.1c-2.8,0-6.6,4.1-6.6,4.1"/>
<line class="st0" x1="646.9" y1="169.9" x2="648.3" y2="169.9"/>
<path class="st0" d="M591.5,130.2c-8.6-8.2-15.7-17.9-20.7-28.7c-8.2-17.7-51.2,45-51.2,45"/>
<path class="st0" d="M678.1,264.8c0,0,29.3-80.4,13.7-142.4c-4.7-18.5-27.8-25.6-27.8-25.6s6.4,46.5-15.7,40"/>
<path class="st0" d="M640,134.4c-13.9-12.5-33.3-13.9-51.8-32.9S572,104,572,104"/>
<path class="st0" d="M664,96.9c0,0-7.4-13.7-8.8-26.2s-6.9-1.4-24.9,8.3c-20.8,11.2-19.4-2.8-27.7-13.9s0-31.9,20.8-36
	s19.4-12.5,4.2-22.2s-59.6,0-64.4,45.8s13.5,40.8,13.5,40.8"/>
<path class="st0" d="M608.1,116.4c0,0-26.3-80.4-24.9-59.6"/>
<line class="st0" x1="583.1" y1="96.8" x2="583.1" y2="53.3"/>
<line class="st0" x1="590.5" y1="88.7" x2="583.1" y2="78.8"/>
<line class="st0" x1="617.8" y1="48.5" x2="626.8" y2="48.5"/>
<polyline class="st0" points="638.6,47.1 645.5,44.3 637,47.1 "/>
<path class="st0" d="M648.3,64.5C651,55.5,637,22.3,637,22.3"/>
<path class="st0" d="M647.2,84.9c-1.1-1-10.2,5.6-10.2,5.6"/>
<line class="st0" x1="622" y1="58.2" x2="628.9" y2="56.8"/>
<path class="st0" d="M628.9,72.6c29.1,6.1,8.3-18.6,8.3-18.6"/>
<path class="st0" d="M1695.7,630.6c35.9-6.8,65.2-43,65.2-43"/>
<path class="st0" d="M1845.5,335.3c5.6-16.6-5.6-40.1-5.6-40.1"/>
<path class="st0" d="M1790.1,285.4c27.2,23.8-61,15.2-83.2,12.5s-84.5,67.9-115,105.3S1481.8,434,1481.8,434
	c-27,21.1,51.9,146.6,111.5,164.6s134.4-27.7,130.2-51.3s0-80.4,0-80.4"/>
<path class="st0" d="M1646.2,341.9c0,0-48.5,0-77-17.2s-81.2-19.9-20.2,18.9c0,0-205.9-29.8-24.3,24.5c3.8,1.1,7.9,1.5,11.8,1
	c13.1-1.6,46.6-3.1,67.7,19.5"/>
<path class="st0" d="M1477.5,440.3c0,0-45-31.5-93.5-32.9s4.2-5.5-69.6-41.2s-17.8,2.5-17.8,2.5c-74.8-9.7-6.9,12.5-6.9,12.5
	c-113.6,33.3,0,15.2,0,15.2c-90.1,36,5.6,12.5,5.6,12.5s31.9,20.8,37.4,20.8s27.7,1.4,43,19.4s123.3,58.8,123.3,58.8"/>
<path class="st0" d="M1634.9,218.9c-2.8-31.9,22.2-6.9,23.6,1.4s24.9,15.2,30.5,12.5s5.5-12.5,30.5,8.3s19.4-9.7,19.4-26.3
	s-19.4-40.2-38.8-40.2s-55.4-16.6-83.1-8.3s-11.1,18,0,18s11.1,24.9,11.1,54s-22.2,0-24.9,16.6s11.1,67.9,16.1,69.8
	s29.6-43.5,29.6-43.5C1659.8,261.9,1637.6,250.8,1634.9,218.9L1634.9,218.9z"/>
<path class="st0" d="M1651.5,234.2c0,0,0.9,4.2,8.8-10.4"/>
<path class="st0" d="M1712,177.4c-36.5-74.8-93.8-11.5-93.8-11.5"/>
<path class="st0" d="M1680.1,310.7c-0.5-8-29.8-32.8-29.8-32.8"/>
<path class="st0" d="M1732.9,248.1c0,0,27.4,28.1,37.5,28.6"/>
<path class="st0" d="M1606.2,181.7c-16.2,51.5,17.5,17.8-2.7,45s0,26.1,0,26.1"/>
<path class="st0" d="M1365.6,439.8c0,0-28.7,25.8-32.8,38.2s-79,37.4-78.3,40.9s13.2,20.1,3.5,40.9s109.5-23.6,120.6-31.9
	s45.2-19.7,43-52.7"/>
<path class="st0" d="M1399.2,515.2l-10.9,6.5c34.6,25.7,33.3,4.8,47.5-9.8s11.6-25,11.6-25"/>
<path class="st0" d="M1554.5,392.1c-6.9,0-41.1,41.7-41.1,41.7"/>
<path class="st0" d="M1575.6,371.7c-1.1,10,4.5,42.5,4.5,42.5"/>
<path class="st0" d="M1575.4,327.1c0,0-33.4-116.5-65.2-81.8s-66.5,91.5-76.2,102.5s-37.4,59.8-47.8,59.7"/>
<path class="st0" d="M1320.3,336.7c0,0-5.5,27.7,13.9,20.8s139.8-35,67.1-32.8c0,0,67.3-43.5-3.4-10.2c0,0,76.2-49.9-8.3-5.5
	c0,0,49.5-45.7-18.2-4.9C1371.4,304.1,1406.2,239.7,1320.3,336.7L1320.3,336.7z"/>
<path class="st0" d="M1182.5,435.2c22.3,68,7.2,65.7,4.9,70.2s47.6,13.6,35.1-3.4s5.2-66.8,5.2-66.8c0.2,39,30.2,22,46.3,33.7
	s64.1,0,64.1,0"/>
<path class="st0" d="M1510.1,245.2c-11.1-5.7-21-13.5-32.1-19.1c-4.7-2.5-9.7-4.4-14.9-5.6c-3.9-0.9-12.1-2.7-15.8-0.7
	c-8.3,4.4,7.1,18.4,9.5,21.7c6.9,9.5,7.1,20.2,1.1,30.3c-2.3,3.9-21.1,27.4-25.4,23.1"/>
<path class="st0" d="M1378,283.5c-8.6,2.6-14.1,11-23.8,5.4c-6.9-5.5-11.1-13.9-18-19.4c-1.5-0.2-3,0.3-4.2,1.4
	c-12.5,19.4-20.8,38.8-38.8,55.4c-12.5,12.5-22.2,27.7-36,40.2c-9.7,8.3-19.4,15.2-24.9,26.3c-4.2,13.9-8.3,29.1-4.6,42.4"/>
<path class="st0" d="M1278.2,342.6c10.6,5.8,41.4-6.9,41.4-6.9"/>
<line class="st0" x1="1332.4" y1="358.1" x2="1329.3" y2="373.8"/>
<path class="st0" d="M1450.5,218.9c6.9-23.5-48.4-77.6-60.9-77.6s-58.2,4.2-75.2,40.5s23.9,8,35,1.1s31.9,20.8,31.9,33.3
	s-4.2,36-27.7,31.9s-11.8,27-11.8,27"/>
<path class="st0" d="M1447.8,230.7c0,0-1.4,20.1-18,3.5s-19.8-10.5-18.9-26s-18.8-38.5-17.3,0s18.2,39.9-2.6,57.9
	s-22.2,21.2-22.2,21.2"/>
<line class="st0" x1="1410.7" y1="212.6" x2="1404.8" y2="221.7"/>
<path class="st0" d="M1324,197.6c0,0-1,20,6,27s-11.3,37.1,8.9,33.8"/>
<line class="st0" x1="1341.1" y1="214.8" x2="1359.7" y2="208.2"/>
<line class="st0" x1="1349.4" y1="218.9" x2="1348" y2="214.8"/>
<path class="st0" d="M1254.5,522.6c0,0-68.6-14.1-86.6,8.1s-12.5,19.4,11.1,4.2c0,0-46.3,48.8,8.7,12c0,0-46.1,49,6.5,11.6
	c0,0-31.8,38.3,6.9,12.5c20.8-13.8,18.9-4.3,31.6-5.6s27.5-13,27.5-13"/>
<path class="st0" d="M1410.8,151.3c0,0,35.7-33,60.7-10.4s35.3,26.2,52.3,23c0,0,28.1,39.8,50.3,5.1s-1.4-45.7,12.5-62.4
	s20.8-67.9-23.6-67.9s-72,9.7-83.1,30.5s-37,39.3-37,64.7"/>
<path class="st0" d="M1522.6,164.1c-8.3-0.8-13.8-11.7-20.8-61.6s-12.5,13.9-12.5,13.9l-22.1,21.4"/>
<line class="st0" x1="1494.9" y1="122" x2="1489.4" y2="115.4"/>
<path class="st0" d="M1578,104.2c0,0,2.8-15.6,0-30.9s-20.8-6.9-40.2,4.2s-13.9,13.9-13.8,41.2s17.9,15.6,23.2,5s23.8,2.3,23.8,2.3"
	/>
<line class="st0" x1="1544.8" y1="95.6" x2="1556.2" y2="95.6"/>
<line class="st0" x1="1550.5" y1="101.6" x2="1550.5" y2="95.6"/>
<line class="st0" x1="1571.4" y1="95.6" x2="1577.5" y2="95.6"/>
<path class="st0" d="M1569.8,135.6c0,0-7-4-13.7,2.4"/>
<path class="st0" d="M1603,192.6l-12.5,11.1c2.8-58.2-8.3-5.5-8.3-5.5c2.8-54-11.1-1.4-11.1-1.4c5.5-45.7-11.1-12.5-13.9,1.4
	s-15.2,27.7-33.3,5.5s-5.5,36-5.5,36"/>
<path class="st0" d="M1547.2,259.6c19.1,0.5,56.4-48.2,56.4-48.2"/>
<path class="st0" d="M1101.3,437.9c0,0,61.1-80.4,12.6-48.5s-61,18-44.3-24.9s-8.3-8.3-11.1-4.2s-5.5,26.3-5.5,26.3"/>
<path class="st0" d="M1101.4,277.1l9.7-45.7c0,0-45.7,27.7-51.6,72.8s-17.7,43.7-23.2,93.5s25,40.2,25,40.2"/>
<path class="st0" d="M1118.3,386.6c0,0,12.2-11.1,12.2-40.2s18-29.1,26.3-69.3s-11.1-8.3-11.1-8.3s-2.8,34.6-6.9-19.4s-8.3,0-8.3,0
	c-2.8-52.6-8.3,1.4-8.3,1.4c-5.6-45.7-6.9,2.8-6.9,2.8s1.4,9.7-1.4-9.7s-6.9,13.9-6.9,19.4s4.2,15.2,5.6,29.1s-37.7,56.2-37.7,56.2"
	/>
<path class="st0" d="M1079.2,302.1c0,0,3.1,27.9,9.9,29.9"/>
<path class="st0" d="M1130.5,346.4c91.4-4.2,92.8-98.4,92.8-98.4"/>
<path class="st0" d="M1288,332c-0.5-17.2-17.5-21.6-17.5-21.6"/>
<path class="st0" d="M1261.3,333.5c0,0-0.4-77.1-5.3-23.1c0,0-8.5-49-8.8-3.7c0,0-8.5-53.6-7.8,0c0,0-8.8-59.1-9.8,0
	c-0.6,34.2-17,29.5-10.9,45.7s17.6,34.2,17.6,34.2"/>
<path class="st0" d="M1176.9,283.2l20.7-24.6c0,0-29.8,20.4-38.8,9.8"/>
<path class="st0" d="M1257.3,366.5c-5.8-15.2-3.6-24.8-0.5-30.5c1.3-2.4,4-2.9,6.7-2.4c1.2,0.2,3.3-4.1,7-23.2
	c6.9-36-47.1-63.6-47.1-63.6s-2.8-5.7,1.4-32s-4.2-40.2-13.9-49.9s-30.5-11.1-48.5-6.9s-16.6,34.6-16.6,40.2s-4.2,51.3-4.2,51.3"/>
<path class="st0" d="M1154.1,288c0,0,52.6,34.9,55.4-31.6l13.9-9.5"/>
<polyline class="st0" points="1197.6,258.6 1197.6,258.6 1209.5,256.4 "/>
<path class="st0" d="M1209.5,229.4c0,0,21.1-33.7,7.8-24.9c-9.2,6.1-9.2,7.5-9.2,7.5"/>
<path class="st0" d="M1169.3,245.3c-1.4-1.4-12.5-1.4-12.5-1.4"/>
<path class="st0" d="M1156.8,194l1.4,8.3c0,0-18,33.3,11.1,24.9"/>
<path class="st0" d="M1146.1,231.4c3.1,1.4,13.5-2.2,13.5-2.2"/>
<line class="st0" x1="1172" y1="200.9" x2="1186" y2="200.9"/>
<line class="st0" x1="1178.3" y1="207" x2="1178.3" y2="200.9"/>
<path class="st0" d="M1169.7,228.6c12.9,23.5,24.5,2.8,26.2,0s-3.2-19.4,2.4-26.3s2.8-13.9,2.8-19.4s-12.5-12.5-19.4-8.3
	s-9.7,9.7-15.2,1.4s-20.8,5.5-20.8,5.5"/>
<path class="st0" d="M1330.6,238.8c0,0-40.4-40-56.9-27.5s-31.7,38.9-3.3,52.7c17.2,8.5,32.4,20.7,44.3,35.8"/>
<path class="st0" d="M1225,212.8c1.7,7.8,30.3,24.1,30.3,24.1"/>
<path class="st0" d="M1271.8,212.8c0,0-37-36.2-50.3-33.1"/>
<path class="st0" d="M1286.2,209.4c30-37.6,10.6-57,52.1-72.2c0,0-19.4-45.7-65.1-33.2s-32.7,53.3-61.4,62"/>
<line class="st0" x1="1347.8" y1="150.3" x2="1338.4" y2="137.2"/>
<path class="st0" d="M1296.8,133c-9.7,9.7-48.2,59.7-48.2,59.7"/>
<path class="st0" d="M1279.8,102.5c0,0-6.6-34.6-46.7-51.2s-20.8-33.3-73.4-23.6s-51.3,58.2-22.2,41.6s26.3,43,44.3,48.5
	s18,13.9,48.5-5.5s38.4-6.9,38.4-6.9"/>
<path class="st0" d="M1192.9,155.6c0,0-2.2-42.9-19.1,0.5"/>
<path class="st0" d="M1119.2,69.1c2.6,35.9,11.3,18.1,11.3,25.1c0,18-11.1,23.5,2.8,24.9s15.2,11.1,19.6,17.5s33.2,0,33.2,0"/>
<line class="st0" x1="1129.8" y1="92.4" x2="1140.2" y2="83"/>
<line class="st0" x1="1136.2" y1="86.6" x2="1140.2" y2="92.4"/>
<path class="st0" d="M1156.8,120.6c-8.3,0-8.6,7.9-8.6,7.9"/>
<path class="st0" d="M1012.6,294.5c0,0-11.1,74.9-33.2,40.7s1.4-60.9-9.7-81.7s-17.6-25.3-17.1-40.1c0.5-14.9-2.3-55,7.4-7.4
	c0,0-3.7-72.4,7.9-2.8c0,0-2.4-83.4,8-3.1c0,0-8.2-84.7,8.7,1.5c0,0,10,28.2,17,19.3s18.5-22.8,9.2,18.3S1005.7,264.1,1012.6,294.5z
	"/>
<path class="st0" d="M1116.8,158.7c29.3-3.4-14-45.1-16.8-49.2s-22.2-26.3-38.8-29.1s-24.9,12.5-37.4,18s-11.1,25-14.5,34.6
	s10.4,23.5,9.5,46.5s21.7,18.6,35.3,16.6s21-25.8,22.9-40.6s10.6-26.7,16-14.2s-3.9,17.4-3.9,17.4S1087.5,162.1,1116.8,158.7
	L1116.8,158.7z"/>
<path class="st0" d="M1059.7,194c0,0,18.7,48.5,34.3,50.6"/>
<path class="st0" d="M1003.3,216.2c5.8-1.3,19.2-23.5,19.2-23.5"/>
<path class="st0" d="M1069.8,216.2c0,0,48.2-15.4,41.3-56.9"/>
<line class="st0" x1="1150.1" y1="169" x2="1125.9" y2="154.3"/>
<path class="st0" d="M1035.6,393.5c-18.7-9.8-6.3-55.4-33.8-55.7"/>
<path class="st0" d="M1017.4,120.6c0,0-2,41.6,9.1,40.2c11.1-1.4,17.9-1.3,22.1,0s16.1-9.7,19.2-17.4s-10.8-42.3-16.3-34
	s-18,11.1-20.8,6.9S1017.4,120.6,1017.4,120.6z"/>
<path class="st0" d="M1026.6,141.4c0,0,3.4,24,10,14.8"/>
<line class="st0" x1="1039.5" y1="134.6" x2="1051.5" y2="130.3"/>
<line class="st0" x1="1048.7" y1="137.2" x2="1045.5" y2="132.4"/>
<path class="st0" d="M1038.3,173.3c-9-4-7.6-1.5-7.6-1.5"/>
<path class="st0" d="M1434.2,571.3c26.4,0,34.2-5.7,31.5-11.1s-15.9-10.6-31.5-9.7C1409.3,552,1381.3,571.3,1434.2,571.3
	L1434.2,571.3z"/>
<path class="st0" d="M1404.2,562.5c30.6,89.1,9.8,86.1,6.7,92s65.2,17.8,48.2-4.5s7.1-87.6,7.1-87.6"/>
<path class="st0" d="M462.6,527c-15.9-1-29.5,4.5-32.3,10.4s5.2,11.9,32.3,11.9C516.8,549.3,488.1,528.6,462.6,527z"/>
<path class="st0" d="M429.8,539.8c0,0,24.8,70.1,7.3,94.1s52.6,11.2,49.4,4.8s-24.5-3.2,6.9-98.8"/>
<path class="st0" d="M1288.4,615.6c-15.5-0.9-28.7,4.2-31.5,9.6s5,11,31.5,11.1C1341.2,636.4,1313.2,617.1,1288.4,615.6
	L1288.4,615.6z"/>
<path class="st0" d="M1256.4,627.5c0,0,24.2,65.3,7.1,87.6s51.3,10.4,48.2,4.5s-23.8-2.9,6.7-92"/>
<path class="st0" d="M567.9,380c0,0-14,57.5-57.5,59.3"/>
<path class="st0" d="M594.4,377.8c0,0,1,53.6-11.9,60.8"/>
<path class="st0" d="M1018.7,355.4c0,0,1.1,79-15.5,83.2"/>
<path class="st0" d="M645.4,531.4c-15.5-0.9-28.7,4.2-31.5,9.6s5,11,31.5,11.1C698.2,552.2,670.2,532.9,645.4,531.4L645.4,531.4z"/>
<path class="st0" d="M613.4,543.3c0,0,24.2,65.3,7.1,87.6s51.3,10.4,48.2,4.5s-23.8-2.9,6.7-92"/>
</svg>
