<?xml version="1.0" encoding="utf-8"?>
<!-- Generator: Adobe Illustrator 24.3.0, SVG Export Plug-In . SVG Version: 6.00 Build 0)  -->
<svg version="1.1" id="Ebene_1" xmlns="http://www.w3.org/2000/svg" xmlns:xlink="http://www.w3.org/1999/xlink" x="0px" y="0px"
	 viewBox="0 0 381 574" style="enable-background:new 0 0 381 574;" xml:space="preserve">
<style type="text/css">
	.st0{stroke:#FFFFFF;stroke-miterlimit:10;}
</style>
<path class="st0" d="M300.83,0.14c0,0,66.42-7.22,78,37.54s-26,118.4-37.54,119.85s-27.43,59.2-27.43,59.2l-88.08-36.1l21.82-69.3
	c0.63-2,0.88-4.1,0.73-6.19C247.06,87.86,243.76,2.73,300.83,0.14z"/>
<path class="st0" d="M89.36,397.33H69.62c-0.65,0-1.29,0.15-1.86,0.45l-16,8.16c-0.92,0.46-1.63,1.25-2,2.21l-7.9,21.07
	c-0.13,0.36-0.32,0.69-0.54,1L9.07,473.77c-1.03,1.39-1.08,3.27-0.12,4.71l0,0c1.25,1.89,3.8,2.4,5.68,1.14
	c0.16-0.1,0.3-0.22,0.45-0.34l32.71-29c1.7-1.5,4.3-1.33,5.8,0.37c0.41,0.47,0.71,1.03,0.88,1.63l2.08,7.59
	c0.05,0.19,0.09,0.38,0.11,0.58l5.09,40.57c0.08,0.62,0.01,1.24-0.19,1.83l-8,23.41c-0.53,1.56-0.08,3.28,1.15,4.38l48,42.81
	c1.41,1.26,3.49,1.39,5.05,0.32l17.55-12.06c1.67-1.15,2.25-3.34,1.37-5.17l-20.79-42.88c-0.49-1.02-0.54-2.19-0.14-3.25
	l13.09-34.32l13.54-40c0.12-0.35,0.29-0.69,0.5-1l25.66-37.48c0.12-0.18,0.26-0.34,0.4-0.5l40-42.42l41.97-43.36l40.39-43.34
	l34.22-39.93c0.29-0.33,0.52-0.71,0.68-1.12l3.17-7.77c0.61-1.49,0.29-3.19-0.81-4.36l-8-8.46c-0.29-0.3-0.63-0.56-1-0.76
	l-16.49-9.32c-0.28-0.16-0.57-0.28-0.88-0.37l-25.41-7.33l-26.7-8.49c-0.2-0.06-0.41-0.11-0.62-0.14l-15.66-2.42
	c-1.89-0.29-3.72,0.76-4.43,2.53l-13.07,33.07l-9.45,22.06c-0.12,0.28-0.21,0.56-0.26,0.86l-3.11,16.29
	c-0.15,0.79-0.53,1.52-1.08,2.1l-17.1,17.65c-0.08,0.09-0.17,0.17-0.26,0.24l-26.09,22.71c-0.3,0.26-0.56,0.57-0.78,0.9L136.12,315
	c-0.12,0.2-0.23,0.4-0.32,0.62l-9,21.67l-13.6,32.79c-0.06,0.15-0.13,0.3-0.22,0.44c-0.91,1.6-6.74,11.9-10.83,19.24
	C99.58,394.42,94.68,397.32,89.36,397.33z"/>
</svg>
