<?xml version="1.0" encoding="utf-8"?>
<!-- Generator: Adobe Illustrator 24.3.0, SVG Export Plug-In . SVG Version: 6.00 Build 0)  -->
<svg version="1.1" id="body" xmlns="http://www.w3.org/2000/svg" xmlns:xlink="http://www.w3.org/1999/xlink" x="0px" y="0px"
	 viewBox="0 0 775.01 599.56" style="enable-background:new 0 0 775.01 599.56;" xml:space="preserve">
<style type="text/css">
	.st0{stroke:#FFFFFF;stroke-miterlimit:10;}
</style>
<path class="st0" d="M508.73,414.03l8.23,7.08c1.36,1.17,3.41,1.03,4.58-0.33c0.22-0.26,0.4-0.55,0.54-0.86l10.28-24
	c0.54-1.26,0.04-2.73-1.17-3.38c-4-2.2-12.31-7.14-12.31-10.42c0-4.33,2.81-14.15,2.81-14.15h-21L508.73,414.03z"/>
<path class="st0" d="M540.79,410.52l-6.23,20.06c-0.41,1.34,0.34,2.76,1.68,3.17c0.69,0.21,1.44,0.12,2.06-0.25l10.44-6.33
	c0.3-0.18,0.53-0.48,0.62-0.82l5-17.91c0.21-0.74-0.22-1.51-0.96-1.72c-0.12-0.04-0.25-0.05-0.38-0.05h-7
	C543.62,406.68,541.51,408.24,540.79,410.52z"/>
<path class="st0" d="M486.47,221.51c0,0-18.13,68.2,7.85,104.31l36.52-25.87C530.84,299.95,510.36,211.07,486.47,221.51"/>
<path class="st0" d="M339.04,120.12c3.06,9.27,155.38,106.44,158.9,111.12c4.33,5.78,59.2,166.05,105.41,86.64
	s53.43-112.63,53.43-112.63s13-31.77-75.08-66.42C518.79,114.08,472.73,4.25,376.73,28.04C343.06,50.77,330.08,93.02,339.04,120.12z
	"/>
<path class="st0" d="M635.66,265.64l-10.26,26.21c-1.69,4.32-2.56,8.91-2.56,13.55l0,0c0,10.94,4.31,21.44,12,29.22l0.23,0.23
	c0.51,0.52,1.06,1.01,1.63,1.47l8.23,6.58c2.56,2.05,5.62,3.39,8.86,3.89l12.41,1.91c0.93,0.16,1.87,0.24,2.81,0.25h20.06
	c2.47,0,4.92-0.49,7.2-1.44l0,0c9.56-3.97,14.1-14.94,10.12-24.51c-0.12-0.29-0.25-0.58-0.38-0.86l-30.93-65.1
	c-3.76-7.92-12.52-12.17-21.07-10.23l-1.9,0.43c-5.71,1.3-10.49,5.19-12.91,10.52l-3.16,7
	C635.91,265.02,635.78,265.33,635.66,265.64z"/>
<polygon class="st0" points="269.8,57.97 266.92,112.84 339.61,121.4 350.15,55.36 "/>
<path class="st0" d="M461.85,351.09l81.92-60.73c1-0.74,2.11-1.32,3.29-1.72c8.44-2.83,42.69-12.67,37.54,16.29
	c-2.1,11.15-8.28,21.11-17.33,27.95l-45.57,35.07c-5.25,4.05-11.95,5.76-18.5,4.71C484.01,369.63,446.55,362.01,461.85,351.09z"/>
<path class="st0" d="M108.14,32.7h21.71c0.47,0,0.94-0.08,1.38-0.24l21.78-7.89c0.44-0.16,0.91-0.24,1.38-0.24h29.19
	c0.46,0,0.92,0.08,1.36,0.23l10.37,3.69c0.49,0.18,0.95,0.44,1.34,0.79l8.24,7.36c0.47,0.42,1.03,0.72,1.63,0.88l14.49,3.95
	c0.31,0.09,0.62,0.21,0.9,0.37l11.65,6.47c0.61,0.34,1.3,0.51,2,0.51h34.06c1.15,0,2.24,0.48,3,1.34l3.87,4.29
	c0.66,0.75,1.02,1.71,1,2.71v48.91c0,0.27-0.03,0.53-0.08,0.79l-1.87,9.46c-0.36,1.92-2.05,3.29-4,3.26h-9.39
	c-0.76,0-1.51-0.21-2.15-0.62l-7.62-4.77c-0.41-0.26-0.87-0.44-1.35-0.54l-5.66-1.13c-0.55-0.11-1.07-0.33-1.53-0.65l-13-9.11
	c-0.48-0.33-1.03-0.56-1.6-0.67l-14.82-2.69c-0.13-0.02-0.26-0.05-0.39-0.09l-8.94-2.55c-0.64-0.18-1.23-0.53-1.71-1l-6.95-6.74
	c-0.28-0.27-0.6-0.5-0.94-0.68l-19.83-10.42c-0.28-0.15-0.59-0.27-0.9-0.34l-11-2.74l-0.24-0.07l-15.92-5.06
	c-0.4-0.13-0.81-0.19-1.23-0.19H51.8c-0.53,0-1.06,0.11-1.56,0.31l-3.62,1.51c-1.11,0.46-1.96,1.4-2.31,2.55l-3.2,10.45
	c-0.12,0.38-0.18,0.78-0.18,1.18v7.12c0,0.42-0.07,0.84-0.19,1.24l-2,6.22c-0.43,1.33-1.51,2.35-2.87,2.69l-3.39,0.85l-0.41,0.08
	l-8.53,1.22c-0.89,0.13-1.8-0.05-2.58-0.49l-7.68-4.39c-0.79-0.45-1.41-1.15-1.75-2l-2.3-5.74l-0.12-0.34L4.83,77.47L0.67,63.6
	c-0.11-0.38-0.17-0.77-0.17-1.16V52.2c0-0.98,0.35-1.93,1-2.66l3-3.39c0.26-0.29,0.55-0.55,0.88-0.76l14.39-9.16
	c0.65-0.41,1.4-0.63,2.17-0.63h8.73c1.06,0.01,2.08-0.41,2.83-1.15l8.36-8.16c1.2-1.18,1.55-2.97,0.89-4.51l-4.12-9.49
	c-0.35-0.8-0.95-1.47-1.71-1.9l-5-2.83c-1.93-1.07-2.63-3.51-1.56-5.44c0.1-0.18,0.21-0.34,0.33-0.5l0,0
	c0.96-1.28,2.59-1.88,4.15-1.52l14.71,3.39c0.96,0.22,1.81,0.78,2.38,1.59l5.08,7.17c0.77,1.07,2,1.71,3.32,1.7h9
	c0.3,0,0.59,0.03,0.88,0.1l11.41,2.54c0.76,0.16,1.45,0.54,2,1.09l8.69,8.69c0.39,0.39,0.85,0.69,1.36,0.9l12.94,5.18
	C107.1,32.61,107.62,32.7,108.14,32.7z"/>
<path class="st0" d="M479.17,420.4l-19.66-61.55c-0.58-1.83,0.42-3.78,2.25-4.36c0.2-0.06,0.41-0.11,0.62-0.14
	c12.07-1.49,46.39-3.79,44.76,18.64s3.93,62.38,6,76c0.47,3.15,1.49,6.2,3,9c2.38,3.99,5.05,7.79,8,11.38
	c0.65,0.8,0.53,1.98-0.27,2.63c-0.04,0.04-0.09,0.07-0.14,0.1c-4.14,2.82-14.74,10-18.62,12.44c-0.61,0.38-1.42,0.2-1.81-0.42
	c-0.05-0.07-0.08-0.15-0.11-0.23L479.17,420.4z"/>
<path class="st0" d="M539.55,491.74l12.63,6.32c1.4,0.7,1.97,2.41,1.26,3.81c-0.13,0.27-0.31,0.51-0.52,0.73l-6.45,6.45
	c-0.56,0.56-1.33,0.86-2.12,0.83l-32.9-1.32c-1.18-0.05-2.2-0.82-2.58-1.94l0,0c-0.47-1.4,0.22-2.92,1.57-3.5l26.72-11.45
	C537.93,491.34,538.8,491.37,539.55,491.74z"/>
<path class="st0" d="M659.83,297.63c0,0,4.93,74.78,56.89,45.71s59.91-36,57.38-70.1s-31.75-58.46-48.19-68.64
	s-63.75-11.18-66.08-4.9S624.62,253.56,659.83,297.63z"/>
<path class="st0" d="M539.55,489.34c0.98,1.05,0.92,2.7-0.13,3.67c-0.18,0.17-0.39,0.31-0.62,0.43l-26.86,13.19
	c-1.78,0.85-3.91,0.1-4.76-1.68c-0.1-0.21-0.18-0.43-0.24-0.66c-1.38-5.39-2.46-15.21-2.94-20.19c-0.19-1.92,0.66-3.8,2.23-4.92
	c5.5-4,18.34-12.43,20.6-6.79C528.9,477.57,535.82,485.36,539.55,489.34z"/>
</svg>
