<svg id="body" xmlns="http://www.w3.org/2000/svg" viewBox="0 0 775.01 814.61"><defs><style>.cls-1{stroke:#fff;}.cls-1,.cls-2{stroke-miterlimit:10;}.cls-2{fill:none;stroke:#000;stroke-linecap:round;stroke-width:6px;}</style></defs><path class="cls-1" d="M508.72,629.08l8.23,7.08a3.25,3.25,0,0,0,5.12-1.19l10.28-24a2.65,2.65,0,0,0-1.17-3.38c-4-2.2-12.31-7.14-12.31-10.42,0-4.33,2.81-14.15,2.81-14.15h-21Z" transform="translate(0.01 0)"/><path class="cls-1" d="M540.78,625.57l-6.23,20.06a2.54,2.54,0,0,0,3.74,2.92l10.44-6.33a1.39,1.39,0,0,0,.62-.82l5-17.91a1.39,1.39,0,0,0-1.34-1.77h-7A5.5,5.5,0,0,0,540.78,625.57Z" transform="translate(0.01 0)"/><path class="cls-1" d="M486.46,436.56s-18.13,68.2,7.85,104.31L530.83,515s-20.48-88.88-44.37-78.44" transform="translate(0.01 0)"/><path class="cls-1" d="M434.22,393.16a5.84,5.84,0,0,0,2.17,6.5c12.89,9.25,57.83,41.69,61.54,46.63,4.33,5.78,59.2,166.05,105.41,86.64S656.77,420.3,656.77,420.3s13-31.77-75.08-66.42c-62.91-24.75-92.68-53.19-104.55-67.42a5.87,5.87,0,0,0-10.11,2Z" transform="translate(0.01 0)"/><path class="cls-1" d="M635.65,480.69,625.39,506.9a37.17,37.17,0,0,0-2.56,13.55h0a41.6,41.6,0,0,0,12,29.22l.23.23a19,19,0,0,0,1.63,1.47l8.23,6.58a18.71,18.71,0,0,0,8.86,3.89l12.41,1.91A18.15,18.15,0,0,0,669,564h20.06a18.73,18.73,0,0,0,7.2-1.44h0A18.75,18.75,0,0,0,706,537.19l-30.93-65.1A18.73,18.73,0,0,0,654,461.86l-1.9.43a18.75,18.75,0,0,0-12.91,10.52l-3.16,7C635.9,480.07,635.77,480.38,635.65,480.69Z" transform="translate(0.01 0)"/><polygon class="cls-1" points="269.8 273.02 266.92 327.89 339.61 336.45 350.15 270.41 269.8 273.02"/><path class="cls-1" d="M392.53,239.81s66.42-7.22,78,37.54-26,118.4-37.54,119.85-27.43,59.2-27.43,59.2l-88.08-36.1L339.3,351a16.64,16.64,0,0,0,.73-6.19C338.76,327.53,335.46,242.4,392.53,239.81Z" transform="translate(0.01 0)"/><path class="cls-1" d="M461.84,566.14l81.92-60.73a11.75,11.75,0,0,1,3.29-1.72c8.44-2.83,42.69-12.67,37.54,16.29a45.63,45.63,0,0,1-17.33,27.95L521.69,583a24.07,24.07,0,0,1-18.5,4.71C484,584.68,446.54,577.06,461.84,566.14Z" transform="translate(0.01 0)"/><path class="cls-1" d="M181.06,637H161.32a4,4,0,0,0-1.86.45l-16,8.16a4.16,4.16,0,0,0-2,2.21l-7.9,21.07a4.2,4.2,0,0,1-.54,1l-32.25,43.55a4.09,4.09,0,0,0-.12,4.71h0a4.1,4.1,0,0,0,6.13.8l32.71-29a4.11,4.11,0,0,1,6.68,2l2.08,7.59a3.71,3.71,0,0,1,.11.58l5.09,40.57a4.06,4.06,0,0,1-.19,1.83l-8,23.41a4.09,4.09,0,0,0,1.15,4.38l48,42.81a4.09,4.09,0,0,0,5.05.32l17.55-12.06a4.11,4.11,0,0,0,1.37-5.17l-20.79-42.88a4.13,4.13,0,0,1-.14-3.25l13.09-34.32,13.54-40a4.07,4.07,0,0,1,.5-1l25.66-37.48a4.87,4.87,0,0,1,.4-.5l40-42.42L332.61,551,373,507.66l34.22-39.93a3.78,3.78,0,0,0,.68-1.12l3.17-7.77a4.09,4.09,0,0,0-.81-4.36l-8-8.46a4,4,0,0,0-1-.76l-16.49-9.32a4,4,0,0,0-.88-.37l-25.41-7.33-26.7-8.49a4.29,4.29,0,0,0-.62-.14l-15.66-2.42a4.1,4.1,0,0,0-4.43,2.53L298,452.79l-9.45,22.06a3.71,3.71,0,0,0-.26.86L285.18,492a4.2,4.2,0,0,1-1.08,2.1L267,511.75a3,3,0,0,1-.26.24L240.65,534.7a4.47,4.47,0,0,0-.78.9l-12.05,19.07a4.05,4.05,0,0,0-.32.62l-9,21.67L204.9,609.75a2.58,2.58,0,0,1-.22.44c-.91,1.6-6.74,11.9-10.83,19.24A14.63,14.63,0,0,1,181.06,637Z" transform="translate(0.01 0)"/><path class="cls-1" d="M108.13,247.75h21.71a4,4,0,0,0,1.38-.24L153,239.62a4,4,0,0,1,1.38-.24h29.19a4.22,4.22,0,0,1,1.36.23l10.37,3.69a4.13,4.13,0,0,1,1.34.79l8.24,7.36a4,4,0,0,0,1.63.88L221,256.28a4.16,4.16,0,0,1,.9.37l11.65,6.47a4.1,4.1,0,0,0,2,.51h34.06a4,4,0,0,1,3,1.34l3.87,4.29a4,4,0,0,1,1,2.71v48.91a4.23,4.23,0,0,1-.08.79l-1.87,9.46a4,4,0,0,1-4,3.26h-9.39a4,4,0,0,1-2.15-.62L252.37,329a4.16,4.16,0,0,0-1.35-.54l-5.66-1.13a4.07,4.07,0,0,1-1.53-.65l-13-9.11a4.2,4.2,0,0,0-1.6-.67l-14.82-2.69a2.74,2.74,0,0,1-.39-.09l-8.94-2.55a4,4,0,0,1-1.71-1l-6.95-6.74a4,4,0,0,0-.94-.68l-19.83-10.42a3.78,3.78,0,0,0-.9-.34l-11-2.74-.24-.07-15.92-5.06a4,4,0,0,0-1.23-.19H51.79a4.21,4.21,0,0,0-1.56.31l-3.62,1.51a4,4,0,0,0-2.31,2.55l-3.2,10.45a3.93,3.93,0,0,0-.18,1.18v7.12a4.34,4.34,0,0,1-.19,1.24l-2,6.22a4.05,4.05,0,0,1-2.87,2.69l-3.39.85-.41.08-8.53,1.22a4.07,4.07,0,0,1-2.58-.49l-7.68-4.39a4,4,0,0,1-1.75-2l-2.3-5.74-.12-.34L4.82,292.52.66,278.65a4.17,4.17,0,0,1-.17-1.16V267.25a4,4,0,0,1,1-2.66l3-3.39a4.26,4.26,0,0,1,.88-.76l14.39-9.16a4.06,4.06,0,0,1,2.17-.63h8.73a4,4,0,0,0,2.83-1.15l8.36-8.16a4.07,4.07,0,0,0,.89-4.51l-4.12-9.49a4,4,0,0,0-1.71-1.9l-5-2.83a4,4,0,0,1-1.23-5.94h0a4.06,4.06,0,0,1,4.15-1.52l14.71,3.39a4,4,0,0,1,2.38,1.59L57,227.3A4.06,4.06,0,0,0,60.32,229h9a3.71,3.71,0,0,1,.88.1l11.41,2.54a4,4,0,0,1,2,1.09l8.69,8.69a4.14,4.14,0,0,0,1.36.9l12.94,5.18A5.12,5.12,0,0,0,108.13,247.75Z" transform="translate(0.01 0)"/><path class="cls-1" d="M479.16,635.45,459.5,573.9a3.47,3.47,0,0,1,2.87-4.5c12.07-1.49,46.39-3.79,44.76,18.64s3.93,62.38,6,76a27.57,27.57,0,0,0,3,9,93.15,93.15,0,0,0,8,11.38,1.87,1.87,0,0,1-.41,2.73c-4.14,2.82-14.74,10-18.62,12.44a1.31,1.31,0,0,1-1.92-.65Z" transform="translate(0.01 0)"/><path class="cls-1" d="M539.54,706.79l12.63,6.32a2.84,2.84,0,0,1,.74,4.54l-6.45,6.45a2.85,2.85,0,0,1-2.12.83l-32.9-1.32a2.85,2.85,0,0,1-2.58-1.94h0a2.83,2.83,0,0,1,1.57-3.5l26.72-11.45A2.85,2.85,0,0,1,539.54,706.79Z" transform="translate(0.01 0)"/><path class="cls-1" d="M659.82,512.68s4.93,74.78,56.89,45.71,59.91-36,57.38-70.1-31.75-58.46-48.19-68.64-63.75-11.18-66.08-4.9S624.61,468.61,659.82,512.68Z" transform="translate(0.01 0)"/><path class="cls-2" d="M615.61,70.15v5.16a50.42,50.42,0,0,0,3.93,19.5l9.06,21.54,8.67,21.06a51.62,51.62,0,0,0,3.38,6.73h0a50.23,50.23,0,0,1,7.14,24.26l2.66,83c0,1.59.18,3.17.38,4.75l5,39.42a50.05,50.05,0,0,1,.4,6.36v46.86l-.17,28.58a50.2,50.2,0,0,0,2.11,14.72l7.9,26.41" transform="translate(0.01 0)"/><path class="cls-2" d="M716.69,47.05l-4.25,42.53a7.4,7.4,0,0,1-.32,1.54l-15.64,48.34L686.84,172a46.28,46.28,0,0,0-1.91,13.18v20.46a42.22,42.22,0,0,1-4,17.92l-6.22,13.28a44.6,44.6,0,0,0-4.2,18.87V399.34c0,6.91-.64,26.26-5.09,21" transform="translate(0.01 0)"/><path class="cls-2" d="M687.07,10.85l16.91-7a11.12,11.12,0,0,1,7.81-.27L730.94,10a11.12,11.12,0,0,1,4.53,2.88L754.71,33a11.15,11.15,0,0,1,3,5.95l5.09,31.78a11.5,11.5,0,0,1,.14,1.76v40.69a11.18,11.18,0,0,1-1.48,5.56L747,143.79l-25.68,41.37a11.76,11.76,0,0,0-.57,1L702.5,224.14a10.19,10.19,0,0,0-.43,1l-19.76,54.36a28.9,28.9,0,0,0-1.75,9.91v64.37a10.72,10.72,0,0,1-.13,1.7l-7.69,49.83a11.17,11.17,0,0,0,12.18,12.81h0a11.16,11.16,0,0,0,10-11l.09-15.7a11.76,11.76,0,0,0-.09-1.45l-4-31.8a11,11,0,0,1,.28-4.2l7.88-30.21a10.75,10.75,0,0,0,.32-1.87l3.89-45.48a11.17,11.17,0,0,1,.79-3.27l19.61-48c.12-.3.26-.6.41-.89l25.18-49a10.85,10.85,0,0,0,.9-2.4l8.35-33.4" transform="translate(0.01 0)"/><path class="cls-1" d="M539.54,704.39a2.6,2.6,0,0,1-.75,4.1l-26.86,13.19a3.57,3.57,0,0,1-5-2.34c-1.38-5.39-2.46-15.21-2.94-20.19a5.39,5.39,0,0,1,2.23-4.92c5.5-4,18.34-12.43,20.6-6.79C528.89,692.62,535.81,700.41,539.54,704.39Z" transform="translate(0.01 0)"/></svg>