<?xml version="1.0" encoding="utf-8"?>
<!-- Generator: Adobe Illustrator 24.3.0, SVG Export Plug-In . SVG Version: 6.00 Build 0)  -->
<svg version="1.1" id="Ebene_1" xmlns="http://www.w3.org/2000/svg" xmlns:xlink="http://www.w3.org/1999/xlink" x="0px" y="0px"
	 viewBox="0 0 181 452" style="enable-background:new 0 0 181 452;" xml:space="preserve">
<style type="text/css">
	.st0{stroke:#FFFFFF;stroke-miterlimit:10;}
</style>
<g>
	<path class="st0" d="M68.88,436.66c-1.29,0-2.48-0.84-2.87-2.14l-7.9-26.41c-1.52-5.06-2.27-10.31-2.24-15.6l0.17-28.58v-46.84
		c0-1.99-0.12-4-0.38-5.98l-5-39.42c-0.2-1.62-0.4-3.34-0.4-5.13l-2.66-82.9c-0.26-8.03-2.58-15.92-6.71-22.81
		c-1.36-2.28-2.57-4.68-3.58-7.13l-8.67-21.06l-9.05-21.52c-2.76-6.58-4.16-13.53-4.17-20.66v-5.16c0-1.66,1.34-3,3-3s3,1.34,3,3
		v5.16c0,6.33,1.25,12.5,3.7,18.34l9.06,21.54l8.68,21.08c0.9,2.17,1.97,4.31,3.18,6.33c4.66,7.76,7.27,16.65,7.56,25.7l2.66,83
		c0,1.53,0.18,3.04,0.36,4.47l5,39.42c0.28,2.23,0.43,4.5,0.42,6.74v46.86l-0.17,28.6c-0.03,4.69,0.64,9.35,1.98,13.84l7.9,26.41
		c0.48,1.59-0.43,3.26-2.01,3.73C69.45,436.62,69.16,436.66,68.88,436.66z"/>
</g>
<g>
	<path class="st0" d="M69.64,439.39c-1.02,0-2.37-0.39-3.7-1.96c-1.07-1.26-0.91-3.16,0.35-4.23c0.73-0.62,1.66-0.83,2.53-0.65
		c0.79-2.95,1.5-9.69,1.5-18.06V270.87c0-6.92,1.55-13.88,4.48-20.14l6.22-13.28c2.43-5.18,3.71-10.93,3.72-16.65v-20.46
		c0-4.75,0.68-9.47,2.03-14.03l9.64-32.54l15.66-48.41c0.09-0.29,0.16-0.6,0.19-0.91l4.25-42.54c0.17-1.65,1.66-2.84,3.28-2.69
		c1.65,0.17,2.85,1.63,2.69,3.28l-4.25,42.53c-0.07,0.73-0.22,1.46-0.45,2.16l-15.64,48.34l-9.62,32.47
		c-1.19,4-1.79,8.15-1.79,12.33v20.46c0,6.59-1.48,13.23-4.28,19.19l-6.22,13.28c-2.56,5.47-3.91,11.56-3.92,17.6V414.5
		c0,22.71-3.72,24.07-5.31,24.65C70.7,439.26,70.22,439.39,69.64,439.39z"/>
</g>
<g>
	<path class="st0" d="M86.59,436.34c-0.72,0-1.44-0.05-2.16-0.17c-3.74-0.58-7.03-2.57-9.27-5.62c-2.24-3.05-3.15-6.79-2.58-10.53
		l7.69-49.83c0.06-0.41,0.1-0.83,0.1-1.23v-64.38c0-3.74,0.65-7.42,1.93-10.94l19.76-54.36c0.16-0.45,0.35-0.89,0.56-1.31
		l18.23-37.95c0.25-0.5,0.49-0.92,0.75-1.32l25.66-41.34l14.41-24.97c0.7-1.23,1.08-2.64,1.08-4.06V87.65c0-0.43-0.04-0.86-0.1-1.29
		l-5.09-31.77c-0.27-1.63-1.03-3.14-2.19-4.34l-19.25-20.14c-0.92-0.96-2.06-1.69-3.31-2.11l-19.15-6.42
		c-1.87-0.63-3.89-0.56-5.71,0.2l-16.91,7c-1.53,0.63-3.29-0.09-3.92-1.62c-0.63-1.53,0.09-3.29,1.62-3.92l16.91-7
		c3.15-1.31,6.67-1.43,9.91-0.34l19.15,6.42c2.18,0.73,4.17,1.99,5.75,3.66l19.23,20.11c2,2.06,3.32,4.68,3.79,7.54l5.09,31.79
		c0.12,0.74,0.18,1.48,0.18,2.23v40.7c0,2.47-0.65,4.91-1.88,7.05l-14.46,25.06l-25.73,41.45c-0.17,0.27-0.32,0.52-0.44,0.78
		l-18.22,37.92c-0.13,0.26-0.23,0.49-0.32,0.73l-19.76,54.35c-1.04,2.86-1.57,5.85-1.57,8.88v64.37c0,0.71-0.05,1.45-0.17,2.17
		l-7.69,49.82c-0.33,2.16,0.2,4.31,1.49,6.07s3.19,2.91,5.35,3.24c0.69,0.11,1.39,0.12,2.08,0.05c4.12-0.43,7.27-3.89,7.31-8.04
		l0.09-15.69c0-0.34-0.02-0.71-0.07-1.06l-4-31.79c-0.23-1.8-0.11-3.59,0.36-5.34l7.88-30.2c0.12-0.45,0.2-0.9,0.23-1.36l3.89-45.49
		c0.12-1.43,0.46-2.82,1-4.15l19.61-48c0.15-0.37,0.33-0.75,0.52-1.13l25.18-49c0.29-0.56,0.51-1.14,0.65-1.74l8.35-33.41
		c0.4-1.61,2.03-2.59,3.64-2.18c1.61,0.4,2.58,2.03,2.18,3.64l-8.35,33.4c-0.26,1.05-0.64,2.08-1.14,3.05l-25.18,48.99
		c-0.11,0.21-0.21,0.42-0.29,0.63l-19.62,48.02c-0.31,0.77-0.51,1.57-0.58,2.39l-3.89,45.48c-0.07,0.79-0.2,1.6-0.41,2.38
		l-7.88,30.2c-0.27,1.01-0.34,2.04-0.21,3.07l4,31.8c0.08,0.61,0.11,1.22,0.11,1.82l-0.09,15.72c-0.06,7.22-5.52,13.22-12.69,13.97
		C87.56,436.31,87.08,436.34,86.59,436.34z"/>
</g>
</svg>
