<svg id="Ebene_2" data-name="Ebene 2" xmlns="http://www.w3.org/2000/svg" viewBox="0 0 511.04 1045.03"><defs><style>.cls-1{fill:none;stroke:#fff;stroke-linecap:round;stroke-linejoin:round;stroke-width:7px;}</style></defs><path class="cls-1" d="M1512.27,964.5c-2.57.42-7.44.82-10.46-2.06-2.54-2.41-3.2-7.64-.54-18.94,8-34,15-27,35.09-27.77s65.91-19.23,108.91-16.23,166-28,198-45,46-112-20-132-219-164-233-179c-2.8-3-21.4-38.59-13.83-67.9a91.41,91.41,0,0,1,4.5-12.78,85.69,85.69,0,0,1,5.69-10.65c6.1-9.67,13.3-16.6,20.64-22.67,52-43,51-27-15-112-129.12-166.28-2-228,56-248s142.51-69,142.51-69m36.49,469c-5,104,26,151,54,244s-30,207-30,207m-46-635c38,47,31,138,31,138m-187-101s-45-43-31-41c11.91,1.7,47,38.87,57.18,49.92,1.79,1.94,3.63,3.81,5.55,5.62,10,9.43,43.39,42.42,34.27,53.46-5.08,6.14-28.88-13.48-28.88-13.48m175,375.07s-29.56-12.4-46.87,0c0,0-7.3-76.59-71.3-24.59,0,0-31-115-74-50,0,0-19-53-45-24,0,0-4-104-34-45,0,0-1-35-4-36,0,0-.88-14.74,7.06-26.87M1867.7,818.19s-11.33-5.23-9.88-7.46-44.55,31.77-55.55-26.23c0,0-55,48-74-35,0,0-64,44-78-34L1661,695l-10.68,20.5s-16,27-32,6-20-23-8-42l-7,15.5s-42,32.5-42-15.5c0,0,10-39,12-43s-12,43-12,43-16.27-4.27-8.63-30.64,33.64-76.36,33.64-76.36M1661,695l8.32-17.5m-59,2,14-26m-51-17s10-22,17-28m153,119-15,22m86.3,2.59-12.3,32.41m-135,151s-78,40-155,29m0,0s14,58,1,74m84-569s17,24,51,42,157,142,157,142M1530.16,915.76s-27.89-19.26-53.89-13.26-61.4,12.68-68.2-1.16-66.41-74.24,37.2-142.84c74-49,121.26-57.73,121.26-57.73m-9.26,92.73c-24-6-86.62,25.13-86.62,25.13,29.39-50.88,185.62-82.25,185.62-82.25M1518.79,879.64c38.53-8.86,114.34,19.55,114.34,19.55" transform="translate(-1381.36 3.04)"/></svg>