<?xml version="1.0" encoding="utf-8"?>
<!-- Generator: Adobe Illustrator 24.3.0, SVG Export Plug-In . SVG Version: 6.00 Build 0)  -->
<svg version="1.1" id="Ebene_1" focusable="false" xmlns="http://www.w3.org/2000/svg" xmlns:xlink="http://www.w3.org/1999/xlink"
	 x="0px" y="0px" viewBox="0 0 20 20" style="enable-background:new 0 0 20 20;" xml:space="preserve">
<style type="text/css">
	.st0{fill:#FFFFFF;}
</style>
<path class="st0" d="M14.2,9.35L7.81,5.46c-0.57-0.32-1.3,0.09-1.3,0.76v7.55c0,0.67,0.72,1.08,1.3,0.76l6.39-3.67
	C14.79,10.54,14.79,9.68,14.2,9.35z M19,10c0-4.97-4.03-9-9-9s-9,4.03-9,9s4.03,9,9,9S19,14.97,19,10z M2.74,10
	c0-4.01,3.25-7.26,7.26-7.26s7.26,3.25,7.26,7.26s-3.25,7.26-7.26,7.26S2.74,14.01,2.74,10z"/>
</svg>
