<?xml version="1.0" encoding="utf-8"?>
<!-- Generator: Adobe Illustrator 24.3.0, SVG Export Plug-In . SVG Version: 6.00 Build 0)  -->
<svg version="1.1" id="Ebene_1" xmlns="http://www.w3.org/2000/svg" xmlns:xlink="http://www.w3.org/1999/xlink" x="0px" y="0px"
	 viewBox="0 0 778 1080" style="enable-background:new 0 0 778 1080;" xml:space="preserve">
<style type="text/css">
	.st0{display:none;}
	.st1{display:inline;}
	.st2{fill:none;stroke:#FFFFFF;stroke-width:7;stroke-linecap:round;stroke-linejoin:round;stroke-miterlimit:10;}
</style>
<g id="Ebene_1_1_" class="st0">
	<g id="cu69dd_1_" class="st1">
		
			<image style="overflow:visible;enable-background:new    ;" width="540" height="961" id="cu69dd_2_" xlink:href="F714240C11E7039A.jpeg"  transform="matrix(0.9981 0 0 0.9981 165.8882 60.3475)">
		</image>
	</g>
</g>
<g id="Ebene_2_1_">
	<path class="st2" d="M474.5,792.3c0,0,17.9-61.3,43.4-68.9c25.5-7.7,68.9-58.7,107.2-30.6c38.3,28.1,66.4,53.6,66.4,53.6
		 M438.2,1030.5c19.3,19.3,74.6-26.4,97.6-26.4s86.8-56.2,102.1-81.7s45.9-53.6,102.1-81.7c56.2-28.1-10.2-28.1-28.1-51.1
		c-39.6-50.9-58.7-12.8-109.8,7.7c-43.3,17.3-71.9,168.8-159.1,229.9c-15.6,10.9-33,18.9-52.8,22.8c-130.2,25.5-89.4-25.5-76.6-61.3
		S500,958.2,500,958.2 M491.4,751.3c0,0-37.3-10.1-80.7,48.6s-78,29.1-67.1,170.3 M643,746.3c-40.8-43.4-86.8,23-86.8,23
		 M267.7,427.2c-10.2-28.1-2.5-89.4-23-109.8c-20.4-20.4-20.4-48.5-43.4-114.9c-39.6-114.4-40.8,94.5-23,122.5s7.7,71.5,20.3,99.7
		c12.6,28.2,5.3,27.9,0.2,94.3S308.5,776.9,331.5,805c23,28.1,24.7,49.8,24.7,49.8 M326.4,396.5c0,0-28.1-63.8-28.1-74
		s-35.8-83.1-48.5-102.1c-20.4-30.6-121.2-258.1-75.9-43.6 M385.1,383.8c0,0-40.8-76.6-40.8-97s-20.4-74-58.7-104.7
		s-48.5-68.9-74-107.2s-85.6-94.8-49.2,27.9 M487.2,457.8c0,0,2.5-56.2-43.4-99.6s-38.3-137.9-66.4-168.5S245.6,14.8,218.3,85.7
		 M561.3,697.7c0,0-25.6-30.5-25.6-38.2s5.1-29.7,0-40.4s20.4-112.8,0-161.3c-20.4-48.5-45.4-150.5-44.4-177.4
		c1-26.9,3.9-107.4-42.4-47.3c-25.5,33.2-12.3,117.4-12.3,117.4 M444,241.1c-17.7-35.4-47.7-6.4-47.7-6.4 M124.7,493.5
		c0,0,25.5-38.3,7.9-79.1c-17.6-40.9-15.6-40.8,0-152.3c6.3-45.1-3.8-47.2-18.8-29.8c-22,25.6-54.5,93.5-60.6,128.5
		C43,419.5,73.6,470.6,83.9,529.3c10.2,58.7,33.2,94.5,43.4,176.2s86.8,86.8,86.8,86.8 M167.7,220.3c-36.2-107.3-53.8,12-53.8,12
		 M153.2,66.3c0,0-52.3-37.6-22.5,114.4 M124.2,684.3c0,0-17.3,0.7-37.5,13.3S81.3,754,43.5,806.4s68.4,42,107.4,48.5
		s88.7-42.2,104-44.7c15.3-2.5,45.2-52.7,45.2-52.7 M116.5,647c0,0-36.7,34-46.1,37.3c-9.4,3.2-37.5,69.6-40.1,92.6
		c-2.5,23-38.3,33.2,12.8,91.9s81.7,94.5,130.2,58.7 M129.2,941.3c25,52,115.5-6,153.8-41.8c38.3-35.7,63.7-23.8,63.7-23.8"/>
</g>
</svg>
