<?xml version="1.0" encoding="utf-8"?>
<!-- Generator: Adobe Illustrator 24.3.0, SVG Export Plug-In . SVG Version: 6.00 Build 0)  -->
<svg version="1.1" id="Ebene_2" xmlns="http://www.w3.org/2000/svg" xmlns:xlink="http://www.w3.org/1999/xlink" x="0px" y="0px"
	 viewBox="0 0 1920 1080" style="enable-background:new 0 0 1920 1080;" xml:space="preserve">
<style type="text/css">
	.st0{fill:none;stroke:#FFFFFF;stroke-width:7;stroke-linecap:round;stroke-linejoin:round;stroke-miterlimit:10;}
</style>
<path class="st0" d="M1012.56,556.5c0,0-22.38,47.4-28.6,86.66s23.33,98.98,39.13,200.35c15.8,101.37-80.03,202.09-80.03,202.09
	 M1016.51,599.94c-15.8,43.45-14.48,146.14,35.55,256.73c50.03,110.59,7.9,196.17,7.9,196.17 M1160.01,1066
	c0,0-40.14-111.34-99.07-187.32 M483.31,364.28c-23.7,63.19,25.01,110.59,93.47,157.99s111.91-100.06,102.69-168.52
	c-9.22-68.46-113.22-73.73-113.22-73.73C541.23,282.65,507,301.09,483.31,364.28z M1013.87,284.36
	c-42.13-44.37-89.53-1.71-115.01,35.95s-21.91,67.67,37.29,85.44c59.2,17.77,77.72-17.77,77.72-17.77
	C1027.04,366.91,1056,328.73,1013.87,284.36z M992.7,405.75c18.32,54.64,27.76,71.75,89.64,69.12
	c61.88-2.63,52.66-53.98,60.56-123.76s-109.95-36.58-109.95-36.58 M600.48,568.35c0,0-38.81-56.61-93.79-36.86
	c-54.98,19.75-60.25,131.65-19.43,135.6C528.07,671.04,633.39,651.29,600.48,568.35z M491.21,345.58c0,0-90.85,0.27-110.6,81.89
	s60.21,101.37,85.4,104.01c25.19,2.63,40.8,0.29,40.68,0c-5.58-13.17,22.18-45.98,22.18-45.98 M606.75,575.72
	c0,0,23.27-14.42,13.1-48.42 M923.56,290.75c0.52-19.55-4.47-33.11-24.69-65.04s-91.69-2.3-107.49,14.81
	c-15.8,17.12-13.84,68.06,30.28,115.86c31.6,34.23,57.93,38.18,69.75,24.18 M834.82,369.55c0,0-117.03-38.95-119.08,18.7
	s20.34,160.35,73,157.71c52.66-2.63,101.19-53.71,88.21-157.99 M1007.56,443.63c0,0-102.4,15.81-64.5,93.3
	c37.9,77.49,106.92,6.55,92.82-66.6 M1024.85,540.38 M1024.85,540.38c0,0,28.89,61.15,93.88,35.34c64.98-25.81,90-57.4,61.03-94.27
	c-28.96-36.86-32.93-30.88-48.72-37.82 M1171.69,471.52c44.6-0.72,56.78-12.45,75.68-19.28c18.9-6.84,39.02-78.74-17.97-114.15
	c-57-35.41-88.75,37.18-88.75,37.18 M1191.7,507.1c15.71,17.8,94.33,8.08,55.68-54.86 M722.88,459.09
	c-10.49-15.82-42.09-25.03-54.31-7.74 M763.72,540.38c-55.31,66.82-2.62,101.7,51.36,118.81c53.98,17.12,96.11-34.23,114-77.12
	s-27.1-99.3-58.49-104.39 M632.19,518.53c6.47,23.48,63.45,101.11,108.03,76.78 M840.75,1045.59c0,0,57.93-71.09,90.84-118.49
	c32.91-47.4,29.74-86.89,13.55-139.55c-16.18-52.66-30.67-107.96-30.67-107.96c32.26-1.97,12.51-59.9,1.45-72.04 M847.39,661.62
	c7.18,18.64,44.05,31.8,67.09,17.98 M745.48,613.51c-22.2,6.98-66.01,39.09-62.38,96.08c3.62,56.98,75.37,52.29,129.35,47.02
	s16.22-94.05,16.22-94.05 M701.63,646.58c6.36-16.56-12.94-53.22-21.4-64.5 M552.27,658.6c0.5,41.54,33.73,62.47,66.64,61.15
	c32.91-1.32,43.45-14.48,64.73-28.93 M517.03,666.39c7.09,15.18,23.55,25.35,40.99,18.95 M921.77,597.43 M923.59,593.93
	c6.02,4.7,42.99,5.62,54.79-23.81 M986.2,449.24c2.66-20.44-35.21-39.95-35.21-39.95 M1118.73,575.72
	c11.38,50.82,83.41,49.24,108.43,29.49c25.01-19.75,25.01-72.41,6.53-90.19 M1250.44,450.56c16.21,8.51,97.23,62.63,123.86-8.53
	c26.63-71.16,21-150.16-15.02-162.01c-36.02-11.85-135.78-21.83-148.43,48.33c0,0-6.08-37.8-31.25-56.89s-95.95-0.66-96.15,35.18
	 M1254.26,497.3c11.07,13.12,69.72,30.18,92.4,9.8c22.68-20.38,23.21-32.98,20.31-50.38 M1372.75,445.9
	c37.41-1.31,97.97-39.49,99.28-80.3s5.5-100.77-99.28-76.71 M1281.16,512.85c6.56,16,40.02,74.6,73.32,27.52
	s16.55-51.14,13.73-68.85 M1246.11,566.51c20.54,4.47,100.67,24.42,100.76-17.15 M1374.55,500.61
	c18.49,0.59,115.69-39.8,65.77-83.46 M999.09,589.11c18.74,4.25,52.95,25.3,58.23-14.85 M757.5,356.68
	c12.2-31.3-18.78-64.81-50.02-92.87c-31.24-28.06-81.98-16.7-88.32,27.31 M782.36,256.09c0,0-52.45-23.59-53.31,28.48
	 M846.05,211.55c-104.63-80.32-160,15.81-165.35,34.4 M1007.56,255.15c0,0,89.25,56.47,107.69-13.3s15.8-107.96-26.33-104.01
	c-42.13,3.95-140.92-32.44-129.05,16.69C971.74,203.66,992.04,239.49,1007.56,255.15z M1162.29,263.81
	c31.24-38.59-40.02-52.26-40.02-52.26 M1037.75,267.66c0,0-22.81,24.85,16.15,42.3 M1244.22,283.37
	c42.08-61.17-84.21-92.87-118.79-93.13 M695.72,219.25C683,208.5,682.1,203.66,582.98,202.64s-39.91,84.16-39.91,84.16
	 M1319.72,238.17c4.36-66.86-49.12-79.27-94.9-65.74c-45.78,13.54-21.07,36.92-21.07,36.92s68.87-37.79,87.25,17.35
	c9.87,29.62-24.36,48.05-24.36,48.05 M1347.24,276.72c0,0-7.11-44.19-55.04-45.46 M1095.82,137.58c18.75-16.06,8.89-51.09-2.96-76.1
	c-11.85-25.01-71.09-42.13-152.72,6.58s38.36,141.26,38.36,141.26 M883.86,214.13c0,0,16.79-23.63,19.43-47.33
	s-21.06-34.23-63.04-38.25c-41.98-4.02-31.26,60.59-31.26,60.59 M507.72,317.66c-4.55-8.44-33.63-7.36-67.86-4.73
	s-4.15,43.75-4.15,43.75 M528.86,221.48c0,0-46.15-28.49-61.65-7.36c-15.5,21.13-36.02,65.91-18.52,98.16 M1454.43,294.6
	c0,0,34.07-64.03-7.08-91.96c-41.14-27.94-100.67-39.37-143.98-18.51 M1357.78,171.25c17.4-24.52-2.92-55.79-17.4-75.54
	c-14.48-19.75-72.41-17.12-97.42,19.75c-25.01,36.86,21.03,52.11,21.03,52.11 M1170.21,197.77c10.2-23.01,4.29-53.35-20.61-87.46
	s-43.31,0-43.31,0 M1311.24,83.51c0,0,7.17-45.27-44.38-41.55c-51.55,3.72-76.57-0.23-104.21,27.42
	c-27.65,27.65-43.92,28.08-43.92,28.08 M1182.77,54.25c0,0-6.97-25.69-56.65-43.12s-58.14,25.84-58.14,25.84 M1368.21,152.04
	c22.57-21.34,19.56-62.92,0-97.78s-64.84,0-64.84,0 M807.75,164.3c-15.22-20.93-112.48-43.58-149.35-4.09
	c-12.58,13.47-29.87,43.39-29.87,43.39 M919.81,85.95c-45.35-3.17-57.58,45.66-57.58,45.66"/>
</svg>
