<svg id="Ebene_2" data-name="Ebene 2" xmlns="http://www.w3.org/2000/svg" viewBox="0 0 603.09 1049"><defs><style>.cls-1{fill:none;stroke:#fff;stroke-linecap:round;stroke-linejoin:round;stroke-width:7px;}</style></defs><path class="cls-1" d="M433.07,1059V411.46S426,188.19,726.84,17c0,0,281.68,123.61,299.88,394.46l2.43,647.54Zm26.53-26.41H1002V421.15s9.86-211.91-271.19-377.4c0,0-246.26,109-269.23,373.8Zm79.94-72.1H924V442.28s8.71-167.88-192.72-304.1c0,0-189.17,104-192.77,300.77Zm20.63-27.38,339.62.34.87-471.55S913.6,285.83,729.32,166.71c0,0-170.24,95-169.15,297.7Zm-9,27.4v72.08m179.87-72.1v72.08m180.48-72.08v72.08M924,954.44l78.35.63M924,789.17l78.35.63M924,636.06l78.35.63M924,480.93l78.35.63M901.68,330.86l78.34.63m-500.15-1.64,78.35.63m0-1.57-78.35.48M461.62,481.48l75.79-.32M461.62,635.6l75.79-.32M461.62,788.71l75.79-.33M461.62,956l75.79-.33M730.78,43.75v94.08m97,83.3,56.63-56.62M631.48,220l-57.37-57.38m157,321a75.54,75.54,0,1,0,75.54,75.53A75.54,75.54,0,0,0,731.1,483.59Zm0,154.12a75.54,75.54,0,1,0,75.54,75.53A75.54,75.54,0,0,0,731.1,637.71Zm37.54,294.21a75.54,75.54,0,1,0-74.62.26M731.1,331.49A75.54,75.54,0,1,0,806.64,407,75.54,75.54,0,0,0,731.1,331.49ZM663.58,220c-1,2.12-1.9,4.29-2.71,6.49-6.56,17.75-7.09,37.83-.69,55.71a73.43,73.43,0,0,0,37.91,41.53,78.13,78.13,0,0,0,59.13,2.36c17.12-6.32,33.87-19,41.41-36.06,8.67-19.61,11.16-43,3.12-63.26m-54.17-46.66A77.29,77.29,0,0,0,705,182.94M897.59,723.71a75.21,75.21,0,0,0-8.1-3.75,75.56,75.56,0,1,0,10.45,135.62M897.27,568.2a75.56,75.56,0,1,0,2.34,131.87m-3.15-283.82a75.21,75.21,0,0,0-8.1-3.75,75.56,75.56,0,1,0,10.45,135.62m-335.42.64a75.55,75.55,0,1,0,10.45-135.62,75.37,75.37,0,0,0-8.11,3.75m-4.2,289.84a75.6,75.6,0,1,0,2.34-131.86m-2.34,280.91a75.6,75.6,0,1,0,2.34-131.86M829.36,263.57a76.29,76.29,0,0,0-33.82,37.89c-10.95,27-4.63,59.43,15.35,80.55,20.64,21.81,54,28.91,82,18.27m-323.29-3.63c27.95,10.64,61.35,3.54,82-18.27,20-21.12,26.3-53.57,15.35-80.55a76.29,76.29,0,0,0-33.82-37.89M897.67,877.18c-21.58-13.87-50-11.84-72.27-.69-21.3,10.14-35.49,30.42-39.15,53.31m-112.68.44c-3.66-22.9-17.86-43.18-39.15-53.31-22.31-11.16-50.7-13.19-72.28.69M474,1015.27H986.75l3.82-585.09S967.34,175.77,730.84,65c0,0-230.41,86-256.78,365.82ZM731.76,687.05a25.85,25.85,0,1,0,25.84,25.84A25.85,25.85,0,0,0,731.76,687.05Zm18.35,3.88c10.08-7.94,14.39-22,9.93-34.15C753.49,639,730.47,631,714.55,641.67c-16.67,11.15-17.43,37.15-1.61,49.42m-.16,42.47C697,745.83,697.72,771.83,714.39,783c15.92,10.66,38.94,2.71,45.49-15.11,4.46-12.12.15-26.2-9.93-34.15m-41.53-39.37c-7.94-10.08-22-14.39-34.14-9.94-17.83,6.56-25.77,29.58-15.12,45.5,11.16,16.67,37.16,17.43,49.42,1.61m43.83-.57c12.26,15.82,38.26,15.06,49.42-1.61,10.65-15.92,2.71-38.94-15.12-45.5-12.12-4.46-26.2-.15-34.14,9.93M731.81,534a25.85,25.85,0,1,0,25.84,25.84A25.84,25.84,0,0,0,731.81,534Zm18.35,3.88c10.08-7.94,14.39-22,9.94-34.15-6.56-17.82-29.58-25.77-45.5-15.11C697.93,499.76,697.17,525.76,713,538m-.16,42.47c-15.82,12.27-15.06,38.27,1.61,49.42,15.92,10.66,38.94,2.71,45.5-15.11,4.45-12.12.14-26.2-9.94-34.15m-41.52-39.37c-8-10.08-22-14.39-34.15-9.94-17.82,6.56-25.77,29.58-15.11,45.5,11.15,16.67,37.15,17.43,49.42,1.61m43.82-.57c12.27,15.82,38.26,15.06,49.42-1.61,10.65-15.92,2.71-38.94-15.12-45.5-12.12-4.46-26.2-.15-34.14,9.93m-20.8-159.79a25.84,25.84,0,1,0,25.84,25.84A25.84,25.84,0,0,0,731.82,380.92Zm18.35,3.87c10.08-7.94,14.39-22,9.93-34.14-6.55-17.83-29.57-25.77-45.49-15.12C697.94,346.69,697.18,372.69,713,385m-.16,42.48c-15.82,12.27-15.06,38.26,1.61,49.42,15.92,10.65,38.94,2.71,45.49-15.12,4.46-12.12.15-26.2-9.93-34.14m-41.53-39.38c-7.94-10.08-22-14.39-34.14-9.93-17.83,6.56-25.77,29.58-15.12,45.49,11.16,16.67,37.15,17.44,49.42,1.62m43.83-.58c12.26,15.82,38.26,15.06,49.41-1.61,10.66-15.92,2.71-38.94-15.11-45.49-12.12-4.46-26.2-.15-34.15,9.93m-20.8-157.71a25.85,25.85,0,1,0,25.84,25.84A25.84,25.84,0,0,0,731.82,229.93Zm18.35,3.88c10.08-7.94,14.39-22,9.94-34.15-6.56-17.82-29.58-25.77-45.5-15.11C697.94,195.7,697.18,221.7,713,234m-.16,42.47c-15.82,12.27-15.06,38.27,1.61,49.42,15.92,10.66,38.94,2.71,45.5-15.11,4.45-12.12.14-26.2-9.94-34.15m-41.52-39.37c-8-10.08-22-14.39-34.15-9.94-17.82,6.56-25.77,29.58-15.11,45.5,11.15,16.67,37.15,17.43,49.42,1.61m43.82-.57c12.27,15.82,38.26,15.06,49.42-1.61,10.65-15.92,2.71-38.94-15.12-45.5-12.11-4.46-26.2-.15-34.14,9.93M730.81,840.07a25.85,25.85,0,1,0,25.84,25.85A25.85,25.85,0,0,0,730.81,840.07ZM749.16,844c10.08-7.94,14.39-22,9.93-34.14C752.54,792,729.52,784,713.6,794.69c-16.67,11.16-17.43,37.15-1.61,49.42m39,88.46c13.66-12.3,12.35-34.54-2-45.82m-37.17-.16c-14.35,11.12-15.17,34.29-1.93,46.61m-2.43-85.83c-7.94-10.08-22-14.39-34.14-9.93C655.5,844,647.56,867,658.21,882.93c11.16,16.67,37.15,17.43,49.42,1.61m43.83-.57c12.26,15.82,38.26,15.06,49.41-1.61,10.66-15.92,2.71-38.94-15.11-45.5-12.12-4.45-26.2-.14-34.15,9.94m40.44-241.89c7,9,19.77,12,30.31,8a24.87,24.87,0,0,0,15.7-27.11,27.59,27.59,0,0,0-9-16.56m-32.39,96.67c11.43.25,21.74-7.82,25.29-18.51a24.86,24.86,0,0,0-11.16-29.28,27.53,27.53,0,0,0-18.55-3.41M836,565.54c-.75,11.41,6.85,22.06,17.38,26.08a24.86,24.86,0,0,0,29.74-9.87,27.52,27.52,0,0,0,4.22-18.38M839.33,704a27.47,27.47,0,0,0,7.79-17.18A24.86,24.86,0,0,0,829.45,661c-10.81-3.19-23.31.68-29.63,10.2M895.49,703a27.53,27.53,0,0,0-5.28-18.11,24.87,24.87,0,0,0-30.27-8.12c-10.27,4.63-17.24,15.71-15.83,27M890.88,568.9c-8.83,11.42-5.84,29.29,6,37.46m.85,57.54c-7.09,9.46-6.6,23.5.8,32.64M793.06,759c7,9,19.77,12,30.31,8a24.84,24.84,0,0,0,15.7-27.11,27.53,27.53,0,0,0-9-16.56M797.65,820c11.43.25,21.74-7.82,25.29-18.51a24.88,24.88,0,0,0-11.17-29.28,27.53,27.53,0,0,0-18.55-3.41M837,719.66c-.75,11.41,6.85,22.06,17.38,26.08a24.85,24.85,0,0,0,29.74-9.87,27.53,27.53,0,0,0,4.22-18.38m-48,140.66A27.52,27.52,0,0,0,848.13,841a24.85,24.85,0,0,0-17.67-25.87c-10.81-3.19-23.31.68-29.63,10.2m95.68,31.78A27.59,27.59,0,0,0,891.22,839,24.86,24.86,0,0,0,861,830.85c-10.28,4.62-17.25,15.7-15.84,27M891.9,723c-8.83,11.42-5.85,29.29,6,37.46m.86,57.54c-7.1,9.46-6.61,23.5.8,32.64M793.06,452.82c7,9,19.77,12,30.31,8a24.84,24.84,0,0,0,15.7-27.11,27.51,27.51,0,0,0-9-16.56m-32.38,96.67c11.43.24,21.74-7.82,25.29-18.51A24.87,24.87,0,0,0,811.77,466a27.53,27.53,0,0,0-18.55-3.41M837,413.45c-.75,11.41,6.85,22.06,17.38,26.08a24.87,24.87,0,0,0,29.74-9.87,27.53,27.53,0,0,0,4.22-18.38m-48,140.66a27.54,27.54,0,0,0,7.78-17.18,24.85,24.85,0,0,0-17.67-25.87c-10.81-3.19-23.31.68-29.63,10.2m95.68,31.78a27.57,27.57,0,0,0-5.29-18.11A24.86,24.86,0,0,0,861,524.64c-10.28,4.62-17.25,15.7-15.84,27.05M891.9,416.81c-8.83,11.42-5.85,29.29,6,37.46m.86,57.54c-7.1,9.46-6.61,23.5.8,32.64M669.22,820.09c-7-9-19.77-12-30.31-8a24.85,24.85,0,0,0-15.7,27.12,27.56,27.56,0,0,0,9,16.55m32.38-96.66c-11.42-.25-21.74,7.81-25.28,18.51a24.85,24.85,0,0,0,11.16,29.27,27.53,27.53,0,0,0,18.55,3.41m-43.82,49.14c.75-11.4-6.85-22.06-17.38-26.08a24.87,24.87,0,0,0-29.74,9.87,27.55,27.55,0,0,0-4.22,18.39m48-140.67a27.5,27.5,0,0,0-7.79,17.18A24.84,24.84,0,0,0,631.82,764c10.81,3.19,23.31-.67,29.63-10.2M565.78,722a27.51,27.51,0,0,0,5.28,18.11,24.86,24.86,0,0,0,30.26,8.12c10.28-4.62,17.25-15.7,15.84-27M570.38,856.1c8.83-11.42,5.85-29.28-6-37.46m-.85-57.54c7.09-9.46,6.6-23.5-.8-32.64M669.22,669c-7-9-19.77-12-30.31-8a24.86,24.86,0,0,0-15.7,27.12,27.53,27.53,0,0,0,9,16.55m32.38-96.66c-11.42-.25-21.74,7.81-25.28,18.51a24.84,24.84,0,0,0,11.16,29.27,27.53,27.53,0,0,0,18.55,3.41m-43.82,49.14c.75-11.4-6.85-22.06-17.38-26.07a24.85,24.85,0,0,0-29.74,9.86,27.55,27.55,0,0,0-4.22,18.39m48-140.67a27.5,27.5,0,0,0-7.79,17.18A24.86,24.86,0,0,0,631.82,613c10.81,3.19,23.31-.68,29.63-10.21M565.78,571a27.49,27.49,0,0,0,5.28,18.11,24.86,24.86,0,0,0,30.26,8.12c10.28-4.62,17.25-15.7,15.84-27M570.38,705c8.83-11.42,5.85-29.28-6-37.45M563.57,610c7.09-9.45,6.6-23.5-.8-32.64m230.06,339c7,9,19.76,12,30.3,8a24.86,24.86,0,0,0,15.7-27.12,27.53,27.53,0,0,0-9-16.56m7-3.67c-.74,11.41,6.86,22.07,17.39,26.08a24.84,24.84,0,0,0,29.73-9.87,27.47,27.47,0,0,0,4.23-18.38m3.51,5.54c-8.83,11.41-5.85,29.28,6,37.45M559.57,885.6c2.26,11.2,12.37,19.51,23.59,20.63A24.85,24.85,0,0,0,609.29,889a27.53,27.53,0,0,0-.72-18.85m7.91-.16c-5.75,9.88-3.69,22.8,3.95,31.09a24.86,24.86,0,0,0,31,4.41,27.54,27.54,0,0,0,12-14.58m.68,6.52c-13,6.29-18.28,23.61-11.34,36.19m12.17-631.39a32.43,32.43,0,0,0-18.34,11.09c-12.61,15.37-4.93,38.57,12.58,46.34m1.9-.22a32.37,32.37,0,0,0-21-4.35c-19.69,2.68-29.86,24.91-22.31,42.51m2.61-3.11a30.19,30.19,0,0,0-10.33-17.09c-14.31-11.74-35.92-4.59-43.16,11.72M629,262.45a32.42,32.42,0,0,0-3.24,21.18c3.72,19.53,26.45,28.51,43.64,20M801.3,361c17.51-7.76,25.19-31,12.58-46.34a32.45,32.45,0,0,0-18.34-11.09m47.16,95.38c7.55-17.61-2.61-39.84-22.31-42.52a32.37,32.37,0,0,0-21,4.35m94.18,29.68c-7.23-16.31-28.85-23.46-43.16-11.72a30.24,30.24,0,0,0-10.33,17.09m-49-90.77c17.19,8.47,39.92-.51,43.64-20a32.35,32.35,0,0,0-3.23-21.18" transform="translate(-429.56 -13.5)"/></svg>