<?xml version="1.0" encoding="utf-8"?>
<!-- Generator: Adobe Illustrator 24.3.0, SVG Export Plug-In . SVG Version: 6.00 Build 0)  -->
<svg version="1.1" xmlns="http://www.w3.org/2000/svg" xmlns:xlink="http://www.w3.org/1999/xlink" x="0px" y="0px"
	 viewBox="0 0 1920 1080" style="enable-background:new 0 0 1920 1080;" xml:space="preserve">
<style type="text/css">
	.st0{display:none;}
	.st1{display:inline;}
	.st2{fill:none;stroke:#FFFFFF;stroke-width:7;stroke-linecap:round;stroke-linejoin:round;stroke-miterlimit:10;}
</style>
<g id="Ebene_1" class="st0">
	<g class="st1">
		<path d="M433.41,745.94c0-97.84-0.92-195.68,0.27-293.51c1.12-91.78,28.96-175.25,83.82-249.33
			c31.38-42.38,69.24-78.15,111.17-109.85c30.03-22.71,61.96-42.49,94.13-61.92c3.26-1.97,6.02-1.66,9.08,0.31
			c34.91,22.52,70.06,44.67,102.79,70.42c34.05,26.79,65.6,56.1,92.64,90.07c45.24,56.83,74.7,120.77,86.72,192.58
			c5.18,30.93,6.91,62.08,6.89,93.41c-0.11,188.67-0.05,377.34-0.06,566.01c0,2.57-0.2,5.15,0.03,7.7c0.49,5.45-1.66,7.17-7.24,7.17
			c-188.67-0.15-377.34-0.14-566.01-0.18c-14.22,0-14.25-0.11-14.26-14.47c-0.01-99.47-0.01-198.94-0.01-298.41
			C433.39,745.94,433.4,745.94,433.41,745.94z M917.38,874.78c0.01,0,0.02,0,0.03,0c0,23.09,0.14,46.18-0.1,69.27
			c-0.06,5.58,1.42,8.05,7.43,7.91c13.52-0.32,27.06-0.29,40.58-0.01c5.83,0.12,7.67-2.1,7.65-7.8
			c-0.15-46.18-0.13-92.37,0.03-138.55c0.02-5.6-1.67-8.04-7.58-7.91c-13.52,0.28-27.06,0.29-40.58-0.01
			c-5.89-0.13-7.62,2.14-7.56,7.83C917.52,828.6,917.38,851.69,917.38,874.78z M536.92,875.07c0-23.33-0.12-46.66,0.09-69.98
			c0.05-5.47-1.85-7.47-7.3-7.37c-13.06,0.25-26.13,0.25-39.19,0.01c-5.59-0.1-7.95,1.72-7.93,7.61
			c0.15,46.42,0.14,92.85,0.01,139.27c-0.01,5.49,2.12,7.42,7.48,7.33c12.83-0.22,25.67-0.32,38.49,0.04
			c6.28,0.17,8.59-1.73,8.49-8.33C536.7,920.8,536.92,897.93,536.92,875.07z M920.91,334.98c8.17,0,16.34,0.03,24.5-0.01
			c7.83-0.04,7.86-0.3,5.1-7.94c-17.48-48.33-44.96-90.45-79.27-128.41c-3.59-3.97-5.57-3.24-8.8,0.11
			c-10.04,10.42-20.18,20.75-30.63,30.75c-3.96,3.79-3.87,6.41-0.38,10.41c23.66,27.07,42.92,56.97,56.91,90.14
			c1.65,3.91,4.08,5.1,8.06,5C904.58,334.84,912.75,334.98,920.91,334.98z M925.87,344.22c-8.17,0-16.35,0.22-24.5-0.07
			c-5.93-0.22-6.83,2.04-4.8,7.11c1.99,4.97,3.68,10.09,5.18,15.23c10.56,36.06,15.95,72.87,15.52,110.46
			c-0.07,6.27,1.67,8.8,8.26,8.6c13.06-0.4,26.15-0.39,39.2,0c6.62,0.2,8.47-2.47,8.29-8.68c-0.53-18.41,0.23-36.83-1.52-55.25
			c-2.3-24.24-6.78-48-13.22-71.44c-1.17-4.26-3.34-6.17-7.91-6.02C942.21,344.41,934.03,344.22,925.87,344.22z M529.24,344.2
			c-7.23,0-14.5,0.44-21.69-0.13c-6.79-0.54-9.17,2.49-10.91,8.63c-11.66,41.02-14.97,82.91-14.05,125.32
			c0.12,5.33,1.91,7.54,7.39,7.45c13.29-0.22,26.6-0.33,39.89,0.08c5.46,0.17,7.41-1.25,7.17-6.91c-0.6-14.46,0.66-28.88,2.08-43.27
			c2.87-29.13,8.97-57.56,18.65-85.18c1.78-5.08-0.16-6.12-4.73-6.02C545.11,344.35,537.17,344.22,529.24,344.2z M637.31,1009.07
			c25.67,0,51.33-0.12,77,0.09c5.59,0.05,8.07-1.52,7.88-7.51c-0.35-10.96-0.26-21.93-0.04-32.89c0.11-5.15-1.92-6.98-7.01-6.97
			c-51.8,0.11-103.6,0.12-155.39,0c-5.36-0.01-6.79,2.26-6.68,7.19c0.24,10.73,0.37,21.48-0.05,32.19c-0.24,6.16,1.88,8.08,8,8.02
			C586.44,1008.9,611.88,1009.07,637.31,1009.07z M816.26,1009.06c25.91,0,51.83-0.11,77.74,0.09c5.47,0.04,7.44-1.77,7.28-7.29
			c-0.32-10.96-0.43-21.95,0.03-32.91c0.25-5.93-2.44-7.14-7.46-7.13c-51.59,0.06-103.18,0.07-154.77-0.03
			c-5.07-0.01-7.16,1.83-7.06,6.97c0.21,10.5,0.37,21.02-0.06,31.51c-0.27,6.59,1.79,9.02,8.67,8.92
			C765.83,1008.86,791.04,1009.07,816.26,1009.06z M532.79,334.98c7.93,0,15.87-0.22,23.8,0.08c4.92,0.19,7.64-1.68,9.59-6.21
			c13.84-32.15,32.08-61.61,55.06-88.03c3.69-4.24,3.2-6.74-0.57-10.36c-9.74-9.38-19.43-18.87-28.58-28.82
			c-4.66-5.07-7.51-4.26-11.58,0.46c-15.56,18.05-30.07,36.86-42.56,57.19c-13.47,21.93-24.64,44.97-33.48,69.15
			c-1.74,4.77-1.09,6.86,4.53,6.63C516.91,334.76,524.86,335,532.79,334.98z M917.37,566.11c0,21.46,0.14,42.93-0.1,64.39
			c-0.06,5.48,1.72,7.38,7.24,7.25c13.76-0.3,27.53-0.22,41.29-0.01c4.93,0.08,7.2-1.34,7.18-6.7
			c-0.13-42.93-0.13-85.86-0.01-128.79c0.01-5.11-1.85-7.08-6.98-7.01c-13.3,0.2-26.61,0.34-39.89-0.07
			c-6.57-0.2-9.01,1.72-8.88,8.63C917.64,524.58,917.38,545.35,917.37,566.11z M917.38,717c0,21,0.2,42-0.12,62.99
			c-0.1,6.23,2.07,8.12,8.1,7.96c13.29-0.34,26.6-0.3,39.89-0.02c5.71,0.12,7.8-1.84,7.77-7.67c-0.17-41.99-0.18-83.98,0.01-125.98
			c0.03-5.97-2.24-7.61-7.86-7.48c-13.52,0.3-27.06,0.29-40.59,0.01c-5.44-0.12-7.37,1.65-7.3,7.21
			C917.53,675.01,917.38,696.01,917.38,717z M722.16,121.15c-0.01,0-0.03,0-0.04,0c0-8.64-0.04-17.27,0.02-25.91
			c0.02-3.82-0.44-6.13-5.04-3.33c-43.39,26.43-84.03,56.39-120,92.44c-3.33,3.33-3.76,5.73-0.17,9.21
			c10.37,10.09,20.61,20.32,30.61,30.78c3.5,3.67,5.61,3.28,8.88-0.24c24.12-25.95,51.93-47.55,80.83-67.8
			c3.44-2.41,5.05-5.09,4.97-9.24C722.05,138.43,722.16,129.79,722.16,121.15z M536.91,566.82c0-21.23-0.14-42.47,0.09-63.7
			c0.06-5.55-1.38-8.06-7.43-7.9c-13.06,0.34-26.14,0.29-39.2,0.02c-5.7-0.12-7.82,1.88-7.8,7.69c0.16,42.47,0.18,84.94-0.01,127.41
			c-0.03,6.04,2.44,7.55,7.96,7.44c12.83-0.27,25.68-0.37,38.5,0.04c6.16,0.19,8.1-1.85,8.01-7.98
			C536.73,608.83,536.92,587.82,536.91,566.82z M732.09,121.52c0.02,0,0.04,0,0.06,0c0,8.17,0.15,16.34-0.06,24.5
			c-0.11,4.32,1.14,7.42,4.77,10.11c27.93,20.71,55.3,42.12,79.46,67.29c3.53,3.68,5.73,3.01,8.98-0.37
			c10.01-10.44,20.18-20.74,30.63-30.73c3.82-3.65,3.75-5.79-0.01-9.45c-17.08-16.62-35.24-31.96-54.04-46.55
			c-19.74-15.31-40.48-29.2-61.46-42.74c-2.09-1.35-4.56-3.88-6.8-2.81c-2.93,1.4-1.39,5.03-1.46,7.66
			C731.97,106.12,732.09,113.82,732.09,121.52z M536.92,717.23c0-21.23-0.08-42.47,0.07-63.7c0.03-4.66-1.33-6.78-6.36-6.7
			c-13.76,0.23-27.54,0.25-41.3,0c-5.43-0.1-6.72,2.37-6.71,7.21c0.1,42.24,0.12,84.47-0.02,126.71c-0.02,5.64,2.36,7.25,7.59,7.16
			c13.06-0.21,26.14-0.27,39.2,0.04c5.8,0.14,7.7-1.96,7.64-7.71C536.77,759.24,536.92,738.23,536.92,717.23z M560.09,491.61
			c0,4.66,0.22,9.34-0.06,13.99c-0.29,4.88,0.8,8.21,5.83,10.53c7.07,3.25,11.69,9.22,13.66,16.85c0.84,3.25,1.51,4.6,4.92,2.19
			c9.64-6.82,19.92-7.27,30.37-1.98c2.99,1.52,4.32,1.77,5.05-2.21c2.13-11.58,9.08-19.2,20.3-22.68c3.63-1.13,3.66-2.47,1.72-5.33
			c-6.41-9.5-7.25-19.51-1.8-29.72c1.76-3.31,0.71-4.7-2.5-5.37c-11.91-2.45-19.36-9.63-22.54-21.3c-0.8-2.91-1.98-3.02-4.35-1.22
			c-9.51,7.23-19.83,7.43-30.32,2.56c-3.4-1.58-4.83-1.58-5.51,2.52c-0.89,5.38-2.83,10.84-7.28,13.98
			c-7.15,5.04-8.3,11.7-7.52,19.5C560.3,486.45,560.09,489.04,560.09,491.61z M560.09,644.03c0,4.43,0.33,8.89-0.08,13.28
			c-0.56,6.01,1.3,10.01,6.88,13.01c5.71,3.07,9.35,8.43,11,14.77c0.85,3.24,1.79,4.52,5.11,2.39c9.82-6.29,20.06-6.89,30.55-1.67
			c2.4,1.19,4.13,1.96,4.78-1.94c1.98-12.01,9.39-19.42,20.71-23.16c2.39-0.79,3.89-1.49,1.91-4.22c-7.14-9.81-7.8-20.18-2.29-30.93
			c1.47-2.87,0.62-4.39-2.36-5c-11.81-2.45-19.52-9.3-22.7-21.05c-0.64-2.37-1.41-3.79-4.24-1.71c-9.74,7.18-20.19,7.91-30.89,2.36
			c-3.59-1.86-4.37-0.33-5.01,2.75c-0.99,4.85-2.34,10.11-6.31,12.98c-7.17,5.2-7.63,12.11-7.11,19.75
			C560.24,638.42,560.08,641.23,560.09,644.03z M811.88,624.89c9.14,11.24,10.59,22.59,4.16,34.59c-1.56,2.91-0.28,3.81,2.21,4.19
			c11.9,1.85,19.07,9.18,22.93,20.08c1.18,3.34,2.42,3.96,5.46,2.01c9.86-6.33,20.08-7.02,30.44-1.24c2.74,1.53,4.17,1.57,4.51-2.08
			c0.67-7.1,4.21-12.82,9.49-17.38c2.4-2.07,3.17-4.41,3.16-7.36c-0.04-11.67-0.06-23.34,0.01-35.01c0.02-3.09-1.02-5.21-3.75-6.91
			c-6.54-4.06-11.45-9.51-13.43-17.21c-0.64-2.5-1.33-4.42-4.61-2.1c-9.86,6.99-20.32,7.5-31.04,1.99
			c-2.48-1.28-3.94-0.94-4.49,1.96C834.4,613.92,825.78,621.46,811.88,624.89z M875.71,745.62c-11.25,8.83-22.57,10.26-34.62,4.04
			c-4.23-2.18-4.07,1.69-4.58,3.82c-2.46,10.39-8.54,17.55-18.7,20.85c-4.16,1.35-5.22,2.64-2.52,6.7
			c6.04,9.1,6.61,18.88,1.36,28.51c-2.22,4.07-0.94,5.19,2.92,5.88c10.95,1.97,17.83,8.79,21.31,19.02
			c1.28,3.75,2.22,4.98,6.11,2.47c9.59-6.19,19.73-6.7,29.85-1.2c3.12,1.69,4.42,1.69,4.86-2.28c0.76-6.78,4.21-12.33,9.2-16.84
			c2.26-2.04,3.38-4.23,3.36-7.28c-0.08-11.67-0.02-23.35-0.03-35.02c0-2.36,0.03-4.8-2.38-6.19
			C883.38,763.2,877.9,755.99,875.71,745.62z M610.72,745.88c-11.06,8.45-22.44,10.01-34.5,4.06c-2.19-1.08-3.54-1.02-4.01,1.58
			c-1.33,7.41-4.91,13.51-10.53,18.48c-1.76,1.56-1.59,3.79-1.59,5.89c-0.01,11.9,0.07,23.81-0.05,35.71
			c-0.03,3.4,1.11,5.77,4.06,7.48c6.37,3.68,10.54,9.12,12.36,16.26c0.71,2.78,1.8,4.38,4.75,2.31c10.21-7.17,20.78-7.37,31.66-1.62
			c2.01,1.06,3.44,1.25,3.87-1.67c2.04-13.91,11.03-21.41,24.36-25.11c-7.99-11.11-10.45-22.33-3.7-34.41
			c1.07-1.91,1.01-3.92-1.54-4.34C622.01,768.21,614.54,759.21,610.72,745.88z M843.25,536.07c11.51-8.92,22.83-10.31,34.83-4.02
			c2.3,1.21,3.53,0.52,3.96-1.9c1.33-7.41,4.92-13.51,10.56-18.46c1.78-1.56,1.62-3.78,1.62-5.87c0-11.9-0.09-23.81,0-35.71
			c0.03-3.39-1.18-5.59-4.12-7.42c-5.92-3.69-10.35-8.81-12.05-15.73c-1.07-4.37-2.72-4.47-6.23-2.18
			c-9.37,6.13-19.29,6.48-29.21,1.37c-3.31-1.71-4.57-1.95-5.36,2.42c-2.02,11.28-8.65,18.97-19.78,22.24
			c-3.71,1.09-4.48,2.23-2.08,5.58c6.57,9.21,7,19.11,2.04,29.11c-1.57,3.16-1.25,4.3,2.15,5.33
			C831.84,514.53,840.61,521.82,843.25,536.07z M614.73,289.54c-19.54,28.31-33.15,58.71-42.56,93.23
			c7.68-4.55,13.83-6.1,20.58-5.78c6.78,0.32,12.1,3.98,17.81,7.33c3.33-13.2,10.63-21.69,23.84-24.28
			c2.18-0.43,4.35-1.01,2.76-4.08c-6.37-12.27-4.44-23.81,3.94-35.07C623.72,317.3,616.52,305.89,614.73,289.54z M839.26,287.67
			c-1.02,16.22-7.42,27.06-22.55,31.28c-3.9,1.09-1.46,3.03-0.43,4.63c6.51,10.1,7.41,20.47,1.27,31.01
			c-1.8,3.1-1.05,3.82,2.23,4.33c11.39,1.78,19.17,8.24,22.68,19.24c1.36,4.27,2.92,4.46,6.32,2.15c6.72-4.57,14.24-5.72,22.09-3.93
			c3.43,0.78,6.71,2.25,10.71,3.63C872.55,346.66,858.56,316.71,839.26,287.67z M941.34,1009.05c8.4,0,16.79-0.11,25.19,0.05
			c4.34,0.08,6.47-1.43,6.41-6.04c-0.14-11.66-0.12-23.32,0-34.98c0.05-4.43-1.78-6.3-6.25-6.27c-16.79,0.12-33.58,0.1-50.37,0.04
			c-4.02-0.02-6,1.45-5.95,5.74c0.13,11.89,0.13,23.79-0.01,35.68c-0.05,4.18,1.62,5.9,5.79,5.83
			C924.55,1008.95,932.95,1009.05,941.34,1009.05z M512.79,1009.1c0-0.02,0-0.03,0-0.05c8.4,0,16.8-0.09,25.2,0.04
			c4.05,0.06,5.99-1.38,5.94-5.69c-0.15-11.9-0.14-23.8-0.01-35.69c0.05-4.2-1.72-5.87-5.83-5.86c-16.33,0.07-32.66,0.08-48.99-0.03
			c-4.36-0.03-6.45,1.61-6.41,6.14c0.1,11.66,0.09,23.33-0.02,34.99c-0.04,4.46,1.88,6.29,6.33,6.19
			C496.92,1008.98,504.86,1009.1,512.79,1009.1z M638.37,1018.79c0-0.16,0-0.32,0-0.49c-26.12,0-52.25,0.09-78.37-0.08
			c-5.18-0.03-7.13,1.85-6.95,6.96c0.15,4.27,0.01,7.78,6.03,7.76c52.25-0.13,104.49-0.12,156.74,0c5.76,0.01,6.39-3.05,6.29-7.57
			c-0.09-4.19-0.45-6.82-6.09-6.75C690.14,1018.98,664.26,1018.79,638.37,1018.79z M816.32,1032.9c25.91,0,51.81-0.11,77.72,0.09
			c5.5,0.04,7.35-1.85,7.29-7.32c-0.06-5.47-2.1-7.48-7.47-7.42c-18.9,0.2-37.8,0.17-56.7,0.17c-32.91,0-65.82,0.04-98.72-0.13
			c-4.97-0.03-6.33,1.91-6.52,6.59c-0.25,6.09,1.96,8.19,8.09,8.13C765.43,1032.76,790.88,1032.9,816.32,1032.9z M722.05,71.34
			c-0.52-2.32,1.41-5.62-1.31-6.99c-2.21-1.12-4.2,1.47-6.11,2.64c-18.74,11.42-37.05,23.48-54.96,36.17
			c-28.06,19.88-54.29,41.9-78.6,66.24c-4.02,4.03-1.49,6.14,1.1,9.18c3.03,3.55,5.04,2.67,7.86-0.19
			c37.45-37.97,80.18-69.12,125.68-96.61C719.79,79.31,723.19,76.85,722.05,71.34z M485.98,334.82c5.12,1.62,6.96-1.87,8.51-6.29
			c6.02-17.18,13.22-33.86,21.66-50c16.18-30.95,36.1-59.29,59.78-84.94c3.77-4.09,1.77-6.33-0.97-9.27
			c-3.05-3.27-5.55-2.52-8.13,0.51c-3.48,4.08-7.07,8.05-10.55,12.13c-33.29,39.14-58.49,82.9-75.17,131.54
			C479.53,333.11,479.49,335.9,485.98,334.82z M459.29,874.89c0,23.08,0.08,46.16-0.06,69.23c-0.03,4.92,0.74,7.92,6.75,7.88
			c5.98-0.04,6.79-3.09,6.78-7.96c-0.09-46.16-0.09-92.31,0-138.47c0.01-4.93-0.92-7.9-6.86-7.89c-6.03,0.01-6.7,3.09-6.67,7.97
			C459.39,828.73,459.3,851.81,459.29,874.89z M968.57,334.89c6.41,1.19,6.13-1.88,4.5-6.72c-18.34-54.4-48.26-101.8-86.78-144.04
			c-2.33-2.55-4.41-4.88-8-1.33c-3.08,3.04-4.61,5.51-0.95,9.29c10.08,10.4,19.23,21.61,27.98,33.14
			c23.88,31.46,42.55,65.75,55.77,102.99C962.35,331.77,963.27,335.69,968.57,334.89z M732.13,70.92
			c-1.44,8.3,5.98,10.05,10.95,13.21c42.77,27.25,83.69,56.88,119.78,92.73c3.32,3.3,5.16,3.1,8.41-0.1
			c4.56-4.49,1.22-6.78-1.64-9.61c-39.52-39.12-84.92-70.51-131.44-100.47C732.69,63.14,731.8,65.73,732.13,70.92z M904.95,417.12
			c0.37-1.85-0.37-3.25-2.09-3.9c-1.96-0.74-3.7-0.2-5.08,1.32c-1.44,1.59-1.77,3.7-0.3,5.07c2.66,2.48,2.96,4.63,0.88,7.67
			c-1.18,1.73,0.14,3.55,1.53,4.95c0.96,0.96,2.53,1.89,1.33,3.46c-4.32,5.66,3.09,11.47-0.36,17.33c-0.91,1.55,3.89,3.21,1.71,5.97
			c-4.22,5.35,2.75,11.64-1.49,16.99c-0.16,0.2,0.52,1.27,0.99,1.75c1.89,1.89,1.53,3.59-0.1,5.46c-1.34,1.54-1.83,3.56-0.39,5.13
			c2.34,2.56,2.36,4.66-0.05,7.17c-1.23,1.28-1.05,3.24,0.07,4.55c1.98,2.32,2.19,4.32,0.14,6.73c-1.31,1.54-1.41,3.65,0.07,5.15
			c2.13,2.16,1.7,3.92,0,6.05c-1.48,1.85-1.33,3.89,0.25,5.76c1.07,1.26,2.13,2.41,0.71,4.25c-4.03,5.23,2.78,11.63-1.66,16.94
			c-0.16,0.19,0.5,1.28,0.97,1.75c1.82,1.83,1.9,3.52,0.03,5.4c-1.74,1.74-1.77,3.88-0.33,5.73c1.66,2.13,2.16,3.88,0.04,6.05
			c-1.45,1.48-1.5,3.55-0.11,5.13c2,2.28,2.44,4.25,0.22,6.69c-1.61,1.77-1.49,3.97,0.14,5.73c1.82,1.96,1.49,3.56-0.09,5.45
			c-1.51,1.81-1.67,3.97,0,5.74c2.05,2.18,1.6,4.02-0.06,6.12c-1.04,1.33-1.66,3.2-0.47,4.56c2.51,2.84,1.97,5.15-0.22,7.86
			c-1.07,1.33-0.62,3.24,0.59,4.53c1.67,1.79,2.19,3.34,0.24,5.37c-1.87,1.95-1.64,4.21-0.08,6.38c0.91,1.27,2.31,2.39,0.91,4.28
			c-3.9,5.27,2.36,11.69-1.79,17.03c-0.19,0.24,0.42,1.33,0.88,1.8c1.8,1.84,1.8,3.5,0.01,5.43c-1.67,1.8-1.45,3.93-0.03,5.77
			c1.46,1.9,1.99,3.48,0.09,5.49c-1.87,1.97-1.66,4.25,0.02,6.34c1.06,1.32,1.98,2.51,0.66,4.31c-3.88,5.27,2.6,11.6-1.6,16.93
			c-0.16,0.21,0.51,1.28,0.98,1.75c1.91,1.91,1.46,3.57-0.15,5.45c-1.8,2.11-1.56,4.4,0.48,6.21c1.57,1.4,3.49,1.3,5.18,0.1
			c2.6-1.85,2.83-4.31,0.85-6.62c-1.56-1.83-1.4-3.12,0.06-4.82c1.49-1.75,1.86-4.15,0.57-5.88c-1.79-2.41-2.26-4.16-0.08-6.61
			c1.28-1.44,1.12-3.75-0.18-5.23c-1.89-2.15-1.92-3.83-0.07-6.04c1.48-1.77,1.28-4.03-0.25-5.81c-1.43-1.66-1.84-3.02-0.23-4.85
			c1.98-2.24,1.81-4.67-0.02-7c-0.88-1.12-1.87-2.3-0.58-3.69c4.81-5.17-2.69-11.7,1.88-16.93c0.2-0.23-0.31-1.39-0.77-1.84
			c-2.07-2.04-1.9-3.89-0.06-6.04c1.31-1.54,1.45-3.65,0.16-5.21c-1.74-2.11-2.24-3.77-0.2-6.03c1.55-1.72,1.44-4.05-0.04-5.82
			c-1.62-1.94-1.88-3.45-0.07-5.45c1.58-1.74,1.57-4.06,0.13-5.82c-1.85-2.27-1.49-3.92,0.2-6.08c1.37-1.75,1.26-4.14-0.19-5.89
			c-1.65-1.98-0.43-3.43-0.18-5.41c0.73-5.76,0.66-11.73-0.06-17.5c-0.24-1.93-0.42-3.35-0.16-5.41c0.76-6.03,0.34-12.23,0.04-18.34
			c-0.05-1.13-1.61-2-0.36-3.59c4.2-5.33-3.06-11.64,1.28-17.08c0.16-0.19-0.53-1.25-1.01-1.72c-1.93-1.93-1.47-3.54,0.22-5.41
			c1.57-1.73,1.73-4.05,0.21-5.79c-1.96-2.25-1.65-3.91,0.14-6.04c1.3-1.54,1.2-3.67-0.07-5.22c-1.79-2.18-1.83-3.92,0.08-6.08
			c1.32-1.48,1.5-3.86,0.3-5.25c-2.32-2.68-1.86-4.71,0.06-7.29c0.64-0.86,0.56-3.06-0.11-3.96c-3.73-5.04,2.56-11.34-2.2-16.12
			c5.57-5.39-0.3-11.42,0.19-17.21C907.67,432.4,905.64,424.54,904.95,417.12z M574.5,898.48c-1.79,9.5-4.76,17.33-12.18,22.93
			c-3.69,2.78-2.68,7.37-1.68,11.06c0.95,3.51,4.63,2.4,7.26,2.42c19.09,0.08,38.18-0.31,57.25,0.23c7.22,0.2,11.18-2,13.41-8.83
			c1.01-3.11,1.5-4.42-2.27-5.25c-11.29-2.5-19.32-8.82-22.52-20.36c-0.81-2.93-2.06-3.8-4.92-1.86
			C597.84,906.26,586.62,905.87,574.5,898.48z M501.57,1032.87c0,0.01,0,0.02,0,0.04c11.18,0,22.37-0.08,33.55,0.04
			c4.99,0.05,8.83,0.23,9.01-7.01c0.18-7.63-3.99-7.63-9.19-7.62c-18.16,0.04-36.34-0.32-54.48,0.24c-6.65,0.21-7.92-2.28-7.82-8.02
			c0.24-13.98-0.07-27.96,0.14-41.94c0.08-5.28-2.19-6.84-7.15-6.83c-4.95,0.01-6.43,2.09-6.39,6.77
			c0.16,19.11,0.27,38.22-0.05,57.32c-0.1,5.8,2.25,7.19,7.43,7.1C478.27,1032.72,489.92,1032.87,501.57,1032.87z M459.29,566.61
			c0,20.99,0.03,41.97-0.02,62.96c-0.01,4.39-0.41,8.22,6.19,8.27c6.23,0.05,7.34-2.68,7.32-8.03c-0.13-42.2-0.11-84.41-0.03-126.61
			c0.01-4.79-0.58-7.97-6.69-7.99c-5.95-0.03-6.87,2.74-6.83,7.75C459.4,524.18,459.3,545.39,459.29,566.61z M459.29,717.04
			c0,20.98,0.07,41.97-0.05,62.95c-0.03,4.77,0.43,8.02,6.61,7.98c5.88-0.04,6.94-2.79,6.92-7.8c-0.11-41.97-0.12-83.93,0.01-125.9
			c0.02-5.24-1.4-7.53-7.11-7.51c-5.63,0.02-6.48,2.62-6.45,7.33C459.38,675.07,459.29,696.05,459.29,717.04z M854.62,934.92
			c10.94,0,21.88,0.04,32.82-0.03c2.67-0.02,6.11,0.62,6.56-3.38c0.54-4.84,1.13-9.62-4.49-12.7c-6.12-3.36-10.28-8.79-12.11-15.6
			c-1.1-4.11-2.4-4.6-6.04-2.17c-9,6.01-18.71,6.81-28.5,1.98c-3.54-1.75-5.46-1.73-6.36,2.58c-2.3,10.97-8.92,18.14-19.55,21.67
			c-1.47,0.49-3.56,0.75-3.38,2.87c0.16,1.95,1.64,3.52,3.44,4.06c1.96,0.59,4.11,0.69,6.18,0.71
			C833.67,934.96,844.15,934.93,854.62,934.92z M952.6,1032.9c11.9,0,23.81-0.15,35.71,0.08c4.57,0.09,6.01-1.42,5.95-6.05
			c-0.25-19.14-0.12-38.28-0.13-57.42c0-3.91,0.01-7.59-5.6-7.63c-5.65-0.05-5.62,3.59-5.62,7.53c0.01,14.01-0.2,28.01,0.05,42.02
			c0.1,5.51-1.81,7.21-7.33,7.11c-19.6-0.34-39.21-0.06-58.82-0.29c-5.63-0.07-6.42,2.85-6.5,7.47c-0.09,4.82,1.06,7.4,6.57,7.27
			C928.78,1032.71,940.69,1032.89,952.6,1032.9z M459.3,466.26c0,3.96,0.29,7.95-0.07,11.88c-0.55,6.2,2.58,7.55,7.99,7.3
			c6.15-0.28,5.53-4.53,5.46-8.45c-0.73-42.86,3.12-85.18,14.84-126.59c0.54-1.91,2.41-5.22-1.11-5.8
			c-3.59-0.59-8.17-2.21-10.68,2.35c-1.21,2.2-1.72,4.81-2.38,7.28C463.44,390.92,459.83,428.4,459.3,466.26z M994.16,875.51
			c-0.01,0-0.02,0-0.03,0c0-23.55-0.01-47.09,0.01-70.64c0-3.82-0.51-6.98-5.51-7.05c-4.91-0.07-5.72,2.77-5.72,6.77
			c0.04,46.86,0.06,93.72-0.02,140.58c-0.01,4.67,1.61,6.74,6.52,6.75c5.73,0.01,4.76-3.74,4.76-7.17
			C994.16,921.68,994.16,898.6,994.16,875.51z M994.16,456.27c0.24-23.6-2.21-46.99-6.39-70.16c-2.23-12.36-5.54-24.51-8.26-36.78
			c-1.29-5.84-5.75-5.73-9.85-4.82c-5.16,1.15-1.81,5.04-1.2,7.34c3.01,11.26,5.67,22.58,7.75,34.05
			c5.59,30.83,6.98,61.96,6.66,93.21c-0.04,3.95,0.26,6.69,5.52,6.48c4.59-0.18,6.07-1.7,5.87-6.25
			C993.92,471.66,994.16,463.96,994.16,456.27z M751.35,524.65c0.03-11.1-6.56-20.31-16.35-23.51c-10.18-3.32-20.54-0.08-26.78,8.37
			c-6.39,8.66-6.63,19.52-0.78,28.13c2.41,3.54,4.94,5.07,9.31,2.96c6.37-3.08,13.37-3.57,19.67-0.49
			c6.88,3.36,9.84-0.13,12.53-5.31C750.71,531.42,751.5,527.8,751.35,524.65z M749.94,415.88c0.06-12.84-9.61-22.68-22.38-22.74
			c-12.64-0.07-22.71,9.72-23.01,22.36c-0.28,11.91,10.57,23,22.6,23.08C739.5,438.66,749.88,428.33,749.94,415.88z M725.3,650.94
			c-7.7,0.59-15.34,4.72-19.65,13.83c-4.16,8.82-3.02,17.2,2.72,25.03c1.8,2.46,3.57,3.98,6.98,2.33
			c7.79-3.77,15.82-3.66,23.69-0.19c3.22,1.42,5.08,0.49,7.07-2.13c5.93-7.79,7.28-16.3,3.06-24.96
			C744.89,656.09,737.61,651.01,725.3,650.94z M749.95,868.45c-0.07-12.6-10.17-22.64-22.72-22.58
			c-12.15,0.05-22.82,10.82-22.69,22.89c0.14,12.41,10.41,22.47,23,22.52C739.98,891.33,750.02,881.11,749.95,868.45z
			 M751.36,826.66c-0.06-11.47-6.64-20.55-16.83-23.77c-8.77-2.77-20.74,1.13-26.37,8.58c-6.63,8.79-6.71,19.28-0.39,28.64
			c2.16,3.19,4.53,4.16,8.27,2.61c6.93-2.87,14.33-3.37,21.12-0.38c5.82,2.57,8.59,0.53,11.06-4.22
			C750.18,834.33,751.68,830.48,751.36,826.66z M686.05,741.54c2.65,0.08,6.08-0.35,9.29-2.02c5.43-2.83,8.97-5.72,5.49-13.02
			c-3.08-6.44-2.31-13.82,0.85-20.37c1.73-3.58,0.69-5.42-2.06-7.59c-7.97-6.3-19.37-6.82-28.09-1.01
			c-8.57,5.71-12.51,16.52-9.6,26.4C665.17,734.98,673.74,741.47,686.05,741.54z M660.94,418.53c0.12,6.36,4.53,13.82,12.86,18.37
			c8.72,4.76,17.5,3.8,25.71-1.95c2.82-1.97,4.05-3.9,2.33-7.55c-3.57-7.53-3.7-15.44-0.23-23.02c1.8-3.93,0.42-6.1-2.5-8.24
			c-7.23-5.3-15.27-6.1-23.17-2.62C666.82,397.53,661.01,404.54,660.94,418.53z M660.9,869.87c0.15,8.55,4.85,15.78,13.7,20.31
			c8.5,4.34,16.66,3.15,24.44-1.97c3.04-2,4.37-4.24,2.58-8.17c-3.45-7.56-3.37-15.47,0.04-23.03c1.6-3.56,0.66-5.64-2.18-7.67
			c-7.67-5.49-15.89-6.69-24.38-2.5C666.34,851.17,661.08,858.16,660.9,869.87z M749.95,717.93c0.08-12.57-9.79-22.82-22.32-23.16
			c-11.8-0.33-23.03,10.66-23.08,22.59c-0.06,12.56,9.95,22.66,22.54,22.76C740.02,740.22,749.87,730.67,749.95,717.93z
			 M751.31,458.78c0.36-5.57-1.11-10.6-4.41-15.1c-1.98-2.69-4.21-4.02-7.75-2.41c-7.59,3.45-15.38,3.4-23.09,0.34
			c-4.36-1.73-7.06,0.05-9.29,3.66c-5.34,8.68-4.74,19.06,1.72,27.47c6.12,7.97,16.79,11.21,26.28,7.98
			C744.61,477.36,751.05,468.84,751.31,458.78z M751.37,373.3c-0.04-11.01-6.67-19.95-16.66-23.08c-10.53-3.3-20.46,0.04-27.02,9.1
			c-6.09,8.41-5.95,18.66,0.1,27.35c2.31,3.33,4.62,4.74,8.71,2.89c6.39-2.88,13.03-2.95,19.74-0.77c7.91,2.56,9.72,1.69,13.12-5.91
			C750.81,379.65,751.54,376.26,751.37,373.3z M793.64,415.61c-0.26-9.32-3.98-16.69-12.48-21.08c-8.6-4.44-17.06-3.89-25.2,1.37
			c-3.09,1.99-4.6,4.34-2.79,8.19c3.46,7.37,3.46,14.97,0.27,22.4c-1.87,4.37-0.41,7.03,3.24,9.33c8.01,5.05,16.33,5.64,24.53,1.07
			C789.34,432.34,793.71,425.19,793.64,415.61z M686.57,542.92c-12.08-0.27-21.01,5.95-24.47,16.29
			c-3.12,9.32,0.31,20.77,7.91,26.35c8.78,6.45,21.12,6.51,29.36,0.47c3.15-2.31,3.95-4.33,2.19-8.11
			c-3.15-6.8-3.63-14.29-0.52-21.03c2.72-5.91,0.19-8.52-4.17-11.18C693.35,543.57,689.53,542.88,686.57,542.92z M793.59,867.96
			c0.44-9.01-4.73-16.16-13.18-20.86c-8.26-4.58-16.57-3.38-24.42,1.69c-3.39,2.19-4.6,4.69-2.78,8.77
			c3.27,7.32,3.58,14.93,0.13,22.3c-1.89,4.04-0.72,6.63,2.78,8.73c7.93,4.76,16.24,5.98,24.52,1.4
			C788.64,885.58,793.6,878.84,793.59,867.96z M726.52,934.84c10.44-0.1,17.77-4.48,22.22-13.03c4.34-8.33,3.52-16.64-1.5-24.57
			c-2.1-3.32-4.23-4.9-8.54-2.85c-7.51,3.56-15.44,3.48-22.98-0.18c-3.48-1.69-5.5-0.89-7.59,2.09c-5.41,7.72-6.64,15.87-2.54,24.41
			C709.88,929.65,717.14,934.46,726.52,934.84z M726.81,589c12.96,0.17,22.92-9.22,23.14-21.83c0.23-12.79-9.39-22.77-22.09-22.91
			c-13.1-0.15-23.19,9.63-23.31,22.59C704.44,578.81,714.52,588.84,726.81,589z M793.59,717.31c-0.15-17.89-18.88-29.28-34.83-21.15
			c-4.84,2.46-7.78,5.53-5.05,11.63c2.98,6.66,2.88,13.71-0.15,20.35c-2.33,5.11-0.12,7.97,3.97,10.24
			c8.2,4.54,16.58,4.54,24.61-0.13C790.01,733.67,793.8,726.5,793.59,717.31z M727.78,783.64c9.43-0.19,16.57-4.28,20.9-12.74
			c4.29-8.39,3.58-16.64-1.31-24.61c-2.11-3.44-4.6-4.77-8.72-2.84c-7.08,3.32-14.57,3.69-21.69,0.36c-5.13-2.4-7.92-0.29-10.3,3.72
			c-4.68,7.91-4.77,15.98-0.21,23.92C711.13,779.59,718.21,783.84,727.78,783.64z M770.17,542.86c-3.78-0.07-7.45,0.46-10.88,2.08
			c-5.42,2.55-8.71,5.62-5.36,12.45c3.23,6.59,2.28,13.71-0.53,20.35c-1.87,4.42-0.16,7.01,3.41,9.26c8.16,5.16,20.2,4.45,28.2-1.75
			c7.48-5.8,10.61-16.92,7.46-26.56C789.31,549.04,780.7,542.92,770.17,542.86z M729.15,632.54c7.97,0.15,15.4-4.37,19.82-13.36
			c4.01-8.15,3.43-16.18-1.74-23.82c-2.24-3.3-4.53-4.74-8.68-2.76c-7.35,3.49-15.03,3.29-22.34-0.16
			c-4.18-1.97-6.53-0.46-8.68,2.87c-4.92,7.64-6.06,15.6-1.79,23.84C710.17,627.71,717.12,632.51,729.15,632.54z M905.56,712.04
			c-3.5-0.04-5.82,3.35-3.98,6.41c1.7,2.82,2.15,4.67-0.17,7.31c-1.56,1.78-0.55,4,0.98,5.69c1.24,1.36,1.49,2.51,0.33,4.29
			c-3.42,5.24,2.07,11.44-1.52,16.79c-0.12,0.18,0.33,0.86,0.64,1.18c1.86,1.96,2.27,3.83,0.26,6.07c-1.57,1.75-1.6,3.91-0.04,5.76
			c1.61,1.92,1.72,3.56,0.02,5.53c-1.49,1.73-1.93,3.93-0.26,5.75c2,2.17,1.72,3.94-0.01,6.07c-1.49,1.83-1.27,3.88,0.17,5.8
			c0.94,1.26,2.33,2.43,0.9,4.27c-4.08,5.23,2.66,11.67-1.8,16.94c-0.18,0.21,0.43,1.31,0.89,1.79c1.76,1.83,1.92,3.5,0.06,5.42
			c-1.42,1.46-1.96,3.58-0.65,5.13c2.17,2.56,2.55,4.49,0.06,7.17c-1.58,1.7-0.66,3.98,0.78,5.74c1.1,1.34,1.83,2.54,0.49,4.3
			c-3.99,5.2,2.76,11.5-1.54,16.79c-0.17,0.21,0.47,1.29,0.94,1.78c1.79,1.85,1.82,3.59,0,5.46c-1.49,1.53-1.83,3.51-0.49,5.09
			c2.19,2.58,2.28,4.73,0.02,7.32c-1.39,1.6-0.96,3.61,0.48,5.1c1.81,1.88,1.8,3.47,0.03,5.4c-1.84,2-1.77,4.27,0.07,6.3
			c1.52,1.68,0.66,2.99,0.19,4.9c-1.42,5.72,0.75,11.74-0.74,17.58c-0.04,0.15,0.21,0.41,0.39,0.56c2.11,1.83,1.52,3.53-0.05,5.39
			c-1.09,1.29-1.92,3.21-0.76,4.51c2.66,2.98,2.5,5.44,0.08,8.49c-1.32,1.65-0.19,3.59,1.35,4.91c1.61,1.38,3.36,1.48,5.13,0.26
			c1.78-1.22,2.79-3.54,1.58-4.82c-4.94-5.21,3.56-11.91-2.17-16.8c5.71-4.89-2.62-11.67,2.38-16.99c1.7-1.81-3.72-4.19-1.68-6.67
			c4.51-5.46-3.2-11.82,1.59-17.11c0.2-0.22-0.3-1.4-0.75-1.84c-2.11-2.04-1.91-3.82-0.01-5.98c1.55-1.77,1.2-3.97-0.18-5.82
			c-1.21-1.61-2-2.97-0.26-4.87c1.97-2.15,1.92-4.64,0.14-7.02c-0.83-1.11-1.93-2.15-0.59-3.64c4.73-5.24-2.94-11.73,1.64-17.08
			c0.23-0.26-0.6-1.72-1.21-2.35c-1.67-1.72-1.38-3.18,0.08-4.86c1.77-2.03,1.79-4.3,0.05-6.36c-1.39-1.65-1.86-3.05-0.18-4.85
			c2.07-2.22,1.79-4.63,0.07-6.99c-0.8-1.1-1.97-2.26-0.71-3.7c4.58-5.21-2.58-11.79,1.98-17.04c0.2-0.23-0.32-1.38-0.77-1.83
			c-1.78-1.77-2.01-3.39-0.29-5.44c1.69-2.02,1.68-4.38-0.1-6.39c-1.48-1.68-1.77-3.05-0.14-4.84c1.99-2.18,1.99-4.62,0.19-6.99
			c-0.85-1.12-1.87-2.15-0.61-3.66c4.39-5.24-2.45-11.67,1.72-17c0.21-0.26-0.32-1.4-0.79-1.83c-2.25-2.1-1.57-3.91,0.1-6.01
			c1.26-1.58,1.3-3.71-0.03-5.22c-1.9-2.16-1.59-3.69-0.1-6.06C910.97,715.6,909.31,713.05,905.56,712.04z M994.13,566.59
			c0-21.22,0-42.44,0-63.66c0-3.92-0.03-7.57-5.62-7.6c-5.62-0.03-5.62,3.58-5.61,7.54c0.02,24.72,0.01,49.44,0.01,74.16
			c0,17.96,0.07,35.91-0.04,53.87c-0.03,4.47,1.06,7.12,6.27,6.82c5.31-0.3,4.97-3.94,4.97-7.45
			C994.15,609.03,994.14,587.81,994.13,566.59z M982.91,716.52c0,21.45-0.05,42.91,0.03,64.36c0.02,6.04,3.32,8.55,8.22,6.61
			c3.82-1.52,2.93-4.95,2.94-7.82c0.07-25.88,0.05-51.77,0.05-77.65c0-16.09-0.08-32.18,0.01-48.27c0.03-4.43-1.07-7.09-6.28-6.88
			c-5.44,0.22-4.93,3.93-4.93,7.39C982.91,675.01,982.93,695.76,982.91,716.52z M749.86,226.21c-0.04-9.54-6.11-17.86-15.46-21.19
			c-8.7-3.1-19.18-0.01-25.26,7.44c-5.62,6.88-6.4,17.13-1.84,25.02c2.39,4.13,4.93,6.99,10.6,4.19c5.85-2.89,12.5-2.97,18.35-0.05
			c5.61,2.8,8.23,0.2,10.63-4.04C748.87,234.06,750.04,230.3,749.86,226.21z M748.48,266.42c-0.1-11.66-9.97-21.46-21.46-21.33
			c-11.5,0.13-21.35,10.19-21.19,21.63c0.17,11.97,9.46,21.03,21.5,20.95C739.43,287.59,748.59,278.39,748.48,266.42z
			 M789.47,268.09c0.19-10.35-3.74-17.32-11.98-21.56c-7.64-3.93-15.23-3.44-22.61,1.04c-3.48,2.11-4.75,4.52-3.15,8.68
			c2.69,6.97,2.8,14.15-0.18,21.13c-1.31,3.07-0.83,5.33,1.96,7.23c7.3,4.96,15.13,6.32,23.12,2.4
			C784.72,283.03,789.6,276.52,789.47,268.09z M687.32,244.34c-10.4,0.09-18.39,5.56-21.5,14.7c-2.99,8.79-0.22,18.97,6.74,24.79
			c7.1,5.94,17.81,7,25.49,2.59c4.31-2.48,6.53-5.28,4.18-10.75c-2.55-5.93-2.46-12.45,0.14-18.38c2.38-5.42,0.24-8.27-4.25-10.67
			C694.71,244.8,691.09,244.28,687.32,244.34z M704.43,306.91c0.11,9.06,6.53,17.87,15.07,20.69c9.71,3.21,19.34,0.37,25.62-7.55
			c5.76-7.26,6.27-17.57,1.43-25.52c-2.21-3.63-4.49-5.36-9.06-3.31c-6.61,2.97-13.62,3.19-20.31,0.01
			c-4.72-2.24-7.61-0.51-9.51,3.68C705.96,298.71,704.31,302.59,704.43,306.91z M570.32,341.68c1.8,2.28,0.04,3.28-2.05,4.43
			c-2.04,1.13-3.1,3.29-2.07,5.36c1.69,3.4,0.33,5.09-2.49,6.67c-1.52,0.85-2.32,2.48-1.45,4.21c1.25,2.49,0.97,4.27-1.49,5.87
			c-1.97,1.28-2.58,3.48-1.63,5.57c1.05,2.3,0.8,3.88-1.27,5.36c-1.64,1.18-2.62,3.14-1.78,4.92c1.58,3.34,0.65,5.54-1.99,7.73
			c-1.35,1.12-1.36,3.14-0.5,4.56c1.56,2.6,0.63,4.23-1.36,5.97c-1.26,1.09-2.19,2.86-1.29,4.4c1.84,3.16,1.11,5.48-1.29,7.95
			c-1.18,1.22-0.97,3.21,0.04,4.6c1.61,2.22,2.07,3.88-0.66,5.71c-1.99,1.34-2.05,3.82-1.02,5.71c1.28,2.35,1.45,4.09-0.48,6.19
			c-1.78,1.94-1.73,4.32,0.16,6.31c1.45,1.53,3.39,1.71,5.14,0.72c2.84-1.61,2.82-4.56,1.48-6.69c-1.61-2.55-1.28-3.95,0.79-5.77
			c1.52-1.33,1.82-3.46,0.87-5.17c-1.32-2.36-1.41-4.18,0.64-6.16c1.45-1.4,1.95-3.65,0.74-5.15c-2.2-2.75-1.23-4.38,0.96-6.37
			c1.49-1.35,1.64-3.48,0.69-5.21c-1.3-2.35-0.57-3.82,1.28-5.37c1.77-1.49,2.36-3.62,1.32-5.7c-1.11-2.22-1.09-3.85,1.05-5.39
			c2.17-1.56,2.7-3.78,1.6-6.19c-0.76-1.67-0.9-2.92,0.71-4.26c4.72-3.91,2.98-10.34,5.59-15.49c2.9-5.71,4.9-12.67,7.01-19.12
			c1.57-4.8,4.91-8.91,5.42-13.81c0.29-2.76,0.06-4.82,3.1-6.01c1.85-0.73,2.77-2.68,2.3-4.66c-0.6-2.55-0.69-4.28,2.41-5.36
			c2.65-0.92,2.79-3.56,1.91-5.94c-0.76-2.05-2.61-2.73-4.59-2.21c-2.87,0.75-4.44,2.6-3.34,5.73c0.72,2.05,0.85,3.47-1.82,4.16
			c-3.11,0.8-3.55,3.37-3.21,6.12c0.21,1.66,0.4,3.1-1.44,4.19c-5.98,3.55-3.18,11.78-8.27,15.89
			C569.9,340.12,570.19,340.85,570.32,341.68z M665.82,336.27c-0.31-2.32-1.05-5.98-1.21-9.68c-0.26-5.89-3.51-7.03-8.45-5.85
			c-8.25,1.97-15.12,10.47-15.71,19.37c-0.6,8.98,5.11,17.96,13.3,20.98c4.91,1.82,8.05,0.61,9.23-4.85
			C664.3,350.1,665.62,343.98,665.82,336.27z M789.41,336.54c0.05,6.77,0.81,13.38,2.76,19.93c1.34,4.52,3.66,5.2,7.76,3.85
			c7.64-2.53,13.91-10.55,14.35-18.83c0.5-9.4-4.97-17.86-13.77-21.31c-6.91-2.71-9.55-1.27-10.46,5.94
			C789.61,329.56,789.61,333.06,789.41,336.54z M623.21,292.01c0.25,16.42,16.87,26.46,30.95,19.32c4.07-2.06,4.79-4.25,2.41-8.22
			c-4.63-7.7-10.36-14.4-17.29-20c-2.9-2.34-5.87-6.81-9.98-4.82c-4.08,1.97-5.07,6.98-5.93,11.39
			C623.18,290.6,623.24,291.55,623.21,292.01z M831.29,290.69c0.21-3.95-1.12-8.05-3.65-11.86c-1.79-2.7-3.59-3.03-6.34-1.24
			c-9.77,6.35-17.18,14.84-23.18,24.69c-2.17,3.56-1.11,5.92,2.52,7.86C814.38,317.5,831.21,307.23,831.29,290.69z M836.75,388.15
			c-0.04-17.72-17.28-27.65-31.82-19.75c-4.54,2.47-5.52,5.19-2.26,9.31c6.25,7.91,13.43,14.73,22.35,19.64
			c6.72,3.69,8.6,3.07,10.87-4.29C836.49,391.09,836.61,388.98,836.75,388.15z M639.83,366.71c-15.06-0.02-25.61,15.01-20.66,28.36
			c1.92,5.19,4.42,7.03,9.93,3.94c7.45-4.18,13.8-9.55,19.31-15.92c2.49-2.88,6.95-5.72,5.41-9.85c-1.63-4.37-6.89-5.07-11.14-6.26
			C641.58,366.66,640.37,366.75,639.83,366.71z M595.46,572.74c-6.18,0.89-12.72,1.09-19.04,2.97c-4.65,1.38-5.82,3.88-3.66,8.38
			c3.7,7.68,11.93,13.32,20.15,12.71c8.86-0.66,15.37-5.21,18.97-13.42c2.99-6.83,1.85-8.57-5.69-9.45
			C602.71,573.53,599.23,573.16,595.46,572.74z M597.06,560.73c7.39-0.63,14.04-1.5,20.57-3.22c4.11-1.09,5.09-3.17,3.44-7.14
			c-3.5-8.4-9.98-13.08-18.67-13.46c-8.24-0.36-15.46,2.82-19.69,10.69c-4.63,8.6-3.68,10.52,6.05,12.03
			C591.72,560.08,594.72,560.42,597.06,560.73z M594.95,713.36c7.36-0.63,14.04-1.53,20.63-3.19c4.94-1.25,5.77-3.95,3.56-8.22
			c-3.98-7.7-10.39-12.23-18.87-12.56c-7.9-0.31-14.45,3.24-18.77,10.2c-5.22,8.39-3.91,11.3,5.73,12.7
			C589.99,712.68,592.76,713.05,594.95,713.36z M830.84,441.88c-0.43-1.48-0.99-3.99-1.91-6.36c-2.54-6.52-4.53-7.05-10.14-3.1
			c-8.54,6.01-15.04,13.79-20.22,22.8c-2.57,4.46-1.06,6.81,3.32,8.47C815.88,469.02,831.23,458.06,830.84,441.88z M859.75,559.22
			c6.83-0.63,13.27-1.46,19.6-3.18c4.9-1.33,5.83-3.96,3.68-8.26c-3.89-7.74-10.19-12.33-18.75-12.61
			c-8.92-0.29-15.62,4.29-19.79,12.09c-3.52,6.6-1.66,9.73,5.86,10.75C853.59,558.44,856.82,558.84,859.75,559.22z M591.76,896.92
			c10.25,0.12,18.75-6.56,21.02-16.07c0.92-3.87-0.04-5.55-4-6.16c-11.21-1.75-22.25-1.54-33.17,1.84
			c-3.76,1.17-4.57,3.24-3.28,6.88C575.07,891.12,583.07,896.82,591.76,896.92z M665.82,642.76c0.37-6.34-1.14-12.91-2.84-19.46
			c-1.18-4.57-4.03-5.16-7.98-3.59c-7.71,3.06-12.79,11.51-12.44,20.81c0.32,8.53,6.27,16.63,14.09,19.01
			c4.14,1.26,7.22,0.77,8.12-4.48C665.44,651.12,665.86,647.22,665.82,642.76z M593.59,862.94c6.58-0.84,13.81-0.94,20.83-3.03
			c4.56-1.36,5.32-3.74,3.42-7.77c-3.72-7.91-10.1-12.47-18.55-13.01c-8.22-0.52-15,3.28-19.42,10.36
			c-5.22,8.35-3.55,11.53,6.18,12.55C588.37,862.29,590.68,862.59,593.59,862.94z M835.29,843.89
			c0.01-15.89-16.14-26.35-30.12-20.05c-4.73,2.13-6.55,4.73-2.93,9.59c5.64,7.57,12.3,13.93,20.32,18.89
			c8.27,5.12,11.28,3.67,12.59-6.12C835.28,845.29,835.27,844.35,835.29,843.89z M645.37,816.52c-16.2,0.08-26.55,17.19-19.52,31.05
			c2.13,4.2,4.59,5.39,8.76,2.44c7.92-5.6,14.24-12.66,19.47-20.72c5-7.7,3.84-10.22-5.24-12.21
			C647.49,816.78,646.1,816.64,645.37,816.52z M858.98,862.98c6.28-0.94,12.79-1.15,19.18-2.72c5.95-1.45,6.12-4.39,3.8-9.1
			c-3.79-7.68-10.19-11.62-18.33-12.05c-7.99-0.43-14.44,3.39-18.81,10.12c-5.52,8.49-3.77,11.84,6.35,12.85
			C853.73,862.32,856.27,862.66,858.98,862.98z M618.61,741.16c0.05,9.01,3.06,15.47,10.31,19.52c7.09,3.97,14.16,4,21.31-0.05
			c3.65-2.07,4.27-4.14,1.7-7.73c-6.22-8.71-14-15.63-23.15-21.02c-5.57-3.28-7.84-2.26-9.46,3.97
			C618.8,737.86,618.75,740,618.61,741.16z M829.8,596.29c0.06-2.83-0.33-5.56-1.4-8.22c-2.82-7.01-4.45-7.48-10.56-3.01
			c-8.42,6.18-14.95,13.99-20.14,23.01c-2.11,3.67-1.41,5.85,2.59,7.59C814.26,621.75,829.87,611.6,829.8,596.29z M789.84,792.56
			c-0.43,6.55,0.25,12.99,2.01,19.34c1.44,5.19,4.35,6.05,8.89,3.83c7.95-3.89,11.78-10.59,12-19.04
			c0.21-8.29-3.73-14.83-11.08-18.87c-7.82-4.3-11.14-2.44-11.79,6.37C789.66,786.96,789.84,789.77,789.84,792.56z M812.66,670.67
			c-0.93,0.19-3.26,0.45-5.44,1.17c-8.06,2.67-8.69,4.96-3.69,11.81c5.88,8.06,13.51,14.02,21.97,19.11c3.83,2.31,6.07,1.94,8-2.53
			C839.48,686.33,829.34,670.71,812.66,670.67z M860.58,418.59c-7.2,0.89-14.43,1.2-21.38,3.43c-3.24,1.04-4.49,2.59-3.19,6.19
			c2.75,7.61,10.58,14.16,19.01,14.32c8.46,0.16,15.43-3.41,19.74-10.98c4.53-7.95,3.09-10.67-5.9-11.84
			C866.1,419.35,863.33,418.96,860.58,418.59z M625.18,687.69c0.25,4.47,1.07,8.76,3.72,12.54c1.4,2,2.8,2.85,5.19,1.31
			c10.2-6.6,18.18-15.16,23.51-26.12c1.75-3.6,0.24-5.61-3.16-6.99C640.71,662.83,625.41,672.87,625.18,687.69z M621.55,439.09
			c0.19,16.93,17.21,27.13,30.94,19.71c4.16-2.24,5.27-4.49,2.2-8.67c-6.02-8.21-13.25-14.95-22.02-20.12
			c-6.4-3.77-8.87-2.79-10.6,4.6C621.65,436.4,621.63,438.3,621.55,439.09z M642.47,613.82c0.83-0.15,2.94-0.33,4.93-0.92
			c8.88-2.63,9.83-5.49,3.78-12.6c-6.21-7.3-13.05-13.92-21.57-18.69c-4.55-2.55-6.66-1.34-8.33,3.18
			C616.07,598.86,626.2,613.72,642.47,613.82z M859.02,710.65c6.77,0.36,13.43-0.19,20.02-2.03c4.44-1.24,5.64-3.49,3.69-7.61
			c-3.82-8.07-10.27-12.83-19.04-13.23c-8.88-0.4-15.64,4.1-19.79,11.92c-3.83,7.23-2.01,10.33,6.07,10.91
			C852.96,710.83,855.99,710.65,859.02,710.65z M855.33,595.19c8.52,0.09,18.01-6.76,20.2-14.58c1.2-4.29,0.39-7.04-4.65-8.1
			c-10.8-2.27-21.28-0.93-31.72,1.84c-4.05,1.07-5.05,3.35-3.44,7.31C838.79,589.18,847.14,595.1,855.33,595.19z M597.51,420.37
			c-7.31,0.65-13.83,1.01-20.12,2.99c-3.89,1.22-5.32,3.25-3.5,7.29c3.72,8.26,10.35,12.81,19.01,13.38
			c8.21,0.53,14.95-3.28,19.16-10.6c5.06-8.82,3.65-11.42-6.31-12.3C602.73,420.86,599.72,420.57,597.51,420.37z M858.58,406.64
			c7.8-0.64,14.94-1.5,21.92-3.6c4.62-1.39,5.25-4.19,3.24-7.97c-4.03-7.58-10.04-12.01-19.01-12.01c-9.14,0-15.71,4.05-19.63,12.12
			c-3.53,7.26-2.37,9.17,5.71,10.5C853.56,406.12,856.35,406.36,858.58,406.64z M858.74,874.93c-6.63,0.08-12.96,1.55-19.29,3.13
			c-4.53,1.13-5.43,3.59-3.66,7.75c3.29,7.73,11.06,12.82,19.91,12.74c8.88-0.08,16.46-5.26,19.48-13.27
			c1.99-5.28,0.87-8.6-5.38-9.05C866.1,875.96,862.43,875.37,858.74,874.93z M835.73,539.88c-0.22-8.38-3.26-14.8-10.41-18.95
			c-7.13-4.14-14.17-3.65-21.33,0.05c-3.87,2-4.28,4.22-1.71,7.69c6.19,8.36,13.62,15.3,22.53,20.65c6.07,3.64,8.8,2.56,10.34-4.22
			C835.55,543.3,835.57,541.4,835.73,539.88z M855.09,746.01c9.18,0.06,18.41-6.1,20.47-13.9c0.93-3.49,1.5-7.02-3.6-8.13
			c-11.23-2.43-22.22-1.14-33.13,1.86c-4.3,1.18-4.57,3.78-2.94,7.49C839.29,741.09,846.46,745.95,855.09,746.01z M590.45,746
			c10.33,0.04,19.09-6.84,20.84-16.09c0.64-3.36-0.02-5.21-3.71-5.94c-11.2-2.23-22.17-1.34-33.09,1.67
			c-4.54,1.25-5.17,3.8-3.37,7.86C574.48,741.09,581.81,745.97,590.45,746z M648.71,514.74c-16.76,0.06-26.76,16.5-19.68,30.61
			c2.09,4.16,4.26,5.58,8.53,2.4c8.13-6.04,15.04-13.11,20.13-21.88c3.96-6.81,2.62-9.62-5.06-10.81
			C651.03,514.82,649.39,514.79,648.71,514.74z M664.47,794.31c-0.09-7.96-0.96-14.17-2.82-20.2c-1.84-5.96-4.43-6.97-9.79-3.73
			c-7.6,4.6-11.38,11.3-10.76,20.39c0.6,8.91,5.55,14.58,13.25,18.11c5.64,2.59,7.92,1.15,8.91-5.14
			C663.83,800.08,664.21,796.38,664.47,794.31z M829.8,747.28c0.03-2.58-0.3-5.08-1.3-7.51c-2.97-7.2-4.93-7.93-11.04-3.09
			c-7.7,6.09-14.56,12.94-19.27,21.81c-2.98,5.62-1,7.95,4.4,9.43C816.61,771.76,829.88,761.76,829.8,747.28z M789.43,641.17
			c-0.09,6.57,0.88,12.95,2.55,19.31c1.39,5.28,4.17,6.08,8.77,3.94c7.37-3.43,12.51-11.96,12.07-20.44
			c-0.41-7.93-6.34-16.09-13.65-18.78c-5.66-2.08-8.29-0.59-9.11,5.52C789.6,634.17,789.62,637.69,789.43,641.17z M595.17,407.91
			c3.23-0.4,6.46-0.76,9.68-1.19c6.53-0.89,7.83-3.17,5.16-9.44c-3.53-8.3-10.25-12.88-18.88-13.38
			c-8.8-0.51-15.51,3.97-19.83,11.82c-2.34,4.26-1.28,6.96,3.33,8.54C581.29,406.54,588.23,407.07,595.17,407.91z M667.55,490.91
			c-0.02-6.59-1.25-12.94-2.72-19.3c-1.33-5.72-4.47-6.32-9.24-3.95c-7.66,3.8-12.08,11.54-11.53,20.59
			c0.48,7.96,6.53,15.97,13.86,18.48c4.68,1.61,7.78,0.51,8.46-4.78C666.86,498.28,667.17,494.59,667.55,490.91z M620.15,891.41
			c-0.2,17.17,16.03,27.53,30.34,20.62c4.5-2.17,5.92-4.52,2.54-9.08c-6.07-8.17-13.48-14.74-22.08-20.07
			c-6.2-3.84-8.45-2.98-10.25,4.13C620.25,888.81,620.23,890.7,620.15,891.41z M789.83,487.09c0.1,8.62,1.19,14.99,2.96,21.29
			c1.23,4.38,3.64,5.42,7.82,3.64c8.03-3.42,12.91-11.23,12.58-20.62c-0.29-8.41-6.27-16.51-14.01-18.98
			c-4.64-1.49-7.74-0.6-8.17,4.98C790.69,481.32,790.06,485.22,789.83,487.09z M808.34,920.96c16.18,0.27,26.41-16.49,19.35-30.76
			c-2.16-4.36-4.55-5.32-8.66-2.29c-8.36,6.19-15.28,13.63-20.52,22.61c-3.59,6.15-2.38,8.71,4.72,9.94
			C805.06,920.78,806.94,920.83,808.34,920.96z M782.94,316.29c-10.88,10.55-23.32,17.6-38.79,22.47
			c16.25,4.18,28.86,11.54,41.02,23.08C780.75,345.61,780.07,331.19,782.94,316.29z M671.34,316.32
			c3.75,14.49,2.41,28.64-0.95,44.68c7.3-5.84,12.55-10.38,18.58-13.89c6.18-3.6,13.01-5.65,20.86-8.63
			C694.47,333.99,682.23,326.71,671.34,316.32z M702.01,352.19c-15.83,3.38-36.02,23.98-38.14,38.9
			c13.58-8.03,15.76-8.41,32.98-5.86C694.22,365.92,694.8,368.28,702.01,352.19z M791,390.82c-3.35-15.71-24-36.49-38.61-38.35
			c7.27,10.29,8.33,21.36,4.75,33.21C771.93,382.38,776.96,383.19,791,390.82z M704.59,652.07c-20.86,8.6-34.14,21.9-41.34,41.38
			c10.13-8.03,21.34-9.7,34.32-5.7C693.55,674.59,695.39,663.42,704.59,652.07z M803.16,543.32c3.34,13.84,2.62,27.4,0.95,42.6
			c11.62-10.03,23.27-16.89,36.73-20.83C826.54,560.52,814.12,553.51,803.16,543.32z M803.82,434.34
			c6.51-5.38,11.86-9.74,17.83-13.3c5.97-3.56,12.62-5.43,20.79-8.67c-16-3.76-27.96-11.42-40.31-22.43
			c1.79,8.88,3.4,15.41,3.32,22.18C805.35,419.04,805.43,425.96,803.82,434.34z M791.8,844.75c-5.94-18.13-24.77-37.3-40.25-39.79
			c7.18,8.84,9.01,18.57,6.75,29.16c-0.6,2.82,0.69,4.22,3.37,3.54C772.38,834.95,781.84,837.95,791.8,844.75z M704.2,501.31
			c-20.33,8.17-33.59,21.48-40.92,41c10.18-7.64,21.34-9.66,33.6-5.68C694.45,518.12,695.06,515.11,704.2,501.31z M791.36,542.17
			c-7.4-19.64-20.77-32.92-41.92-40.97c9.43,9.68,11.13,19.83,8.87,30.92c-0.49,2.4-0.62,4.52,2.79,3.65
			C772.17,532.95,782.12,535.38,791.36,542.17z M664.36,842.66c10.47-6.35,21.36-7.48,33.15-4.1c-1.55-6.55-2.76-12.16-1.6-18.07
			c1.11-5.67,3.99-10.59,7.3-16.74C683.86,811.52,671.76,824.44,664.36,842.66z M549.06,620.06c-3.71,0.5-5.11,2.55-3.74,6.3
			c0.59,1.61,3.13,2.94,1.37,4.88c-4.75,5.24,2.84,11.76-1.9,16.95c-0.22,0.25,0.21,1.44,0.65,1.88c1.96,1.99,2.07,3.79,0.23,6.04
			c-1.48,1.81-1.2,3.93,0.39,5.74c1.13,1.28,2.1,2.54,0.74,4.28c-4.08,5.22,2.47,11.63-1.87,16.83c5.03,4.15-2.11,8.65,0.27,12.55
			c1.66,2.72,2.16,4.54,0.04,7.26c-1.34,1.72-0.7,4.08,1.4,5.46c1.69,1.12,3.55,1.35,5.24,0.12c2.01-1.47,2.37-3.74,1.01-5.57
			c-1.94-2.61-2.34-4.69-0.07-7.32c1.32-1.53,0.87-3.52-0.28-5.21c-0.88-1.29-2.47-2.49-0.91-4.25c4.59-5.2-3.13-11.69,1.74-16.9
			c0.15-0.16-0.47-1.28-0.93-1.75c-1.81-1.83-1.86-3.5-0.02-5.41c1.43-1.48,1.69-3.48,0.6-5.19c-3.28-5.12,2.81-11.23-1.83-16.13
			c5.65-4.91-2.84-11.57,2.12-16.96C554.46,622.4,551.57,620.33,549.06,620.06z M791.05,692.67c-6.03-17.2-17.78-29.01-33.46-37.29
			c-0.97-0.51-2.33-1.16-3.15,0.07c-0.38,0.57-0.24,1.86,0.16,2.52c5.58,9.18,5.41,18.96,2.59,29.89
			C769.75,683.51,780.68,685.72,791.05,692.67z M664.02,743.03c4.99,16.46,22.77,33.86,39.04,38.11
			c-7.24-10.47-10.06-21.28-5.47-33.33C682.61,750.43,680.91,750.18,664.02,743.03z M751.06,630.63
			c17.09-4.21,38.4-26.5,39.74-39.85c-8.7,6.73-18.18,9.56-28.9,6.84c-2.6-0.66-4.09-0.33-3.46,2.95
			C760.47,611.14,758.58,620.91,751.06,630.63z M548.16,779.72c-2.43,2.45-4.68,4.91-2.83,7.69c1.82,2.74,2.2,4.7-0.07,7.29
			c-1.07,1.22-0.86,3.24,0.12,4.63c1.61,2.28,2.35,4.16,0.25,6.75c-1.58,1.95-1.35,4.47,1.02,6.1c1.72,1.19,3.65,1.06,5.19-0.26
			c2.11-1.81,2.04-3.97,0.45-6.21c-0.92-1.29-2.16-2.64-0.8-4.37c4.14-5.26-2.17-11.72,1.93-17.01c0.15-0.2-0.15-0.97-0.44-1.26
			c-2.42-2.36-2.63-4.54-0.09-7.1c1.21-1.22,0.99-3.16-0.14-4.53c-1.67-2.02-2.44-3.74-0.22-6c1.67-1.7,1.56-4.07,0.06-5.75
			c-2.01-2.27-1.47-3.99,0.17-6.05c1.07-1.34,1.39-3.29,0.28-4.58c-2.42-2.81-2.05-5.15,0.09-7.9c0.99-1.28,0.85-3.27-0.35-4.58
			c-1.84-2.01-2.28-3.66-0.25-5.96c1.74-1.97,1.64-4.38-0.73-6.06c-1.66-1.18-3.61-1.17-5.25,0.01c-2.36,1.68-2.27,4.04-0.77,6.14
			c1.38,1.94,1.99,3.41,0.1,5.45c-1.82,1.96-1.42,4.27,0.08,6.4c0.78,1.11,2.03,2.22,0.81,3.68c-4.59,5.49-1.35,12.66-0.74,17.5
			C546.66,768.97,540.37,775.51,548.16,779.72z M790.52,742.86c-8.89,6.59-18.63,7.5-28.85,5.75c-3.13-0.54-3.68,0.74-3.16,3.45
			c2.02,10.51-0.11,20.17-7.41,29.79C771.02,774.54,783.21,761.43,790.52,742.86z M664.56,894.74
			c7.28,18.33,19.86,31.16,39.77,38.38c-7.64-9.41-10.66-18.77-8.08-29.58c0.7-2.93-0.45-4.54-3.78-3.81
			C682.6,901.9,673.57,899.64,664.56,894.74z M802.7,845.85c3.72,15.85,3.61,29.84-0.07,45.62c11.68-11.23,23.93-18.15,39.78-22.54
			C826.25,864.45,813.82,857.97,802.7,845.85z M549.18,838.65c-3.75,0.88-5.09,3.01-3.79,6.67c0.57,1.6,3.13,2.77,1.41,4.87
			c-4.51,5.48,2.47,12.08-1.78,17.58c-0.17,0.22,0.48,1.29,0.96,1.75c1.89,1.82,1.85,3.53,0.06,5.41c-1.69,1.77-1.74,3.89-0.27,5.71
			c1.53,1.91,1.96,3.44,0.09,5.43c-1.62,1.72-1.63,4.02-0.19,5.79c1.83,2.23,1.65,3.88-0.15,6.05c-1.41,1.71-1.45,4.16,0.04,5.85
			c1.92,2.2,1.81,3.87,0.02,6.02c-1.27,1.53-1.46,3.76-0.08,5.19c2.38,2.47,1.45,4.31-0.12,6.67c-1.27,1.91-0.92,4.1,1.21,5.49
			c1.71,1.11,3.62,1.09,5.26-0.09c2.03-1.45,2.41-3.67,0.95-5.51c-1.9-2.39-2.19-4.17-0.01-6.6c1.54-1.73,0.91-3.95-0.44-5.8
			c-0.95-1.31-2.11-2.49-0.75-4.3c3.95-5.27-2.43-11.67,1.75-17c0.18-0.23-0.43-1.32-0.91-1.77c-1.92-1.82-1.78-3.48-0.07-5.4
			c1.57-1.76,1.78-3.96,0.16-5.72c-2.02-2.2-1.77-3.86,0.15-5.95c1.37-1.5,1.29-3.77,0.09-5.21c-2.01-2.41-2.02-4.28,0-6.66
			c1.3-1.53,1.13-3.66-0.22-5.18c-1.9-2.14-1.55-3.78-0.07-6.11C554.82,842.17,553.22,839.71,549.18,838.65z M790.57,440.77
			c-10.05,5.81-19.39,8.72-29.69,5.67c-2.05-0.61-3.27,0.26-2.69,2.55c2.65,10.53,0.41,20.19-6.18,29.51
			C767.11,475.63,785.85,457.5,790.57,440.77z M753.37,931.25c18.21-7.08,30.65-19.58,38.79-38.99
			c-10.31,7.17-20.02,9.93-30.82,7.31c-2.56-0.62-3.3,0.84-2.86,3.23C760.28,912.79,758.86,922.21,753.37,931.25z M703.4,479.92
			c-6.7-9.93-9.76-19.08-7.15-29.47c0.81-3.24-1.42-4.2-4.18-3.56c-10.76,2.51-20.01-0.96-29.65-8.06
			C670.51,458.5,682.97,471.81,703.4,479.92z M663.19,590.49c4.49,17.38,27.14,38.18,39.33,39.07c-7.04-9.93-8.91-20.73-5.39-32.52
			C681.13,599.69,674.18,598.36,663.19,590.49z M655.49,286.76c-4.62-17.79-2.51-34.89,3.73-51.88
			c-9.9,8.94-18.65,18.51-26.77,28.68c-2.49,3.12-1.64,4.84,1.51,6.46C642.12,274.23,648.72,280.41,655.49,286.76z M669.97,814.22
			c9.95-9.75,21.62-16.3,35.54-21.52c-14.38-4.66-25.51-11.65-35.5-21.12C673.08,785.87,673.22,799.85,669.97,814.22z
			 M650.64,432.57c-2.69-14.01-1.85-26.56,0.54-39.35c-10.91,9.4-23.02,15.87-36.3,20.72C628.06,417.17,638.86,424.4,650.64,432.57z
			 M749.66,490.84c7.17,3.22,13.6,5.26,19.17,9.02c5.77,3.89,11.2,8.21,16.5,13.06c-4.01-13.56-3.99-27.22-2.56-41.24
			C773.39,480.75,762.21,485.79,749.66,490.84z M615.29,566.89c13.48,4.17,25.09,11.17,37.06,21.94
			c-4.48-14.12-3.43-26.62-2.14-40.89C638.72,557.18,627.82,563.21,615.29,566.89z M804.71,735.83
			c10.45-8.22,21.39-14.84,36.08-18.76c-14.85-3.84-25.64-10.85-37.34-20.42C806.12,710.98,805.92,723.18,804.71,735.83z
			 M794.97,235.36c3.02,8.36,5.4,16.63,6.02,25.32c0.6,8.46-0.47,16.83-2.08,26.09c6.87-6.89,12.87-13.1,20.54-17.31
			c3.03-1.67,3.98-3.78,1.37-6.68C812.43,253.45,804.69,243.52,794.97,235.36z M699.07,238.48c-4.29-12.33-1.49-22.47,5.63-33.18
			c-18.8,7.89-30.83,19.75-37.18,37.57C676.85,236,686.91,235.09,699.07,238.48z M649.9,885.71c-1.92-13.13-1.31-25.72,2.29-40.06
			c-11.38,10.14-21.94,17.71-34.66,22.13C629.49,872.13,639.8,878.24,649.9,885.71z M786.81,242.33
			c-6.64-17.34-18.51-29.36-37.31-37.05c6.87,9.78,9.75,18.77,6.81,28.95c-0.65,2.26-0.74,4.4,2.86,3.3
			C769.09,234.51,777.95,237.39,786.81,242.33z M548.66,616.82c4.05,0.14,5.98-2.96,4-6.72c-1.19-2.25-2.3-3.81-0.11-6.05
			c1.69-1.73,1.44-3.99-0.07-5.73c-1.92-2.21-1.61-3.95,0.15-6.08c1.45-1.76,1.39-3.9-0.01-5.83c-0.92-1.28-2.34-2.29-0.93-4.21
			c3.84-5.24-2.74-11.61,1.68-16.89c0.16-0.2-0.47-1.29-0.95-1.75c-1.91-1.82-1.85-3.42,0-5.33c1.66-1.71,1.7-3.98,0.26-5.76
			c-1.77-2.18-1.8-3.87-0.07-6.1c1.64-2.13,1.16-4.45-0.87-6.22c-1.54-1.34-3.44-1.72-5.13-0.44c-2.48,1.86-2.65,4.55-0.94,6.78
			c1.77,2.3,1.7,3.97-0.09,6.08c-1.11,1.32-1.46,3.38-0.35,4.57c2.6,2.81,1.93,5.07-0.03,7.84c-1.16,1.63-0.35,3.62,1.03,5.1
			c1.29,1.38,1.28,2.51,0.27,4.28c-3.04,5.33-0.24,11.25-1.14,17.03c-1,6.44,1.82,13.4-0.36,20.25
			C544.03,614.66,545.85,616.47,548.66,616.82z M667.19,290.29c7.03,17.06,18.57,29.44,36.13,35.81c-6.4-9.66-8.22-19.83-4.53-31.33
			C687.11,298.43,676.91,296.81,667.19,290.29z M784.87,664.37c-4.38-14.9-4.27-27.97-1.18-43.12
			c-10.63,9.75-21.02,16.09-34.18,20.5C763.16,647.08,774.53,653.15,784.87,664.37z M749.51,327.37
			c16.56-6.75,27.5-16.84,35.18-30.66c0.55-0.99,1.12-2.17,0.24-3.25c-0.92-1.14-2.16-0.71-3.19-0.19
			c-8.3,4.14-16.94,4.19-26.63,1.6C759.59,306.57,757.04,316.56,749.51,327.37z M672.8,659.97c9.8-8,20.29-13.71,32.82-18.13
			c-13.66-4.35-24.29-11.38-35.18-21.21C674.41,634.81,674.28,647.26,672.8,659.97z M651.06,738.32c-2-11.39-3.09-22.39-1.06-33.56
			c0.33-1.81,0.65-5.59-2.75-2.97c-8.72,6.72-17.98,12.36-28.5,16.29C631.11,722.95,641.42,729.89,651.06,738.32z M749.18,792.95
			c13.38,4.11,24.01,10.97,35.02,21.27c-3.67-14.65-3.56-27.21-0.41-41.79C772.5,781.82,762.2,788.74,749.18,792.95z M770.11,946.75
			c0.35,3.96,2.71,5.86,6.11,4.1c2.95-1.53,5.08-2.53,7.96-0.1c1.49,1.26,3.7,1.07,5.18-0.35c2.16-2.08,3.85-1.74,5.97,0.09
			c1.77,1.53,3.9,1.15,5.84-0.1c1.3-0.84,2.51-2.6,4.26-1.12c5.41,4.58,12.12-2.61,17.52,1.98c0.17,0.15,0.94-0.17,1.25-0.46
			c2.37-2.27,4.48-2.41,7.27-0.24c1.84,1.43,4.58,1.4,6.15-1.04c1.07-1.65,1.07-3.64-0.21-5.25c-1.76-2.22-4.25-2.3-6.22-0.74
			c-2.5,1.99-4.34,1.77-6.71-0.13c-1.79-1.44-3.95-1.13-5.8,0.33c-1.28,1.01-2.46,2.3-4.24,0.84c-5.45-4.5-12.1,2.52-17.63-1.77
			c-0.24-0.19-1.35,0.4-1.78,0.88c-2.03,2.21-3.89,1.97-5.93-0.04c-1.26-1.25-3.29-1.73-4.53-0.77c-2.96,2.28-5.25,2.26-8.56,0.26
			C773.15,941.39,770.7,943.25,770.11,946.75z M696.04,946.8c-1-3.71-3.57-5.53-6.74-3.51c-2.86,1.83-4.63,2.19-7.22-0.14
			c-1.37-1.23-3.88-1.21-5.27,0.07c-2.41,2.22-4.26,1.92-6.65,0.06c-1.56-1.22-3.7-1.11-5.22,0.26c-2.15,1.94-3.91,1.98-5.99-0.07
			c-1.27-1.25-3.31-1.47-4.58-0.49c-3,2.32-5.55,2.6-8.58,0.03c-1.27-1.07-3.24-0.55-4.51,0.69c-2.1,2.06-3.83,1.77-6.02-0.07
			c-2.34-1.97-4.83-1.32-6.78,0.93c-1.47,1.69-1.17,3.52,0.24,5.06c1.79,1.95,4.13,2.54,6.28,0.94c2.11-1.58,3.71-2.45,6.01-0.27
			c1.97,1.86,4.37,1.42,6.39-0.19c1.64-1.3,3.05-1.88,4.91-0.29c2.43,2.07,5.03,2.31,7.55,0.02c0.9-0.82,2.12-1.73,3.06-0.75
			c5.09,5.34,11.88-2.67,17,2.25c0.28,0.27,1.54,0,1.95-0.41c2.67-2.68,4.85-1.63,7.84-0.07
			C693.02,952.61,695.39,950.51,696.04,946.8z M547.7,467.95c-1,3.21-4.84,5.67-1.98,9.08c1.87,2.23,1.76,3.91,0.04,6.08
			c-1.4,1.76-1.67,4.1-0.16,5.85c1.91,2.21,1.77,3.94-0.02,6.06c-1.11,1.31-1.45,3.33-0.39,4.59c2.14,2.55,2.26,4.56,0.16,7.27
			c-1.37,1.77-0.86,4.1,1.23,5.49c1.7,1.13,3.6,1.1,5.26-0.08c2.06-1.46,2.4-3.68,0.98-5.52c-1.83-2.39-2.32-4.25-0.01-6.61
			c1.21-1.23,1.26-3.35,0.2-4.58c-2.44-2.83-2.02-5.18,0.09-7.93c1.03-1.34,0.68-3.29-0.47-4.58c-1.89-2.14-1.75-3.9,0.06-6.06
			c1.51-1.8,1.31-4.04-0.29-5.76c-1.84-1.99-1.49-3.56,0.19-5.42c1.36-1.51,1.75-3.71,0.38-5.15c-2.67-2.81-1.71-4.69,0.68-6.95
			c1.65-1.55,0.96-3.45-0.48-4.96c-1.32-1.38-2.8-2.72-4.87-1.74c-2.04,0.97-4.11,3.73-2.9,4.88
			C550.78,457.03,540.27,463.74,547.7,467.95z M703.63,490.9c-10.63-4.29-20.14-9.9-30.22-18.31c2.41,12.97,1.85,23.77,0.25,36.32
			C683.46,500.86,692.88,495.07,703.63,490.9z M886.81,948.45c1.15,0.7,1.95,1.15,2.7,1.66c2.68,1.8,5.22,2.05,7.34-0.79
			c1.3-1.74,1-3.6-0.37-5.13c-2.11-2.35-4.62-2.16-6.83-0.28c-2.07,1.75-3.54,1.34-5.42-0.29c-2-1.74-4.32-1.44-6.46,0.01
			c-1.11,0.75-2.29,2.39-3.6,1.14c-5.17-4.95-11.83,2.58-17.01-2.17c-0.37-0.34-2.01,0.11-2.55,0.67c-2.29,2.38-4.21,1.78-6.65,0.05
			c-2.14-1.52-4.47-0.99-6.1,1.31c-1.25,1.77-1.07,3.5,0.28,5.13c1.58,1.91,3.55,1.97,5.7,1.14c1.61-0.62,2.91-3.23,4.85-1.59
			c5.5,4.64,12.2-2.5,17.59,2.03C875.2,945.91,882.37,955.74,886.81,948.45z M761.98,951.48c2.58-0.12,4.07-1.02,4.94-2.91
			c0.79-1.72,0.24-3.18-0.93-4.48c-1.41-1.57-3.53-2.25-5.03-1.09c-3.09,2.4-5.52,2.14-8.54-0.13c-1.44-1.08-3.61-0.44-5.18,0.89
			c-1.05,0.89-2.25,2.29-3.6,1.09c-5.36-4.8-12.17,2.35-17.52-2.24c-0.27-0.23-1.47,0.19-1.88,0.63c-2.25,2.44-4.17,1.78-6.6,0.04
			c-2.09-1.49-4.46-0.89-6.22,1.18c-1.49,1.75-1.08,3.5,0.18,5.08c1.7,2.13,4.1,2.67,6.17,1.03c2.49-1.96,4.32-1.96,6.61,0.2
			c1.21,1.14,3.53,1.33,4.61,0.32c4.93-4.64,11.55,3.56,16.14-2.33C750.03,955.5,757.59,944.82,761.98,951.48z M889.83,383.15
			c3.34,3.8,2.41,9.29,3.85,14.12c0.73,2.43,2.92,4.05,1.46,7.21c-1.06,2.28,0.09,4.57,2.64,5.69c2.04,0.89,3.67,0.06,4.9-1.52
			c1.76-2.26,1.24-4.49-0.83-6.13c-2.24-1.78-2.56-3.49-1.12-5.97c1-1.71,0.82-3.91-0.77-5.13c-2.44-1.86-2.98-3.68-1.67-6.49
			c0.82-1.76,0.32-3.94-1.42-4.99c-2.85-1.72-2.9-3.68-1.6-6.39c0.72-1.51,0.54-3.53-0.97-4.45c-2.94-1.79-3.18-3.62-2.09-6.89
			c1.08-3.25-1.46-5.27-4.74-5.24c-2.95,0.03-4.83,3.23-3.49,4.69c3.84,4.15,1.88,9.95,4.78,13.89
			C890.44,377.85,891.66,379.57,889.83,383.15z M747.6,195.3c0.15-0.56,0.3-1.11,0.45-1.67c-5.9-4.52-11.8-9.05-17.72-13.54
			c-1.5-1.14-3.23-2.43-5.08-1.11c-6.66,4.74-13.21,9.64-19.8,14.48c0.26,0.57,0.52,1.15,0.78,1.72
			C720.04,191.82,733.83,190.94,747.6,195.3z M560.09,535.27c0.03,0,0.05,0,0.08,0c0,3.72-0.07,7.44,0.02,11.16
			c0.1,4.08,3.31,5.5,6.41,6.39c3.79,1.09,4.74-2.29,5.59-4.81c2.67-7.88,1.5-15.17-4.33-21.32c-1.82-1.92-3.7-5.34-6.6-4.06
			c-2.48,1.09-0.84,4.63-1.12,7.07C559.92,531.53,560.09,533.41,560.09,535.27z M560.1,688.61c0.03,0,0.07,0,0.1,0
			c0,3.97-0.11,7.94,0.03,11.9c0.11,3.12,2.56,4.33,5.06,5.07c3.1,0.92,3.99-1.7,5-3.74c3.57-7.22,1.7-16.36-4.68-23.22
			c-1.1-1.18-2.21-2.99-3.92-2.52c-2.41,0.66-1.44,3.09-1.55,4.81C559.98,683.47,560.1,686.04,560.1,688.61z M894.23,594.79
			c-0.04,0-0.09,0-0.13,0c0-3.48,0.1-6.97-0.03-10.45c-0.11-2.85-1.66-4.92-4.45-5.55c-3.15-0.71-3.8,2.13-4.73,4.1
			c-3.31,6.98-1.11,18.07,4.48,23.3c1.01,0.95,2.04,2.27,3.51,1.89c1.75-0.45,1.3-2.24,1.33-3.54
			C894.28,601.29,894.23,598.04,894.23,594.79z M894.25,746.5c-0.02,0-0.03,0-0.05,0c0-3.48-0.02-6.97,0.01-10.45
			c0.03-3.27-1.56-5.45-4.72-5.91c-2.89-0.42-4.14,2.06-4.79,4.23c-1.99,6.65-2.39,13.33,1.92,19.33c1.68,2.33,3.29,6.4,6.44,5.31
			c2.65-0.92,0.84-4.99,1.15-7.63C894.4,749.77,894.25,748.13,894.25,746.5z M894.16,912.15c0-8.51-0.01-16.16,0-23.81
			c0-2.98-1.57-4.77-4.3-5.61c-2.27-0.7-3.38,0.8-4.43,2.45C880.09,893.6,884.15,907.08,894.16,912.15z M653.17,935.1
			c3.62-1,8.7,1.92,10.71-2.52c1.87-4.13,0.02-9.02-2.73-12.33c-2.66-3.21-5.86,0.1-8.65,1.38c-1.03,0.47-1.96,1.24-2.82,2
			c-2.95,2.64-6.74,5.74-5.35,9.7C645.54,936.72,650.16,934.22,653.17,935.1z M560.18,825.56c0,9,0,16.85,0,24.71
			c0,2.67,1.28,4.54,3.82,5.17c3.13,0.78,3.91-1.87,4.85-3.93C572.91,842.61,569.95,832.79,560.18,825.56z M555.19,948.66
			c2.52,0.66,4.64,4.33,7.45,2.31c3.19-2.29,5.35-1.98,8.5,0.07c2.38,1.55,4.78-0.57,6.65-2.52c1.38-1.44,0.55-2.43-0.35-3.58
			c-1.61-2.04-3.71-3.04-6.16-2.17c-6.77,2.42-13.47,1.63-20.2-0.08c-1.91-0.49-3.8-0.58-5.16,1.05c-1.3,1.56-1.45,3.48-0.46,5.24
			c1.18,2.09,3.12,2.84,5.38,2.01C552.33,950.45,553.68,949.49,555.19,948.66z M893.37,455.44c-0.27-5.5-0.43-10.75-0.82-15.98
			c-0.24-3.23-0.82-6.43-1.25-9.65c-0.18-1.39-0.29-2.98-1.91-3.35c-2.07-0.48-2.72,1.3-3.51,2.69
			C881.01,437.77,884.04,448.82,893.37,455.44z"/>
	</g>
</g>
<g id="Ebene_2">
	<path class="st2" d="M433.07,1059V411.46c0,0-7.07-223.28,293.77-394.46c0,0,281.68,123.61,299.88,394.46l2.44,647.54H433.07z
		 M459.6,1032.59h542.37V421.15c0,0,9.87-211.9-271.19-377.39c0,0-246.26,109.04-269.23,373.8L459.6,1032.59z M539.54,960.49h384.44
		V442.28c0,0,8.7-167.88-192.72-304.1c0,0-189.17,104.05-192.77,300.77L539.54,960.49z M560.17,933.11l339.62,0.34l0.87-471.55
		c0,0,12.94-176.06-171.34-295.18c0,0-170.24,95-169.15,297.7V933.11z M551.21,960.51v72.08 M731.08,960.49v72.08 M911.56,960.49
		v72.08 M923.98,954.44c78.35,0.63,78.35,0.63,78.35,0.63 M923.98,789.17c78.35,0.63,78.35,0.63,78.35,0.63 M923.98,636.06
		c78.35,0.63,78.35,0.63,78.35,0.63 M923.98,480.93c78.35,0.63,78.35,0.63,78.35,0.63 M901.68,330.86
		c78.35,0.63,78.35,0.63,78.35,0.63 M479.87,329.85c78.35,0.63,78.35,0.63,78.35,0.63 M558.22,328.91c0,0,0,0-78.35,0.48
		 M461.62,481.48c75.79-0.33,75.79-0.33,75.79-0.33 M461.62,635.6c75.79-0.33,75.79-0.33,75.79-0.33 M461.62,788.71
		c75.79-0.33,75.79-0.33,75.79-0.33 M461.62,956.01c75.79-0.33,75.79-0.33,75.79-0.33 M730.78,43.75c0,94.08,0,94.08,0,94.08
		 M827.76,221.13l56.62-56.62 M631.48,220.02l-57.38-57.38 M731.1,483.59c-41.72,0-75.54,33.82-75.54,75.54
		c0,41.72,33.82,75.54,75.54,75.54c41.72,0,75.54-33.82,75.54-75.54C806.64,517.41,772.82,483.59,731.1,483.59z M731.1,637.71
		c-41.72,0-75.54,33.82-75.54,75.54c0,41.72,33.82,75.54,75.54,75.54c41.72,0,75.54-33.82,75.54-75.54
		C806.64,671.53,772.82,637.71,731.1,637.71z M768.64,931.92c2.85-1.63,5.59-3.46,8.2-5.45c21.65-16.5,32.89-43.99,29.03-70.93
		c-3.54-24.72-19.65-46.55-42.15-57.34c-23.05-11.06-50.93-9.5-72.61,4.06c-21.32,13.33-34.87,36.96-35.52,62.1
		c-0.72,27.74,14.27,54.17,38.43,67.82 M731.1,331.49c-41.72,0-75.54,33.82-75.54,75.54s33.82,75.54,75.54,75.54
		c41.72,0,75.54-33.82,75.54-75.54S772.82,331.49,731.1,331.49z M663.58,220.02c-1,2.12-1.9,4.29-2.72,6.49
		c-6.56,17.75-7.09,37.83-0.68,55.71c6.48,18.09,20.41,33.51,37.91,41.54c18.49,8.49,40.09,9.38,59.13,2.35
		c17.13-6.32,33.88-18.99,41.42-36.05c8.66-19.61,11.15-43.04,3.11-63.26 M747.58,180.13c-14.09-3-29.03-2.16-42.58,2.81
		 M897.59,723.71c-2.62-1.41-5.33-2.66-8.11-3.75c-20.23-7.94-43.49-6.66-62.72,3.45c-16.93,8.91-30.11,24.24-36.33,42.34
		c-6.41,18.67-5.18,39.6,3.41,57.38c8.32,17.21,23.2,30.91,41.05,37.74c21.16,8.1,45.46,6.12,65.03-5.29 M897.27,568.2
		c-2.62-1.41-5.33-2.66-8.11-3.75c-20.23-7.94-43.49-6.66-62.72,3.45c-16.93,8.91-30.11,24.24-36.33,42.34
		c-6.41,18.67-5.18,39.6,3.41,57.38c8.32,17.21,23.2,30.91,41.05,37.74c21.16,8.1,45.46,6.12,65.03-5.29 M896.46,416.25
		c-2.62-1.41-5.33-2.66-8.11-3.75c-20.23-7.94-43.49-6.66-62.72,3.45c-16.93,8.91-30.11,24.24-36.33,42.34
		c-6.41,18.67-5.18,39.6,3.41,57.38c8.32,17.21,23.2,30.91,41.05,37.74c21.16,8.1,45.46,6.12,65.03-5.29 M563.39,548.76
		c19.57,11.42,43.88,13.39,65.03,5.29c17.86-6.84,32.74-20.53,41.05-37.74c8.59-17.77,9.82-38.71,3.41-57.38
		c-6.22-18.1-19.4-33.43-36.33-42.34c-19.22-10.12-42.49-11.4-62.72-3.45c-2.77,1.09-5.48,2.34-8.11,3.75 M561.53,706.73
		c19.57,11.42,43.88,13.39,65.03,5.29c17.86-6.84,32.74-20.53,41.05-37.74c8.59-17.77,9.82-38.71,3.41-57.38
		c-6.22-18.1-19.4-33.43-36.33-42.34c-19.22-10.12-42.49-11.4-62.72-3.45c-2.77,1.09-5.48,2.34-8.11,3.75 M561.53,855.78
		c19.57,11.42,43.88,13.39,65.03,5.29c17.86-6.84,32.74-20.53,41.05-37.74c8.59-17.77,9.82-38.71,3.41-57.38
		c-6.22-18.1-19.4-33.43-36.33-42.34c-19.22-10.12-42.49-11.4-62.72-3.45c-2.77,1.09-5.48,2.34-8.11,3.75 M829.36,263.57
		c-15.14,8.29-27.33,21.88-33.82,37.88c-10.95,26.99-4.63,59.44,15.36,80.56c20.64,21.81,54.04,28.9,81.99,18.27 M569.59,396.65
		c27.95,10.64,61.35,3.54,81.99-18.27c19.99-21.12,26.31-53.57,15.36-80.56c-6.49-16-18.68-29.59-33.82-37.88 M897.67,877.18
		c-21.58-13.88-49.97-11.85-72.28-0.69c-21.29,10.14-35.49,30.42-39.15,53.31 M673.57,930.24c-3.66-22.89-17.85-43.17-39.15-53.31
		c-22.31-11.15-50.7-13.18-72.28,0.69 M473.99,1015.27h512.76l3.82-585.09c0,0-23.23-254.41-259.73-365.14
		c0,0-230.41,85.97-256.78,365.82L473.99,1015.27z M731.76,687.05c-14.27,0-25.84,11.57-25.84,25.84
		c0,14.27,11.57,25.84,25.84,25.84s25.84-11.57,25.84-25.84C757.6,698.62,746.03,687.05,731.76,687.05z M750.11,690.93
		c10.08-7.94,14.39-22.03,9.93-34.15c-6.56-17.82-29.58-25.77-45.5-15.12c-16.67,11.16-17.43,37.15-1.61,49.42 M712.78,733.56
		c-15.82,12.27-15.06,38.26,1.61,49.42c15.92,10.65,38.94,2.71,45.5-15.12c4.46-12.12,0.15-26.2-9.93-34.15 M708.42,694.35
		c-7.94-10.08-22.03-14.39-34.15-9.93c-17.82,6.56-25.77,29.58-15.12,45.5c11.16,16.67,37.15,17.43,49.42,1.61 M752.41,730.95
		c12.27,15.82,38.26,15.06,49.42-1.61c10.65-15.92,2.71-38.94-15.12-45.5c-12.12-4.46-26.2-0.15-34.15,9.93 M731.81,533.99
		c-14.27,0-25.84,11.57-25.84,25.84s11.57,25.84,25.84,25.84c14.27,0,25.84-11.57,25.84-25.84S746.08,533.99,731.81,533.99z
		 M750.16,537.87c10.08-7.94,14.39-22.03,9.93-34.15c-6.56-17.82-29.58-25.77-45.5-15.12c-16.67,11.16-17.43,37.15-1.61,49.42
		 M712.83,580.5c-15.82,12.27-15.06,38.26,1.61,49.42c15.92,10.65,38.94,2.71,45.5-15.12c4.46-12.12,0.15-26.2-9.93-34.15
		 M708.48,541.29c-7.94-10.08-22.03-14.39-34.15-9.93c-17.82,6.56-25.77,29.58-15.12,45.5c11.16,16.67,37.15,17.43,49.42,1.61
		 M752.46,577.89c12.27,15.82,38.26,15.06,49.42-1.61c10.65-15.92,2.71-38.94-15.12-45.5c-12.12-4.46-26.2-0.15-34.15,9.93
		 M731.82,380.92c-14.27,0-25.84,11.57-25.84,25.84c0,14.27,11.57,25.84,25.84,25.84c14.27,0,25.84-11.57,25.84-25.84
		C757.66,392.49,746.09,380.92,731.82,380.92z M750.17,384.79c10.08-7.94,14.39-22.03,9.93-34.15
		c-6.56-17.82-29.58-25.77-45.5-15.12c-16.67,11.16-17.43,37.15-1.61,49.42 M712.84,427.43c-15.82,12.27-15.06,38.26,1.61,49.42
		c15.92,10.65,38.94,2.71,45.5-15.12c4.46-12.12,0.15-26.2-9.93-34.15 M708.48,388.21c-7.94-10.08-22.03-14.39-34.15-9.93
		c-17.82,6.56-25.77,29.58-15.12,45.5c11.16,16.67,37.15,17.43,49.42,1.61 M752.47,424.81c12.27,15.82,38.26,15.06,49.42-1.61
		c10.65-15.92,2.71-38.94-15.12-45.5c-12.12-4.46-26.2-0.15-34.15,9.93 M731.82,229.93c-14.27,0-25.84,11.57-25.84,25.84
		s11.57,25.84,25.84,25.84c14.27,0,25.84-11.57,25.84-25.84S746.09,229.93,731.82,229.93z M750.17,233.81
		c10.08-7.94,14.39-22.03,9.93-34.15c-6.56-17.82-29.58-25.77-45.5-15.12c-16.67,11.16-17.43,37.15-1.61,49.42 M712.84,276.44
		c-15.82,12.27-15.06,38.26,1.61,49.42c15.92,10.65,38.94,2.71,45.5-15.12c4.46-12.12,0.15-26.2-9.93-34.15 M708.49,237.23
		c-7.94-10.08-22.03-14.39-34.15-9.93c-17.82,6.56-25.77,29.58-15.12,45.5c11.16,16.67,37.15,17.43,49.42,1.61 M752.47,273.83
		c12.27,15.82,38.26,15.06,49.42-1.61c10.65-15.92,2.71-38.94-15.12-45.5c-12.12-4.46-26.2-0.15-34.15,9.93 M730.81,840.07
		c-14.27,0-25.84,11.57-25.84,25.84c0,14.27,11.57,25.84,25.84,25.84s25.84-11.57,25.84-25.84
		C756.65,851.64,745.08,840.07,730.81,840.07z M749.16,843.95c10.08-7.94,14.39-22.03,9.93-34.15
		c-6.56-17.82-29.58-25.77-45.5-15.12c-16.67,11.16-17.43,37.15-1.61,49.42 M750.97,932.57c13.65-12.3,12.35-34.53-1.97-45.82
		 M711.83,886.59c-14.35,11.12-15.16,34.29-1.93,46.62 M707.47,847.37c-7.94-10.08-22.03-14.39-34.15-9.93
		c-17.82,6.56-25.77,29.58-15.12,45.5c11.16,16.67,37.15,17.43,49.42,1.61 M751.46,883.97c12.27,15.82,38.26,15.06,49.42-1.61
		c10.65-15.92,2.71-38.94-15.12-45.5c-12.12-4.46-26.2-0.15-34.15,9.93 M792.05,604.91c7.01,9.03,19.77,11.96,30.31,7.97
		c11.05-4.17,17.47-15.49,15.7-27.12c-0.96-6.35-4.18-12.34-9.04-16.56 M796.63,665.88c11.43,0.25,21.74-7.81,25.29-18.51
		c3.72-11.21-1.02-23.32-11.16-29.28c-5.54-3.25-12.22-4.53-18.55-3.41 M836.03,565.54c-0.75,11.41,6.85,22.06,17.38,26.08
		c11.03,4.21,23.34,0,29.74-9.87c3.49-5.39,5.06-12.01,4.22-18.38 M839.33,704.03c4.53-4.56,7.3-10.78,7.79-17.18
		c0.9-11.72-6.35-22.53-17.67-25.87c-10.81-3.19-23.31,0.68-29.63,10.2 M895.49,702.96c0.47-6.42-1.49-12.93-5.28-18.11
		c-6.96-9.48-19.49-12.96-30.26-8.12c-10.28,4.62-17.25,15.7-15.83,27.04 M890.88,568.9c-8.83,11.42-5.85,29.28,5.97,37.46
		 M897.7,663.9c-7.09,9.46-6.6,23.5,0.8,32.64 M793.07,759.03c7.01,9.03,19.77,11.96,30.31,7.97c11.05-4.17,17.47-15.49,15.7-27.12
		c-0.96-6.35-4.18-12.34-9.04-16.56 M797.65,820c11.43,0.25,21.74-7.81,25.29-18.51c3.72-11.21-1.02-23.32-11.16-29.28
		c-5.54-3.25-12.22-4.53-18.55-3.41 M837.04,719.66c-0.75,11.41,6.85,22.06,17.38,26.08c11.03,4.21,23.34,0,29.74-9.87
		c3.49-5.39,5.06-12.01,4.22-18.38 M840.35,858.15c4.53-4.56,7.3-10.78,7.79-17.18c0.9-11.72-6.35-22.53-17.67-25.87
		c-10.81-3.19-23.31,0.68-29.63,10.2 M896.51,857.08c0.47-6.42-1.49-12.93-5.28-18.11c-6.96-9.48-19.49-12.96-30.26-8.12
		c-10.28,4.62-17.25,15.7-15.83,27.04 M891.9,723.02c-8.83,11.42-5.85,29.28,5.97,37.46 M898.72,818.02
		c-7.09,9.46-6.6,23.5,0.8,32.64 M793.07,452.82c7.01,9.03,19.77,11.96,30.31,7.97c11.05-4.17,17.47-15.49,15.7-27.12
		c-0.96-6.35-4.18-12.34-9.04-16.56 M797.65,513.79c11.43,0.25,21.74-7.81,25.29-18.51c3.72-11.21-1.02-23.32-11.16-29.28
		c-5.54-3.25-12.22-4.53-18.55-3.41 M837.04,413.45c-0.75,11.41,6.85,22.06,17.38,26.08c11.03,4.21,23.34,0,29.74-9.87
		c3.49-5.39,5.06-12.01,4.22-18.38 M840.35,551.94c4.53-4.56,7.3-10.78,7.79-17.18c0.9-11.72-6.35-22.53-17.67-25.87
		c-10.81-3.19-23.31,0.68-29.63,10.2 M896.51,550.87c0.47-6.42-1.49-12.93-5.28-18.11c-6.96-9.48-19.49-12.96-30.26-8.12
		c-10.28,4.62-17.25,15.7-15.83,27.04 M891.9,416.81c-8.83,11.42-5.85,29.28,5.97,37.46 M898.72,511.81
		c-7.09,9.46-6.6,23.5,0.8,32.64 M669.22,820.09c-7.01-9.03-19.77-11.96-30.31-7.97c-11.05,4.17-17.47,15.49-15.7,27.12
		c0.96,6.35,4.18,12.34,9.04,16.56 M664.63,759.13c-11.43-0.25-21.74,7.81-25.29,18.51c-3.72,11.21,1.02,23.32,11.16,29.28
		c5.54,3.25,12.22,4.53,18.55,3.41 M625.24,859.46c0.75-11.41-6.85-22.06-17.38-26.08c-11.03-4.21-23.34,0-29.74,9.87
		c-3.49,5.39-5.06,12.01-4.22,18.38 M621.94,720.97c-4.53,4.56-7.3,10.78-7.79,17.18c-0.9,11.72,6.35,22.53,17.67,25.87
		c10.81,3.19,23.31-0.68,29.63-10.2 M565.78,722.04c-0.47,6.42,1.49,12.93,5.28,18.11c6.96,9.48,19.49,12.96,30.26,8.12
		c10.28-4.62,17.25-15.7,15.83-27.04 M570.38,856.1c8.83-11.42,5.85-29.28-5.97-37.46 M563.57,761.1c7.09-9.46,6.6-23.5-0.8-32.64
		 M669.22,669.02c-7.01-9.03-19.77-11.96-30.31-7.97c-11.05,4.17-17.47,15.49-15.7,27.12c0.96,6.35,4.18,12.34,9.04,16.56
		 M664.63,608.05c-11.43-0.25-21.74,7.81-25.29,18.51c-3.72,11.21,1.02,23.32,11.16,29.28c5.54,3.25,12.22,4.53,18.55,3.41
		 M625.24,708.38c0.75-11.41-6.85-22.06-17.38-26.08c-11.03-4.21-23.34,0-29.74,9.87c-3.49,5.39-5.06,12.01-4.22,18.38
		 M621.94,569.89c-4.53,4.56-7.3,10.78-7.79,17.18c-0.9,11.72,6.35,22.53,17.67,25.87c10.81,3.19,23.31-0.68,29.63-10.2
		 M565.78,570.96c-0.47,6.42,1.49,12.93,5.28,18.11c6.96,9.48,19.49,12.96,30.26,8.12c10.28-4.62,17.25-15.7,15.83-27.04
		 M570.38,705.02c8.83-11.42,5.85-29.28-5.97-37.46 M563.57,610.02c7.09-9.46,6.6-23.5-0.8-32.64 M792.83,916.41
		c7.01,9.03,19.77,11.96,30.31,7.97c11.05-4.17,17.47-15.49,15.7-27.12c-0.96-6.35-4.18-12.34-9.04-16.56 M836.8,877.04
		c-0.75,11.41,6.85,22.06,17.38,26.08c11.03,4.21,23.34,0,29.74-9.87c3.49-5.39,5.06-12.01,4.22-18.38 M891.66,880.41
		c-8.83,11.42-5.85,29.28,5.97,37.46 M559.57,885.6c2.25,11.21,12.37,19.51,23.58,20.64c11.75,1.18,22.54-6.09,26.13-17.28
		c1.96-6.11,1.75-12.91-0.72-18.85 M616.48,869.94c-5.75,9.88-3.69,22.8,3.95,31.09c8.01,8.68,20.9,10.4,31.02,4.41
		c5.53-3.27,9.88-8.5,11.97-14.58 M664.1,897.38c-12.99,6.29-18.28,23.61-11.34,36.19 M664.93,302.18
		c-7.14,1.48-13.72,5.46-18.34,11.09c-12.61,15.37-4.93,38.57,12.58,46.34 M661.07,359.39c-6.24-3.77-13.77-5.33-20.99-4.35
		c-19.7,2.68-29.86,24.91-22.31,42.52 M620.38,394.44c-1.38-6.65-5.08-12.78-10.33-17.08c-14.31-11.74-35.93-4.59-43.16,11.72
		 M629,262.45c-3.44,6.43-4.6,14.03-3.24,21.19c3.72,19.53,26.45,28.5,43.64,20.03 M801.3,360.99
		c17.51-7.77,25.19-30.97,12.58-46.34c-4.62-5.63-11.2-9.62-18.34-11.09 M842.7,398.94c7.55-17.61-2.61-39.84-22.31-42.52
		c-7.22-0.98-14.75,0.58-20.99,4.35 M893.58,390.45c-7.23-16.31-28.85-23.46-43.16-11.72c-5.25,4.31-8.96,10.43-10.33,17.08
		 M791.07,305.05c17.18,8.47,39.92-0.51,43.64-20.03c1.36-7.16,0.2-14.76-3.24-21.19"/>
</g>
</svg>
