<?xml version="1.0" encoding="utf-8"?>
<!-- Generator: Adobe Illustrator 24.3.0, SVG Export Plug-In . SVG Version: 6.00 Build 0)  -->
<svg version="1.1" id="Ebene_2_1_" xmlns="http://www.w3.org/2000/svg" xmlns:xlink="http://www.w3.org/1999/xlink" x="0px" y="0px"
	 viewBox="0 0 603.1 1049" style="enable-background:new 0 0 603.1 1049;" xml:space="preserve">
<style type="text/css">
	.st0{fill:none;stroke:#FFFFFF;stroke-width:7;stroke-linecap:round;stroke-linejoin:round;}
</style>
<path class="st0" d="M3.5,1045.5V398c0,0-7.1-223.3,293.8-394.5c0,0,281.7,123.6,299.9,394.5l2.4,647.5H3.5z M30,1019.1h542.4V407.6
	c0,0,9.9-211.9-271.2-377.4c0,0-246.3,109-269.2,373.8L30,1019.1z M110,947h384.5V428.8c0,0,8.7-167.9-192.7-304.1
	c0,0-189.2,104-192.8,300.8L110,947z M130.6,919.6l339.6,0.3l0.9-471.5c0,0,12.9-176.1-171.3-295.2c0,0-170.2,95-169.1,297.7
	L130.6,919.6L130.6,919.6z M121.6,947v72.1 M301.5,947v72.1 M482,947v72.1 M494.4,940.9l78.4,0.7 M494.4,775.7l78.4,0.6
	 M494.4,622.6l78.4,0.6 M494.4,467.4l78.4,0.7 M472.1,317.4l78.4,0.6 M50.3,316.3l78.4,0.7 M128.7,315.4l-78.4,0.5 M32.1,468
	l75.7-0.3 M32.1,622.1l75.7-0.3 M32.1,775.2l75.7-0.3 M32.1,942.5l75.7-0.3 M301.2,30.2v94.1 M398.2,207.6l56.7-56.6 M201.9,206.5
	l-57.4-57.4 M301.5,470.1c-41.7,0-75.5,33.8-75.5,75.5s33.8,75.5,75.5,75.5s75.5-33.8,75.5-75.5l0,0
	C377.1,503.9,343.3,470.1,301.5,470.1C301.6,470.1,301.5,470.1,301.5,470.1L301.5,470.1z M301.5,624.2c-41.7,0-75.5,33.8-75.5,75.5
	s33.8,75.5,75.5,75.5s75.5-33.8,75.5-75.5l0,0C377.1,658.1,343.3,624.2,301.5,624.2C301.6,624.2,301.5,624.2,301.5,624.2
	L301.5,624.2z M339.1,918.4c36.2-20.7,48.7-66.9,28-103.1c-20.7-36.2-66.9-48.7-103.1-28s-48.7,66.9-28,103.1
	c6.8,11.8,16.6,21.6,28.5,28.3 M301.5,318c-41.7,0-75.5,33.8-75.5,75.5s33.8,75.5,75.5,75.5s75.5-33.8,75.5-75.5l0,0
	C377.1,351.8,343.2,318,301.5,318z M234,206.5c-1,2.1-1.9,4.3-2.7,6.5c-6.6,17.8-7.1,37.8-0.7,55.7c6.6,18.3,20.3,33.3,37.9,41.5
	c18.6,8.5,39.9,9.4,59.1,2.4c17.1-6.3,33.9-19,41.4-36.1c8.7-19.6,11.2-43,3.1-63.3 M318,166.6c-14.2-3.1-28.9-2.1-42.6,2.8
	 M468,710.2c-2.6-1.4-5.3-2.7-8.1-3.8c-38.8-15.2-82.7,3.9-97.9,42.7s3.9,82.7,42.7,97.9c21.5,8.4,45.7,6.6,65.6-5.1 M467.7,554.7
	c-36.8-19.7-82.6-5.9-102.3,30.9s-5.9,82.6,30.9,102.3c23.1,12.4,51.1,11.9,73.8-1.3 M466.9,402.8c-2.6-1.4-5.3-2.7-8.1-3.8
	c-38.8-15.2-82.7,3.9-97.9,42.7s3.9,82.7,42.7,97.9c21.5,8.4,45.7,6.6,65.6-5.1 M133.8,535.3c36.1,21,82.3,8.8,103.3-27.3
	s8.8-82.3-27.3-103.3c-19.9-11.6-44.1-13.5-65.6-5.1c-2.8,1.1-5.5,2.3-8.1,3.8 M132,693.2c36,21.1,82.3,8.9,103.4-27.1
	s8.9-82.3-27.1-103.4c-22.7-13.3-50.7-13.8-73.9-1.3 M132,842.3c36,21.1,82.3,8.9,103.4-27.1s8.9-82.3-27.1-103.4
	c-22.7-13.3-50.7-13.8-73.9-1.3 M399.8,250.1c-15.3,8.4-27.2,21.8-33.8,37.9c-11,27-4.6,59.4,15.3,80.5c20.6,21.8,54,28.9,82,18.3
	 M140,383.1c28,10.6,61.3,3.5,82-18.3c20-21.1,26.3-53.6,15.3-80.5c-6.6-16.1-18.6-29.5-33.8-37.9 M468.1,863.7
	c-21.6-13.9-50-11.8-72.3-0.7c-21.3,10.1-35.5,30.4-39.2,53.3 M244,916.7c-3.7-22.9-17.9-43.2-39.2-53.3
	c-22.3-11.2-50.7-13.2-72.3,0.7 M44.4,1001.8h512.8l3.8-585.1c0,0-23.2-254.4-259.7-365.2c0,0-230.4,86-256.8,365.8L44.4,1001.8z
	 M302.2,673.5c-14.3,0-25.9,11.6-25.9,25.8s11.6,25.9,25.8,25.9s25.9-11.6,25.9-25.8l0,0C328,685.1,316.5,673.6,302.2,673.5z
	 M320.5,677.4c10.1-7.9,14.4-22,9.9-34.2c-6.5-17.8-29.6-25.8-45.5-15.1c-16.7,11.2-17.4,37.2-1.6,49.4 M283.2,720.1
	c-15.8,12.3-15.1,38.3,1.6,49.4c15.9,10.7,38.9,2.7,45.5-15.1c4.5-12.1,0.2-26.2-9.9-34.2 M278.9,680.9c-7.9-10.1-22-14.4-34.1-9.9
	c-17.8,6.6-25.8,29.6-15.1,45.5c11.2,16.7,37.2,17.4,49.4,1.6 M322.9,717.5c12.3,15.8,38.3,15.1,49.4-1.6
	C383,700,375,677,357.2,670.4c-12.1-4.5-26.2-0.2-34.1,9.9 M302.2,520.5c-14.3,0-25.9,11.6-25.9,25.8s11.6,25.9,25.8,25.9
	s25.9-11.6,25.9-25.8l0,0C328.1,532.1,316.5,520.5,302.2,520.5L302.2,520.5z M320.6,524.4c10.1-7.9,14.4-22,9.9-34.1
	c-6.6-17.8-29.6-25.8-45.5-15.1c-16.7,11.1-17.4,37.1-1.6,49.4 M283.3,567c-15.8,12.3-15.1,38.3,1.6,49.4
	c15.9,10.7,38.9,2.7,45.5-15.1c4.5-12.1,0.1-26.2-9.9-34.2 M278.9,527.8c-8-10.1-22-14.4-34.2-9.9c-17.8,6.6-25.8,29.6-15.1,45.5
	c11.2,16.7,37.2,17.4,49.4,1.6 M322.9,564.4c12.3,15.8,38.3,15.1,49.4-1.6c10.7-15.9,2.7-38.9-15.1-45.5
	c-12.1-4.5-26.2-0.2-34.1,9.9 M302.3,367.4c-14.3,0-25.8,11.6-25.8,25.8s11.6,25.8,25.8,25.8c14.3,0,25.8-11.6,25.8-25.8
	C328.1,379,316.5,367.4,302.3,367.4L302.3,367.4z M320.6,371.3c10.1-7.9,14.4-22,9.9-34.1c-6.5-17.8-29.6-25.8-45.5-15.1
	c-16.7,11.2-17.4,37.2-1.6,49.5 M283.3,414c-15.8,12.3-15.1,38.3,1.6,49.4c15.9,10.6,38.9,2.7,45.5-15.1c4.5-12.1,0.2-26.2-9.9-34.1
	 M278.9,374.8c-7.9-10.1-22-14.4-34.1-9.9c-17.8,6.6-25.8,29.6-15.1,45.5c11.2,16.7,37.2,17.4,49.4,1.6 M322.9,411.4
	c12.3,15.8,38.3,15.1,49.4-1.6c10.7-15.9,2.7-38.9-15.1-45.5c-12.1-4.5-26.2-0.1-34.2,9.9 M302.3,216.5c-14.3,0-25.9,11.6-25.9,25.8
	s11.6,25.9,25.8,25.9s25.9-11.6,25.9-25.8l0,0C328.1,228,316.6,216.5,302.3,216.5C302.3,216.4,302.3,216.4,302.3,216.5L302.3,216.5z
	 M320.6,220.4c10.1-7.9,14.4-22,9.9-34.2c-6.6-17.8-29.6-25.8-45.5-15.1c-16.7,11.1-17.4,37.1-1.6,49.4 M283.3,263
	c-15.8,12.3-15.1,38.3,1.6,49.4c15.9,10.7,38.9,2.7,45.5-15.1c4.5-12.1,0.1-26.2-9.9-34.1 M278.9,223.8c-8-10.1-22-14.4-34.2-9.9
	c-17.8,6.6-25.8,29.6-15.1,45.5c11.2,16.7,37.2,17.4,49.4,1.6 M322.9,260.4c12.3,15.8,38.3,15.1,49.4-1.6
	c10.7-15.9,2.7-38.9-15.1-45.5c-12.1-4.5-26.2-0.1-34.1,9.9 M301.2,826.6c-14.3,0-25.9,11.6-25.9,25.8s11.6,25.9,25.8,25.9
	s25.9-11.6,25.9-25.8l0,0C327.1,838.1,315.5,826.6,301.2,826.6z M319.6,830.5c10.1-7.9,14.4-22,9.9-34.1
	c-6.5-17.9-29.6-25.9-45.5-15.2c-16.7,11.2-17.4,37.2-1.6,49.4 M321.4,919.1c13.7-12.3,12.3-34.5-2-45.8 M282.3,873.1
	c-14.3,11.1-15.2,34.3-1.9,46.6 M277.9,833.9c-7.9-10.1-22-14.4-34.1-9.9c-17.8,6.6-25.8,29.6-15.1,45.5
	c11.2,16.7,37.2,17.4,49.4,1.6 M321.9,870.5c12.3,15.8,38.3,15.1,49.4-1.6C382,853,374,830,356.2,823.4c-12.1-4.5-26.2-0.1-34.2,9.9
	 M362.5,591.4c7,9,19.8,12,30.3,8c11-4.2,17.5-15.5,15.7-27.1c-1-6.4-4.1-12.3-9-16.6 M367.1,652.4c11.4,0.2,21.7-7.8,25.3-18.5
	c3.7-11.2-1-23.4-11.2-29.3c-5.6-3.3-12.2-4.5-18.5-3.4 M406.4,552c-0.8,11.4,6.8,22.1,17.4,26.1c11,4.2,23.4,0,29.7-9.9
	c3.5-5.4,5-11.9,4.2-18.4 M409.8,690.5c4.5-4.6,7.3-10.7,7.8-17.2c0.9-11.7-6.4-22.5-17.7-25.8c-10.8-3.2-23.3,0.7-29.6,10.2
	 M465.9,689.5c0.4-6.5-1.4-12.9-5.3-18.1c-6.9-9.5-19.5-12.9-30.3-8.1c-10.3,4.6-17.2,15.7-15.8,27 M461.3,555.4
	c-8.8,11.4-5.8,29.3,6,37.5 M468.2,650.4c-7.1,9.5-6.6,23.5,0.8,32.6 M363.5,745.5c7,9,19.8,12,30.3,8c11-4.2,17.5-15.5,15.7-27.1
	c-1-6.4-4.1-12.3-9-16.6 M368.1,806.5c11.4,0.2,21.7-7.8,25.3-18.5c3.7-11.2-1-23.4-11.2-29.3c-5.6-3.3-12.2-4.5-18.5-3.4
	 M407.4,706.2c-0.8,11.4,6.8,22.1,17.4,26.1c11,4.2,23.4,0,29.7-9.9c3.5-5.4,5-11.9,4.2-18.4 M410.8,844.7
	c4.5-4.6,7.3-10.7,7.8-17.2c1-11.7-6.4-22.5-17.7-25.9c-10.8-3.2-23.3,0.7-29.6,10.2 M467,843.6c0.4-6.5-1.5-12.9-5.3-18.1
	c-6.9-9.5-19.5-12.9-30.2-8.2c-10.3,4.6-17.2,15.7-15.8,27 M462.3,709.5c-8.8,11.4-5.8,29.3,6,37.5 M469.2,804.5
	c-7.1,9.5-6.6,23.5,0.8,32.6 M363.5,439.3c7,9,19.8,12,30.3,8c11-4.2,17.5-15.5,15.7-27.1c-1-6.4-4.1-12.3-9-16.6 M368.1,500.3
	c11.4,0.2,21.7-7.8,25.3-18.5c3.7-11.2-1-23.4-11.2-29.3c-5.6-3.3-12.2-4.5-18.5-3.4 M407.4,400c-0.8,11.4,6.8,22.1,17.4,26.1
	c11,4.2,23.4,0,29.7-9.9c3.5-5.4,5-11.9,4.2-18.4 M410.8,538.4c4.5-4.6,7.3-10.7,7.8-17.2c1-11.7-6.4-22.5-17.7-25.9
	c-10.8-3.2-23.3,0.7-29.6,10.2 M466.9,537.4c0.4-6.5-1.5-12.9-5.3-18.1c-6.9-9.5-19.5-12.9-30.2-8.1c-10.3,4.6-17.2,15.7-15.8,27
	 M462.3,403.3c-8.8,11.4-5.8,29.3,6,37.5 M469.2,498.3c-7.1,9.5-6.6,23.5,0.8,32.6 M239.7,806.6c-7-9-19.8-12-30.3-8
	c-11,4.2-17.5,15.5-15.7,27.1c1,6.4,4.1,12.3,9,16.5 M235,745.6c-11.4-0.2-21.7,7.8-25.3,18.5c-3.7,11.2,1,23.4,11.2,29.3
	c5.6,3.3,12.2,4.5,18.5,3.4 M195.6,845.9c0.8-11.4-6.8-22.1-17.4-26.1c-11-4.2-23.4,0-29.7,9.9c-3.5,5.4-5,12-4.2,18.4 M192.3,707.4
	c-4.5,4.6-7.3,10.7-7.8,17.2c-1,11.7,6.4,22.6,17.8,25.9c10.8,3.2,23.3-0.7,29.6-10.2 M136.2,708.5c-0.4,6.5,1.4,12.9,5.3,18.1
	c6.9,9.5,19.5,12.9,30.3,8.1c10.3-4.6,17.2-15.7,15.8-27 M140.8,842.6c8.8-11.4,5.8-29.3-6-37.5 M134,747.6
	c7.1-9.5,6.6-23.5-0.8-32.6 M239.7,655.5c-7-9-19.8-12-30.3-8c-11,4.2-17.5,15.5-15.7,27.1c1,6.4,4.1,12.3,9,16.5 M235,594.5
	c-11.4-0.2-21.7,7.8-25.3,18.5c-3.7,11.2,1,23.4,11.2,29.3c5.6,3.3,12.2,4.5,18.5,3.4 M195.6,694.8c0.8-11.4-6.8-22.1-17.4-26.1
	c-11-4.2-23.4,0-29.7,9.9c-3.5,5.4-5,12-4.2,18.4 M192.3,556.4c-4.5,4.6-7.3,10.7-7.8,17.2c-1,11.8,6.4,22.6,17.8,26
	c10.8,3.2,23.3-0.7,29.6-10.2 M136.2,557.5c-0.4,6.5,1.4,12.9,5.3,18.1c6.9,9.5,19.5,12.9,30.3,8.1c10.3-4.6,17.2-15.7,15.8-27
	 M140.8,691.5c8.8-11.4,5.8-29.3-6-37.5 M134,596.5c7.1-9.5,6.6-23.5-0.8-32.6 M363.3,902.9c7,9,19.8,12,30.3,8
	c11-4.2,17.5-15.5,15.7-27.1c-1-6.4-4.1-12.3-9-16.6 M407.3,863.5c-0.7,11.4,6.9,22.1,17.4,26.1c11,4.2,23.4,0,29.7-9.9
	c3.5-5.4,5-11.9,4.2-18.4 M462.1,866.9c-8.8,11.4-5.8,29.3,6,37.5 M130,872.1c2.3,11.2,12.4,19.5,23.6,20.6
	c11.7,1.2,22.6-6,26.1-17.2c2-6.2,1.7-12.8-0.7-18.8 M186.9,856.5c-5.8,9.9-3.7,22.8,4,31.1c8,8.6,20.9,10.4,31,4.4
	c5.6-3.3,9.8-8.5,12-14.6 M234.5,883.9c-13,6.3-18.3,23.6-11.3,36.2 M235.4,288.7c-7.2,1.5-13.7,5.4-18.3,11.1
	c-12.6,15.4-4.9,38.6,12.6,46.3 M231.5,345.9c-6.3-3.8-13.7-5.3-21-4.4c-19.7,2.7-29.9,24.9-22.3,42.5 M190.8,381
	c-1.4-6.7-5-12.7-10.3-17.1c-14.3-11.7-35.9-4.6-43.2,11.7 M199.4,249c-3.4,6.5-4.6,14-3.2,21.2c3.7,19.5,26.5,28.5,43.6,20
	 M371.7,347.5c17.5-7.8,25.2-31,12.6-46.3c-4.7-5.7-11.1-9.6-18.3-11.1 M413.1,385.5c7.5-17.6-2.6-39.8-22.3-42.5
	c-7.3-1-14.7,0.6-21,4.4 M464,377c-7.2-16.3-28.8-23.5-43.2-11.7c-5.3,4.4-8.9,10.4-10.3,17.1 M361.5,291.6
	c17.2,8.5,39.9-0.5,43.6-20c1.4-7.2,0.2-14.7-3.2-21.2 M239.7,441.5c-7,9-19.8,12-30.3,8c-11-4.2-17.5-15.5-15.7-27.1
	c1-6.4,4.1-12.3,9-16.6 M235,502.5c-11.4,0.2-21.7-7.8-25.3-18.5c-3.7-11.2,1-23.4,11.2-29.3c5.6-3.3,12.2-4.5,18.5-3.4
	 M195.7,402.2c0.8,11.4-6.8,22.1-17.4,26.1c-11,4.2-23.4,0-29.7-9.9c-3.5-5.4-5-11.9-4.2-18.4 M192.4,540.6
	c-4.5-4.6-7.3-10.7-7.8-17.2c-1-11.7,6.4-22.5,17.7-25.9c10.8-3.2,23.3,0.7,29.6,10.2 M136.2,539.6c-0.4-6.5,1.5-12.9,5.3-18.1
	c6.9-9.5,19.5-12.9,30.2-8.1c10.3,4.6,17.2,15.7,15.8,27 M140.8,405.5c8.8,11.4,5.8,29.3-6,37.5 M134,500.5
	c7.1,9.5,6.6,23.5-0.8,32.6"/>
</svg>
