<svg id="Ebene_2" data-name="Ebene 2" xmlns="http://www.w3.org/2000/svg" viewBox="0 0 628.12 376.01"><defs><style>.cls-1{fill:#fff;}</style></defs><ellipse cx="861.46" cy="428.95" rx="114" ry="37.82" transform="translate(-435.85 282.34) rotate(-28.2)"/><path d="M481,270c0,16.29-15.22,29-34,29s-28-12.71-28-29,15.22-30,34-30S481,253.71,481,270Z" transform="translate(-335.4 -175.74)"/><path d="M843,286c0,59.37-58.1,143-131,143S572,346.37,572,287s63.1-85,136-85S843,226.63,843,286Z" transform="translate(-335.4 -175.74)"/><path d="M923.06,334.55c-2.43,22.52-58.44,34.94-80.95,32.52s9.43-31.53,11.86-54-2.33-40.48,20.19-38.06S925.48,312,923.06,334.55Z" transform="translate(-335.4 -175.74)"/><path d="M707,185c-3.34-16.23-67.28-8.48-123,3s-87.34,14.77-84,31,60,33,103-4S710.34,201.23,707,185Z" transform="translate(-335.4 -175.74)"/><path d="M441,206c2.12,9.43-12,8-29,15-14.55,6-23.88,15.43-26,6s2.64-24.55,18-28S438.88,196.57,441,206Z" transform="translate(-335.4 -175.74)"/><path d="M574,512c11.66-22.34,37-23,46-29,5.74-3.83-22.67-28.33-42-9s-44.88,72.12-40,77S561.35,536.23,574,512Z" transform="translate(-335.4 -175.74)"/><path d="M579,455c0,5.8-29,8-59-4-30.51-12.2-40.62,4.15-46,2-5-2-10.86-11,22-11S579,449.2,579,455Z" transform="translate(-335.4 -175.74)"/><path d="M356,294c14.68,7.67,30.37,6.72,25,17s-11.32,27.67-26,20-23.37-38.72-18-49S341.32,286.33,356,294Z" transform="translate(-335.4 -175.74)"/><path d="M537,316c0,20.43-51.75,19-65,19s23-13.57,23-34-5.25-38,8-38S537,295.57,537,316Z" transform="translate(-335.4 -175.74)"/><path class="cls-1" d="M466,265c-1.21-4.25-8.19-13.93-22-10s-15,13-14,17c2.06,8.23,5.84,10.36,20,8C462,278,467.21,269.25,466,265Z" transform="translate(-335.4 -175.74)"/><path d="M380.49,304" transform="translate(-335.4 -175.74)"/></svg>