<svg id="visual" viewBox="0 0 900 600" width="900" height="600" xmlns="http://www.w3.org/2000/svg" xmlns:xlink="http://www.w3.org/1999/xlink" version="1.1"><rect x="0" y="0" width="900" height="600" fill="#ffffff"></rect><defs><linearGradient id="grad1_0" x1="33.3%" y1="0%" x2="100%" y2="100%"><stop offset="20%" stop-color="#ff0066" stop-opacity="1"></stop><stop offset="80%" stop-color="#ff0066" stop-opacity="1"></stop></linearGradient></defs><defs><linearGradient id="grad1_1" x1="33.3%" y1="0%" x2="100%" y2="100%"><stop offset="20%" stop-color="#ff0066" stop-opacity="1"></stop><stop offset="80%" stop-color="#ff4d7a" stop-opacity="1"></stop></linearGradient></defs><defs><linearGradient id="grad1_2" x1="33.3%" y1="0%" x2="100%" y2="100%"><stop offset="20%" stop-color="#ff728f" stop-opacity="1"></stop><stop offset="80%" stop-color="#ff4d7a" stop-opacity="1"></stop></linearGradient></defs><defs><linearGradient id="grad1_3" x1="33.3%" y1="0%" x2="100%" y2="100%"><stop offset="20%" stop-color="#ff728f" stop-opacity="1"></stop><stop offset="80%" stop-color="#ff91a4" stop-opacity="1"></stop></linearGradient></defs><defs><linearGradient id="grad1_4" x1="33.3%" y1="0%" x2="100%" y2="100%"><stop offset="20%" stop-color="#ffaeba" stop-opacity="1"></stop><stop offset="80%" stop-color="#ff91a4" stop-opacity="1"></stop></linearGradient></defs><defs><linearGradient id="grad1_5" x1="33.3%" y1="0%" x2="100%" y2="100%"><stop offset="20%" stop-color="#ffaeba" stop-opacity="1"></stop><stop offset="80%" stop-color="#ffc9d0" stop-opacity="1"></stop></linearGradient></defs><defs><linearGradient id="grad1_6" x1="33.3%" y1="0%" x2="100%" y2="100%"><stop offset="20%" stop-color="#ffe4e7" stop-opacity="1"></stop><stop offset="80%" stop-color="#ffc9d0" stop-opacity="1"></stop></linearGradient></defs><defs><linearGradient id="grad1_7" x1="33.3%" y1="0%" x2="100%" y2="100%"><stop offset="20%" stop-color="#ffe4e7" stop-opacity="1"></stop><stop offset="80%" stop-color="#ffffff" stop-opacity="1"></stop></linearGradient></defs><defs><linearGradient id="grad2_0" x1="0%" y1="0%" x2="66.7%" y2="100%"><stop offset="20%" stop-color="#ff0066" stop-opacity="1"></stop><stop offset="80%" stop-color="#ff0066" stop-opacity="1"></stop></linearGradient></defs><defs><linearGradient id="grad2_1" x1="0%" y1="0%" x2="66.7%" y2="100%"><stop offset="20%" stop-color="#ff4d7a" stop-opacity="1"></stop><stop offset="80%" stop-color="#ff0066" stop-opacity="1"></stop></linearGradient></defs><defs><linearGradient id="grad2_2" x1="0%" y1="0%" x2="66.7%" y2="100%"><stop offset="20%" stop-color="#ff4d7a" stop-opacity="1"></stop><stop offset="80%" stop-color="#ff728f" stop-opacity="1"></stop></linearGradient></defs><defs><linearGradient id="grad2_3" x1="0%" y1="0%" x2="66.7%" y2="100%"><stop offset="20%" stop-color="#ff91a4" stop-opacity="1"></stop><stop offset="80%" stop-color="#ff728f" stop-opacity="1"></stop></linearGradient></defs><defs><linearGradient id="grad2_4" x1="0%" y1="0%" x2="66.7%" y2="100%"><stop offset="20%" stop-color="#ff91a4" stop-opacity="1"></stop><stop offset="80%" stop-color="#ffaeba" stop-opacity="1"></stop></linearGradient></defs><defs><linearGradient id="grad2_5" x1="0%" y1="0%" x2="66.7%" y2="100%"><stop offset="20%" stop-color="#ffc9d0" stop-opacity="1"></stop><stop offset="80%" stop-color="#ffaeba" stop-opacity="1"></stop></linearGradient></defs><defs><linearGradient id="grad2_6" x1="0%" y1="0%" x2="66.7%" y2="100%"><stop offset="20%" stop-color="#ffc9d0" stop-opacity="1"></stop><stop offset="80%" stop-color="#ffe4e7" stop-opacity="1"></stop></linearGradient></defs><defs><linearGradient id="grad2_7" x1="0%" y1="0%" x2="66.7%" y2="100%"><stop offset="20%" stop-color="#ffffff" stop-opacity="1"></stop><stop offset="80%" stop-color="#ffe4e7" stop-opacity="1"></stop></linearGradient></defs><g transform="translate(900, 0)"><path d="M0 486.7C-50.9 440.8 -101.8 394.9 -152.3 367.7C-202.8 340.5 -252.8 332 -306.9 306.9C-361 281.8 -419 240.2 -449.7 186.3C-480.3 132.4 -483.5 66.2 -486.7 0L0 0Z" fill="#fff2f3"></path><path d="M0 425.9C-44.6 385.7 -89.1 345.6 -133.3 321.7C-177.4 297.9 -221.2 290.5 -268.5 268.5C-315.8 246.6 -366.7 210.2 -393.5 163C-420.3 115.8 -423.1 57.9 -425.9 0L0 0Z" fill="#ffd7dc"></path><path d="M0 365.1C-38.2 330.6 -76.4 296.2 -114.2 275.8C-152.1 255.4 -189.6 249 -230.2 230.2C-270.7 211.4 -314.3 180.1 -337.3 139.7C-360.3 99.3 -362.7 49.6 -365.1 0L0 0Z" fill="#ffbcc5"></path><path d="M0 304.2C-31.8 275.5 -63.6 246.8 -95.2 229.8C-126.7 212.8 -158 207.5 -191.8 191.8C-225.6 176.1 -261.9 150.1 -281.1 116.4C-300.2 82.7 -302.2 41.4 -304.2 0L0 0Z" fill="#ffa0af"></path><path d="M0 243.4C-25.5 220.4 -50.9 197.5 -76.2 183.9C-101.4 170.2 -126.4 166 -153.4 153.4C-180.5 140.9 -209.5 120.1 -224.8 93.1C-240.2 66.2 -241.8 33.1 -243.4 0L0 0Z" fill="#ff8299"></path><path d="M0 182.5C-19.1 165.3 -38.2 148.1 -57.1 137.9C-76 127.7 -94.8 124.5 -115.1 115.1C-135.4 105.7 -157.1 90.1 -168.6 69.9C-180.1 49.6 -181.3 24.8 -182.5 0L0 0Z" fill="#ff6184"></path><path d="M0 121.7C-12.7 110.2 -25.5 98.7 -38.1 91.9C-50.7 85.1 -63.2 83 -76.7 76.7C-90.2 70.5 -104.8 60 -112.4 46.6C-120.1 33.1 -120.9 16.5 -121.7 0L0 0Z" fill="#ff3470"></path><path d="M0 60.8C-6.4 55.1 -12.7 49.4 -19 46C-25.3 42.6 -31.6 41.5 -38.4 38.4C-45.1 35.2 -52.4 30 -56.2 23.3C-60 16.5 -60.4 8.3 -60.8 0L0 0Z" fill="#ff0066"></path></g><g transform="translate(0, 600)"><path d="M0 -486.7C62.7 -474 125.3 -461.3 180.6 -436.1C235.9 -410.8 283.9 -373.1 330.9 -330.9C377.9 -288.8 423.9 -242.2 449.7 -186.3C475.5 -130.4 481.1 -65.2 486.7 0L0 0Z" fill="#fff2f3"></path><path d="M0 -425.9C54.8 -414.8 109.6 -403.6 158 -381.6C206.5 -359.5 248.4 -326.5 289.6 -289.6C330.7 -252.7 370.9 -211.9 393.5 -163C416.1 -114.1 421 -57 425.9 0L0 0Z" fill="#ffd7dc"></path><path d="M0 -365.1C47 -355.5 94 -346 135.5 -327.1C177 -308.1 213 -279.8 248.2 -248.2C283.4 -216.6 317.9 -181.6 337.3 -139.7C356.6 -97.8 360.8 -48.9 365.1 0L0 0Z" fill="#ffbcc5"></path><path d="M0 -304.2C39.2 -296.3 78.3 -288.3 112.9 -272.5C147.5 -256.8 177.5 -233.2 206.8 -206.8C236.2 -180.5 264.9 -151.4 281.1 -116.4C297.2 -81.5 300.7 -40.7 304.2 0L0 0Z" fill="#ffa0af"></path><path d="M0 -243.4C31.3 -237 62.7 -230.7 90.3 -218C118 -205.4 142 -186.5 165.5 -165.5C189 -144.4 211.9 -121.1 224.8 -93.1C237.8 -65.2 240.6 -32.6 243.4 0L0 0Z" fill="#ff8299"></path><path d="M0 -182.5C23.5 -177.8 47 -173 67.7 -163.5C88.5 -154.1 106.5 -139.9 124.1 -124.1C141.7 -108.3 159 -90.8 168.6 -69.9C178.3 -48.9 180.4 -24.4 182.5 0L0 0Z" fill="#ff6184"></path><path d="M0 -121.7C15.7 -118.5 31.3 -115.3 45.2 -109C59 -102.7 71 -93.3 82.7 -82.7C94.5 -72.2 106 -60.5 112.4 -46.6C118.9 -32.6 120.3 -16.3 121.7 0L0 0Z" fill="#ff3470"></path><path d="M0 -60.8C7.8 -59.3 15.7 -57.7 22.6 -54.5C29.5 -51.4 35.5 -46.6 41.4 -41.4C47.2 -36.1 53 -30.3 56.2 -23.3C59.4 -16.3 60.1 -8.1 60.8 0L0 0Z" fill="#ff0066"></path></g></svg>