<svg id="visual" viewBox="0 0 900 600" width="900" height="600" xmlns="http://www.w3.org/2000/svg" xmlns:xlink="http://www.w3.org/1999/xlink" version="1.1"><rect x="0" y="0" width="900" height="600" fill="#001220"></rect><defs><linearGradient id="grad1_0" x1="33.3%" y1="0%" x2="100%" y2="100%"><stop offset="20%" stop-color="#001220" stop-opacity="1"></stop><stop offset="80%" stop-color="#001220" stop-opacity="1"></stop></linearGradient></defs><defs><linearGradient id="grad2_0" x1="0%" y1="0%" x2="66.7%" y2="100%"><stop offset="20%" stop-color="#001220" stop-opacity="1"></stop><stop offset="80%" stop-color="#001220" stop-opacity="1"></stop></linearGradient></defs><g transform="translate(900, 0)"><path d="M0 486.7C-61.9 468 -123.8 449.3 -173.7 419.4C-223.7 389.5 -261.7 348.4 -310.4 310.4C-359.1 272.4 -418.5 237.5 -449.7 186.3C-480.9 135.1 -483.8 67.5 -486.7 0L0 0Z" fill="#FF0066"></path></g><g transform="translate(0, 600)"><path d="M0 -486.7C63.9 -480.8 127.8 -474.9 186.3 -449.7C244.8 -424.5 297.9 -380.1 328.1 -328.1C358.3 -276.1 365.4 -216.7 388 -160.7C410.6 -104.8 448.7 -52.4 486.7 0L0 0Z" fill="#FF0066"></path></g></svg>