<svg viewBox="0 0 841.89 595.28" xmlns="http://www.w3.org/2000/svg"><path d="m618.61 293.17v204h-396v-400h139a100 100 0 0 0 5.29 8.74c5.15 6.91 10.52 13.64 15.81 20.44l-1 .94c-1.38-.82-3.09-1.36-4.08-2.51-4-4.59-9.27-6.25-14.93-7.1a115.36 115.36 0 0 0 -12.83-1.38c-3.81-.14-6.49 2.81-5.93 5.91 1 5.43 3.4 10.61 5.32 15.86.18.5 1 .8 1.61 1.11 6.11 3.24 12.22 6.46 17.54 9.27-1.2 4.62-3.77 9.44-3.29 13.94a26.33 26.33 0 0 1 -2.22 14.85 81 81 0 0 0 -3.68 9.75c-4.51 13.82 2.29 24.1 9.92 31.83 1.35 1.37 3.81 1.94 5.85 2.27 8.27 1.34 16.57 2.43 24.86 3.62-4.72-.64-4 2.65-4.18 5.6-.3 4.13-.93 8.24-1.57 12.34-3 19.38-11.87 36.16-23.83 51.3-18.54 23.45-32.94 48.61-38.43 78.59-2.94 16.06-2.06 30.47 8 43.88 5.57 7.43 10.67 15.24 15.55 23.14 8.54 13.84 12.4 28 1.28 42.52-.87 1.15-.9 2.95-1.45 4.91 11.69 0 22.64.29 33.57-.13 5.39-.21 7.81-3.42 7.75-9.12-.09-7.3-.63-14.6-1-21.9-.19-4.3 1.82-8.13 5.57-9.09a13.49 13.49 0 0 1 10.05 1.85c6 4.38 9.4 10.65 8.63 18.52-.5 5.13-1.17 10.25-1.34 15.38-.05 1.63 1.18 4.69 2 4.74q14.54 1 29.12 1c.82 0 2.64-3 2.3-4.06-3.62-11.37-1.36-22 3.6-32.33 5.67-11.8 11.7-23.42 17.46-35.18 11.5-23.47 11.78-46.5-2.6-69.08-6.68-10.49-13-21.23-19.42-31.87-10.33-17-20.54-34.2-25.91-53.53-3.3-11.9-5.07-24.23-7.62-36.82l-6.56-.35c1.35-.86 2.68-.74 4-.87 7.27-.73 14.69-.87 21.78-2.44 9.72-2.15 13.79-10.4 16.8-18.8 3.41-9.52-.6-18.2-4.18-26.82-1.07-2.57-2.85-5.51-2.41-7.93 1.31-7.13.95-13.67-3.86-19.43 6-3.08 11.49-5.76 16.81-8.75a12.91 12.91 0 0 0 4.59-4.31 22.39 22.39 0 0 0 3.27-7.83c.48-2.93.74-6.54-.6-8.88-.94-1.65-4.75-2.43-7.22-2.32-9.63.43-19.34 1.1-26.54 9-.07.08-.5-.18-1.11-.42 2.12-2.84 4.2-5.58 6.23-8.37q7.14-9.8 14.25-19.63h166v189c-.44-.81-.92-1.6-1.31-2.43-4.22-9-8.39-18-12.64-27-2-4.28-5.74-6.19-10.2-5.42-11.34 2-22.16-.12-32.89-3.42-3.5-1.07-4.57.76-3.67 3.53a26 26 0 0 0 4.43 8.8c4.81 5.6 10.16 10.74 15.44 16.22-.19.27-.65 1-1.17 1.59-15.2 18.5-30.5 36.93-45.6 55.52-11.57 14.25-23.3 28.21-41 35.44-.84.34-1.49 2.16-1.54 3.32-.38 8.42.17 17-1.06 25.25-1.07 7.24-4.07 14.2-6.68 22.8 6.75-1.82 13.14-2.81 18.91-5.25 16.83-7.09 27.84-20.69 37.45-35.48 13.54-20.83 23-43.68 32.46-66.52 4.62-11.14 9.4-22.21 14.27-33.7 9.22 4.62 17.7 9.13 26.44 13.09 2.4 1.02 5.54.44 8.34.61zm-238.47-30.11.51-1.44c-2.87-1.82-5.55-4.14-8.65-5.38-10.12-4.05-20.17-8.49-30.64-11.39-29.79-8.25-60.14-12.11-91.05-8.49-6.32.74-12.44 3.18-18.65 4.83l.4 1.38c25 4.13 30.31 8.5 32 26.72 38.24-9.9 76.88-13.17 116.08-6.23zm50.5-8 .64 2.15c38.54-6.17 76.48-3.11 113.94 6.73.46-21.28 15.84-24.68 33.67-27.06-3.94-1.58-6.39-3.12-9-3.51-10.14-1.54-20.41-4.18-30.5-3.69a502 502 0 0 0 -55.35 6 157.52 157.52 0 0 0 -45.67 14.61c-2.7 1.36-5.16 3.19-7.73 4.8zm-53.26-1.25c-7.15-9.35-16-16.75-25.62-23.18-16.54-11.06-34.18-20-54.73-17.14-12.64 1.76-25 6-37.31 9.56-4.56 1.32-8.8 3.81-13.11 5.93-4.11 2-8.12 4.23-12.18 6.36 24.27-6.84 48.53-5 72.78-1.61s47.98 9 70.17 20.11zm53.81-5.17c46.36-19.73 93.25-28.48 142.86-19.65-11.8-5.49-23.65-11.24-36-15.55-12.84-4.48-26.33-7.94-40-5a124.37 124.37 0 0 0 -27.5 9.38c-15.12 7.24-27.85 17.89-39.36 30.85zm-134.48 52.51a311.66 311.66 0 0 1 81.29-32.71c-12.42-8.81-95.77-4.57-110.31 5.36 3.89.27 7.5.78 11.09.72 7.17-.11 11 3.92 13 10.13 1.71 5.35 3.22 10.7 4.93 16.5zm215.92-5.29c2-6.28 3.84-12.26 5.82-18.19 2.09-6.28 6.95-8.43 13.13-8.6 3.39-.1 6.78-.42 10.17-.64v-1.32c-35.82-8.93-72-11.83-108.86-4.91 27.81 8.54 54.72 18.9 79.74 33.66zm32 117.31c0-8.08.14-15.9-.06-23.72-.08-3.44.78-5 4.56-5.45 6-.72 11.87-2.24 18.09-3.49-1.45-7.86-2.5-15.24-4.25-22.45-1-4.32 0-6.23 4.26-7.49 6.27-1.84 12.32-4.38 18.65-6.68-3.25-9-6.26-17.28-9.57-26.4-4.16 9.59-7.76 18.29-11.68 26.86-9.61 21-20 41.63-35.89 58.76-13.31 14.34-29 24.21-49.44 24.25-1.65 0-3.3 2.23-5 3.42l.91 2.08c4.93-5.31 9.92-4.55 15.4-1.54 5.32 2.92 11 5.13 16.9 7.8 3.4-7.41 6.93-14.51 9.89-21.84 1.3-3.21 3-4.26 6.28-4.17 6.8.2 13.57.06 20.94.06zm-35.87-114a264.45 264.45 0 0 0 -72.64-30.61l-1.52 1.38c8.94 16.45 17.87 32.91 27.15 50a64 64 0 0 0 3.71-5.53c5.89-11.54 15.27-16.4 28.12-15.3 5.02.37 10.11.01 15.17.01zm-165.68 19.46c10.73-15 21.05-29.48 31.38-43.93l-.92-1c-25.79 6.91-50.32 16.82-73.31 30.83 15.83.36 33.26-5.24 42.85 14.1zm247.13-34.58c-4.89 11.61-9.29 22.08-14.27 33.88l23.46-8.46c-3-8.3-5.88-16.28-9.19-25.42zm-206.97-49.05 5.4-9.49-11.64-1.51zm48.54-.87c2-3.44 3.72-6.49 5.88-10.25l-10.58 1.76z" fill="#fff"/><path d="m452.61 97.17q-7.12 9.83-14.25 19.63c-2 2.79-4.11 5.53-6.23 8.37.61.24 1 .5 1.11.42 7.2-7.85 16.91-8.52 26.54-9 2.47-.11 6.28.67 7.22 2.32 1.34 2.34 1.08 6 .6 8.88a22.39 22.39 0 0 1 -3.27 7.83 12.91 12.91 0 0 1 -4.59 4.31c-5.32 3-10.82 5.67-16.81 8.75 4.81 5.76 5.17 12.3 3.86 19.43-.44 2.42 1.34 5.36 2.41 7.93 3.58 8.62 7.59 17.3 4.18 26.82-3 8.4-7.08 16.65-16.8 18.8-7.09 1.57-14.51 1.71-21.78 2.44-1.3.13-2.63 0-4 .87l6.56.35c2.55 12.59 4.32 24.92 7.62 36.82 5.37 19.33 15.58 36.5 25.91 53.53 6.46 10.64 12.74 21.38 19.42 31.87 14.38 22.58 14.1 45.61 2.6 69.08-5.76 11.76-11.79 23.38-17.46 35.18-5 10.3-7.22 21-3.6 32.33.34 1.07-1.48 4.06-2.3 4.06q-14.56 0-29.12-1c-.79-.05-2-3.11-2-4.74.17-5.13.84-10.25 1.34-15.38.77-7.87-2.61-14.14-8.63-18.52a13.49 13.49 0 0 0 -10.05-1.85c-3.75 1-5.76 4.79-5.57 9.09.33 7.3.87 14.6 1 21.9.06 5.7-2.36 8.91-7.75 9.12-10.93.42-21.88.13-33.57.13.55-2 .58-3.76 1.45-4.91 11.12-14.55 7.26-28.68-1.28-42.52-4.88-7.9-10-15.71-15.55-23.14-10-13.41-10.92-27.82-8-43.88 5.49-30 19.89-55.14 38.43-78.59 12-15.14 20.83-31.92 23.83-51.3.64-4.1 1.27-8.21 1.57-12.34.22-2.95-.54-6.24 4.18-5.6-8.29-1.19-16.59-2.28-24.86-3.62-2-.33-4.5-.9-5.85-2.27-7.63-7.73-14.43-18-9.92-31.83a81 81 0 0 1 3.68-9.75 26.33 26.33 0 0 0 2.22-14.85c-.48-4.5 2.09-9.32 3.29-13.94-5.32-2.81-11.43-6-17.54-9.27-.58-.31-1.43-.61-1.61-1.11-1.92-5.25-4.34-10.43-5.32-15.86-.56-3.1 2.12-6 5.93-5.91a115.36 115.36 0 0 1 12.83 1.38c5.66.85 11 2.51 14.93 7.1 1 1.15 2.7 1.69 4.08 2.51l1-.94c-5.29-6.8-10.66-13.53-15.81-20.44a100 100 0 0 1 -5.29-8.74h2c13.51 8.69 25.23 19.2 33.54 33.24l6.15-1.68c-1-8.43-8.88-8.49-14.95-12.07 6.65-3.63 10.39 1.3 15.4 3l-3.63-11.11a11.83 11.83 0 0 1 2.65-.54c2.08 4.48 4 9 6.09 13.77 2.15-1.72 4.45-3.58 6.77-5.39 4.27-3.35 4.28-3.34 6.27-.62l-13.7 12.33c3.43 1 5.29 1.58 7.16 2.09a5.71 5.71 0 0 0 1.43 0 96.16 96.16 0 0 1 33.82-33.08zm-10.84 268.94c-.55-16.75-3.47-32.76-13.17-46.77-5.32-7.67-11.92-13.92-21.74-15.24-14.28-1.92-23.2 6.24-30.3 16.95s-10.29 22.85-11.33 35.62c-1.68 20.46 1.51 39.68 13.87 56.67 13.2 18.15 34 18.48 47.61.78 10.93-14.19 14.23-30.74 15.06-48.01zm-39-212.81c-1.59-4.19-2.53-8.26-4.59-11.66-2.44-4-6.87-4-10.13-.65-5.69 5.78-5.84 18.4-.29 24.26 3.62 3.81 7.5 4 10.36-.44 2.17-3.31 3.09-7.41 4.68-11.51zm6.71-.85c1.32 4.24 1.9 7.9 3.55 11 3 5.6 8 5.81 11.94.94 4.76-5.87 4.46-17.62-.58-23.2-3.37-3.73-7.14-4.11-10 0-2.39 3.29-3.39 7.56-4.88 11.26zm-38.57-7.81c.46-5.26-1.69-8.42-4.91-10.95-5.62-4.41-11.33-8.69-17.22-13.2-2 2.33-2 4.77.52 7.39 1 1.07 1.54 2.62 2.32 3.93 1.05 1.76 1.75 4 3.29 5.13a68.84 68.84 0 0 0 9.88 5.49 57.88 57.88 0 0 0 6.15 2.21zm92.51-24.15c-5.83 4.42-11.25 8.38-16.5 12.56-3.4 2.72-6.49 5.8-4.88 11.74 2.52-1.29 4.8-2.43 7.05-3.61 2.49-1.29 4.93-2.68 7.45-3.91 2.9-1.41 8.64-12 8-15.1a5 5 0 0 0 -1.09-1.68zm-81.1 58.21.76 2.1a28.6 28.6 0 0 0 3.69-1.39c2.29-1.22 4.37-3.36 6.77-3.77 11.44-1.95 22.95-3.54 33.28 4.17.83.62 2.39.27 4.69.46-5.71-9.51-14.55-9.52-22.64-10-9.78-.63-19.76-.34-26.52 8.43zm11.11 20.51 5.08 5.7c1-2 2.82-4 2.85-6.09 0-1.79-1.95-3.6-3-5.4zm21.57-.3 4.68 5.53c1.08-1.63 3.13-3.34 3-4.88-.16-2-2-3.86-3.18-5.79z"/><path d="m618.61 293.17c-2.8-.18-5.94.41-8.32-.67-8.74-4-17.22-8.47-26.44-13.09-4.85 11.49-9.65 22.59-14.27 33.7-9.46 22.84-18.92 45.69-32.46 66.52-9.61 14.79-20.62 28.39-37.45 35.48-5.77 2.44-12.16 3.43-18.91 5.25 2.61-8.6 5.61-15.56 6.68-22.8 1.23-8.29.68-16.83 1.06-25.25.05-1.16.7-3 1.54-3.32 17.66-7.23 29.39-21.19 41-35.44 15.1-18.59 30.4-37 45.6-55.52.52-.63 1-1.32 1.17-1.59-5.28-5.48-10.63-10.62-15.44-16.22a26 26 0 0 1 -4.43-8.8c-.9-2.77.17-4.6 3.67-3.53 10.73 3.3 21.55 5.39 32.89 3.42 4.46-.77 8.17 1.14 10.2 5.42 4.25 9 8.42 18 12.64 27 .39.83.87 1.62 1.31 2.43z"/><path d="m450.61 97.17a96.16 96.16 0 0 0 -33.82 33.08 5.71 5.71 0 0 1 -1.43 0c-1.87-.51-3.73-1.08-7.16-2.09l13.7-12.33c-2-2.72-2-2.73-6.27.62-2.32 1.81-4.62 3.67-6.77 5.39-2.06-4.75-4-9.29-6.09-13.77a11.83 11.83 0 0 0 -2.65.54l3.63 11.11c-5-1.74-8.75-6.67-15.4-3 6.07 3.58 13.94 3.64 14.95 12.07l-6.15 1.68c-8.31-14-20-24.55-33.54-33.24z" fill="#fff"/><path d="m380.14 263.06c-39.2-6.94-77.84-3.67-116.1 6.23-1.67-18.22-6.94-22.59-32-26.72l-.4-1.38c6.21-1.65 12.33-4.09 18.65-4.83 30.91-3.62 61.26.24 91.05 8.49 10.47 2.9 20.52 7.34 30.64 11.39 3.1 1.24 5.78 3.56 8.65 5.38z"/><path d="m430.64 255.09c2.57-1.61 5-3.44 7.73-4.8a157.52 157.52 0 0 1 45.63-14.61 502 502 0 0 1 55.35-6c10.09-.49 20.36 2.15 30.5 3.69 2.61.39 5.06 1.93 9 3.51-17.83 2.38-33.21 5.78-33.67 27.06-37.46-9.84-75.4-12.9-113.94-6.73z"/><path d="m377.38 253.84c-22.19-11.11-45.89-16.69-70.17-20.08s-48.51-5.23-72.78 1.61c4.06-2.13 8.07-4.35 12.18-6.36 4.31-2.12 8.55-4.61 13.11-5.93 12.34-3.56 24.67-7.8 37.31-9.56 20.55-2.87 38.19 6.08 54.73 17.14 9.62 6.43 18.47 13.83 25.62 23.18z"/><path d="m431.19 248.67c11.51-13 24.24-23.61 39.35-30.84a124.37 124.37 0 0 1 27.5-9.38c13.67-2.92 27.16.54 40 5 12.36 4.31 24.21 10.06 36 15.55-49.6-8.81-96.49-.06-142.85 19.67z"/><path d="m296.71 301.15c-1.73-5.8-3.22-11.19-5-16.5-2-6.21-5.84-10.24-13-10.13-3.59.06-7.2-.45-11.09-.72 14.54-9.93 97.89-14.17 110.31-5.36a311.66 311.66 0 0 0 -81.22 32.71z"/><path d="m512.63 295.86c-25-14.76-51.93-25.12-79.76-33.66 36.89-6.92 73-4 108.86 4.91v1.32c-3.39.22-6.78.54-10.17.64-6.18.17-11 2.32-13.13 8.6-1.96 5.93-3.8 11.91-5.8 18.19z"/><path d="m544.62 413.17c-7.37 0-14.14.14-20.91-.06-3.29-.09-5 1-6.28 4.17-3 7.33-6.49 14.43-9.89 21.84-5.87-2.67-11.58-4.88-16.9-7.8-5.48-3-10.47-3.77-15.4 1.54l-.91-2.08c1.66-1.19 3.31-3.42 5-3.42 20.49 0 36.13-9.91 49.44-24.25 15.88-17.11 26.23-37.75 35.85-58.76 3.92-8.57 7.52-17.27 11.68-26.86 3.31 9.12 6.32 17.43 9.57 26.4-6.33 2.3-12.38 4.84-18.65 6.68-4.28 1.26-5.3 3.17-4.26 7.49 1.75 7.21 2.8 14.59 4.25 22.45-6.22 1.25-12.1 2.77-18.09 3.49-3.78.45-4.64 2-4.56 5.45.2 7.82.06 15.64.06 23.72z"/><path d="m508.75 299.12c-5.06 0-10.15.36-15.18-.07-12.85-1.1-22.23 3.76-28.12 15.3a64 64 0 0 1 -3.71 5.53c-9.28-17.08-18.21-33.54-27.15-50l1.52-1.38a264.45 264.45 0 0 1 72.64 30.62z"/><path d="m343.08 318.63c-9.59-19.34-27-13.74-42.85-14.14 23-14 47.52-23.92 73.31-30.83l.92 1c-10.33 14.49-20.65 28.95-31.38 43.97z"/><path d="m590.21 284.05c3.31 9.14 6.19 17.12 9.19 25.42l-23.46 8.46c4.98-11.8 9.38-22.27 14.27-33.88z"/><path d="m383.24 235-6.24-11 11.67 1.52z"/><path d="m431.78 234.12-4.7-8.49 10.58-1.76c-2.16 3.76-3.9 6.81-5.88 10.25z"/><g fill="#fff"><path d="m441.77 366.11c-.83 17.27-4.13 33.82-15.06 48-13.64 17.7-34.41 17.37-47.61-.78-12.36-17-15.55-36.21-13.87-56.67 1-12.77 4.21-24.9 11.33-35.62s16-18.87 30.3-16.95c9.82 1.32 16.42 7.57 21.74 15.24 9.7 14.02 12.62 30.03 13.17 46.78z"/><path d="m402.8 153.3c-1.59 4.1-2.51 8.2-4.65 11.51-2.86 4.4-6.74 4.25-10.36.44-5.55-5.86-5.4-18.48.29-24.26 3.26-3.32 7.69-3.35 10.13.65 2.06 3.36 3 7.47 4.59 11.66zm-5.22 4.7c-2.76-2.31-4.46-4.76-5.83-4.59-1.6.2-4.15 2.78-4.05 4.16.13 1.91 2.37 3.66 3.71 5.48z"/><path d="m409.51 152.45c1.53-3.7 2.52-8 4.87-11.28 2.9-4.1 6.67-3.72 10 0 5 5.58 5.34 17.33.58 23.2-3.94 4.87-9 4.66-11.94-.94-1.61-3.08-2.19-6.74-3.51-10.98zm16.92 4.91c-2.67-2.06-4.16-4.12-5.89-4.36-3.12-.43-4.54 2.31-3.84 4.85.53 1.92 2.69 3.39 4.12 5.06z"/><path d="m370.94 144.64a57.88 57.88 0 0 1 -6.12-2.21 68.84 68.84 0 0 1 -9.88-5.49c-1.54-1.1-2.24-3.37-3.29-5.13-.78-1.31-1.3-2.86-2.32-3.93-2.48-2.62-2.53-5.06-.52-7.39 5.89 4.51 11.6 8.79 17.22 13.2 3.22 2.53 5.37 5.69 4.91 10.95z"/><path d="m463.45 120.49a5 5 0 0 1 1.09 1.68c.67 3.1-5.07 13.69-8 15.1-2.52 1.23-5 2.62-7.45 3.91-2.25 1.18-4.53 2.32-7.05 3.61-1.61-5.94 1.48-9 4.88-11.74 5.28-4.18 10.7-8.14 16.53-12.56z"/><path d="m382.35 178.7c6.76-8.77 16.74-9.06 26.55-8.46 8.09.51 16.93.52 22.64 10-2.3-.19-3.86.16-4.69-.46-10.33-7.71-21.84-6.12-33.28-4.17-2.4.41-4.48 2.55-6.77 3.77a28.6 28.6 0 0 1 -3.69 1.39z"/><path d="m393.46 199.21 4.9-5.79c1.08 1.8 3.05 3.61 3 5.4 0 2-1.83 4.06-2.85 6.09z"/><path d="m415 198.91 4.51-5.14c1.14 1.93 3 3.79 3.18 5.79.12 1.54-1.93 3.25-3 4.88z"/></g><path d="m397.58 158-6.17 5c-1.34-1.82-3.58-3.57-3.71-5.48-.1-1.38 2.45-4 4.05-4.16 1.37-.1 3.07 2.35 5.83 4.64z"/><path d="m426.43 157.36-5.61 5.55c-1.43-1.67-3.59-3.14-4.12-5.06-.7-2.54.72-5.28 3.84-4.85 1.73.24 3.22 2.3 5.89 4.36z"/></svg>