<svg id="Ebene_1" data-name="Ebene 1" xmlns="http://www.w3.org/2000/svg" viewBox="0 0 1280 800"><defs><style>.cls-1{fill:#1d1d1b;}.cls-2{fill:#fceb23;}</style></defs><circle class="cls-1" cx="76.13" cy="31.5" r="19.48"/><circle class="cls-1" cx="162.93" cy="31.5" r="19.48"/><circle class="cls-1" cx="249.74" cy="31.5" r="19.48"/><circle class="cls-1" cx="336.54" cy="31.5" r="19.48"/><circle class="cls-1" cx="423.35" cy="31.5" r="19.48"/><circle class="cls-1" cx="510.15" cy="31.5" r="19.48"/><circle class="cls-1" cx="596.96" cy="31.5" r="19.48"/><circle class="cls-1" cx="683.77" cy="31.5" r="19.48"/><circle class="cls-1" cx="770.57" cy="31.5" r="19.48"/><circle class="cls-1" cx="857.38" cy="31.5" r="19.48"/><circle class="cls-1" cx="944.18" cy="31.5" r="19.48"/><circle class="cls-1" cx="1030.99" cy="31.5" r="19.48"/><circle class="cls-1" cx="1117.79" cy="31.5" r="19.48"/><circle class="cls-1" cx="1204.6" cy="31.5" r="19.48"/><circle class="cls-1" cx="119.53" cy="92.16" r="19.48"/><circle class="cls-1" cx="32.72" cy="92.16" r="19.48"/><circle class="cls-1" cx="206.33" cy="92.16" r="19.48"/><circle class="cls-1" cx="293.14" cy="92.16" r="19.48"/><circle class="cls-1" cx="379.95" cy="92.16" r="19.48"/><circle class="cls-1" cx="466.75" cy="92.16" r="19.48"/><circle class="cls-1" cx="553.56" cy="92.16" r="19.48"/><circle class="cls-1" cx="640.36" cy="92.16" r="19.48"/><circle class="cls-1" cx="727.17" cy="92.16" r="19.48"/><circle class="cls-1" cx="813.97" cy="92.16" r="19.48"/><circle class="cls-1" cx="900.78" cy="92.16" r="19.48"/><circle class="cls-1" cx="987.59" cy="92.16" r="19.48"/><circle class="cls-1" cx="1074.39" cy="92.16" r="19.48"/><circle class="cls-1" cx="1161.2" cy="92.16" r="19.48"/><circle class="cls-1" cx="1248" cy="92.16" r="19.48"/><circle class="cls-1" cx="76.13" cy="155.59" r="19.48"/><circle class="cls-1" cx="162.93" cy="155.59" r="19.48"/><circle class="cls-1" cx="249.74" cy="155.59" r="19.48"/><circle class="cls-1" cx="336.54" cy="155.59" r="19.48"/><circle class="cls-1" cx="423.35" cy="155.59" r="19.48"/><circle class="cls-1" cx="510.15" cy="155.59" r="19.48"/><circle class="cls-1" cx="596.96" cy="155.59" r="19.48"/><circle class="cls-1" cx="683.77" cy="155.59" r="19.48"/><circle class="cls-1" cx="770.57" cy="155.59" r="19.48"/><circle class="cls-1" cx="857.38" cy="155.59" r="19.48"/><circle class="cls-1" cx="944.18" cy="155.59" r="19.48"/><circle class="cls-1" cx="1030.99" cy="155.59" r="19.48"/><circle class="cls-1" cx="1117.79" cy="155.59" r="19.48"/><circle class="cls-1" cx="1204.6" cy="155.59" r="19.48"/><circle class="cls-1" cx="119.53" cy="216.24" r="19.48"/><circle class="cls-1" cx="32.72" cy="216.24" r="19.48"/><circle class="cls-1" cx="206.33" cy="216.24" r="19.48"/><circle class="cls-1" cx="293.14" cy="216.24" r="19.48"/><circle class="cls-1" cx="379.95" cy="216.24" r="19.48"/><circle class="cls-1" cx="466.75" cy="216.24" r="19.48"/><circle class="cls-1" cx="553.56" cy="216.24" r="19.48"/><circle class="cls-1" cx="640.36" cy="216.24" r="19.48"/><circle class="cls-1" cx="727.17" cy="216.24" r="19.48"/><circle class="cls-1" cx="813.97" cy="216.24" r="19.48"/><circle class="cls-1" cx="900.78" cy="216.24" r="19.48"/><circle class="cls-1" cx="987.59" cy="216.24" r="19.48"/><circle class="cls-1" cx="1074.39" cy="216.24" r="19.48"/><circle class="cls-1" cx="1161.2" cy="216.24" r="19.48"/><circle class="cls-1" cx="1248" cy="216.24" r="19.48"/><circle class="cls-1" cx="76.13" cy="279.68" r="19.48"/><circle class="cls-1" cx="162.93" cy="279.68" r="19.48"/><circle class="cls-1" cx="249.74" cy="279.68" r="19.48"/><circle class="cls-1" cx="336.54" cy="279.68" r="19.48"/><circle class="cls-1" cx="423.35" cy="279.68" r="19.48"/><circle class="cls-1" cx="510.15" cy="279.68" r="19.48"/><circle class="cls-1" cx="596.96" cy="279.68" r="19.48"/><circle class="cls-1" cx="683.77" cy="279.68" r="19.48"/><circle class="cls-1" cx="770.57" cy="279.68" r="19.48"/><circle class="cls-1" cx="857.38" cy="279.68" r="19.48"/><circle class="cls-1" cx="944.18" cy="279.68" r="19.48"/><circle class="cls-1" cx="1030.99" cy="279.68" r="19.48"/><circle class="cls-1" cx="1117.79" cy="279.68" r="19.48"/><circle class="cls-1" cx="1204.6" cy="279.68" r="19.48"/><circle class="cls-1" cx="119.53" cy="340.33" r="19.48"/><circle class="cls-1" cx="32.72" cy="340.33" r="19.48"/><circle class="cls-1" cx="206.33" cy="340.33" r="19.48"/><circle class="cls-1" cx="293.14" cy="340.33" r="19.48"/><circle class="cls-1" cx="379.95" cy="340.33" r="19.48"/><circle class="cls-1" cx="466.75" cy="340.33" r="19.48"/><circle class="cls-1" cx="553.56" cy="340.33" r="19.48"/><circle class="cls-1" cx="640.36" cy="340.33" r="19.48"/><circle class="cls-1" cx="727.17" cy="340.33" r="19.48"/><circle class="cls-1" cx="813.97" cy="340.33" r="19.48"/><circle class="cls-1" cx="900.78" cy="340.33" r="19.48"/><circle class="cls-1" cx="987.59" cy="340.33" r="19.48"/><circle class="cls-1" cx="1074.39" cy="340.33" r="19.48"/><circle class="cls-1" cx="1161.2" cy="340.33" r="19.48"/><circle class="cls-1" cx="1248" cy="340.33" r="19.48"/><circle class="cls-1" cx="76.13" cy="403.77" r="19.48"/><circle class="cls-1" cx="162.93" cy="403.77" r="19.48"/><circle class="cls-1" cx="249.74" cy="403.77" r="19.48"/><circle class="cls-1" cx="336.54" cy="403.77" r="19.48"/><circle class="cls-1" cx="423.35" cy="403.77" r="19.48"/><circle class="cls-1" cx="510.15" cy="403.77" r="19.48"/><circle class="cls-1" cx="596.96" cy="403.77" r="19.48"/><circle class="cls-1" cx="683.77" cy="403.77" r="19.48"/><circle class="cls-1" cx="770.57" cy="403.77" r="19.48"/><circle class="cls-1" cx="857.38" cy="403.77" r="19.48"/><circle class="cls-1" cx="944.18" cy="403.77" r="19.48"/><circle class="cls-1" cx="1030.99" cy="403.77" r="19.48"/><circle class="cls-1" cx="1117.79" cy="403.77" r="19.48"/><circle class="cls-1" cx="1204.6" cy="403.77" r="19.48"/><circle class="cls-1" cx="119.53" cy="464.42" r="19.48"/><circle class="cls-1" cx="32.72" cy="464.42" r="19.48"/><circle class="cls-1" cx="206.33" cy="464.42" r="19.48"/><circle class="cls-1" cx="293.14" cy="464.42" r="19.48"/><circle class="cls-1" cx="379.95" cy="464.42" r="19.48"/><circle class="cls-1" cx="466.75" cy="464.42" r="19.48"/><circle class="cls-1" cx="553.56" cy="464.42" r="19.48"/><circle class="cls-1" cx="640.36" cy="464.42" r="19.48"/><circle class="cls-1" cx="727.17" cy="464.42" r="19.48"/><circle class="cls-1" cx="813.97" cy="464.42" r="19.48"/><circle class="cls-1" cx="900.78" cy="464.42" r="19.48"/><circle class="cls-1" cx="987.59" cy="464.42" r="19.48"/><circle class="cls-1" cx="1074.39" cy="464.42" r="19.48"/><circle class="cls-1" cx="1161.2" cy="464.42" r="19.48"/><circle class="cls-1" cx="1248" cy="464.42" r="19.48"/><circle class="cls-1" cx="76.13" cy="527.85" r="19.48"/><circle class="cls-1" cx="162.93" cy="527.85" r="19.48"/><circle class="cls-1" cx="249.74" cy="527.85" r="19.48"/><circle class="cls-1" cx="336.54" cy="527.85" r="19.48"/><circle class="cls-1" cx="423.35" cy="527.85" r="19.48"/><circle class="cls-1" cx="510.15" cy="527.85" r="19.48"/><circle class="cls-1" cx="596.96" cy="527.85" r="19.48"/><circle class="cls-1" cx="683.77" cy="527.85" r="19.48"/><circle class="cls-1" cx="770.57" cy="527.85" r="19.48"/><circle class="cls-1" cx="857.38" cy="527.85" r="19.48"/><circle class="cls-1" cx="944.18" cy="527.85" r="19.48"/><circle class="cls-1" cx="1030.99" cy="527.85" r="19.48"/><circle class="cls-1" cx="1117.79" cy="527.85" r="19.48"/><circle class="cls-1" cx="1204.6" cy="527.85" r="19.48"/><circle class="cls-1" cx="119.53" cy="588.51" r="19.48"/><circle class="cls-1" cx="32.72" cy="588.51" r="19.48"/><circle class="cls-1" cx="206.33" cy="588.51" r="19.48"/><circle class="cls-1" cx="293.14" cy="588.51" r="19.48"/><circle class="cls-1" cx="379.95" cy="588.51" r="19.48"/><circle class="cls-1" cx="466.75" cy="588.51" r="19.48"/><circle class="cls-1" cx="553.56" cy="588.51" r="19.48"/><circle class="cls-1" cx="640.36" cy="588.51" r="19.48"/><circle class="cls-1" cx="727.17" cy="588.51" r="19.48"/><circle class="cls-1" cx="813.97" cy="588.51" r="19.48"/><circle class="cls-1" cx="900.78" cy="588.51" r="19.48"/><circle class="cls-1" cx="987.59" cy="588.51" r="19.48"/><circle class="cls-1" cx="1074.39" cy="588.51" r="19.48"/><circle class="cls-1" cx="1161.2" cy="588.51" r="19.48"/><circle class="cls-1" cx="1248" cy="588.51" r="19.48"/><circle class="cls-1" cx="76.13" cy="651.94" r="19.48"/><circle class="cls-1" cx="162.93" cy="651.94" r="19.48"/><circle class="cls-1" cx="249.74" cy="651.94" r="19.48"/><circle class="cls-1" cx="336.54" cy="651.94" r="19.48"/><circle class="cls-1" cx="423.35" cy="651.94" r="19.48"/><circle class="cls-1" cx="510.15" cy="651.94" r="19.48"/><circle class="cls-1" cx="596.96" cy="651.94" r="19.48"/><circle class="cls-1" cx="683.77" cy="651.94" r="19.48"/><circle class="cls-1" cx="770.57" cy="651.94" r="19.48"/><circle class="cls-1" cx="857.38" cy="651.94" r="19.48"/><circle class="cls-1" cx="944.18" cy="651.94" r="19.48"/><circle class="cls-1" cx="1030.99" cy="651.94" r="19.48"/><circle class="cls-1" cx="1117.79" cy="651.94" r="19.48"/><circle class="cls-1" cx="1204.6" cy="651.94" r="19.48"/><circle class="cls-1" cx="76.13" cy="776.03" r="19.48"/><circle class="cls-1" cx="162.93" cy="776.03" r="19.48"/><circle class="cls-1" cx="249.74" cy="776.03" r="19.48"/><circle class="cls-1" cx="336.54" cy="776.03" r="19.48"/><circle class="cls-1" cx="423.35" cy="776.03" r="19.48"/><circle class="cls-1" cx="510.15" cy="776.03" r="19.48"/><circle class="cls-1" cx="596.96" cy="776.03" r="19.48"/><circle class="cls-1" cx="683.77" cy="776.03" r="19.48"/><circle class="cls-1" cx="770.57" cy="776.03" r="19.48"/><circle class="cls-1" cx="857.38" cy="776.03" r="19.48"/><circle class="cls-1" cx="944.18" cy="776.03" r="19.48"/><circle class="cls-1" cx="1030.99" cy="776.03" r="19.48"/><circle class="cls-1" cx="1117.79" cy="776.03" r="19.48"/><circle class="cls-1" cx="1204.6" cy="776.03" r="19.48"/><circle class="cls-1" cx="119.53" cy="712.6" r="19.48"/><circle class="cls-1" cx="32.72" cy="712.6" r="19.48"/><circle class="cls-1" cx="206.33" cy="712.6" r="19.48"/><circle class="cls-1" cx="293.14" cy="712.6" r="19.48"/><circle class="cls-1" cx="379.95" cy="712.6" r="19.48"/><circle class="cls-1" cx="466.75" cy="712.6" r="19.48"/><circle class="cls-1" cx="553.56" cy="712.6" r="19.48"/><circle class="cls-1" cx="640.36" cy="712.6" r="19.48"/><circle class="cls-1" cx="727.17" cy="712.6" r="19.48"/><circle class="cls-1" cx="813.97" cy="712.6" r="19.48"/><circle class="cls-1" cx="900.78" cy="712.6" r="19.48"/><circle class="cls-1" cx="987.59" cy="712.6" r="19.48"/><circle class="cls-1" cx="1074.39" cy="712.6" r="19.48"/><circle class="cls-1" cx="1161.2" cy="712.6" r="19.48"/><circle class="cls-1" cx="1248" cy="712.6" r="19.48"/><circle class="cls-2" cx="69.73" cy="23.97" r="19.48"/><circle class="cls-2" cx="156.54" cy="23.97" r="19.48"/><circle class="cls-2" cx="243.34" cy="23.97" r="19.48"/><circle class="cls-2" cx="330.15" cy="23.97" r="19.48"/><circle class="cls-2" cx="416.96" cy="23.97" r="19.48"/><circle class="cls-2" cx="503.76" cy="23.97" r="19.48"/><circle class="cls-2" cx="590.57" cy="23.97" r="19.48"/><circle class="cls-2" cx="677.37" cy="23.97" r="19.48"/><circle class="cls-2" cx="764.18" cy="23.97" r="19.48"/><circle class="cls-2" cx="850.98" cy="23.97" r="19.48"/><circle class="cls-2" cx="937.79" cy="23.97" r="19.48"/><circle class="cls-2" cx="1024.59" cy="23.97" r="19.48"/><circle class="cls-2" cx="1111.4" cy="23.97" r="19.48"/><circle class="cls-2" cx="1198.21" cy="23.97" r="19.48"/><circle class="cls-2" cx="113.14" cy="84.62" r="19.48"/><circle class="cls-2" cx="26.33" cy="84.62" r="19.48"/><circle class="cls-2" cx="199.94" cy="84.62" r="19.48"/><circle class="cls-2" cx="286.75" cy="84.62" r="19.48"/><circle class="cls-2" cx="373.55" cy="84.62" r="19.48"/><circle class="cls-2" cx="460.36" cy="84.62" r="19.48"/><circle class="cls-2" cx="547.16" cy="84.62" r="19.48"/><circle class="cls-2" cx="633.97" cy="84.62" r="19.48"/><circle class="cls-2" cx="720.78" cy="84.62" r="19.48"/><circle class="cls-2" cx="807.58" cy="84.62" r="19.48"/><circle class="cls-2" cx="894.39" cy="84.62" r="19.48"/><circle class="cls-2" cx="981.19" cy="84.62" r="19.48"/><circle class="cls-2" cx="1068" cy="84.62" r="19.48"/><circle class="cls-2" cx="1154.8" cy="84.62" r="19.48"/><circle class="cls-2" cx="1241.61" cy="84.62" r="19.48"/><circle class="cls-2" cx="69.73" cy="148.06" r="19.48"/><circle class="cls-2" cx="156.54" cy="148.06" r="19.48"/><circle class="cls-2" cx="243.34" cy="148.06" r="19.48"/><circle class="cls-2" cx="330.15" cy="148.06" r="19.48"/><circle class="cls-2" cx="416.96" cy="148.06" r="19.48"/><circle class="cls-2" cx="503.76" cy="148.06" r="19.48"/><circle class="cls-2" cx="590.57" cy="148.06" r="19.48"/><circle class="cls-2" cx="677.37" cy="148.06" r="19.48"/><circle class="cls-2" cx="764.18" cy="148.06" r="19.48"/><circle class="cls-2" cx="850.98" cy="148.06" r="19.48"/><circle class="cls-2" cx="937.79" cy="148.06" r="19.48"/><circle class="cls-2" cx="1024.59" cy="148.06" r="19.48"/><circle class="cls-2" cx="1111.4" cy="148.06" r="19.48"/><circle class="cls-2" cx="1198.21" cy="148.06" r="19.48"/><circle class="cls-2" cx="113.14" cy="208.71" r="19.48"/><circle class="cls-2" cx="26.33" cy="208.71" r="19.48"/><circle class="cls-2" cx="199.94" cy="208.71" r="19.48"/><circle class="cls-2" cx="286.75" cy="208.71" r="19.48"/><circle class="cls-2" cx="373.55" cy="208.71" r="19.48"/><circle class="cls-2" cx="460.36" cy="208.71" r="19.48"/><circle class="cls-2" cx="547.16" cy="208.71" r="19.48"/><circle class="cls-2" cx="633.97" cy="208.71" r="19.48"/><circle class="cls-2" cx="720.78" cy="208.71" r="19.48"/><circle class="cls-2" cx="807.58" cy="208.71" r="19.48"/><circle class="cls-2" cx="894.39" cy="208.71" r="19.48"/><circle class="cls-2" cx="981.19" cy="208.71" r="19.48"/><circle class="cls-2" cx="1068" cy="208.71" r="19.48"/><circle class="cls-2" cx="1154.8" cy="208.71" r="19.48"/><circle class="cls-2" cx="1241.61" cy="208.71" r="19.48"/><circle class="cls-2" cx="69.73" cy="272.15" r="19.48"/><circle class="cls-2" cx="156.54" cy="272.15" r="19.48"/><circle class="cls-2" cx="243.34" cy="272.15" r="19.48"/><circle class="cls-2" cx="330.15" cy="272.15" r="19.48"/><circle class="cls-2" cx="416.96" cy="272.15" r="19.48"/><circle class="cls-2" cx="503.76" cy="272.15" r="19.48"/><circle class="cls-2" cx="590.57" cy="272.15" r="19.48"/><circle class="cls-2" cx="677.37" cy="272.15" r="19.48"/><circle class="cls-2" cx="764.18" cy="272.15" r="19.48"/><circle class="cls-2" cx="850.98" cy="272.15" r="19.48"/><circle class="cls-2" cx="937.79" cy="272.15" r="19.48"/><circle class="cls-2" cx="1024.59" cy="272.15" r="19.48"/><circle class="cls-2" cx="1111.4" cy="272.15" r="19.48"/><circle class="cls-2" cx="1198.21" cy="272.15" r="19.48"/><circle class="cls-2" cx="113.14" cy="332.8" r="19.48"/><circle class="cls-2" cx="26.33" cy="332.8" r="19.48"/><circle class="cls-2" cx="199.94" cy="332.8" r="19.48"/><circle class="cls-2" cx="286.75" cy="332.8" r="19.48"/><circle class="cls-2" cx="373.55" cy="332.8" r="19.48"/><circle class="cls-2" cx="460.36" cy="332.8" r="19.48"/><circle class="cls-2" cx="547.16" cy="332.8" r="19.48"/><circle class="cls-2" cx="633.97" cy="332.8" r="19.48"/><circle class="cls-2" cx="720.78" cy="332.8" r="19.48"/><circle class="cls-2" cx="807.58" cy="332.8" r="19.48"/><circle class="cls-2" cx="894.39" cy="332.8" r="19.48"/><circle class="cls-2" cx="981.19" cy="332.8" r="19.48"/><circle class="cls-2" cx="1068" cy="332.8" r="19.48"/><circle class="cls-2" cx="1154.8" cy="332.8" r="19.48"/><circle class="cls-2" cx="1241.61" cy="332.8" r="19.48"/><circle class="cls-2" cx="69.73" cy="396.23" r="19.48"/><circle class="cls-2" cx="156.54" cy="396.23" r="19.48"/><circle class="cls-2" cx="243.34" cy="396.23" r="19.48"/><circle class="cls-2" cx="330.15" cy="396.23" r="19.48"/><circle class="cls-2" cx="416.96" cy="396.23" r="19.48"/><circle class="cls-2" cx="503.76" cy="396.23" r="19.48"/><circle class="cls-2" cx="590.57" cy="396.23" r="19.48"/><circle class="cls-2" cx="677.37" cy="396.23" r="19.48"/><circle class="cls-2" cx="764.18" cy="396.23" r="19.48"/><circle class="cls-2" cx="850.98" cy="396.23" r="19.48"/><circle class="cls-2" cx="937.79" cy="396.23" r="19.48"/><circle class="cls-2" cx="1024.59" cy="396.23" r="19.48"/><circle class="cls-2" cx="1111.4" cy="396.23" r="19.48"/><circle class="cls-2" cx="1198.21" cy="396.23" r="19.48"/><circle class="cls-2" cx="113.14" cy="456.89" r="19.48"/><circle class="cls-2" cx="26.33" cy="456.89" r="19.48"/><circle class="cls-2" cx="199.94" cy="456.89" r="19.48"/><circle class="cls-2" cx="286.75" cy="456.89" r="19.48"/><circle class="cls-2" cx="373.55" cy="456.89" r="19.48"/><circle class="cls-2" cx="460.36" cy="456.89" r="19.48"/><circle class="cls-2" cx="547.16" cy="456.89" r="19.48"/><circle class="cls-2" cx="633.97" cy="456.89" r="19.48"/><circle class="cls-2" cx="720.78" cy="456.89" r="19.48"/><circle class="cls-2" cx="807.58" cy="456.89" r="19.48"/><circle class="cls-2" cx="894.39" cy="456.89" r="19.48"/><circle class="cls-2" cx="981.19" cy="456.89" r="19.48"/><circle class="cls-2" cx="1068" cy="456.89" r="19.48"/><circle class="cls-2" cx="1154.8" cy="456.89" r="19.48"/><circle class="cls-2" cx="1241.61" cy="456.89" r="19.48"/><circle class="cls-2" cx="69.73" cy="520.32" r="19.48"/><circle class="cls-2" cx="156.54" cy="520.32" r="19.48"/><circle class="cls-2" cx="243.34" cy="520.32" r="19.48"/><circle class="cls-2" cx="330.15" cy="520.32" r="19.48"/><circle class="cls-2" cx="416.96" cy="520.32" r="19.48"/><circle class="cls-2" cx="503.76" cy="520.32" r="19.48"/><circle class="cls-2" cx="590.57" cy="520.32" r="19.48"/><circle class="cls-2" cx="677.37" cy="520.32" r="19.48"/><circle class="cls-2" cx="764.18" cy="520.32" r="19.48"/><circle class="cls-2" cx="850.98" cy="520.32" r="19.48"/><circle class="cls-2" cx="937.79" cy="520.32" r="19.48"/><circle class="cls-2" cx="1024.59" cy="520.32" r="19.48"/><circle class="cls-2" cx="1111.4" cy="520.32" r="19.48"/><circle class="cls-2" cx="1198.21" cy="520.32" r="19.48"/><circle class="cls-2" cx="113.14" cy="580.97" r="19.48"/><circle class="cls-2" cx="26.33" cy="580.97" r="19.48"/><circle class="cls-2" cx="199.94" cy="580.97" r="19.48"/><circle class="cls-2" cx="286.75" cy="580.97" r="19.48"/><circle class="cls-2" cx="373.55" cy="580.97" r="19.48"/><circle class="cls-2" cx="460.36" cy="580.97" r="19.48"/><circle class="cls-2" cx="547.16" cy="580.97" r="19.48"/><circle class="cls-2" cx="633.97" cy="580.97" r="19.48"/><circle class="cls-2" cx="720.78" cy="580.97" r="19.48"/><circle class="cls-2" cx="807.58" cy="580.97" r="19.48"/><circle class="cls-2" cx="894.39" cy="580.97" r="19.48"/><circle class="cls-2" cx="981.19" cy="580.97" r="19.48"/><circle class="cls-2" cx="1068" cy="580.97" r="19.48"/><circle class="cls-2" cx="1154.8" cy="580.97" r="19.48"/><circle class="cls-2" cx="1241.61" cy="580.97" r="19.48"/><circle class="cls-2" cx="69.73" cy="644.41" r="19.48"/><circle class="cls-2" cx="156.54" cy="644.41" r="19.48"/><circle class="cls-2" cx="243.34" cy="644.41" r="19.48"/><circle class="cls-2" cx="330.15" cy="644.41" r="19.48"/><circle class="cls-2" cx="416.96" cy="644.41" r="19.48"/><circle class="cls-2" cx="503.76" cy="644.41" r="19.48"/><circle class="cls-2" cx="590.57" cy="644.41" r="19.48"/><circle class="cls-2" cx="677.37" cy="644.41" r="19.48"/><circle class="cls-2" cx="764.18" cy="644.41" r="19.48"/><circle class="cls-2" cx="850.98" cy="644.41" r="19.48"/><circle class="cls-2" cx="937.79" cy="644.41" r="19.48"/><circle class="cls-2" cx="1024.59" cy="644.41" r="19.48"/><circle class="cls-2" cx="1111.4" cy="644.41" r="19.48"/><circle class="cls-2" cx="1198.21" cy="644.41" r="19.48"/><circle class="cls-2" cx="69.73" cy="768.5" r="19.48"/><circle class="cls-2" cx="156.54" cy="768.5" r="19.48"/><circle class="cls-2" cx="243.34" cy="768.5" r="19.48"/><circle class="cls-2" cx="330.15" cy="768.5" r="19.48"/><circle class="cls-2" cx="416.96" cy="768.5" r="19.48"/><circle class="cls-2" cx="503.76" cy="768.5" r="19.48"/><circle class="cls-2" cx="590.57" cy="768.5" r="19.48"/><circle class="cls-2" cx="677.37" cy="768.5" r="19.48"/><circle class="cls-2" cx="764.18" cy="768.5" r="19.48"/><circle class="cls-2" cx="850.98" cy="768.5" r="19.48"/><circle class="cls-2" cx="937.79" cy="768.5" r="19.48"/><circle class="cls-2" cx="1024.59" cy="768.5" r="19.48"/><circle class="cls-2" cx="1111.4" cy="768.5" r="19.48"/><circle class="cls-2" cx="1198.21" cy="768.5" r="19.48"/><circle class="cls-2" cx="113.14" cy="705.06" r="19.48"/><circle class="cls-2" cx="26.33" cy="705.06" r="19.48"/><circle class="cls-2" cx="199.94" cy="705.06" r="19.48"/><circle class="cls-2" cx="286.75" cy="705.06" r="19.48"/><circle class="cls-2" cx="373.55" cy="705.06" r="19.48"/><circle class="cls-2" cx="460.36" cy="705.06" r="19.48"/><circle class="cls-2" cx="547.16" cy="705.06" r="19.48"/><circle class="cls-2" cx="633.97" cy="705.06" r="19.48"/><circle class="cls-2" cx="720.78" cy="705.06" r="19.48"/><circle class="cls-2" cx="807.58" cy="705.06" r="19.48"/><circle class="cls-2" cx="894.39" cy="705.06" r="19.48"/><circle class="cls-2" cx="981.19" cy="705.06" r="19.48"/><circle class="cls-2" cx="1068" cy="705.06" r="19.48"/><circle class="cls-2" cx="1154.8" cy="705.06" r="19.48"/><circle class="cls-2" cx="1241.61" cy="705.06" r="19.48"/></svg>