<svg id="Ebene_1" data-name="Ebene 1" xmlns="http://www.w3.org/2000/svg" viewBox="0 0 400 300"><defs><style>.cls-1,.cls-2{fill:#fff;}.cls-2,.cls-3{stroke:#000;stroke-miterlimit:10;stroke-width:0.75px;}</style></defs><path class="cls-1" d="M68.15,274.08c1.5.06,2.69.16,3.89.16q124.53,0,249.08.09c4.15,0,4.8-1.4,4.79-5.11q-.17-82.82-.08-165.65V98.65H209.2c8.13-26.34,16.06-52,24.06-77.91L224.52,18c-.67,2-1.27,3.59-1.79,5.24Q212.58,56,202.42,88.81c-3.08,9.91-3.11,9.78-13.41,9.93-2.81,0-4-.87-4.88-3.49-7.14-21-14.44-42-21.7-63-2.64-7.64-5.29-15.29-8-23.23l-8.75,3.1,29.84,86.6H68.15Zm78.43,6.58H121.07v8.7h25.51Zm121.36,8.8v-8.77H242.55v8.77Z"/><path d="M68.15,274.08V98.7H175.48L145.64,12.1,154.39,9c2.75,7.94,5.4,15.59,8,23.23,7.26,21,14.56,42,21.7,63,.89,2.62,2.07,3.53,4.88,3.49,10.3-.15,10.33,0,13.41-9.93Q212.61,56,222.73,23.21c.52-1.65,1.12-3.28,1.79-5.24l8.74,2.77c-8,25.9-15.93,51.57-24.06,77.91H325.83v4.92q0,82.83.08,165.65c0,3.71-.64,5.12-4.79,5.11q-124.55-.18-249.08-.09C70.84,274.24,69.65,274.14,68.15,274.08ZM77.5,108v156.7H316V108Z"/><path d="M146.58,280.66v8.7H121.07v-8.7Z"/><path d="M267.94,289.46H242.55v-8.77h25.39Z"/><path class="cls-1" d="M77.5,108H316v156.7H77.5Zm192.36,9.56H88.17V255.69H269.86Zm21.68,38.5A13.61,13.61,0,1,0,278,142.32,13.64,13.64,0,0,0,291.54,156.05Zm-13.32,41.87c8.55,0,16.76,0,25-.08a2.75,2.75,0,0,0,2.07-1.72,72.92,72.92,0,0,0,.1-7.39H278.22Zm27,14.42h-27v9h27ZM278.31,236v9.23c8.42,0,16.5.07,24.58-.1a3.4,3.4,0,0,0,2.4-2.2,45.23,45.23,0,0,0,.11-6.93Z"/><path d="M269.86,117.55V255.69H88.17V117.55Zm-9.28,128.93V126.91H97.46V246.48Z"/><path d="M291.54,156.05a13.61,13.61,0,1,1,13.84-13.5A13.54,13.54,0,0,1,291.54,156.05Zm5.09-12.67c0-.64,0-1.27,0-1.9-1.69-1.15-3.44-3.26-5.06-3.17s-3.72,2.36-4.06,4a3.59,3.59,0,0,0,4.06,4.35C293.36,146.4,294.94,144.52,296.63,143.38Z"/><path d="M278.22,197.92v-9.19h27.14a72.92,72.92,0,0,1-.1,7.39,2.75,2.75,0,0,1-2.07,1.72C295,198,286.77,197.92,278.22,197.92Z"/><path d="M305.21,212.34v9h-27v-9Z"/><path d="M278.31,236H305.4a45.23,45.23,0,0,1-.11,6.93,3.4,3.4,0,0,1-2.4,2.2c-8.08.17-16.16.1-24.58.1Z"/><path class="cls-1" d="M260.58,246.48H97.46V126.91H260.58Z"/><path class="cls-1" d="M296.63,143.38c-1.69,1.14-3.27,3-5.08,3.27a3.59,3.59,0,0,1-4.06-4.35c.34-1.63,2.57-3.91,4.06-4s3.37,2,5.06,3.17C296.62,142.11,296.62,142.74,296.63,143.38Z"/><path class="cls-2" d="M244.6,211.12c.72-3.22-.2-6.07-1.52-8.91-.78-1.7-1.56-3.4-1.33-5.4a7.78,7.78,0,0,0-.43-2.75c-.32-1.21-.73-2.4-1.12-3.59-1-3.19-2.1-6.38-3.14-9.57a7.07,7.07,0,0,1-.4-1.55,14.2,14.2,0,0,0-3-8.19,10.52,10.52,0,0,1-2.11-2.75,17.92,17.92,0,0,0-5.78-7.59,28.44,28.44,0,0,1-2.92-2.89c-.88-1-1.58-2.09-2.52-3-1.81-1.67-3.79-3.16-5.61-4.83a16,16,0,0,0-6-3.53,22.87,22.87,0,0,1-6-2.54,9.48,9.48,0,0,0-7.39-1.22,2.56,2.56,0,0,1-1.52-.28,11.46,11.46,0,0,0-6.49-1.51c-3.88.47-6.09,1.51-7.11,5.43a17.41,17.41,0,0,0-.14,2.62c-.18,1.64-.47,3.26-.61,4.91s-.16,3.45-.21,5.17c0,.72,0,1.45,0,2.17-.07,1.15-.15,2.3-.3,3.44,0,.25-.41.66-.61.65a1,1,0,0,1-.76-.56,9.87,9.87,0,0,1-.17-2.24c.14-3.38.33-6.77.45-10.15a6.48,6.48,0,0,0-.39-1.56,14.11,14.11,0,0,1-.47-2.1,9.42,9.42,0,0,0-3.35-6.4,4.28,4.28,0,0,0-4.47-1.17c-1.26.45-2.51,1-3.8,1.34a17.72,17.72,0,0,1-4,.84,47.55,47.55,0,0,0-12,2.27,34.17,34.17,0,0,0-6.79,3.13,54.06,54.06,0,0,0-6.22,4.18c-1.65,1.27-3,3-4.69,4.17a15.44,15.44,0,0,0-6,6.87,12.37,12.37,0,0,1-2.64,3.61c-2.77,3-5.2,6.32-5.61,10.66a4.91,4.91,0,0,1-.77,1.94A24.25,24.25,0,0,0,112.81,195a3.27,3.27,0,0,1-.51,1.6c-1.57,3.09-3.19,6.15-2.68,9.83a6.24,6.24,0,0,1,0,2.69c-.53,1.55,0,2.92.35,4.35a41.33,41.33,0,0,1,1,4,9.73,9.73,0,0,0,2.37,5.31c1.53,1.77,3,3.54,4.59,5.29a8.7,8.7,0,0,0,2,1.95c2.57,1.4,5.15,2.77,7.73,4.13,1.67.88,3.76.95,5.38,1.33l.12.33A146.3,146.3,0,0,0,154,239c5.42.27,8.13-5.42,8.4-10.56,1.35,1.08,2.71,1.89,4.33,1.62,3.8-.27,8.13-.81,10.57-4.6,0-.27,1.62.27,2.16.54,4.34,4.87,9.76,3.79,15.44,2.44-.27,3.52,1.63,7.85,4.88,9.48s7.59.81,11.11,0a34,34,0,0,1,9.56-1.08c0-.48.33-.59,1-.62a15.59,15.59,0,0,0,4.22-.85c1.4-.49,2.64-1.63,4-1.9a12.33,12.33,0,0,0,6.39-2.89c1-.93,1.64-2.24,2.62-3.19a18.56,18.56,0,0,0,6-12.42C244.75,213.69,244.33,212.33,244.6,211.12Z"/><path class="cls-3" d="M244.6,211.12c.72-3.22-.2-6.07-1.52-8.91-.78-1.7-1.56-3.4-1.33-5.4a7.78,7.78,0,0,0-.43-2.75c-.32-1.21-.73-2.4-1.12-3.59-1-3.19-2.1-6.38-3.14-9.57a7.07,7.07,0,0,1-.4-1.55,14.2,14.2,0,0,0-3-8.19,10.52,10.52,0,0,1-2.11-2.75,17.92,17.92,0,0,0-5.78-7.59,28.44,28.44,0,0,1-2.92-2.89c-.88-1-1.58-2.09-2.52-3-1.81-1.67-3.79-3.16-5.61-4.83a16,16,0,0,0-6-3.53,22.87,22.87,0,0,1-6-2.54,9.48,9.48,0,0,0-7.39-1.22,2.56,2.56,0,0,1-1.52-.28,11.46,11.46,0,0,0-6.49-1.51c-3.88.47-6.09,1.51-7.11,5.43a17.41,17.41,0,0,0-.14,2.62c-.18,1.64-.47,3.26-.61,4.91s-.16,3.45-.21,5.17c0,.72,0,1.45,0,2.17-.07,1.15-.15,2.3-.3,3.44,0,.25-.41.66-.61.65a1,1,0,0,1-.76-.56,9.87,9.87,0,0,1-.17-2.24c.14-3.38.33-6.77.45-10.15a6.48,6.48,0,0,0-.39-1.56,14.11,14.11,0,0,1-.47-2.1,9.42,9.42,0,0,0-3.35-6.4,4.28,4.28,0,0,0-4.47-1.17c-1.26.45-2.51,1-3.8,1.34a17.72,17.72,0,0,1-4,.84,47.55,47.55,0,0,0-12,2.27,34.17,34.17,0,0,0-6.79,3.13,54.06,54.06,0,0,0-6.22,4.18c-1.65,1.27-3,3-4.69,4.17a15.44,15.44,0,0,0-6,6.87,12.37,12.37,0,0,1-2.64,3.61c-2.77,3-5.2,6.32-5.61,10.66a4.91,4.91,0,0,1-.77,1.94A24.25,24.25,0,0,0,112.81,195a3.27,3.27,0,0,1-.51,1.6c-1.57,3.09-3.19,6.15-2.68,9.83a6.24,6.24,0,0,1,0,2.69c-.53,1.55,0,2.92.35,4.35a41.33,41.33,0,0,1,1,4,9.73,9.73,0,0,0,2.37,5.31c1.53,1.77,3,3.54,4.59,5.29a8.7,8.7,0,0,0,2,1.95c2.57,1.4,5.15,2.77,7.73,4.13,1.67.88,3.76.95,5.38,1.33l.12.33,1.78.4v-.07a1.69,1.69,0,0,1,.36.15c3.16.66,6.35,1.21,9.53,1.65a2.1,2.1,0,0,1,.43,0,1.21,1.21,0,0,1,.39.11l1.73.22a1.33,1.33,0,0,1,.85.1l1.72.19.2-.08a.76.76,0,0,0,.08.11c.73.08,1.46.15,2.2.21h0L154,239a6.28,6.28,0,0,0,.87,0l.09-.14.14.12a6.94,6.94,0,0,0,5-3.25l0,0h0a14.77,14.77,0,0,0,2.24-7.27c1.35,1.08,2.71,1.89,4.33,1.62,3.8-.27,8.13-.81,10.57-4.6,0-.27,1.62.27,2.16.54,4.34,4.87,9.76,3.79,15.44,2.44-.27,3.52,1.63,7.85,4.88,9.48,3,1.52,7,.91,10.41.16a1.14,1.14,0,0,1,.45-.11l.25-.05a34,34,0,0,1,9.56-1.08c0-.48.33-.59,1-.62l.79-.07-.18-.36c.9-.85,1.85-1.66,2.69-2.56s1.7-2,2.6-3c.27-.29.85-.62,1.13-.51,2.17.82,4.75-.35,6.19-2.35-.58.36-1.15.75-1.74,1.07a7.56,7.56,0,0,1-1.95.88c-.94.18-1.93.16-2.21-1.13a4.87,4.87,0,0,0-.5-.93c-3.33,6.5-8.07,10.46-15.87,9.69l.71-1.4c-.2-.06-.33-.13-.35-.1-1.46,1.6-3,1.46-4.87.6-1.7-.79-3.52-1.67-5.55-.93l6.94,2.15,0,.4a9.25,9.25,0,0,1-5.32,1.11c-5.51-.71-7.86-5.42-8.26-9.73a1.61,1.61,0,0,1,.89-1.23c2.31-.66,4.12-2.12,6.08-3.41,3.16-2.06,6.53-3.83,10.39-4.24a6.38,6.38,0,0,0,5.76-4.12A66.51,66.51,0,0,1,226,203.64c1.26-1.79,1.25-1.8,3.38-1l-.56-1.07c0-.09.06-.21.13-.25,1.62-1,3.21-2.14,5.3-2a3.69,3.69,0,0,1,3.79,2.85c.57,2.19.94,4.44,1.39,6.65a9.87,9.87,0,0,1,.23-1.58,5.37,5.37,0,0,1,.68-1.14c.3.29.78.54.85.88.38,1.92.65,3.85,1,5.69a8.09,8.09,0,0,0-.22-5.8,3.94,3.94,0,0,0-2-1.7,35.71,35.71,0,0,0-1.61-4.06,4.81,4.81,0,0,0-1.89-1.93c-.78-.41-1-.82-.79-1.57a3.36,3.36,0,0,0,.19-.91c-.15-1.75.08-3.34,2-4.29l-.35-.26-1.62,1c-.21-.8-.39-1.52-.58-2.25l-.29.06c0,2.16.05,4.32,0,6.48,0,.43-.56,1.2-.88,1.21-2.19.07-4,1.13-5.72,2.2a4.88,4.88,0,0,1-.75.28c.08-1.14.16-2.21.23-3.27l-.35-.06c-.1.58-.24,1.15-.29,1.73-.21,2.56-2.22,4.13-3.35,6.18-1.88,3.42-4,6.72-5.65,10.25-1,2.08-2.2,3.16-4.36,3.39-4.81.52-8.87,2.75-12.73,5.49a19.06,19.06,0,0,1-8.1,3.1c-.14,0-.31-.13-.91-.4,2.09-1.52,3.88-3,5.8-4.18,1.73-1.09,3.7-1.82,5.39-3a9.44,9.44,0,0,0,2.49-3.1,9.35,9.35,0,0,0-1.84,1.34,10.09,10.09,0,0,1-5.1,3.6c-2.94.79-4.88,2.92-7,4.88A7.51,7.51,0,0,1,184,229c-3-.92-4.63-3.84-4.65-7.34l2.76,2.73.1-.1a45.55,45.55,0,0,1-2.73-4c-1.18-2.18-.8-4.62-.62-7,0-.52,1.19-1.25,1.91-1.38a8.18,8.18,0,0,1,6.35,1,4.57,4.57,0,0,1,1,1,9.15,9.15,0,0,0,1.68,2l-1.48-3.2,2-1.29c-.27-.11-.43-.23-.49-.2-1.66,1.1-3.27.43-4.94,0a6.7,6.7,0,0,0-5.11.48,3.11,3.11,0,0,1-.94.12c0-2.17,0-4.27,0-6.36.06-2.27.37-4.55.26-6.82a14.57,14.57,0,0,1,1-7,11.84,11.84,0,0,1,2.21-2.63,7.53,7.53,0,0,1,1-.83l-.3-.4-3.52,2.64a9.17,9.17,0,0,1-.21-1.76,55,55,0,0,1,.61-5.88c.72-3.76,3.88-5.83,7.72-5.55.83.06,1.74-.88,2.48-1.64l-3.89,1a4.18,4.18,0,0,1-1.06.16,5.15,5.15,0,0,0-4.12,2.22,2.27,2.27,0,0,1-1.11.81c0-2.36,0-4.71,0-7.07,0-2.55,1.49-4.3,3.45-5.75a4.53,4.53,0,0,0-3.45,2.79l-.39,0c0-1,0-1.91,0-2.86a7.36,7.36,0,0,1,1.94-4.75,3.4,3.4,0,0,1,5.09-.14c.79.8,1.53,1.65,2.32,2.44a5.44,5.44,0,0,1,1.83,3.9,1.18,1.18,0,0,0,.6.93l-.12-2.64a20.29,20.29,0,0,1,2.48.77c.74.36,1.39.9,2.17,1.24a5.32,5.32,0,0,0-3.12-2.42,4.83,4.83,0,0,1-3-2.07,10.91,10.91,0,0,0-3.06-2.91c-2-1.42-4.17-2-6.3.44-.56-2.18-.05-4,.32-5.77.45-2.18,2.38-2.59,3.93-3.56a5,5,0,0,0-4.1,1.68c-.37-2.56,1.91-4.93,4.73-5.1a8.4,8.4,0,0,1,5.13,1.29,26.54,26.54,0,0,0,4.43,1.77c-.14-.47-.14-.6-.19-.63a64.28,64.28,0,0,0-6.35-2.86,8.14,8.14,0,0,0-5.89.61c-.38.17-.76.32-1.14.47l-.31-.39,1.91-2-.09-.19-1.88.67c0-3.45,3.21-6,7-5.85a11.48,11.48,0,0,1,7.53,2.84,21.92,21.92,0,0,0,1.81,1.36l.25-.23-1.77-2.1.07-.41a23.48,23.48,0,0,1,3.86.37,11.55,11.55,0,0,1,6.76,4.62,27,27,0,0,0,2.93,3.13c.16.16.46.18,1,.38l-4.14-5c4.64.53,7.8,3.3,10.81,6s5.58,6.05,8.4,9.17c1.15-.51,1.52.79,2.16,1.44,2.9,2.92,4,6.73,5.16,10.52a22.74,22.74,0,0,0,1,2.39l.31-.13-1.58-4.9.32-.14a13.39,13.39,0,0,1,2.8,5.47c.48,2.45.75,4.95,2.12,6.92-1.2-1.11-2.49-2.24-3.68-3.46-.34-.35-.35-1-.58-1.48a2.81,2.81,0,0,0-1.06-1.28c.4,1.35.81,2.7,1.24,4.14a1.34,1.34,0,0,1,2,.71c.81,1.65,1.48,3.36,2.23,5s1.49,3.34,2.29,5a11.1,11.1,0,0,1,.87,6.3,3.56,3.56,0,0,1-.47.95l-1.65-2.14,1.45,5,.6-2.6h.53c1.07,2.56,2.33,5,2.63,7.88a15.75,15.75,0,0,1-1.71,8L244,213.3c.4,3.27-.72,6-1.93,8.64a11.66,11.66,0,0,1-6.1,6.22l.84.68a11.89,11.89,0,0,1-7.22,4,13.39,13.39,0,0,0-2.69,1.05c-1.55.7-3.08,1.46-4.62,2.2a15.83,15.83,0,0,0,3.4-.78c1.4-.49,2.64-1.63,4-1.9a12.33,12.33,0,0,0,6.39-2.89c1-.93,1.64-2.24,2.62-3.19a18.56,18.56,0,0,0,6-12.42C244.75,213.69,244.33,212.33,244.6,211.12Zm-86.16,25.2a5.25,5.25,0,0,1-3,1.53,25.49,25.49,0,0,1-5.1.36,7.1,7.1,0,0,1-2.13-.73,14,14,0,0,1,8-5.56l-.21-.45-5,1.72-3.15-4.85h4.66l0-.53a20.89,20.89,0,0,0-4.09-.2c-1.67.24-3.19.76-4.91-.09-2.25-1.1-4.77-1.1-7.24-1.27a2.32,2.32,0,0,1-1.65-1,18,18,0,0,0-6-6.59,5.42,5.42,0,0,1-1.4-2,12.62,12.62,0,0,1-.65-1.94l-.41.1c.12.73.25,1.47.38,2.24a7.86,7.86,0,0,1-5.36-3.07,9.62,9.62,0,0,0-5.46-3.44c-.55-.11-.88-1.45-1.24-2.25a3.06,3.06,0,0,1-.1-1.06l-.44,0a8.08,8.08,0,0,0,.33,2.79,2.32,2.32,0,0,1-.26,2.57,10,10,0,0,0-.48,1.28l-.37-.74-.44.14,1,3.26.33-.08a17.21,17.21,0,0,1,.44-3.23c.53-1.62.86-2.44,2.61-1.29a26.35,26.35,0,0,1,3.84,3.24c.25.25,0,1-.07,1.3a26,26,0,0,1,4.09,1.12,19.51,19.51,0,0,1,10,10.21,8.52,8.52,0,0,0,4.13,4.22l-3.43-4.77.27-.51c2.28.43,4.57.84,6.85,1.29,1.31.27,2.45,1,3.91,1.05s2.2,1.76,2.62,3.16c.86,2.85-.63,4.59-3.76,4.67l-2.1-2.63-.36.24,1.62,2.48a14.6,14.6,0,0,1-3.6,0,72.67,72.67,0,0,1-8.91-3,8.1,8.1,0,0,1-4.82-5.78c-.36-1.53-.74-3.06-1.15-4.58a3,3,0,0,0-.72-1.33c.82,4.1.6,8.6,4.52,11.56a8.11,8.11,0,0,1-5-2.19,2.87,2.87,0,0,0-1-.72c-3-.64-5-2.67-6.83-5,.25-.18.46-.32.65-.48,0,0,0-.08,0-.08-3.45-1.84-5.81-4.38-6.26-8.48a41,41,0,0,0-1.3-5.22,2.77,2.77,0,0,1-.19-1.3c.88-2.78,1.65-5.62,4-7.66a4.74,4.74,0,0,1,.72-.35v3.07h.4c0-.58.09-1.15.15-1.73a4.46,4.46,0,0,1,5.65-3.88,11,11,0,0,1,7.22,5.11,87.27,87.27,0,0,0,6.4,8.76,14.93,14.93,0,0,0,6.18,4.21c3.32,1.26,6.69,2.43,9.89,3.94a70.06,70.06,0,0,1,6.31,3.9,25.21,25.21,0,0,0,3.09,1.62,1.46,1.46,0,0,1,1,1.54A11.86,11.86,0,0,1,158.44,236.32Zm18.5-80.94-1.72-1.19-.38.23c2.6,2.36,2.57,5.22,1.85,8.47-1.73-2.19-4.13-2.59-6.41-3a8.12,8.12,0,0,0-8.11,3.15c-1,1.26-1.7,2.77-2.74,4a15.19,15.19,0,0,1-2.8,2.2,11.47,11.47,0,0,1-1.48.76l.2.48,3.8-1.59c.44,1.1.9,2.27,1.36,3.45l.41-.17a18.36,18.36,0,0,1-.73-3.23,6,6,0,0,1,.53-2.79,17.34,17.34,0,0,1,1.91-2.6c3-4.06,10-3.62,12.66-.82a6.62,6.62,0,0,1,1.66,4.72c-1-.22-2.07-.81-2.7-.51a13.27,13.27,0,0,0-2.9,2.49c-.37.35-.68.78-1.21,1.39l-1.22-3-.33.09a12.6,12.6,0,0,1,.6,2.85,11.63,11.63,0,0,1-.73,2.72c.34,0,.49,0,.5-.05.61-2.19,2.78-3.12,4-4.86a2.67,2.67,0,0,1,2.14-1,2.3,2.3,0,0,1,1.89,2.13c.5,2.95.43,8.29-.24,10.53a16.66,16.66,0,0,0-1.95-1.58,14.35,14.35,0,0,0-2.16-.93l-.2.42a7.65,7.65,0,0,0,.88.5,5.32,5.32,0,0,1,3.78,5.58c0,1.49.06,3,0,4.47,0,.43-.44.85-.79,1.48,1.68,2.29.38,5.21.4,8,0,2-.21,4-.27,6,0,1.76,0,3.52,0,5.28,0,2.17-.74,2.68-2.86,2.36-2.83-.44-5.62-.3-8.13,1.41a21.43,21.43,0,0,1,3.55-.76c1.67-.09,3.35.1,5,.17a2.9,2.9,0,0,0,.51,0,1.92,1.92,0,0,1,2.31,2.08c-.09,2.67.1,5.44-.56,8-1.21,4.66-5.05,7.49-10,6.18-1.51-.4-2.86-1.68-4.08-2.78-2.51-2.24-4.89-4.63-7.32-7-2.74-2.66-6.23-3.64-9.81-4.45a5.25,5.25,0,0,0-1.12.1c.53.3.75.52,1,.55,5.41.83,9.45,3.93,13,7.87,1,1.15,2,2.4,2.91,3.63.33.12.67.23,1,.36l-.45.32-.54-.68a5.12,5.12,0,0,1-.75-.35c-2.74-1.64-5.39-3.45-8.21-4.94a65.9,65.9,0,0,0-6.47-2.56,18.29,18.29,0,0,1-2.16-1c-2.3-1.28-4.92-2.25-6.79-4-2.31-2.18-4-5-5.93-7.6a23.12,23.12,0,0,0-1.68-2.42c-2.87-2.86-3.28-6.36-2.71-10.42a3.82,3.82,0,0,0-1,3.43c.08,1.1.28,2.2.44,3.39-1.8-.5-3.51-.95-5.2-1.46-.22-.07-.43-.46-.48-.73a11.75,11.75,0,0,1,.19-6.25,3.61,3.61,0,0,1,2.89-2.49v4.88l.41.06a7.2,7.2,0,0,0,.23-1.35,20,20,0,0,1,1.17-7.52c.2-.54.54-1,.78-1.56s1.15-1.21.34-2.08c-.09-.1.1-.49.19-.74,1.22-3.59,2.54-7.12,5.51-9.72.11-.1.13-.3.32-.77l-2,.75,2.19-3.14c-.44.14-.81.13-.91.29-.67,1.08-1.3,2.18-1.92,3.29s-1.2,2.17-1.77,3.27a22.58,22.58,0,0,0-2.52,7.28,13.61,13.61,0,0,1-.79,2c-.49,1.47-.91,3-1.38,4.54l-1.54.2a12.86,12.86,0,0,1,1.32-8.14l-.47-.15c-.48,1.18-1,2.35-1.43,3.54a4.35,4.35,0,0,0-.33,1.72c.27,3.12-1.46,5.83-1.74,8.82a12.57,12.57,0,0,0,.1,2.67c.12,1.05-.31,1.47-1.19,2.13-2.55,1.91-5.85,3.11-6.91,6.64-.54-2.89.91-5.29,1.61-8l1,.62c.12-1.8.3-3.59.32-5.38a23.92,23.92,0,0,1,3.28-11.95c.94,3-1.63,5.31-1.07,8.13l1.32-3.6c.11-.29.24-.58.35-.87a5.94,5.94,0,0,0,.45-3,14.12,14.12,0,0,1,1.34-7.73c.93-1.9,2.18-3.64,3.28-5.45l.3.16c-.3.92-.59,1.84-1,3,.52-.2.7-.21.74-.29,1.7-3.24,3.28-6.55,5.11-9.72a9,9,0,0,1,3.08-3.27c2.33-1.32,3.84-3.46,5.84-5.08,1.73-1.41,3.6-2.65,5.46-3.9.27-.18.79,0,1.54.06,2.28-2.37,5.56-3.71,9.17-4.7v1.21c4-3.27,8.6-2.27,13.27-2.29-.28-.26-.38-.37-.49-.46a5.09,5.09,0,0,0-.42-.3c4.62-3.21,10-1.06,11,4.38,0,.24,0,.71-.09.73a1.6,1.6,0,0,1-1,0c-2.18-1-4.17-.36-6.15.47l0,.41a4.68,4.68,0,0,0,1.26-.16,8.27,8.27,0,0,1,5-.2,1.11,1.11,0,0,1,.65.42C177.07,151.38,177.74,153.22,176.94,155.38Z"/><path class="cls-3" d="M113.38,199l0,0v.07Z"/><path class="cls-3" d="M161.78,227.26c-.32-.13-.66-.24-1-.36l.54.68Z"/><path class="cls-2" d="M233.53,181.42a1.34,1.34,0,0,1,2,.71c.81,1.65,1.48,3.36,2.23,5s1.49,3.34,2.29,5a11.1,11.1,0,0,1,.87,6.3,3.56,3.56,0,0,1-.47.95l-1.65-2.14,1.45,5,.6-2.6h.53c1.07,2.56,2.33,5,2.63,7.88a15.75,15.75,0,0,1-1.71,8L244,213.3c.4,3.27-.72,6-1.93,8.64a11.66,11.66,0,0,1-6.1,6.22l.84.68a11.89,11.89,0,0,1-7.22,4,13.39,13.39,0,0,0-2.69,1.05c-1.56.71-3.1,1.47-4.65,2.21l-.18-.37c.9-.85,1.85-1.66,2.69-2.56s1.7-2,2.6-3c.27-.29.85-.62,1.13-.51,2.17.82,4.75-.35,6.19-2.35-.58.36-1.15.75-1.74,1.07a7.56,7.56,0,0,1-1.95.88c-.94.18-1.93.16-2.21-1.13a4.87,4.87,0,0,0-.5-.93c-3.33,6.5-8.07,10.46-15.87,9.69l.71-1.4c-.2-.06-.33-.13-.35-.1-1.46,1.6-3,1.46-4.87.6-1.7-.79-3.52-1.67-5.55-.93l6.94,2.15,0,.4a9.25,9.25,0,0,1-5.32,1.11c-5.51-.71-7.86-5.42-8.26-9.73a1.61,1.61,0,0,1,.89-1.23c2.31-.66,4.12-2.12,6.08-3.41,3.16-2.06,6.53-3.83,10.39-4.24a6.38,6.38,0,0,0,5.76-4.12A66.51,66.51,0,0,1,226,203.64c1.26-1.79,1.25-1.8,3.38-1l-.56-1.07c0-.09.06-.21.13-.25,1.62-1,3.21-2.14,5.3-2a3.69,3.69,0,0,1,3.79,2.85c.57,2.19.94,4.44,1.39,6.65a9.87,9.87,0,0,1,.23-1.58,5.37,5.37,0,0,1,.68-1.14c.3.29.78.54.85.88.38,1.92.65,3.85,1,5.69a8.09,8.09,0,0,0-.22-5.8,3.94,3.94,0,0,0-2-1.7,35.71,35.71,0,0,0-1.61-4.06,4.81,4.81,0,0,0-1.89-1.93c-.78-.41-1-.82-.79-1.57a3.36,3.36,0,0,0,.19-.91c-.15-1.75.08-3.34,2-4.29l-.35-.26-1.62,1-.58-2.25-.29.06c0,2.16.05,4.32,0,6.48,0,.43-.56,1.2-.88,1.21-2.19.07-4,1.13-5.72,2.2a4.88,4.88,0,0,1-.75.28l.23-3.27-.35-.06c-.1.58-.24,1.15-.29,1.73-.21,2.56-2.22,4.13-3.35,6.18-1.88,3.42-4,6.72-5.65,10.25-1,2.08-2.2,3.16-4.36,3.39-4.81.52-8.87,2.75-12.73,5.49a19.06,19.06,0,0,1-8.1,3.1c-.14,0-.31-.13-.91-.4,2.09-1.52,3.88-3,5.8-4.18,1.73-1.09,3.7-1.82,5.39-3a9.44,9.44,0,0,0,2.49-3.1,9.35,9.35,0,0,0-1.84,1.34,10.09,10.09,0,0,1-5.1,3.6c-2.94.79-4.88,2.92-7,4.88A7.51,7.51,0,0,1,184,229c-3-.92-4.63-3.84-4.65-7.34l2.76,2.73.1-.1a45.55,45.55,0,0,1-2.73-4c-1.18-2.18-.8-4.62-.62-7,0-.52,1.19-1.25,1.91-1.38a8.18,8.18,0,0,1,6.35,1,4.57,4.57,0,0,1,1,1,9.15,9.15,0,0,0,1.68,2l-1.48-3.2,2-1.29c-.27-.11-.43-.23-.49-.2-1.66,1.1-3.27.43-4.94,0a6.7,6.7,0,0,0-5.11.48,3.11,3.11,0,0,1-.94.12c0-2.17,0-4.27,0-6.36.06-2.27.37-4.55.26-6.82a14.57,14.57,0,0,1,1-7,11.84,11.84,0,0,1,2.21-2.63,7.53,7.53,0,0,1,1-.83l-.3-.4-3.52,2.64a9.17,9.17,0,0,1-.21-1.76,55,55,0,0,1,.61-5.88c.72-3.76,3.88-5.83,7.72-5.55.83.06,1.74-.88,2.48-1.64l-3.89,1a4.18,4.18,0,0,1-1.06.16,5.15,5.15,0,0,0-4.12,2.22,2.27,2.27,0,0,1-1.11.81c0-2.36,0-4.71,0-7.07,0-2.55,1.49-4.3,3.45-5.75a4.53,4.53,0,0,0-3.45,2.79l-.39,0c0-1,0-1.91,0-2.86a7.36,7.36,0,0,1,1.94-4.75,3.4,3.4,0,0,1,5.09-.14c.79.8,1.53,1.65,2.32,2.44a5.44,5.44,0,0,1,1.83,3.9,1.18,1.18,0,0,0,.6.93l-.12-2.64a20.29,20.29,0,0,1,2.48.77c.74.36,1.39.9,2.17,1.24a5.32,5.32,0,0,0-3.12-2.42,4.83,4.83,0,0,1-3-2.07,10.91,10.91,0,0,0-3.06-2.91c-2-1.42-4.17-2-6.3.44-.56-2.18-.05-4,.32-5.77.45-2.18,2.38-2.59,3.93-3.56a5,5,0,0,0-4.1,1.68c-.37-2.56,1.91-4.93,4.73-5.1a8.4,8.4,0,0,1,5.13,1.29,26.54,26.54,0,0,0,4.43,1.77c-.14-.47-.14-.6-.19-.63a64.28,64.28,0,0,0-6.35-2.86,8.14,8.14,0,0,0-5.89.61c-.38.17-.76.32-1.14.47l-.31-.39,1.91-2-.09-.19-1.88.67c0-3.45,3.21-6,7-5.85a11.48,11.48,0,0,1,7.53,2.84,21.92,21.92,0,0,0,1.81,1.36l.25-.23-1.77-2.1.07-.41a23.48,23.48,0,0,1,3.86.37,11.55,11.55,0,0,1,6.76,4.62,27,27,0,0,0,2.93,3.13c.16.16.46.18,1,.38l-4.14-5c4.64.53,7.8,3.3,10.81,6s5.58,6.05,8.4,9.17c1.15-.51,1.52.79,2.16,1.44,2.9,2.92,4,6.73,5.16,10.52a22.74,22.74,0,0,0,1,2.39l.31-.13-1.58-4.9.32-.14a13.39,13.39,0,0,1,2.8,5.47c.48,2.45.75,4.95,2.12,6.92-1.2-1.11-2.49-2.24-3.68-3.46-.34-.35-.35-1-.58-1.48a2.81,2.81,0,0,0-1.06-1.28ZM191.18,218a11.64,11.64,0,0,0,5.52-3.78,26.06,26.06,0,0,1,3.21-3.59c2.88-2.61,7.52-2.75,9.81,0,.11.13.35.16.53.24-1.37-1.85-2.91-3.33-5.43-3-2.26.27-2.19.22-2.69-2-.38-1.66-.06-3,1.42-3.81,3-1.67,4.13-4.56,5-7.64a11,11,0,0,1,2.56-4.92,10.7,10.7,0,0,0,1.46-3.06,37.47,37.47,0,0,0-3.13,4.07,8,8,0,0,0-1,2.05c-1.08,3.47-2,6.93-5.36,9.16a4.53,4.53,0,0,1-6.6-1.37,12.06,12.06,0,0,0-1-1.32c0,1.76,1.89,2.73.83,4.23-.79,1.12-1.79,2.1-2.61,3.05,1.44-.07,2.07-.58,3.22-2.56.23-.4.73-.91,1.09-.91,2.32,0,3.2.95,3.44,3.29a3.39,3.39,0,0,1-.72,3c-1.75,1.77-3.46,3.59-5.27,5.31C194.12,215.63,192.71,216.7,191.18,218Zm37.38-5.91c0,4.09-1.89,7.31-4.52,10.13-1.47,1.56-3.32,2.79-4.75,4.38a8.14,8.14,0,0,1-7.06,2.59c-2.27-.14-4.55-.31-6.83-.35-.49,0-1,.43-1.5.67l.12.18,3.83-.58-1.59,2.3.45.41a9,9,0,0,1,1-1.35c.4-.39.92-.94,1.38-.93,1.92,0,3.84.21,5.82.35l-1.24,1.9.28.19a32.56,32.56,0,0,1,2.36-2.34c1.73-1.4,3.63-2.61,5.29-4.1a29.31,29.31,0,0,0,4.77-5.07,4.54,4.54,0,0,1,4.12-2.23c2,0,2.72-.4,2.76,2.31,0,0,.12.07.41.22,0-.77.05-1.45.1-2.13a3.72,3.72,0,0,1,.21-1.16c.52-1.13,1.16-2.2,1.63-3.35.33-.82.83-1.42,1.66-1.22a2.44,2.44,0,0,1,1.51,1.21,6.91,6.91,0,0,1-.14,5,12,12,0,0,0-.37,1.46l.35.08a11.68,11.68,0,0,0,1-6.15,2.23,2.23,0,0,0-2.4-2.2c-.34,0-.67.1-1.17.17l.21-4.43c-.33.08-.42.14-.42.21,0,.27,0,.54-.06.81a16.85,16.85,0,0,1-2.11,7.69c-.18.32-.53.74-.84.77-1.58.15-3.17.2-4.75.28C228.67,216,229.4,214.1,228.56,212.08Zm.14-18c.9-1.13,1.32-.67,1.62.06s.55,1.52.82,2.29l.41-.11c-.21-.81-.37-1.65-.65-2.43a21,21,0,0,1-1.08-2.45c-.33-1.51-.37-3.09-.7-4.6a9,9,0,0,0-2.9-4.9,1.86,1.86,0,0,0-2.76.16,4,4,0,0,0-.49.92,11.49,11.49,0,0,1-1.39-2.57c-.33-.73-.74-1.44-1.08-2.17s-.6-1.59-1-2.35-.79-1.3-1.18-2l-.26.21,2.17,5.37h-3.51a5.72,5.72,0,0,0-4.22-4.37c4.33,2.43,3.92,6.64,4.17,10.63a4.56,4.56,0,0,0,.45-1.59,27.86,27.86,0,0,1,.37-3.32c.27-1.15,1-1.36,2-.66a8.47,8.47,0,0,1,3.3,4.8,67.74,67.74,0,0,1,1.61,8.73,41.27,41.27,0,0,1,0,5.32c1.19-1.67,1-3.81.68-5.92-.51-3-1.21-6-1.68-9a2.78,2.78,0,0,1,.72-2c.19-.22,1.16.05,1.64.33a3.3,3.3,0,0,1,1.28,1.34C228.63,187,229.74,190.14,228.7,194.08Zm-16.6-14.24.32-.19c-.34-2.42-2.07-3.66-4.06-4.72-.45-.24-1.13-.76-1.1-1.1a12,12,0,0,0-1.18-5.43c-.28-.74-.06-1.28.76-1.38a7.73,7.73,0,0,1,2.39-.11,8.63,8.63,0,0,1,5.18,3.37,6.07,6.07,0,0,0,.68.66,1.74,1.74,0,0,0-.34-1.16c-1.75-2.59-5.22-4.42-7.44-3.58a2.55,2.55,0,0,1-3.42-1,3.17,3.17,0,0,0-.52-.63c-1-.82-1.85-1.88-3.6-2,.58.51.93.85,1.31,1.13,2.42,1.76,4.37,3.83,4.9,6.92.16.88.3,1.76.49,2.64.27,1.16-.14,1.72-1.34,2a61,61,0,0,0-6.37,1.57,4.85,4.85,0,0,0-2.89,2.55,30.49,30.49,0,0,1,4.5-2.48,18.74,18.74,0,0,1,6.38-1.44,5.82,5.82,0,0,1,4.78,3.3Zm6.53,24.58a4.68,4.68,0,0,0,.18-.78c0-.36-.06-.72-.06-1.08a3,3,0,0,1,.09-1.25A21.32,21.32,0,0,0,221,190.78a5.38,5.38,0,0,0-.24-1,3.34,3.34,0,0,0-.4,1.5c-.41,2.61-.69,5.26-1.31,7.82a4.81,4.81,0,0,1-6.55,3.28l.3-3.47-.42-.13c-.59,2.46-.55,5.26-3.22,6.72a11.56,11.56,0,0,0,2.32-1.5,4.43,4.43,0,0,1,1.58-.82c.95-.18,1.95-.09,2.91-.25C217.86,202.59,217.85,202.55,218.63,204.42ZM183.31,195l.1.42a3.42,3.42,0,0,0,1-.35c.73-.59,1.39-1.27,2.13-1.86a4.75,4.75,0,0,1,4.41-1,3,3,0,0,0,2.89-.38,2.15,2.15,0,0,1,3.12.32c1,1,1.83,2.14,2.76,3.23A6.44,6.44,0,0,0,197,191a2.62,2.62,0,0,1-.86-1.58A10.45,10.45,0,0,0,193.6,184c.36,1.28,1,2.46,1.33,3.71.24.81.48,2.1.06,2.52a3.65,3.65,0,0,1-3.61,1.33,5.24,5.24,0,0,0-4.64.7C185.55,193.13,184.45,194.1,183.31,195Zm38.78-29.53.41,0-.2-2.88c2.41,1,3.72,2.88,5.21,4.56a8,8,0,0,0-3.68-4.49,10.56,10.56,0,0,1-1.86-1.47c-.67-.64-1.21-1.41-1.89-2-2.26-2-4.89-3.69-6.26-6.56,0-.06-.21,0-.43-.11.5,2.9,2.65,4.32,4.7,5.82,1.61,1.18,3.4,2.22,3.64,4.52C221.82,163.72,222,164.6,222.09,165.48Zm-23.45-8.83.06-.45a10.52,10.52,0,0,0-2-.29c-2.23.1-4.31-.17-6-1.83a4.82,4.82,0,0,0-1.45-1,21.62,21.62,0,0,0-2.36-.76l-.1.29,4.22,2.49c-1.77,1.19-2.65-.92-4.29-.62l2.48,1.57-2.38,1.78.15.44c3.31-2.53,6.59-3.43,9.82.27l.11-.44-.83-1.49Zm12.88,5.3A4.51,4.51,0,0,0,209,159.4a5.29,5.29,0,0,1-1.56-1.13c-1.68-1.78-3.27-3.65-5-5.39a14,14,0,0,0-2.4-1.62c-.14.41-.11.56,0,.63a25.25,25.25,0,0,1,7,7.32,1.89,1.89,0,0,0,.7.61C208.93,160.52,210.16,161.19,211.52,162Zm-.66-3.48c4.28-.2,5.91,3.42,8.43,5.77A12.55,12.55,0,0,0,214,158.3a4.64,4.64,0,0,1-1.46-1.4,9.67,9.67,0,0,0-3.32-3.5c1.11,1.6,2.06,2.95,3.06,4.4Zm-11-10.76c-3.11.43-5.34-1.3-7.84-2.18a7.37,7.37,0,0,0,5.07,2.7,11,11,0,0,1,6.53,3.05s.13-.06.35-.16c-1.43-1.83-3.81-2.85-4.15-5.52l-.46.28Zm26.46,30.35.17.06.59-1.58,1,.1-3.11-7.2-.58.24a23.23,23.23,0,0,1,1.66,4A24.55,24.55,0,0,1,226.33,178.06Zm2.59-.41-.37.11c.71,3.21,1.4,6.43,3.68,9Zm-10.09-9.3-.38.28,4.2,7.13.51-.31C221.5,173.22,220.9,170.34,218.83,168.35Zm17.4,20.92c.17-1.94-1.53-5.77-2.5-6.11ZM230,175l.46-.32c-1.22-1.48-1.23-3.65-2.66-5l-.42.24Zm-44,28.73c2.45-1.87,2.63-2.8.69-3.88C188.14,201.49,186.75,202.51,186,203.71ZM184.13,145l3.76.2A2.49,2.49,0,0,0,184.13,145Z"/><path class="cls-2" d="M113.33,199.08c.11-1.82.3-3.64.32-5.45a23.92,23.92,0,0,1,3.28-11.95c.94,3-1.63,5.31-1.07,8.13l1.32-3.6c.11-.29.24-.58.35-.87a5.94,5.94,0,0,0,.45-3,14.12,14.12,0,0,1,1.34-7.73c.93-1.9,2.18-3.64,3.28-5.45l.3.16-1,3c.52-.2.7-.21.74-.29,1.7-3.24,3.28-6.55,5.11-9.72a9,9,0,0,1,3.08-3.27c2.33-1.32,3.84-3.46,5.84-5.08,1.73-1.41,3.6-2.65,5.46-3.9.27-.18.79,0,1.54.06,2.28-2.37,5.56-3.71,9.17-4.7v1.21c4-3.27,8.6-2.27,13.27-2.29-.28-.26-.38-.37-.49-.46a5.09,5.09,0,0,0-.42-.3c4.62-3.21,10-1.06,11,4.38,0,.24,0,.71-.09.73a1.6,1.6,0,0,1-1,0c-2.18-1-4.17-.36-6.15.47l0,.41a4.68,4.68,0,0,0,1.26-.16,8.27,8.27,0,0,1,5-.2,1.11,1.11,0,0,1,.65.42c1.11,1.75,1.78,3.59,1,5.75l-1.72-1.19-.38.23c2.6,2.36,2.57,5.22,1.85,8.47-1.73-2.19-4.13-2.59-6.41-3a8.12,8.12,0,0,0-8.11,3.15c-1,1.26-1.7,2.77-2.74,4a15.19,15.19,0,0,1-2.8,2.2,11.47,11.47,0,0,1-1.48.76l.2.48,3.8-1.59,1.36,3.45.41-.17a18.36,18.36,0,0,1-.73-3.23,6,6,0,0,1,.53-2.79,17.34,17.34,0,0,1,1.91-2.6c3-4.06,10-3.62,12.66-.82a6.62,6.62,0,0,1,1.66,4.72c-1-.22-2.07-.81-2.7-.51a13.27,13.27,0,0,0-2.9,2.49c-.37.35-.68.78-1.21,1.39l-1.22-3-.33.09a12.6,12.6,0,0,1,.6,2.85,11.63,11.63,0,0,1-.73,2.72c.34,0,.49,0,.5-.05.61-2.19,2.78-3.12,4-4.86a2.67,2.67,0,0,1,2.14-1,2.3,2.3,0,0,1,1.89,2.13c.5,2.95.43,8.29-.24,10.53a16.66,16.66,0,0,0-1.95-1.58,14.35,14.35,0,0,0-2.16-.93l-.2.42a7.65,7.65,0,0,0,.88.5,5.32,5.32,0,0,1,3.78,5.58c0,1.49.06,3,0,4.47,0,.43-.44.85-.79,1.48,1.68,2.29.38,5.21.4,8,0,2-.21,4-.27,6,0,1.76,0,3.52,0,5.28,0,2.17-.74,2.68-2.86,2.36-2.83-.44-5.62-.3-8.13,1.41a21.43,21.43,0,0,1,3.55-.76c1.67-.09,3.35.1,5,.17a2.9,2.9,0,0,0,.51,0,1.92,1.92,0,0,1,2.31,2.08c-.09,2.67.1,5.44-.56,8-1.21,4.66-5.05,7.49-10,6.18-1.51-.4-2.86-1.68-4.08-2.78-2.51-2.24-4.89-4.63-7.32-7-2.74-2.66-6.23-3.64-9.81-4.45a5.25,5.25,0,0,0-1.12.1c.53.3.75.52,1,.55,5.41.83,9.45,3.93,13,7.87,1.22,1.37,2.3,2.87,3.45,4.31l.45-.32a11.54,11.54,0,0,1-1.74-.71c-2.74-1.64-5.39-3.45-8.21-4.94a65.9,65.9,0,0,0-6.47-2.56,18.29,18.29,0,0,1-2.16-1c-2.3-1.28-4.92-2.25-6.79-4-2.31-2.18-4-5-5.93-7.6a23.12,23.12,0,0,0-1.68-2.42c-2.87-2.86-3.28-6.36-2.71-10.42a3.82,3.82,0,0,0-1,3.43c.08,1.1.28,2.2.44,3.39-1.8-.5-3.51-.95-5.2-1.46-.22-.07-.43-.46-.48-.73a11.75,11.75,0,0,1,.19-6.25,3.61,3.61,0,0,1,2.89-2.49v4.88l.41.06a7.2,7.2,0,0,0,.23-1.35,20,20,0,0,1,1.17-7.52c.2-.54.54-1,.78-1.56s1.15-1.21.34-2.08c-.09-.1.1-.49.19-.74,1.22-3.59,2.54-7.12,5.51-9.72.11-.1.13-.3.32-.77l-2,.75,2.19-3.14c-.44.14-.81.13-.91.29-.67,1.08-1.3,2.18-1.92,3.29s-1.2,2.17-1.77,3.27a22.58,22.58,0,0,0-2.52,7.28,13.17,13.17,0,0,1-.79,2c-.49,1.47-.91,3-1.38,4.54l-1.54.2a12.86,12.86,0,0,1,1.32-8.14l-.47-.15c-.48,1.18-1,2.35-1.43,3.54a4.35,4.35,0,0,0-.33,1.72c.27,3.12-1.46,5.83-1.74,8.82a12.57,12.57,0,0,0,.1,2.67c.12,1.05-.31,1.47-1.19,2.13-2.55,1.91-5.85,3.11-6.91,6.64-.54-2.89.91-5.29,1.61-8l1.1.64c-.35.72-.7,1.45-1.13,2.32,1.7-.52,1.69-3.36,3.75-2.51.66-1.9,1.28-3.84,2-5.73a5.58,5.58,0,0,0-.07-3.45l-1.53,2.73.78.05a12.43,12.43,0,0,0-.9,2.63C116.12,197.06,114.78,198.08,113.33,199.08Zm53.26,7.52c-.75-1.43-2.58-2.07-4.7-1.57a2.11,2.11,0,0,1-1.56-.07,18.28,18.28,0,0,1-2.8-2.9,4.25,4.25,0,0,0-4.91-1.54,2.89,2.89,0,0,1-3-1,12.64,12.64,0,0,1-1.6-1.83c-1.29-1.93-2.56-3.78-1.61-6.42.56-1.58,1-3.14,2.25-4.31a7.89,7.89,0,0,0,.87-1l-.29-.26a6.5,6.5,0,0,0-2.83,3,28,28,0,0,0-.84,3.39c-.2.87-.57,1.21-1.53.92a16.77,16.77,0,0,0-2.56-.35l-.06.41a2.29,2.29,0,0,0,.59.2,4.47,4.47,0,0,1,4,2.81,9.5,9.5,0,0,0,4.12,4.84,1,1,0,0,1,.5.6c.3,1.92.56,3.84.83,5.77-4.22,1.07-5.95,3-7,5.16.82-.7,1.37-1.2,2-1.66,4.57-3.5,6.31-3.71,9.16.92a1.11,1.11,0,0,1,0,.23l-3.53,1.05.1.31a11.24,11.24,0,0,1,2.59-.48,11.85,11.85,0,0,1,3.6.64c.75.28,1.29,1.08,1.93,1.65l2.48,2.21.25-.22a15.79,15.79,0,0,0-1.19-1.71c-2.33-2.51-5.91-3.68-7.56-6.94-2.55-1.24-2.24-3.74-2.56-5.93-.13-.9.38-1.38,1.47-1.41a4.34,4.34,0,0,1,3.72,1.45,26.84,26.84,0,0,0,2.38,2.39c.6.55.88,1.05.4,1.86a4,4,0,0,0-.28,1.42l.37.2c.47-1.45,1.1-2.91,2.77-2.81A22.91,22.91,0,0,1,166.59,206.6Zm-24.21-6.94-.34-.08a6.22,6.22,0,0,0-.25.68,4,4,0,0,1-6.58,2,20.76,20.76,0,0,1-3.55-3.83,7.78,7.78,0,0,1-1.63-5.57,24.67,24.67,0,0,1,.79-4.75,36.26,36.26,0,0,1,3-5.81c.24-.39,1.2-.56,1.77-.47.27.05.48.92.59,1.45.18.87.26,1.77.38,2.65h.5c-.25-3.52-.58-7,1.8-10.08a4.62,4.62,0,0,0-2.52,3.63c-.29,1.56-1.17,1.4-2.24,1.33-.86-3.37.6-6,2.51-8.44a1.25,1.25,0,0,0-.74.21,7.21,7.21,0,0,0-2.71,6.69c.46,2.75-1.84,4-2.5,6.11l-1.49-3.89-1.8,2c2-.2,2.44,1.12,2.54,2.63a17,17,0,0,1-.12,3.49c-.33,2.41-.82,4.79-1.15,7.19a11.05,11.05,0,0,0,.17,2.28l.47,0,.18-2c1.38,1.74,2.66,3.62,4.21,5.23a5,5,0,0,0,6.56.9c1.36-.85,2.25-1,3.18.37a3.62,3.62,0,0,0,.5-.12l-1.79-2.32Zm14.33-23c-1.61-2-3.86-2.35-6.2-2.36-1.46,0-1.93-.56-1.4-2a14.75,14.75,0,0,1,.52-1.67,19.38,19.38,0,0,1,2.53-4.48,56.74,56.74,0,0,1,5.59-4.73c-2.89.73-4.79,2.94-6.76,4.5-.72-.59-1.27-1.38-2-1.59-1.44-.41-4.47,1.26-5.36,2.9a30.05,30.05,0,0,1,3.43-1.88c.62-.25,1.68-.35,2.05,0a2.61,2.61,0,0,1,.5,2.13,34.45,34.45,0,0,1-1.72,5.65,8.75,8.75,0,0,1-2.12,2.87,14.22,14.22,0,0,0-3.75,5,3.76,3.76,0,0,0-.13.9l.35.14a11.75,11.75,0,0,1,5.79-6.47C151.07,174.22,153.87,175.59,156.71,176.62Zm-21.76-7,.5.53c4.11-5.75,9.14-10,16.49-10.66-2.2-.68-4.16.39-6.52.6a30.53,30.53,0,0,1,9.64-6.27,5.65,5.65,0,0,0-2.51.33,22.9,22.9,0,0,0-7.63,5.2c-.55.58-1,1.28-1.57,1.83-2.19,2-4.45,4-6.61,6A16.21,16.21,0,0,0,135,169.58Zm36.72-23.35.09-.34c-.92-.08-1.84-.24-2.76-.24a50.28,50.28,0,0,0-5.21.15,53.9,53.9,0,0,0-6.33.91c-1.23.27-2.29.87-3.69.73-2.71-.28-5.14.94-7.52,2.1-.77.38-1.52.82-2.28,1.23l.25.49,1.53-.69a30.36,30.36,0,0,1,3.2-1.43c1.87-.58,3.71-1.8,5.78-.56.12.08.42-.08.61-.19,2.53-1.45,5.35-1.69,8.16-1.9a10,10,0,0,1,1.56.19l-2.5,3.1c1.49-.93,2.64-2.31,4.1-2.91S170,146.41,171.67,146.23Zm-16.25,44.11.35.42a2.05,2.05,0,0,0,.7-.21c1.28-1.07,2.34-.83,3.27.46a1.57,1.57,0,0,0,.48.48c1.48.81,3,2.21,4.47,2.23,1.85,0,3.74-.78,5.68,0-1.4-1.44-3-1.17-4.64-.76-.49.12-1.16.3-1.52.08-1.62-1-3.19-2.16-4.73-3.32a1.49,1.49,0,0,1-.48-2.14c.83-1.3,1.71-2.56,2.58-3.83.18-.26.39-.49.82-1a5.42,5.42,0,0,0-3.45,3.07C158,187.44,157.87,189.68,155.42,190.34ZM145.69,154l-.2-.28a12.9,12.9,0,0,0-4.43,3c-1,1.06-1.69,2.6-2.89,3.27a30.49,30.49,0,0,0-5.75,4.37,15.12,15.12,0,0,0-1.27,1.49l.17.07,9.49-6.59-.82-.58Zm-10.46,4.93-.23-.24a18.29,18.29,0,0,0-5.89,5.82,13.58,13.58,0,0,1-1.88,2.21c-1,1-2,2-3,3l.27.27,6.78-5.48-1.59-.07Zm35.21-3.43,0-.59a12.84,12.84,0,0,0-3.43-.16c-1.53.32-3,.62-4.45-.08a2.78,2.78,0,0,0-1.08,0l0,.24,2,.79-1.69,1.64.27.4A11,11,0,0,1,170.44,155.46ZM120.7,180.88c1.14-1.73,2.37-3.37,3.32-5.16a13.72,13.72,0,0,0,.75-3.49c-1.29,2.22-2.37,4.06-3.43,5.92a6.19,6.19,0,0,0-.62,1.48A5.27,5.27,0,0,0,120.7,180.88Zm47,17.29h-.4l-.22,1.71c-1.47-1.05-1.47-1.05-2.16-.75l3.73,4Z"/><path class="cls-2" d="M117.23,226c.25-.18.46-.32.65-.48,0,0,0-.08,0-.08-3.45-1.84-5.81-4.38-6.26-8.48a41,41,0,0,0-1.3-5.22,2.77,2.77,0,0,1-.19-1.3c.88-2.78,1.65-5.62,4-7.66a4.74,4.74,0,0,1,.72-.35v3.07h.4c0-.58.09-1.15.15-1.73a4.46,4.46,0,0,1,5.65-3.88,11,11,0,0,1,7.22,5.11,87.27,87.27,0,0,0,6.4,8.76,14.93,14.93,0,0,0,6.18,4.21c3.32,1.26,6.69,2.43,9.89,3.94a70.06,70.06,0,0,1,6.31,3.9,25.21,25.21,0,0,0,3.09,1.62,1.46,1.46,0,0,1,1,1.54,11.86,11.86,0,0,1-2.71,7.32,5.25,5.25,0,0,1-3,1.53,25.49,25.49,0,0,1-5.1.36,7.1,7.1,0,0,1-2.13-.73,14,14,0,0,1,8-5.56l-.2-.45-5,1.72-3.15-4.85h4.66l0-.53a20.89,20.89,0,0,0-4.09-.2c-1.67.24-3.19.76-4.91-.09-2.25-1.1-4.77-1.1-7.24-1.27a2.32,2.32,0,0,1-1.65-1,18,18,0,0,0-6-6.59,5.42,5.42,0,0,1-1.4-2,12.62,12.62,0,0,1-.65-1.94l-.41.1.38,2.24a7.86,7.86,0,0,1-5.36-3.07,9.62,9.62,0,0,0-5.46-3.44c-.55-.11-.88-1.45-1.24-2.25a3.06,3.06,0,0,1-.1-1.06l-.44,0a8.08,8.08,0,0,0,.33,2.79,2.32,2.32,0,0,1-.26,2.57,10,10,0,0,0-.48,1.28l-.37-.74-.44.14,1,3.26.33-.08a17.21,17.21,0,0,1,.44-3.23c.53-1.62.86-2.44,2.61-1.29a26.35,26.35,0,0,1,3.84,3.24c.25.25,0,1-.07,1.3a26,26,0,0,1,4.09,1.12,19.51,19.51,0,0,1,10,10.21,8.52,8.52,0,0,0,4.13,4.22l-3.43-4.77.27-.51c2.28.43,4.57.84,6.85,1.29,1.31.27,2.45,1,3.91,1.05s2.2,1.76,2.62,3.16c.86,2.85-.63,4.59-3.76,4.67l-2.1-2.63-.36.24,1.62,2.48a14.6,14.6,0,0,1-3.6,0,72.67,72.67,0,0,1-8.91-3,8.1,8.1,0,0,1-4.82-5.78c-.36-1.53-.74-3.06-1.15-4.58a3,3,0,0,0-.72-1.33c.82,4.1.6,8.6,4.52,11.56a8.11,8.11,0,0,1-5-2.19,2.87,2.87,0,0,0-1-.72C121,230.35,119.06,228.32,117.23,226Zm-.64-10.73c-.36,5.51.11,10.71,6.08,13.29a6.44,6.44,0,0,0,3.68.51.68.68,0,0,0-.48-.31c-5.05-1.2-8-4.31-8.79-9.48C116.88,218,116.75,216.63,116.59,215.29Z"/><path class="cls-3" d="M191.18,218c1.53-1.29,2.94-2.36,4.21-3.56,1.81-1.72,3.52-3.54,5.27-5.31a3.39,3.39,0,0,0,.72-3c-.24-2.34-1.12-3.27-3.44-3.29-.36,0-.86.51-1.09.91-1.15,2-1.78,2.49-3.22,2.56.82-1,1.82-1.93,2.61-3.05,1.06-1.5-.87-2.47-.83-4.23a12.06,12.06,0,0,1,1,1.32,4.53,4.53,0,0,0,6.6,1.37c3.32-2.23,4.28-5.69,5.36-9.16a8,8,0,0,1,1-2.05,37.47,37.47,0,0,1,3.13-4.07,10.7,10.7,0,0,1-1.46,3.06,11,11,0,0,0-2.56,4.92c-.85,3.08-1.93,6-5,7.64-1.48.82-1.8,2.15-1.42,3.81.5,2.25.43,2.3,2.69,2,2.52-.31,4.06,1.17,5.43,3-.18-.08-.42-.11-.53-.24-2.29-2.77-6.93-2.63-9.81,0a26.06,26.06,0,0,0-3.21,3.59A11.64,11.64,0,0,1,191.18,218Z"/><path class="cls-3" d="M228.56,212.08c.84,2,.11,3.9-.46,5.72,1.58-.08,3.17-.13,4.75-.28.31,0,.66-.45.84-.77a16.85,16.85,0,0,0,2.11-7.69c0-.27,0-.54.06-.81,0-.07.09-.13.42-.21l-.21,4.43c.5-.07.83-.14,1.17-.17a2.23,2.23,0,0,1,2.4,2.2,11.68,11.68,0,0,1-1,6.15l-.35-.08a12,12,0,0,1,.37-1.46,6.91,6.91,0,0,0,.14-5,2.44,2.44,0,0,0-1.51-1.21c-.83-.2-1.33.4-1.66,1.22-.47,1.15-1.11,2.22-1.63,3.35a3.72,3.72,0,0,0-.21,1.16c-.05.68-.07,1.36-.1,2.13-.29-.15-.41-.18-.41-.22,0-2.71-.73-2.27-2.76-2.31a4.54,4.54,0,0,0-4.12,2.23,29.31,29.31,0,0,1-4.77,5.07c-1.66,1.49-3.56,2.7-5.29,4.1a32.56,32.56,0,0,0-2.36,2.34l-.28-.19,1.24-1.9c-2-.14-3.9-.34-5.82-.35-.46,0-1,.54-1.38.93a9,9,0,0,0-1,1.35l-.45-.41,1.59-2.3-3.83.58-.12-.18c.5-.24,1-.68,1.5-.67,2.28,0,4.56.21,6.83.35a8.14,8.14,0,0,0,7.06-2.59c1.43-1.59,3.28-2.82,4.75-4.38C226.67,219.39,228.54,216.17,228.56,212.08Z"/><path class="cls-3" d="M228.7,194.08c1-3.94-.07-7.1-1.6-10.16a3.3,3.3,0,0,0-1.28-1.34c-.48-.28-1.45-.55-1.64-.33a2.78,2.78,0,0,0-.72,2c.47,3,1.17,6,1.68,9,.36,2.11.51,4.25-.68,5.92a41.27,41.27,0,0,0,0-5.32,67.74,67.74,0,0,0-1.61-8.73,8.47,8.47,0,0,0-3.3-4.8c-1-.7-1.73-.49-2,.66a27.86,27.86,0,0,0-.37,3.32,4.56,4.56,0,0,1-.45,1.59c-.25-4,.16-8.2-4.17-10.63a5.72,5.72,0,0,1,4.22,4.37h3.51l-2.17-5.37.26-.21c.39.65.84,1.27,1.18,2s.63,1.58,1,2.35.75,1.44,1.08,2.17A11.49,11.49,0,0,0,223,183a4,4,0,0,1,.49-.92,1.86,1.86,0,0,1,2.76-.16,9,9,0,0,1,2.9,4.9c.33,1.51.37,3.09.7,4.6a21,21,0,0,0,1.08,2.45c.28.78.44,1.62.65,2.43l-.41.11c-.27-.77-.51-1.55-.82-2.29S229.6,193,228.7,194.08Z"/><path class="cls-3" d="M212.1,179.84l-.57-1.11a5.82,5.82,0,0,0-4.78-3.3,18.74,18.74,0,0,0-6.38,1.44,30.49,30.49,0,0,0-4.5,2.48,4.85,4.85,0,0,1,2.89-2.55,61,61,0,0,1,6.37-1.57c1.2-.24,1.61-.8,1.34-2-.19-.88-.33-1.76-.49-2.64-.53-3.09-2.48-5.16-4.9-6.92-.38-.28-.73-.62-1.31-1.13,1.75.11,2.61,1.17,3.6,2a3.17,3.17,0,0,1,.52.63,2.55,2.55,0,0,0,3.42,1c2.22-.84,5.69,1,7.44,3.58a1.74,1.74,0,0,1,.34,1.16,6.07,6.07,0,0,1-.68-.66,8.63,8.63,0,0,0-5.18-3.37,7.73,7.73,0,0,0-2.39.11c-.82.1-1,.64-.76,1.38a12,12,0,0,1,1.18,5.43c0,.34.65.86,1.1,1.1,2,1.06,3.72,2.3,4.06,4.72Z"/><path class="cls-3" d="M218.63,204.42c-.78-1.87-.77-1.83-2.7-1.51-1,.16-2,.07-2.91.25a4.43,4.43,0,0,0-1.58.82,11.56,11.56,0,0,1-2.32,1.5c2.67-1.46,2.63-4.26,3.22-6.72l.42.13-.3,3.47a4.81,4.81,0,0,0,6.55-3.28c.62-2.56.9-5.21,1.31-7.82a3.34,3.34,0,0,1,.4-1.5,5.38,5.38,0,0,1,.24,1,21.32,21.32,0,0,1-2.12,10.53,3,3,0,0,0-.09,1.25c0,.36.06.72.06,1.08A4.68,4.68,0,0,1,218.63,204.42Z"/><path class="cls-3" d="M183.31,195c1.14-.91,2.24-1.88,3.43-2.73a5.24,5.24,0,0,1,4.64-.7,3.65,3.65,0,0,0,3.61-1.33c.42-.42.18-1.71-.06-2.52-.36-1.25-1-2.43-1.33-3.71a10.45,10.45,0,0,1,2.54,5.43A2.62,2.62,0,0,0,197,191a6.44,6.44,0,0,1,2.71,4.34c-.93-1.09-1.81-2.2-2.76-3.23a2.15,2.15,0,0,0-3.12-.32,3,3,0,0,1-2.89.38,4.75,4.75,0,0,0-4.41,1c-.74.59-1.4,1.27-2.13,1.86a3.42,3.42,0,0,1-1,.35Z"/><path class="cls-3" d="M222.09,165.48c-.13-.88-.27-1.76-.36-2.65-.24-2.3-2-3.34-3.64-4.52-2.05-1.5-4.2-2.92-4.7-5.82.22.06.39,0,.43.11,1.37,2.87,4,4.53,6.26,6.56.68.61,1.22,1.38,1.89,2a10.56,10.56,0,0,0,1.86,1.47,8,8,0,0,1,3.68,4.49c-1.49-1.68-2.8-3.54-5.21-4.56l.2,2.88Z"/><path class="cls-3" d="M198.64,156.65h-2.56l.83,1.49-.11.44c-3.23-3.7-6.51-2.8-9.82-.27l-.15-.44,2.38-1.78-2.48-1.57c1.64-.3,2.52,1.81,4.29.62l-4.22-2.49.1-.29a21.62,21.62,0,0,1,2.36.76,4.82,4.82,0,0,1,1.45,1c1.7,1.66,3.78,1.93,6,1.83a10.52,10.52,0,0,1,2,.29Z"/><path class="cls-3" d="M211.52,162c-1.36-.76-2.59-1.43-3.8-2.13a1.89,1.89,0,0,1-.7-.61,25.25,25.25,0,0,0-7-7.32c-.09-.07-.12-.22,0-.63a14,14,0,0,1,2.4,1.62c1.72,1.74,3.31,3.61,5,5.39A5.29,5.29,0,0,0,209,159.4,4.51,4.51,0,0,1,211.52,162Z"/><path class="cls-3" d="M210.86,158.47l1.43-.67c-1-1.45-1.95-2.8-3.06-4.4a9.67,9.67,0,0,1,3.32,3.5,4.64,4.64,0,0,0,1.46,1.4,12.55,12.55,0,0,1,5.28,5.94C216.77,161.89,215.14,158.27,210.86,158.47Z"/><path class="cls-3" d="M199.87,147.71l-.5-1.83.46-.28c.34,2.67,2.72,3.69,4.15,5.52-.22.1-.33.18-.35.16a11,11,0,0,0-6.53-3.05,7.37,7.37,0,0,1-5.07-2.7C194.53,146.41,196.76,148.14,199.87,147.71Z"/><path class="cls-3" d="M226.33,178.06a24.55,24.55,0,0,0-.27-4.39,23.23,23.23,0,0,0-1.66-4l.58-.24,3.11,7.2-1-.1-.59,1.58Z"/><path class="cls-3" d="M228.92,177.65l3.31,9.12c-2.28-2.58-3-5.8-3.68-9Z"/><path class="cls-3" d="M218.83,168.35c2.07,2,2.67,4.87,4.33,7.1l-.51.31-4.2-7.13Z"/><path class="cls-3" d="M236.23,189.27l-2.5-6.11C234.7,183.5,236.4,187.33,236.23,189.27Z"/><path class="cls-3" d="M230,175l-2.62-5.09.42-.24c1.43,1.36,1.44,3.53,2.66,5Z"/><path class="cls-3" d="M186,203.71c.72-1.2,2.11-2.22.69-3.88C188.66,200.91,188.48,201.84,186,203.71Z"/><path class="cls-3" d="M184.13,145a2.49,2.49,0,0,1,3.76.2Z"/><path class="cls-3" d="M166.59,206.6a22.91,22.91,0,0,0-4-.92c-1.67-.1-2.3,1.36-2.77,2.81l-.37-.2a4,4,0,0,1,.28-1.42c.48-.81.2-1.31-.4-1.86a26.84,26.84,0,0,1-2.38-2.39,4.34,4.34,0,0,0-3.72-1.45c-1.09,0-1.6.51-1.47,1.41.32,2.19,0,4.69,2.56,5.93,1.65,3.26,5.23,4.43,7.56,6.94a15.79,15.79,0,0,1,1.19,1.71l-.25.22-2.48-2.21c-.64-.57-1.18-1.37-1.93-1.65a11.85,11.85,0,0,0-3.6-.64,11.24,11.24,0,0,0-2.59.48l-.1-.31,3.53-1.05a1.11,1.11,0,0,0,0-.23c-2.85-4.63-4.59-4.42-9.16-.92-.59.46-1.14,1-2,1.66,1.07-2.21,2.8-4.09,7-5.16-.27-1.93-.53-3.85-.83-5.77a1,1,0,0,0-.5-.6,9.5,9.5,0,0,1-4.12-4.84,4.47,4.47,0,0,0-4-2.81,2.29,2.29,0,0,1-.59-.2l.06-.41a16.77,16.77,0,0,1,2.56.35c1,.29,1.33,0,1.53-.92a28,28,0,0,1,.84-3.39,6.5,6.5,0,0,1,2.83-3l.29.26a7.89,7.89,0,0,1-.87,1c-1.3,1.17-1.69,2.73-2.25,4.31-.95,2.64.32,4.49,1.61,6.42a12.64,12.64,0,0,0,1.6,1.83,2.89,2.89,0,0,0,3,1,4.25,4.25,0,0,1,4.91,1.54,18.28,18.28,0,0,0,2.8,2.9,2.11,2.11,0,0,0,1.56.07C164,204.53,165.84,205.17,166.59,206.6Z"/><path class="cls-3" d="M142.38,199.66l-.27,1.46,1.79,2.32a3.62,3.62,0,0,1-.5.12c-.93-1.39-1.82-1.22-3.18-.37a5,5,0,0,1-6.56-.9c-1.55-1.61-2.83-3.49-4.21-5.23l-.18,2-.47,0a11.05,11.05,0,0,1-.17-2.28c.33-2.4.82-4.78,1.15-7.19a17,17,0,0,0,.12-3.49c-.1-1.51-.57-2.83-2.54-2.63l1.8-2,1.49,3.89c.66-2.09,3-3.36,2.5-6.11a7.21,7.21,0,0,1,2.71-6.69,1.25,1.25,0,0,1,.74-.21c-1.91,2.49-3.37,5.07-2.51,8.44,1.07.07,1.95.23,2.24-1.33a4.62,4.62,0,0,1,2.52-3.63c-2.38,3-2,6.56-1.8,10.08h-.5c-.12-.88-.2-1.78-.38-2.65-.11-.53-.32-1.4-.59-1.45-.57-.09-1.53.08-1.77.47a36.26,36.26,0,0,0-3,5.81,24.67,24.67,0,0,0-.79,4.75,7.78,7.78,0,0,0,1.63,5.57,20.76,20.76,0,0,0,3.55,3.83,4,4,0,0,0,6.58-2,6.22,6.22,0,0,1,.25-.68Z"/><path class="cls-3" d="M156.71,176.62c-2.84-1-5.64-2.4-8.67-1a11.75,11.75,0,0,0-5.79,6.47l-.35-.14a3.76,3.76,0,0,1,.13-.9,14.22,14.22,0,0,1,3.75-5,8.75,8.75,0,0,0,2.12-2.87,34.45,34.45,0,0,0,1.72-5.65,2.61,2.61,0,0,0-.5-2.13c-.37-.35-1.43-.25-2.05,0a30.05,30.05,0,0,0-3.43,1.88c.89-1.64,3.92-3.31,5.36-2.9.72.21,1.27,1,2,1.59,2-1.56,3.87-3.77,6.76-4.5a56.74,56.74,0,0,0-5.59,4.73,19.38,19.38,0,0,0-2.53,4.48,14.75,14.75,0,0,0-.52,1.67c-.53,1.4-.06,2,1.4,2C152.85,174.27,155.1,174.67,156.71,176.62Z"/><path class="cls-3" d="M135,169.58a16.21,16.21,0,0,1,1.79-2.43c2.16-2.05,4.42-4,6.61-6,.59-.55,1-1.25,1.57-1.83a22.9,22.9,0,0,1,7.63-5.2,5.65,5.65,0,0,1,2.51-.33,30.53,30.53,0,0,0-9.64,6.27c2.36-.21,4.32-1.28,6.52-.6-7.35.64-12.38,4.91-16.49,10.66Z"/><path class="cls-3" d="M171.67,146.23c-1.68.18-3.5,0-5,.64s-2.61,2-4.1,2.91l2.5-3.1a10,10,0,0,0-1.56-.19c-2.81.21-5.63.45-8.16,1.9-.19.11-.49.27-.61.19-2.07-1.24-3.91,0-5.78.56a30.36,30.36,0,0,0-3.2,1.43l-1.53.69-.25-.49c.76-.41,1.51-.85,2.28-1.23,2.38-1.16,4.81-2.38,7.52-2.1,1.4.14,2.46-.46,3.69-.73a53.9,53.9,0,0,1,6.33-.91,50.28,50.28,0,0,1,5.21-.15c.92,0,1.84.16,2.76.24Z"/><path class="cls-3" d="M155.42,190.34c2.45-.66,2.58-2.9,3.53-4.58a5.42,5.42,0,0,1,3.45-3.07c-.43.54-.64.77-.82,1-.87,1.27-1.75,2.53-2.58,3.83a1.49,1.49,0,0,0,.48,2.14c1.54,1.16,3.11,2.29,4.73,3.32.36.22,1,0,1.52-.08,1.64-.41,3.24-.68,4.64.76-1.94-.75-3.83.06-5.68,0-1.51,0-3-1.42-4.47-2.23a1.57,1.57,0,0,1-.48-.48c-.93-1.29-2-1.53-3.27-.46a2.05,2.05,0,0,1-.7.21Z"/><path class="cls-3" d="M145.69,154,140,158.7l.82.58-9.49,6.59-.17-.07a15.12,15.12,0,0,1,1.27-1.49,30.49,30.49,0,0,1,5.75-4.37c1.2-.67,1.88-2.21,2.89-3.27a12.9,12.9,0,0,1,4.43-3Z"/><path class="cls-3" d="M135.23,158.89l-5.55,5.53,1.59.07L124.49,170l-.27-.27c1-1,2-2,3-3a13.58,13.58,0,0,0,1.88-2.21,18.29,18.29,0,0,1,5.89-5.82Z"/><path class="cls-3" d="M113.33,199.08c1.45-1,2.79-2,3-4a12.43,12.43,0,0,1,.9-2.63l-.78-.05,1.53-2.73a5.58,5.58,0,0,1,.07,3.45c-.75,1.89-1.37,3.83-2,5.73-2.06-.85-2,2-3.75,2.51.43-.87.78-1.6,1.13-2.32Z"/><path class="cls-3" d="M170.44,155.46a11,11,0,0,0-8.38,2.22l-.27-.4,1.69-1.64-2-.79,0-.24a2.78,2.78,0,0,1,1.08,0c1.49.7,2.92.4,4.45.08a12.84,12.84,0,0,1,3.43.16Z"/><path class="cls-3" d="M120.7,180.88a5.27,5.27,0,0,1,0-1.25,6.19,6.19,0,0,1,.62-1.48c1.06-1.86,2.14-3.7,3.43-5.92a13.72,13.72,0,0,1-.75,3.49C123.07,177.51,121.84,179.15,120.7,180.88Z"/><path class="cls-3" d="M167.74,198.17l.95,5-3.73-4c.69-.3.69-.3,2.16.75l.22-1.71Z"/><path class="cls-3" d="M116.59,215.29c.16,1.34.29,2.68.49,4,.75,5.17,3.74,8.28,8.79,9.48a.68.68,0,0,1,.48.31,6.44,6.44,0,0,1-3.68-.51C116.7,226,116.23,220.8,116.59,215.29Z"/></svg>