<svg id="visual" viewBox="0 0 900 600" width="900" height="600" xmlns="http://www.w3.org/2000/svg" xmlns:xlink="http://www.w3.org/1999/xlink" version="1.1"><rect x="0" y="0" width="900" height="600" fill="#F7CACA"></rect><g fill="#FCAF3C"><circle r="58" cx="303" cy="205"></circle><circle r="15" cx="283" cy="474"></circle><circle r="56" cx="622" cy="311"></circle><circle r="39" cx="298" cy="323"></circle><circle r="37" cx="487" cy="388"></circle><circle r="51" cx="660" cy="497"></circle><circle r="17" cx="102" cy="125"></circle><circle r="50" cx="153" cy="253"></circle><circle r="52" cx="29" cy="513"></circle><circle r="14" cx="186" cy="5"></circle><circle r="16" cx="529" cy="500"></circle><circle r="20" cx="404" cy="63"></circle><circle r="42" cx="170" cy="453"></circle><circle r="44" cx="24" cy="8"></circle><circle r="20" cx="787" cy="96"></circle><circle r="17" cx="595" cy="83"></circle><circle r="32" cx="708" cy="192"></circle><circle r="46" cx="884" cy="409"></circle><circle r="50" cx="876" cy="172"></circle><circle r="29" cx="784" cy="539"></circle><circle r="37" cx="898" cy="542"></circle><circle r="55" cx="455" cy="212"></circle><circle r="53" cx="773" cy="368"></circle><circle r="29" cx="15" cy="267"></circle><circle r="15" cx="251" cy="592"></circle><circle r="40" cx="384" cy="575"></circle><circle r="48" cx="877" cy="21"></circle><circle r="55" cx="70" cy="374"></circle><circle r="14" cx="132" cy="574"></circle><circle r="37" cx="285" cy="67"></circle><circle r="44" cx="700" cy="14"></circle><circle r="22" cx="506" cy="9"></circle><circle r="38" cx="877" cy="291"></circle><circle r="51" cx="578" cy="202"></circle></g></svg>