<svg id="Layer_1" data-name="Layer 1" xmlns="http://www.w3.org/2000/svg" viewBox="0 0 100 100"><defs><style>.cls-1{fill:#fff;stroke:#000;stroke-miterlimit:10;}</style></defs><path class="cls-1" d="M8.15,51.5a163.3,163.3,0,0,1,16.57-11L27,39.25A54.11,54.11,0,0,1,38.29,34c1-.33,2-.64,3.05-.91a39.14,39.14,0,0,1,10.86-.7c1.19.09,2.37.22,3.55.39C67.5,35.5,79.5,40.5,89.6,48.89c1.16,1.16,2.14,2.23,2.93,3.14C94.12,53.85,95,55,95,55A55.41,55.41,0,0,1,82.55,67.31a21.27,21.27,0,0,1-2.32,1.46C68.5,71.5,55.5,76.5,42.51,71.58c-.95-.35-1.9-.71-2.85-1.1C22.69,63.59,8.15,51.5,8.15,51.5Z"/></svg>