<svg id="Layer_1" data-name="Layer 1" xmlns="http://www.w3.org/2000/svg" viewBox="0 0 100 100">
  <defs>
    <style>
      .cls-1 {
        fill: #fff;
        stroke: #000;
        stroke-miterlimit: 10;
      }
    </style>
  </defs>
  <path id="head1" class="cls-1"
    d="M28.6,4.17a73.37,73.37,0,0,0-18.15,16A20.68,20.68,0,0,0,8,24.07c-3.8,12.38-4.87,27,1.36,38.38a15.63,15.63,0,0,0,4.46,4.89A113,113,0,0,1,29.12,80.43a43.67,43.67,0,0,0,3.49,3.32,45.63,45.63,0,0,0,3.77,2.91A50.41,50.41,0,0,0,61,98.8q2.68.49,5.42.74c6.47.29,14.13,1.71,19.11-2.56,8-6.94,8.72-18.87,9.31-29.14q.08-3,0-6c.92-14.22-1.29-31.3-11.59-41.58a31.2,31.2,0,0,0-4.26-3.53c-1.53-1.26-3.12-2.41-4.8-3.6Q72.23,11.52,70,10c-1.48-1-3-2-4.57-2.92C55.82,1.38,43.36-2.89,32.92,2.43Z" />
</svg>