<svg id="Layer_1" data-name="Layer 1" xmlns="http://www.w3.org/2000/svg" viewBox="0 0 1024 768"><defs><style>.cls-1{fill:none;stroke:#fff;stroke-linecap:round;stroke-linejoin:round;stroke-width:2.77px;}.cls-2{fill:#fff;}</style></defs><g id="buff"><path d="M558.19,116.18c-43.73,2-84.48,12-120,25.66-12.69,4.89-24.79,12.27-37.72,16.58-20.64,6.88-40.46,11.49-60.85,15.89-10.49,2.27-27.27,7.79-38.37,6.47-12.37-1.47-16.85.51-28.19,2.81-10.71,2.17-21.74,9-34.56,8.4-30.91-1.51-53.6,10-66.33,18.2-14.76,9.47-21.43,24.12-25.2,58.14-2.88,14-16.36,42.88-18.37,57-3.06,21.37,1.81,55.83,1.81,81.1,0,6.64-13.27,21.3-1.61,27,7,3.42,43.06-46.08,44.67-86.93.81-20.34-19.59-53.19-16.52-74.1,1.81-12.34-.83-17.27,8.06-32.57a76,76,0,0,1,9.21-6.42c.33,0-14.8,13.49-7.57,64.82,2.13,27.69,28.79,90.46,23.63,111.12-5,20.13-21.09,22.22-31.32,35.85-3,8.75-12.82,47.36-15.49,58-2.3,9.19-15,35.71-25.59,53.73-9.12,2.33-16.22,16.07-15.51,17.49,1.62,3.24,9.23-2.47,11,1,.48,1-3,2.66-3.41,3.52-2.34,5.46-9.75,20.61,12.73,33.93,20.64,12.23,22.15-11.32,21.76-11.12s-2.31-18.33,6.3-42.35c3.52-9.82,7.23-23.46,15.92-38,8.05-13.41,20.58-27,30.29-39.1,6.41-4.18,16.12-14.8,16.12-13,0,3.94-2.87,15.08-3.3,22.53s1.61,11.22,4.46,15.68c9.12,9,10.71,14.41,17.5,28.77,12,16.78,19.05,38.39,28.34,57,8,11.85,3.63,19.28,8.45,23.89,6.57,6.28,19.2,14.73,28.68,14.34,20.56-.86,20.18-5.08,19.75-12.22-1.43-8.28-9-12.08-20.77-23.29-10.61-10.1-19.79-25.17-24.27-35.23-13.2-32.61-10.9-55.93-7.12-82.33,3-21-4.38-39.85,6.31-71.08,3.75-2.41,9.42-4.89,11.83-4.09,5.52,7.41,14.38,17.91,15.26,18.88,1.52,1.68,19.81,23.54,33.74,35.63,6.77,5.88,2.68,13.95,9.58,20.85,4.09,4.09,10.63,8.61,16.43,9.35,14.42,1.83,2.49-9.31-1.52-23.34-.76-2.64.32-8.71,2.07-7.88,14.24,6.78,75.2,5.09,114.84.47,24.86,6.58,47.58,15.11,45.32,16.41C508.3,479.5,484,503.3,484,515.1a60.81,60.81,0,0,0,.93,11c1.32,6.58,2.77,13.17,3.7,14.33,9.25,11.68,2.52,18.55,16.63,26.61,5,2.87,10.57-3.5,13.82-.25,4.59,4.59-16.46,41.71-11.89,56.81,1.12,3.71,20.7,13.58,21.15,13.62,22.43,2.25,29.51-1.17,31.74-5.63,1.73-3.46-12.33-15.71-15-25.15-4.24-14.91-1.12-26.51-.71-32.67,4-5,4.16-4.94,11.44-15.14,4.66-6.53,7.44-15.26,5.84-23.25,0-.14,10.6,2.48,10.61,2.63.72,6.55,9.54,13.83,13.24,9.3,8.34,11,15.27,8.17,27.06,14.06,4.82,2.41,27.06,18.36,33.26,11,2.51-.42,5.5,3,6.68,6.56,8.22,23,2.26,24,1,32.07-1.06,6.56,5.33,6.94,7,12,2.63,7.89-.71,15.14,9.06,24.2,5.72,5.3,13.54,4.45,20,6.61,2.41.81,21.15.59,24.08-1.37,5.4-3.59-1-20.37-2.26-24.79-1.71-6-16.57-18.89-16.57-23.73,0-20.72-22.53-29.8-25.4-50.31.72-6.31,4.87-26.93-6-41.42,0,0,27.07.83,30.61-9.29,5,3.29,4.24,7.7,15.57,5.71,9.08-1.6,12.53.26,19.36,7.09,22.91,22.91,34.34,49.43,61,67.23,4.75,3.16,21.41,4.69,24,4.12,20.29-4.4,11.55-17,3.54-25.22-3.13-3.22,3.12-5.05,4.48-7.78,8.36.36,26.74-8.91,33.82-16.85,12.3-13.79,4-18.91,6.07-29.66,2.32-17.83,7.61-15.81,9-25.77,1.11-7.73-2.7-12.74-1-19.66,2-7.85,7.2-7,11-10,3.66-6.72,8.85-15.17,15.36-21.68,2.3-2.3,2.21-7.89,4.2-11.22,9-15,2-17,2-31.43,0-13.23,17.9,2.68,6.07-21-2.09-4.18,3.38-8.21,2.45-11.82-4.47-17.37-35.91-29.55-36.28-29.55s-2.2-22.19-10.73-21.55c-3.44,0,3.12,15.23.37,21.37-16.6-.17-61.18-19.66-66-22.89-13.69-9.13-24-18.25-32.61-32.62-10.15-16.9-9.21-35.73-14.56-52.27-12.31-38.06-28.62-70.21-80.68-83.22-13.58-3.4-32.2-2-45.16-5.88C607.45,122.94,584.92,115,558.19,116.18Z"/></g><g id="Layer_1-2" data-name="Layer 1"><path class="cls-1" d="M135.34,439.77c0-14.63,8.95-27.09,11.25-40.93.68-4.1,1.62-23.62,3.07-22.17"/><path class="cls-1" d="M120.08,424.69c-1-1,3.38-14.56,4.13-17.42,4.57-17.35,17-31.84,17-50.19"/><path class="cls-1" d="M127.19,374.73c-4-7.9,2.58-40.23,6.88-48.82,2-4.05,9.62-8.91,9.62-13.3"/><path class="cls-1" d="M148.28,443.49c2.18-10.93,2.52-28.2,7.56-38.28"/><path class="cls-1" d="M124.9,439.36s2.61-9.16,3.89-13.75c2.46-8.76,5-19.46,10.32-26.82"/><path class="cls-1" d="M125.81,382.29c3.82-9.15,6.82-23.53,12.38-30.94"/><path class="cls-1" d="M155.61,403.61c1.29-6.46,4.38-13,3.67-19.72-1-9.23-9.76-27.14-2.29-34.6"/><path class="cls-1" d="M127.42,321.78c-.69-9.67,12.22-18.72,18.1-25.44"/><path class="cls-1" d="M151.71,323.84c-3,6.64-8.94,21.37-8.94,28.43"/><path class="cls-1" d="M794.84,329.09c-1.6,0,2,.73,3.4,2.88,2.39,3.75,3.26,9.27,3.93,13.61,1.45,9.42-5.1,25-3.4,30.1"/><path class="cls-1" d="M811.86,345.58c5.79,21.74-2.1,27.06-2.1,47.9"/><path class="cls-1" d="M825.73,359.45c15,10-10.17,34,2.36,44.76"/><path class="cls-1" d="M829.92,345.58c28.17,28.18,1.62,44.63,18.06,65.18"/><path class="cls-1" d="M853.22,365.74c5,9.76,4.37,41.93,7.59,44.23"/><path class="cls-1" d="M861.59,358.14c15,13.35,16,28.44,16,47.65,0,9-2.17,21.57,8.9,24.34"/><path class="cls-1" d="M877,358.93c9.08,9.91,12.61,17,13.35,30.63.41,7.69-3.07,21.87,5,26.7"/><path class="cls-1" d="M866.57,340.87c13.95,5.58,21.62,29,29,32.72"/><path class="cls-1" d="M867.09,330.92c11.58,2.76,24.23,7.77,33.24,16,3.91,3.55,5.1,8.84,9.43,12.3"/><path class="cls-1" d="M810,318.36c8.24,1.37,28.94,6.92,33.76,13.35"/><path class="cls-1" d="M813.17,330.66c9.49-2.11,20.07,11.22,29.84,12.3"/><path class="cls-1" d="M739.09,517.82c6.61,5.29,6.76,11.22,1.83,17.8"/><path class="cls-1" d="M753,524.89c9.42,8.82,7,18.44,1.83,28.79"/><path class="cls-1" d="M769.45,547.4c6.72,5-1.79,15.65-2.62,21.46"/><path class="cls-1" d="M781,561c-1,7.84-5,15.69-.26,22.77"/><path class="cls-1" d="M783.59,572.53c8.42,4,11,7.74,9.16,17"/><path class="cls-1" d="M796.15,573.05c7.69,4.33,8.06,12.81,6.81,20.94"/><path class="cls-1" d="M806.88,568.08c8.48,5.81,15.9,13.57,12,25.13"/><path class="cls-1" d="M809,578.81c2.74,6.87,3.2,9.07.78,15.71"/><path class="cls-1" d="M812.9,561.27c8.41,5.22,14.58,7.8,12.83,18.32"/><path class="cls-1" d="M795.89,550.54a81,81,0,0,0,7.85,14.4"/><path class="cls-1" d="M790.65,560.22c2.9,4.19,1.59,2.26,3.93,5.76"/><path class="cls-1" d="M816,436.2c0-1.26-8.78-3.12-10-4.5-2.87-3.19-3.25-8.06-5.94-11.55-5.2-6.76-23.89-11.29-29.88-3.31"/><path class="cls-1" d="M811.44,437.3c-14.64-2.44-17.34-17.47-34.63-8.83"/><path class="cls-1" d="M782.67,431c4.27,6,8.74,13.28,17.74,9.68"/><path class="cls-1" d="M790.78,432.55c1.46.13-1.89,1.21-.13,3.14,1.08,1.19,4,1.27,4.92-.17C797.78,432.2,789.33,432.42,790.78,432.55Z"/><path class="cls-1" d="M804.48,445.19c-6.5,1.19-12.33,2.48-19.09.43-1.92-.58-8.06-7-8.83-6.62"/><path class="cls-1" d="M860.89,505.75V506"/><path class="cls-1" d="M860.89,506c1.91-1.92-5.41.21-8.11.21-5.29,0-10.13-.53-15.41,0-12,1.19-52.42,10.32-44.53,28.72"/><path class="cls-1" d="M846.53,532c0-3.58-11.95.9-13.32.63-5.35-1.07-.41-8.07-5.62-9.37-7.45-1.86-7,23.91,12.07,14.36"/><path class="cls-2" d="M771.39,308.4c0,.11,7.6-8,3.49-8.56-10.56-1.51-26.42,18.81-31.6,26.1-17.27,24.32-30.6,66.86,11.84,74.81,10.91,2.05,29.62-21,18.8-21.45-13.73-.53-24.25-21.92-23.88-28.63.72-12.93,5.9-21.4,13.11-31.49C764.44,317.37,771.39,308.3,771.39,308.4Z"/><path class="cls-1" d="M477,518.7c6.56-11.48,20.81-10.64,29.29-19.12"/><path class="cls-1" d="M478.56,536.27c2.79-8.37,9.31-15.11,18.5-15.11"/><path class="cls-1" d="M487.2,545.52A159.57,159.57,0,0,1,500.76,535"/><path class="cls-1" d="M491.82,565.56c9.34,3.12,14-6.24,19.73-12"/><path class="cls-1" d="M488.12,554.16c4.47-2.35,9.21-5.23,14.18-6.48"/><path class="cls-1" d="M653.2,160c-12.42-12.42-24.08-17.49-42.26-12.94"/><path class="cls-1" d="M617.41,161.3c-17.87-6.59-10.57-6-21.13-6"/><path class="cls-1" d="M606.63,175.53c-17.44-4.47-11.64-6.9-18.55-3.45"/><path class="cls-1" d="M623.45,215.2c-10.71-8-4-4.91-21.13-6.46"/><path class="cls-1" d="M615.68,243.24l-13.8-.44"/><path class="cls-1" d="M738.16,240.65c-13.28-9-6.44-7.13-19.84-7.76"/><path class="cls-1" d="M719.61,216.5C703.62,209,708.85,206,702.8,210"/><path class="cls-1" d="M623.88,265.66l-10.35,2.59"/><path class="cls-1" d="M630.35,294.55,614,295"/><path class="cls-1" d="M722.2,269.54c-8.57-4.76-16.58,1.63-22.42,8.19"/><path class="cls-1" d="M684.68,260.48H668.73"/><path class="cls-1" d="M664.41,218.65c-10-3.16-5.63-3.86-13.36,0"/><path class="cls-1" d="M638.54,186.31c-13.16-5.9-8.85-8.35-14.23-4.31"/><path class="cls-1" d="M661.4,282.91c-13.8,4.9-11.88.26-13.8,6"/><path class="cls-1" d="M646.3,319.14c-8.73,0-1-.29-18.11,14.66"/><path class="cls-1" d="M678.65,323c-9.32,7.09-7.36,3.5-9.49,7.76"/><path class="cls-1" d="M642.85,351.48l-2.58,5.6"/><path class="cls-1" d="M696.76,171.65c-2-7.92.33-4.45-9.06-8.63"/><path class="cls-1" d="M674.33,188.9l-13.8-5.18"/><path class="cls-1" d="M588.58,554a91.79,91.79,0,0,0-2.15-18.64,34.93,34.93,0,0,1-.36-3.95"/><path class="cls-1" d="M606.51,567.3c0-8.46.2-17.32-2.52-25.45"/><path class="cls-1" d="M621.2,569.45c-.68-4.24-2.51-10.15-2.51-14.7"/><path class="cls-1" d="M636.62,575.55c-2.16-4.31-4.66-8.78-4.66-13.63"/></g></svg>