<?xml version="1.0" standalone="no"?>
<!DOCTYPE svg PUBLIC "-//W3C//DTD SVG 20010904//EN"
 "http://www.w3.org/TR/2001/REC-SVG-20010904/DTD/svg10.dtd">
<svg version="1.0" xmlns="http://www.w3.org/2000/svg"
 width="1280.000000pt" height="1037.000000pt" viewBox="0 0 1280.000000 1037.000000"
 preserveAspectRatio="xMidYMid meet">
<metadata>
Created by potrace 1.15, written by Peter Selinger 2001-2017
</metadata>
<g transform="translate(0.000000,1037.000000) scale(0.100000,-0.100000)"
fill="#000000" stroke="none">
<path d="M11497 10297 c-237 -241 -327 -435 -327 -708 0 -107 8 -147 70 -359
27 -91 56 -203 64 -250 15 -80 35 -260 29 -260 -1 0 -19 30 -39 68 -21 37 -87
152 -148 257 -132 229 -186 341 -220 459 -41 142 -75 184 -159 193 -49 6 -134
-11 -181 -34 -71 -36 -191 -186 -262 -326 -56 -110 -81 -267 -64 -413 14 -132
40 -215 112 -358 72 -143 142 -313 163 -393 8 -32 20 -132 25 -223 11 -185 46
-466 89 -733 l29 -178 -30 -89 c-26 -80 -34 -93 -81 -132 -96 -81 -174 -137
-313 -224 -275 -172 -468 -337 -566 -484 -58 -87 -63 -93 -54 -64 35 116 58
470 37 589 -7 38 -24 93 -38 123 -35 74 -116 154 -177 175 -27 9 -78 37 -115
61 -92 63 -159 79 -290 74 -97 -4 -113 -8 -181 -40 -142 -69 -231 -171 -354
-410 -111 -214 -173 -402 -297 -908 -79 -319 -136 -522 -178 -629 -51 -128
-98 -180 -276 -303 -471 -326 -645 -655 -659 -1248 -5 -191 -6 -200 -66 -405
-42 -146 -101 -400 -130 -560 -77 -427 -118 -749 -147 -1146 -16 -222 -16
-242 0 -340 17 -102 53 -313 123 -719 20 -113 39 -226 43 -253 5 -26 10 -49
12 -51 5 -5 272 75 474 142 601 200 997 364 1510 626 325 166 444 235 461 267
7 15 27 130 44 255 86 651 186 1030 369 1394 142 281 182 332 675 850 449 472
569 591 781 780 272 241 337 319 424 501 55 115 102 271 156 514 56 250 82
350 131 492 95 279 152 374 320 528 323 299 437 422 493 532 l21 42 -30 758
c-16 417 -32 848 -36 958 -5 156 -12 225 -31 315 -73 346 -164 767 -169 783
-4 12 -16 17 -38 17 -19 0 -39 6 -45 14 -7 8 -49 24 -94 36 -77 21 -126 22
-182 5 -31 -9 -98 45 -126 102 -20 40 -24 63 -24 138 0 50 2 106 5 124 l5 35
-225 53 c-124 29 -229 52 -233 53 -5 0 -41 -33 -80 -73z m-1973 -4731 c-3 -15
-8 -25 -11 -23 -2 3 -1 17 3 31 3 15 8 25 11 23 2 -3 1 -17 -3 -31z m-20 -70
c-3 -15 -8 -25 -11 -23 -2 3 -1 17 3 31 3 15 8 25 11 23 2 -3 1 -17 -3 -31z"/>
<path d="M840 9949 c-136 -16 -155 -47 -175 -286 -16 -186 -34 -333 -42 -333
-3 0 -28 20 -55 44 -28 25 -80 59 -117 78 -56 28 -75 33 -136 33 -61 -1 -80
-6 -141 -38 l-72 -36 -6 -148 c-9 -182 -21 -309 -46 -478 -43 -293 -45 -317
-44 -660 0 -248 6 -420 22 -635 50 -668 79 -952 104 -1030 40 -125 135 -226
437 -463 86 -67 192 -158 237 -202 71 -71 89 -95 148 -213 97 -191 147 -328
320 -870 104 -324 234 -493 579 -750 226 -168 308 -238 572 -482 121 -112 308
-280 415 -375 378 -333 534 -524 699 -854 34 -66 79 -165 100 -219 98 -246
209 -649 281 -1022 23 -118 43 -216 45 -218 7 -8 466 -205 639 -274 477 -191
883 -319 1405 -443 328 -78 362 -83 396 -61 72 47 149 304 176 590 15 159 7
546 -15 736 -56 474 -231 1200 -398 1650 -89 240 -97 272 -113 433 -41 430
-143 682 -370 913 -104 105 -209 186 -374 284 -168 101 -222 147 -271 230 -66
110 -123 256 -255 655 -175 530 -241 689 -395 950 -87 147 -194 257 -301 309
-99 47 -158 58 -256 46 -106 -12 -172 -34 -230 -74 -26 -19 -79 -53 -117 -77
-94 -57 -138 -99 -168 -162 -79 -161 -57 -473 62 -857 44 -141 137 -403 189
-528 17 -40 26 -70 22 -67 -21 12 -158 381 -225 605 -60 197 -236 356 -641
576 -208 112 -295 165 -374 227 -51 40 -60 52 -90 129 -27 72 -32 94 -27 135
19 147 38 478 45 773 10 384 8 375 126 670 88 219 99 268 99 430 0 109 -4 150
-22 213 -26 92 -77 197 -124 254 -18 23 -52 66 -75 97 -104 137 -310 198 -403
119 -43 -36 -57 -68 -80 -180 -25 -118 -70 -230 -226 -560 l-119 -252 -3 87
c-4 111 20 293 59 452 63 260 47 482 -48 675 -53 107 -216 303 -314 377 -103
78 -169 94 -309 77z"/>
</g>
</svg>
