<?xml version="1.0" encoding="iso-8859-1"?>
<!-- Generator: Adobe Illustrator 16.0.0, SVG Export Plug-In . SVG Version: 6.00 Build 0)  -->
<!DOCTYPE svg PUBLIC "-//W3C//DTD SVG 1.1//EN" "http://www.w3.org/Graphics/SVG/1.1/DTD/svg11.dtd">
<svg version="1.1" id="Capa_1" xmlns="http://www.w3.org/2000/svg" xmlns:xlink="http://www.w3.org/1999/xlink" x="0px" y="0px"
	 width="380.731px" height="380.731px" viewBox="0 0 380.731 380.731" style="enable-background:new 0 0 380.731 380.731;"
	 xml:space="preserve">
<g>
	<path d="M378.27,174.512c-8.783-3.561-21.691-20.321-35.391-38.051c-24.84-32.23-53.004-68.753-83.352-68.753
		c-40.097,0-61.975,24.353-69.544,34.862c-8.47-9.521-31.644-31.603-64.223-31.603c-25.578,0-56.763,36.611-84.247,68.911
		c-15.871,18.63-30.859,36.227-38.864,38.952c-1.51,0.523-2.55,1.905-2.643,3.485c-0.093,1.586,0.784,3.085,2.237,3.765
		c13.442,6.338,27.222,23.446,43.175,43.245c22.319,27.722,47.625,59.139,81.238,72.035c20.466,7.843,42.46,11.666,67.266,11.666
		c23.731,0,46.725-3.626,64.095-6.763c29.86-5.415,74.511-64.763,101.175-100.234c8.517-11.34,17.336-23.057,19.555-24.486
		c1.289-0.738,2.08-2.167,1.975-3.666C380.629,176.376,379.688,175.069,378.27,174.512z M337.047,186.101
		c-17.742,11.729-62.102,35.599-133.15,38.865c-73.424,3.322-127.648-22.621-150.874-36.401
		c15.812-3.689,29.221-11.125,41.281-17.823c13.675-7.581,25.497-14.134,37.824-14.134c15.244,0,30.267,4.938,42.333,8.911
		c9.684,3.189,17.369,5.688,23.011,5.27c5.077-0.337,11.805-2.324,19.589-4.642c11.84-3.509,26.584-7.877,40.793-7.877
		c10.213,0,23.308,6.083,37.168,12.531C308.779,177.225,322.918,183.801,337.047,186.101z"/>
</g>
<g>
</g>
<g>
</g>
<g>
</g>
<g>
</g>
<g>
</g>
<g>
</g>
<g>
</g>
<g>
</g>
<g>
</g>
<g>
</g>
<g>
</g>
<g>
</g>
<g>
</g>
<g>
</g>
<g>
</g>
</svg>
