<?xml version="1.0" standalone="no"?>
<!DOCTYPE svg PUBLIC "-//W3C//DTD SVG 20010904//EN"
 "http://www.w3.org/TR/2001/REC-SVG-20010904/DTD/svg10.dtd">
<svg version="1.0" xmlns="http://www.w3.org/2000/svg"
 width="1280.000000pt" height="853.000000pt" viewBox="0 0 1280.000000 853.000000"
 preserveAspectRatio="xMidYMid meet">
<metadata>
Created by potrace 1.15, written by Peter Selinger 2001-2017
</metadata>
<g transform="translate(0.000000,853.000000) scale(0.100000,-0.100000)" >
<path d="M9905 7989 c-103 -14 -267 -56 -370 -96 -587 -225 -1040 -735 -1205
-1357 -54 -205 -64 -288 -64 -556 -1 -281 12 -389 74 -636 82 -322 219 -614
403 -859 75 -99 253 -277 330 -329 31 -22 55 -41 53 -43 -2 -2 -29 3 -62 12
-106 27 -220 15 -212 -23 2 -11 11 -16 23 -13 55 11 156 3 225 -18 100 -31
233 -82 226 -88 -2 -3 -52 -24 -110 -48 -163 -66 -276 -138 -276 -176 0 -28
24 -23 61 11 18 16 63 45 99 64 79 42 241 108 248 101 3 -2 -50 -58 -116 -124
-109 -109 -119 -121 -104 -134 25 -21 68 -41 144 -66 l68 -23 -6 -67 c-8 -88
9 -189 46 -261 16 -32 74 -126 128 -208 108 -164 144 -242 163 -347 34 -197
-58 -432 -241 -616 -167 -168 -368 -280 -895 -498 -351 -145 -415 -174 -527
-240 -136 -80 -211 -164 -220 -246 -2 -24 1 -30 17 -30 14 0 21 9 26 33 25
124 192 227 700 436 508 209 704 312 888 467 173 147 301 405 301 608 0 149
-48 268 -206 506 -116 174 -136 226 -135 350 0 47 2 89 5 93 3 5 43 0 88 -10
83 -19 290 -30 304 -16 3 4 -16 69 -45 145 -34 91 -49 146 -45 161 4 15 0 29
-11 42 -10 11 -16 22 -13 25 2 3 58 7 124 9 212 8 392 56 609 161 667 323
1205 1065 1310 1806 19 137 19 399 -1 540 -107 771 -639 1396 -1309 1541 -105
23 -379 32 -490 17z"/>
<path d="M5045 7415 c-511 -95 -933 -528 -1042 -1072 -24 -122 -24 -439 0
-570 78 -412 269 -748 542 -950 l30 -22 -35 10 c-43 12 -132 15 -148 5 -26
-16 -10 -24 46 -23 60 0 138 -19 219 -54 l48 -21 -82 -33 c-87 -35 -159 -79
-177 -107 -19 -31 2 -30 42 2 39 31 213 112 222 103 2 -2 -30 -38 -73 -80 -42
-41 -77 -79 -77 -84 0 -11 31 -27 93 -48 l51 -18 1 -79 c1 -95 14 -127 113
-276 111 -169 139 -268 108 -387 -38 -147 -142 -286 -286 -379 -91 -60 -255
-139 -460 -222 -383 -155 -520 -245 -520 -340 0 -33 19 -23 36 20 32 80 151
152 464 280 479 195 654 315 749 513 51 105 68 196 52 278 -17 85 -41 136
-125 263 -40 61 -79 127 -87 146 -14 36 -19 153 -7 165 3 4 33 1 65 -5 61 -13
187 -19 197 -9 3 3 -10 45 -29 93 -20 48 -33 96 -30 106 3 10 -1 25 -9 33 -22
22 -10 27 70 27 450 0 989 437 1204 977 198 499 117 1021 -220 1413 -128 147
-344 284 -525 331 -107 27 -310 34 -420 14z"/>
<path d="M6967 5519 c-85 -12 -216 -60 -298 -109 -153 -91 -314 -281 -377
-446 -48 -127 -66 -224 -66 -364 1 -317 120 -608 326 -795 l63 -57 -37 7 c-42
8 -92 -1 -84 -14 3 -5 17 -6 31 -3 28 5 91 -9 150 -34 l39 -16 -59 -25 c-69
-29 -135 -75 -116 -81 7 -2 20 3 29 12 24 21 132 69 139 62 3 -3 -15 -27 -41
-52 -25 -26 -46 -50 -46 -55 0 -4 22 -16 48 -25 l49 -18 0 -56 c1 -62 13 -91
75 -183 59 -87 78 -134 78 -199 0 -109 -61 -219 -164 -295 -76 -57 -154 -96
-354 -179 -254 -106 -342 -162 -342 -219 0 -34 7 -31 24 9 21 50 94 94 291
177 213 88 311 137 390 193 106 76 165 176 173 292 5 83 -10 124 -88 244 -70
107 -90 219 -36 206 45 -11 126 -18 141 -13 13 6 12 13 -6 62 -11 30 -22 69
-24 85 -4 30 -3 30 43 30 191 1 452 142 611 331 200 238 294 489 277 746 -24
394 -285 718 -626 779 -84 15 -128 16 -213 3z"/>
<path d="M2495 5199 c-454 -66 -874 -435 -1028 -904 -47 -143 -58 -211 -64
-410 -5 -165 -2 -207 16 -315 48 -282 147 -524 297 -722 60 -80 161 -184 234
-240 l35 -27 -35 9 c-54 15 -136 12 -150 -5 -7 -8 -11 -15 -9 -16 2 0 40 -1
84 -3 63 -2 98 -9 164 -35 l84 -33 -82 -34 c-90 -38 -146 -70 -174 -102 -32
-35 0 -34 47 1 45 35 190 101 208 95 5 -2 -26 -38 -70 -80 -75 -72 -79 -77
-63 -92 10 -9 45 -25 78 -36 l59 -21 -4 -58 c-6 -85 17 -151 94 -266 103 -155
128 -214 132 -312 5 -94 -11 -152 -64 -249 -96 -175 -250 -275 -719 -469 -274
-113 -357 -157 -427 -225 -48 -46 -58 -62 -58 -89 0 -41 21 -37 32 6 19 74
143 147 482 288 441 182 597 283 701 449 67 109 88 182 83 291 -6 107 -26 158
-115 291 -90 133 -105 169 -111 250 -2 39 0 74 5 77 5 3 45 0 89 -8 92 -17
143 -18 164 -6 12 8 8 24 -23 102 -24 61 -33 97 -27 103 6 6 4 16 -6 28 -22
23 -15 25 116 32 134 6 224 32 375 106 434 215 787 689 871 1170 25 144 15
409 -20 548 -153 606 -658 989 -1201 911z"/>
</g>
</svg>
