<svg xmlns="http://www.w3.org/2000/svg" viewBox="0 0 385.29 414.67">
<g id="Ebene_2"   data-name="Ebene 2"><g id="Ebene_1-2" data-name="Ebene 1">
<path   d="M180.93,242.33c-.25,4.22-.36,7.64-.72,11-.1,1-.94,1.91-1.44,2.87-.74-.92-1.92-1.74-2.14-2.77-.77-3.71-1.22-7.5-1.8-11.26-.2-1.24-.45-2.47-.67-3.7l-.92,0c-.48,10.87-1,21.75-1.47,32.9-6.85-2.55-7.45-8.57-8.52-13.63a159.61,159.61,0,0,1-3-23.47c-1.21-19.7-2-39.43-2.92-59.14a9.32,9.32,0,0,0-4.45-8c-7.52-5.09-15.35-8.1-24.52-5.32a4.84,4.84,0,0,1-1.37,0V138.61c1.54.07,2.66.15,3.78.16,10.24.13,20.49.41,30.73.26,2.94-.05,5.85-1.44,8.8-2.06,1.9-.39,3.71-.8,4.7,2,.67,1.86,2.57,1.16,3.46-.15,1.52-2.24,3.63-2.62,6.07-2.8,13.63-1,27.19-2.61,40.4-6.35,2.05-.58,4-1.66,6-2.21,4.17-1.12,5.93-4.12,6-8,.11-8,0-16-.24-24-.1-4.09-.51-8.18-.8-12.41a5.86,5.86,0,0,1,1.37-.31c11.33.19,22.66.33,34,.64,4.27.11,5.12,1.09,5.14,5.34,0,7.32-.07,14.64-.1,22a10.06,10.06,0,0,0,.15,2c.64,3.38,2.29,5,4.85,4.82,3.25-.3,3-3,3.1-5.12.32-8.89.42-17.78.6-26.67,0-1.26,0-2.52,0-4h38.24c0,3.92,0,7.8,0,11.68s0,7.63.19,11.44c.06,1.68-.41,2.49-2.21,2.63a74.14,74.14,0,0,0-8.41,1.11c-.9.17-2.44,1.39-2.35,1.63.49,1.3,1.15,3.08,2.22,3.5,1.73.69,3.83.53,5.78.6,7.68.29,15.37.53,23.39.8-.3,4.43-.54,8.17-.83,12.44-7.88-.37-15.47-.61-23-1.12-3.69-.25-7.35-1-11-1.52-2-.31-3.36-1.25-3.27-3.66a9.61,9.61,0,0,0-.66-4.59c-.72-1.37-2.19-3.1-3.44-3.2s-3.22,1.29-3.94,2.56c-.9,1.59-1,3.71-1.2,5.62-.35,4.07-1.16,5.13-5.19,5-8.4-.26-16.78-.76-25.18-1.12a30.86,30.86,0,0,0-5.85.08c-1.13.18-2.81.92-3.08,1.77-.56,1.78.84,2.88,2.58,3.15,3.46.55,6.93,1.15,10.42,1.44,8.27.68,16.56,1.18,24.84,1.79,1.85.14,3.29.72,3.86,2.89.25.91,1.67,2.23,2.4,2.14a4.85,4.85,0,0,0,3.32-2.07c.85-1.55,1-3.5,1.44-5.43,6.18.68,12.19,1.3,18.18,2,5.81.69,11.61,1.46,17.41,2.22,1.77.24,3.67.45,3.91,2.76s-1.44,3.56-3.23,3.92c-4.56.92-9.2,1.48-13.83,2.1-2.19.29-4.42.38-7.2.62a53.67,53.67,0,0,0,1.71,5.26,317,317,0,0,1,16.08,45.12c.67,2.41,1.12,4.88,1.67,7.33l-.82.33-8-16.05-1.46.49c.7,3.69,1.41,7.38,2.12,11.1-9.71-7.9-13-20.58-22.11-30.22-.73,3.48-1.38,6.22-1.86,9-1.37,7.88-3.08,15.73-2.09,23.82.32,2.61.88,5.19,1.09,7.81.06.84-.64,1.75-1,2.62-.85-.68-2.25-1.24-2.44-2.07a59.76,59.76,0,0,1-1.68-10.34,117.61,117.61,0,0,1,3-32.35c-2.83,2.65-5,1.78-7.29.09C291,163,285.9,159.07,280.5,155.57c-2.81-1.82-6.2-2.74-9.31-4.13a15.36,15.36,0,0,1-3.57-1.93c-2.17-1.79-3.71-1.92-5.34.48-7.12,10.49-17,18.27-26.13,26.77-3.65,3.4-6.34,6.7-6.58,12-.35,7.61-1.48,15.17-1.86,22.77-.77,15.81-1.26,31.64-1.9,47.46-.09,2-.39,4.07-.61,6.29a7.49,7.49,0,0,1-5.72-6c-1.37-6.57-2.72-13.18-3.54-19.83-1-8-1.4-16.11-2.06-24.17L213,215a38.64,38.64,0,0,0-1.17,6.4q-.72,32.25-1.2,64.5a6.12,6.12,0,0,0,.7,2.77c3.2,6.15,6.24,12.39,9.81,18.32a36.74,36.74,0,0,1,4.8,14.55c.93,7,2.68,14,3.61,21,.52,4,.09,8.07.09,12.11l-1.21.29q-1.59-3.49-3.17-7l-.79.13c-.07,1.18-.23,2.37-.2,3.54.06,1.95.34,3.9.33,5.85,0,.65-.57,1.84-.89,1.85a3.32,3.32,0,0,1-2.25-.93,5.33,5.33,0,0,1-.92-2.42c-2.34-11.25-4.64-22.51-7-33.75a43.79,43.79,0,0,0-1.32-4.27l-.9.17c.14,2.23.31,4.45.42,6.68.2,3.89-2.26,7.14-6,7.54a3.72,3.72,0,0,1-2.91-1.42A37.19,37.19,0,0,1,199,323.8,176.33,176.33,0,0,1,193.05,307c-1.73-6.28-3-12.71-4.1-19.13-2.47-13.73-4.74-27.49-7.11-41.23C181.63,245.47,181.34,244.28,180.93,242.33Z"/><path d="M161.8,405.35c.29,3.52.51,6.29.74,9.23a65.71,65.71,0,0,1-7.71-.06c-3.4-.4-7.16-6.82-6.62-11.15a21.67,21.67,0,0,1,1.35-5.05c1.45-3.75,1.55-7.53.84-12.32-3.24,3.31-7.72,3.76-8.92,8.71-1.23,5.14-3.43,10.06-5.24,15.18H12.86c0-1.39,0-2.63,0-3.87A42.63,42.63,0,0,0,9,388.44c-2.24-5.26-4-10.74-6-16.11a10,10,0,0,0-1.53-3.1,4.89,4.89,0,0,1-.32-6.69c3-4.07,6.08-8.13,9.43-11.92,5.31-6,11-11.62,16.24-17.72A74.91,74.91,0,0,0,34,322a82.06,82.06,0,0,0,3.69-8c.92-2,2.29-2.58,4.19-1.3,2.14,1.45,3.73.69,4.85-1.29a27.89,27.89,0,0,0,2.55-5.49c1.45-4.88,2.9-6.23,7.93-6.75,1.75-.18,3.5-.45,5.25-.47,3.64,0,4.56,1.28,3.48,4.74-.29.91-.54,1.83-.66,2.22,3.89,3.07,8.07,5.43,11,8.85,9.7,11.34,18.68,23.26,26,36.31.62,1.09,1,2.34,1.51,3.48,1.49,3.07,2.92,6.17,4.58,9.15,1.88,3.38,4.17,6.54,5.94,10,2.32,4.5,4.2,9.22,6.45,13.76,2.05,4.14,3.51,4.77,7.65,2.91a58.57,58.57,0,0,0,8.81-5.09c7.43-5,14.75-10.23,22.13-15.32a14.44,14.44,0,0,1,2.61-1.3c4.66-1.94,5.88-4.91,4.23-9.7a26.63,26.63,0,0,1-.76-4.86,24.64,24.64,0,0,1,4.39,2.38c3.23,2.69,6.22,5.65,9.42,8.38,1.19,1,1.39,1.94.61,3.21-2.63,4.31-5.22,8.65-7.9,12.93-1.18,1.9-3,3.53-3.69,5.57s-1.14,4.88-.44,6.92a25.48,25.48,0,0,0,8.22,12.19c1.55,1.22,1.07,2.77-.61,3a24.68,24.68,0,0,1-7.62-.3C166,407.72,164.24,406.49,161.8,405.35Z"/><path d="M82.47,277.16c-1-3.28-2.21-7.07-3.65-11.66L38.2,302.93l-.56-.32c.46-1.5.88-3,1.39-4.51,2.51-7.17,5.16-14.3,7.53-21.52A35.37,35.37,0,0,1,55.51,262c2.19-2.14,4.14-4.53,6.21-6.8-.17-.25-.33-.5-.49-.75l-22.48,6.19c-.56.15-1.13.3-1.68.48-2.27.76-4.42,1.28-5.58-1.69-1.1-2.81-.55-4.32,2.49-5.92a177.42,177.42,0,0,0,29.46-19.59,36.75,36.75,0,0,0,3.14-3.22c-.15-.29-.29-.58-.44-.86L36,237.46c-.16-.3-.33-.6-.5-.9,10.5-11.29,23.29-20,35.41-29.93-3.4-2.47-2.85-5.69-2-8.47,1.48-4.81,3-9.78,5.6-14,2.84-4.65,3.54-9.29,3.22-14.49-.46-7.41-.53-14.84-.93-22.26-.13-2.49,1-3.74,3.17-4.11,4.21-.73,8.45-1.43,12.72-1.81,8.25-.74,16.51-1.25,24.78-1.84.57,0,1.14,0,2.58.11.23,8,.5,15.93.65,23.89a5,5,0,0,1-1,2.7c-3.53,5-4.36,10.84-4.66,16.69a62,62,0,0,0,4.07,26.42c.93,2.34,2.45,4.43,3.55,6.71s2.57,3.92-.35,6.62c-2.68,2.48-3.53,6.74-2.92,10.68a67.06,67.06,0,0,0,11.44,27.91,13,13,0,0,1,1.06,2.84c-1.08.29-2.22,1-3.21.81a25.92,25.92,0,0,1-13.51-6.54c-.83-.78-1.77-1.45-3.44-2.8,0,2.55-.43,4.4.08,5.94,2.36,7.11,4.82,14.2,7.58,21.16,2,5,4.54,9.87,6.44,15.25a75.08,75.08,0,0,1-15.3-9.69c-4.76-3.78-9-8.21-14-12.8-.45.55-2.11,1.66-2.11,2.77,0,5.51-.74,11.43,1,16.42,1.89,5.37,6.14,10,9.62,14.71,2.47,3.38,5.46,6.39,8.05,9.69,1.38,1.76,2.86,3.66,2.22,6.61-4.44-3.72-9.65-5.79-12.42-11-1.57-3-4.25-5.33-6.39-8-5.94-7.43-11.92-14.83-17.73-22.36-.9-1.17-1.79-3.38-1.27-4.34C78.24,278.77,80.33,278.3,82.47,277.16Z"/><path d="M178.4,82.88c16-2.59,32.19-3.52,48.73-1.43.25,4.91.43,9.48.74,14,.45,6.92.91,13.83,1.54,20.73.23,2.46-.62,4-2.85,4.74a143.46,143.46,0,0,1-13.92,4.19c-7.9,1.67-15.89,3-23.87,4.21-2.46.39-5,.06-7.7.06C180.18,113.94,179.3,98.51,178.4,82.88Z"/><path d="M172.12,84.28q.54,22.11,1.1,44.67c-14.51,5.14-29.84,4.13-45.33,4.15,1.69-11.42-.77-22.28-1.56-33.25-.36-5,.31-10.09.53-15.57Z"/><path d="M201.51,12.77l7.29,1.58c-2,2.94-3.53,5.08-5.07,7.3a7.63,7.63,0,0,0,1.32.72c3.84.7,4.49,2.5,2,5.6-2.58,3.28-5.14,6.59-8.22,10.53,9.7,3.36,19,2.37,28,4.33V74.19l-47.26,1c-.34-5.78-.9-11.89-1-18-.13-7.42.16-14.84.15-22.26,0-1.81.72-2.58,2.4-3,3.48-.9,6.91-2,10.44-3-.06-2-1.05-3.1-3-4-2.46-1.19-4.58-3.06-6.84-4.64l.32-.81c1.65-.41,3.28-.93,5-1.2,2-.32,3.69,0,4.5,2.23s2.59,2.45,4.24,1.3A29.86,29.86,0,0,0,201.12,17c.56-.64.25-2.06.34-3.12C201.47,13.49,201.49,13.13,201.51,12.77Z"/><path d="M120.06,132.57a176.26,176.26,0,0,1-40.17,3c-4-.13-4.56-.63-4.77-4.59q-.95-17.67-1.82-35.36c0-1.06,0-2.12,0-3.37,7.16-.83,14.12-1.52,21-2.47,6.26-.86,12.46-2.17,18.73-3,3.76-.5,4.45.06,4.68,3.73C118.62,104.58,119.31,118.61,120.06,132.57Z"/><path d="M150.38,15.34l-5.33,2.59c2.95,3.1,6.7,1.84,10,2.93-1.3,2.66-3.74,2.91-6.09,3.21s-4.42,1.08-4.53,4c-.08,1.91.7,3.22,2.82,3.33l1.46.05c4.16.13,4.16.13,4.75,4.3a2.56,2.56,0,0,0,.39.75c6-.05,7.31-1.21,8.39-7.64,1.67.4,3.35.83,5,1.2,4,.9,5.11,2.56,4.87,6.66-.51,8.68-1,17.36-1.3,26-.07,1.67.85,3.36.95,5.07a25.9,25.9,0,0,1-.39,5.26c-.74,5-4.68,4.34-8.08,4.4-12,.22-24,.37-36,.54-.87,0-1.73,0-2.77,0-.12-.83-.27-1.47-.3-2.12-.32-7.41-.56-14.83-1-22.24-.13-2.41.42-3.57,3-4.19a119.81,119.81,0,0,0,13.9-4.39c1.12-.41,1.95-1.85,2.67-3s.87-2.66,1.71-3.64c1.66-1.94.88-3.09-.84-4.23-2.52-1.67-5-3.36-7.94-5.31,1.44-.68,2.6-1.22,3.75-1.78,1.85-.92,3-2,1-3.92-1.43-1.32-.86-2.24.67-2.78,1.78-.62,2.33-1.73,2.68-3.63.26-1.42,1.94-2.74,3.27-3.7C147.41,12.86,148.91,14.29,150.38,15.34Z"/><path d="M27.49,136.4c.57-4.16,1.11-8.79,1.86-13.38,1.41-8.65,3-17.28,4.39-25.93.31-1.91,1.16-2.46,3-2.69,8.42-1,16.83-2.12,25.23-3.34,2.75-.4,4.06.61,4.28,3.29.78,9.53,1.63,19,2.33,28.57.38,5.23.53,10.48.79,15.78Z"/><path d="M69.72,145.05c0,8.88-.07,17.46,0,26,.07,7-3.49,12.68-6.43,18.56-1.3,2.61-3.81,3.19-6.54,1.24A114.43,114.43,0,0,1,42.34,179.1c-6.94-6.95-12.54-14.93-14.93-24.72-.25-1-.38-2.1-.55-3.15-1-6.18.17-8.1,6.45-8,9.24.08,18.48.91,27.72,1.41C63.64,144.75,66.25,144.87,69.72,145.05Z"/><path d="M117.26,52.26c0,7.86.06,15.07,0,22.28,0,3-1.51,4.9-4.68,5.36-8.87,1.29-17.72,2.66-26.58,4-2.6.39-5.21.78-7.82,1.1-2.36.28-4-.48-4.34-3.12-.68-4.82-1.51-9.61-2.11-14.44a2.61,2.61,0,0,1,1.14-2.2q13.36-4.17,26.8-8.07C105.33,55.5,111.05,54,117.26,52.26Z"/><path d="M274.77,76.68c-4.29,0-8.47.08-12.64,0-7.41-.17-14.82-.44-22.23-.72-1.72-.06-3.41-.41-3.61-2.61-.87-9.58-1.72-19.17-2.63-29.34,6.15,1.74,11.59,3.16,17,4.83,7.44,2.3,14.81,4.82,22.22,7.19,2.34.75,3.35,1.79,3,4.65C275.09,65.84,275.09,71.12,274.77,76.68Z"/><path   d="M312.4,237.85a28,28,0,0,1,1.43,3c2.14,6.36,4.06,12.81,6.4,19.09,1,2.69,2.83,5.08,4.31,7.59,2,3.33,1.67,5.36-1.23,7.95-1.75,1.55-3.59,3-5.27,4.64-1.16,1.11-2.35,2.38.16,3.53.49.23.61,1.26.4,2.37l-3.38-2.21-.92.38a22.41,22.41,0,0,0,1.45,4.13,42.89,42.89,0,0,0,4.6,6.69c.54.62,2.21.24,3.39,0,4.14,1.95,4.47,5.17.88,8.74l17.24,26.79,1.2-.64a24.12,24.12,0,0,0-1.19-2.92c-1.44-2.54-3.07-5-4.41-7.58-.39-.77-.08-1.9-.1-2.86,1.27.16,3.22-.14,3.7.56q4.69,6.87,8.79,14.12c1.11,2,1.46,4.37-.76,6.11a5.12,5.12,0,0,1-7.17-.55,163.41,163.41,0,0,1-12-16.12c-6.31-9.93-12.14-20.17-18.27-30.46-3.44,6.15-4.93,13.15-9.1,18.89-2.38-1.34-2.23-3.1-1.59-4.77,1.8-4.73,3.74-9.4,5.65-14.08.94-2.31,1.93-4.59,3.14-7.44-4.08.73-7.2,1.24-10.2,3.62-2.59,2.06-6.32,2.76-9.63,3.78-.63.19-1.79-.83-2.48-1.52a16.59,16.59,0,0,1-1.82-2.71c.2-.23.41-.7.68-.75,7-1.22,12.17-6.38,18.84-8.25,4-1.13,8-2.32,12.06-3.46,3.48-1,3.81-2,2.14-5.2-4.29-8.14-7.57-16.64-8.46-25.89a26.11,26.11,0,0,1,.3-4.4Z"/><path d="M329.86,81.27c8.09.39,15.79.73,23.48,1.17a40,40,0,0,1,6.36.85c2.9.63,3.28,1.77,1.07,3.86a39.74,39.74,0,0,1-7.32,5.77c-5.28,3-10.8,5.64-16.67,8.66l8.35,6.73c-.17.38-.33.75-.49,1.13-3.63-.35-7.29-.46-10.86-1.09-6.53-1.16-6.92,0-6-7.84C328.54,94.32,329.14,88.12,329.86,81.27Z"/><path d="M160.93,320c-1.61-1.56-3.54-2.61-3.48-3.52.12-1.6,1.12-3.83,2.39-4.43s3.23.63,4.66,1c4.61-2.68,9.48-5.62,14.46-8.35a13.14,13.14,0,0,1,4.73-1.33c2.21-.27,3.41,1.2,3.95,3.15s-1,2.59-2.4,3c-5.08,1.6-8.33,5.26-10.91,9.63q-6.45,10.94-12.72,22c-1.52,2.68-8.15,5.74-11.28,5-1.36-.3-1.86-3-1-4.73,2.35-4.76,4.55-9.59,7-14.31a65.57,65.57,0,0,1,3.77-5.72C160.54,320.73,160.92,320,160.93,320Z"/><path d="M34.16,73.66a164.49,164.49,0,0,0,30.09-7c1.88,6.7,1,13.27.74,19.93-6.61.68-13.09,1.29-19.56,2-3,.35-5.94,1.1-8.94,1.44-.72.09-2.21-.73-2.22-1.17C34.11,83.63,34.16,78.39,34.16,73.66Z"/><path d="M350.46,124.3c.33-4.47.6-9.21,1.06-13.92.19-1.87,1.43-2.43,3.37-2.24,6.78.63,13.59,1,20.38,1.6,3.18.25,6.45.26,8.81,3.05,1.51,1.8,1.78,3.52-.25,5-4,2.9-8.07,5.76-12.23,8.46a5.41,5.41,0,0,1-3.33.51C362.59,126,356.92,125.2,350.46,124.3Z"/><path d="M249.15,184a14.79,14.79,0,0,1,2.27-.27c10.52.46,21.05.82,31.56,1.53,2,.14,4,1.65,5.92,2.61,1.35.67,2.64,1.48,4.59,2.58-1.35.56-2.3,1.28-3.25,1.28-4.26,0-8.52,0-12.75-.38-3.21-.28-4.29-.3-6.38,1.38,3.47,1.24,6.87,2.4,10.22,3.66,3.68,1.38,3.8,2,1.69,5.16-1.24,1.84-2.16,3.9-3.32,5.8a8.23,8.23,0,0,1-1.57,1.48c-.42-.67-1.23-1.38-1.18-2a6.63,6.63,0,0,1,1.11-3.37c1.67-2.27,1.16-4.52-1.52-5.51-6.56-2.44-13.23-4.62-19.66-7.37-3-1.29-5.56-3.64-8.32-5.51Z"/><path d="M283.61,60.63c5.66-.25,36.62,10.43,38.47,13.32-2.48,1.91-25.43,2.82-36.63,1.46C284.84,70.53,284.24,65.66,283.61,60.63Z"/><path d="M235.08,323.3c4.29,2.22,8.57,4.27,12.7,6.6,7.58,4.28,15.49,7.41,24.32,7.35a7,7,0,0,0,4.26-1.65c4.17-3.65,8.09-7.59,12.23-11.3.63-.57,1.88-.47,2.85-.68,0,1,.46,2.32,0,3-5.35,7.28-10.81,15-20.94,15.06-5.42.05-11-1.36-16.24-3S244,334.52,239,332.17C234.43,330.07,234,328.8,235.08,323.3Z"/><path   d="M197.11,4.91c-1,2.23-1.93,4.49-3.19,7.45-.5-1.62-.55-2.69-1.09-3.33-.87-1-2-2.19-3.17-2.43s-3.57.21-3.83.93c-.47,1.33.13,3.1.46,4.64.21.94.76,1.8.53,3-2.72-2.16-5.5-4.25-8.13-6.5A7.41,7.41,0,0,1,177.07,6c-.94-2.15-3-2.6-3.76-.51-1.29,3.66-5.59,3-7.33,5.77,0,0-2-.65-2.29-1.32-.92-2.43-1.49-5-2.28-7.86,1.77-1,3.4,0,4.88,1.78,2.36,2.83,2.66,2.83,5.45.32A42.6,42.6,0,0,1,175.5.87c2.17-1.54,3.29-1,3.87,1.54.81,3.59.87,3.63,4.39,2.32C188.06,3.14,194.07,3.13,197.11,4.91Z"/><path d="M130.89,339.21c7.57,2.59,11.74,9.39,18.19,12.74.7-1.16,6.13-3.12,7.15-2.48,1.63,1,1.11,2.63,0,3.38a12.71,12.71,0,0,1-4.86,1.7c-8.66,1.35-18-4.77-20.43-13.25A11,11,0,0,1,130.89,339.21Z"/><path d="M154.63,236.87a28,28,0,0,1-5.18-.05c-4.19-.81-8.36-1.79-12.49-2.91a11.26,11.26,0,0,1-3.41-2.08c-.7-.51-1.14-1.58-1.87-1.8-3.91-1.18-3.14-4.52-3.68-6.76l27,12.11C154.87,235.88,154.75,236.37,154.63,236.87Z"/><path d="M289.52,227.67c.69.17.92.15,1.05.26,5.72,4.6,6.76,4.63,13,.55,1.52-1,3.11-1.85,4.74-2.81,2,2.48,1.39,4.5-.43,6.13a16.3,16.3,0,0,1-12.27,4.43,6.27,6.27,0,0,1-4-2.71C290.58,231.91,290.25,229.81,289.52,227.67Z"/><path d="M360.61,76.28c-3,0-6,.11-8.93,0-6.42-.27-12.84-.61-19.25-1.08-.94-.07-1.82-1-2.74-1.6.94-.47,1.9-1.37,2.81-1.33q12.12.5,24.21,1.34c1.45.1,2.84,1,4.26,1.46Z"/><path d="M147.17,297.48c-1.15.8-2.13,1.6-3.22,2.22a36.84,36.84,0,0,0-3.93,1.95c-2.05,1.53-5.66,2.4-6.79,1.35s-.61-4.45,1.23-6.71,9.12-3.2,11.21-1.46C146.21,295.28,146.42,296.11,147.17,297.48Z"/><path d="M70.24,278.75c1.16,4.73,2.24,9.53.27,14.07-.53,1.23-3.48,1.45-5.37,2-.22.06-1.12-1-1-1.43C65.21,288.16,66.76,283.13,70.24,278.75Z"/><path d="M181.32,26.35a38.35,38.35,0,0,1-4.59-.51c-2.35-.56-4.69-1.24-7-2a3.24,3.24,0,0,1-1.83-1.58c-.16-.43.49-1.54,1-1.79a4.25,4.25,0,0,1,2.33.1,36.72,36.72,0,0,0,4.73,1.1C178.68,21.83,180.48,22.84,181.32,26.35Z"/><path   d="M360.65,132.82l-9.34,6-.75-.57a62.44,62.44,0,0,1,1.48-6.07c.17-.49,1.35-.94,2-.89,2.12.13,4.23.52,6.34.81C360.5,132.3,360.57,132.56,360.65,132.82Z"/><path d="M288.71,170.91c2.18,2.11,2.83,6.94,1.32,9.37-1,1.67-2.15,1-3,0C285.24,178.26,286.35,172.59,288.71,170.91Z"/><path d="M315.56,222.26a12.37,12.37,0,0,1,0-2.78,25.54,25.54,0,0,1,1.31-2.88c.9.77,2.4,1.41,2.57,2.31a16.48,16.48,0,0,1-.09,5.94c-.14.78-1.42,1.35-2.18,2a11.75,11.75,0,0,1-1.49-2.48A6.44,6.44,0,0,1,315.56,222.26Z"/><path d="M144.77,320.09c3.88-2.17,7.37-2.14,9.95,0-.59,2.5-2.66,2.94-4.7,3.05C147.82,323.23,145.8,322.64,144.77,320.09Z"/><path d="M156.1,15.57,149.67,10c2.66-.06,5.21-.84,6.57.1,1.06.73.64,3.6.88,5.51Z"/><path d="M150.15,295.08c1.54-1.15,2.58-2.36,3-2.17a16.25,16.25,0,0,1,3.34,2.53c-.92,1-1.82,2.66-2.76,2.69S151.77,296.54,150.15,295.08Z"/><path d="M170.93,15.29a11,11,0,0,1,1.3-2.74,15.91,15.91,0,0,1,2.61-1.85c.35.75,1.16,1.68,1,2.22a6.55,6.55,0,0,1-2.14,2.73C173.24,16,172.23,15.49,170.93,15.29Z"/><path d="M132.21,314.5c-.82-1.49-1.5-2.31-1.67-3.22-.07-.42.86-1,1.33-1.55a9.74,9.74,0,0,1,1.63,2.35C133.65,312.52,132.91,313.25,132.21,314.5Z"/><path d="M278.41,212.28c-1.06.76-1.76,1.64-2.32,1.56s-1.3-1.05-1.44-1.73c-.08-.37.94-1.38,1.43-1.36C276.74,210.79,277.36,211.54,278.41,212.28Z"/><path d="M289.08,165.27c.77,1.21,1.5,1.86,1.5,2.5s-1,1.53-1.37,1.45a2.45,2.45,0,0,1-1.65-1.49C287.48,167.16,288.3,166.46,289.08,165.27Z"/></g></g></svg>