<svg xmlns="http://www.w3.org/2000/svg" viewBox="0 0 400.92 416.38"><g id="Ebene_2" class="band-svg"  data-name="Ebene 2"><g id="Ebene_1-2" data-name="Ebene 1"><path class="band-svg"  d="M108.52,416.38c1.44-6.08,2.79-12.18,4.35-18.23.75-2.88.64-4.93-1.88-7.25-1.62-1.51-2.35-4.73-2.32-7.17A170.29,170.29,0,0,1,110,361c1.65-11.17,3.85-22.29,6.43-33.29,1.54-6.54,2.26-6.64,8.28-3.7,12.69,6.2,26.31,8.41,40.15,9.72,7.13.67,14.26,1.29,21.4,1.67,4.91.26,9.84.05,15.79.05-4.8-8.69-6.62-17.56-14.9-23.1C182.06,309,178.3,303.56,174,299c-.49-.51-.49-1.48-.72-2.23l.85-.76,12.56,9.48.68-.42c-.38-1.15-.73-2.31-1.16-3.44-10.3-27-20.81-53.89-30.79-81-3.21-8.71-4.8-18-7.6-26.91a13.78,13.78,0,0,0-5-6.65,58.41,58.41,0,0,0-23.11-9.19c-6.67-1.23-14.66,4.4-17.8,11.71-4.72,11-4.12,21.67.56,32.56,7.52,17.51,20.62,27.75,39.17,31.31,1.72.33,3.46.5,5.18.8.27,0,.48.4,1.45,1.27-1.79.69-3.13,1.3-4.52,1.7s-3,.63-5,1c1.28,3.35,2.23,6.6,3.7,9.59,7.45,15.19,15.09,30.29,22.52,45.49.88,1.81.9,4,1.31,6.08-2.1.24-4.24.84-6.3.65-6.41-.62-9.76-5.54-13.15-10.14-4-5.48-7.81-11.15-12.15-17.4-.17,1.48-.32,2.23-.32,3,0,6.61.16,13.22,0,19.83-.09,5.3-1.73,6.31-6.57,4.36-3-1.19-5.94-2.36-8.8-3.75-2.39-1.17-3.9-.87-4.62,1.87-2.18,8.38-5,16.66-6.44,25.17-2.31,13.76-3.69,27.67-5.5,41.52a41.16,41.16,0,0,1-.9,4l-1,.15a48.36,48.36,0,0,1-2.59-6c-1.49-5.29-2.77-10.63-4.07-16-.56-2.3-1.74-3.33-4.26-3.72A7.14,7.14,0,0,1,85,359.72c-5.34-11.43-11.29-22.7-15.22-34.63-5.12-15.5-8.53-31.56-12.73-47.38-.58-2.19-1.4-4.31-2.12-6.47H53.8c-.47,2.68-1,5.34-1.4,8-1.82,13.63-3.12,27.34-5.5,40.86-2.53,14.38-6,28.58-9.18,42.85a25.26,25.26,0,0,1-1.38,3.65l-1.07.09c-.94-5-2.39-10-2.7-15a163.19,163.19,0,0,1,.14-21.44,317,317,0,0,0-.28-51.47c-1-11-.8-22-1.3-33-.19-4.06-.81-8.1-1.3-12.14a4.08,4.08,0,0,0-1.63-2.54,41.59,41.59,0,0,0-2.28,5.18c-4.25,14.77-8.41,29.57-12.6,44.36-.45,1.59-.91,3.17-1.32,4.76-1.12,4.37-2.26,8.65-8.09,8.71-.86,0-1.72.8-3,1.44-.21-2.37-.43-4.5-.57-6.64C-1,268.82,1.64,249.11,5.68,229.54c3.82-18.43,8.49-36.65,17-53.56,4.32-8.62,9.81-16.66,14.76-25,.9-1.51,1.71-3.07,2.57-4.6,1.2-2.13,1.45-3.79-1.76-4-.36,0-.69-.48-1.1-.79.75-2.93,3.12-2.91,5.25-2.87,10,.19,20,.33,30.05.82,13,.63,26,1.35,38.9,2.51,6,.54,11.81,2.65,17.78,3.28,12.81,1.35,25.65,2.38,38.5,3.22,15.17,1,30.35,2.14,45.53,2.28,12,.11,23.95-1,35.89-2,3.59-.28,7.07-1.8,10.61-2.7a2.57,2.57,0,0,1,1.56.21c4,1.84,7.28.2,9.69-2.69,3.08-3.68,6.88-5,11.41-5.7,4.21-.63,8.3-2.07,12.45-3.11,2.19-.55,4.14-.72,6,1.23a11.2,11.2,0,0,0,5.36,3.09c8.68,1.83,15.87,6.93,23.8,10.38,5.3,2.31,10.87,4,16.27,6.11,2.4.94,4.68,2.19,7.51,3.54-6.79,6.39-12.55,12.87-21.77,13.52-2.5.18-5.08-.71-7.61-1.2-.74-.14-1.39-.69-2.13-.86a114.75,114.75,0,0,1-33.42-13.36c-4.43-2.62-8.47-5.91-12.8-8.72-1.7-1.1-3.59-3.35-5.65-1.21-.38.39,1.35,3.65,2.75,4.8a132.46,132.46,0,0,0,55.32,26.69,16,16,0,0,0,14-3.22c10.33-7.87,20.71-15.69,31.26-23.26,6.7-4.81,13.71-9.19,20.66-13.64a49.23,49.23,0,0,1,6-2.88c.2.29.41.58.61.88-1.25,1.27-2.41,2.66-3.78,3.8-6,5-12,10-18.12,14.89a98.38,98.38,0,0,1-9.79,7.15c-2.11,1.3-2.46,2.94-2.28,5,1,11.62,2.12,23.22,3,34.84.53,6.89.93,13.79,1,20.69,0,1.67-1.62,3.34-2.84,5.67-1.12-1.75-1.68-2.43-2-3.2-5.41-11.77-10.77-23.57-16.23-35.32a72.79,72.79,0,0,0-4.39-8c-.37-.59-2-1.15-2.41-.85-3.86,3.08-8.39,2-12.7,2.28l-1.86.09V209.2c3.57.6,6.71,1,9.8,1.67,5.09,1,6.78,5.49,3.72,9.69-.41.57-1.39,1.36-1.74,1.2a3.16,3.16,0,0,1-1.55-1.84c-1.47-5.13-2-5.58-7.1-5.83-4.62-.22-6.38-1.6-6.83-6.27-.49-5.14-.52-10.32-.75-15.49-.06-1.54-.12-3.08-.16-4.62-.07-2.48-1.25-3.62-3.68-4.62-9.73-4-19.33-8.32-28.86-12.78-3.76-1.76-4.66-1.82-7,1.72l-.19.27c-4.26,6.56-3.73,8.38,3.42,11.16,2.45.95,5,1.78,7.49,2.49,3.84,1.06,4.75.25,4.52-3.69,0-.53,0-1.06,0-1.58,3.79,0,4.6.81,4.28,4-.33,3.51-.73,7-.91,10.52-.12,2.27-1.16,3.14-3.15,2.31a67.9,67.9,0,0,1-7.93-3.92c-4.57-2.66-5.66-2.42-9.57.88a9.44,9.44,0,0,1-5.89,2.07,10.73,10.73,0,0,0-9.24,4c-9.63,11.18-19.36,22.29-29.08,33.39a34.25,34.25,0,0,1-6.71,6c.24-3,.38-5.93.73-8.88,1.31-10.91,2.83-21.8,4-32.73.84-8,1.26-16,1.8-24a21.72,21.72,0,0,0-.23-5.22c-.09-.52-1.22-1-1.95-1.2-.23-.06-.88.77-1.08,1.29-1.6,4.16-2.58,8.66-4.78,12.46-9.35,16.18-19.1,32.14-28.58,48.25a10,10,0,0,0-1.43,5.49c2,24.77,3.73,49.6,10.08,73.78.67,2.55,1,5.19,1.65,7.74,1.23,4.87,3.77,7.07,8.69,7.64,2.29.27,4.6.36,6.9.61a6.42,6.42,0,0,1,3.14.75,5.18,5.18,0,0,1,1.56,3c0,.32-1.43,1.27-2.26,1.33-2.74.22-5.51,0-8.25.26-2,.18-4.57-.71-5.59,2.16,2,.52,4,1.6,6,1.46,8.45-.61,16.87-1.63,25.31-2.39,2.4-.21,4.84-.08,7.26-.09a6.2,6.2,0,0,1,6.09,3.72c1.23,2.5,1.21,4.86-.57,7.09-1.17,1.46-2.29,3-3.59,4.31a2.78,2.78,0,0,1-2.23.88c-.58-.22-1-1.33-1.17-2.12-.25-1.28-.1-2.64-.31-3.94A6,6,0,0,0,243.8,337a36.21,36.21,0,0,0-5.75,3.8c-2.79,2.15-2.78,5-1.72,8.05s3.33,3.46,6.07,3.48,5.46.28,8.84.46l-5.92,11a23.64,23.64,0,0,0,4,1c4.59.54,9.22.75,13.78,1.42,1.43.21,2.69,1.51,4,2.31a16.25,16.25,0,0,1-2.53,3.32c-4.7,3.7-4.46,12.14.55,15.3,4.55,2.86,8.58,2.79,12.56-.24,5.72-4.34,5.19-10.67-1.29-13.89-2.57-1.28-4.6-2.61-3.4-6.63,6.42,2,13.32,2.2,18.82,6.76,2.68-4.15,1.95-5.65-2.93-6.34-2.45-.35-4.87-.91-7.31-1.37l-.05-.94a8,8,0,0,1,2.49-.61c3.83.32,7.67.68,11.47,1.23,2.67.38,4.23,1.94,3.49,4.83a75.29,75.29,0,0,1-2.68,9.13c-4.06,10.2-8.4,20.3-12.39,30.53-.81,2.06-.57,4.52-.81,6.79Z"/><path d="M47.12,107.54c.45,2.08.92,4.23,1.39,6.38l-1.11.44c-.8-1.78-2.08-3.49-2.32-5.34a74.54,74.54,0,0,0-6.26-21.09c-1.26-2.82-1.75-5.55,2.34-7.4a41.32,41.32,0,0,1,3.08,5.2,13.28,13.28,0,0,0,10.11,8.65c12.37,3,24.36,7.62,36.79,10.17,14.18,2.92,28.65,4.46,43,6.31s28.84,3.4,43.27,5c16.19,1.74,32.4,3.27,48.58,5.05,6.33.7,12.86,1,18.84,3a40.73,40.73,0,0,0,16.23,2.27,3,3,0,0,1,1.28.21c.28.11.47.41.89.8a9.53,9.53,0,0,1-1.74,1.42c-5.21,2.42-6.47,7-6.06,12.05.18,2.2-.44,3.14-2.38,3.41a61.12,61.12,0,0,1-8.17.9c-8.58.07-17.16,0-25.73-.19-2.81-.08-6.82-4.18-7.1-7a4.9,4.9,0,0,1,1-2.94,46.09,46.09,0,0,1,3.52-4c-5.11-2.68-10.35-2.93-15.7-2.48-.88.08-1.73.32-2.6.45-2.3.33-3.61,1.19-2,3.66,1.1,1.71.64,3.17-.88,4.31-1.31,1-2.71,1.83-4.07,2.75l.91,1.22,6,1.46-.07,1.11a69.6,69.6,0,0,1-7.88.37c-18-1.15-36-2.31-54-3.7-7.33-.57-14.64-1.64-21.91-2.74a3.71,3.71,0,0,1-2.23-2.83c.07-3.21.92-6.22,3.59-8.53,2.82-2.44,2.4-4.15-1.41-4.94-8.39-1.74-16.84-3.18-25.28-4.68-11.36-2-22.74-3.88-34.08-6C52.32,109.74,49.85,108.5,47.12,107.54Z"/><path d="M104.56,13.77c4.21.67,8.4,1.43,12.62,2,10.69,1.36,21.71,1.44,32,4.2,15.47,4.14,31.43,6.07,46.67,11,7.1,2.3,13.94,5.45,21.12,7.37,12.4,3.3,25,5.94,37.48,8.84.84.19,1.73.19,3.36.36-5.25-4.18-10.76-6.07-16.33-7.93-14.68-4.88-29.31-9.88-44-14.88a20.5,20.5,0,0,1-3-1.7c4-2.15,7.5-1.17,10.64-.22,9.13,2.78,18.11,6.05,27.15,9.11q31.36,10.6,62.73,21.18c7.9,2.66,16,4,24.35,3.12a36.81,36.81,0,0,1,8.9,0c1.4.19,2.68,1.73,3.81,2.87.16.15-.82,2.12-1.43,2.22-2.6.4-5.26.42-7.9.57-17.1.92-34.12-.41-51.11-2.06C254.52,58.1,237.34,56.3,220.23,54c-12-1.6-23.76-4-35.18-8.37C160.42,36.3,135.6,27.43,110.89,18.3A71.63,71.63,0,0,1,104.06,15Z"/><path d="M110.31,59.42c13.47.26,26.2,3.79,38.94,7.22,11.12,3,22.31,5.81,33.28,9.33,8,2.57,15.78,6,23.54,9.36,4.93,2.12,4.9,3,1.39,6.91a10.6,10.6,0,0,1-8.71,3.69c-14-.3-27.77-2.35-41.63-4.17-13.2-1.74-25.34-6.17-37.48-10.9-3.9-1.52-7.26-4.41-10.89-6.66-.91-.56-1.92-1-2.82-1.56-3.63-2.35-7.35-4.58-10.79-7.18-1.91-1.44-1.39-3.36.93-3.83C100.77,60.69,105.56,60.13,110.31,59.42Z"/><path d="M340.4,368.92c-5.23-10.8-10.21-21.1-15.2-31.39l-1.1.48c1.58,13.6,7.85,25.72,13.3,38.11l-1.32.73a44.43,44.43,0,0,1-3.49-4.31q-9.16-14.69-18.18-29.48c-1.54-2.52-4.18-5.25-4-7.7.18-2.15,3.69-4,5.62-6C329,315.51,339.22,300,344.87,281c-5.43,1.62-10.68,3-15.83,4.77s-10.43,4.05-15.74,5.76c-3.2,1-5.26-.19-7.44-3.59a14,14,0,0,1,2.45-1.46c9.93-3.49,19.86-7,29.84-10.33a20,20,0,0,1,5.54-.72c4.13-.16,5.83,1.38,5.19,5.55a62.44,62.44,0,0,1-3.21,12.38C341,306,340.81,306,343.49,319.08c1.32,6.45,2.59,12.93,4.28,19.29,2.13,8-.47,15.22-3.29,22.4C343.42,363.47,341.89,366,340.4,368.92Z"/><path d="M308.62,102.4c-1.1,2.15-1.65,4-2.8,5.3-1.75,2-4,2.79-6.29.58a5,5,0,0,0-.75-.64c-2.23-1.37-4.13-.29-5.54,1.24-.28.31,1,2.49,2,3.44,1.18,1.16,3.28,1.47,2.72,3.9-.61,2.59.29,4.35,3.14,4.65s4.82-1.39,4.81-3.84c0-5.53,3.32-8.43,7.14-11.42,1.06-.82,1.14-2.89,2.46-4.5.23,1.71.48,3.42.71,5.13.5,3.8,1.85,4.87,5.53,4,3.13-.75,6.26-1.66,9.16-5l-10.8-1.25c2.7-1.77,4.94-2.69,6.35-4.33s1.74-3.81,2.79-6.32c.88,1.46,1.5,2.51,2.57,4.28,1-1.33,2.45-2.35,2.5-3.45A3.92,3.92,0,0,0,332,91.2a3.5,3.5,0,0,1-2.64-4.28c.18-1.39.37-3,1.19-4,3.48-4.25,4.15-9.32,4.78-14.47a16.82,16.82,0,0,1,1.11-3.27l1.28-.06c.52,3.1,1.52,6.21,1.45,9.29-.18,7.35-.74,14.69-1.39,22-.39,4.36-1.69,8.8,3.46,11.63-.63.56-.89.94-1.26,1.1-12.44,5.47-24.8,11.11-37.36,16.3-7.69,3.17-15.6,5.82-23.53,8.36-4.13,1.33-8.09-1.59-8.92-5.63,6.68-2.45,13.38-4.72,19.92-7.4,3.53-1.44,3.51-2.85.89-5.54a17.76,17.76,0,0,1-3.53-4.66,5.15,5.15,0,0,1,2.42-7.06C295.72,101,301.79,101.26,308.62,102.4Z"/><path d="M395.13,131.88a32.14,32.14,0,0,1-3.19,2.41c-5.15,2.91-10.39,5.69-15.5,8.68-2.95,1.72-5.37,2.15-8.81.4-4.73-2.4-10.07-3.62-15.16-5.3-8-2.66-16.06-5.21-24-8-1.81-.62-3.39-1.87-6.24-3.49l6.74-4.89c-1-1.34-1.6-2.15-2.37-3.2l9.52-6.2c.56.52.87.68.86.82-.35,5.41,3,7,7.58,7.89,14.75,2.92,29.47,6,44.19,9.09C390.59,130.52,392.41,131.13,395.13,131.88Z"/><path class="band-svg" d="M276.58,365c-8.13-.91-16.08-.63-24.08-3.7,4.12-6.64,7.88-12.79,11.78-18.85a3.66,3.66,0,0,1,2.67-1.34c11.54.11,23.09.34,34.63.57a13.52,13.52,0,0,1,2.46.53l.21.92c-1.31.45-2.59,1.23-3.91,1.3-6,.31-12.09.62-18.13.5-2.74-.05-4.21.86-4.59,3.37-.58,3.77-1,7.56-1.34,11.35A41.43,41.43,0,0,0,276.58,365Z"/><path d="M320.7,410c-3.16,1.52-5,1.48-6.53-.88a39.17,39.17,0,0,0-3.94-5.28c-3.87-4.26-6.89-8.85-6.83-14.9a4.45,4.45,0,0,0-.59-1.47l-4.15,1.31c.6-5.57,4.5-9.55,9.54-10.15,3.88-.47,6.76-5.56,4.38-8.56a134.16,134.16,0,0,0-12.07-12.94c-.89-.85-3.05-.69-4.56-.5-2.16.27-4.24,1.27-6.39,1.44-1.7.12-3.46-.54-5.67-.94a11.68,11.68,0,0,1,1.51-2.2c4.22-3.37,13.57-4.22,18.11-1.3,7.37,4.75,13.12,10.93,16.06,19.43a5.66,5.66,0,0,1-1.36,6c-2.26,2.55-4.68,5-6.7,7.72-3.85,5.21-3.28,7.22,1.12,12C315.67,402.06,317.93,406.07,320.7,410Z"/><path d="M174,16.16c-2.48.23-4.41,1-5.83.44-9.06-3.54-18.72-3.53-28.08-5.23C132.36,10,124.58,8.44,117,6.42c-10.87-2.87-21.8-2.31-32.79-1.66-.66,0-1.31.18-2,.22-4.9.32-10.25-.17-11.35,7.62-2.33-4.08-1.09-7.17-.16-9.95.29-.89,2.92-1.26,4.52-1.4C79.58.87,84,.94,88.38.47c14.12-1.53,27.73.9,41.43,4.12,9.9,2.32,20.21,2.85,30.25,4.67,4.11.74,8,2.72,11.95,4.26C172.59,13.75,172.91,14.64,174,16.16Z"/><path class="band-svg" d="M307.61,81.6c-1.52-.72-3.05-1.43-4.56-2.17-2.92-1.43-4-4-5.08-7-.47-1.28-3.46-2.93-4.36-2.49-1.72.85-2.84,3-.84,5.21.35.39-.46,2.35-1.23,3a55.07,55.07,0,0,1-5.66,4l4.23,4.72c2.83-4.65,6.43-3.25,10-1.88,2.45.94,4.94,1.83,7.29,3a5.27,5.27,0,0,1,2.77,6.86,2.59,2.59,0,0,1-1.39,1.49c-.36.13-1.35-.48-1.49-.94-1.53-4.74-5.62-4.72-9.4-5a50.19,50.19,0,0,0-7.23.37c-4,.3-6.83-1.32-8.22-4.69a8.39,8.39,0,0,1,2.07-9.87A8.59,8.59,0,0,0,287,71.88c.52-3.45,1.61-6.18,5.33-7a9.83,9.83,0,0,1,9.83,4c2,3.25,3.9,6.54,5.78,9.85a6.66,6.66,0,0,1,.46,1.82C308.11,80.87,307.86,81.23,307.61,81.6Z"/><path d="M54.42,122.06a36.28,36.28,0,0,1,5,.55c6.05,1.55,12,3.73,18.12,4.72,7.46,1.2,15.08,1.43,22.63,2.1,1.64.14,3.28.31,4.91.54s3.19.3,2.73,2.69c-.41,2.09-1.17,3.48-3.64,3-14.54-2.79-29.1-5.47-43.61-8.44C58.12,126.74,55,126.27,54.42,122.06Z"/><path d="M47.37,74.57a33,33,0,0,1,2.25-4.19c5.72-7.8,11.44-15.6,17.33-23.27,2.06-2.68,3.18-5.36,2.71-8.8-.83-6-1.43-12-2.13-18l.8-.46c.78,1.23,1.94,2.38,2.28,3.72,1.53,6.05,2.87,12.16,4.14,18.27A3.72,3.72,0,0,1,74,44.63q-11.4,14.11-23,28.1a22.26,22.26,0,0,1-2.91,2.54Z"/><path d="M138.52,320.07c3.73.68,6.58,1.32,9.47,1.7,12.08,1.6,24.17,3.11,36.26,4.66a23.76,23.76,0,0,1,5.51.89c1.52.58,2.75,1.92,4.11,2.93-.19.47-.38.95-.56,1.42-3-.19-6-.18-8.95-.61-13-1.92-26.06-3.88-39.05-6C142.9,324.63,140.13,324.07,138.52,320.07Z"/><path d="M235.65,324.36c6.37-.53,12.71-1.12,19.06-1.57,4.65-.34,8.62,1.43,12,4.48,3.09,2.76,3.83,6.68,1.85,9.72-3.26-.93-4.34-3.84-5.46-6.48-1-2.4-2.31-3.13-5-2.89-6,.53-12.08.6-18.12.85C237.42,328.58,235.87,327.46,235.65,324.36Z"/><path d="M335,233.59c1,1.19,2.41,2.23,3,3.6,4.1,9.68,8.06,19.42,12,29.19.33.82-.12,2-.2,2.95-1-.3-2.26-.3-2.87-.95a14.87,14.87,0,0,1-2.83-4.33c-3.15-7.47-6.26-15-9.15-22.52-.88-2.3-1-4.88-1.49-7.33Z"/><path d="M314.84,88.42c.18-.81.33-1.78.6-2.72.62-2.15,1.44-4.63,4.08-4.38,3,.29,3.29,3.19,3,5.38A17.24,17.24,0,0,1,320,92.91c-.5.84-2.15,1.73-2.91,1.48s-1.31-1.8-1.72-2.87A17.34,17.34,0,0,1,314.84,88.42Z"/><path d="M308.56,71.6c1.49-1.12,2.84-2.94,4.48-3.23a74.07,74.07,0,0,1,12-.9c.91,0,1.84,1.19,2.76,1.83-.93.61-1.81,1.63-2.79,1.74-3.87.46-7.8,0-11.4,2.38-1,.65-3.15-.42-4.77-.7Z"/><path d="M338.35,224c-.16,2.65-6,7.48-8.65,7.08-1.85-.28-2.23-1.64-1.19-2.82A45.52,45.52,0,0,1,335,222,2.11,2.11,0,0,1,338.35,224Z"/><path d="M327.75,233.41c-1.79.89-2.61,1.63-3.45,1.66-2.9.12-6.67-3.6-6.75-6.59-.05-1.84.76-3.39,2.73-1.93C322.74,228.37,324.83,230.69,327.75,233.41Z"/><path class="band-svg" d="M45.85,119.79c4.54,1.8,5.1,3,3,7.16-.85,1.7-1.93,3.28-2.91,4.92l-1.24-.28C45.11,127.73,45.47,123.87,45.85,119.79Z"/><path d="M310.91,126.92l3.15,3.6a51,51,0,0,1-5.64,3.89c-.29.16-2.38-2.15-2.28-2.28A65.2,65.2,0,0,1,310.91,126.92Z"/><path d="M326.22,92.58c0,1.31.46,2.91-.13,3.84s-2.23,1-3.41,1.5l-.85-1,3-4.68Z"/></g></g></svg>