<svg xmlns="http://www.w3.org/2000/svg" viewBox="0 0 380.21 416.38"><g id="Ebene_2" class="band-svg" data-name="Ebene 2"><g id="Ebene_1-2" data-name="Ebene 1"><path d="M136.31,416.38a6.06,6.06,0,0,1,.16-1.42c2.07-5.64,0-9-6.05-9.53-1.41-.12-2.82-.29-4.23-.4-6.76-.54-11.91,2.62-14.13,9-.87,2.46-2.67,2.37-4,1.39a102.33,102.33,0,0,1-9.64-8.13c-.5-.47-.19-2.07.09-3.05,1.92-6.79,4.05-13.52,5.88-20.33a70,70,0,0,0,1.2-8.39c-3.89-.21-5.92,1.63-7,4.45-1.9,5.2-3.57,10.49-5.3,15.75-1,3.19-2,6.4-3.26,10.22,1.07,1.54,2.64,3.81,4.23,6.05.91,1.28.87,2.52-.76,2.76-5.37.78-10.8,2.15-16.17.21-3.62-1.3-4.22-2.78-3.32-6.58a519.93,519.93,0,0,1,17.91-60.61,27,27,0,0,0,1.1-4.08c.46-2.46.43-4.38-2.44-5.94-2.54-1.38-4.42-4-6.43-6.29-.5-.54-.36-1.65-.52-2.5a7.2,7.2,0,0,1,2.5,0c4.87,1.87,9.66,4,14.56,5.78,5.1,1.88,10.29,3.51,15.43,5.28a34.73,34.73,0,0,1,3.63,1.51c2.21,1.05,2.71,2.73,1.27,4.67a33.07,33.07,0,0,0-6.75,20.11c0,2.25-1,4.49-1.51,6.76,4.19,2.21,7.18.95,8.37-3.42,1.37-5,2.76-10.07,4.39-15a70.79,70.79,0,0,1,3.58-8.14c.92-1.92,6.15-2.47,7.21-.71.38.63-.05,1.75-.11,2.7,6.35-.95,12.65-.73,18.45,2.28s11.86,3.76,18.2,3.76a57,57,0,0,1,8.15.63,27.47,27.47,0,0,1,4.71,1.64c-.9,1.5-1.49,2.52-2.12,3.53q-5.16,8.2-10.35,16.39c-1,1.58-1.52,2.91.47,4.32,1,.68,1.4,2.11,2.31,3.59.88-.93,1.73-1.69,2.44-2.58,5-6.25,10-12.48,14.82-18.81,1.66-2.15,3.72-4.08.48-7.14-2.59-2.44-4.09-6-6.25-9.39,1.52-.81,2.16-4.47,5.72-2.42.34.2,1.09-.45,1.67-.53,2.09-.28,4.31-1.05,6.25-.62,12.37,2.76,24.69,5.75,37,8.76,3.31.81,6.48,2.28,9.81,2.83,2.35.39,4.88-.27,7.58-.48.12,2.76,2.86,2.91,5.58,3.32,6.05.9,11.5-1.82,17.25-2.67a26.87,26.87,0,0,0,6.69-1.73c-12.76-4.29-25.5-8.69-38.31-12.84-15.25-4.95-30.56-9.71-45.87-14.49-8.14-2.54-16.32-5-24.5-7.37-4.51-1.33-9.11-2.37-13.59-3.8-13.47-4.32-26.91-8.78-40.37-13.17a29.46,29.46,0,0,0-5.21-1.51c-4.32-.57-7.14-2.49-7.34-7.42A32.15,32.15,0,0,1,123.73,294q14.64,4.53,29.29,9a13.67,13.67,0,0,0,1.75.46c4.28.71,4.15.54,3.61-3.85-.38-3.06.27-6.24.46-9.37l1.56-.52a69.57,69.57,0,0,1,5.5,6.42,39.39,39.39,0,0,1,3.5,7,11.8,11.8,0,0,0,7.32,7.18c8.69,2.9,17.37,5.83,26.1,8.63,10.75,3.44,21.54,6.77,32.32,10.14.74.23,1.52.33,2.61.56-4.38-5.12-8.74-9.76-12.56-14.81-6.77-8.93-13.55-17.9-19.65-27.29-3.08-4.75-4.8-10.41-6.89-15.75-.52-1.32-.08-3-.08-4.54l.91-.4c2,1.93,4.06,3.82,6,5.81,6.35,6.52,12.53,13.24,20.36,18.09,3.6,2.24,7.3,4.32,10.94,6.49,4.8,2.86,9.53,5.84,14.4,8.57A48.93,48.93,0,0,0,258.5,309a98.62,98.62,0,0,0,10.3,3.29c8.92,2.13,17.8,4.71,26.85,5.9,15.21,2,30.65,2.38,45.33-2.7,11.68-4,20.48-11.82,24.36-24.28,1.65-5.28,4.21-10.26,6.09-15.48,2.51-7,2.53-14.27,2.33-21.57a9.4,9.4,0,0,0-.51-2c-.46,0-.8-.15-1,0a59.18,59.18,0,0,0-17.39,15.28,11.87,11.87,0,0,1-2.35,1.89c-.43-1.05-1.31-2.16-1.17-3.13a6.43,6.43,0,0,1,1.83-3.69c8-7,16.08-13.81,24.16-20.66a7.27,7.27,0,0,1,1.74-.75c1.91,2.07,1.21,3.78-.4,5.54-.59.66-1.41,1.79-1.2,2.38,3,8.39,1.46,16.67-.91,24.74A119,119,0,0,1,352,318.22c-6.34,7.36-14.43,10.38-23.54,10.6-13.63.32-27.28-.14-40.92-.26h-4.9c.06,6-.31,12.09,2,17.75.85,2.11,3.39,3.94,5.6,5,5.87,2.89,12,5.29,18,8,1.28.56,2.44,1.38,4.42,2.51-1.64,1.6-2.95,3.91-4.31,3.94s-3.05-2-4.51-3.24c-.6-.51-.87-1.45-1.51-1.84a35.63,35.63,0,0,0-15.09-5.13c.1.44.08.68.2.8.91,1,1.86,2,2.79,2.93a25.11,25.11,0,0,1-3.89.8c-3.61.21-7.32-.21-10.82.49-4.72.95-7.2,4.12-7.38,8a10.64,10.64,0,0,0,6.46,10.09c5.33,2.3,12.83.83,16.24-3.88,1.45-2,1.41-5.08,2.13-7.64.24-.86.89-2.4,1.1-2.36,1.2.24,2.76.54,3.39,1.41,1.78,2.46,3.16,5.21,4.89,8.15-2.86,4-6.15,8.45-9.26,13a15.06,15.06,0,0,0-2,4.64c-.64,2.48-2,3.23-4.33,2-2.48-1.31-3.17-3.69-1.95-7.31a17.37,17.37,0,0,0-2.17-.57c-.9-.12-1.82-.1-2.73-.14-10.68-.45-12.89-1.49-15.11-11.87-1.45-6.8-5.36-8.35-11-8.74-9-.63-17.95-1.08-26.91-1.85-6.63-.57-13.24-1.48-19.85-2.33-3-.4-4.95.86-6.1,4.2,7.55,6,16.79,3,25.19,4.6,9.08,1.73,18.47,1.84,27.72,2.66,1.51.13,3,.2,4.52.45s3.67-.21,3.73,2.46c.07,3-1.31,5.84-3.64,6.13-6.29.8-12.61,1.31-18.92,1.93-2.21.22-4.5.14-6.59.76a4.61,4.61,0,0,0-2.72,2.84c-.21.88.8,2.48,1.71,3.11a45.25,45.25,0,0,0,5.89,3c2.8,1.38,5.62,2.72,8.4,4.16,3.5,1.81,5.16,4.59,5.65,8.65.28,2.3,2.35,4.39,3.68,6.7a26.93,26.93,0,0,1-12.08,2.92c-3.93.09-7.85.39-11.78.59h-71l-4.43-1.06c3.52-8.75,7-17.2,10.31-25.68a19.46,19.46,0,0,0,.81-3.83c.32-1.91-.1-3.39-2.3-3.86s-3.58-.09-4.49,2.26c-2.5,6.48-5.45,12.8-7.82,19.32-2.23,6.14-5.77,10.74-12.12,12.85Z"/><path d="M118.71,416.38c-1-2.17-.47-3.56,1.94-4.27a16.9,16.9,0,0,0,2.94-1.38l7.23,3.11-6.65,2.54Z"/><path d="M97.84,180.54c3.19.26,6.38.65,9.57.76,4.65.16,9.31.06,14,.17s6.14,1.95,5,6.39a61.6,61.6,0,0,1-4.49,12.79c-4.2,8-8.82,15.87-13.57,23.6-3.83,6.22-3.88,8.23.74,14.05a37.37,37.37,0,0,1,4.71,7c.49,1-.46,2.82-1,4.18-.3.79-1.39,1.35-1.51,2.12-.32,2-1.53,2.74-3.2,3.55a5,5,0,0,0-2.61,3.22c-.51,4.4-.53,8.85-.78,13.28s-.78,5.16-4.73,5.67c-.21-1.94-.39-3.88-.63-5.82-1-8.1-.93-16.54-3.34-24.2-2.56-8.15-7.44-15.59-11.39-23.3-1.35-2.63-3.58-3.1-6.17-1.86-4.28,2-8.56,4.06-12.77,6.23-.81.41-1.32,1.43-2,2.17-2-2-2-4.69.24-6.37a38.44,38.44,0,0,1,4.19-2.43c8.8-5.13,17.67-10.16,26.39-15.44,7.87-4.76,13.53-11.72,18.62-20.18-3.64-.38-7-1-10.29-1-6.19-.09-10-4.42-8.82-10.44a3.62,3.62,0,0,1,1.88-2.31c11.92-4.37,23.86-8.69,35.86-12.84,2.73-.94,5.7-1.15,8.55-1.78,4.52-1,9-2.13,13.55-3.06a8.31,8.31,0,0,1,2.87.48c-.46.91-.69,2.26-1.43,2.66a102.37,102.37,0,0,1-10.09,4.81c-7.85,3.16-15.7,6.35-23.69,9.12-4.73,1.64-9.78,2.34-14.61,3.74-3.19.93-6.24,2.37-9.35,3.57C97.63,179.53,97.74,180,97.84,180.54Z"/><path d="M76.4,280.6c1.93.46,3.89.78,5.77,1.4,5,1.63,9.92,3.38,14.86,5.11a5.07,5.07,0,0,1,3.67,5c.41,6.86,5.4,11.32,9.06,16.42.66.92,2.27,1.24,3.5,1.64,11.95,3.92,24,7.46,35.83,11.81,6.38,2.36,12.24,6.09,18.33,9.21,2,1,4,2,5.89,3.09,4.6,2.65,7.5,6.34,7.09,12.3-6.46-.24-12.85.55-19.18-1.67-6.65-2.34-13.51-4.06-20.23-6.19a17.5,17.5,0,0,1-3.7-2.31,7.45,7.45,0,0,0-1.76-1.05c-9.14-2.37-18.3-4.64-27.42-7A126,126,0,0,1,95.4,324.4c-3.91-1.51-6.1-4.3-7.37-8.75-2.88-10-6.79-19.81-10.31-29.67-.57-1.58-1.31-3.1-2-4.65Z"/><path d="M339.85,123.88c-.65-1.73-1.35-3.44-2-5.18s-1.25-2.52-3-1.19c-5,3.74-10.06,7.43-15.09,11.14a16,16,0,0,0-1.22,1.41l22.51,2.15c.32,5.91.77,12.64,1,19.37a89.25,89.25,0,0,1-.28,11.21c-.11,1.09-1.46,2.08-2.24,3.11-.59-1.11-1.53-2.18-1.69-3.35-.4-3-.46-6-.6-8.23-2.5.26-5,.88-7.39.71-13.8-1-27.58-2.33-41.39-3.26a49.77,49.77,0,0,0-22.44,4.09c-12.87,5.28-25.9,10.16-38.9,15.12-.72.27-2.43-.13-2.58-.58-.56-1.71-.93-3.82,1.2-4.76a63,63,0,0,1,8-2.77c5.49-1.6,11.22-2.58,16.51-4.68,24.35-9.65,47.83-21.06,69.84-35.38a81.9,81.9,0,0,0,17.74-15c.91-1.06,1.46-2.43,2.39-3.47a2.88,2.88,0,0,1,2.21-1,2.45,2.45,0,0,1,1.15,2c-.38,5.34-.89,10.67-1.46,16a9.86,9.86,0,0,1-1.1,2.57Z"/><path d="M185.6,200.41c2.24,1.52,4.78,7,3.89,9.14a3.23,3.23,0,0,1-2.76,1.21c-6.62-1.08-11.26-5.15-13.92-11-1.84-4.05-2.55-8.63-3.68-13a40.77,40.77,0,0,1-.56-4.62c-7.36.85-14.55,1.56-21.71,2.55-2.17.3-2.93,2.26-3,4.36-.91,17.32,6.83,34.32,25.76,40.31,5.94,1.88,12.07,3.2,18.09,4.85a23,23,0,0,1,3.29,1.49c0,.39-.08.79-.11,1.18-1.46.31-3,1-4.37.85a96.35,96.35,0,0,1-31-8.72A30.26,30.26,0,0,1,141,214.45c-4-8.4-7.64-16.93-7.75-26.48a14.48,14.48,0,0,1,.19-2.71c.81-4.56,1.73-5.14,6.37-5.64,8.83-1,17.63-2.15,26.45-3.26a16.08,16.08,0,0,0,2-.5c1.08-7.79,2.15-15.47,3.21-23.17-3-.83-3.48-4.48-.73-9.56-2.31.62-4.35,1-6.28,1.71-9.19,3.32-18.33,6.77-27.55,10-.8.29-2.2-.32-3-1a16.38,16.38,0,0,1-2.38-3.26c6.48-2.25,12.92-4.79,19.54-6.73,8.6-2.51,17.35-4.54,26-6.78.68-.18,1.35-.41,2-.57,2.76-.64,4.3-1.93,3.45-5.15-.2-.75.84-1.83,1.31-2.76,1,.56,2.68.86,3,1.72,2.34,5.33,4.48,10.76,6.49,16.23a13.52,13.52,0,0,1,.54,5.56c-4.16-2.78-9.21-4.27-9.87-11-1.23,1.65-1.77,2.3-2.23,3-1.81,2.76-3.75,5.45-5.32,8.35a14.19,14.19,0,0,0-1.93,5.87c-.47,11.52-.68,23.05-.95,34.57a3.75,3.75,0,0,0,.41,2.31c3.28,3.82,6.63,7.59,10.07,11.26.47.5,1.57.42,2.38.6a10.23,10.23,0,0,0-.09-3,17,17,0,0,0-1.86-3.21Z"/><path d="M41.76,183.78c-.5-3.28,1.54-4.8,3.86-5.93,3.7-1.8,7.49-3.4,12.09-5.47-2.75-3.2-4.84-6.5-7.75-8.75-2.62-2-3.45-4-2.57-6.93.15-.48.21-1,.36-1.47,1.31-4.49,2-4.84,6.26-3.38a37.57,37.57,0,0,0-2.29,6.42,3.58,3.58,0,0,0,1.8,3,77.69,77.69,0,0,1,21.4,9c.67.4,1.9,0,2.84-.21s1.76-.93,2.44-.72c3.29,1,2.93-1.22,2.49-3-.89-3.51-2.2-6.91-3.11-10.42a17.13,17.13,0,0,1-.06-4.18l1-.32a20.21,20.21,0,0,1,2.45,3.13c1.1,2.15,2,4.41,2.9,6.65,1.75,4.36,2.92,5,7.36,3.59,5.84-1.9,11.62-4,17.43-6,1.3-.45,2.74-1.42,3.65.47s-.35,3.14-2,3.72c-6.45,2.33-12.9,4.63-19.41,6.75-5,1.63-9.23,3.87-10.41,9.71a4.21,4.21,0,0,1-3,2.5c-5.59.45-11.22.69-16.82.63-1.24,0-2.38-1.71-3.72-2.27s-3.21-1.34-4.54-1c-1.88.53-2.23,2.43-1.45,4.29,1.37,3.24,2.76,6.48,4.14,9.71A29.08,29.08,0,0,1,58.6,197c.22.76.25,2.19-.12,2.38a3.17,3.17,0,0,1-2.69,0A15,15,0,0,1,49,190.14C47.58,184.08,47.73,184.05,41.76,183.78Z"/><path d="M304.62,53.21l-5.1,1.93-2.15-3.89c6.92-3.12,13.86-6.31,20.85-9.38,2.32-1,4.2-.22,5.18,2.15,3.6,8.64,7.22,17.27,10.7,26,1.57,3.93,2.84,8,4.18,12,.7,2.06.6,4-1.34,5.44-.54.39-1.48,1-1.8.76a2.91,2.91,0,0,1-1.09-1.91c-.45-2.78-.58-5.62-1.16-8.37-1.25-5.83-4.89-8.16-10.1-6.13-4.71,1.83-5.51,2.07-9.06-3.71Z"/><path d="M289.8,55.64l9.83,21.29c.85,1.85-.55,2.35-1.77,2.76-5.34,1.8-10.67,3.62-16.07,5.23-2.44.72-3.7,1.72-3,4.47.19.77-.45,1.76-.71,2.64-.95-.42-2.32-.59-2.76-1.32a49.13,49.13,0,0,1-3.79-7.53A61.56,61.56,0,0,1,267.87,72a7.2,7.2,0,0,1,2-5.82A61,61,0,0,1,289.8,55.64Z"/><path d="M232.27,8.28c-1.26.46-2.5,1.26-3.78,1.31-12.72.49-25.45.84-38.18,1.27a79.83,79.83,0,0,0-10.28.67,15.23,15.23,0,0,0-6.3,2.64,48.27,48.27,0,0,1-20.8,8.53c-2.16.39-4.44.06-6.67.06l-.3-1.27c1.41-.68,2.78-1.49,4.24-2,5.19-1.91,10.49-3.53,15.59-5.65,3-1.26,3.56-3.3,1.75-5.47a5.06,5.06,0,0,0-3.6-1.62,37.84,37.84,0,0,0-17.59,4.91c-1,.58-1.27,2.34-2.09,3.38a29,29,0,0,1-2.94,2.81c-.46-1.08-1.28-2.15-1.32-3.25-.14-3.79,1.49-6.43,5.24-7.91,7-2.74,14.23-3.72,21.59-4.13a5.85,5.85,0,0,1,4.27,1.63c1.89,2.22,4.18,2.64,6.77,2.6,11.62-.15,23.24-.36,34.87-.44,5.65,0,11.3.13,16.95.27a10.59,10.59,0,0,1,2.41.63Z"/><path d="M159.33,62.17c.52,3.09-1,4.06-2.58,4.61-12,4-21.36,12-31.12,19.5-10.35,7.93-18.69,17.73-26.67,28-3.88,5-8.66,9.3-13.18,13.76-.84.83-2.39.93-3.61,1.37.28-1.26.18-2.82.91-3.72,5.29-6.63,10.53-13.31,16.2-19.61,7.56-8.4,14.82-17.25,23.43-24.45,7.81-6.52,17.13-11.31,26-16.4C151.76,63.49,155.58,63.2,159.33,62.17Z"/><path d="M29.79,71.72c1.7-.84,3.52-1.88,5.45-2.66S38.7,68.77,38,71.2c-.83,2.73.37,4.75,1.43,7.07,6.34,14,12.61,27.92,18.69,42,2.92,6.75,1.37,13.46-1.25,20a4.65,4.65,0,0,1-1.93,2.22,8.36,8.36,0,0,1-2.85.43,7.76,7.76,0,0,1-.18-2.51c2.55-9.24.89-17.93-3-26.46C42.44,100,36.22,86,29.79,71.72Z"/><path d="M48,59.6c2.69-2.07,5.26-4.32,8.09-6.18,13.5-8.86,27.27-17.32,40.55-26.5,10.28-7.13,21.9-8.68,33.74-9.84,1.06-.1,2.22.83,3.33,1.29-.93.77-1.76,2-2.81,2.25-4,.86-8.16,1.29-12.21,2.07a57.46,57.46,0,0,0-21.93,9.67c-13.12,9.06-26.65,17.53-40.14,26-2.3,1.44-5.26,1.84-7.91,2.72C48.49,60.61,48.25,60.1,48,59.6Z"/><path d="M280.47,170.35a39.32,39.32,0,0,1,4.86-3.27A107.81,107.81,0,0,1,323,157.82c1.47-.11,3.56-.68,3.73,1.82.15,2.17-.94,3.48-3.18,4.05-6,1.52-11.87,3.21-17.79,4.87-1.55.43-3.06,1-4.68,1.52,3.66,3.08,10.73,2.75,16.52-.72A25,25,0,0,1,319.9,171c.64.58,1.7,1.48,1.57,2a3,3,0,0,1-2,1.82,51.34,51.34,0,0,1-7.23.6c-9.12.19-18.18-.25-26.95-3.1C283.94,171.87,282.63,171.24,280.47,170.35Z"/><path d="M241.69,111.67h-7c-.07-.32-.15-.63-.22-.94a17.86,17.86,0,0,1,2.75-2c3.9-1.87,7.77-3.87,11.83-5.34,2.69-1,2.94-2.4,2.47-4.82a29.35,29.35,0,0,1-.66-7.74c.24-3,4.07-4.72,6.7-3.08a2.77,2.77,0,0,1-.16,2.44c-3.46,1.93-2.85,4.6-1.74,7.53,1.74,4.61,3.29,9.3,5.17,13.86a7.08,7.08,0,0,0,3.05,3.5c1.32.64,2.32,1.21,1.64,2.5a4.56,4.56,0,0,1-2.83,2.13,5,5,0,0,1-3.36-1c-1.93-1.38-3.74-1.13-5.69-.26-2.76,1.23-5.49,2.55-8.33,3.55-3.13,1.09-4,.5-4.64-2.66-.09-.39-.08-.89-.32-1.15C238.13,115.71,239.14,113.71,241.69,111.67Z"/><path d="M332.89,15.6c-.64,6.86-8.18,6.16-9.56,11.34a15,15,0,0,0,2,.85c3.52.95,7.39,5.37,7.56,9a3.23,3.23,0,0,1-1.2,2.43c-.47.3-1.65-.22-2.36-.64A3.63,3.63,0,0,1,328,36.9c-1.87-4.33-5.55-4.92-9.37-4a128.66,128.66,0,0,0-15.78,5c-4.95,2-9.62,4.62-14.48,6.84-.75.34-1.84-.07-2.77-.12.2-1.06,0-2.54.68-3.1a27.18,27.18,0,0,1,5.3-3.43q7.2-3.84,14.5-7.5c2.08-1.05,2.76-2.22,1.5-4.51-.64-1.15-.35-2.8-.49-4.23a29.39,29.39,0,0,1,4.14,2.47c.8.67.94,2.15,1.76,2.76a16.85,16.85,0,0,0,3.85,1.67c.31-1.23,1.13-2.61.83-3.67-.68-2.4-2.06-4.6-2.83-7-.28-.84.36-2,.58-3,1.27.44,3.49.68,3.64,1.37.74,3.39,2.7,2.49,4.77,1.83C326.64,17.52,329.44,16.67,332.89,15.6Z"/><path d="M278.92,128.49l-1.73-1.12c.49-.68.84-1.62,1.51-2a14.39,14.39,0,0,1,3.72-1.17c11.33-2.33,21.65-7.2,31.3-13.3,8.95-5.64,17.39-12.09,26-18.24a9.23,9.23,0,0,0,4.27-7c.07-.85,1.16-1.62,1.78-2.42.65.81,1.6,1.53,1.87,2.45.85,2.87-.21,5.45-2.12,7.52a43,43,0,0,1-6.44,5.93c-12.26,8.69-24.38,17.53-38,24.1C294.08,126.65,286.76,127.25,278.92,128.49Z"/><path d="M50.69,235.33c-5.28-1.22-10.26-1.85-14.83-3.55-9-3.37-17.86-7.3-26.73-11.1a19.29,19.29,0,0,1-4.07-2.61c-6.63-5.07-6.25-4.77-1.73-12,.46-.75,2.05-1.61,2.55-1.35a11.18,11.18,0,0,1,3,3c.23.28,0,1-.1,1.47-1,5.72-.91,5.62,4.2,8.53,10.57,6,22.26,8.07,34,9.91,1.39.22,2.78.48,4.14.83,3.2.83,5,2.67,4,4.58C54.41,234.22,52.15,234.61,50.69,235.33Z"/><path d="M340.24,33c3.11-.64,4.79.47,5.61,2.88.93,2.76,1.69,5.59,2.56,8.38,2.18,7,4.31,14.07,6.59,21.07,1.78,5.48,1,8-4,10.78-1.74,1-3.58,1.79-5.76,2.87-3.65-6.86-7.08-13.58-8.38-21.09-.28-1.58,1.24-3.48,1.92-5.23l.84.25c1.21,3.46,2.36,6.94,3.67,10.36A40.22,40.22,0,0,0,346,69c.33.57,1.54,1.28,1.88,1.09A2.94,2.94,0,0,0,349.3,68a31,31,0,0,0-.88-6.88c-2.3-8.25-4.79-16.45-7.2-24.68C340.91,35.42,340.63,34.37,340.24,33Z"/><path d="M307.79,11.33c-2.3,2.71-5.83,1.45-9,2.33l1.94,2.44c-1.86,3.33-2.43,3.48-6.29,1.65-8.48-4-17-7.95-25.4-12.07-2.48-1.22-4.63-1.25-6.77.41-4.8,3.75-10.3,3.79-15.88,2.79-1.13-.2-2.06-1.55-3.08-2.37,1.13-.57,2.26-1.64,3.38-1.63a28.54,28.54,0,0,0,15.08-3.69c3.3-1.91,6.68-1.31,10.12.35C277,4,282.19,6.76,287.68,8.22c4.88,1.3,10.18,1,15.3,1.44,1.56.13,3.11.36,4.66.55Z"/><path d="M196.29,107.43a33.57,33.57,0,0,1-4.3,1.82c-8.33,2.32-16.78,4.26-25,6.91-5.12,1.66-9.92,4.32-14.85,6.55-1.28.57-2.51,1.65-3.78,1.7s-3.25-.49-3.95-1.46c-1.19-1.64-.24-3.29,1.63-4.09,6.1-2.63,12.05-5.78,18.37-7.67,8-2.38,16.23-3.84,24.42-5.43,2.32-.45,4.82.07,7.24.14C196.14,106.41,196.21,106.92,196.29,107.43Z"/><path d="M184.64,193.33c-7.53-7-7.3-33.64,0-40.28-.19,5.11,2.82,9.54.64,14.83-1.8,4.37-.4,5.57,4.36,5.65l3,0c1.91,0,3.09.83,3.07,2.91,0,1.87-.73,2.92-2.81,3.19-9.32,1.2-8.07.59-8,9C185,190,184.79,191.37,184.64,193.33Z"/><path d="M177.91,91.71a19.71,19.71,0,0,1-3.51,1.65c-2.93.69-5.92,1.18-8.88,1.74a33.88,33.88,0,0,0-12.44,5.05c-6.66,4.28-14.35,6.2-22.21,7.22a9.94,9.94,0,0,1-2.11,0,6.11,6.11,0,0,1-1.35-.59,16.27,16.27,0,0,1,2.75-2.72,60.29,60.29,0,0,1,9.34-4.9c10.19-3.73,20.3-7.84,31.23-9C173,89.83,175.53,88.94,177.91,91.71Z"/><path d="M159.75,52.18a20.8,20.8,0,0,1,3.19-2.35c6.86-2.92,13.68-6,20.66-8.56,9.83-3.64,19.78-7,29.71-10.33.81-.27,1.86.17,2.8.29-.45.9-.68,2.18-1.41,2.65a37.39,37.39,0,0,1-6.95,3.63c-13.41,4.92-26.87,9.72-40.33,14.52a23,23,0,0,1-4.69,1.16C162,53.28,161.23,52.71,159.75,52.18Z"/><path d="M259.71,55.59c-3-.93-6-1.93-9.11-2.76-2.82-.77-5.72-1.25-8.5-2.12-1-.31-1.7-1.41-2.54-2.15,1-.41,2.07-1.24,3-1.14,8.13.87,16.22,1.89,23.14,6.92,1.74,1.25,1.36,2.36.2,3.42a47.83,47.83,0,0,1-4.8,3.66c-1.81,1.28-3.68,2.48-5.54,3.69a7.84,7.84,0,0,0-4,7.61c.07,1.06-.9,2.19-1.39,3.29-.93-.79-2.19-1.4-2.74-2.4A6.69,6.69,0,0,1,249,64.83c2.32-2.07,5-3.74,7.49-5.61,1.11-.82,2.18-1.68,3.27-2.53C259.72,56.32,259.72,56,259.71,55.59Z"/><path d="M217.45,136.58c-1.88-4.36-3.7-8.29-5.22-12.33-.41-1.08.1-2.51.19-3.78a33.41,33.41,0,0,0,3.49,1.51,16.68,16.68,0,0,0,4.93,1.12c3.65,0,5,1,4.89,4.65a2.69,2.69,0,0,1-1.27,2,4.31,4.31,0,0,0-3.21,4.58c.25,5.45-2.78,8.24-7.48,9.95-2.55.92-5,2.29-7.55,3.06-1.18.35-2.66-.28-4-.47.78-1.1,1.33-2.57,2.39-3.23,2.82-1.75,5.87-3.12,8.8-4.69C214.73,138.28,216,137.46,217.45,136.58Z"/><path d="M36.43,205.31c-1.15-1.11-2.72-2-3.36-3.36a25.43,25.43,0,0,1-2.3-7.43c-.39-3-1.61-4.62-4.59-5-4.84-.62-9.27-.39-12.27,4.37-.71,1.12-2.29,1.7-3.46,2.52-.37-1.57-.81-3.13-1.08-4.72-.09-.55.28-1.16.4-1.75.61-3.2,2.18-4.63,5.77-4.35,5.23.4,10.5.15,15.76.19,2.79,0,4.4,1,4.61,4.18.32,4.9,1.12,9.76,1.72,14.63Z"/><path d="M279.7,104.49c2.07,3.07,5.29,2.79,8,2.39a56.41,56.41,0,0,0,12.17-3.2c6.18-2.4,12.11-5.49,18.27-8,2-.8,4.4-.62,6.62-.89l.3,1.09c-3.08,1.64-6.09,3.47-9.28,4.87-8.57,3.77-17.1,7.69-25.89,10.9C283.89,113.88,280.77,111.41,279.7,104.49Z"/><path d="M332.55,197.82a38.58,38.58,0,0,0,2.66,3.64c2.77,3,3.63,3.18,6.79.46a124.19,124.19,0,0,0,9.56-9.22c1.37-1.45,2.83-2.46,4.34-1.18.77.65,1,2.85.51,3.9a19.82,19.82,0,0,1-4.25,6.17,47.52,47.52,0,0,1-8.81,6.35c-4.42,2.45-10.85-.36-12.36-5.22-.4-1.26-.06-2.75-.06-4.13Z"/><path d="M363.26,218.26a18.11,18.11,0,0,1,2.51,2.23c3.33,4.29,6.62,8.61,9.81,13,.5.69.41,1.8.6,2.72a10.09,10.09,0,0,1-3.07-.11,6.06,6.06,0,0,1-2.69-1.82c-2.45-3.06-4.9-6.13-7-9.41C362.18,223,361.26,220.78,363.26,218.26Z"/><path d="M199.14,142c-4-.07-8.58-7.53-6.56-10.74.69-1.1,2.58-1.71,4-1.95.53-.09,1.6,1.45,2,2.42.92,2.42,1.45,5,2.41,7.39C201.88,141.33,201.15,142.08,199.14,142Z"/><path d="M353.09,181.89c5.53.51,9.87,1.39,11.92,6.15.4.93-.24,2.3-.4,3.47-1-.48-1.92-.94-2.88-1.43-2.72-1.4-5.45-2.79-8.15-4.22-1.21-.64-2.37-1.38-3.55-2.07Z"/><path d="M205.55,131.72a4,4,0,0,1,0-1.5c.51-1.12,1.17-2.18,1.77-3.27,1,.77,2.24,1.35,2.79,2.35,1.46,2.65,2.92,5.51.5,8.4-.59.71-1.68,1.55-2.42,1.45s-1.6-1.23-1.87-2.08a44.49,44.49,0,0,1-1-5.31Z"/><path d="M203.74,184.05c1.08-1.16,2-2.86,3.3-3.38a42.41,42.41,0,0,1,8.45-2.07c2-.33,2.21,1.11,1.46,2.49a4.57,4.57,0,0,1-2.07,1.62c-2.64,1.22-5.33,2.32-8,3.48C204.89,187.06,204.27,186.68,203.74,184.05Z"/><path d="M207.86,120.47c-2,2.84-5.21,3.51-8.35,4.23-.33.08-1.23-.67-1.19-.93.14-.9.38-2.34.94-2.54,2.64-.9,5.39-1.46,8.11-2.14Z"/><path d="M263.38,99.52c-1.54-1.59-3.19-2.67-3-3.25.37-1.28,1.44-3,2.57-3.3,1.93-.58,3,1.15,2.83,2.9C265.66,96.87,264.56,97.78,263.38,99.52Z"/><path d="M357.87,205c-2.08-4.57,1.95-7.55,2-11.53C361.9,195.92,360.87,201.66,357.87,205Z"/><path d="M271.7,109.83c-1.51.81-2.44,1.71-3.29,1.65s-2.15-1.45-2-1.81a16.71,16.71,0,0,1,2.22-3.45Z"/><path d="M339.47,177.48l6.28,2.61-.29.76c-2.37-.14-5,.38-6.38-2.39Z"/><path d="M221.68,119.33c-1,.84-1.67,1.79-2.28,1.76s-1.44-1-1.6-1.66c-.11-.42.87-1.55,1.36-1.55C219.85,117.88,220.55,118.63,221.68,119.33Z"/></g></g></svg>